<svg xmlns="http://www.w3.org/2000/svg" version="1.1" viewBox="0 0 682 720" preserveAspectRatio="xMidYMid meet" class="tree" data-char="68"><text x="678" y="12.7" text-anchor="end" class="stepsLabel">Character adds <tspan class="score">2</tspan> to tree score</text><text x="678" y="22.4" text-anchor="end" class="stepsLabel"><tspan class="score">0</tspan> additional regions</text><text x="678" y="32.1" text-anchor="end" class="stepsLabel"></text><text x="678" y="51.5" text-anchor="end" class="stepsLabel"><tspan dy="16" fill="#34caaf">An optimal tree under:</tspan><tspan x="680" style="font-style:italic" class="notThisAn" dy="1.2em">Implied weights, k = 4.5</tspan><tspan x="680" style="font-style:italic" class="notThisAn" dy="1.2em">IW, k = 10.5</tspan><tspan x="680" style="font-style:italic" class="notThisAn" dy="1.2em">IW, k = 24</tspan><tspan x="680" style="font-style:italic" class="thisAn" dy="1.2em">Equal weights</tspan></text><text x="56.1" y="695.4" fill="grey" class="flag">[?]</text><text x="78.1" y="695.4" fill="#999" class="taxonLabel">Flustra</text><text x="56.1" y="705.2" fill="grey" class="flag">[?]</text><text x="78.1" y="705.2" fill="#999" class="taxonLabel">Amathia</text><text x="328.7" y="538.8" fill="#91bfdb" class="flag">[1]</text><text x="350.7" y="538.8" fill="#000" class="taxonLabel">Capitella</text><text x="328.7" y="548.5" fill="#91bfdb" class="flag">[1]</text><text x="350.7" y="548.5" fill="#000" class="taxonLabel">Canadia spinosa</text><text x="311.6" y="558.3" fill="#fc8d59" class="flag">[0]</text><text x="333.6" y="558.3" fill="#000" class="taxonLabel">Serpula</text><text x="294.6" y="568.1" fill="#91bfdb" class="flag">[1]</text><text x="316.6" y="568.1" fill="#000" class="taxonLabel">Sipunculus</text><text x="362.8" y="499.6" fill="grey" class="flag">[?]</text><text x="384.8" y="499.6" fill="#999" class="taxonLabel">Pojetaia runnegari</text><text x="362.8" y="509.4" fill="#fc8d59" class="flag">[0]</text><text x="384.8" y="509.4" fill="#000" class="taxonLabel">Mytilus</text><text x="379.8" y="470.2" fill="grey" class="flag">[?]</text><text x="401.8" y="470.2" fill="#999" class="taxonLabel">Neopilina</text><text x="379.8" y="480" fill="grey" class="flag">[?]</text><text x="401.8" y="480" fill="#999" class="taxonLabel">Conocardium elongatum</text><text x="362.8" y="489.8" fill="#fc8d59" class="flag">[0]</text><text x="384.8" y="489.8" fill="#000" class="taxonLabel">Haliotis</text><text x="328.7" y="519.2" fill="grey" class="flag">[?]</text><text x="350.7" y="519.2" fill="#999" class="taxonLabel">Dentalium</text><text x="345.7" y="450.6" fill="grey" class="flag">[?]</text><text x="367.7" y="450.6" fill="#999" class="taxonLabel">Wiwaxia corrugata</text><text x="345.7" y="460.4" fill="grey" class="flag">[?]</text><text x="367.7" y="460.4" fill="#999" class="taxonLabel">Odontogriphus omalus</text><text x="396.8" y="421.2" fill="grey" class="flag">[?]</text><text x="418.8" y="421.2" fill="#999" class="taxonLabel">Wirenia</text><text x="396.8" y="431" fill="grey" class="flag">[?]</text><text x="418.8" y="431" fill="#999" class="taxonLabel">Chaetoderma</text><text x="413.9" y="391.9" fill="grey" class="flag">[?]</text><text x="435.9" y="391.9" fill="#999" class="taxonLabel">Phthipodochiton thraivensis</text><text x="413.9" y="401.7" fill="grey" class="flag">[?]</text><text x="435.9" y="401.7" fill="#999" class="taxonLabel">Kulindroplax perissokomos</text><text x="396.8" y="411.5" fill="grey" class="flag">[?]</text><text x="418.8" y="411.5" fill="#999" class="taxonLabel">Acaenoplax hayae</text><text x="447.9" y="333.1" fill="#fc8d59" class="flag">[0]</text><text x="469.9" y="333.1" fill="#000" class="taxonLabel">Tonicella</text><text x="447.9" y="342.9" fill="#fc8d59" class="flag">[0]</text><text x="469.9" y="342.9" fill="#000" class="taxonLabel">Mopalia</text><text x="430.9" y="352.7" fill="grey" class="flag">[?]</text><text x="452.9" y="352.7" fill="#999" class="taxonLabel">Glaphurochiton carbonarius</text><text x="413.9" y="362.5" fill="#fc8d59" class="flag">[0]</text><text x="435.9" y="362.5" fill="#000" class="taxonLabel">Leptochiton</text><text x="396.8" y="372.3" fill="grey" class="flag">[?]</text><text x="418.8" y="372.3" fill="#999" class="taxonLabel">Calvapilosa kroegeri</text><text x="379.8" y="382.1" fill="grey" class="flag">[?]</text><text x="401.8" y="382.1" fill="#999" class="taxonLabel">Polysacos vickersianum</text><text x="345.7" y="440.8" fill="grey" class="flag">[?]</text><text x="367.7" y="440.8" fill="#999" class="taxonLabel">Siphogonuchites multa</text><text x="294.6" y="529" fill="grey" class="flag">[?]</text><text x="316.6" y="529" fill="#999" class="taxonLabel">Pelagiella</text><text x="260.5" y="577.9" fill="grey" class="flag">[?]</text><text x="282.5" y="577.9" fill="#999" class="taxonLabel">Bactrotheca</text><text x="243.5" y="587.7" fill="grey" class="flag">[?]</text><text x="265.5" y="587.7" fill="#999" class="taxonLabel">Cupitheca holocyclata</text><text x="311.6" y="284.2" fill="grey" class="flag">[?]</text><text x="333.6" y="284.2" fill="#999" class="taxonLabel">Mickwitzia muralensis</text><text x="311.6" y="294" fill="grey" class="flag">[?]</text><text x="333.6" y="294" fill="#999" class="taxonLabel">Heliomedusa orienta</text><text x="379.8" y="245" fill="#fc8d59" class="flag">[0]</text><text x="401.8" y="245" fill="#000" class="taxonLabel">Novocrania</text><text x="379.8" y="254.8" fill="grey" class="flag">[?]</text><text x="401.8" y="254.8" fill="#999" class="taxonLabel">Craniops</text><text x="362.8" y="264.6" fill="grey" class="flag">[?]</text><text x="384.8" y="264.6" fill="#999" class="taxonLabel">Ussunia</text><text x="345.7" y="274.4" fill="grey" class="flag">[?]</text><text x="367.7" y="274.4" fill="#999" class="taxonLabel">Gasconsia</text><text x="413.9" y="196" fill="grey" class="flag">[?]</text><text x="435.9" y="196" fill="#999" class="taxonLabel">Pelagodiscus atlanticus</text><text x="413.9" y="205.8" fill="grey" class="flag">[?]</text><text x="435.9" y="205.8" fill="#999" class="taxonLabel">Mummpikia nuda</text><text x="465" y="147.1" fill="grey" class="flag">[?]</text><text x="487" y="147.1" fill="#999" class="taxonLabel">Siphonobolus priscus</text><text x="465" y="156.9" fill="grey" class="flag">[?]</text><text x="487" y="156.9" fill="#999" class="taxonLabel">Acanthotretella spinosa</text><text x="447.9" y="166.7" fill="grey" class="flag">[?]</text><text x="469.9" y="166.7" fill="#999" class="taxonLabel">Clupeafumosus socialis</text><text x="430.9" y="176.5" fill="grey" class="flag">[?]</text><text x="452.9" y="176.5" fill="#999" class="taxonLabel">Lingulosacculus</text><text x="413.9" y="186.2" fill="grey" class="flag">[?]</text><text x="435.9" y="186.2" fill="#999" class="taxonLabel">Lingulellotreta malongensis</text><text x="379.8" y="215.6" fill="grey" class="flag">[?]</text><text x="401.8" y="215.6" fill="#999" class="taxonLabel">Botsfordia</text><text x="362.8" y="225.4" fill="grey" class="flag">[?]</text><text x="384.8" y="225.4" fill="#999" class="taxonLabel">Eoobolus</text><text x="345.7" y="235.2" fill="#fc8d59" class="flag">[0]</text><text x="367.7" y="235.2" fill="#000" class="taxonLabel">Lingula</text><text x="345.7" y="127.5" fill="grey" class="flag">[?]</text><text x="367.7" y="127.5" fill="#999" class="taxonLabel">Micromitra</text><text x="345.7" y="137.3" fill="grey" class="flag">[?]</text><text x="367.7" y="137.3" fill="#999" class="taxonLabel">Askepasma toddense</text><text x="379.8" y="98.1" fill="grey" class="flag">[?]</text><text x="401.8" y="98.1" fill="#999" class="taxonLabel">Yuganotheca elegans</text><text x="379.8" y="107.9" fill="grey" class="flag">[?]</text><text x="401.8" y="107.9" fill="#999" class="taxonLabel">Tomteluva perturbata</text><text x="413.9" y="68.8" fill="grey" class="flag">[?]</text><text x="435.9" y="68.8" fill="#999" class="taxonLabel">Coolinia pecten</text><text x="413.9" y="78.5" fill="grey" class="flag">[?]</text><text x="435.9" y="78.5" fill="#999" class="taxonLabel">Antigonambonites planus</text><text x="482" y="10" fill="grey" class="flag">[?]</text><text x="504" y="10" fill="#999" class="taxonLabel">Terebratulina</text><text x="482" y="19.8" fill="grey" class="flag">[?]</text><text x="504" y="19.8" fill="#999" class="taxonLabel">Orthis</text><text x="465" y="29.6" fill="grey" class="flag">[?]</text><text x="487" y="29.6" fill="#999" class="taxonLabel">Alisina</text><text x="447.9" y="39.4" fill="grey" class="flag">[?]</text><text x="469.9" y="39.4" fill="#999" class="taxonLabel">Glyptoria</text><text x="430.9" y="49.2" fill="grey" class="flag">[?]</text><text x="452.9" y="49.2" fill="#999" class="taxonLabel">Nisusia sulcata</text><text x="413.9" y="59" fill="grey" class="flag">[?]</text><text x="435.9" y="59" fill="#999" class="taxonLabel">Kutorgina chengjiangensis</text><text x="379.8" y="88.3" fill="grey" class="flag">[?]</text><text x="401.8" y="88.3" fill="#999" class="taxonLabel">Longtancunella chengjiangensis</text><text x="345.7" y="117.7" fill="grey" class="flag">[?]</text><text x="367.7" y="117.7" fill="#999" class="taxonLabel">Salanygolina</text><text x="277.6" y="303.8" fill="grey" class="flag">[?]</text><text x="299.6" y="303.8" fill="#999" class="taxonLabel">Micrina</text><text x="260.5" y="313.5" fill="grey" class="flag">[?]</text><text x="282.5" y="313.5" fill="#999" class="taxonLabel">Paterimitra</text><text x="243.5" y="323.3" fill="grey" class="flag">[?]</text><text x="265.5" y="323.3" fill="#999" class="taxonLabel">Pedunculotheca diania</text><text x="209.4" y="597.5" fill="grey" class="flag">[?]</text><text x="231.4" y="597.5" fill="#999" class="taxonLabel">Paramicrocornus</text><text x="192.4" y="607.3" fill="grey" class="flag">[?]</text><text x="214.4" y="607.3" fill="#999" class="taxonLabel">Haplophrentis carinatus</text><text x="175.4" y="617.1" fill="grey" class="flag">[?]</text><text x="197.4" y="617.1" fill="#999" class="taxonLabel">Halkieria evangelista</text><text x="158.3" y="626.9" fill="grey" class="flag">[?]</text><text x="180.3" y="626.9" fill="#999" class="taxonLabel">Orthrozanclus</text><text x="141.3" y="636.7" fill="grey" class="flag">[?]</text><text x="163.3" y="636.7" fill="#999" class="taxonLabel">Yilingia spiciformis</text><text x="124.2" y="646.5" fill="grey" class="flag">[?]</text><text x="146.2" y="646.5" fill="#999" class="taxonLabel">Dailyatia</text><text x="107.2" y="656.2" fill="grey" class="flag">[?]</text><text x="129.2" y="656.2" fill="#999" class="taxonLabel">Cotyledion tylodes</text><text x="90.2" y="666" fill="grey" class="flag">[?]</text><text x="112.2" y="666" fill="#999" class="taxonLabel">Eccentrotheca</text><text x="73.1" y="675.8" fill="grey" class="flag">[?]</text><text x="95.1" y="675.8" fill="#999" class="taxonLabel">Namacalathus</text><text x="56.1" y="685.6" fill="grey" class="flag">[?]</text><text x="78.1" y="685.6" fill="#999" class="taxonLabel">Phoronis</text><text x="22" y="715" fill="grey" class="flag">[?]</text><text x="44" y="715" fill="#999" class="taxonLabel">Loxosomella</text><path d="M5,698.5V685H22M22,685V672.7H39.1M39.1,672.7V662.8H56.1M56.1,662.8V652.7H73.1M73.1,652.7V642.4H90.2M90.2,642.4V631.5H107.2M107.2,631.5V619.5H124.2M124.2,619.5V605.4H141.3M141.3,605.4V586.9H158.3M158.3,586.9V559.8H175.4M175.4,559.8V515.3H192.4M192.4,515.3V436.1H209.4M209.4,436.1V304.4H226.5M226.5,304.4V288.5H243.5M243.5,288.5V266.5H260.5M260.5,266.5V232.3H277.6M277.6,232.3V178.5H294.6M294.6,178.5V114.9H311.6M311.6,114.9V100.3H328.7M328.7,100.3V86H345.7M345.7,86V71.9H362.8M362.8,71.9V58.6H379.8M379.8,58.6V46.5H396.8M396.8,46.5V37H413.9M413.9,37V27.8H430.9M430.9,27.8V19.2H447.9M447.9,19.2V11.9H465M465,11.9V7H482M465,11.9V16.8H482M447.9,19.2V26.6H465M430.9,27.8V36.4H447.9M413.9,37V46.2H430.9M396.8,46.5V56H413.9M379.8,58.6V70.6H396.8M396.8,70.6V65.8H413.9M396.8,70.6V75.5H413.9M362.8,71.9V85.3H379.8M345.7,86V100H362.8M362.8,100V95.1H379.8M362.8,100V104.9H379.8M328.7,100.3V114.7H345.7M311.6,114.9V129.4H328.7M328.7,129.4V124.5H345.7M328.7,129.4V134.3H345.7M294.6,178.5V242.2H311.6M311.6,242.2V221.5H328.7M328.7,221.5V210.9H345.7M345.7,210.9V199.3H362.8M362.8,199.3V186H379.8M379.8,186V174.1H396.8M396.8,174.1V164.9H413.9M413.9,164.9V156.3H430.9M430.9,156.3V149H447.9M447.9,149V144.1H465M447.9,149V153.9H465M430.9,156.3V163.7H447.9M413.9,164.9V173.5H430.9M396.8,174.1V183.2H413.9M379.8,186V197.9H396.8M396.8,197.9V193H413.9M396.8,197.9V202.8H413.9M362.8,199.3V212.6H379.8M345.7,210.9V222.4H362.8M328.7,221.5V232.2H345.7M311.6,242.2V262.8H328.7M328.7,262.8V254.2H345.7M345.7,254.2V246.9H362.8M362.8,246.9V242H379.8M362.8,246.9V251.8H379.8M345.7,254.2V261.6H362.8M328.7,262.8V271.4H345.7M277.6,232.3V286.1H294.6M294.6,286.1V281.2H311.6M294.6,286.1V291H311.6M260.5,266.5V300.8H277.6M243.5,288.5V310.5H260.5M226.5,304.4V320.3H243.5M209.4,436.1V567.8H226.5M226.5,567.8V550.9H243.5M243.5,550.9V526.9H260.5M260.5,526.9V497.2H277.6M277.6,497.2V468.4H294.6M294.6,468.4V433.4H311.6M311.6,433.4V414.3H328.7M328.7,414.3V390.9H345.7M345.7,390.9V369.6H362.8M362.8,369.6V360.1H379.8M379.8,360.1V350.9H396.8M396.8,350.9V342.4H413.9M413.9,342.4V335H430.9M430.9,335V330.1H447.9M430.9,335V339.9H447.9M413.9,342.4V349.7H430.9M396.8,350.9V359.5H413.9M379.8,360.1V369.3H396.8M362.8,369.6V379.1H379.8M345.7,390.9V412.1H362.8M362.8,412.1V401.1H379.8M379.8,401.1V393.8H396.8M396.8,393.8V388.9H413.9M396.8,393.8V398.7H413.9M379.8,401.1V408.5H396.8M362.8,412.1V423.1H379.8M379.8,423.1V418.2H396.8M379.8,423.1V428H396.8M328.7,414.3V437.8H345.7M311.6,433.4V452.5H328.7M328.7,452.5V447.6H345.7M328.7,452.5V457.4H345.7M294.6,468.4V503.3H311.6M311.6,503.3V490.5H328.7M328.7,490.5V479.4H345.7M345.7,479.4V472.1H362.8M362.8,472.1V467.2H379.8M362.8,472.1V477H379.8M345.7,479.4V486.8H362.8M328.7,490.5V501.5H345.7M345.7,501.5V496.6H362.8M345.7,501.5V506.4H362.8M311.6,503.3V516.2H328.7M277.6,497.2V526H294.6M260.5,526.9V556.6H277.6M294.6,548V555.3H311.6M243.5,550.9V574.9H260.5M226.5,567.8V584.7H243.5M192.4,515.3V594.5H209.4M175.4,559.8V604.3H192.4M158.3,586.9V614.1H175.4M141.3,605.4V623.9H158.3M124.2,619.5V633.7H141.3M107.2,631.5V643.5H124.2M90.2,642.4V653.2H107.2M73.1,652.7V663H90.2M56.1,662.8V672.8H73.1M39.1,672.7V682.6H56.1M22,685V697.3H39.1M39.1,697.3V692.4H56.1M39.1,697.3V702.2H56.1M5,698.5V712H22" stroke="#fc8d59"></path><path d="M277.6,556.6V548H294.6" stroke="darkgrey"></path><path d="M294.6,548V540.6H311.6M311.6,540.6V535.8H328.7M311.6,540.6V545.5H328.7M277.6,556.6V565.1H294.6" stroke="#91bfdb"></path><text x="24" y="688" class="node" fill="#4A6FE3">1</text><text x="41.1" y="675.7" class="node" fill="#C1C6E3">0.62</text><text x="58.1" y="665.8" class="node" fill="#4A6FE3">1</text><text x="75.1" y="655.7" class="node" fill="#E5D0D3">0.44</text><text x="92.2" y="645.4" class="node" fill="#4A6FE3">1</text><text x="109.2" y="634.5" class="node" fill="#CACDE3">0.59</text><text x="126.2" y="622.5" class="node" fill="#4A6FE3">1</text><text x="143.3" y="608.4" class="node" fill="#4A6FE3">1</text><text x="160.3" y="589.9" class="node" fill="#4A6FE3">1</text><text x="177.4" y="562.8" class="node" fill="#DADBE3">0.53</text><text x="194.4" y="518.3" class="node" fill="#4A6FE3">1</text><text x="211.4" y="439.1" class="node" fill="#4A6FE3">1</text><text x="228.5" y="307.4" class="node" fill="#4A6FE3">1</text><text x="245.5" y="291.5" class="node" fill="#4A6FE3">1</text><text x="262.5" y="269.5" class="node" fill="#4A6FE3">1</text><text x="279.6" y="235.3" class="node" fill="#4A6FE3">1</text><text x="296.6" y="181.5" class="node" fill="#4A6FE3">1</text><text x="313.6" y="117.9" class="node" fill="#4A6FE3">1</text><text x="330.7" y="103.3" class="node" fill="#DADBE3">0.53</text><text x="347.7" y="89" class="node" fill="#E5C7CC">0.41</text><text x="364.8" y="74.9" class="node" fill="#768BE1">0.88</text><text x="381.8" y="61.6" class="node" fill="#9AA6E2">0.76</text><text x="398.8" y="49.5" class="node" fill="#E5C7CC">0.41</text><text x="415.9" y="40" class="node" fill="#768BE1">0.88</text><text x="432.9" y="30.8" class="node" fill="#627DE1">0.94</text><text x="449.9" y="22.2" class="node" fill="#627DE1">0.94</text><text x="467" y="14.9" class="node" fill="#4A6FE3">1</text><text x="398.8" y="73.6" class="node" fill="#6D84E1">0.91</text><text x="364.8" y="103" class="node" fill="#4A6FE3">1</text><text x="330.7" y="132.4" class="node" fill="#4A6FE3">1</text><text x="313.6" y="245.2" class="node" fill="#4A6FE3">1</text><text x="330.7" y="224.5" class="node" fill="#4A6FE3">1</text><text x="347.7" y="213.9" class="node" fill="#4A6FE3">1</text><text x="364.8" y="202.3" class="node" fill="#4A6FE3">1</text><text x="381.8" y="189" class="node" fill="#4A6FE3">1</text><text x="398.8" y="177.1" class="node" fill="#4A6FE3">1</text><text x="415.9" y="167.9" class="node" fill="#E17F94">0.18</text><text x="432.9" y="159.3" class="node" fill="#4A6FE3">1</text><text x="449.9" y="152" class="node" fill="#4A6FE3">1</text><text x="398.8" y="200.9" class="node" fill="#4A6FE3">1</text><text x="330.7" y="265.8" class="node" fill="#4A6FE3">1</text><text x="347.7" y="257.2" class="node" fill="#4A6FE3">1</text><text x="364.8" y="249.9" class="node" fill="#4A6FE3">1</text><text x="296.6" y="289.1" class="node" fill="#4A6FE3">1</text><text x="228.5" y="570.8" class="node" fill="#4A6FE3">1</text><text x="245.5" y="553.9" class="node" fill="#4A6FE3">1</text><text x="262.5" y="529.9" class="node" fill="#929FE1">0.79</text><text x="279.6" y="500.2" class="node" fill="#D2D4E3">0.56</text><text x="296.6" y="471.4" class="node" fill="#4A6FE3">1</text><text x="313.6" y="436.4" class="node" fill="#4A6FE3">1</text><text x="330.7" y="417.3" class="node" fill="#627DE1">0.94</text><text x="347.7" y="393.9" class="node" fill="#627DE1">0.94</text><text x="364.8" y="372.6" class="node" fill="#4A6FE3">1</text><text x="381.8" y="363.1" class="node" fill="#D2D4E3">0.56</text><text x="398.8" y="353.9" class="node" fill="#E392A2">0.24</text><text x="415.9" y="345.4" class="node" fill="#4A6FE3">1</text><text x="432.9" y="338" class="node" fill="#4A6FE3">1</text><text x="364.8" y="415.1" class="node" fill="#4A6FE3">1</text><text x="381.8" y="404.1" class="node" fill="#4A6FE3">1</text><text x="398.8" y="396.8" class="node" fill="#4A6FE3">1</text><text x="381.8" y="426.1" class="node" fill="#4A6FE3">1</text><text x="330.7" y="455.5" class="node" fill="#4A6FE3">1</text><text x="313.6" y="506.3" class="node" fill="#4A6FE3">1</text><text x="330.7" y="493.5" class="node" fill="#929FE1">0.79</text><text x="347.7" y="482.4" class="node" fill="#CACDE3">0.59</text><text x="364.8" y="475.1" class="node" fill="#E6ABB6">0.32</text><text x="347.7" y="504.5" class="node" fill="#4A6FE3">1</text><text x="279.6" y="559.6" class="node" fill="#4A6FE3">1</text><text x="296.6" y="551" class="node" fill="#CACDE3">0.59</text><text x="313.6" y="543.6" class="node" fill="#4A6FE3">1</text><text x="41.1" y="700.3" class="node" fill="#4A6FE3">1</text></svg>
