<svg xmlns="http://www.w3.org/2000/svg" version="1.1" viewBox="0 0 682 720" preserveAspectRatio="xMidYMid meet" class="tree" data-char="164"><text x="678" y="12.7" text-anchor="end" class="stepsLabel">Character adds <tspan class="score">5</tspan> to tree score</text><text x="678" y="22.4" text-anchor="end" class="stepsLabel"><tspan class="score">0</tspan> additional regions</text><text x="678" y="32.1" text-anchor="end" class="stepsLabel"></text><text x="678" y="51.5" text-anchor="end" class="stepsLabel"><tspan dy="16" fill="#34caaf">An optimal tree under:</tspan><tspan x="680" style="font-style:italic" class="notThisAn" dy="1.2em">Implied weights, k = 4.5</tspan><tspan x="680" style="font-style:italic" class="notThisAn" dy="1.2em">IW, k = 10.5</tspan><tspan x="680" style="font-style:italic" class="notThisAn" dy="1.2em">IW, k = 24</tspan><tspan x="680" style="font-style:italic" class="thisAn" dy="1.2em">Equal weights</tspan></text><text x="58" y="695.4" fill="#fc8d59" class="flag">[0]</text><text x="80" y="695.4" fill="#000" class="taxonLabel">Flustra</text><text x="58" y="705.2" fill="#fc8d59" class="flag">[0]</text><text x="80" y="705.2" fill="#000" class="taxonLabel">Amathia</text><text x="340.7" y="538.8" fill="#fc8d59" class="flag">[0]</text><text x="362.7" y="538.8" fill="#000" class="taxonLabel">Capitella</text><text x="340.7" y="548.5" fill="#fc8d59" class="flag">[0]</text><text x="362.7" y="548.5" fill="#000" class="taxonLabel">Canadia spinosa</text><text x="323" y="558.3" fill="#fc8d59" class="flag">[0]</text><text x="345" y="558.3" fill="#000" class="taxonLabel">Serpula</text><text x="305.3" y="568.1" fill="#fc8d59" class="flag">[0]</text><text x="327.3" y="568.1" fill="#000" class="taxonLabel">Sipunculus</text><text x="411.3" y="470.2" fill="#fc8d59" class="flag">[0]</text><text x="433.3" y="470.2" fill="#000" class="taxonLabel">Haliotis</text><text x="411.3" y="480" fill="#fc8d59" class="flag">[0]</text><text x="433.3" y="480" fill="#000" class="taxonLabel">Conocardium elongatum</text><text x="393.7" y="489.8" fill="#fc8d59" class="flag">[0]</text><text x="415.7" y="489.8" fill="#000" class="taxonLabel">Neopilina</text><text x="376" y="499.6" fill="#fc8d59" class="flag">[0]</text><text x="398" y="499.6" fill="#000" class="taxonLabel">Mytilus</text><text x="358.3" y="509.4" fill="#fc8d59" class="flag">[0]</text><text x="380.3" y="509.4" fill="#000" class="taxonLabel">Pojetaia runnegari</text><text x="340.7" y="519.2" fill="#fc8d59" class="flag">[0]</text><text x="362.7" y="519.2" fill="#000" class="taxonLabel">Dentalium</text><text x="323" y="529" fill="#fc8d59" class="flag">[0]</text><text x="345" y="529" fill="#000" class="taxonLabel">Pelagiella</text><text x="340.7" y="450.6" fill="#fc8d59" class="flag">[0]</text><text x="362.7" y="450.6" fill="#000" class="taxonLabel">Wiwaxia corrugata</text><text x="340.7" y="460.4" fill="#fc8d59" class="flag">[0]</text><text x="362.7" y="460.4" fill="#000" class="taxonLabel">Odontogriphus omalus</text><text x="393.7" y="421.2" fill="#fc8d59" class="flag">[0]</text><text x="415.7" y="421.2" fill="#000" class="taxonLabel">Wirenia</text><text x="393.7" y="431" fill="#fc8d59" class="flag">[0]</text><text x="415.7" y="431" fill="#000" class="taxonLabel">Chaetoderma</text><text x="411.3" y="391.9" fill="#fc8d59" class="flag">[0]</text><text x="433.3" y="391.9" fill="#000" class="taxonLabel">Phthipodochiton thraivensis</text><text x="411.3" y="401.7" fill="#fc8d59" class="flag">[0]</text><text x="433.3" y="401.7" fill="#000" class="taxonLabel">Kulindroplax perissokomos</text><text x="393.7" y="411.5" fill="#fc8d59" class="flag">[0]</text><text x="415.7" y="411.5" fill="#000" class="taxonLabel">Acaenoplax hayae</text><text x="411.3" y="362.5" fill="#fc8d59" class="flag">[0]</text><text x="433.3" y="362.5" fill="#000" class="taxonLabel">Tonicella</text><text x="411.3" y="372.3" fill="#fc8d59" class="flag">[0]</text><text x="433.3" y="372.3" fill="#000" class="taxonLabel">Mopalia</text><text x="429" y="333.1" fill="#fc8d59" class="flag">[0]</text><text x="451" y="333.1" fill="#000" class="taxonLabel">Glaphurochiton carbonarius</text><text x="429" y="342.9" fill="#fc8d59" class="flag">[0]</text><text x="451" y="342.9" fill="#000" class="taxonLabel">Calvapilosa kroegeri</text><text x="411.3" y="352.7" fill="#fc8d59" class="flag">[0]</text><text x="433.3" y="352.7" fill="#000" class="taxonLabel">Leptochiton</text><text x="376" y="382.1" fill="#fc8d59" class="flag">[0]</text><text x="398" y="382.1" fill="#000" class="taxonLabel">Polysacos vickersianum</text><text x="340.7" y="440.8" fill="#fc8d59" class="flag">[0]</text><text x="362.7" y="440.8" fill="#000" class="taxonLabel">Siphogonuchites multa</text><text x="270" y="577.9" fill="grey" class="flag">[?]</text><text x="292" y="577.9" fill="#999" class="taxonLabel">Bactrotheca</text><text x="252.3" y="587.7" fill="#91bfdb" class="flag">[1]</text><text x="274.3" y="587.7" fill="#000" class="taxonLabel">Cupitheca holocyclata</text><text x="323" y="284.2" fill="#fc8d59" class="flag">[0]</text><text x="345" y="284.2" fill="#000" class="taxonLabel">Mickwitzia muralensis</text><text x="323" y="294" fill="#fc8d59" class="flag">[0]</text><text x="345" y="294" fill="#000" class="taxonLabel">Heliomedusa orienta</text><text x="393.7" y="245" fill="#fc8d59" class="flag">[0]</text><text x="415.7" y="245" fill="#000" class="taxonLabel">Novocrania</text><text x="393.7" y="254.8" fill="#fc8d59" class="flag">[0]</text><text x="415.7" y="254.8" fill="#000" class="taxonLabel">Craniops</text><text x="376" y="264.6" fill="#fc8d59" class="flag">[0]</text><text x="398" y="264.6" fill="#000" class="taxonLabel">Ussunia</text><text x="358.3" y="274.4" fill="#fc8d59" class="flag">[0]</text><text x="380.3" y="274.4" fill="#000" class="taxonLabel">Gasconsia</text><text x="429" y="196" fill="#fc8d59" class="flag">[0]</text><text x="451" y="196" fill="#000" class="taxonLabel">Pelagodiscus atlanticus</text><text x="429" y="205.8" fill="#fc8d59" class="flag">[0]</text><text x="451" y="205.8" fill="#000" class="taxonLabel">Mummpikia nuda</text><text x="464.3" y="166.7" fill="#fc8d59" class="flag">[0]</text><text x="486.3" y="166.7" fill="#000" class="taxonLabel">Siphonobolus priscus</text><text x="464.3" y="176.5" fill="#fc8d59" class="flag">[0]</text><text x="486.3" y="176.5" fill="#000" class="taxonLabel">Acanthotretella spinosa</text><text x="464.3" y="147.1" fill="grey" class="flag">[?]</text><text x="486.3" y="147.1" fill="#999" class="taxonLabel">Lingulosacculus</text><text x="464.3" y="156.9" fill="#fc8d59" class="flag">[0]</text><text x="486.3" y="156.9" fill="#000" class="taxonLabel">Clupeafumosus socialis</text><text x="429" y="186.2" fill="#fc8d59" class="flag">[0]</text><text x="451" y="186.2" fill="#000" class="taxonLabel">Lingulellotreta malongensis</text><text x="393.7" y="215.6" fill="#fc8d59" class="flag">[0]</text><text x="415.7" y="215.6" fill="#000" class="taxonLabel">Botsfordia</text><text x="376" y="225.4" fill="#fc8d59" class="flag">[0]</text><text x="398" y="225.4" fill="#000" class="taxonLabel">Eoobolus</text><text x="358.3" y="235.2" fill="#fc8d59" class="flag">[0]</text><text x="380.3" y="235.2" fill="#000" class="taxonLabel">Lingula</text><text x="358.3" y="127.5" fill="#fc8d59" class="flag">[0]</text><text x="380.3" y="127.5" fill="#000" class="taxonLabel">Micromitra</text><text x="358.3" y="137.3" fill="#fc8d59" class="flag">[0]</text><text x="380.3" y="137.3" fill="#000" class="taxonLabel">Askepasma toddense</text><text x="411.3" y="88.3" fill="#91bfdb" class="flag">[1]</text><text x="433.3" y="88.3" fill="#000" class="taxonLabel">Yuganotheca elegans</text><text x="411.3" y="98.1" fill="#91bfdb" class="flag">[1]</text><text x="433.3" y="98.1" fill="#000" class="taxonLabel">Tomteluva perturbata</text><text x="393.7" y="107.9" fill="#91bfdb" class="flag">[1]</text><text x="415.7" y="107.9" fill="#000" class="taxonLabel">Longtancunella chengjiangensis</text><text x="411.3" y="68.8" fill="#91bfdb" class="flag">[1]</text><text x="433.3" y="68.8" fill="#000" class="taxonLabel">Coolinia pecten</text><text x="411.3" y="78.5" fill="#91bfdb" class="flag">[1]</text><text x="433.3" y="78.5" fill="#000" class="taxonLabel">Antigonambonites planus</text><text x="482" y="10" fill="#fc8d59" class="flag">[0]</text><text x="504" y="10" fill="#000" class="taxonLabel">Terebratulina</text><text x="482" y="19.8" fill="#fc8d59" class="flag">[0]</text><text x="504" y="19.8" fill="#000" class="taxonLabel">Orthis</text><text x="464.3" y="29.6" fill="#91bfdb" class="flag">[1]</text><text x="486.3" y="29.6" fill="#000" class="taxonLabel">Alisina</text><text x="446.7" y="39.4" fill="#fc8d59" class="flag">[0]</text><text x="468.7" y="39.4" fill="#000" class="taxonLabel">Glyptoria</text><text x="429" y="49.2" fill="#91bfdb" class="flag">[1]</text><text x="451" y="49.2" fill="#000" class="taxonLabel">Nisusia sulcata</text><text x="411.3" y="59" fill="#91bfdb" class="flag">[1]</text><text x="433.3" y="59" fill="#000" class="taxonLabel">Kutorgina chengjiangensis</text><text x="358.3" y="117.7" fill="#91bfdb" class="flag">[1]</text><text x="380.3" y="117.7" fill="#000" class="taxonLabel">Salanygolina</text><text x="287.7" y="303.8" fill="#fc8d59" class="flag">[0]</text><text x="309.7" y="303.8" fill="#000" class="taxonLabel">Micrina</text><text x="270" y="313.5" fill="#fc8d59" class="flag">[0]</text><text x="292" y="313.5" fill="#000" class="taxonLabel">Paterimitra</text><text x="252.3" y="323.3" fill="#91bfdb" class="flag">[1]</text><text x="274.3" y="323.3" fill="#000" class="taxonLabel">Pedunculotheca diania</text><text x="217" y="597.5" fill="#fc8d59" class="flag">[0]</text><text x="239" y="597.5" fill="#000" class="taxonLabel">Paramicrocornus</text><text x="199.3" y="607.3" fill="#fc8d59" class="flag">[0]</text><text x="221.3" y="607.3" fill="#000" class="taxonLabel">Haplophrentis carinatus</text><text x="181.7" y="617.1" fill="#fc8d59" class="flag">[0]</text><text x="203.7" y="617.1" fill="#000" class="taxonLabel">Halkieria evangelista</text><text x="164" y="626.9" fill="#fc8d59" class="flag">[0]</text><text x="186" y="626.9" fill="#000" class="taxonLabel">Orthrozanclus</text><text x="146.3" y="636.7" fill="#fc8d59" class="flag">[0]</text><text x="168.3" y="636.7" fill="#000" class="taxonLabel">Dailyatia</text><text x="128.7" y="646.5" fill="#fc8d59" class="flag">[0]</text><text x="150.7" y="646.5" fill="#000" class="taxonLabel">Yilingia spiciformis</text><text x="111" y="656.2" fill="#fc8d59" class="flag">[0]</text><text x="133" y="656.2" fill="#000" class="taxonLabel">Cotyledion tylodes</text><text x="93.3" y="666" fill="#fc8d59" class="flag">[0]</text><text x="115.3" y="666" fill="#000" class="taxonLabel">Eccentrotheca</text><text x="75.7" y="675.8" fill="#fc8d59" class="flag">[0]</text><text x="97.7" y="675.8" fill="#000" class="taxonLabel">Namacalathus</text><text x="58" y="685.6" fill="#fc8d59" class="flag">[0]</text><text x="80" y="685.6" fill="#000" class="taxonLabel">Phoronis</text><text x="22.7" y="715" fill="#fc8d59" class="flag">[0]</text><text x="44.7" y="715" fill="#000" class="taxonLabel">Loxosomella</text><path d="M5,698.5V685H22.7M22.7,685V672.7H40.3M40.3,672.7V662.8H58M58,662.8V652.7H75.7M75.7,652.7V642.4H93.3M93.3,642.4V631.5H111M111,631.5V619.5H128.7M128.7,619.5V605.3H146.3M146.3,605.3V586.8H164M164,586.8V559.4H181.7M181.7,559.4V514.6H199.3M199.3,514.6V434.7H217M217,434.7V304.4H234.7M234.7,304.4V288.4H252.3M252.3,288.4V266.3H270M270,266.3V231.8H287.7M287.7,231.8V177.5H305.3M305.3,177.5V112.9H323M446.7,19.2V11.9H464.3M464.3,11.9V7H482M464.3,11.9V16.8H482M429,27.8V36.4H446.7M323,112.9V129.4H340.7M340.7,129.4V124.5H358.3M340.7,129.4V134.3H358.3M305.3,177.5V242.1H323M323,242.1V221.3H340.7M340.7,221.3V210.5H358.3M358.3,210.5V198.5H376M376,198.5V184.5H393.7M393.7,184.5V171H411.3M411.3,171V158.8H429M429,158.8V149H446.7M446.7,149V144.1H464.3M446.7,149V153.9H464.3M429,158.8V168.6H446.7M446.7,168.6V163.7H464.3M446.7,168.6V173.5H464.3M411.3,171V183.2H429M393.7,184.5V197.9H411.3M411.3,197.9V193H429M411.3,197.9V202.8H429M376,198.5V212.6H393.7M358.3,210.5V222.4H376M340.7,221.3V232.2H358.3M323,242.1V262.8H340.7M340.7,262.8V254.2H358.3M358.3,254.2V246.9H376M376,246.9V242H393.7M376,246.9V251.8H393.7M358.3,254.2V261.6H376M340.7,262.8V271.4H358.3M287.7,231.8V286.1H305.3M305.3,286.1V281.2H323M305.3,286.1V291H323M270,266.3V300.8H287.7M252.3,288.4V310.5H270M217,434.7V565H234.7M234.7,565V545.3H252.3M252.3,545.3V515.6H270M270,515.6V474.7H287.7M287.7,474.7V433H305.3M305.3,433V413.5H323M323,413.5V389.2H340.7M340.7,389.2V366.2H358.3M358.3,366.2V353.4H376M376,353.4V342.4H393.7M393.7,342.4V335H411.3M411.3,335V330.1H429M411.3,335V339.9H429M393.7,342.4V349.7H411.3M376,353.4V364.4H393.7M393.7,364.4V359.5H411.3M393.7,364.4V369.3H411.3M358.3,366.2V379.1H376M340.7,389.2V412.1H358.3M358.3,412.1V401.1H376M376,401.1V393.8H393.7M393.7,393.8V388.9H411.3M393.7,393.8V398.7H411.3M376,401.1V408.5H393.7M358.3,412.1V423.1H376M376,423.1V418.2H393.7M376,423.1V428H393.7M323,413.5V437.8H340.7M305.3,433V452.5H323M323,452.5V447.6H340.7M323,452.5V457.4H340.7M287.7,474.7V516.3H305.3M305.3,516.3V506.7H323M323,506.7V497.2H340.7M340.7,497.2V488H358.3M358.3,488V479.4H376M376,479.4V472.1H393.7M393.7,472.1V467.2H411.3M393.7,472.1V477H411.3M376,479.4V486.8H393.7M358.3,488V496.6H376M340.7,497.2V506.4H358.3M323,506.7V516.2H340.7M305.3,516.3V526H323M270,515.6V556.6H287.7M287.7,556.6V548H305.3M305.3,548V540.6H323M323,540.6V535.8H340.7M323,540.6V545.5H340.7M305.3,548V555.3H323M287.7,556.6V565.1H305.3M252.3,545.3V574.9H270M199.3,514.6V594.5H217M181.7,559.4V604.3H199.3M164,586.8V614.1H181.7M146.3,605.3V623.9H164M128.7,619.5V633.7H146.3M111,631.5V643.5H128.7M93.3,642.4V653.2H111M75.7,652.7V663H93.3M58,662.8V672.8H75.7M40.3,672.7V682.6H58M22.7,685V697.3H40.3M40.3,697.3V692.4H58M40.3,697.3V702.2H58M5,698.5V712H22.7" stroke="#fc8d59"></path><path d="M323,112.9V96.4H340.7M340.7,96.4V78.1H358.3M358.3,78.1V58.6H376M376,58.6V46.5H393.7M393.7,46.5V37H411.3M411.3,37V27.8H429M446.7,19.2V26.6H464.3M411.3,37V46.2H429M393.7,46.5V56H411.3M376,58.6V70.6H393.7M393.7,70.6V65.8H411.3M393.7,70.6V75.5H411.3M358.3,78.1V97.6H376M376,97.6V90.2H393.7M393.7,90.2V85.3H411.3M393.7,90.2V95.1H411.3M376,97.6V104.9H393.7M340.7,96.4V114.7H358.3M234.7,304.4V320.3H252.3M234.7,565V584.7H252.3" stroke="#91bfdb"></path><path d="M429,27.8V19.2H446.7" stroke="darkgrey"></path><text x="24.7" y="688" class="node" fill="#4A6FE3">1</text><text x="42.3" y="675.7" class="node" fill="#C1C6E3">0.62</text><text x="60" y="665.8" class="node" fill="#4A6FE3">1</text><text x="77.7" y="655.7" class="node" fill="#E5D0D3">0.44</text><text x="95.3" y="645.4" class="node" fill="#4A6FE3">1</text><text x="113" y="634.5" class="node" fill="#E392A2">0.24</text><text x="130.7" y="622.5" class="node" fill="#4A6FE3">1</text><text x="148.3" y="608.3" class="node" fill="#4A6FE3">1</text><text x="166" y="589.8" class="node" fill="#4A6FE3">1</text><text x="183.7" y="562.4" class="node" fill="#DADBE3">0.53</text><text x="201.3" y="517.6" class="node" fill="#4A6FE3">1</text><text x="219" y="437.7" class="node" fill="#4A6FE3">1</text><text x="236.7" y="307.4" class="node" fill="#4A6FE3">1</text><text x="254.3" y="291.4" class="node" fill="#4A6FE3">1</text><text x="272" y="269.3" class="node" fill="#4A6FE3">1</text><text x="289.7" y="234.8" class="node" fill="#4A6FE3">1</text><text x="307.3" y="180.5" class="node" fill="#4A6FE3">1</text><text x="325" y="115.9" class="node" fill="#4A6FE3">1</text><text x="342.7" y="99.4" class="node" fill="#DADBE3">0.53</text><text x="360.3" y="81.1" class="node" fill="#768BE1">0.88</text><text x="378" y="61.6" class="node" fill="#9AA6E2">0.76</text><text x="395.7" y="49.5" class="node" fill="#E5C7CC">0.41</text><text x="413.3" y="40" class="node" fill="#768BE1">0.88</text><text x="431" y="30.8" class="node" fill="#627DE1">0.94</text><text x="448.7" y="22.2" class="node" fill="#627DE1">0.94</text><text x="466.3" y="14.9" class="node" fill="#4A6FE3">1</text><text x="395.7" y="73.6" class="node" fill="#D2D4E3">0.56</text><text x="378" y="100.6" class="node" fill="#6D84E1">0.91</text><text x="395.7" y="93.2" class="node" fill="#4A6FE3">1</text><text x="342.7" y="132.4" class="node" fill="#4A6FE3">1</text><text x="325" y="245.1" class="node" fill="#4A6FE3">1</text><text x="342.7" y="224.3" class="node" fill="#4A6FE3">1</text><text x="360.3" y="213.5" class="node" fill="#4A6FE3">1</text><text x="378" y="201.5" class="node" fill="#4A6FE3">1</text><text x="395.7" y="187.5" class="node" fill="#4A6FE3">1</text><text x="413.3" y="174" class="node" fill="#4A6FE3">1</text><text x="431" y="161.8" class="node" fill="#E2E2E2">0.5</text><text x="448.7" y="152" class="node" fill="#4A6FE3">1</text><text x="448.7" y="171.6" class="node" fill="#4A6FE3">1</text><text x="413.3" y="200.9" class="node" fill="#4A6FE3">1</text><text x="342.7" y="265.8" class="node" fill="#4A6FE3">1</text><text x="360.3" y="257.2" class="node" fill="#4A6FE3">1</text><text x="378" y="249.9" class="node" fill="#4A6FE3">1</text><text x="307.3" y="289.1" class="node" fill="#4A6FE3">1</text><text x="236.7" y="568" class="node" fill="#4A6FE3">1</text><text x="254.3" y="548.3" class="node" fill="#4A6FE3">1</text><text x="272" y="518.6" class="node" fill="#929FE1">0.79</text><text x="289.7" y="477.7" class="node" fill="#4A6FE3">1</text><text x="307.3" y="436" class="node" fill="#4A6FE3">1</text><text x="325" y="416.5" class="node" fill="#627DE1">0.94</text><text x="342.7" y="392.2" class="node" fill="#627DE1">0.94</text><text x="360.3" y="369.2" class="node" fill="#4A6FE3">1</text><text x="378" y="356.4" class="node" fill="#E2899B">0.21</text><text x="395.7" y="345.4" class="node" fill="#E5D0D3">0.44</text><text x="413.3" y="338" class="node" fill="#4A6FE3">1</text><text x="395.7" y="367.4" class="node" fill="#4A6FE3">1</text><text x="360.3" y="415.1" class="node" fill="#4A6FE3">1</text><text x="378" y="404.1" class="node" fill="#4A6FE3">1</text><text x="395.7" y="396.8" class="node" fill="#4A6FE3">1</text><text x="378" y="426.1" class="node" fill="#4A6FE3">1</text><text x="325" y="455.5" class="node" fill="#E5D0D3">0.44</text><text x="307.3" y="519.3" class="node" fill="#4A6FE3">1</text><text x="325" y="509.7" class="node" fill="#4A6FE3">1</text><text x="342.7" y="500.2" class="node" fill="#E6ABB6">0.32</text><text x="360.3" y="491" class="node" fill="#929FE1">0.79</text><text x="378" y="482.4" class="node" fill="#E392A2">0.24</text><text x="395.7" y="475.1" class="node" fill="#4A6FE3">1</text><text x="289.7" y="559.6" class="node" fill="#4A6FE3">1</text><text x="307.3" y="551" class="node" fill="#CACDE3">0.59</text><text x="325" y="543.6" class="node" fill="#4A6FE3">1</text><text x="42.3" y="700.3" class="node" fill="#4A6FE3">1</text></svg>
