<svg xmlns="http://www.w3.org/2000/svg" version="1.1" viewBox="0 0 682 720" preserveAspectRatio="xMidYMid meet" class="tree" data-char="141"><text x="678" y="12.7" text-anchor="end" class="stepsLabel">Character adds <tspan class="score">3</tspan> to tree score</text><text x="678" y="22.4" text-anchor="end" class="stepsLabel"><tspan class="score">1</tspan> additional region</text><text x="678" y="32.1" text-anchor="end" class="stepsLabel"></text><text x="678" y="51.5" text-anchor="end" class="stepsLabel"><tspan dy="16" fill="#34caaf">An optimal tree under:</tspan><tspan x="680" style="font-style:italic" class="notThisAn" dy="1.2em">Implied weights, k = 4.5</tspan><tspan x="680" style="font-style:italic" class="notThisAn" dy="1.2em">IW, k = 10.5</tspan><tspan x="680" style="font-style:italic" class="notThisAn" dy="1.2em">IW, k = 24</tspan><tspan x="680" style="font-style:italic" class="thisAn" dy="1.2em">Equal weights</tspan></text><text x="62.2" y="695.4" fill="lightgrey" class="flag">[-]</text><text x="84.2" y="695.4" fill="#ccc" class="taxonLabel">Flustra</text><text x="62.2" y="705.2" fill="lightgrey" class="flag">[-]</text><text x="84.2" y="705.2" fill="#ccc" class="taxonLabel">Amathia</text><text x="157.6" y="636.7" fill="lightgrey" class="flag">[-]</text><text x="179.6" y="636.7" fill="#ccc" class="taxonLabel">Yilingia spiciformis</text><text x="157.6" y="646.5" fill="lightgrey" class="flag">[-]</text><text x="179.6" y="646.5" fill="#ccc" class="taxonLabel">Dailyatia</text><text x="348.4" y="538.8" fill="lightgrey" class="flag">[-]</text><text x="370.4" y="538.8" fill="#ccc" class="taxonLabel">Capitella</text><text x="348.4" y="548.5" fill="lightgrey" class="flag">[-]</text><text x="370.4" y="548.5" fill="#ccc" class="taxonLabel">Canadia spinosa</text><text x="329.4" y="558.3" fill="lightgrey" class="flag">[-]</text><text x="351.4" y="558.3" fill="#ccc" class="taxonLabel">Serpula</text><text x="310.3" y="568.1" fill="lightgrey" class="flag">[-]</text><text x="332.3" y="568.1" fill="#ccc" class="taxonLabel">Sipunculus</text><text x="424.8" y="470.2" fill="lightgrey" class="flag">[-]</text><text x="446.8" y="470.2" fill="#ccc" class="taxonLabel">Neopilina</text><text x="424.8" y="480" fill="lightgrey" class="flag">[-]</text><text x="446.8" y="480" fill="#ccc" class="taxonLabel">Haliotis</text><text x="405.7" y="489.8" fill="lightgrey" class="flag">[-]</text><text x="427.7" y="489.8" fill="#ccc" class="taxonLabel">Conocardium elongatum</text><text x="386.6" y="499.6" fill="lightgrey" class="flag">[-]</text><text x="408.6" y="499.6" fill="#ccc" class="taxonLabel">Pojetaia runnegari</text><text x="367.5" y="509.4" fill="lightgrey" class="flag">[-]</text><text x="389.5" y="509.4" fill="#ccc" class="taxonLabel">Mytilus</text><text x="348.4" y="519.2" fill="lightgrey" class="flag">[-]</text><text x="370.4" y="519.2" fill="#ccc" class="taxonLabel">Dentalium</text><text x="367.5" y="450.6" fill="lightgrey" class="flag">[-]</text><text x="389.5" y="450.6" fill="#ccc" class="taxonLabel">Wiwaxia corrugata</text><text x="367.5" y="460.4" fill="lightgrey" class="flag">[-]</text><text x="389.5" y="460.4" fill="#ccc" class="taxonLabel">Odontogriphus omalus</text><text x="424.8" y="421.2" fill="lightgrey" class="flag">[-]</text><text x="446.8" y="421.2" fill="#ccc" class="taxonLabel">Wirenia</text><text x="424.8" y="431" fill="lightgrey" class="flag">[-]</text><text x="446.8" y="431" fill="#ccc" class="taxonLabel">Chaetoderma</text><text x="443.8" y="391.9" fill="lightgrey" class="flag">[-]</text><text x="465.8" y="391.9" fill="#ccc" class="taxonLabel">Phthipodochiton thraivensis</text><text x="443.8" y="401.7" fill="lightgrey" class="flag">[-]</text><text x="465.8" y="401.7" fill="#ccc" class="taxonLabel">Kulindroplax perissokomos</text><text x="424.8" y="411.5" fill="lightgrey" class="flag">[-]</text><text x="446.8" y="411.5" fill="#ccc" class="taxonLabel">Acaenoplax hayae</text><text x="462.9" y="352.7" fill="lightgrey" class="flag">[-]</text><text x="484.9" y="352.7" fill="#ccc" class="taxonLabel">Leptochiton</text><text x="462.9" y="362.5" fill="lightgrey" class="flag">[-]</text><text x="484.9" y="362.5" fill="#ccc" class="taxonLabel">Glaphurochiton carbonarius</text><text x="462.9" y="333.1" fill="#e2e2a2" class="flag">[1]</text><text x="484.9" y="333.1" fill="#000" class="taxonLabel">Tonicella</text><text x="462.9" y="342.9" fill="lightgrey" class="flag">[-]</text><text x="484.9" y="342.9" fill="#ccc" class="taxonLabel">Mopalia</text><text x="424.8" y="372.3" fill="lightgrey" class="flag">[-]</text><text x="446.8" y="372.3" fill="#ccc" class="taxonLabel">Calvapilosa kroegeri</text><text x="405.7" y="382.1" fill="lightgrey" class="flag">[-]</text><text x="427.7" y="382.1" fill="#ccc" class="taxonLabel">Polysacos vickersianum</text><text x="367.5" y="440.8" fill="lightgrey" class="flag">[-]</text><text x="389.5" y="440.8" fill="#ccc" class="taxonLabel">Siphogonuchites multa</text><text x="310.3" y="529" fill="lightgrey" class="flag">[-]</text><text x="332.3" y="529" fill="#ccc" class="taxonLabel">Pelagiella</text><text x="272.1" y="577.9" fill="lightgrey" class="flag">[-]</text><text x="294.1" y="577.9" fill="#ccc" class="taxonLabel">Bactrotheca</text><text x="253" y="587.7" fill="lightgrey" class="flag">[-]</text><text x="275" y="587.7" fill="#ccc" class="taxonLabel">Cupitheca holocyclata</text><text x="329.4" y="284.2" fill="lightgrey" class="flag">[-]</text><text x="351.4" y="284.2" fill="#ccc" class="taxonLabel">Mickwitzia muralensis</text><text x="329.4" y="294" fill="lightgrey" class="flag">[-]</text><text x="351.4" y="294" fill="#ccc" class="taxonLabel">Heliomedusa orienta</text><text x="405.7" y="245" fill="lightgrey" class="flag">[-]</text><text x="427.7" y="245" fill="#ccc" class="taxonLabel">Novocrania</text><text x="405.7" y="254.8" fill="lightgrey" class="flag">[-]</text><text x="427.7" y="254.8" fill="#ccc" class="taxonLabel">Craniops</text><text x="386.6" y="264.6" fill="lightgrey" class="flag">[-]</text><text x="408.6" y="264.6" fill="#ccc" class="taxonLabel">Ussunia</text><text x="367.5" y="274.4" fill="lightgrey" class="flag">[-]</text><text x="389.5" y="274.4" fill="#ccc" class="taxonLabel">Gasconsia</text><text x="443.8" y="196" fill="lightgrey" class="flag">[-]</text><text x="465.8" y="196" fill="#ccc" class="taxonLabel">Pelagodiscus atlanticus</text><text x="443.8" y="205.8" fill="grey" class="flag">[?]</text><text x="465.8" y="205.8" fill="#999" class="taxonLabel">Mummpikia nuda</text><text x="482" y="166.7" fill="lightgrey" class="flag">[-]</text><text x="504" y="166.7" fill="#ccc" class="taxonLabel">Siphonobolus priscus</text><text x="482" y="176.5" fill="lightgrey" class="flag">[-]</text><text x="504" y="176.5" fill="#ccc" class="taxonLabel">Acanthotretella spinosa</text><text x="482" y="147.1" fill="lightgrey" class="flag">[-]</text><text x="504" y="147.1" fill="#ccc" class="taxonLabel">Lingulosacculus</text><text x="482" y="156.9" fill="lightgrey" class="flag">[-]</text><text x="504" y="156.9" fill="#ccc" class="taxonLabel">Clupeafumosus socialis</text><text x="443.8" y="186.2" fill="lightgrey" class="flag">[-]</text><text x="465.8" y="186.2" fill="#ccc" class="taxonLabel">Lingulellotreta malongensis</text><text x="405.7" y="215.6" fill="lightgrey" class="flag">[-]</text><text x="427.7" y="215.6" fill="#ccc" class="taxonLabel">Botsfordia</text><text x="386.6" y="225.4" fill="lightgrey" class="flag">[-]</text><text x="408.6" y="225.4" fill="#ccc" class="taxonLabel">Eoobolus</text><text x="367.5" y="235.2" fill="lightgrey" class="flag">[-]</text><text x="389.5" y="235.2" fill="#ccc" class="taxonLabel">Lingula</text><text x="367.5" y="127.5" fill="lightgrey" class="flag">[-]</text><text x="389.5" y="127.5" fill="#ccc" class="taxonLabel">Micromitra</text><text x="367.5" y="137.3" fill="lightgrey" class="flag">[-]</text><text x="389.5" y="137.3" fill="#ccc" class="taxonLabel">Askepasma toddense</text><text x="424.8" y="88.3" fill="lightgrey" class="flag">[-]</text><text x="446.8" y="88.3" fill="#ccc" class="taxonLabel">Yuganotheca elegans</text><text x="424.8" y="98.1" fill="#91bfdb" class="flag">[2]</text><text x="446.8" y="98.1" fill="#000" class="taxonLabel">Tomteluva perturbata</text><text x="405.7" y="107.9" fill="lightgrey" class="flag">[-]</text><text x="427.7" y="107.9" fill="#ccc" class="taxonLabel">Longtancunella chengjiangensis</text><text x="424.8" y="68.8" fill="#91bfdb" class="flag">[2]</text><text x="446.8" y="68.8" fill="#000" class="taxonLabel">Coolinia pecten</text><text x="424.8" y="78.5" fill="#91bfdb" class="flag">[2]</text><text x="446.8" y="78.5" fill="#000" class="taxonLabel">Antigonambonites planus</text><text x="443.8" y="49.2" fill="#e2e2a2" class="flag">[1]</text><text x="465.8" y="49.2" fill="#000" class="taxonLabel">Nisusia sulcata</text><text x="443.8" y="59" fill="#91bfdb" class="flag">[2]</text><text x="465.8" y="59" fill="#000" class="taxonLabel">Kutorgina chengjiangensis</text><text x="482" y="10" fill="lightgrey" class="flag">[-]</text><text x="504" y="10" fill="#ccc" class="taxonLabel">Terebratulina</text><text x="482" y="19.8" fill="#e2e2a2" class="flag">[1]</text><text x="504" y="19.8" fill="#000" class="taxonLabel">Orthis</text><text x="462.9" y="29.6" fill="#e2e2a2" class="flag">[1]</text><text x="484.9" y="29.6" fill="#000" class="taxonLabel">Alisina</text><text x="443.8" y="39.4" fill="#e2e2a2" class="flag">[1]</text><text x="465.8" y="39.4" fill="#000" class="taxonLabel">Glyptoria</text><text x="367.5" y="117.7" fill="#91bfdb" class="flag">[2]</text><text x="389.5" y="117.7" fill="#000" class="taxonLabel">Salanygolina</text><text x="291.2" y="303.8" fill="lightgrey" class="flag">[-]</text><text x="313.2" y="303.8" fill="#ccc" class="taxonLabel">Micrina</text><text x="272.1" y="313.5" fill="lightgrey" class="flag">[-]</text><text x="294.1" y="313.5" fill="#ccc" class="taxonLabel">Paterimitra</text><text x="253" y="323.3" fill="lightgrey" class="flag">[-]</text><text x="275" y="323.3" fill="#ccc" class="taxonLabel">Pedunculotheca diania</text><text x="214.9" y="597.5" fill="lightgrey" class="flag">[-]</text><text x="236.9" y="597.5" fill="#ccc" class="taxonLabel">Paramicrocornus</text><text x="195.8" y="607.3" fill="lightgrey" class="flag">[-]</text><text x="217.8" y="607.3" fill="#ccc" class="taxonLabel">Haplophrentis carinatus</text><text x="176.7" y="617.1" fill="lightgrey" class="flag">[-]</text><text x="198.7" y="617.1" fill="#ccc" class="taxonLabel">Halkieria evangelista</text><text x="157.6" y="626.9" fill="lightgrey" class="flag">[-]</text><text x="179.6" y="626.9" fill="#ccc" class="taxonLabel">Orthrozanclus</text><text x="119.5" y="656.2" fill="lightgrey" class="flag">[-]</text><text x="141.5" y="656.2" fill="#ccc" class="taxonLabel">Eccentrotheca</text><text x="100.4" y="666" fill="lightgrey" class="flag">[-]</text><text x="122.4" y="666" fill="#ccc" class="taxonLabel">Cotyledion tylodes</text><text x="81.3" y="675.8" fill="lightgrey" class="flag">[-]</text><text x="103.3" y="675.8" fill="#ccc" class="taxonLabel">Namacalathus</text><text x="62.2" y="685.6" fill="lightgrey" class="flag">[-]</text><text x="84.2" y="685.6" fill="#ccc" class="taxonLabel">Phoronis</text><text x="24.1" y="715" fill="lightgrey" class="flag">[-]</text><text x="46.1" y="715" fill="#ccc" class="taxonLabel">Loxosomella</text><path d="M5,698.4V684.7H24.1M24.1,684.7V672.1H43.2M43.2,672.1V661.6H62.2M62.2,661.6V650.3H81.3M81.3,650.3V637.6H100.4M100.4,637.6V622H119.5M119.5,622V605.4H138.6M138.6,605.4V586.9H157.6M157.6,586.9V559.8H176.7M176.7,559.8V515.3H195.8M195.8,515.3V436.1H214.9M214.9,436.1V304.4H234M234,304.4V288.4H253M253,288.4V266.2H272.1M272.1,266.2V231.7H291.2M291.2,231.7V177.3H310.3M310.3,177.3V112.5H329.4M462.9,11.9V7H482M405.7,90.2V85.3H424.8M386.6,97.6V104.9H405.7M329.4,112.5V129.4H348.4M348.4,129.4V124.5H367.5M348.4,129.4V134.3H367.5M310.3,177.3V242.1H329.4M329.4,242.1V221.3H348.4M348.4,221.3V210.5H367.5M367.5,210.5V198.5H386.6M386.6,198.5V184.5H405.7M405.7,184.5V171H424.8M424.8,171V158.8H443.8M443.8,158.8V149H462.9M462.9,149V144.1H482M462.9,149V153.9H482M443.8,158.8V168.6H462.9M462.9,168.6V163.7H482M462.9,168.6V173.5H482M424.8,171V183.2H443.8M405.7,184.5V197.9H424.8M424.8,197.9V193H443.8M424.8,197.9V202.8H443.8M386.6,198.5V212.6H405.7M367.5,210.5V222.4H386.6M348.4,221.3V232.2H367.5M329.4,242.1V262.8H348.4M348.4,262.8V254.2H367.5M367.5,254.2V246.9H386.6M386.6,246.9V242H405.7M386.6,246.9V251.8H405.7M367.5,254.2V261.6H386.6M348.4,262.8V271.4H367.5M291.2,231.7V286.1H310.3M310.3,286.1V281.2H329.4M310.3,286.1V291H329.4M272.1,266.2V300.8H291.2M253,288.4V310.5H272.1M234,304.4V320.3H253M214.9,436.1V567.9H234M234,567.9V551.1H253M253,551.1V527.3H272.1M272.1,527.3V498H291.2M291.2,498V470H310.3M310.3,470V433.2H329.4M329.4,433.2V414H348.4M348.4,414V390.1H367.5M367.5,390.1V368.1H386.6M386.6,368.1V357.1H405.7M405.7,357.1V344.8H424.8M424.8,344.8V335H443.8M443.8,335V339.9H462.9M424.8,344.8V354.6H443.8M443.8,354.6V349.7H462.9M443.8,354.6V359.5H462.9M405.7,357.1V369.3H424.8M386.6,368.1V379.1H405.7M367.5,390.1V412.1H386.6M386.6,412.1V401.1H405.7M405.7,401.1V393.8H424.8M424.8,393.8V388.9H443.8M424.8,393.8V398.7H443.8M405.7,401.1V408.5H424.8M386.6,412.1V423.1H405.7M405.7,423.1V418.2H424.8M405.7,423.1V428H424.8M348.4,414V437.8H367.5M329.4,433.2V452.5H348.4M348.4,452.5V447.6H367.5M348.4,452.5V457.4H367.5M310.3,470V506.7H329.4M329.4,506.7V497.2H348.4M348.4,497.2V488H367.5M367.5,488V479.4H386.6M386.6,479.4V472.1H405.7M405.7,472.1V467.2H424.8M405.7,472.1V477H424.8M386.6,479.4V486.8H405.7M367.5,488V496.6H386.6M348.4,497.2V506.4H367.5M329.4,506.7V516.2H348.4M291.2,498V526H310.3M272.1,527.3V556.6H291.2M291.2,556.6V548H310.3M310.3,548V540.6H329.4M329.4,540.6V535.8H348.4M329.4,540.6V545.5H348.4M310.3,548V555.3H329.4M291.2,556.6V565.1H310.3M253,551.1V574.9H272.1M234,567.9V584.7H253M195.8,515.3V594.5H214.9M176.7,559.8V604.3H195.8M157.6,586.9V614.1H176.7M138.6,605.4V623.9H157.6M119.5,622V638.6H138.6M138.6,638.6V633.7H157.6M138.6,638.6V643.5H157.6M100.4,637.6V653.2H119.5M81.3,650.3V663H100.4M62.2,661.6V672.8H81.3M43.2,672.1V682.6H62.2M24.1,684.7V697.3H43.2M43.2,697.3V692.4H62.2M43.2,697.3V702.2H62.2M5,698.4V712H24.1" stroke="lightgrey" class="inapplicable"></path><path d="M329.4,112.5V95.5H348.4M348.4,95.5V76.3H367.5M367.5,76.3V55H386.6M386.6,55V39.4H405.7M424.8,51.1V56H443.8M386.6,55V70.6H405.7M405.7,70.6V65.8H424.8M405.7,70.6V75.5H424.8M367.5,76.3V97.6H386.6M386.6,97.6V90.2H405.7M405.7,90.2V95.1H424.8M348.4,95.5V114.7H367.5" stroke="#91bfdb"></path><path d="M405.7,39.4V27.8H424.8M424.8,27.8V19.2H443.8M443.8,19.2V11.9H462.9M462.9,11.9V16.8H482M443.8,19.2V26.6H462.9M424.8,27.8V36.4H443.8M424.8,51.1V46.2H443.8M443.8,335V330.1H462.9" stroke="#e2e2a2"></path><path d="M405.7,39.4V51.1H424.8" stroke="darkgrey"></path><text x="26.1" y="687.7" class="node" fill="#4A6FE3">1</text><text x="45.2" y="675.1" class="node" fill="#C1C6E3">0.62</text><text x="64.2" y="664.6" class="node" fill="#4A6FE3">1</text><text x="83.3" y="653.3" class="node" fill="#E498A7">0.26</text><text x="102.4" y="640.6" class="node" fill="#4A6FE3">1</text><text x="121.5" y="625" class="node" fill="#4A6FE3">1</text><text x="140.6" y="608.4" class="node" fill="#4A6FE3">1</text><text x="159.6" y="589.9" class="node" fill="#4A6FE3">1</text><text x="178.7" y="562.8" class="node" fill="#DADBE3">0.53</text><text x="197.8" y="518.3" class="node" fill="#4A6FE3">1</text><text x="216.9" y="439.1" class="node" fill="#4A6FE3">1</text><text x="236" y="307.4" class="node" fill="#4A6FE3">1</text><text x="255" y="291.4" class="node" fill="#4A6FE3">1</text><text x="274.1" y="269.2" class="node" fill="#4A6FE3">1</text><text x="293.2" y="234.7" class="node" fill="#4A6FE3">1</text><text x="312.3" y="180.3" class="node" fill="#4A6FE3">1</text><text x="331.4" y="115.5" class="node" fill="#4A6FE3">1</text><text x="350.4" y="98.5" class="node" fill="#DADBE3">0.53</text><text x="369.5" y="79.3" class="node" fill="#768BE1">0.88</text><text x="388.6" y="58" class="node" fill="#9AA6E2">0.76</text><text x="407.7" y="42.4" class="node" fill="#768BE1">0.88</text><text x="426.8" y="30.8" class="node" fill="#627DE1">0.94</text><text x="445.8" y="22.2" class="node" fill="#627DE1">0.94</text><text x="464.9" y="14.9" class="node" fill="#DADBE3">0.53</text><text x="426.8" y="54.1" class="node" fill="#4A6FE3">1</text><text x="407.7" y="73.6" class="node" fill="#D2D4E3">0.56</text><text x="388.6" y="100.6" class="node" fill="#6D84E1">0.91</text><text x="407.7" y="93.2" class="node" fill="#4A6FE3">1</text><text x="350.4" y="132.4" class="node" fill="#4A6FE3">1</text><text x="331.4" y="245.1" class="node" fill="#4A6FE3">1</text><text x="350.4" y="224.3" class="node" fill="#4A6FE3">1</text><text x="369.5" y="213.5" class="node" fill="#4A6FE3">1</text><text x="388.6" y="201.5" class="node" fill="#4A6FE3">1</text><text x="407.7" y="187.5" class="node" fill="#4A6FE3">1</text><text x="426.8" y="174" class="node" fill="#4A6FE3">1</text><text x="445.8" y="161.8" class="node" fill="#E2E2E2">0.5</text><text x="464.9" y="152" class="node" fill="#4A6FE3">1</text><text x="464.9" y="171.6" class="node" fill="#4A6FE3">1</text><text x="426.8" y="200.9" class="node" fill="#4A6FE3">1</text><text x="350.4" y="265.8" class="node" fill="#4A6FE3">1</text><text x="369.5" y="257.2" class="node" fill="#4A6FE3">1</text><text x="388.6" y="249.9" class="node" fill="#4A6FE3">1</text><text x="312.3" y="289.1" class="node" fill="#4A6FE3">1</text><text x="236" y="570.9" class="node" fill="#4A6FE3">1</text><text x="255" y="554.1" class="node" fill="#4A6FE3">1</text><text x="274.1" y="530.3" class="node" fill="#929FE1">0.79</text><text x="293.2" y="501" class="node" fill="#D2D4E3">0.56</text><text x="312.3" y="473" class="node" fill="#4A6FE3">1</text><text x="331.4" y="436.2" class="node" fill="#4A6FE3">1</text><text x="350.4" y="417" class="node" fill="#627DE1">0.94</text><text x="369.5" y="393.1" class="node" fill="#627DE1">0.94</text><text x="388.6" y="371.1" class="node" fill="#4A6FE3">1</text><text x="407.7" y="360.1" class="node" fill="#D2D4E3">0.56</text><text x="426.8" y="347.8" class="node" fill="#4A6FE3">1</text><text x="445.8" y="338" class="node" fill="#DD6C86">0.12</text><text x="445.8" y="357.6" class="node" fill="#4A6FE3">1</text><text x="388.6" y="415.1" class="node" fill="#4A6FE3">1</text><text x="407.7" y="404.1" class="node" fill="#4A6FE3">1</text><text x="426.8" y="396.8" class="node" fill="#4A6FE3">1</text><text x="407.7" y="426.1" class="node" fill="#4A6FE3">1</text><text x="350.4" y="455.5" class="node" fill="#4A6FE3">1</text><text x="331.4" y="509.7" class="node" fill="#4A6FE3">1</text><text x="350.4" y="500.2" class="node" fill="#E6B4BD">0.35</text><text x="369.5" y="491" class="node" fill="#929FE1">0.79</text><text x="388.6" y="482.4" class="node" fill="#E17F94">0.18</text><text x="407.7" y="475.1" class="node" fill="#4A6FE3">1</text><text x="293.2" y="559.6" class="node" fill="#4A6FE3">1</text><text x="312.3" y="551" class="node" fill="#CACDE3">0.59</text><text x="331.4" y="543.6" class="node" fill="#E17F94">0.18</text><text x="140.6" y="641.6" class="node" fill="#4A6FE3">1</text><text x="45.2" y="700.3" class="node" fill="#4A6FE3">1</text></svg>
