<svg xmlns="http://www.w3.org/2000/svg" version="1.1" viewBox="0 0 682 720" preserveAspectRatio="xMidYMid meet" class="tree" data-char="42"><text x="678" y="12.7" text-anchor="end" class="stepsLabel">Character adds <tspan class="score">3</tspan> to tree score</text><text x="678" y="22.4" text-anchor="end" class="stepsLabel"><tspan class="score">0</tspan> additional regions</text><text x="678" y="32.1" text-anchor="end" class="stepsLabel"></text><text x="678" y="51.5" text-anchor="end" class="stepsLabel"><tspan dy="16" fill="#34caaf">An optimal tree under:</tspan><tspan x="680" style="font-style:italic" class="notThisAn" dy="1.2em">Implied weights, k = 4.5</tspan><tspan x="680" style="font-style:italic" class="notThisAn" dy="1.2em">IW, k = 10.5</tspan><tspan x="680" style="font-style:italic" class="notThisAn" dy="1.2em">IW, k = 24</tspan><tspan x="680" style="font-style:italic" class="thisAn" dy="1.2em">Equal weights</tspan></text><text x="64.6" y="695.4" fill="lightgrey" class="flag">[-]</text><text x="86.6" y="695.4" fill="#ccc" class="taxonLabel">Flustra</text><text x="64.6" y="705.2" fill="lightgrey" class="flag">[-]</text><text x="86.6" y="705.2" fill="#ccc" class="taxonLabel">Amathia</text><text x="124.2" y="656.2" fill="grey" class="flag">[?]</text><text x="146.2" y="656.2" fill="#999" class="taxonLabel">Eccentrotheca</text><text x="124.2" y="666" fill="lightgrey" class="flag">[-]</text><text x="146.2" y="666" fill="#ccc" class="taxonLabel">Cotyledion tylodes</text><text x="223.6" y="597.5" fill="lightgrey" class="flag">[-]</text><text x="245.6" y="597.5" fill="#ccc" class="taxonLabel">Paramicrocornus</text><text x="223.6" y="607.3" fill="lightgrey" class="flag">[-]</text><text x="245.6" y="607.3" fill="#ccc" class="taxonLabel">Haplophrentis carinatus</text><text x="342.9" y="538.8" fill="lightgrey" class="flag">[-]</text><text x="364.9" y="538.8" fill="#ccc" class="taxonLabel">Serpula</text><text x="342.9" y="548.5" fill="lightgrey" class="flag">[-]</text><text x="364.9" y="548.5" fill="#ccc" class="taxonLabel">Capitella</text><text x="323" y="558.3" fill="lightgrey" class="flag">[-]</text><text x="345" y="558.3" fill="#ccc" class="taxonLabel">Canadia spinosa</text><text x="303.1" y="568.1" fill="lightgrey" class="flag">[-]</text><text x="325.1" y="568.1" fill="#ccc" class="taxonLabel">Sipunculus</text><text x="422.4" y="470.2" fill="lightgrey" class="flag">[-]</text><text x="444.4" y="470.2" fill="#ccc" class="taxonLabel">Neopilina</text><text x="422.4" y="480" fill="lightgrey" class="flag">[-]</text><text x="444.4" y="480" fill="#ccc" class="taxonLabel">Conocardium elongatum</text><text x="402.5" y="489.8" fill="lightgrey" class="flag">[-]</text><text x="424.5" y="489.8" fill="#ccc" class="taxonLabel">Haliotis</text><text x="382.6" y="499.6" fill="lightgrey" class="flag">[-]</text><text x="404.6" y="499.6" fill="#ccc" class="taxonLabel">Mytilus</text><text x="362.8" y="509.4" fill="lightgrey" class="flag">[-]</text><text x="384.8" y="509.4" fill="#ccc" class="taxonLabel">Pojetaia runnegari</text><text x="342.9" y="519.2" fill="lightgrey" class="flag">[-]</text><text x="364.9" y="519.2" fill="#ccc" class="taxonLabel">Dentalium</text><text x="323" y="529" fill="lightgrey" class="flag">[-]</text><text x="345" y="529" fill="#ccc" class="taxonLabel">Pelagiella</text><text x="342.9" y="450.6" fill="lightgrey" class="flag">[-]</text><text x="364.9" y="450.6" fill="#ccc" class="taxonLabel">Wiwaxia corrugata</text><text x="342.9" y="460.4" fill="lightgrey" class="flag">[-]</text><text x="364.9" y="460.4" fill="#ccc" class="taxonLabel">Odontogriphus omalus</text><text x="382.6" y="431" fill="lightgrey" class="flag">[-]</text><text x="404.6" y="431" fill="#ccc" class="taxonLabel">Wirenia</text><text x="382.6" y="440.8" fill="lightgrey" class="flag">[-]</text><text x="404.6" y="440.8" fill="#ccc" class="taxonLabel">Chaetoderma</text><text x="402.5" y="401.7" fill="lightgrey" class="flag">[-]</text><text x="424.5" y="401.7" fill="#ccc" class="taxonLabel">Phthipodochiton thraivensis</text><text x="402.5" y="411.5" fill="lightgrey" class="flag">[-]</text><text x="424.5" y="411.5" fill="#ccc" class="taxonLabel">Kulindroplax perissokomos</text><text x="382.6" y="421.2" fill="lightgrey" class="flag">[-]</text><text x="404.6" y="421.2" fill="#ccc" class="taxonLabel">Acaenoplax hayae</text><text x="382.6" y="382.1" fill="grey" class="flag">[?]</text><text x="404.6" y="382.1" fill="#999" class="taxonLabel">Siphogonuchites multa</text><text x="382.6" y="391.9" fill="lightgrey" class="flag">[-]</text><text x="404.6" y="391.9" fill="#ccc" class="taxonLabel">Polysacos vickersianum</text><text x="442.2" y="333.1" fill="lightgrey" class="flag">[-]</text><text x="464.2" y="333.1" fill="#ccc" class="taxonLabel">Tonicella</text><text x="442.2" y="342.9" fill="lightgrey" class="flag">[-]</text><text x="464.2" y="342.9" fill="#ccc" class="taxonLabel">Mopalia</text><text x="422.4" y="352.7" fill="lightgrey" class="flag">[-]</text><text x="444.4" y="352.7" fill="#ccc" class="taxonLabel">Leptochiton</text><text x="402.5" y="362.5" fill="lightgrey" class="flag">[-]</text><text x="424.5" y="362.5" fill="#ccc" class="taxonLabel">Glaphurochiton carbonarius</text><text x="382.6" y="372.3" fill="lightgrey" class="flag">[-]</text><text x="404.6" y="372.3" fill="#ccc" class="taxonLabel">Calvapilosa kroegeri</text><text x="263.4" y="577.9" fill="lightgrey" class="flag">[-]</text><text x="285.4" y="577.9" fill="#ccc" class="taxonLabel">Bactrotheca</text><text x="243.5" y="587.7" fill="lightgrey" class="flag">[-]</text><text x="265.5" y="587.7" fill="#ccc" class="taxonLabel">Cupitheca holocyclata</text><text x="323" y="284.2" fill="grey" class="flag">[?]</text><text x="345" y="284.2" fill="#999" class="taxonLabel">Mickwitzia muralensis</text><text x="323" y="294" fill="lightgrey" class="flag">[-]</text><text x="345" y="294" fill="#ccc" class="taxonLabel">Heliomedusa orienta</text><text x="402.5" y="245" fill="lightgrey" class="flag">[-]</text><text x="424.5" y="245" fill="#ccc" class="taxonLabel">Novocrania</text><text x="402.5" y="254.8" fill="lightgrey" class="flag">[-]</text><text x="424.5" y="254.8" fill="#ccc" class="taxonLabel">Craniops</text><text x="382.6" y="264.6" fill="lightgrey" class="flag">[-]</text><text x="404.6" y="264.6" fill="#ccc" class="taxonLabel">Ussunia</text><text x="362.8" y="274.4" fill="lightgrey" class="flag">[-]</text><text x="384.8" y="274.4" fill="#ccc" class="taxonLabel">Gasconsia</text><text x="442.2" y="196" fill="#e2e2a2" class="flag">[1]</text><text x="464.2" y="196" fill="#000" class="taxonLabel">Pelagodiscus atlanticus</text><text x="442.2" y="205.8" fill="grey" class="flag">[?]</text><text x="464.2" y="205.8" fill="#999" class="taxonLabel">Mummpikia nuda</text><text x="482" y="166.7" fill="grey" class="flag">[?]</text><text x="504" y="166.7" fill="#999" class="taxonLabel">Siphonobolus priscus</text><text x="482" y="176.5" fill="#91bfdb" class="flag">[2]</text><text x="504" y="176.5" fill="#000" class="taxonLabel">Acanthotretella spinosa</text><text x="482" y="147.1" fill="grey" class="flag">[?]</text><text x="504" y="147.1" fill="#999" class="taxonLabel">Lingulosacculus</text><text x="482" y="156.9" fill="grey" class="flag">[?]</text><text x="504" y="156.9" fill="#999" class="taxonLabel">Clupeafumosus socialis</text><text x="442.2" y="186.2" fill="#91bfdb" class="flag">[2]</text><text x="464.2" y="186.2" fill="#000" class="taxonLabel">Lingulellotreta malongensis</text><text x="402.5" y="215.6" fill="grey" class="flag">[?]</text><text x="424.5" y="215.6" fill="#999" class="taxonLabel">Botsfordia</text><text x="382.6" y="225.4" fill="grey" class="flag">[?]</text><text x="404.6" y="225.4" fill="#999" class="taxonLabel">Eoobolus</text><text x="362.8" y="235.2" fill="#e2e2a2" class="flag">[1]</text><text x="384.8" y="235.2" fill="#000" class="taxonLabel">Lingula</text><text x="362.8" y="127.5" fill="grey" class="flag">[?]</text><text x="384.8" y="127.5" fill="#999" class="taxonLabel">Micromitra</text><text x="362.8" y="137.3" fill="grey" class="flag">[?]</text><text x="384.8" y="137.3" fill="#999" class="taxonLabel">Askepasma toddense</text><text x="422.4" y="88.3" fill="#91bfdb" class="flag">[2]</text><text x="444.4" y="88.3" fill="#000" class="taxonLabel">Yuganotheca elegans</text><text x="422.4" y="98.1" fill="grey" class="flag">[?]</text><text x="444.4" y="98.1" fill="#999" class="taxonLabel">Tomteluva perturbata</text><text x="402.5" y="107.9" fill="#91bfdb" class="flag">[2]</text><text x="424.5" y="107.9" fill="#000" class="taxonLabel">Longtancunella chengjiangensis</text><text x="382.6" y="117.7" fill="grey" class="flag">[?]</text><text x="404.6" y="117.7" fill="#999" class="taxonLabel">Salanygolina</text><text x="402.5" y="68.8" fill="grey" class="flag">[?]</text><text x="424.5" y="68.8" fill="#999" class="taxonLabel">Coolinia pecten</text><text x="402.5" y="78.5" fill="#91bfdb" class="flag">[2]</text><text x="424.5" y="78.5" fill="#000" class="taxonLabel">Antigonambonites planus</text><text x="422.4" y="49.2" fill="grey" class="flag">[23]</text><text x="444.4" y="49.2" fill="#999" class="taxonLabel">Nisusia sulcata</text><text x="422.4" y="59" fill="#91bfdb" class="flag">[2]</text><text x="444.4" y="59" fill="#000" class="taxonLabel">Kutorgina chengjiangensis</text><text x="462.1" y="10" fill="#e2e2a2" class="flag">[1]</text><text x="484.1" y="10" fill="#000" class="taxonLabel">Terebratulina</text><text x="462.1" y="19.8" fill="grey" class="flag">[?]</text><text x="484.1" y="19.8" fill="#999" class="taxonLabel">Orthis</text><text x="442.2" y="29.6" fill="#91bfdb" class="flag">[2]</text><text x="464.2" y="29.6" fill="#000" class="taxonLabel">Alisina</text><text x="422.4" y="39.4" fill="grey" class="flag">[?]</text><text x="444.4" y="39.4" fill="#999" class="taxonLabel">Glyptoria</text><text x="283.2" y="303.8" fill="grey" class="flag">[?]</text><text x="305.2" y="303.8" fill="#999" class="taxonLabel">Micrina</text><text x="263.4" y="313.5" fill="grey" class="flag">[?]</text><text x="285.4" y="313.5" fill="#999" class="taxonLabel">Paterimitra</text><text x="243.5" y="323.3" fill="#91bfdb" class="flag">[2]</text><text x="265.5" y="323.3" fill="#000" class="taxonLabel">Pedunculotheca diania</text><text x="183.9" y="617.1" fill="lightgrey" class="flag">[-]</text><text x="205.9" y="617.1" fill="#ccc" class="taxonLabel">Halkieria evangelista</text><text x="164" y="626.9" fill="lightgrey" class="flag">[-]</text><text x="186" y="626.9" fill="#ccc" class="taxonLabel">Orthrozanclus</text><text x="144.1" y="636.7" fill="lightgrey" class="flag">[-]</text><text x="166.1" y="636.7" fill="#ccc" class="taxonLabel">Yilingia spiciformis</text><text x="124.2" y="646.5" fill="grey" class="flag">[?]</text><text x="146.2" y="646.5" fill="#999" class="taxonLabel">Dailyatia</text><text x="84.5" y="675.8" fill="lightgrey" class="flag">[-]</text><text x="106.5" y="675.8" fill="#ccc" class="taxonLabel">Namacalathus</text><text x="64.6" y="685.6" fill="lightgrey" class="flag">[-]</text><text x="86.6" y="685.6" fill="#ccc" class="taxonLabel">Phoronis</text><text x="24.9" y="715" fill="lightgrey" class="flag">[-]</text><text x="46.9" y="715" fill="#ccc" class="taxonLabel">Loxosomella</text><path d="M5,697.9V683.9H24.9M24.9,683.9V670.4H44.8M44.8,670.4V658.2H64.6M64.6,658.2V643.5H84.5M84.5,643.5V628.8H104.4M104.4,628.8V614.2H124.2M124.2,614.2V594.7H144.1M144.1,594.7V565.5H164M164,565.5V516.8H183.9M183.9,516.8V434.3H203.8M323,242.1V262.8H342.9M342.9,262.8V254.2H362.8M362.8,254.2V246.9H382.6M382.6,246.9V242H402.5M382.6,246.9V251.8H402.5M362.8,254.2V261.6H382.6M342.9,262.8V271.4H362.8M283.2,229.8V286.1H303.1M303.1,286.1V281.2H323M303.1,286.1V291H323M203.8,434.3V564.5H223.6M223.6,564.5V544.2H243.5M243.5,544.2V513.5H263.4M263.4,513.5V470.5H283.2M283.2,470.5V424.8H303.1M303.1,424.8V397H323M323,397V372H342.9M342.9,372V360.1H362.8M362.8,360.1V350.9H382.6M382.6,350.9V342.4H402.5M402.5,342.4V335H422.4M422.4,335V330.1H442.2M422.4,335V339.9H442.2M402.5,342.4V349.7H422.4M382.6,350.9V359.5H402.5M362.8,360.1V369.3H382.6M342.9,372V384H362.8M362.8,384V379.1H382.6M362.8,384V388.9H382.6M323,397V421.9H342.9M342.9,421.9V410.9H362.8M362.8,410.9V403.6H382.6M382.6,403.6V398.7H402.5M382.6,403.6V408.5H402.5M362.8,410.9V418.2H382.6M342.9,421.9V432.9H362.8M362.8,432.9V428H382.6M362.8,432.9V437.8H382.6M303.1,424.8V452.5H323M323,452.5V447.6H342.9M323,452.5V457.4H342.9M283.2,470.5V516.3H303.1M303.1,516.3V506.7H323M323,506.7V497.2H342.9M342.9,497.2V488H362.8M362.8,488V479.4H382.6M382.6,479.4V472.1H402.5M402.5,472.1V467.2H422.4M402.5,472.1V477H422.4M382.6,479.4V486.8H402.5M362.8,488V496.6H382.6M342.9,497.2V506.4H362.8M323,506.7V516.2H342.9M303.1,516.3V526H323M263.4,513.5V556.6H283.2M283.2,556.6V548H303.1M303.1,548V540.6H323M323,540.6V535.8H342.9M323,540.6V545.5H342.9M303.1,548V555.3H323M283.2,556.6V565.1H303.1M243.5,544.2V574.9H263.4M223.6,564.5V584.7H243.5M183.9,516.8V599.4H203.8M203.8,599.4V594.5H223.6M203.8,599.4V604.3H223.6M164,565.5V614.1H183.9M144.1,594.7V623.9H164M124.2,614.2V633.7H144.1M104.4,628.8V643.5H124.2M84.5,643.5V658.1H104.4M104.4,658.1V653.2H124.2M104.4,658.1V663H124.2M64.6,658.2V672.8H84.5M44.8,670.4V682.6H64.6M24.9,683.9V697.3H44.8M44.8,697.3V692.4H64.6M44.8,697.3V702.2H64.6M5,697.9V712H24.9" stroke="lightgrey" class="inapplicable"></path><path d="M203.8,434.3V304.1H223.6M223.6,304.1V287.9H243.5M243.5,287.9V265.3H263.4M263.4,265.3V229.8H283.2M283.2,229.8V173.5H303.1M303.1,173.5V105H323M323,105V80.6H342.9M342.9,80.6V55H362.8M362.8,55V39.4H382.6M382.6,39.4V27.8H402.5M402.5,27.8V19.2H422.4M422.4,19.2V11.9H442.2M422.4,19.2V26.6H442.2M402.5,27.8V36.4H422.4M382.6,39.4V51.1H402.5M402.5,51.1V46.2H422.4M402.5,51.1V56H422.4M362.8,55V70.6H382.6M382.6,70.6V65.8H402.5M382.6,70.6V75.5H402.5M342.9,80.6V106.1H362.8M362.8,106.1V97.6H382.6M382.6,97.6V90.2H402.5M402.5,90.2V85.3H422.4M402.5,90.2V95.1H422.4M382.6,97.6V104.9H402.5M362.8,106.1V114.7H382.6M323,105V129.4H342.9M342.9,129.4V124.5H362.8M342.9,129.4V134.3H362.8M303.1,173.5V242.1H323M402.5,184.5V171H422.4M422.4,171V158.8H442.2M442.2,158.8V149H462.1M462.1,149V144.1H482M462.1,149V153.9H482M442.2,158.8V168.6H462.1M462.1,168.6V163.7H482M462.1,168.6V173.5H482M422.4,171V183.2H442.2M263.4,265.3V300.8H283.2M243.5,287.9V310.5H263.4M223.6,304.1V320.3H243.5" stroke="#91bfdb"></path><path d="M442.2,11.9V7H462.1M422.4,197.9V193H442.2M342.9,221.3V232.2H362.8" stroke="#e2e2a2"></path><path d="M442.2,11.9V16.8H462.1M323,242.1V221.3H342.9M342.9,221.3V210.5H362.8M362.8,210.5V198.5H382.6M382.6,198.5V184.5H402.5M402.5,184.5V197.9H422.4M422.4,197.9V202.8H442.2M382.6,198.5V212.6H402.5M362.8,210.5V222.4H382.6" stroke="darkgrey"></path><text x="26.9" y="686.9" class="node" fill="#4A6FE3">1</text><text x="46.8" y="673.4" class="node" fill="#C1C6E3">0.62</text><text x="66.6" y="661.2" class="node" fill="#4A6FE3">1</text><text x="86.5" y="646.5" class="node" fill="#4A6FE3">1</text><text x="106.4" y="631.8" class="node" fill="#CACDE3">0.59</text><text x="126.2" y="617.2" class="node" fill="#4A6FE3">1</text><text x="146.1" y="597.7" class="node" fill="#4A6FE3">1</text><text x="166" y="568.5" class="node" fill="#4A6FE3">1</text><text x="185.9" y="519.8" class="node" fill="#4A6FE3">1</text><text x="205.8" y="437.3" class="node" fill="#4A6FE3">1</text><text x="225.6" y="307.1" class="node" fill="#4A6FE3">1</text><text x="245.5" y="290.9" class="node" fill="#4A6FE3">1</text><text x="265.4" y="268.3" class="node" fill="#4A6FE3">1</text><text x="285.2" y="232.8" class="node" fill="#4A6FE3">1</text><text x="305.1" y="176.5" class="node" fill="#4A6FE3">1</text><text x="325" y="108" class="node" fill="#4A6FE3">1</text><text x="344.9" y="83.6" class="node" fill="#768BE1">0.88</text><text x="364.8" y="58" class="node" fill="#9AA6E2">0.76</text><text x="384.6" y="42.4" class="node" fill="#768BE1">0.88</text><text x="404.5" y="30.8" class="node" fill="#627DE1">0.94</text><text x="424.4" y="22.2" class="node" fill="#627DE1">0.94</text><text x="444.2" y="14.9" class="node" fill="#DADBE3">0.53</text><text x="404.5" y="54.1" class="node" fill="#4A6FE3">1</text><text x="384.6" y="73.6" class="node" fill="#E6BDC5">0.38</text><text x="364.8" y="109.1" class="node" fill="#D2D4E3">0.56</text><text x="384.6" y="100.6" class="node" fill="#6D84E1">0.91</text><text x="404.5" y="93.2" class="node" fill="#4A6FE3">1</text><text x="344.9" y="132.4" class="node" fill="#4A6FE3">1</text><text x="325" y="245.1" class="node" fill="#4A6FE3">1</text><text x="344.9" y="224.3" class="node" fill="#4A6FE3">1</text><text x="364.8" y="213.5" class="node" fill="#4A6FE3">1</text><text x="384.6" y="201.5" class="node" fill="#4A6FE3">1</text><text x="404.5" y="187.5" class="node" fill="#4A6FE3">1</text><text x="424.4" y="174" class="node" fill="#4A6FE3">1</text><text x="444.2" y="161.8" class="node" fill="#E2E2E2">0.5</text><text x="464.1" y="152" class="node" fill="#4A6FE3">1</text><text x="464.1" y="171.6" class="node" fill="#4A6FE3">1</text><text x="424.4" y="200.9" class="node" fill="#4A6FE3">1</text><text x="344.9" y="265.8" class="node" fill="#4A6FE3">1</text><text x="364.8" y="257.2" class="node" fill="#4A6FE3">1</text><text x="384.6" y="249.9" class="node" fill="#4A6FE3">1</text><text x="305.1" y="289.1" class="node" fill="#4A6FE3">1</text><text x="225.6" y="567.5" class="node" fill="#4A6FE3">1</text><text x="245.5" y="547.2" class="node" fill="#4A6FE3">1</text><text x="265.4" y="516.5" class="node" fill="#929FE1">0.79</text><text x="285.2" y="473.5" class="node" fill="#4A6FE3">1</text><text x="305.1" y="427.8" class="node" fill="#4A6FE3">1</text><text x="325" y="400" class="node" fill="#D85778">0.06</text><text x="344.9" y="375" class="node" fill="#4A6FE3">1</text><text x="364.8" y="363.1" class="node" fill="#D2D4E3">0.56</text><text x="384.6" y="353.9" class="node" fill="#E5D0D3">0.44</text><text x="404.5" y="345.4" class="node" fill="#4A6FE3">1</text><text x="424.4" y="338" class="node" fill="#D54C71">0.03</text><text x="364.8" y="387" class="node" fill="#4A6FE3">1</text><text x="344.9" y="424.9" class="node" fill="#4A6FE3">1</text><text x="364.8" y="413.9" class="node" fill="#4A6FE3">1</text><text x="384.6" y="406.6" class="node" fill="#4A6FE3">1</text><text x="364.8" y="435.9" class="node" fill="#4A6FE3">1</text><text x="325" y="455.5" class="node" fill="#E5D0D3">0.44</text><text x="305.1" y="519.3" class="node" fill="#4A6FE3">1</text><text x="325" y="509.7" class="node" fill="#4A6FE3">1</text><text x="344.9" y="500.2" class="node" fill="#E6ABB6">0.32</text><text x="364.8" y="491" class="node" fill="#929FE1">0.79</text><text x="384.6" y="482.4" class="node" fill="#CACDE3">0.59</text><text x="404.5" y="475.1" class="node" fill="#4A6FE3">1</text><text x="285.2" y="559.6" class="node" fill="#4A6FE3">1</text><text x="305.1" y="551" class="node" fill="#E5C7CC">0.41</text><text x="325" y="543.6" class="node" fill="#E4D9DB">0.47</text><text x="205.8" y="602.4" class="node" fill="#E59FAC">0.29</text><text x="106.4" y="661.1" class="node" fill="#4A6FE3">1</text><text x="46.8" y="700.3" class="node" fill="#4A6FE3">1</text></svg>
