<svg xmlns="http://www.w3.org/2000/svg" version="1.1" viewBox="0 0 682 720" preserveAspectRatio="xMidYMid meet" class="tree" data-char="60"><text x="678" y="12.7" text-anchor="end" class="stepsLabel">Character adds <tspan class="score">1</tspan> to tree score</text><text x="678" y="22.4" text-anchor="end" class="stepsLabel"><tspan class="score">0</tspan> additional regions</text><text x="678" y="32.1" text-anchor="end" class="stepsLabel"></text><text x="678" y="51.5" text-anchor="end" class="stepsLabel"><tspan dy="16" fill="#34caaf">An optimal tree under:</tspan><tspan x="680" style="font-style:italic" class="notThisAn" dy="1.2em">Implied weights, k = 4.5</tspan><tspan x="680" style="font-style:italic" class="notThisAn" dy="1.2em">IW, k = 10.5</tspan><tspan x="680" style="font-style:italic" class="notThisAn" dy="1.2em">IW, k = 24</tspan><tspan x="680" style="font-style:italic" class="thisAn" dy="1.2em">Equal weights</tspan></text><text x="62.2" y="695.4" fill="#e2e2a2" class="flag">[1]</text><text x="84.2" y="695.4" fill="#000" class="taxonLabel">Flustra</text><text x="62.2" y="705.2" fill="#e2e2a2" class="flag">[1]</text><text x="84.2" y="705.2" fill="#000" class="taxonLabel">Amathia</text><text x="157.6" y="636.7" fill="grey" class="flag">[?]</text><text x="179.6" y="636.7" fill="#999" class="taxonLabel">Yilingia spiciformis</text><text x="157.6" y="646.5" fill="grey" class="flag">[?]</text><text x="179.6" y="646.5" fill="#999" class="taxonLabel">Dailyatia</text><text x="214.9" y="597.5" fill="grey" class="flag">[?]</text><text x="236.9" y="597.5" fill="#999" class="taxonLabel">Paramicrocornus</text><text x="214.9" y="607.3" fill="grey" class="flag">[?]</text><text x="236.9" y="607.3" fill="#999" class="taxonLabel">Haplophrentis carinatus</text><text x="329.4" y="538.8" fill="lightgrey" class="flag">[-]</text><text x="351.4" y="538.8" fill="#ccc" class="taxonLabel">Capitella</text><text x="329.4" y="548.5" fill="lightgrey" class="flag">[-]</text><text x="351.4" y="548.5" fill="#ccc" class="taxonLabel">Canadia spinosa</text><text x="310.3" y="558.3" fill="grey" class="flag">[?]</text><text x="332.3" y="558.3" fill="#999" class="taxonLabel">Serpula</text><text x="291.2" y="568.1" fill="#e2e2a2" class="flag">[1]</text><text x="313.2" y="568.1" fill="#000" class="taxonLabel">Sipunculus</text><text x="386.6" y="489.8" fill="lightgrey" class="flag">[-]</text><text x="408.6" y="489.8" fill="#ccc" class="taxonLabel">Neopilina</text><text x="386.6" y="499.6" fill="grey" class="flag">[?]</text><text x="408.6" y="499.6" fill="#999" class="taxonLabel">Conocardium elongatum</text><text x="386.6" y="470.2" fill="grey" class="flag">[?]</text><text x="408.6" y="470.2" fill="#999" class="taxonLabel">Pojetaia runnegari</text><text x="386.6" y="480" fill="lightgrey" class="flag">[-]</text><text x="408.6" y="480" fill="#ccc" class="taxonLabel">Haliotis</text><text x="348.4" y="509.4" fill="lightgrey" class="flag">[-]</text><text x="370.4" y="509.4" fill="#ccc" class="taxonLabel">Mytilus</text><text x="329.4" y="519.2" fill="grey" class="flag">[?]</text><text x="351.4" y="519.2" fill="#999" class="taxonLabel">Dentalium</text><text x="348.4" y="450.6" fill="lightgrey" class="flag">[-]</text><text x="370.4" y="450.6" fill="#ccc" class="taxonLabel">Wiwaxia corrugata</text><text x="348.4" y="460.4" fill="lightgrey" class="flag">[-]</text><text x="370.4" y="460.4" fill="#ccc" class="taxonLabel">Odontogriphus omalus</text><text x="405.7" y="421.2" fill="lightgrey" class="flag">[-]</text><text x="427.7" y="421.2" fill="#ccc" class="taxonLabel">Wirenia</text><text x="405.7" y="431" fill="lightgrey" class="flag">[-]</text><text x="427.7" y="431" fill="#ccc" class="taxonLabel">Chaetoderma</text><text x="424.8" y="391.9" fill="grey" class="flag">[?]</text><text x="446.8" y="391.9" fill="#999" class="taxonLabel">Phthipodochiton thraivensis</text><text x="424.8" y="401.7" fill="lightgrey" class="flag">[-]</text><text x="446.8" y="401.7" fill="#ccc" class="taxonLabel">Kulindroplax perissokomos</text><text x="405.7" y="411.5" fill="lightgrey" class="flag">[-]</text><text x="427.7" y="411.5" fill="#ccc" class="taxonLabel">Acaenoplax hayae</text><text x="462.9" y="333.1" fill="lightgrey" class="flag">[-]</text><text x="484.9" y="333.1" fill="#ccc" class="taxonLabel">Tonicella</text><text x="462.9" y="342.9" fill="lightgrey" class="flag">[-]</text><text x="484.9" y="342.9" fill="#ccc" class="taxonLabel">Mopalia</text><text x="443.8" y="352.7" fill="lightgrey" class="flag">[-]</text><text x="465.8" y="352.7" fill="#ccc" class="taxonLabel">Leptochiton</text><text x="424.8" y="362.5" fill="grey" class="flag">[?]</text><text x="446.8" y="362.5" fill="#999" class="taxonLabel">Glaphurochiton carbonarius</text><text x="405.7" y="372.3" fill="lightgrey" class="flag">[-]</text><text x="427.7" y="372.3" fill="#ccc" class="taxonLabel">Calvapilosa kroegeri</text><text x="386.6" y="382.1" fill="grey" class="flag">[?]</text><text x="408.6" y="382.1" fill="#999" class="taxonLabel">Polysacos vickersianum</text><text x="348.4" y="440.8" fill="grey" class="flag">[?]</text><text x="370.4" y="440.8" fill="#999" class="taxonLabel">Siphogonuchites multa</text><text x="291.2" y="529" fill="grey" class="flag">[?]</text><text x="313.2" y="529" fill="#999" class="taxonLabel">Pelagiella</text><text x="253" y="577.9" fill="grey" class="flag">[?]</text><text x="275" y="577.9" fill="#999" class="taxonLabel">Bactrotheca</text><text x="234" y="587.7" fill="grey" class="flag">[?]</text><text x="256" y="587.7" fill="#999" class="taxonLabel">Cupitheca holocyclata</text><text x="310.3" y="284.2" fill="grey" class="flag">[?]</text><text x="332.3" y="284.2" fill="#999" class="taxonLabel">Mickwitzia muralensis</text><text x="310.3" y="294" fill="grey" class="flag">[?]</text><text x="332.3" y="294" fill="#999" class="taxonLabel">Heliomedusa orienta</text><text x="386.6" y="245" fill="#91bfdb" class="flag">[2]</text><text x="408.6" y="245" fill="#000" class="taxonLabel">Novocrania</text><text x="386.6" y="254.8" fill="grey" class="flag">[?]</text><text x="408.6" y="254.8" fill="#999" class="taxonLabel">Craniops</text><text x="367.5" y="264.6" fill="grey" class="flag">[?]</text><text x="389.5" y="264.6" fill="#999" class="taxonLabel">Ussunia</text><text x="348.4" y="274.4" fill="grey" class="flag">[?]</text><text x="370.4" y="274.4" fill="#999" class="taxonLabel">Gasconsia</text><text x="424.8" y="196" fill="#91bfdb" class="flag">[2]</text><text x="446.8" y="196" fill="#000" class="taxonLabel">Pelagodiscus atlanticus</text><text x="424.8" y="205.8" fill="grey" class="flag">[?]</text><text x="446.8" y="205.8" fill="#999" class="taxonLabel">Mummpikia nuda</text><text x="482" y="147.1" fill="grey" class="flag">[?]</text><text x="504" y="147.1" fill="#999" class="taxonLabel">Siphonobolus priscus</text><text x="482" y="156.9" fill="grey" class="flag">[?]</text><text x="504" y="156.9" fill="#999" class="taxonLabel">Acanthotretella spinosa</text><text x="462.9" y="166.7" fill="grey" class="flag">[?]</text><text x="484.9" y="166.7" fill="#999" class="taxonLabel">Lingulosacculus</text><text x="443.8" y="176.5" fill="grey" class="flag">[?]</text><text x="465.8" y="176.5" fill="#999" class="taxonLabel">Clupeafumosus socialis</text><text x="424.8" y="186.2" fill="grey" class="flag">[?]</text><text x="446.8" y="186.2" fill="#999" class="taxonLabel">Lingulellotreta malongensis</text><text x="386.6" y="215.6" fill="grey" class="flag">[?]</text><text x="408.6" y="215.6" fill="#999" class="taxonLabel">Botsfordia</text><text x="367.5" y="225.4" fill="grey" class="flag">[?]</text><text x="389.5" y="225.4" fill="#999" class="taxonLabel">Eoobolus</text><text x="348.4" y="235.2" fill="#91bfdb" class="flag">[2]</text><text x="370.4" y="235.2" fill="#000" class="taxonLabel">Lingula</text><text x="348.4" y="127.5" fill="grey" class="flag">[?]</text><text x="370.4" y="127.5" fill="#999" class="taxonLabel">Micromitra</text><text x="348.4" y="137.3" fill="grey" class="flag">[?]</text><text x="370.4" y="137.3" fill="#999" class="taxonLabel">Askepasma toddense</text><text x="405.7" y="88.3" fill="grey" class="flag">[?]</text><text x="427.7" y="88.3" fill="#999" class="taxonLabel">Yuganotheca elegans</text><text x="405.7" y="98.1" fill="grey" class="flag">[?]</text><text x="427.7" y="98.1" fill="#999" class="taxonLabel">Tomteluva perturbata</text><text x="386.6" y="107.9" fill="grey" class="flag">[?]</text><text x="408.6" y="107.9" fill="#999" class="taxonLabel">Longtancunella chengjiangensis</text><text x="367.5" y="117.7" fill="grey" class="flag">[?]</text><text x="389.5" y="117.7" fill="#999" class="taxonLabel">Salanygolina</text><text x="386.6" y="68.8" fill="grey" class="flag">[?]</text><text x="408.6" y="68.8" fill="#999" class="taxonLabel">Coolinia pecten</text><text x="386.6" y="78.5" fill="grey" class="flag">[?]</text><text x="408.6" y="78.5" fill="#999" class="taxonLabel">Antigonambonites planus</text><text x="462.9" y="10" fill="#91bfdb" class="flag">[2]</text><text x="484.9" y="10" fill="#000" class="taxonLabel">Terebratulina</text><text x="462.9" y="19.8" fill="grey" class="flag">[?]</text><text x="484.9" y="19.8" fill="#999" class="taxonLabel">Orthis</text><text x="443.8" y="29.6" fill="grey" class="flag">[?]</text><text x="465.8" y="29.6" fill="#999" class="taxonLabel">Alisina</text><text x="424.8" y="39.4" fill="grey" class="flag">[?]</text><text x="446.8" y="39.4" fill="#999" class="taxonLabel">Glyptoria</text><text x="405.7" y="49.2" fill="grey" class="flag">[?]</text><text x="427.7" y="49.2" fill="#999" class="taxonLabel">Nisusia sulcata</text><text x="386.6" y="59" fill="grey" class="flag">[?]</text><text x="408.6" y="59" fill="#999" class="taxonLabel">Kutorgina chengjiangensis</text><text x="272.1" y="303.8" fill="grey" class="flag">[?]</text><text x="294.1" y="303.8" fill="#999" class="taxonLabel">Micrina</text><text x="253" y="313.5" fill="grey" class="flag">[?]</text><text x="275" y="313.5" fill="#999" class="taxonLabel">Paterimitra</text><text x="234" y="323.3" fill="grey" class="flag">[?]</text><text x="256" y="323.3" fill="#999" class="taxonLabel">Pedunculotheca diania</text><text x="176.7" y="617.1" fill="grey" class="flag">[?]</text><text x="198.7" y="617.1" fill="#999" class="taxonLabel">Halkieria evangelista</text><text x="157.6" y="626.9" fill="grey" class="flag">[?]</text><text x="179.6" y="626.9" fill="#999" class="taxonLabel">Orthrozanclus</text><text x="119.5" y="656.2" fill="grey" class="flag">[?]</text><text x="141.5" y="656.2" fill="#999" class="taxonLabel">Cotyledion tylodes</text><text x="100.4" y="666" fill="grey" class="flag">[?]</text><text x="122.4" y="666" fill="#999" class="taxonLabel">Eccentrotheca</text><text x="81.3" y="675.8" fill="grey" class="flag">[?]</text><text x="103.3" y="675.8" fill="#999" class="taxonLabel">Namacalathus</text><text x="62.2" y="685.6" fill="#e2e2a2" class="flag">[1]</text><text x="84.2" y="685.6" fill="#000" class="taxonLabel">Phoronis</text><text x="24.1" y="715" fill="grey" class="flag">[?]</text><text x="46.1" y="715" fill="#999" class="taxonLabel">Loxosomella</text><path d="M5,698.3V684.5H24.1M24.1,684.5V671.8H43.2M43.2,671.8V660.9H62.2M62.2,660.9V649H81.3M81.3,649V635H100.4M100.4,635V616.7H119.5M119.5,616.7V594.9H138.6M138.6,594.9V565.9H157.6M157.6,565.9V517.7H176.7M176.7,517.7V436H195.8M195.8,436V304.2H214.9M195.8,436V567.9H214.9M214.9,567.9V551H234M234,551V527.1H253M253,527.1V556.6H272.1M272.1,556.6V565.1H291.2M234,551V574.9H253M214.9,567.9V584.7H234M176.7,517.7V599.4H195.8M195.8,599.4V594.5H214.9M195.8,599.4V604.3H214.9M157.6,565.9V614.1H176.7M138.6,594.9V623.9H157.6M119.5,616.7V638.6H138.6M138.6,638.6V633.7H157.6M138.6,638.6V643.5H157.6M100.4,635V653.2H119.5M81.3,649V663H100.4M62.2,660.9V672.8H81.3M43.2,671.8V682.6H62.2M24.1,684.5V697.3H43.2M43.2,697.3V692.4H62.2M43.2,697.3V702.2H62.2M5,698.3V712H24.1" stroke="#e2e2a2"></path><path d="M214.9,304.2V288H234M234,288V265.4H253M253,265.4V230H272.1M272.1,230V286.1H291.2M291.2,286.1V281.2H310.3M291.2,286.1V291H310.3M253,265.4V300.8H272.1M234,288V310.5H253M214.9,304.2V320.3H234" stroke="darkgrey"></path><path d="M272.1,230V174H291.2M291.2,174V105.9H310.3M310.3,105.9V82.3H329.4M329.4,82.3V58.6H348.4M348.4,58.6V46.5H367.5M367.5,46.5V37H386.6M386.6,37V27.8H405.7M405.7,27.8V19.2H424.8M424.8,19.2V11.9H443.8M443.8,11.9V7H462.9M443.8,11.9V16.8H462.9M424.8,19.2V26.6H443.8M405.7,27.8V36.4H424.8M386.6,37V46.2H405.7M367.5,46.5V56H386.6M348.4,58.6V70.6H367.5M367.5,70.6V65.8H386.6M367.5,70.6V75.5H386.6M329.4,82.3V106.1H348.4M348.4,106.1V97.6H367.5M367.5,97.6V90.2H386.6M386.6,90.2V85.3H405.7M386.6,90.2V95.1H405.7M367.5,97.6V104.9H386.6M348.4,106.1V114.7H367.5M310.3,105.9V129.4H329.4M329.4,129.4V124.5H348.4M329.4,129.4V134.3H348.4M291.2,174V242.2H310.3M310.3,242.2V221.5H329.4M329.4,221.5V210.9H348.4M348.4,210.9V199.3H367.5M367.5,199.3V186H386.6M386.6,186V174.1H405.7M405.7,174.1V164.9H424.8M424.8,164.9V156.3H443.8M443.8,156.3V149H462.9M462.9,149V144.1H482M462.9,149V153.9H482M443.8,156.3V163.7H462.9M424.8,164.9V173.5H443.8M405.7,174.1V183.2H424.8M386.6,186V197.9H405.7M405.7,197.9V193H424.8M405.7,197.9V202.8H424.8M367.5,199.3V212.6H386.6M348.4,210.9V222.4H367.5M329.4,221.5V232.2H348.4M310.3,242.2V262.8H329.4M329.4,262.8V254.2H348.4M348.4,254.2V246.9H367.5M367.5,246.9V242H386.6M367.5,246.9V251.8H386.6M348.4,254.2V261.6H367.5M329.4,262.8V271.4H348.4" stroke="#91bfdb"></path><path d="M253,527.1V497.6H272.1M272.1,497.6V469.3H291.2M291.2,469.3V433.4H310.3M310.3,433.4V414.3H329.4M329.4,414.3V390.9H348.4M348.4,390.9V369.6H367.5M367.5,369.6V360.1H386.6M386.6,360.1V350.9H405.7M405.7,350.9V342.4H424.8M424.8,342.4V335H443.8M443.8,335V330.1H462.9M443.8,335V339.9H462.9M424.8,342.4V349.7H443.8M405.7,350.9V359.5H424.8M386.6,360.1V369.3H405.7M367.5,369.6V379.1H386.6M348.4,390.9V412.1H367.5M367.5,412.1V401.1H386.6M386.6,401.1V393.8H405.7M405.7,393.8V388.9H424.8M405.7,393.8V398.7H424.8M386.6,401.1V408.5H405.7M367.5,412.1V423.1H386.6M386.6,423.1V418.2H405.7M386.6,423.1V428H405.7M329.4,414.3V437.8H348.4M310.3,433.4V452.5H329.4M329.4,452.5V447.6H348.4M329.4,452.5V457.4H348.4M291.2,469.3V505.2H310.3M310.3,505.2V494.1H329.4M329.4,494.1V481.9H348.4M348.4,481.9V472.1H367.5M367.5,472.1V467.2H386.6M367.5,472.1V477H386.6M348.4,481.9V491.7H367.5M367.5,491.7V486.8H386.6M367.5,491.7V496.6H386.6M329.4,494.1V506.4H348.4M310.3,505.2V516.2H329.4M272.1,497.6V526H291.2M272.1,556.6V548H291.2M291.2,548V540.6H310.3M310.3,540.6V535.8H329.4M310.3,540.6V545.5H329.4M291.2,548V555.3H310.3" stroke="lightgrey" class="inapplicable"></path><text x="26.1" y="687.5" class="node" fill="#4A6FE3">1</text><text x="45.2" y="674.8" class="node" fill="#C1C6E3">0.62</text><text x="64.2" y="663.9" class="node" fill="#4A6FE3">1</text><text x="83.3" y="652" class="node" fill="#E5D0D3">0.44</text><text x="102.4" y="638" class="node" fill="#4A6FE3">1</text><text x="121.5" y="619.7" class="node" fill="#4A6FE3">1</text><text x="140.6" y="597.9" class="node" fill="#4A6FE3">1</text><text x="159.6" y="568.9" class="node" fill="#4A6FE3">1</text><text x="178.7" y="520.7" class="node" fill="#4A6FE3">1</text><text x="197.8" y="439" class="node" fill="#4A6FE3">1</text><text x="216.9" y="307.2" class="node" fill="#4A6FE3">1</text><text x="236" y="291" class="node" fill="#4A6FE3">1</text><text x="255" y="268.4" class="node" fill="#4A6FE3">1</text><text x="274.1" y="233" class="node" fill="#4A6FE3">1</text><text x="293.2" y="177" class="node" fill="#4A6FE3">1</text><text x="312.3" y="108.9" class="node" fill="#4A6FE3">1</text><text x="331.4" y="85.3" class="node" fill="#768BE1">0.88</text><text x="350.4" y="61.6" class="node" fill="#9AA6E2">0.76</text><text x="369.5" y="49.5" class="node" fill="#E5C7CC">0.41</text><text x="388.6" y="40" class="node" fill="#768BE1">0.88</text><text x="407.7" y="30.8" class="node" fill="#627DE1">0.94</text><text x="426.8" y="22.2" class="node" fill="#627DE1">0.94</text><text x="445.8" y="14.9" class="node" fill="#4A6FE3">1</text><text x="369.5" y="73.6" class="node" fill="#E6BDC5">0.38</text><text x="350.4" y="109.1" class="node" fill="#D2D4E3">0.56</text><text x="369.5" y="100.6" class="node" fill="#6D84E1">0.91</text><text x="388.6" y="93.2" class="node" fill="#4A6FE3">1</text><text x="331.4" y="132.4" class="node" fill="#4A6FE3">1</text><text x="312.3" y="245.2" class="node" fill="#4A6FE3">1</text><text x="331.4" y="224.5" class="node" fill="#4A6FE3">1</text><text x="350.4" y="213.9" class="node" fill="#4A6FE3">1</text><text x="369.5" y="202.3" class="node" fill="#4A6FE3">1</text><text x="388.6" y="189" class="node" fill="#4A6FE3">1</text><text x="407.7" y="177.1" class="node" fill="#4A6FE3">1</text><text x="426.8" y="167.9" class="node" fill="#E6ABB6">0.32</text><text x="445.8" y="159.3" class="node" fill="#4A6FE3">1</text><text x="464.9" y="152" class="node" fill="#4A6FE3">1</text><text x="407.7" y="200.9" class="node" fill="#4A6FE3">1</text><text x="331.4" y="265.8" class="node" fill="#4A6FE3">1</text><text x="350.4" y="257.2" class="node" fill="#4A6FE3">1</text><text x="369.5" y="249.9" class="node" fill="#4A6FE3">1</text><text x="293.2" y="289.1" class="node" fill="#4A6FE3">1</text><text x="216.9" y="570.9" class="node" fill="#4A6FE3">1</text><text x="236" y="554" class="node" fill="#4A6FE3">1</text><text x="255" y="530.1" class="node" fill="#929FE1">0.79</text><text x="274.1" y="500.6" class="node" fill="#D2D4E3">0.56</text><text x="293.2" y="472.3" class="node" fill="#4A6FE3">1</text><text x="312.3" y="436.4" class="node" fill="#4A6FE3">1</text><text x="331.4" y="417.3" class="node" fill="#627DE1">0.94</text><text x="350.4" y="393.9" class="node" fill="#627DE1">0.94</text><text x="369.5" y="372.6" class="node" fill="#4A6FE3">1</text><text x="388.6" y="363.1" class="node" fill="#D2D4E3">0.56</text><text x="407.7" y="353.9" class="node" fill="#E5D0D3">0.44</text><text x="426.8" y="345.4" class="node" fill="#4A6FE3">1</text><text x="445.8" y="338" class="node" fill="#4A6FE3">1</text><text x="369.5" y="415.1" class="node" fill="#4A6FE3">1</text><text x="388.6" y="404.1" class="node" fill="#4A6FE3">1</text><text x="407.7" y="396.8" class="node" fill="#4A6FE3">1</text><text x="388.6" y="426.1" class="node" fill="#4A6FE3">1</text><text x="331.4" y="455.5" class="node" fill="#4A6FE3">1</text><text x="312.3" y="508.2" class="node" fill="#4A6FE3">1</text><text x="331.4" y="497.1" class="node" fill="#E6B4BD">0.35</text><text x="350.4" y="484.9" class="node" fill="#DD6C86">0.12</text><text x="369.5" y="475.1" class="node" fill="#CACDE3">0.59</text><text x="369.5" y="494.7" class="node" fill="#4A6FE3">1</text><text x="274.1" y="559.6" class="node" fill="#4A6FE3">1</text><text x="293.2" y="551" class="node" fill="#CACDE3">0.59</text><text x="312.3" y="543.6" class="node" fill="#E4D9DB">0.47</text><text x="197.8" y="602.4" class="node" fill="#E17F94">0.18</text><text x="140.6" y="641.6" class="node" fill="#4A6FE3">1</text><text x="45.2" y="700.3" class="node" fill="#4A6FE3">1</text></svg>
