<svg xmlns="http://www.w3.org/2000/svg" version="1.1" viewBox="0 0 682 720" preserveAspectRatio="xMidYMid meet" class="tree" data-char="160"><text x="678" y="12.7" text-anchor="end" class="stepsLabel">Character adds <tspan class="score">6</tspan> to tree score</text><text x="678" y="22.4" text-anchor="end" class="stepsLabel"><tspan class="score">1</tspan> additional region</text><text x="678" y="32.1" text-anchor="end" class="stepsLabel"></text><text x="678" y="51.5" text-anchor="end" class="stepsLabel"><tspan dy="16" fill="#34caaf">An optimal tree under:</tspan><tspan x="680" style="font-style:italic" class="notThisAn" dy="1.2em">Implied weights, k = 4.5</tspan><tspan x="680" style="font-style:italic" class="notThisAn" dy="1.2em">IW, k = 10.5</tspan><tspan x="680" style="font-style:italic" class="notThisAn" dy="1.2em">IW, k = 24</tspan><tspan x="680" style="font-style:italic" class="thisAn" dy="1.2em">Equal weights</tspan></text><text x="62.2" y="695.4" fill="lightgrey" class="flag">[-]</text><text x="84.2" y="695.4" fill="#ccc" class="taxonLabel">Flustra</text><text x="62.2" y="705.2" fill="lightgrey" class="flag">[-]</text><text x="84.2" y="705.2" fill="#ccc" class="taxonLabel">Amathia</text><text x="81.3" y="675.8" fill="lightgrey" class="flag">[-]</text><text x="103.3" y="675.8" fill="#ccc" class="taxonLabel">Phoronis</text><text x="81.3" y="685.6" fill="lightgrey" class="flag">[-]</text><text x="103.3" y="685.6" fill="#ccc" class="taxonLabel">Namacalathus</text><text x="214.9" y="597.5" fill="lightgrey" class="flag">[-]</text><text x="236.9" y="597.5" fill="#ccc" class="taxonLabel">Paramicrocornus</text><text x="214.9" y="607.3" fill="lightgrey" class="flag">[-]</text><text x="236.9" y="607.3" fill="#ccc" class="taxonLabel">Haplophrentis carinatus</text><text x="348.4" y="529" fill="lightgrey" class="flag">[-]</text><text x="370.4" y="529" fill="#ccc" class="taxonLabel">Serpula</text><text x="348.4" y="538.8" fill="lightgrey" class="flag">[-]</text><text x="370.4" y="538.8" fill="#ccc" class="taxonLabel">Capitella</text><text x="329.4" y="548.5" fill="lightgrey" class="flag">[-]</text><text x="351.4" y="548.5" fill="#ccc" class="taxonLabel">Canadia spinosa</text><text x="310.3" y="558.3" fill="lightgrey" class="flag">[-]</text><text x="332.3" y="558.3" fill="#ccc" class="taxonLabel">Sipunculus</text><text x="291.2" y="568.1" fill="lightgrey" class="flag">[-]</text><text x="313.2" y="568.1" fill="#ccc" class="taxonLabel">Pelagiella</text><text x="367.5" y="489.8" fill="lightgrey" class="flag">[-]</text><text x="389.5" y="489.8" fill="#ccc" class="taxonLabel">Neopilina</text><text x="367.5" y="499.6" fill="lightgrey" class="flag">[-]</text><text x="389.5" y="499.6" fill="#ccc" class="taxonLabel">Conocardium elongatum</text><text x="367.5" y="470.2" fill="lightgrey" class="flag">[-]</text><text x="389.5" y="470.2" fill="#ccc" class="taxonLabel">Pojetaia runnegari</text><text x="367.5" y="480" fill="lightgrey" class="flag">[-]</text><text x="389.5" y="480" fill="#ccc" class="taxonLabel">Haliotis</text><text x="329.4" y="509.4" fill="lightgrey" class="flag">[-]</text><text x="351.4" y="509.4" fill="#ccc" class="taxonLabel">Mytilus</text><text x="310.3" y="519.2" fill="lightgrey" class="flag">[-]</text><text x="332.3" y="519.2" fill="#ccc" class="taxonLabel">Dentalium</text><text x="329.4" y="450.6" fill="lightgrey" class="flag">[-]</text><text x="351.4" y="450.6" fill="#ccc" class="taxonLabel">Wiwaxia corrugata</text><text x="329.4" y="460.4" fill="lightgrey" class="flag">[-]</text><text x="351.4" y="460.4" fill="#ccc" class="taxonLabel">Odontogriphus omalus</text><text x="386.6" y="421.2" fill="lightgrey" class="flag">[-]</text><text x="408.6" y="421.2" fill="#ccc" class="taxonLabel">Wirenia</text><text x="386.6" y="431" fill="lightgrey" class="flag">[-]</text><text x="408.6" y="431" fill="#ccc" class="taxonLabel">Chaetoderma</text><text x="405.7" y="391.9" fill="lightgrey" class="flag">[-]</text><text x="427.7" y="391.9" fill="#ccc" class="taxonLabel">Phthipodochiton thraivensis</text><text x="405.7" y="401.7" fill="lightgrey" class="flag">[-]</text><text x="427.7" y="401.7" fill="#ccc" class="taxonLabel">Kulindroplax perissokomos</text><text x="386.6" y="411.5" fill="lightgrey" class="flag">[-]</text><text x="408.6" y="411.5" fill="#ccc" class="taxonLabel">Acaenoplax hayae</text><text x="405.7" y="362.5" fill="#91bfdb" class="flag">[2]</text><text x="427.7" y="362.5" fill="#000" class="taxonLabel">Tonicella</text><text x="405.7" y="372.3" fill="#91bfdb" class="flag">[2]</text><text x="427.7" y="372.3" fill="#000" class="taxonLabel">Mopalia</text><text x="424.8" y="333.1" fill="lightgrey" class="flag">[-]</text><text x="446.8" y="333.1" fill="#ccc" class="taxonLabel">Glaphurochiton carbonarius</text><text x="424.8" y="342.9" fill="lightgrey" class="flag">[-]</text><text x="446.8" y="342.9" fill="#ccc" class="taxonLabel">Calvapilosa kroegeri</text><text x="405.7" y="352.7" fill="lightgrey" class="flag">[-]</text><text x="427.7" y="352.7" fill="#ccc" class="taxonLabel">Leptochiton</text><text x="367.5" y="382.1" fill="lightgrey" class="flag">[-]</text><text x="389.5" y="382.1" fill="#ccc" class="taxonLabel">Polysacos vickersianum</text><text x="329.4" y="440.8" fill="lightgrey" class="flag">[-]</text><text x="351.4" y="440.8" fill="#ccc" class="taxonLabel">Siphogonuchites multa</text><text x="253" y="577.9" fill="lightgrey" class="flag">[-]</text><text x="275" y="577.9" fill="#ccc" class="taxonLabel">Bactrotheca</text><text x="234" y="587.7" fill="lightgrey" class="flag">[-]</text><text x="256" y="587.7" fill="#ccc" class="taxonLabel">Cupitheca holocyclata</text><text x="310.3" y="284.2" fill="#91bfdb" class="flag">[2]</text><text x="332.3" y="284.2" fill="#000" class="taxonLabel">Mickwitzia muralensis</text><text x="310.3" y="294" fill="lightgrey" class="flag">[-]</text><text x="332.3" y="294" fill="#ccc" class="taxonLabel">Heliomedusa orienta</text><text x="386.6" y="245" fill="lightgrey" class="flag">[-]</text><text x="408.6" y="245" fill="#ccc" class="taxonLabel">Novocrania</text><text x="386.6" y="254.8" fill="lightgrey" class="flag">[-]</text><text x="408.6" y="254.8" fill="#ccc" class="taxonLabel">Craniops</text><text x="367.5" y="264.6" fill="lightgrey" class="flag">[-]</text><text x="389.5" y="264.6" fill="#ccc" class="taxonLabel">Ussunia</text><text x="348.4" y="274.4" fill="#91bfdb" class="flag">[2]</text><text x="370.4" y="274.4" fill="#000" class="taxonLabel">Gasconsia</text><text x="424.8" y="196" fill="lightgrey" class="flag">[-]</text><text x="446.8" y="196" fill="#ccc" class="taxonLabel">Pelagodiscus atlanticus</text><text x="424.8" y="205.8" fill="lightgrey" class="flag">[-]</text><text x="446.8" y="205.8" fill="#ccc" class="taxonLabel">Mummpikia nuda</text><text x="482" y="147.1" fill="lightgrey" class="flag">[-]</text><text x="504" y="147.1" fill="#ccc" class="taxonLabel">Siphonobolus priscus</text><text x="482" y="156.9" fill="lightgrey" class="flag">[-]</text><text x="504" y="156.9" fill="#ccc" class="taxonLabel">Acanthotretella spinosa</text><text x="462.9" y="166.7" fill="lightgrey" class="flag">[-]</text><text x="484.9" y="166.7" fill="#ccc" class="taxonLabel">Lingulosacculus</text><text x="443.8" y="176.5" fill="lightgrey" class="flag">[-]</text><text x="465.8" y="176.5" fill="#ccc" class="taxonLabel">Clupeafumosus socialis</text><text x="424.8" y="186.2" fill="lightgrey" class="flag">[-]</text><text x="446.8" y="186.2" fill="#ccc" class="taxonLabel">Lingulellotreta malongensis</text><text x="386.6" y="215.6" fill="lightgrey" class="flag">[-]</text><text x="408.6" y="215.6" fill="#ccc" class="taxonLabel">Botsfordia</text><text x="367.5" y="225.4" fill="#e2e2a2" class="flag">[1]</text><text x="389.5" y="225.4" fill="#000" class="taxonLabel">Eoobolus</text><text x="348.4" y="235.2" fill="lightgrey" class="flag">[-]</text><text x="370.4" y="235.2" fill="#ccc" class="taxonLabel">Lingula</text><text x="348.4" y="127.5" fill="#91bfdb" class="flag">[2]</text><text x="370.4" y="127.5" fill="#000" class="taxonLabel">Micromitra</text><text x="348.4" y="137.3" fill="lightgrey" class="flag">[-]</text><text x="370.4" y="137.3" fill="#ccc" class="taxonLabel">Askepasma toddense</text><text x="405.7" y="88.3" fill="grey" class="flag">[?]</text><text x="427.7" y="88.3" fill="#999" class="taxonLabel">Yuganotheca elegans</text><text x="405.7" y="98.1" fill="#91bfdb" class="flag">[2]</text><text x="427.7" y="98.1" fill="#000" class="taxonLabel">Tomteluva perturbata</text><text x="386.6" y="107.9" fill="grey" class="flag">[?]</text><text x="408.6" y="107.9" fill="#999" class="taxonLabel">Longtancunella chengjiangensis</text><text x="367.5" y="117.7" fill="#e2e2a2" class="flag">[1]</text><text x="389.5" y="117.7" fill="#000" class="taxonLabel">Salanygolina</text><text x="386.6" y="68.8" fill="#91bfdb" class="flag">[2]</text><text x="408.6" y="68.8" fill="#000" class="taxonLabel">Coolinia pecten</text><text x="386.6" y="78.5" fill="#91bfdb" class="flag">[2]</text><text x="408.6" y="78.5" fill="#000" class="taxonLabel">Antigonambonites planus</text><text x="405.7" y="49.2" fill="#e2e2a2" class="flag">[1]</text><text x="427.7" y="49.2" fill="#000" class="taxonLabel">Nisusia sulcata</text><text x="405.7" y="59" fill="#91bfdb" class="flag">[2]</text><text x="427.7" y="59" fill="#000" class="taxonLabel">Kutorgina chengjiangensis</text><text x="443.8" y="10" fill="#e2e2a2" class="flag">[1]</text><text x="465.8" y="10" fill="#000" class="taxonLabel">Terebratulina</text><text x="443.8" y="19.8" fill="lightgrey" class="flag">[-]</text><text x="465.8" y="19.8" fill="#ccc" class="taxonLabel">Orthis</text><text x="424.8" y="29.6" fill="#91bfdb" class="flag">[2]</text><text x="446.8" y="29.6" fill="#000" class="taxonLabel">Alisina</text><text x="405.7" y="39.4" fill="lightgrey" class="flag">[-]</text><text x="427.7" y="39.4" fill="#ccc" class="taxonLabel">Glyptoria</text><text x="272.1" y="303.8" fill="#e2e2a2" class="flag">[1]</text><text x="294.1" y="303.8" fill="#000" class="taxonLabel">Micrina</text><text x="253" y="313.5" fill="#e2e2a2" class="flag">[1]</text><text x="275" y="313.5" fill="#000" class="taxonLabel">Paterimitra</text><text x="234" y="323.3" fill="lightgrey" class="flag">[-]</text><text x="256" y="323.3" fill="#ccc" class="taxonLabel">Pedunculotheca diania</text><text x="176.7" y="617.1" fill="lightgrey" class="flag">[-]</text><text x="198.7" y="617.1" fill="#ccc" class="taxonLabel">Halkieria evangelista</text><text x="157.6" y="626.9" fill="lightgrey" class="flag">[-]</text><text x="179.6" y="626.9" fill="#ccc" class="taxonLabel">Orthrozanclus</text><text x="138.6" y="636.7" fill="lightgrey" class="flag">[-]</text><text x="160.6" y="636.7" fill="#ccc" class="taxonLabel">Yilingia spiciformis</text><text x="119.5" y="646.5" fill="lightgrey" class="flag">[-]</text><text x="141.5" y="646.5" fill="#ccc" class="taxonLabel">Dailyatia</text><text x="100.4" y="656.2" fill="lightgrey" class="flag">[-]</text><text x="122.4" y="656.2" fill="#ccc" class="taxonLabel">Cotyledion tylodes</text><text x="81.3" y="666" fill="lightgrey" class="flag">[-]</text><text x="103.3" y="666" fill="#ccc" class="taxonLabel">Eccentrotheca</text><text x="24.1" y="715" fill="lightgrey" class="flag">[-]</text><text x="46.1" y="715" fill="#ccc" class="taxonLabel">Loxosomella</text><path d="M5,696.5V681.1H24.1M24.1,681.1V664.9H43.2M43.2,664.9V652H62.2M62.2,652V641H81.3M81.3,641V628.8H100.4M100.4,628.8V614.2H119.5M119.5,614.2V594.7H138.6M138.6,594.7V565.4H157.6M157.6,565.4V516.8H176.7M176.7,516.8V434.2H195.8M195.8,434.2V304.1H214.9M424.8,11.9V16.8H443.8M386.6,27.8V36.4H405.7M329.4,129.4V134.3H348.4M348.4,210.9V199.3H367.5M367.5,199.3V186H386.6M386.6,186V174.1H405.7M405.7,174.1V164.9H424.8M424.8,164.9V156.3H443.8M443.8,156.3V149H462.9M462.9,149V144.1H482M462.9,149V153.9H482M443.8,156.3V163.7H462.9M424.8,164.9V173.5H443.8M405.7,174.1V183.2H424.8M386.6,186V197.9H405.7M405.7,197.9V193H424.8M405.7,197.9V202.8H424.8M367.5,199.3V212.6H386.6M329.4,221.5V232.2H348.4M329.4,262.8V254.2H348.4M348.4,254.2V246.9H367.5M367.5,246.9V242H386.6M367.5,246.9V251.8H386.6M348.4,254.2V261.6H367.5M291.2,286.1V291H310.3M214.9,304.1V320.3H234M195.8,434.2V564.2H214.9M214.9,564.2V543.7H234M234,543.7V512.5H253M253,512.5V469.1H272.1M272.1,469.1V433H291.2M291.2,433V413.5H310.3M310.3,413.5V389.2H329.4M329.4,389.2V366.2H348.4M348.4,366.2V353.4H367.5M367.5,353.4V342.4H386.6M386.6,342.4V335H405.7M405.7,335V330.1H424.8M405.7,335V339.9H424.8M386.6,342.4V349.7H405.7M348.4,366.2V379.1H367.5M329.4,389.2V412.1H348.4M348.4,412.1V401.1H367.5M367.5,401.1V393.8H386.6M386.6,393.8V388.9H405.7M386.6,393.8V398.7H405.7M367.5,401.1V408.5H386.6M348.4,412.1V423.1H367.5M367.5,423.1V418.2H386.6M367.5,423.1V428H386.6M310.3,413.5V437.8H329.4M291.2,433V452.5H310.3M310.3,452.5V447.6H329.4M310.3,452.5V457.4H329.4M272.1,469.1V505.2H291.2M291.2,505.2V494.1H310.3M310.3,494.1V481.9H329.4M329.4,481.9V472.1H348.4M348.4,472.1V467.2H367.5M348.4,472.1V477H367.5M329.4,481.9V491.7H348.4M348.4,491.7V486.8H367.5M348.4,491.7V496.6H367.5M310.3,494.1V506.4H329.4M291.2,505.2V516.2H310.3M253,512.5V555.9H272.1M272.1,555.9V546.8H291.2M291.2,546.8V538.2H310.3M310.3,538.2V530.9H329.4M329.4,530.9V526H348.4M329.4,530.9V535.8H348.4M310.3,538.2V545.5H329.4M291.2,546.8V555.3H310.3M272.1,555.9V565.1H291.2M234,543.7V574.9H253M214.9,564.2V584.7H234M176.7,516.8V599.4H195.8M195.8,599.4V594.5H214.9M195.8,599.4V604.3H214.9M157.6,565.4V614.1H176.7M138.6,594.7V623.9H157.6M119.5,614.2V633.7H138.6M100.4,628.8V643.5H119.5M81.3,641V653.2H100.4M62.2,652V663H81.3M43.2,664.9V677.7H62.2M62.2,677.7V672.8H81.3M62.2,677.7V682.6H81.3M24.1,681.1V697.3H43.2M43.2,697.3V692.4H62.2M43.2,697.3V702.2H62.2M5,696.5V712H24.1" stroke="lightgrey" class="inapplicable"></path><path d="M214.9,304.1V287.9H234M234,287.9V265.3H253M424.8,11.9V7H443.8M386.6,51.1V46.2H405.7M348.4,106.1V114.7H367.5M348.4,210.9V222.4H367.5M253,265.3V300.8H272.1M234,287.9V310.5H253" stroke="#e2e2a2"></path><path d="M253,265.3V229.8H272.1M272.1,229.8V173.6H291.2M291.2,173.6V105H310.3M310.3,105V80.6H329.4M329.4,80.6V55H348.4M348.4,55V39.4H367.5M367.5,39.4V27.8H386.6M386.6,27.8V19.2H405.7M405.7,19.2V11.9H424.8M405.7,19.2V26.6H424.8M367.5,39.4V51.1H386.6M386.6,51.1V56H405.7M348.4,55V70.6H367.5M367.5,70.6V65.8H386.6M367.5,70.6V75.5H386.6M329.4,80.6V106.1H348.4M348.4,106.1V97.6H367.5M367.5,97.6V90.2H386.6M386.6,90.2V85.3H405.7M386.6,90.2V95.1H405.7M367.5,97.6V104.9H386.6M310.3,105V129.4H329.4M329.4,129.4V124.5H348.4M291.2,173.6V242.2H310.3M310.3,242.2V221.5H329.4M310.3,242.2V262.8H329.4M329.4,262.8V271.4H348.4M272.1,229.8V286.1H291.2M291.2,286.1V281.2H310.3M367.5,353.4V364.4H386.6M386.6,364.4V359.5H405.7M386.6,364.4V369.3H405.7" stroke="#91bfdb"></path><path d="M329.4,221.5V210.9H348.4" stroke="darkgrey"></path><text x="26.1" y="684.1" class="node" fill="#4A6FE3">1</text><text x="45.2" y="667.9" class="node" fill="#4A6FE3">1</text><text x="64.2" y="655" class="node" fill="#E5D0D3">0.44</text><text x="83.3" y="644" class="node" fill="#4A6FE3">1</text><text x="102.4" y="631.8" class="node" fill="#CACDE3">0.59</text><text x="121.5" y="617.2" class="node" fill="#4A6FE3">1</text><text x="140.6" y="597.7" class="node" fill="#4A6FE3">1</text><text x="159.6" y="568.4" class="node" fill="#4A6FE3">1</text><text x="178.7" y="519.8" class="node" fill="#4A6FE3">1</text><text x="197.8" y="437.2" class="node" fill="#4A6FE3">1</text><text x="216.9" y="307.1" class="node" fill="#4A6FE3">1</text><text x="236" y="290.9" class="node" fill="#4A6FE3">1</text><text x="255" y="268.3" class="node" fill="#4A6FE3">1</text><text x="274.1" y="232.8" class="node" fill="#4A6FE3">1</text><text x="293.2" y="176.6" class="node" fill="#4A6FE3">1</text><text x="312.3" y="108" class="node" fill="#4A6FE3">1</text><text x="331.4" y="83.6" class="node" fill="#768BE1">0.88</text><text x="350.4" y="58" class="node" fill="#9AA6E2">0.76</text><text x="369.5" y="42.4" class="node" fill="#768BE1">0.88</text><text x="388.6" y="30.8" class="node" fill="#627DE1">0.94</text><text x="407.7" y="22.2" class="node" fill="#627DE1">0.94</text><text x="426.8" y="14.9" class="node" fill="#DADBE3">0.53</text><text x="388.6" y="54.1" class="node" fill="#4A6FE3">1</text><text x="369.5" y="73.6" class="node" fill="#E6BDC5">0.38</text><text x="350.4" y="109.1" class="node" fill="#D2D4E3">0.56</text><text x="369.5" y="100.6" class="node" fill="#6D84E1">0.91</text><text x="388.6" y="93.2" class="node" fill="#4A6FE3">1</text><text x="331.4" y="132.4" class="node" fill="#4A6FE3">1</text><text x="312.3" y="245.2" class="node" fill="#4A6FE3">1</text><text x="331.4" y="224.5" class="node" fill="#4A6FE3">1</text><text x="350.4" y="213.9" class="node" fill="#4A6FE3">1</text><text x="369.5" y="202.3" class="node" fill="#4A6FE3">1</text><text x="388.6" y="189" class="node" fill="#4A6FE3">1</text><text x="407.7" y="177.1" class="node" fill="#4A6FE3">1</text><text x="426.8" y="167.9" class="node" fill="#E6ABB6">0.32</text><text x="445.8" y="159.3" class="node" fill="#4A6FE3">1</text><text x="464.9" y="152" class="node" fill="#4A6FE3">1</text><text x="407.7" y="200.9" class="node" fill="#4A6FE3">1</text><text x="331.4" y="265.8" class="node" fill="#4A6FE3">1</text><text x="350.4" y="257.2" class="node" fill="#4A6FE3">1</text><text x="369.5" y="249.9" class="node" fill="#4A6FE3">1</text><text x="293.2" y="289.1" class="node" fill="#4A6FE3">1</text><text x="216.9" y="567.2" class="node" fill="#4A6FE3">1</text><text x="236" y="546.7" class="node" fill="#4A6FE3">1</text><text x="255" y="515.5" class="node" fill="#D2D4E3">0.56</text><text x="274.1" y="472.1" class="node" fill="#4A6FE3">1</text><text x="293.2" y="436" class="node" fill="#4A6FE3">1</text><text x="312.3" y="416.5" class="node" fill="#627DE1">0.94</text><text x="331.4" y="392.2" class="node" fill="#627DE1">0.94</text><text x="350.4" y="369.2" class="node" fill="#4A6FE3">1</text><text x="369.5" y="356.4" class="node" fill="#E2899B">0.21</text><text x="388.6" y="345.4" class="node" fill="#E5D0D3">0.44</text><text x="407.7" y="338" class="node" fill="#4A6FE3">1</text><text x="388.6" y="367.4" class="node" fill="#4A6FE3">1</text><text x="350.4" y="415.1" class="node" fill="#4A6FE3">1</text><text x="369.5" y="404.1" class="node" fill="#4A6FE3">1</text><text x="388.6" y="396.8" class="node" fill="#4A6FE3">1</text><text x="369.5" y="426.1" class="node" fill="#4A6FE3">1</text><text x="312.3" y="455.5" class="node" fill="#4A6FE3">1</text><text x="293.2" y="508.2" class="node" fill="#4A6FE3">1</text><text x="312.3" y="497.1" class="node" fill="#E6B4BD">0.35</text><text x="331.4" y="484.9" class="node" fill="#DD6C86">0.12</text><text x="350.4" y="475.1" class="node" fill="#CACDE3">0.59</text><text x="350.4" y="494.7" class="node" fill="#E2899B">0.21</text><text x="274.1" y="558.9" class="node" fill="#4A6FE3">1</text><text x="293.2" y="549.8" class="node" fill="#4A6FE3">1</text><text x="312.3" y="541.2" class="node" fill="#E5C7CC">0.41</text><text x="331.4" y="533.9" class="node" fill="#E4D9DB">0.47</text><text x="197.8" y="602.4" class="node" fill="#E2899B">0.21</text><text x="64.2" y="680.7" class="node" fill="#4A6FE3">1</text><text x="45.2" y="700.3" class="node" fill="#4A6FE3">1</text></svg>
