<svg xmlns="http://www.w3.org/2000/svg" version="1.1" viewBox="0 0 682 720" preserveAspectRatio="xMidYMid meet" class="tree" data-char="254"><text x="678" y="12.7" text-anchor="end" class="stepsLabel">Character adds <tspan class="score">2</tspan> to tree score</text><text x="678" y="22.4" text-anchor="end" class="stepsLabel"><tspan class="score">0</tspan> additional regions</text><text x="678" y="32.1" text-anchor="end" class="stepsLabel"></text><text x="678" y="51.5" text-anchor="end" class="stepsLabel"><tspan dy="16" fill="#34caaf">An optimal tree under:</tspan><tspan x="680" style="font-style:italic" class="notThisAn" dy="1.2em">Implied weights, k = 4.5</tspan><tspan x="680" style="font-style:italic" class="notThisAn" dy="1.2em">IW, k = 10.5</tspan><tspan x="680" style="font-style:italic" class="notThisAn" dy="1.2em">IW, k = 24</tspan><tspan x="680" style="font-style:italic" class="thisAn" dy="1.2em">Equal weights</tspan></text><text x="60" y="695.4" fill="#91bfdb" class="flag">[2]</text><text x="82" y="695.4" fill="#000" class="taxonLabel">Flustra</text><text x="60" y="705.2" fill="#91bfdb" class="flag">[2]</text><text x="82" y="705.2" fill="#000" class="taxonLabel">Amathia</text><text x="225.2" y="597.5" fill="grey" class="flag">[?]</text><text x="247.2" y="597.5" fill="#999" class="taxonLabel">Paramicrocornus</text><text x="225.2" y="607.3" fill="grey" class="flag">[?]</text><text x="247.2" y="607.3" fill="#999" class="taxonLabel">Haplophrentis carinatus</text><text x="353.6" y="529" fill="grey" class="flag">[?]</text><text x="375.6" y="529" fill="#999" class="taxonLabel">Capitella</text><text x="353.6" y="538.8" fill="grey" class="flag">[?]</text><text x="375.6" y="538.8" fill="#999" class="taxonLabel">Canadia spinosa</text><text x="335.2" y="548.5" fill="#91bfdb" class="flag">[2]</text><text x="357.2" y="548.5" fill="#000" class="taxonLabel">Serpula</text><text x="316.9" y="558.3" fill="#e2e2a2" class="flag">[1]</text><text x="338.9" y="558.3" fill="#000" class="taxonLabel">Sipunculus</text><text x="298.5" y="568.1" fill="grey" class="flag">[?]</text><text x="320.5" y="568.1" fill="#999" class="taxonLabel">Pelagiella</text><text x="390.3" y="470.2" fill="grey" class="flag">[?]</text><text x="412.3" y="470.2" fill="#999" class="taxonLabel">Neopilina</text><text x="390.3" y="480" fill="grey" class="flag">[?]</text><text x="412.3" y="480" fill="#999" class="taxonLabel">Conocardium elongatum</text><text x="371.9" y="489.8" fill="grey" class="flag">[?]</text><text x="393.9" y="489.8" fill="#999" class="taxonLabel">Pojetaia runnegari</text><text x="353.6" y="499.6" fill="grey" class="flag">[?]</text><text x="375.6" y="499.6" fill="#999" class="taxonLabel">Haliotis</text><text x="335.2" y="509.4" fill="grey" class="flag">[?]</text><text x="357.2" y="509.4" fill="#999" class="taxonLabel">Mytilus</text><text x="316.9" y="519.2" fill="#e2e2a2" class="flag">[1]</text><text x="338.9" y="519.2" fill="#000" class="taxonLabel">Dentalium</text><text x="335.2" y="450.6" fill="grey" class="flag">[?]</text><text x="357.2" y="450.6" fill="#999" class="taxonLabel">Wiwaxia corrugata</text><text x="335.2" y="460.4" fill="grey" class="flag">[?]</text><text x="357.2" y="460.4" fill="#999" class="taxonLabel">Odontogriphus omalus</text><text x="390.3" y="421.2" fill="grey" class="flag">[?]</text><text x="412.3" y="421.2" fill="#999" class="taxonLabel">Wirenia</text><text x="390.3" y="431" fill="grey" class="flag">[?]</text><text x="412.3" y="431" fill="#999" class="taxonLabel">Chaetoderma</text><text x="408.6" y="391.9" fill="grey" class="flag">[?]</text><text x="430.6" y="391.9" fill="#999" class="taxonLabel">Phthipodochiton thraivensis</text><text x="408.6" y="401.7" fill="grey" class="flag">[?]</text><text x="430.6" y="401.7" fill="#999" class="taxonLabel">Kulindroplax perissokomos</text><text x="390.3" y="411.5" fill="grey" class="flag">[?]</text><text x="412.3" y="411.5" fill="#999" class="taxonLabel">Acaenoplax hayae</text><text x="408.6" y="362.5" fill="grey" class="flag">[?]</text><text x="430.6" y="362.5" fill="#999" class="taxonLabel">Glaphurochiton carbonarius</text><text x="408.6" y="372.3" fill="grey" class="flag">[?]</text><text x="430.6" y="372.3" fill="#999" class="taxonLabel">Calvapilosa kroegeri</text><text x="427" y="333.1" fill="#e2e2a2" class="flag">[1]</text><text x="449" y="333.1" fill="#000" class="taxonLabel">Tonicella</text><text x="427" y="342.9" fill="grey" class="flag">[?]</text><text x="449" y="342.9" fill="#999" class="taxonLabel">Mopalia</text><text x="408.6" y="352.7" fill="grey" class="flag">[?]</text><text x="430.6" y="352.7" fill="#999" class="taxonLabel">Leptochiton</text><text x="371.9" y="382.1" fill="grey" class="flag">[?]</text><text x="393.9" y="382.1" fill="#999" class="taxonLabel">Polysacos vickersianum</text><text x="335.2" y="440.8" fill="grey" class="flag">[?]</text><text x="357.2" y="440.8" fill="#999" class="taxonLabel">Siphogonuchites multa</text><text x="261.8" y="577.9" fill="grey" class="flag">[?]</text><text x="283.8" y="577.9" fill="#999" class="taxonLabel">Bactrotheca</text><text x="243.5" y="587.7" fill="grey" class="flag">[?]</text><text x="265.5" y="587.7" fill="#999" class="taxonLabel">Cupitheca holocyclata</text><text x="316.9" y="284.2" fill="grey" class="flag">[?]</text><text x="338.9" y="284.2" fill="#999" class="taxonLabel">Mickwitzia muralensis</text><text x="316.9" y="294" fill="grey" class="flag">[?]</text><text x="338.9" y="294" fill="#999" class="taxonLabel">Heliomedusa orienta</text><text x="390.3" y="245" fill="#91bfdb" class="flag">[2]</text><text x="412.3" y="245" fill="#000" class="taxonLabel">Novocrania</text><text x="390.3" y="254.8" fill="grey" class="flag">[?]</text><text x="412.3" y="254.8" fill="#999" class="taxonLabel">Craniops</text><text x="371.9" y="264.6" fill="grey" class="flag">[?]</text><text x="393.9" y="264.6" fill="#999" class="taxonLabel">Ussunia</text><text x="353.6" y="274.4" fill="grey" class="flag">[?]</text><text x="375.6" y="274.4" fill="#999" class="taxonLabel">Gasconsia</text><text x="427" y="196" fill="grey" class="flag">[?]</text><text x="449" y="196" fill="#999" class="taxonLabel">Pelagodiscus atlanticus</text><text x="427" y="205.8" fill="grey" class="flag">[?]</text><text x="449" y="205.8" fill="#999" class="taxonLabel">Mummpikia nuda</text><text x="482" y="147.1" fill="grey" class="flag">[?]</text><text x="504" y="147.1" fill="#999" class="taxonLabel">Siphonobolus priscus</text><text x="482" y="156.9" fill="grey" class="flag">[?]</text><text x="504" y="156.9" fill="#999" class="taxonLabel">Acanthotretella spinosa</text><text x="463.7" y="166.7" fill="grey" class="flag">[?]</text><text x="485.7" y="166.7" fill="#999" class="taxonLabel">Lingulosacculus</text><text x="445.3" y="176.5" fill="grey" class="flag">[?]</text><text x="467.3" y="176.5" fill="#999" class="taxonLabel">Clupeafumosus socialis</text><text x="427" y="186.2" fill="grey" class="flag">[?]</text><text x="449" y="186.2" fill="#999" class="taxonLabel">Lingulellotreta malongensis</text><text x="390.3" y="215.6" fill="grey" class="flag">[?]</text><text x="412.3" y="215.6" fill="#999" class="taxonLabel">Botsfordia</text><text x="371.9" y="225.4" fill="grey" class="flag">[?]</text><text x="393.9" y="225.4" fill="#999" class="taxonLabel">Eoobolus</text><text x="353.6" y="235.2" fill="#91bfdb" class="flag">[2]</text><text x="375.6" y="235.2" fill="#000" class="taxonLabel">Lingula</text><text x="353.6" y="127.5" fill="grey" class="flag">[?]</text><text x="375.6" y="127.5" fill="#999" class="taxonLabel">Micromitra</text><text x="353.6" y="137.3" fill="grey" class="flag">[?]</text><text x="375.6" y="137.3" fill="#999" class="taxonLabel">Askepasma toddense</text><text x="408.6" y="88.3" fill="grey" class="flag">[?]</text><text x="430.6" y="88.3" fill="#999" class="taxonLabel">Yuganotheca elegans</text><text x="408.6" y="98.1" fill="grey" class="flag">[?]</text><text x="430.6" y="98.1" fill="#999" class="taxonLabel">Tomteluva perturbata</text><text x="390.3" y="107.9" fill="grey" class="flag">[?]</text><text x="412.3" y="107.9" fill="#999" class="taxonLabel">Longtancunella chengjiangensis</text><text x="371.9" y="117.7" fill="grey" class="flag">[?]</text><text x="393.9" y="117.7" fill="#999" class="taxonLabel">Salanygolina</text><text x="390.3" y="68.8" fill="grey" class="flag">[?]</text><text x="412.3" y="68.8" fill="#999" class="taxonLabel">Coolinia pecten</text><text x="390.3" y="78.5" fill="grey" class="flag">[?]</text><text x="412.3" y="78.5" fill="#999" class="taxonLabel">Antigonambonites planus</text><text x="408.6" y="49.2" fill="grey" class="flag">[?]</text><text x="430.6" y="49.2" fill="#999" class="taxonLabel">Nisusia sulcata</text><text x="408.6" y="59" fill="grey" class="flag">[?]</text><text x="430.6" y="59" fill="#999" class="taxonLabel">Kutorgina chengjiangensis</text><text x="445.3" y="10" fill="#91bfdb" class="flag">[2]</text><text x="467.3" y="10" fill="#000" class="taxonLabel">Terebratulina</text><text x="445.3" y="19.8" fill="grey" class="flag">[?]</text><text x="467.3" y="19.8" fill="#999" class="taxonLabel">Orthis</text><text x="427" y="29.6" fill="grey" class="flag">[?]</text><text x="449" y="29.6" fill="#999" class="taxonLabel">Alisina</text><text x="408.6" y="39.4" fill="grey" class="flag">[?]</text><text x="430.6" y="39.4" fill="#999" class="taxonLabel">Glyptoria</text><text x="280.2" y="303.8" fill="grey" class="flag">[?]</text><text x="302.2" y="303.8" fill="#999" class="taxonLabel">Micrina</text><text x="261.8" y="313.5" fill="grey" class="flag">[?]</text><text x="283.8" y="313.5" fill="#999" class="taxonLabel">Paterimitra</text><text x="243.5" y="323.3" fill="grey" class="flag">[?]</text><text x="265.5" y="323.3" fill="#999" class="taxonLabel">Pedunculotheca diania</text><text x="188.5" y="617.1" fill="grey" class="flag">[?]</text><text x="210.5" y="617.1" fill="#999" class="taxonLabel">Halkieria evangelista</text><text x="170.1" y="626.9" fill="grey" class="flag">[?]</text><text x="192.1" y="626.9" fill="#999" class="taxonLabel">Orthrozanclus</text><text x="151.8" y="636.7" fill="grey" class="flag">[?]</text><text x="173.8" y="636.7" fill="#999" class="taxonLabel">Dailyatia</text><text x="133.4" y="646.5" fill="grey" class="flag">[?]</text><text x="155.4" y="646.5" fill="#999" class="taxonLabel">Yilingia spiciformis</text><text x="115.1" y="656.2" fill="grey" class="flag">[?]</text><text x="137.1" y="656.2" fill="#999" class="taxonLabel">Cotyledion tylodes</text><text x="96.7" y="666" fill="grey" class="flag">[?]</text><text x="118.7" y="666" fill="#999" class="taxonLabel">Eccentrotheca</text><text x="78.4" y="675.8" fill="grey" class="flag">[?]</text><text x="100.4" y="675.8" fill="#999" class="taxonLabel">Namacalathus</text><text x="60" y="685.6" fill="#91bfdb" class="flag">[2]</text><text x="82" y="685.6" fill="#000" class="taxonLabel">Phoronis</text><text x="23.3" y="715" fill="#91bfdb" class="flag">[2]</text><text x="45.3" y="715" fill="#000" class="taxonLabel">Loxosomella</text><path d="M5,698.5V684.9H23.3M23.3,684.9V672.5H41.7M41.7,672.5V662.4H60M60,662.4V652H78.4M78.4,652V641H96.7M96.7,641V628.8H115.1M115.1,628.8V614.2H133.4M133.4,614.2V594.7H151.8M151.8,594.7V565.4H170.1M170.1,565.4V516.8H188.5M188.5,516.8V434.2H206.8M206.8,434.2V304.1H225.2M225.2,304.1V287.9H243.5M243.5,287.9V265.3H261.8M261.8,265.3V229.8H280.2M280.2,229.8V173.6H298.5M298.5,173.6V105H316.9M316.9,105V80.6H335.2M335.2,80.6V55H353.6M353.6,55V39.4H371.9M371.9,39.4V27.8H390.3M390.3,27.8V19.2H408.6M408.6,19.2V11.9H427M427,11.9V7H445.3M427,11.9V16.8H445.3M408.6,19.2V26.6H427M390.3,27.8V36.4H408.6M371.9,39.4V51.1H390.3M390.3,51.1V46.2H408.6M390.3,51.1V56H408.6M353.6,55V70.6H371.9M371.9,70.6V65.8H390.3M371.9,70.6V75.5H390.3M335.2,80.6V106.1H353.6M353.6,106.1V97.6H371.9M371.9,97.6V90.2H390.3M390.3,90.2V85.3H408.6M390.3,90.2V95.1H408.6M371.9,97.6V104.9H390.3M353.6,106.1V114.7H371.9M316.9,105V129.4H335.2M335.2,129.4V124.5H353.6M335.2,129.4V134.3H353.6M298.5,173.6V242.2H316.9M316.9,242.2V221.5H335.2M335.2,221.5V210.9H353.6M353.6,210.9V199.3H371.9M371.9,199.3V186H390.3M390.3,186V174.1H408.6M408.6,174.1V164.9H427M427,164.9V156.3H445.3M445.3,156.3V149H463.7M463.7,149V144.1H482M463.7,149V153.9H482M445.3,156.3V163.7H463.7M427,164.9V173.5H445.3M408.6,174.1V183.2H427M390.3,186V197.9H408.6M408.6,197.9V193H427M408.6,197.9V202.8H427M371.9,199.3V212.6H390.3M353.6,210.9V222.4H371.9M335.2,221.5V232.2H353.6M316.9,242.2V262.8H335.2M335.2,262.8V254.2H353.6M353.6,254.2V246.9H371.9M371.9,246.9V242H390.3M371.9,246.9V251.8H390.3M353.6,254.2V261.6H371.9M335.2,262.8V271.4H353.6M280.2,229.8V286.1H298.5M298.5,286.1V281.2H316.9M298.5,286.1V291H316.9M261.8,265.3V300.8H280.2M243.5,287.9V310.5H261.8M225.2,304.1V320.3H243.5M206.8,434.2V564.3H225.2M316.9,538.2V545.5H335.2M188.5,516.8V599.4H206.8M206.8,599.4V594.5H225.2M206.8,599.4V604.3H225.2M170.1,565.4V614.1H188.5M151.8,594.7V623.9H170.1M133.4,614.2V633.7H151.8M115.1,628.8V643.5H133.4M96.7,641V653.2H115.1M78.4,652V663H96.7M60,662.4V672.8H78.4M41.7,672.5V682.6H60M23.3,684.9V697.3H41.7M41.7,697.3V692.4H60M41.7,697.3V702.2H60M5,698.5V712H23.3" stroke="#91bfdb"></path><path d="M225.2,564.3V543.9H243.5M243.5,543.9V512.9H261.8M261.8,512.9V555.9H280.2M280.2,555.9V546.8H298.5M298.5,546.8V538.2H316.9M316.9,538.2V530.9H335.2M335.2,530.9V526H353.6M335.2,530.9V535.8H353.6M280.2,555.9V565.1H298.5M243.5,543.9V574.9H261.8M225.2,564.3V584.7H243.5" stroke="darkgrey"></path><path d="M261.8,512.9V469.8H280.2M280.2,469.8V433H298.5M298.5,433V413.5H316.9M316.9,413.5V389.2H335.2M335.2,389.2V366.2H353.6M353.6,366.2V353.4H371.9M371.9,353.4V342.4H390.3M390.3,342.4V335H408.6M408.6,335V330.1H427M408.6,335V339.9H427M390.3,342.4V349.7H408.6M371.9,353.4V364.4H390.3M390.3,364.4V359.5H408.6M390.3,364.4V369.3H408.6M353.6,366.2V379.1H371.9M335.2,389.2V412.1H353.6M353.6,412.1V401.1H371.9M371.9,401.1V393.8H390.3M390.3,393.8V388.9H408.6M390.3,393.8V398.7H408.6M371.9,401.1V408.5H390.3M353.6,412.1V423.1H371.9M371.9,423.1V418.2H390.3M371.9,423.1V428H390.3M316.9,413.5V437.8H335.2M298.5,433V452.5H316.9M316.9,452.5V447.6H335.2M316.9,452.5V457.4H335.2M280.2,469.8V506.7H298.5M298.5,506.7V497.2H316.9M316.9,497.2V488H335.2M335.2,488V479.4H353.6M353.6,479.4V472.1H371.9M371.9,472.1V467.2H390.3M371.9,472.1V477H390.3M353.6,479.4V486.8H371.9M335.2,488V496.6H353.6M316.9,497.2V506.4H335.2M298.5,506.7V516.2H316.9M298.5,546.8V555.3H316.9" stroke="#e2e2a2"></path><text x="25.3" y="687.9" class="node" fill="#4A6FE3">1</text><text x="43.7" y="675.5" class="node" fill="#C1C6E3">0.62</text><text x="62" y="665.4" class="node" fill="#4A6FE3">1</text><text x="80.4" y="655" class="node" fill="#E5D0D3">0.44</text><text x="98.7" y="644" class="node" fill="#4A6FE3">1</text><text x="117.1" y="631.8" class="node" fill="#E392A2">0.24</text><text x="135.4" y="617.2" class="node" fill="#4A6FE3">1</text><text x="153.8" y="597.7" class="node" fill="#4A6FE3">1</text><text x="172.1" y="568.4" class="node" fill="#4A6FE3">1</text><text x="190.5" y="519.8" class="node" fill="#4A6FE3">1</text><text x="208.8" y="437.2" class="node" fill="#4A6FE3">1</text><text x="227.2" y="307.1" class="node" fill="#4A6FE3">1</text><text x="245.5" y="290.9" class="node" fill="#4A6FE3">1</text><text x="263.8" y="268.3" class="node" fill="#4A6FE3">1</text><text x="282.2" y="232.8" class="node" fill="#4A6FE3">1</text><text x="300.5" y="176.6" class="node" fill="#4A6FE3">1</text><text x="318.9" y="108" class="node" fill="#4A6FE3">1</text><text x="337.2" y="83.6" class="node" fill="#768BE1">0.88</text><text x="355.6" y="58" class="node" fill="#9AA6E2">0.76</text><text x="373.9" y="42.4" class="node" fill="#768BE1">0.88</text><text x="392.3" y="30.8" class="node" fill="#627DE1">0.94</text><text x="410.6" y="22.2" class="node" fill="#627DE1">0.94</text><text x="429" y="14.9" class="node" fill="#DADBE3">0.53</text><text x="392.3" y="54.1" class="node" fill="#4A6FE3">1</text><text x="373.9" y="73.6" class="node" fill="#E6BDC5">0.38</text><text x="355.6" y="109.1" class="node" fill="#D2D4E3">0.56</text><text x="373.9" y="100.6" class="node" fill="#6D84E1">0.91</text><text x="392.3" y="93.2" class="node" fill="#4A6FE3">1</text><text x="337.2" y="132.4" class="node" fill="#4A6FE3">1</text><text x="318.9" y="245.2" class="node" fill="#4A6FE3">1</text><text x="337.2" y="224.5" class="node" fill="#4A6FE3">1</text><text x="355.6" y="213.9" class="node" fill="#4A6FE3">1</text><text x="373.9" y="202.3" class="node" fill="#4A6FE3">1</text><text x="392.3" y="189" class="node" fill="#4A6FE3">1</text><text x="410.6" y="177.1" class="node" fill="#4A6FE3">1</text><text x="429" y="167.9" class="node" fill="#E6ABB6">0.32</text><text x="447.3" y="159.3" class="node" fill="#4A6FE3">1</text><text x="465.7" y="152" class="node" fill="#4A6FE3">1</text><text x="410.6" y="200.9" class="node" fill="#4A6FE3">1</text><text x="337.2" y="265.8" class="node" fill="#4A6FE3">1</text><text x="355.6" y="257.2" class="node" fill="#4A6FE3">1</text><text x="373.9" y="249.9" class="node" fill="#4A6FE3">1</text><text x="300.5" y="289.1" class="node" fill="#4A6FE3">1</text><text x="227.2" y="567.3" class="node" fill="#4A6FE3">1</text><text x="245.5" y="546.9" class="node" fill="#4A6FE3">1</text><text x="263.8" y="515.9" class="node" fill="#D2D4E3">0.56</text><text x="282.2" y="472.8" class="node" fill="#4A6FE3">1</text><text x="300.5" y="436" class="node" fill="#4A6FE3">1</text><text x="318.9" y="416.5" class="node" fill="#627DE1">0.94</text><text x="337.2" y="392.2" class="node" fill="#627DE1">0.94</text><text x="355.6" y="369.2" class="node" fill="#4A6FE3">1</text><text x="373.9" y="356.4" class="node" fill="#E5D0D3">0.44</text><text x="392.3" y="345.4" class="node" fill="#4A6FE3">1</text><text x="410.6" y="338" class="node" fill="#E5D0D3">0.44</text><text x="392.3" y="367.4" class="node" fill="#4A6FE3">1</text><text x="355.6" y="415.1" class="node" fill="#4A6FE3">1</text><text x="373.9" y="404.1" class="node" fill="#4A6FE3">1</text><text x="392.3" y="396.8" class="node" fill="#4A6FE3">1</text><text x="373.9" y="426.1" class="node" fill="#4A6FE3">1</text><text x="318.9" y="455.5" class="node" fill="#4A6FE3">1</text><text x="300.5" y="509.7" class="node" fill="#4A6FE3">1</text><text x="318.9" y="500.2" class="node" fill="#E6B4BD">0.35</text><text x="337.2" y="491" class="node" fill="#DB617F">0.09</text><text x="355.6" y="482.4" class="node" fill="#CACDE3">0.59</text><text x="373.9" y="475.1" class="node" fill="#E2899B">0.21</text><text x="282.2" y="558.9" class="node" fill="#4A6FE3">1</text><text x="300.5" y="549.8" class="node" fill="#4A6FE3">1</text><text x="318.9" y="541.2" class="node" fill="#CACDE3">0.59</text><text x="337.2" y="533.9" class="node" fill="#E4D9DB">0.47</text><text x="208.8" y="602.4" class="node" fill="#4A6FE3">1</text><text x="43.7" y="700.3" class="node" fill="#4A6FE3">1</text></svg>
