<svg xmlns="http://www.w3.org/2000/svg" version="1.1" viewBox="0 0 682 720" preserveAspectRatio="xMidYMid meet" class="tree" data-char="45"><text x="678" y="12.7" text-anchor="end" class="stepsLabel">Character adds <tspan class="score">1</tspan> to tree score</text><text x="678" y="22.4" text-anchor="end" class="stepsLabel"><tspan class="score">0</tspan> additional regions</text><text x="678" y="32.1" text-anchor="end" class="stepsLabel"></text><text x="678" y="51.5" text-anchor="end" class="stepsLabel"><tspan dy="16" fill="#34caaf">An optimal tree under:</tspan><tspan x="680" style="font-style:italic" class="notThisAn" dy="1.2em">Implied weights, k = 4.5</tspan><tspan x="680" style="font-style:italic" class="notThisAn" dy="1.2em">IW, k = 10.5</tspan><tspan x="680" style="font-style:italic" class="notThisAn" dy="1.2em">IW, k = 24</tspan><tspan x="680" style="font-style:italic" class="thisAn" dy="1.2em">Equal weights</tspan></text><text x="64.6" y="695.4" fill="#fc8d59" class="flag">[0]</text><text x="86.6" y="695.4" fill="#000" class="taxonLabel">Flustra</text><text x="64.6" y="705.2" fill="#fc8d59" class="flag">[0]</text><text x="86.6" y="705.2" fill="#000" class="taxonLabel">Amathia</text><text x="84.5" y="675.8" fill="#fc8d59" class="flag">[0]</text><text x="106.5" y="675.8" fill="#000" class="taxonLabel">Phoronis</text><text x="84.5" y="685.6" fill="grey" class="flag">[?]</text><text x="106.5" y="685.6" fill="#999" class="taxonLabel">Namacalathus</text><text x="104.4" y="656.2" fill="grey" class="flag">[?]</text><text x="126.4" y="656.2" fill="#999" class="taxonLabel">Eccentrotheca</text><text x="104.4" y="666" fill="grey" class="flag">[?]</text><text x="126.4" y="666" fill="#999" class="taxonLabel">Cotyledion tylodes</text><text x="203.8" y="597.5" fill="grey" class="flag">[?]</text><text x="225.8" y="597.5" fill="#999" class="taxonLabel">Paramicrocornus</text><text x="203.8" y="607.3" fill="grey" class="flag">[?]</text><text x="225.8" y="607.3" fill="#999" class="taxonLabel">Haplophrentis carinatus</text><text x="323" y="538.8" fill="#fc8d59" class="flag">[0]</text><text x="345" y="538.8" fill="#000" class="taxonLabel">Capitella</text><text x="323" y="548.5" fill="#fc8d59" class="flag">[0]</text><text x="345" y="548.5" fill="#000" class="taxonLabel">Canadia spinosa</text><text x="303.1" y="558.3" fill="#fc8d59" class="flag">[0]</text><text x="325.1" y="558.3" fill="#000" class="taxonLabel">Serpula</text><text x="283.2" y="568.1" fill="#fc8d59" class="flag">[0]</text><text x="305.2" y="568.1" fill="#000" class="taxonLabel">Sipunculus</text><text x="382.6" y="489.8" fill="#fc8d59" class="flag">[0]</text><text x="404.6" y="489.8" fill="#000" class="taxonLabel">Neopilina</text><text x="382.6" y="499.6" fill="#fc8d59" class="flag">[0]</text><text x="404.6" y="499.6" fill="#000" class="taxonLabel">Conocardium elongatum</text><text x="382.6" y="470.2" fill="grey" class="flag">[?]</text><text x="404.6" y="470.2" fill="#999" class="taxonLabel">Pojetaia runnegari</text><text x="382.6" y="480" fill="#fc8d59" class="flag">[0]</text><text x="404.6" y="480" fill="#000" class="taxonLabel">Haliotis</text><text x="342.9" y="509.4" fill="#fc8d59" class="flag">[0]</text><text x="364.9" y="509.4" fill="#000" class="taxonLabel">Mytilus</text><text x="323" y="519.2" fill="#fc8d59" class="flag">[0]</text><text x="345" y="519.2" fill="#000" class="taxonLabel">Dentalium</text><text x="342.9" y="450.6" fill="#fc8d59" class="flag">[0]</text><text x="364.9" y="450.6" fill="#000" class="taxonLabel">Wiwaxia corrugata</text><text x="342.9" y="460.4" fill="#fc8d59" class="flag">[0]</text><text x="364.9" y="460.4" fill="#000" class="taxonLabel">Odontogriphus omalus</text><text x="402.5" y="421.2" fill="#91bfdb" class="flag">[1]</text><text x="424.5" y="421.2" fill="#000" class="taxonLabel">Wirenia</text><text x="402.5" y="431" fill="#91bfdb" class="flag">[1]</text><text x="424.5" y="431" fill="#000" class="taxonLabel">Chaetoderma</text><text x="422.4" y="391.9" fill="grey" class="flag">[?]</text><text x="444.4" y="391.9" fill="#999" class="taxonLabel">Phthipodochiton thraivensis</text><text x="422.4" y="401.7" fill="#91bfdb" class="flag">[1]</text><text x="444.4" y="401.7" fill="#000" class="taxonLabel">Kulindroplax perissokomos</text><text x="402.5" y="411.5" fill="#91bfdb" class="flag">[1]</text><text x="424.5" y="411.5" fill="#000" class="taxonLabel">Acaenoplax hayae</text><text x="422.4" y="362.5" fill="#fc8d59" class="flag">[0]</text><text x="444.4" y="362.5" fill="#000" class="taxonLabel">Tonicella</text><text x="422.4" y="372.3" fill="#fc8d59" class="flag">[0]</text><text x="444.4" y="372.3" fill="#000" class="taxonLabel">Mopalia</text><text x="442.2" y="333.1" fill="grey" class="flag">[?]</text><text x="464.2" y="333.1" fill="#999" class="taxonLabel">Glaphurochiton carbonarius</text><text x="442.2" y="342.9" fill="#fc8d59" class="flag">[0]</text><text x="464.2" y="342.9" fill="#000" class="taxonLabel">Calvapilosa kroegeri</text><text x="422.4" y="352.7" fill="#fc8d59" class="flag">[0]</text><text x="444.4" y="352.7" fill="#000" class="taxonLabel">Leptochiton</text><text x="382.6" y="382.1" fill="grey" class="flag">[?]</text><text x="404.6" y="382.1" fill="#999" class="taxonLabel">Polysacos vickersianum</text><text x="342.9" y="440.8" fill="grey" class="flag">[?]</text><text x="364.9" y="440.8" fill="#999" class="taxonLabel">Siphogonuchites multa</text><text x="283.2" y="529" fill="grey" class="flag">[?]</text><text x="305.2" y="529" fill="#999" class="taxonLabel">Pelagiella</text><text x="243.5" y="577.9" fill="grey" class="flag">[?]</text><text x="265.5" y="577.9" fill="#999" class="taxonLabel">Bactrotheca</text><text x="223.6" y="587.7" fill="grey" class="flag">[?]</text><text x="245.6" y="587.7" fill="#999" class="taxonLabel">Cupitheca holocyclata</text><text x="303.1" y="284.2" fill="grey" class="flag">[?]</text><text x="325.1" y="284.2" fill="#999" class="taxonLabel">Mickwitzia muralensis</text><text x="303.1" y="294" fill="grey" class="flag">[?]</text><text x="325.1" y="294" fill="#999" class="taxonLabel">Heliomedusa orienta</text><text x="382.6" y="245" fill="#fc8d59" class="flag">[0]</text><text x="404.6" y="245" fill="#000" class="taxonLabel">Novocrania</text><text x="382.6" y="254.8" fill="grey" class="flag">[?]</text><text x="404.6" y="254.8" fill="#999" class="taxonLabel">Craniops</text><text x="362.8" y="264.6" fill="grey" class="flag">[?]</text><text x="384.8" y="264.6" fill="#999" class="taxonLabel">Ussunia</text><text x="342.9" y="274.4" fill="grey" class="flag">[?]</text><text x="364.9" y="274.4" fill="#999" class="taxonLabel">Gasconsia</text><text x="422.4" y="196" fill="#fc8d59" class="flag">[0]</text><text x="444.4" y="196" fill="#000" class="taxonLabel">Pelagodiscus atlanticus</text><text x="422.4" y="205.8" fill="grey" class="flag">[?]</text><text x="444.4" y="205.8" fill="#999" class="taxonLabel">Mummpikia nuda</text><text x="482" y="147.1" fill="grey" class="flag">[?]</text><text x="504" y="147.1" fill="#999" class="taxonLabel">Siphonobolus priscus</text><text x="482" y="156.9" fill="grey" class="flag">[?]</text><text x="504" y="156.9" fill="#999" class="taxonLabel">Acanthotretella spinosa</text><text x="462.1" y="166.7" fill="grey" class="flag">[?]</text><text x="484.1" y="166.7" fill="#999" class="taxonLabel">Lingulosacculus</text><text x="442.2" y="176.5" fill="grey" class="flag">[?]</text><text x="464.2" y="176.5" fill="#999" class="taxonLabel">Clupeafumosus socialis</text><text x="422.4" y="186.2" fill="grey" class="flag">[?]</text><text x="444.4" y="186.2" fill="#999" class="taxonLabel">Lingulellotreta malongensis</text><text x="382.6" y="215.6" fill="grey" class="flag">[?]</text><text x="404.6" y="215.6" fill="#999" class="taxonLabel">Botsfordia</text><text x="362.8" y="225.4" fill="grey" class="flag">[?]</text><text x="384.8" y="225.4" fill="#999" class="taxonLabel">Eoobolus</text><text x="342.9" y="235.2" fill="#fc8d59" class="flag">[0]</text><text x="364.9" y="235.2" fill="#000" class="taxonLabel">Lingula</text><text x="342.9" y="127.5" fill="grey" class="flag">[?]</text><text x="364.9" y="127.5" fill="#999" class="taxonLabel">Micromitra</text><text x="342.9" y="137.3" fill="grey" class="flag">[?]</text><text x="364.9" y="137.3" fill="#999" class="taxonLabel">Askepasma toddense</text><text x="382.6" y="98.1" fill="grey" class="flag">[?]</text><text x="404.6" y="98.1" fill="#999" class="taxonLabel">Yuganotheca elegans</text><text x="382.6" y="107.9" fill="grey" class="flag">[?]</text><text x="404.6" y="107.9" fill="#999" class="taxonLabel">Tomteluva perturbata</text><text x="402.5" y="78.5" fill="grey" class="flag">[?]</text><text x="424.5" y="78.5" fill="#999" class="taxonLabel">Coolinia pecten</text><text x="402.5" y="88.3" fill="grey" class="flag">[?]</text><text x="424.5" y="88.3" fill="#999" class="taxonLabel">Antigonambonites planus</text><text x="422.4" y="59" fill="grey" class="flag">[?]</text><text x="444.4" y="59" fill="#999" class="taxonLabel">Nisusia sulcata</text><text x="422.4" y="68.8" fill="grey" class="flag">[?]</text><text x="444.4" y="68.8" fill="#999" class="taxonLabel">Kutorgina chengjiangensis</text><text x="482" y="10" fill="#fc8d59" class="flag">[0]</text><text x="504" y="10" fill="#000" class="taxonLabel">Terebratulina</text><text x="482" y="19.8" fill="grey" class="flag">[?]</text><text x="504" y="19.8" fill="#999" class="taxonLabel">Orthis</text><text x="462.1" y="29.6" fill="grey" class="flag">[?]</text><text x="484.1" y="29.6" fill="#999" class="taxonLabel">Alisina</text><text x="442.2" y="39.4" fill="grey" class="flag">[?]</text><text x="464.2" y="39.4" fill="#999" class="taxonLabel">Longtancunella chengjiangensis</text><text x="422.4" y="49.2" fill="grey" class="flag">[?]</text><text x="444.4" y="49.2" fill="#999" class="taxonLabel">Glyptoria</text><text x="342.9" y="117.7" fill="grey" class="flag">[?]</text><text x="364.9" y="117.7" fill="#999" class="taxonLabel">Salanygolina</text><text x="263.4" y="303.8" fill="grey" class="flag">[?]</text><text x="285.4" y="303.8" fill="#999" class="taxonLabel">Micrina</text><text x="243.5" y="313.5" fill="grey" class="flag">[?]</text><text x="265.5" y="313.5" fill="#999" class="taxonLabel">Paterimitra</text><text x="223.6" y="323.3" fill="grey" class="flag">[?]</text><text x="245.6" y="323.3" fill="#999" class="taxonLabel">Pedunculotheca diania</text><text x="164" y="617.1" fill="grey" class="flag">[?]</text><text x="186" y="617.1" fill="#999" class="taxonLabel">Halkieria evangelista</text><text x="144.1" y="626.9" fill="grey" class="flag">[?]</text><text x="166.1" y="626.9" fill="#999" class="taxonLabel">Orthrozanclus</text><text x="124.2" y="636.7" fill="grey" class="flag">[?]</text><text x="146.2" y="636.7" fill="#999" class="taxonLabel">Yilingia spiciformis</text><text x="104.4" y="646.5" fill="grey" class="flag">[?]</text><text x="126.4" y="646.5" fill="#999" class="taxonLabel">Dailyatia</text><text x="24.9" y="715" fill="#fc8d59" class="flag">[0]</text><text x="46.9" y="715" fill="#000" class="taxonLabel">Loxosomella</text><path d="M5,695.5V679H24.9M24.9,679V660.6H44.8M44.8,660.6V643.5H64.6M64.6,643.5V628.9H84.5M84.5,628.9V614.3H104.4M104.4,614.3V594.9H124.2M124.2,594.9V565.9H144.1M144.1,565.9V517.8H164M164,517.8V436.1H183.9M183.9,436.1V304.4H203.8M203.8,304.4V288.5H223.6M223.6,288.5V266.4H243.5M243.5,266.4V232.1H263.4M263.4,232.1V178.1H283.2M283.2,178.1V114H303.1M303.1,114V98.5H323M323,98.5V82.3H342.9M342.9,82.3V64.7H362.8M362.8,64.7V48.9H382.6M382.6,48.9V37H402.5M402.5,37V27.8H422.4M422.4,27.8V19.2H442.2M442.2,19.2V11.9H462.1M462.1,11.9V7H482M462.1,11.9V16.8H482M442.2,19.2V26.6H462.1M422.4,27.8V36.4H442.2M402.5,37V46.2H422.4M382.6,48.9V60.9H402.5M402.5,60.9V56H422.4M402.5,60.9V65.8H422.4M362.8,64.7V80.4H382.6M382.6,80.4V75.5H402.5M382.6,80.4V85.3H402.5M342.9,82.3V100H362.8M362.8,100V95.1H382.6M362.8,100V104.9H382.6M323,98.5V114.7H342.9M303.1,114V129.4H323M323,129.4V124.5H342.9M323,129.4V134.3H342.9M283.2,178.1V242.2H303.1M303.1,242.2V221.5H323M323,221.5V210.9H342.9M342.9,210.9V199.3H362.8M362.8,199.3V186H382.6M382.6,186V174.1H402.5M402.5,174.1V164.9H422.4M422.4,164.9V156.3H442.2M442.2,156.3V149H462.1M462.1,149V144.1H482M462.1,149V153.9H482M442.2,156.3V163.7H462.1M422.4,164.9V173.5H442.2M402.5,174.1V183.2H422.4M382.6,186V197.9H402.5M402.5,197.9V193H422.4M402.5,197.9V202.8H422.4M362.8,199.3V212.6H382.6M342.9,210.9V222.4H362.8M323,221.5V232.2H342.9M303.1,242.2V262.8H323M323,262.8V254.2H342.9M342.9,254.2V246.9H362.8M362.8,246.9V242H382.6M362.8,246.9V251.8H382.6M342.9,254.2V261.6H362.8M323,262.8V271.4H342.9M263.4,232.1V286.1H283.2M283.2,286.1V281.2H303.1M283.2,286.1V291H303.1M243.5,266.4V300.8H263.4M223.6,288.5V310.5H243.5M203.8,304.4V320.3H223.6M183.9,436.1V567.8H203.8M203.8,567.8V551H223.6M223.6,551V527H243.5M243.5,527V497.5H263.4M263.4,497.5V469.1H283.2M283.2,469.1V433H303.1M303.1,433V413.5H323M323,413.5V389.2H342.9M342.9,389.2V366.2H362.8M362.8,366.2V353.4H382.6M382.6,353.4V342.4H402.5M402.5,342.4V335H422.4M422.4,335V330.1H442.2M422.4,335V339.9H442.2M402.5,342.4V349.7H422.4M382.6,353.4V364.4H402.5M402.5,364.4V359.5H422.4M402.5,364.4V369.3H422.4M362.8,366.2V379.1H382.6M323,413.5V437.8H342.9M303.1,433V452.5H323M323,452.5V447.6H342.9M323,452.5V457.4H342.9M283.2,469.1V505.2H303.1M303.1,505.2V494.1H323M323,494.1V481.9H342.9M342.9,481.9V472.1H362.8M362.8,472.1V467.2H382.6M362.8,472.1V477H382.6M342.9,481.9V491.7H362.8M362.8,491.7V486.8H382.6M362.8,491.7V496.6H382.6M323,494.1V506.4H342.9M303.1,505.2V516.2H323M263.4,497.5V526H283.2M243.5,527V556.6H263.4M263.4,556.6V548H283.2M283.2,548V540.6H303.1M303.1,540.6V535.8H323M303.1,540.6V545.5H323M283.2,548V555.3H303.1M263.4,556.6V565.1H283.2M223.6,551V574.9H243.5M203.8,567.8V584.7H223.6M164,517.8V599.4H183.9M183.9,599.4V594.5H203.8M183.9,599.4V604.3H203.8M144.1,565.9V614.1H164M124.2,594.9V623.9H144.1M104.4,614.3V633.7H124.2M84.5,628.9V643.5H104.4M64.6,643.5V658.1H84.5M84.5,658.1V653.2H104.4M84.5,658.1V663H104.4M44.8,660.6V677.7H64.6M64.6,677.7V672.8H84.5M64.6,677.7V682.6H84.5M24.9,679V697.3H44.8M44.8,697.3V692.4H64.6M44.8,697.3V702.2H64.6M5,695.5V712H24.9" stroke="#fc8d59"></path><path d="M342.9,389.2V412.1H362.8M362.8,412.1V401.1H382.6M382.6,401.1V393.8H402.5M402.5,393.8V388.9H422.4M402.5,393.8V398.7H422.4M382.6,401.1V408.5H402.5M362.8,412.1V423.1H382.6M382.6,423.1V418.2H402.5M382.6,423.1V428H402.5" stroke="#91bfdb"></path><text x="26.9" y="682" class="node" fill="#4A6FE3">1</text><text x="46.8" y="663.6" class="node" fill="#4A6FE3">1</text><text x="66.6" y="646.5" class="node" fill="#4A6FE3">1</text><text x="86.5" y="631.9" class="node" fill="#CACDE3">0.59</text><text x="106.4" y="617.3" class="node" fill="#4A6FE3">1</text><text x="126.2" y="597.9" class="node" fill="#4A6FE3">1</text><text x="146.1" y="568.9" class="node" fill="#4A6FE3">1</text><text x="166" y="520.8" class="node" fill="#4A6FE3">1</text><text x="185.9" y="439.1" class="node" fill="#4A6FE3">1</text><text x="205.8" y="307.4" class="node" fill="#4A6FE3">1</text><text x="225.6" y="291.5" class="node" fill="#4A6FE3">1</text><text x="245.5" y="269.4" class="node" fill="#4A6FE3">1</text><text x="265.4" y="235.1" class="node" fill="#4A6FE3">1</text><text x="285.2" y="181.1" class="node" fill="#4A6FE3">1</text><text x="305.1" y="117" class="node" fill="#4A6FE3">1</text><text x="325" y="101.5" class="node" fill="#DADBE3">0.53</text><text x="344.9" y="85.3" class="node" fill="#E5C7CC">0.41</text><text x="364.8" y="67.7" class="node" fill="#DD6C86">0.12</text><text x="384.6" y="51.9" class="node" fill="#DD6C86">0.12</text><text x="404.5" y="40" class="node" fill="#DD6C86">0.12</text><text x="424.4" y="30.8" class="node" fill="#627DE1">0.94</text><text x="444.2" y="22.2" class="node" fill="#627DE1">0.94</text><text x="464.1" y="14.9" class="node" fill="#DADBE3">0.53</text><text x="404.5" y="63.9" class="node" fill="#4A6FE3">1</text><text x="384.6" y="83.4" class="node" fill="#6D84E1">0.91</text><text x="364.8" y="103" class="node" fill="#4A6FE3">1</text><text x="325" y="132.4" class="node" fill="#4A6FE3">1</text><text x="305.1" y="245.2" class="node" fill="#4A6FE3">1</text><text x="325" y="224.5" class="node" fill="#4A6FE3">1</text><text x="344.9" y="213.9" class="node" fill="#4A6FE3">1</text><text x="364.8" y="202.3" class="node" fill="#4A6FE3">1</text><text x="384.6" y="189" class="node" fill="#4A6FE3">1</text><text x="404.5" y="177.1" class="node" fill="#4A6FE3">1</text><text x="424.4" y="167.9" class="node" fill="#E6ABB6">0.32</text><text x="444.2" y="159.3" class="node" fill="#4A6FE3">1</text><text x="464.1" y="152" class="node" fill="#4A6FE3">1</text><text x="404.5" y="200.9" class="node" fill="#4A6FE3">1</text><text x="325" y="265.8" class="node" fill="#4A6FE3">1</text><text x="344.9" y="257.2" class="node" fill="#4A6FE3">1</text><text x="364.8" y="249.9" class="node" fill="#4A6FE3">1</text><text x="285.2" y="289.1" class="node" fill="#4A6FE3">1</text><text x="205.8" y="570.8" class="node" fill="#4A6FE3">1</text><text x="225.6" y="554" class="node" fill="#4A6FE3">1</text><text x="245.5" y="530" class="node" fill="#929FE1">0.79</text><text x="265.4" y="500.5" class="node" fill="#D2D4E3">0.56</text><text x="285.2" y="472.1" class="node" fill="#4A6FE3">1</text><text x="305.1" y="436" class="node" fill="#4A6FE3">1</text><text x="325" y="416.5" class="node" fill="#627DE1">0.94</text><text x="344.9" y="392.2" class="node" fill="#627DE1">0.94</text><text x="364.8" y="369.2" class="node" fill="#4A6FE3">1</text><text x="384.6" y="356.4" class="node" fill="#E2899B">0.21</text><text x="404.5" y="345.4" class="node" fill="#E5D0D3">0.44</text><text x="424.4" y="338" class="node" fill="#4A6FE3">1</text><text x="404.5" y="367.4" class="node" fill="#4A6FE3">1</text><text x="364.8" y="415.1" class="node" fill="#4A6FE3">1</text><text x="384.6" y="404.1" class="node" fill="#4A6FE3">1</text><text x="404.5" y="396.8" class="node" fill="#4A6FE3">1</text><text x="384.6" y="426.1" class="node" fill="#4A6FE3">1</text><text x="325" y="455.5" class="node" fill="#4A6FE3">1</text><text x="305.1" y="508.2" class="node" fill="#4A6FE3">1</text><text x="325" y="497.1" class="node" fill="#E6B4BD">0.35</text><text x="344.9" y="484.9" class="node" fill="#DD6C86">0.12</text><text x="364.8" y="475.1" class="node" fill="#CACDE3">0.59</text><text x="364.8" y="494.7" class="node" fill="#4A6FE3">1</text><text x="265.4" y="559.6" class="node" fill="#4A6FE3">1</text><text x="285.2" y="551" class="node" fill="#CACDE3">0.59</text><text x="305.1" y="543.6" class="node" fill="#E4D9DB">0.47</text><text x="185.9" y="602.4" class="node" fill="#E59FAC">0.29</text><text x="86.5" y="661.1" class="node" fill="#E2899B">0.21</text><text x="66.6" y="680.7" class="node" fill="#4A6FE3">1</text><text x="46.8" y="700.3" class="node" fill="#4A6FE3">1</text></svg>
