<svg xmlns="http://www.w3.org/2000/svg" version="1.1" viewBox="0 0 682 720" preserveAspectRatio="xMidYMid meet" class="tree" data-char="193"><text x="678" y="12.7" text-anchor="end" class="stepsLabel">Character adds <tspan class="score">2</tspan> to tree score</text><text x="678" y="22.4" text-anchor="end" class="stepsLabel"><tspan class="score">0</tspan> additional regions</text><text x="678" y="32.1" text-anchor="end" class="stepsLabel"></text><text x="678" y="51.5" text-anchor="end" class="stepsLabel"><tspan dy="16" fill="#34caaf">An optimal tree under:</tspan><tspan x="680" style="font-style:italic" class="notThisAn" dy="1.2em">Implied weights, k = 4.5</tspan><tspan x="680" style="font-style:italic" class="notThisAn" dy="1.2em">IW, k = 10.5</tspan><tspan x="680" style="font-style:italic" class="notThisAn" dy="1.2em">IW, k = 24</tspan><tspan x="680" style="font-style:italic" class="thisAn" dy="1.2em">Equal weights</tspan></text><text x="58" y="695.4" fill="#fc8d59" class="flag">[0]</text><text x="80" y="695.4" fill="#000" class="taxonLabel">Flustra</text><text x="58" y="705.2" fill="#fc8d59" class="flag">[0]</text><text x="80" y="705.2" fill="#000" class="taxonLabel">Amathia</text><text x="75.7" y="675.8" fill="#fc8d59" class="flag">[0]</text><text x="97.7" y="675.8" fill="#000" class="taxonLabel">Phoronis</text><text x="75.7" y="685.6" fill="grey" class="flag">[?]</text><text x="97.7" y="685.6" fill="#999" class="taxonLabel">Namacalathus</text><text x="323" y="538.8" fill="#91bfdb" class="flag">[1]</text><text x="345" y="538.8" fill="#000" class="taxonLabel">Serpula</text><text x="323" y="548.5" fill="#91bfdb" class="flag">[1]</text><text x="345" y="548.5" fill="#000" class="taxonLabel">Capitella</text><text x="305.3" y="558.3" fill="grey" class="flag">[?]</text><text x="327.3" y="558.3" fill="#999" class="taxonLabel">Canadia spinosa</text><text x="287.7" y="568.1" fill="#91bfdb" class="flag">[1]</text><text x="309.7" y="568.1" fill="#000" class="taxonLabel">Sipunculus</text><text x="358.3" y="499.6" fill="grey" class="flag">[?]</text><text x="380.3" y="499.6" fill="#999" class="taxonLabel">Pojetaia runnegari</text><text x="358.3" y="509.4" fill="#91bfdb" class="flag">[1]</text><text x="380.3" y="509.4" fill="#000" class="taxonLabel">Mytilus</text><text x="376" y="470.2" fill="#fc8d59" class="flag">[0]</text><text x="398" y="470.2" fill="#000" class="taxonLabel">Neopilina</text><text x="376" y="480" fill="grey" class="flag">[?]</text><text x="398" y="480" fill="#999" class="taxonLabel">Conocardium elongatum</text><text x="358.3" y="489.8" fill="#fc8d59" class="flag">[0]</text><text x="380.3" y="489.8" fill="#000" class="taxonLabel">Haliotis</text><text x="323" y="519.2" fill="#fc8d59" class="flag">[0]</text><text x="345" y="519.2" fill="#000" class="taxonLabel">Dentalium</text><text x="305.3" y="529" fill="grey" class="flag">[?]</text><text x="327.3" y="529" fill="#999" class="taxonLabel">Pelagiella</text><text x="323" y="450.6" fill="grey" class="flag">[?]</text><text x="345" y="450.6" fill="#999" class="taxonLabel">Wiwaxia corrugata</text><text x="323" y="460.4" fill="grey" class="flag">[?]</text><text x="345" y="460.4" fill="#999" class="taxonLabel">Odontogriphus omalus</text><text x="376" y="421.2" fill="#fc8d59" class="flag">[0]</text><text x="398" y="421.2" fill="#000" class="taxonLabel">Wirenia</text><text x="376" y="431" fill="#fc8d59" class="flag">[0]</text><text x="398" y="431" fill="#000" class="taxonLabel">Chaetoderma</text><text x="393.7" y="391.9" fill="grey" class="flag">[?]</text><text x="415.7" y="391.9" fill="#999" class="taxonLabel">Phthipodochiton thraivensis</text><text x="393.7" y="401.7" fill="grey" class="flag">[?]</text><text x="415.7" y="401.7" fill="#999" class="taxonLabel">Kulindroplax perissokomos</text><text x="376" y="411.5" fill="grey" class="flag">[?]</text><text x="398" y="411.5" fill="#999" class="taxonLabel">Acaenoplax hayae</text><text x="393.7" y="362.5" fill="grey" class="flag">[?]</text><text x="415.7" y="362.5" fill="#999" class="taxonLabel">Glaphurochiton carbonarius</text><text x="393.7" y="372.3" fill="grey" class="flag">[?]</text><text x="415.7" y="372.3" fill="#999" class="taxonLabel">Calvapilosa kroegeri</text><text x="411.3" y="333.1" fill="#fc8d59" class="flag">[0]</text><text x="433.3" y="333.1" fill="#000" class="taxonLabel">Tonicella</text><text x="411.3" y="342.9" fill="#fc8d59" class="flag">[0]</text><text x="433.3" y="342.9" fill="#000" class="taxonLabel">Mopalia</text><text x="393.7" y="352.7" fill="grey" class="flag">[?]</text><text x="415.7" y="352.7" fill="#999" class="taxonLabel">Leptochiton</text><text x="358.3" y="382.1" fill="grey" class="flag">[?]</text><text x="380.3" y="382.1" fill="#999" class="taxonLabel">Polysacos vickersianum</text><text x="323" y="440.8" fill="grey" class="flag">[?]</text><text x="345" y="440.8" fill="#999" class="taxonLabel">Siphogonuchites multa</text><text x="252.3" y="577.9" fill="grey" class="flag">[?]</text><text x="274.3" y="577.9" fill="#999" class="taxonLabel">Bactrotheca</text><text x="234.7" y="587.7" fill="grey" class="flag">[?]</text><text x="256.7" y="587.7" fill="#999" class="taxonLabel">Cupitheca holocyclata</text><text x="305.3" y="284.2" fill="grey" class="flag">[?]</text><text x="327.3" y="284.2" fill="#999" class="taxonLabel">Mickwitzia muralensis</text><text x="305.3" y="294" fill="grey" class="flag">[?]</text><text x="327.3" y="294" fill="#999" class="taxonLabel">Heliomedusa orienta</text><text x="376" y="245" fill="#fc8d59" class="flag">[0]</text><text x="398" y="245" fill="#000" class="taxonLabel">Novocrania</text><text x="376" y="254.8" fill="grey" class="flag">[?]</text><text x="398" y="254.8" fill="#999" class="taxonLabel">Craniops</text><text x="358.3" y="264.6" fill="grey" class="flag">[?]</text><text x="380.3" y="264.6" fill="#999" class="taxonLabel">Ussunia</text><text x="340.7" y="274.4" fill="grey" class="flag">[?]</text><text x="362.7" y="274.4" fill="#999" class="taxonLabel">Gasconsia</text><text x="411.3" y="196" fill="grey" class="flag">[?]</text><text x="433.3" y="196" fill="#999" class="taxonLabel">Pelagodiscus atlanticus</text><text x="411.3" y="205.8" fill="grey" class="flag">[?]</text><text x="433.3" y="205.8" fill="#999" class="taxonLabel">Mummpikia nuda</text><text x="446.7" y="166.7" fill="grey" class="flag">[?]</text><text x="468.7" y="166.7" fill="#999" class="taxonLabel">Siphonobolus priscus</text><text x="446.7" y="176.5" fill="grey" class="flag">[?]</text><text x="468.7" y="176.5" fill="#999" class="taxonLabel">Acanthotretella spinosa</text><text x="446.7" y="147.1" fill="grey" class="flag">[?]</text><text x="468.7" y="147.1" fill="#999" class="taxonLabel">Lingulosacculus</text><text x="446.7" y="156.9" fill="grey" class="flag">[?]</text><text x="468.7" y="156.9" fill="#999" class="taxonLabel">Clupeafumosus socialis</text><text x="411.3" y="186.2" fill="grey" class="flag">[?]</text><text x="433.3" y="186.2" fill="#999" class="taxonLabel">Lingulellotreta malongensis</text><text x="376" y="215.6" fill="grey" class="flag">[?]</text><text x="398" y="215.6" fill="#999" class="taxonLabel">Botsfordia</text><text x="358.3" y="225.4" fill="grey" class="flag">[?]</text><text x="380.3" y="225.4" fill="#999" class="taxonLabel">Eoobolus</text><text x="340.7" y="235.2" fill="#fc8d59" class="flag">[0]</text><text x="362.7" y="235.2" fill="#000" class="taxonLabel">Lingula</text><text x="340.7" y="127.5" fill="grey" class="flag">[?]</text><text x="362.7" y="127.5" fill="#999" class="taxonLabel">Micromitra</text><text x="340.7" y="137.3" fill="grey" class="flag">[?]</text><text x="362.7" y="137.3" fill="#999" class="taxonLabel">Askepasma toddense</text><text x="376" y="98.1" fill="grey" class="flag">[?]</text><text x="398" y="98.1" fill="#999" class="taxonLabel">Yuganotheca elegans</text><text x="376" y="107.9" fill="grey" class="flag">[?]</text><text x="398" y="107.9" fill="#999" class="taxonLabel">Longtancunella chengjiangensis</text><text x="411.3" y="68.8" fill="grey" class="flag">[?]</text><text x="433.3" y="68.8" fill="#999" class="taxonLabel">Coolinia pecten</text><text x="411.3" y="78.5" fill="grey" class="flag">[?]</text><text x="433.3" y="78.5" fill="#999" class="taxonLabel">Antigonambonites planus</text><text x="482" y="10" fill="grey" class="flag">[?]</text><text x="504" y="10" fill="#999" class="taxonLabel">Terebratulina</text><text x="482" y="19.8" fill="grey" class="flag">[?]</text><text x="504" y="19.8" fill="#999" class="taxonLabel">Orthis</text><text x="464.3" y="29.6" fill="grey" class="flag">[?]</text><text x="486.3" y="29.6" fill="#999" class="taxonLabel">Alisina</text><text x="446.7" y="39.4" fill="grey" class="flag">[?]</text><text x="468.7" y="39.4" fill="#999" class="taxonLabel">Glyptoria</text><text x="429" y="49.2" fill="grey" class="flag">[?]</text><text x="451" y="49.2" fill="#999" class="taxonLabel">Nisusia sulcata</text><text x="411.3" y="59" fill="grey" class="flag">[?]</text><text x="433.3" y="59" fill="#999" class="taxonLabel">Kutorgina chengjiangensis</text><text x="376" y="88.3" fill="grey" class="flag">[?]</text><text x="398" y="88.3" fill="#999" class="taxonLabel">Tomteluva perturbata</text><text x="340.7" y="117.7" fill="grey" class="flag">[?]</text><text x="362.7" y="117.7" fill="#999" class="taxonLabel">Salanygolina</text><text x="270" y="303.8" fill="grey" class="flag">[?]</text><text x="292" y="303.8" fill="#999" class="taxonLabel">Micrina</text><text x="252.3" y="313.5" fill="grey" class="flag">[?]</text><text x="274.3" y="313.5" fill="#999" class="taxonLabel">Paterimitra</text><text x="234.7" y="323.3" fill="grey" class="flag">[?]</text><text x="256.7" y="323.3" fill="#999" class="taxonLabel">Pedunculotheca diania</text><text x="199.3" y="597.5" fill="grey" class="flag">[?]</text><text x="221.3" y="597.5" fill="#999" class="taxonLabel">Paramicrocornus</text><text x="181.7" y="607.3" fill="grey" class="flag">[?]</text><text x="203.7" y="607.3" fill="#999" class="taxonLabel">Haplophrentis carinatus</text><text x="164" y="617.1" fill="grey" class="flag">[?]</text><text x="186" y="617.1" fill="#999" class="taxonLabel">Halkieria evangelista</text><text x="146.3" y="626.9" fill="grey" class="flag">[?]</text><text x="168.3" y="626.9" fill="#999" class="taxonLabel">Orthrozanclus</text><text x="128.7" y="636.7" fill="grey" class="flag">[?]</text><text x="150.7" y="636.7" fill="#999" class="taxonLabel">Yilingia spiciformis</text><text x="111" y="646.5" fill="grey" class="flag">[?]</text><text x="133" y="646.5" fill="#999" class="taxonLabel">Dailyatia</text><text x="93.3" y="656.2" fill="grey" class="flag">[?]</text><text x="115.3" y="656.2" fill="#999" class="taxonLabel">Cotyledion tylodes</text><text x="75.7" y="666" fill="grey" class="flag">[?]</text><text x="97.7" y="666" fill="#999" class="taxonLabel">Eccentrotheca</text><text x="22.7" y="715" fill="#fc8d59" class="flag">[0]</text><text x="44.7" y="715" fill="#000" class="taxonLabel">Loxosomella</text><path d="M5,696.6V681.3H22.7M22.7,681.3V665.2H40.3M40.3,665.2V652.7H58M58,652.7V642.4H75.7M75.7,642.4V631.5H93.3M93.3,631.5V619.5H111M111,619.5V605.3H128.7M128.7,605.3V586.8H146.3M146.3,586.8V559.4H164M164,559.4V514.6H181.7M181.7,514.6V434.7H199.3M199.3,434.7V304.4H217M217,304.4V288.5H234.7M234.7,288.5V266.5H252.3M252.3,266.5V232.3H270M270,232.3V178.5H287.7M287.7,178.5V114.9H305.3M305.3,114.9V100.3H323M323,100.3V86H340.7M340.7,86V71.9H358.3M358.3,71.9V58.6H376M376,58.6V46.5H393.7M393.7,46.5V37H411.3M411.3,37V27.8H429M429,27.8V19.2H446.7M446.7,19.2V11.9H464.3M464.3,11.9V7H482M464.3,11.9V16.8H482M446.7,19.2V26.6H464.3M429,27.8V36.4H446.7M411.3,37V46.2H429M393.7,46.5V56H411.3M376,58.6V70.6H393.7M393.7,70.6V65.8H411.3M393.7,70.6V75.5H411.3M358.3,71.9V85.3H376M340.7,86V100H358.3M358.3,100V95.1H376M358.3,100V104.9H376M323,100.3V114.7H340.7M305.3,114.9V129.4H323M323,129.4V124.5H340.7M323,129.4V134.3H340.7M287.7,178.5V242.1H305.3M305.3,242.1V221.3H323M323,221.3V210.5H340.7M340.7,210.5V198.5H358.3M358.3,198.5V184.5H376M376,184.5V171H393.7M393.7,171V158.8H411.3M411.3,158.8V149H429M429,149V144.1H446.7M429,149V153.9H446.7M411.3,158.8V168.6H429M429,168.6V163.7H446.7M429,168.6V173.5H446.7M393.7,171V183.2H411.3M376,184.5V197.9H393.7M393.7,197.9V193H411.3M393.7,197.9V202.8H411.3M358.3,198.5V212.6H376M340.7,210.5V222.4H358.3M323,221.3V232.2H340.7M305.3,242.1V262.8H323M323,262.8V254.2H340.7M340.7,254.2V246.9H358.3M358.3,246.9V242H376M358.3,246.9V251.8H376M340.7,254.2V261.6H358.3M323,262.8V271.4H340.7M270,232.3V286.1H287.7M287.7,286.1V281.2H305.3M287.7,286.1V291H305.3M252.3,266.5V300.8H270M234.7,288.5V310.5H252.3M217,304.4V320.3H234.7M199.3,434.7V564.9H217M217,564.9V545.1H234.7M234.7,545.1V515.2H252.3M252.3,515.2V473.8H270M270,473.8V433H287.7M287.7,433V413.5H305.3M305.3,413.5V389.2H323M323,389.2V366.2H340.7M340.7,366.2V353.4H358.3M358.3,353.4V342.4H376M376,342.4V335H393.7M393.7,335V330.1H411.3M393.7,335V339.9H411.3M376,342.4V349.7H393.7M358.3,353.4V364.4H376M376,364.4V359.5H393.7M376,364.4V369.3H393.7M340.7,366.2V379.1H358.3M323,389.2V412.1H340.7M340.7,412.1V401.1H358.3M358.3,401.1V393.8H376M376,393.8V388.9H393.7M376,393.8V398.7H393.7M358.3,401.1V408.5H376M340.7,412.1V423.1H358.3M358.3,423.1V418.2H376M358.3,423.1V428H376M305.3,413.5V437.8H323M287.7,433V452.5H305.3M305.3,452.5V447.6H323M305.3,452.5V457.4H323M270,473.8V514.6H287.7M287.7,514.6V503.3H305.3M305.3,503.3V490.5H323M323,490.5V479.4H340.7M340.7,479.4V472.1H358.3M358.3,472.1V467.2H376M358.3,472.1V477H376M340.7,479.4V486.8H358.3M323,490.5V501.5H340.7M305.3,503.3V516.2H323M287.7,514.6V526H305.3M234.7,545.1V574.9H252.3M217,564.9V584.7H234.7M181.7,514.6V594.5H199.3M164,559.4V604.3H181.7M146.3,586.8V614.1H164M128.7,605.3V623.9H146.3M111,619.5V633.7H128.7M93.3,631.5V643.5H111M75.7,642.4V653.2H93.3M58,652.7V663H75.7M40.3,665.2V677.7H58M58,677.7V672.8H75.7M58,677.7V682.6H75.7M22.7,681.3V697.3H40.3M40.3,697.3V692.4H58M40.3,697.3V702.2H58M5,696.6V712H22.7" stroke="#fc8d59"></path><path d="M340.7,501.5V496.6H358.3" stroke="darkgrey"></path><path d="M340.7,501.5V506.4H358.3M252.3,515.2V556.6H270M270,556.6V548H287.7M287.7,548V540.6H305.3M305.3,540.6V535.8H323M305.3,540.6V545.5H323M287.7,548V555.3H305.3M270,556.6V565.1H287.7" stroke="#91bfdb"></path><text x="24.7" y="684.3" class="node" fill="#4A6FE3">1</text><text x="42.3" y="668.2" class="node" fill="#4A6FE3">1</text><text x="60" y="655.7" class="node" fill="#E5D0D3">0.44</text><text x="77.7" y="645.4" class="node" fill="#4A6FE3">1</text><text x="95.3" y="634.5" class="node" fill="#CACDE3">0.59</text><text x="113" y="622.5" class="node" fill="#4A6FE3">1</text><text x="130.7" y="608.3" class="node" fill="#4A6FE3">1</text><text x="148.3" y="589.8" class="node" fill="#4A6FE3">1</text><text x="166" y="562.4" class="node" fill="#DADBE3">0.53</text><text x="183.7" y="517.6" class="node" fill="#4A6FE3">1</text><text x="201.3" y="437.7" class="node" fill="#4A6FE3">1</text><text x="219" y="307.4" class="node" fill="#4A6FE3">1</text><text x="236.7" y="291.5" class="node" fill="#4A6FE3">1</text><text x="254.3" y="269.5" class="node" fill="#4A6FE3">1</text><text x="272" y="235.3" class="node" fill="#4A6FE3">1</text><text x="289.7" y="181.5" class="node" fill="#4A6FE3">1</text><text x="307.3" y="117.9" class="node" fill="#4A6FE3">1</text><text x="325" y="103.3" class="node" fill="#DADBE3">0.53</text><text x="342.7" y="89" class="node" fill="#D54C71">0.03</text><text x="360.3" y="74.9" class="node" fill="#768BE1">0.88</text><text x="378" y="61.6" class="node" fill="#9AA6E2">0.76</text><text x="395.7" y="49.5" class="node" fill="#E5C7CC">0.41</text><text x="413.3" y="40" class="node" fill="#768BE1">0.88</text><text x="431" y="30.8" class="node" fill="#627DE1">0.94</text><text x="448.7" y="22.2" class="node" fill="#627DE1">0.94</text><text x="466.3" y="14.9" class="node" fill="#4A6FE3">1</text><text x="395.7" y="73.6" class="node" fill="#D54C71">0.03</text><text x="360.3" y="103" class="node" fill="#4A6FE3">1</text><text x="325" y="132.4" class="node" fill="#4A6FE3">1</text><text x="307.3" y="245.1" class="node" fill="#4A6FE3">1</text><text x="325" y="224.3" class="node" fill="#4A6FE3">1</text><text x="342.7" y="213.5" class="node" fill="#4A6FE3">1</text><text x="360.3" y="201.5" class="node" fill="#4A6FE3">1</text><text x="378" y="187.5" class="node" fill="#4A6FE3">1</text><text x="395.7" y="174" class="node" fill="#4A6FE3">1</text><text x="413.3" y="161.8" class="node" fill="#E2E2E2">0.5</text><text x="431" y="152" class="node" fill="#4A6FE3">1</text><text x="431" y="171.6" class="node" fill="#4A6FE3">1</text><text x="395.7" y="200.9" class="node" fill="#4A6FE3">1</text><text x="325" y="265.8" class="node" fill="#4A6FE3">1</text><text x="342.7" y="257.2" class="node" fill="#4A6FE3">1</text><text x="360.3" y="249.9" class="node" fill="#4A6FE3">1</text><text x="289.7" y="289.1" class="node" fill="#4A6FE3">1</text><text x="219" y="567.9" class="node" fill="#4A6FE3">1</text><text x="236.7" y="548.1" class="node" fill="#4A6FE3">1</text><text x="254.3" y="518.2" class="node" fill="#929FE1">0.79</text><text x="272" y="476.8" class="node" fill="#4A6FE3">1</text><text x="289.7" y="436" class="node" fill="#4A6FE3">1</text><text x="307.3" y="416.5" class="node" fill="#627DE1">0.94</text><text x="325" y="392.2" class="node" fill="#627DE1">0.94</text><text x="342.7" y="369.2" class="node" fill="#4A6FE3">1</text><text x="360.3" y="356.4" class="node" fill="#E5D0D3">0.44</text><text x="378" y="345.4" class="node" fill="#4A6FE3">1</text><text x="395.7" y="338" class="node" fill="#E5D0D3">0.44</text><text x="378" y="367.4" class="node" fill="#4A6FE3">1</text><text x="342.7" y="415.1" class="node" fill="#4A6FE3">1</text><text x="360.3" y="404.1" class="node" fill="#4A6FE3">1</text><text x="378" y="396.8" class="node" fill="#4A6FE3">1</text><text x="360.3" y="426.1" class="node" fill="#4A6FE3">1</text><text x="307.3" y="455.5" class="node" fill="#E5D0D3">0.44</text><text x="289.7" y="517.6" class="node" fill="#4A6FE3">1</text><text x="307.3" y="506.3" class="node" fill="#4A6FE3">1</text><text x="325" y="493.5" class="node" fill="#929FE1">0.79</text><text x="342.7" y="482.4" class="node" fill="#CACDE3">0.59</text><text x="360.3" y="475.1" class="node" fill="#E6ABB6">0.32</text><text x="342.7" y="504.5" class="node" fill="#4A6FE3">1</text><text x="272" y="559.6" class="node" fill="#4A6FE3">1</text><text x="289.7" y="551" class="node" fill="#E5C7CC">0.41</text><text x="307.3" y="543.6" class="node" fill="#E2899B">0.21</text><text x="60" y="680.7" class="node" fill="#4A6FE3">1</text><text x="42.3" y="700.3" class="node" fill="#4A6FE3">1</text></svg>
