<?xml version="1.0" encoding="UTF-8" standalone="no"?>
<svg
   xmlns:dc="http://purl.org/dc/elements/1.1/"
   xmlns:cc="http://creativecommons.org/ns#"
   xmlns:rdf="http://www.w3.org/1999/02/22-rdf-syntax-ns#"
   xmlns:svg="http://www.w3.org/2000/svg"
   xmlns="http://www.w3.org/2000/svg"
   id="svg5922"
   viewBox="0 0 26.328272 26.328273"
   height="28.08349"
   width="28.08349"
   version="1.1">
  <metadata
     id="metadata8">
    <rdf:RDF>
      <cc:Work
         rdf:about="">
        <dc:format>image/svg+xml</dc:format>
        <dc:type
           rdf:resource="http://purl.org/dc/dcmitype/StillImage" />
        <dc:title></dc:title>
      </cc:Work>
    </rdf:RDF>
  </metadata>
  <defs
     id="defs5924" />
  <g
     style="fill:#009e73"
     id="layer1"
     transform="translate(-361.83586,-517.54492)">
    <path
       style="color:#000000;font-style:normal;font-variant:normal;font-weight:normal;font-stretch:normal;font-size:8px;line-height:125%;font-family:'Lucida Console';-inkscape-font-specification:'Lucida Console';text-align:end;letter-spacing:0px;word-spacing:0px;text-anchor:end;display:inline;overflow:visible;visibility:visible;fill:#009e93;fill-opacity:1;fill-rule:nonzero;marker:none;enable-background:accumulate"
       id="path5270"
       d="m 371.78742,519.38803 c 0,0 -0.1298,1.01939 -0.19559,1.4467 -0.0658,0.42732 0.0476,2.10165 0.0806,2.66044 0.0282,0.47919 0.66711,3.92251 0.85708,4.94122 0.0304,0.4371 0.0554,0.71751 0.0776,0.96064 -0.52376,0.16668 -1.03447,0.38451 -1.5301,0.5666 -0.1554,0.0211 -0.30782,0.0513 -0.46018,0.0863 -0.1062,-0.31064 -0.54806,-1.60596 -0.62126,-1.8695 -0.0822,-0.29583 -1.23098,-3.31949 -1.46107,-3.96046 -0.2301,-0.64097 -1.02105,-2.25202 -1.02105,-2.25202 0,0 -0.032,0.0974 -0.0978,0.952 -0.0658,0.85463 0.41045,3.02571 0.50908,3.4859 0.0922,0.43058 1.12324,3.71396 1.25687,4.19342 -0.42089,0.23011 -0.81352,0.51185 -1.16771,0.83121 -0.37313,-0.46301 -0.96769,-1.19972 -1.65666,-2.03344 -0.97791,-1.18333 -2.67194,-2.74385 -2.67194,-2.74385 0,0 0.0598,0.61816 0.18399,1.21374 -0.94466,-0.8171 -2.03342,-1.75733 -2.03342,-1.75733 0.21364,0.8875 1.47875,2.80342 2.00467,3.47727 0.44439,0.56939 2.29048,2.62353 2.91066,3.28168 -0.50034,0.7485 -1.07203,2.02767 -0.85134,1.38343 -0.20632,0.5137 -0.37556,0.46601 -0.31349,-0.17256 -0.51463,1.41009 -0.66071,2.90083 -0.70752,4.38899 -0.22804,1.68736 0.65634,3.3068 2.34405,3.739 0.86122,0.56606 1.75797,-0.24178 2.3757,-0.1698 1.25569,0.31134 2.69511,0.30788 3.88855,-0.20708 1.60755,0.136 3.01889,-0.69232 4.56158,-0.929 1.09428,0.1912 1.92536,-1.07906 2.72084,-1.4467 1.16165,0.28512 1.97019,-0.85612 2.60003,-1.21662 0.79005,-0.0322 0.98451,-1.06932 1.78033,-1.33164 0.24844,-1.15792 0.9631,-1.47861 0.90024,-2.69783 -0.1422,-0.76638 -0.48028,-1.50146 -1.00667,-2.05645 0.64338,-0.83904 1.86715,-2.4569 2.02195,-2.66331 0.20918,-0.27891 1.09869,-1.62502 1.09869,-1.62502 0,0 -0.66242,0.4812 -0.85997,0.67877 -0.1976,0.19756 -0.43678,0.414 -0.76218,0.71616 -0.31033,0.28816 -1.87979,2.13138 -2.09384,2.40158 -0.1682,-0.10666 -0.34769,-0.20047 -0.5407,-0.27323 0.0342,-0.0806 0.067,-0.1547 0.115,-0.26748 0.36323,-0.46623 0.80482,-1.03225 1.01527,-1.29715 0.33702,-0.42418 2.19792,-2.98217 2.43034,-3.30757 0.23244,-0.3254 0.48032,-0.73917 0.48032,-0.73917 0,0 -0.34116,0.29836 -0.45155,0.3739 -0.11041,0.0755 -0.69687,0.63946 -0.90024,0.83121 -0.18601,0.17532 -1.34933,1.47111 -1.56463,1.71131 0.1508,-0.46327 0.3077,-0.96446 0.34226,-1.02104 0.064,-0.1046 0.32788,-1.08143 0.32788,-1.08143 0,0 -0.35517,0.26344 -0.50043,0.37965 -0.1452,0.11622 -0.827,0.85813 -1.24539,1.61352 -0.41147,0.74297 -1.03204,2.09798 -1.05266,2.14273 -0.1682,-0.0957 -0.33765,-0.1839 -0.51195,-0.26748 0.6533,-0.97806 1.62909,-2.47181 1.69691,-2.53964 0.0986,-0.0986 1.24908,-1.97468 1.32304,-2.06507 0.074,-0.0904 0.80533,-1.45246 0.80533,-1.45246 0,0 -0.80327,0.82998 -0.87723,0.92037 -0.074,0.0904 -0.81396,1.035 -1.1591,1.42945 -0.32885,0.37584 -2.27693,3.14934 -2.46486,3.41686 -0.1662,-0.0647 -0.3338,-0.12984 -0.50331,-0.18694 0.004,-0.0538 0.063,-0.71771 0.115,-1.29139 0.0686,-0.10738 0.12919,-0.19832 0.1726,-0.2531 0.18899,-0.23831 2.45909,-4.15891 2.68919,-4.56157 0.23008,-0.40266 1.37192,-2.66331 1.37192,-2.66331 0,0 -0.52634,0.6159 -0.64137,0.73917 -0.11501,0.12326 -1.66118,2.12054 -2.15425,2.88477 -0.45054,0.69835 -1.14826,1.8305 -1.27699,2.03919 0.0472,-0.56938 0.082,-1.03902 0.0748,-1.09293 -0.0232,-0.17432 0.0748,-1.84404 0.0748,-2.08809 -0.012,-0.28414 0.0206,-0.60099 -0.0258,-0.8801 -0.49973,0.68566 -0.81519,2.05084 -0.97789,2.60867 -0.1582,0.5425 -0.44436,3.47771 -0.46017,3.6412 l -0.31927,0.53209 c -0.31116,-0.0759 -0.62397,-0.14402 -0.93474,-0.20996 -0.156,-0.0852 -0.31242,-0.15342 -0.4717,-0.20421 0.2032,-1.03792 0.7363,-4.47822 0.75642,-4.84055 0.0232,-0.41838 0.23298,-2.4965 0.23298,-2.4965 0,0 -0.41816,0.56955 -0.59247,0.84846 -0.17441,0.27892 -0.6859,1.75277 -0.83697,2.20601 -0.137,0.41127 -0.69099,3.54103 -0.7967,4.14165 -0.2948,0.01 -0.59377,0.0412 -0.89159,0.0748 -0.022,-0.36443 -0.14601,-2.43563 -0.161,-2.87327 -0.016,-0.47662 -0.37759,-3.81418 -0.39403,-4.11002 -0.016,-0.29583 -0.29624,-1.52723 -0.29624,-1.52723 0,0 -0.31104,0.95282 -0.49182,1.65954 -0.1808,0.70671 -0.14759,2.69413 -0.164,2.90778 -0.016,0.20631 0.18941,3.78381 0.2042,4.03811 -0.115,-10e-4 -0.2307,-0.004 -0.34514,-0.0144 -0.127,-0.0253 -0.2536,-0.0399 -0.37966,-0.0489 -0.042,-0.53258 -0.22116,-2.81705 -0.23584,-3.4485 -0.016,-0.70671 -0.72478,-3.87704 -0.72478,-3.87704 -0.2169,0.4028 -0.34508,0.94919 -0.44867,1.52148 -0.071,-0.22234 -0.14921,-0.4594 -0.17541,-0.52059 -0.0494,-0.11504 -0.49223,-1.93934 -0.55798,-2.30091 -0.0658,-0.36158 -0.36239,-1.13321 -0.36239,-1.13321 z" />
  </g>
</svg>
