<svg xmlns="http://www.w3.org/2000/svg" version="1.1" viewBox="0 0 682 720" preserveAspectRatio="xMidYMid meet" class="tree" data-char="196"><text x="678" y="12.7" text-anchor="end" class="stepsLabel">Character adds <tspan class="score">4</tspan> to tree score</text><text x="678" y="22.4" text-anchor="end" class="stepsLabel"><tspan class="score">0</tspan> additional regions</text><text x="678" y="32.1" text-anchor="end" class="stepsLabel"></text><text x="678" y="51.5" text-anchor="end" class="stepsLabel"><tspan dy="16" fill="#34caaf">An optimal tree under:</tspan><tspan x="680" style="font-style:italic" class="notThisAn" dy="1.2em">Implied weights, k = 4.5</tspan><tspan x="680" style="font-style:italic" class="notThisAn" dy="1.2em">IW, k = 10.5</tspan><tspan x="680" style="font-style:italic" class="notThisAn" dy="1.2em">IW, k = 24</tspan><tspan x="680" style="font-style:italic" class="thisAn" dy="1.2em">Equal weights</tspan></text><text x="148.1" y="675.8" fill="grey" class="flag">[?]</text><text x="170.1" y="675.8" fill="#999" class="taxonLabel">Paramicrocornus</text><text x="148.1" y="685.6" fill="grey" class="flag">[?]</text><text x="170.1" y="685.6" fill="#999" class="taxonLabel">Haplophrentis carinatus</text><text x="291.2" y="617.1" fill="#91bfdb" class="flag">[2]</text><text x="313.2" y="617.1" fill="#000" class="taxonLabel">Capitella</text><text x="291.2" y="626.9" fill="grey" class="flag">[?]</text><text x="313.2" y="626.9" fill="#999" class="taxonLabel">Canadia spinosa</text><text x="267.4" y="636.7" fill="#e2e2a2" class="flag">[1]</text><text x="289.4" y="636.7" fill="#000" class="taxonLabel">Serpula</text><text x="243.5" y="646.5" fill="#e2e2a2" class="flag">[1]</text><text x="265.5" y="646.5" fill="#000" class="taxonLabel">Sipunculus</text><text x="362.8" y="568.1" fill="#e2e2a2" class="flag">[1]</text><text x="384.8" y="568.1" fill="#000" class="taxonLabel">Neopilina</text><text x="362.8" y="577.9" fill="grey" class="flag">[?]</text><text x="384.8" y="577.9" fill="#999" class="taxonLabel">Conocardium elongatum</text><text x="362.8" y="548.5" fill="grey" class="flag">[?]</text><text x="384.8" y="548.5" fill="#999" class="taxonLabel">Pojetaia runnegari</text><text x="362.8" y="558.3" fill="#91bfdb" class="flag">[2]</text><text x="384.8" y="558.3" fill="#000" class="taxonLabel">Haliotis</text><text x="315.1" y="587.7" fill="#e2e2a2" class="flag">[1]</text><text x="337.1" y="587.7" fill="#000" class="taxonLabel">Mytilus</text><text x="291.2" y="597.5" fill="#e2e2a2" class="flag">[1]</text><text x="313.2" y="597.5" fill="#000" class="taxonLabel">Dentalium</text><text x="315.1" y="529" fill="grey" class="flag">[?]</text><text x="337.1" y="529" fill="#999" class="taxonLabel">Wiwaxia corrugata</text><text x="315.1" y="538.8" fill="grey" class="flag">[?]</text><text x="337.1" y="538.8" fill="#999" class="taxonLabel">Odontogriphus omalus</text><text x="386.6" y="499.6" fill="#91bfdb" class="flag">[2]</text><text x="408.6" y="499.6" fill="#000" class="taxonLabel">Wirenia</text><text x="386.6" y="509.4" fill="#e2e2a2" class="flag">[1]</text><text x="408.6" y="509.4" fill="#000" class="taxonLabel">Chaetoderma</text><text x="410.5" y="470.2" fill="grey" class="flag">[?]</text><text x="432.5" y="470.2" fill="#999" class="taxonLabel">Phthipodochiton thraivensis</text><text x="410.5" y="480" fill="grey" class="flag">[?]</text><text x="432.5" y="480" fill="#999" class="taxonLabel">Kulindroplax perissokomos</text><text x="386.6" y="489.8" fill="grey" class="flag">[?]</text><text x="408.6" y="489.8" fill="#999" class="taxonLabel">Acaenoplax hayae</text><text x="410.5" y="440.8" fill="#e2e2a2" class="flag">[1]</text><text x="432.5" y="440.8" fill="#000" class="taxonLabel">Tonicella</text><text x="410.5" y="450.6" fill="#e2e2a2" class="flag">[1]</text><text x="432.5" y="450.6" fill="#000" class="taxonLabel">Mopalia</text><text x="434.3" y="411.5" fill="grey" class="flag">[?]</text><text x="456.3" y="411.5" fill="#999" class="taxonLabel">Glaphurochiton carbonarius</text><text x="434.3" y="421.2" fill="grey" class="flag">[?]</text><text x="456.3" y="421.2" fill="#999" class="taxonLabel">Calvapilosa kroegeri</text><text x="410.5" y="431" fill="#e2e2a2" class="flag">[1]</text><text x="432.5" y="431" fill="#000" class="taxonLabel">Leptochiton</text><text x="362.8" y="460.4" fill="grey" class="flag">[?]</text><text x="384.8" y="460.4" fill="#999" class="taxonLabel">Polysacos vickersianum</text><text x="315.1" y="519.2" fill="grey" class="flag">[?]</text><text x="337.1" y="519.2" fill="#999" class="taxonLabel">Siphogonuchites multa</text><text x="243.5" y="607.3" fill="grey" class="flag">[?]</text><text x="265.5" y="607.3" fill="#999" class="taxonLabel">Pelagiella</text><text x="195.8" y="656.2" fill="grey" class="flag">[?]</text><text x="217.8" y="656.2" fill="#999" class="taxonLabel">Bactrotheca</text><text x="172" y="666" fill="grey" class="flag">[?]</text><text x="194" y="666" fill="#999" class="taxonLabel">Cupitheca holocyclata</text><text x="267.4" y="362.5" fill="grey" class="flag">[?]</text><text x="289.4" y="362.5" fill="#999" class="taxonLabel">Mickwitzia muralensis</text><text x="267.4" y="372.3" fill="grey" class="flag">[?]</text><text x="289.4" y="372.3" fill="#999" class="taxonLabel">Heliomedusa orienta</text><text x="362.8" y="323.3" fill="#e2e2a2" class="flag">[1]</text><text x="384.8" y="323.3" fill="#000" class="taxonLabel">Novocrania</text><text x="362.8" y="333.1" fill="grey" class="flag">[?]</text><text x="384.8" y="333.1" fill="#999" class="taxonLabel">Craniops</text><text x="338.9" y="342.9" fill="grey" class="flag">[?]</text><text x="360.9" y="342.9" fill="#999" class="taxonLabel">Ussunia</text><text x="315.1" y="352.7" fill="grey" class="flag">[?]</text><text x="337.1" y="352.7" fill="#999" class="taxonLabel">Gasconsia</text><text x="410.5" y="274.4" fill="grey" class="flag">[?]</text><text x="432.5" y="274.4" fill="#999" class="taxonLabel">Pelagodiscus atlanticus</text><text x="410.5" y="284.2" fill="grey" class="flag">[?]</text><text x="432.5" y="284.2" fill="#999" class="taxonLabel">Mummpikia nuda</text><text x="482" y="225.4" fill="grey" class="flag">[?]</text><text x="504" y="225.4" fill="#999" class="taxonLabel">Siphonobolus priscus</text><text x="482" y="235.2" fill="grey" class="flag">[?]</text><text x="504" y="235.2" fill="#999" class="taxonLabel">Acanthotretella spinosa</text><text x="458.2" y="245" fill="grey" class="flag">[?]</text><text x="480.2" y="245" fill="#999" class="taxonLabel">Lingulosacculus</text><text x="434.3" y="254.8" fill="grey" class="flag">[?]</text><text x="456.3" y="254.8" fill="#999" class="taxonLabel">Clupeafumosus socialis</text><text x="410.5" y="264.6" fill="grey" class="flag">[?]</text><text x="432.5" y="264.6" fill="#999" class="taxonLabel">Lingulellotreta malongensis</text><text x="362.8" y="294" fill="grey" class="flag">[?]</text><text x="384.8" y="294" fill="#999" class="taxonLabel">Botsfordia</text><text x="338.9" y="303.8" fill="grey" class="flag">[?]</text><text x="360.9" y="303.8" fill="#999" class="taxonLabel">Eoobolus</text><text x="315.1" y="313.5" fill="#e2e2a2" class="flag">[1]</text><text x="337.1" y="313.5" fill="#000" class="taxonLabel">Lingula</text><text x="315.1" y="205.8" fill="grey" class="flag">[?]</text><text x="337.1" y="205.8" fill="#999" class="taxonLabel">Micromitra</text><text x="315.1" y="215.6" fill="grey" class="flag">[?]</text><text x="337.1" y="215.6" fill="#999" class="taxonLabel">Askepasma toddense</text><text x="362.8" y="176.5" fill="grey" class="flag">[?]</text><text x="384.8" y="176.5" fill="#999" class="taxonLabel">Yuganotheca elegans</text><text x="362.8" y="186.2" fill="grey" class="flag">[?]</text><text x="384.8" y="186.2" fill="#999" class="taxonLabel">Tomteluva perturbata</text><text x="386.6" y="156.9" fill="grey" class="flag">[?]</text><text x="408.6" y="156.9" fill="#999" class="taxonLabel">Coolinia pecten</text><text x="386.6" y="166.7" fill="grey" class="flag">[?]</text><text x="408.6" y="166.7" fill="#999" class="taxonLabel">Antigonambonites planus</text><text x="410.5" y="137.3" fill="grey" class="flag">[?]</text><text x="432.5" y="137.3" fill="#999" class="taxonLabel">Nisusia sulcata</text><text x="410.5" y="147.1" fill="grey" class="flag">[?]</text><text x="432.5" y="147.1" fill="#999" class="taxonLabel">Kutorgina chengjiangensis</text><text x="482" y="88.3" fill="grey" class="flag">[?]</text><text x="504" y="88.3" fill="#999" class="taxonLabel">Terebratulina</text><text x="482" y="98.1" fill="grey" class="flag">[?]</text><text x="504" y="98.1" fill="#999" class="taxonLabel">Orthis</text><text x="458.2" y="107.9" fill="grey" class="flag">[?]</text><text x="480.2" y="107.9" fill="#999" class="taxonLabel">Alisina</text><text x="434.3" y="117.7" fill="grey" class="flag">[?]</text><text x="456.3" y="117.7" fill="#999" class="taxonLabel">Longtancunella chengjiangensis</text><text x="410.5" y="127.5" fill="grey" class="flag">[?]</text><text x="432.5" y="127.5" fill="#999" class="taxonLabel">Glyptoria</text><text x="315.1" y="196" fill="grey" class="flag">[?]</text><text x="337.1" y="196" fill="#999" class="taxonLabel">Salanygolina</text><text x="219.7" y="382.1" fill="grey" class="flag">[?]</text><text x="241.7" y="382.1" fill="#999" class="taxonLabel">Micrina</text><text x="195.8" y="391.9" fill="grey" class="flag">[?]</text><text x="217.8" y="391.9" fill="#999" class="taxonLabel">Paterimitra</text><text x="172" y="401.7" fill="grey" class="flag">[?]</text><text x="194" y="401.7" fill="#999" class="taxonLabel">Pedunculotheca diania</text><text x="100.4" y="695.4" fill="grey" class="flag">[?]</text><text x="122.4" y="695.4" fill="#999" class="taxonLabel">Halkieria evangelista</text><text x="76.6" y="705.2" fill="grey" class="flag">[?]</text><text x="98.6" y="705.2" fill="#999" class="taxonLabel">Orthrozanclus</text><text x="124.2" y="59" fill="grey" class="flag">[?]</text><text x="146.2" y="59" fill="#999" class="taxonLabel">Eccentrotheca</text><text x="124.2" y="68.8" fill="grey" class="flag">[?]</text><text x="146.2" y="68.8" fill="#999" class="taxonLabel">Cotyledion tylodes</text><text x="148.1" y="39.4" fill="#91bfdb" class="flag">[2]</text><text x="170.1" y="39.4" fill="#000" class="taxonLabel">Phoronis</text><text x="148.1" y="49.2" fill="grey" class="flag">[?]</text><text x="170.1" y="49.2" fill="#999" class="taxonLabel">Namacalathus</text><text x="172" y="10" fill="#91bfdb" class="flag">[2]</text><text x="194" y="10" fill="#000" class="taxonLabel">Flustra</text><text x="172" y="19.8" fill="#91bfdb" class="flag">[2]</text><text x="194" y="19.8" fill="#000" class="taxonLabel">Amathia</text><text x="148.1" y="29.6" fill="#91bfdb" class="flag">[2]</text><text x="170.1" y="29.6" fill="#000" class="taxonLabel">Loxosomella</text><text x="76.6" y="78.5" fill="grey" class="flag">[?]</text><text x="98.6" y="78.5" fill="#999" class="taxonLabel">Dailyatia</text><text x="28.9" y="715" fill="grey" class="flag">[?]</text><text x="50.9" y="715" fill="#999" class="taxonLabel">Yilingia spiciformis</text><path d="M5,539.4V366.9H28.9M28.9,366.9V60.5H52.7M52.7,60.5V45.6H76.6M76.6,45.6V60.9H100.4M100.4,60.9V56H124.2M100.4,60.9V65.8H124.2M52.7,60.5V75.5H76.6M28.9,366.9V673.2H52.7M52.7,673.2V644.3H76.6M76.6,644.3V596.1H100.4M338.9,550.4V545.5H362.8M267.4,619V623.9H291.2M100.4,596.1V677.7H124.2M124.2,677.7V672.8H148.1M124.2,677.7V682.6H148.1M76.6,644.3V692.4H100.4M52.7,673.2V702.2H76.6M5,539.4V712H28.9" stroke="darkgrey"></path><path d="M76.6,45.6V30.3H100.4M100.4,30.3V19.2H124.2M124.2,19.2V11.9H148.1M148.1,11.9V7H172M148.1,11.9V16.8H172M124.2,19.2V26.6H148.1M100.4,30.3V41.3H124.2M124.2,41.3V36.4H148.1M124.2,41.3V46.2H148.1M362.8,501.5V496.6H386.6M338.9,550.4V555.3H362.8M267.4,619V614.1H291.2" stroke="#91bfdb"></path><path d="M100.4,596.1V514.5H124.2M124.2,514.5V382.7H148.1M148.1,382.7V366.8H172M172,366.8V344.7H195.8M195.8,344.7V310.4H219.7M219.7,310.4V256.4H243.5M243.5,256.4V192.3H267.4M267.4,192.3V176.9H291.2M291.2,176.9V160.7H315.1M315.1,160.7V143H338.9M338.9,143V127.3H362.8M362.8,127.3V115.3H386.6M386.6,115.3V106.1H410.5M410.5,106.1V97.6H434.3M434.3,97.6V90.2H458.2M458.2,90.2V85.3H482M458.2,90.2V95.1H482M434.3,97.6V104.9H458.2M410.5,106.1V114.7H434.3M386.6,115.3V124.5H410.5M362.8,127.3V139.2H386.6M386.6,139.2V134.3H410.5M386.6,139.2V144.1H410.5M338.9,143V158.8H362.8M362.8,158.8V153.9H386.6M362.8,158.8V163.7H386.6M315.1,160.7V178.4H338.9M338.9,178.4V173.5H362.8M338.9,178.4V183.2H362.8M291.2,176.9V193H315.1M267.4,192.3V207.7H291.2M291.2,207.7V202.8H315.1M291.2,207.7V212.6H315.1M243.5,256.4V320.5H267.4M267.4,320.5V299.9H291.2M291.2,299.9V289.2H315.1M315.1,289.2V277.6H338.9M338.9,277.6V264.3H362.8M362.8,264.3V252.4H386.6M386.6,252.4V243.2H410.5M410.5,243.2V234.7H434.3M434.3,234.7V227.3H458.2M458.2,227.3V222.4H482M458.2,227.3V232.2H482M434.3,234.7V242H458.2M410.5,243.2V251.8H434.3M386.6,252.4V261.6H410.5M362.8,264.3V276.3H386.6M386.6,276.3V271.4H410.5M386.6,276.3V281.2H410.5M338.9,277.6V291H362.8M315.1,289.2V300.8H338.9M291.2,299.9V310.5H315.1M267.4,320.5V341.1H291.2M291.2,341.1V332.6H315.1M315.1,332.6V325.2H338.9M338.9,325.2V320.3H362.8M338.9,325.2V330.1H362.8M315.1,332.6V339.9H338.9M291.2,341.1V349.7H315.1M219.7,310.4V364.4H243.5M243.5,364.4V359.5H267.4M243.5,364.4V369.3H267.4M195.8,344.7V379.1H219.7M172,366.8V388.9H195.8M148.1,382.7V398.7H172M124.2,514.5V646.2H148.1M148.1,646.2V629.3H172M172,629.3V605.4H195.8M195.8,605.4V575.9H219.7M219.7,575.9V547.4H243.5M243.5,547.4V511.3H267.4M267.4,511.3V491.8H291.2M291.2,491.8V467.5H315.1M315.1,467.5V444.6H338.9M338.9,444.6V431.7H362.8M362.8,431.7V420.7H386.6M386.6,420.7V413.4H410.5M410.5,413.4V408.5H434.3M410.5,413.4V418.2H434.3M386.6,420.7V428H410.5M362.8,431.7V442.7H386.6M386.6,442.7V437.8H410.5M386.6,442.7V447.6H410.5M338.9,444.6V457.4H362.8M315.1,467.5V490.5H338.9M338.9,490.5V479.4H362.8M362.8,479.4V472.1H386.6M386.6,472.1V467.2H410.5M386.6,472.1V477H410.5M362.8,479.4V486.8H386.6M338.9,490.5V501.5H362.8M362.8,501.5V506.4H386.6M291.2,491.8V516.2H315.1M267.4,511.3V530.9H291.2M291.2,530.9V526H315.1M291.2,530.9V535.8H315.1M243.5,547.4V583.5H267.4M267.4,583.5V572.5H291.2M291.2,572.5V560.2H315.1M315.1,560.2V550.4H338.9M315.1,560.2V570H338.9M338.9,570V565.1H362.8M338.9,570V574.9H362.8M291.2,572.5V584.7H315.1M267.4,583.5V594.5H291.2M219.7,575.9V604.3H243.5M195.8,605.4V634.9H219.7M219.7,634.9V626.3H243.5M243.5,626.3V619H267.4M243.5,626.3V633.7H267.4M219.7,634.9V643.5H243.5M172,629.3V653.2H195.8M148.1,646.2V663H172" stroke="#e2e2a2"></path><text x="30.9" y="369.9" class="node" fill="#CACDE3">0.59</text><text x="54.7" y="63.5" class="node" fill="#6982E1">0.92</text><text x="78.6" y="48.6" class="node" fill="#5776E2">0.97</text><text x="102.4" y="33.3" class="node" fill="#5776E2">0.97</text><text x="126.2" y="22.2" class="node" fill="#4A6FE3">1</text><text x="150.1" y="14.9" class="node" fill="#E18297">0.19</text><text x="126.2" y="44.3" class="node" fill="#E5A5B1">0.3</text><text x="102.4" y="63.9" class="node" fill="#6982E1">0.92</text><text x="54.7" y="676.2" class="node" fill="#6982E1">0.92</text><text x="78.6" y="647.3" class="node" fill="#6982E1">0.92</text><text x="102.4" y="599.1" class="node" fill="#6982E1">0.92</text><text x="126.2" y="517.5" class="node" fill="#6982E1">0.92</text><text x="150.1" y="385.7" class="node" fill="#5776E2">0.97</text><text x="174" y="369.8" class="node" fill="#4A6FE3">1</text><text x="197.8" y="347.7" class="node" fill="#5776E2">0.97</text><text x="221.7" y="313.4" class="node" fill="#6982E1">0.92</text><text x="245.5" y="259.4" class="node" fill="#5776E2">0.97</text><text x="269.4" y="195.3" class="node" fill="#5776E2">0.97</text><text x="293.2" y="179.9" class="node" fill="#E3DFE0">0.49</text><text x="317.1" y="163.7" class="node" fill="#E6BDC5">0.38</text><text x="340.9" y="146" class="node" fill="#DF798F">0.16</text><text x="364.8" y="130.3" class="node" fill="#E18297">0.19</text><text x="388.6" y="118.3" class="node" fill="#E18297">0.19</text><text x="412.5" y="109.1" class="node" fill="#5F7BE1">0.95</text><text x="436.3" y="100.6" class="node" fill="#5F7BE1">0.95</text><text x="460.2" y="93.2" class="node" fill="#E0E0E2">0.51</text><text x="388.6" y="142.2" class="node" fill="#4A6FE3">1</text><text x="364.8" y="161.8" class="node" fill="#7388E1">0.89</text><text x="340.9" y="181.4" class="node" fill="#4A6FE3">1</text><text x="293.2" y="210.7" class="node" fill="#5F7BE1">0.95</text><text x="269.4" y="323.5" class="node" fill="#5F7BE1">0.95</text><text x="293.2" y="302.9" class="node" fill="#5F7BE1">0.95</text><text x="317.1" y="292.2" class="node" fill="#5F7BE1">0.95</text><text x="340.9" y="280.6" class="node" fill="#5F7BE1">0.95</text><text x="364.8" y="267.3" class="node" fill="#5F7BE1">0.95</text><text x="388.6" y="255.4" class="node" fill="#4A6FE3">1</text><text x="412.5" y="246.2" class="node" fill="#E6B4BD">0.35</text><text x="436.3" y="237.7" class="node" fill="#4A6FE3">1</text><text x="460.2" y="230.3" class="node" fill="#5F7BE1">0.95</text><text x="388.6" y="279.3" class="node" fill="#5F7BE1">0.95</text><text x="293.2" y="344.1" class="node" fill="#4A6FE3">1</text><text x="317.1" y="335.6" class="node" fill="#4A6FE3">1</text><text x="340.9" y="328.2" class="node" fill="#5F7BE1">0.95</text><text x="245.5" y="367.4" class="node" fill="#6982E1">0.92</text><text x="150.1" y="649.2" class="node" fill="#6982E1">0.92</text><text x="174" y="632.3" class="node" fill="#5F7BE1">0.95</text><text x="197.8" y="608.4" class="node" fill="#8C9BE1">0.81</text><text x="221.7" y="578.9" class="node" fill="#E0E0E2">0.51</text><text x="245.5" y="550.4" class="node" fill="#5F7BE1">0.95</text><text x="269.4" y="514.3" class="node" fill="#5F7BE1">0.95</text><text x="293.2" y="494.8" class="node" fill="#7D8FE1">0.86</text><text x="317.1" y="470.5" class="node" fill="#5F7BE1">0.95</text><text x="340.9" y="447.6" class="node" fill="#6982E1">0.92</text><text x="364.8" y="434.7" class="node" fill="#E18297">0.19</text><text x="388.6" y="423.7" class="node" fill="#E5C7CC">0.41</text><text x="412.5" y="416.4" class="node" fill="#4A6FE3">1</text><text x="388.6" y="445.7" class="node" fill="#6982E1">0.92</text><text x="340.9" y="493.5" class="node" fill="#6982E1">0.92</text><text x="364.8" y="482.4" class="node" fill="#6982E1">0.92</text><text x="388.6" y="475.1" class="node" fill="#5776E2">0.97</text><text x="364.8" y="504.5" class="node" fill="#4A6FE3">1</text><text x="293.2" y="533.9" class="node" fill="#4A6FE3">1</text><text x="269.4" y="586.5" class="node" fill="#5F7BE1">0.95</text><text x="293.2" y="575.5" class="node" fill="#E6ABB6">0.32</text><text x="317.1" y="563.2" class="node" fill="#DC6884">0.11</text><text x="340.9" y="553.4" class="node" fill="#CACDE3">0.59</text><text x="340.9" y="573" class="node" fill="#4A6FE3">1</text><text x="221.7" y="637.9" class="node" fill="#4A6FE3">1</text><text x="245.5" y="629.3" class="node" fill="#D7D9E3">0.54</text><text x="269.4" y="622" class="node" fill="#E0E0E2">0.51</text><text x="126.2" y="680.7" class="node" fill="#CACDE3">0.59</text></svg>
