<svg xmlns="http://www.w3.org/2000/svg" version="1.1" viewBox="0 0 682 720" preserveAspectRatio="xMidYMid meet" class="tree" data-char="315"><text x="678" y="12.7" text-anchor="end" class="stepsLabel">Character adds <tspan class="score">1</tspan> to tree score</text><text x="678" y="22.4" text-anchor="end" class="stepsLabel"><tspan class="score">0</tspan> additional regions</text><text x="678" y="32.1" text-anchor="end" class="stepsLabel"></text><text x="678" y="51.5" text-anchor="end" class="stepsLabel"><tspan dy="16" fill="#34caaf">An optimal tree under:</tspan><tspan x="680" style="font-style:italic" class="notThisAn" dy="1.2em">Implied weights, k = 4.5</tspan><tspan x="680" style="font-style:italic" class="notThisAn" dy="1.2em">IW, k = 10.5</tspan><tspan x="680" style="font-style:italic" class="notThisAn" dy="1.2em">IW, k = 24</tspan><tspan x="680" style="font-style:italic" class="thisAn" dy="1.2em">Equal weights</tspan></text><text x="308.5" y="607.3" fill="#91bfdb" class="flag">[1]</text><text x="330.5" y="607.3" fill="#000" class="taxonLabel">Capitella</text><text x="308.5" y="617.1" fill="grey" class="flag">[?]</text><text x="330.5" y="617.1" fill="#999" class="taxonLabel">Canadia spinosa</text><text x="286.9" y="626.9" fill="grey" class="flag">[?]</text><text x="308.9" y="626.9" fill="#999" class="taxonLabel">Serpula</text><text x="265.2" y="636.7" fill="#91bfdb" class="flag">[1]</text><text x="287.2" y="636.7" fill="#000" class="taxonLabel">Sipunculus</text><text x="395.3" y="538.8" fill="#fc8d59" class="flag">[0]</text><text x="417.3" y="538.8" fill="#000" class="taxonLabel">Haliotis</text><text x="395.3" y="548.5" fill="grey" class="flag">[?]</text><text x="417.3" y="548.5" fill="#999" class="taxonLabel">Conocardium elongatum</text><text x="373.6" y="558.3" fill="grey" class="flag">[?]</text><text x="395.6" y="558.3" fill="#999" class="taxonLabel">Neopilina</text><text x="351.9" y="568.1" fill="grey" class="flag">[?]</text><text x="373.9" y="568.1" fill="#999" class="taxonLabel">Mytilus</text><text x="330.2" y="577.9" fill="grey" class="flag">[?]</text><text x="352.2" y="577.9" fill="#999" class="taxonLabel">Pojetaia runnegari</text><text x="308.5" y="587.7" fill="grey" class="flag">[?]</text><text x="330.5" y="587.7" fill="#999" class="taxonLabel">Dentalium</text><text x="286.9" y="597.5" fill="grey" class="flag">[?]</text><text x="308.9" y="597.5" fill="#999" class="taxonLabel">Pelagiella</text><text x="308.5" y="519.2" fill="grey" class="flag">[?]</text><text x="330.5" y="519.2" fill="#999" class="taxonLabel">Wiwaxia corrugata</text><text x="308.5" y="529" fill="grey" class="flag">[?]</text><text x="330.5" y="529" fill="#999" class="taxonLabel">Odontogriphus omalus</text><text x="373.6" y="489.8" fill="grey" class="flag">[?]</text><text x="395.6" y="489.8" fill="#999" class="taxonLabel">Wirenia</text><text x="373.6" y="499.6" fill="#fc8d59" class="flag">[0]</text><text x="395.6" y="499.6" fill="#000" class="taxonLabel">Chaetoderma</text><text x="395.3" y="460.4" fill="grey" class="flag">[?]</text><text x="417.3" y="460.4" fill="#999" class="taxonLabel">Phthipodochiton thraivensis</text><text x="395.3" y="470.2" fill="grey" class="flag">[?]</text><text x="417.3" y="470.2" fill="#999" class="taxonLabel">Kulindroplax perissokomos</text><text x="373.6" y="480" fill="grey" class="flag">[?]</text><text x="395.6" y="480" fill="#999" class="taxonLabel">Acaenoplax hayae</text><text x="395.3" y="431" fill="grey" class="flag">[?]</text><text x="417.3" y="431" fill="#999" class="taxonLabel">Tonicella</text><text x="395.3" y="440.8" fill="grey" class="flag">[?]</text><text x="417.3" y="440.8" fill="#999" class="taxonLabel">Mopalia</text><text x="417" y="401.7" fill="grey" class="flag">[?]</text><text x="439" y="401.7" fill="#999" class="taxonLabel">Glaphurochiton carbonarius</text><text x="417" y="411.5" fill="grey" class="flag">[?]</text><text x="439" y="411.5" fill="#999" class="taxonLabel">Calvapilosa kroegeri</text><text x="395.3" y="421.2" fill="grey" class="flag">[?]</text><text x="417.3" y="421.2" fill="#999" class="taxonLabel">Leptochiton</text><text x="351.9" y="450.6" fill="grey" class="flag">[?]</text><text x="373.9" y="450.6" fill="#999" class="taxonLabel">Polysacos vickersianum</text><text x="308.5" y="509.4" fill="grey" class="flag">[?]</text><text x="330.5" y="509.4" fill="#999" class="taxonLabel">Siphogonuchites multa</text><text x="221.8" y="646.5" fill="grey" class="flag">[?]</text><text x="243.8" y="646.5" fill="#999" class="taxonLabel">Bactrotheca</text><text x="200.1" y="656.2" fill="grey" class="flag">[?]</text><text x="222.1" y="656.2" fill="#999" class="taxonLabel">Cupitheca holocyclata</text><text x="286.9" y="352.7" fill="grey" class="flag">[?]</text><text x="308.9" y="352.7" fill="#999" class="taxonLabel">Mickwitzia muralensis</text><text x="286.9" y="362.5" fill="grey" class="flag">[?]</text><text x="308.9" y="362.5" fill="#999" class="taxonLabel">Heliomedusa orienta</text><text x="373.6" y="313.5" fill="grey" class="flag">[?]</text><text x="395.6" y="313.5" fill="#999" class="taxonLabel">Novocrania</text><text x="373.6" y="323.3" fill="grey" class="flag">[?]</text><text x="395.6" y="323.3" fill="#999" class="taxonLabel">Craniops</text><text x="351.9" y="333.1" fill="grey" class="flag">[?]</text><text x="373.9" y="333.1" fill="#999" class="taxonLabel">Ussunia</text><text x="330.2" y="342.9" fill="grey" class="flag">[?]</text><text x="352.2" y="342.9" fill="#999" class="taxonLabel">Gasconsia</text><text x="417" y="264.6" fill="grey" class="flag">[?]</text><text x="439" y="264.6" fill="#999" class="taxonLabel">Pelagodiscus atlanticus</text><text x="417" y="274.4" fill="grey" class="flag">[?]</text><text x="439" y="274.4" fill="#999" class="taxonLabel">Mummpikia nuda</text><text x="460.3" y="235.2" fill="grey" class="flag">[?]</text><text x="482.3" y="235.2" fill="#999" class="taxonLabel">Siphonobolus priscus</text><text x="460.3" y="245" fill="grey" class="flag">[?]</text><text x="482.3" y="245" fill="#999" class="taxonLabel">Acanthotretella spinosa</text><text x="460.3" y="215.6" fill="grey" class="flag">[?]</text><text x="482.3" y="215.6" fill="#999" class="taxonLabel">Lingulosacculus</text><text x="460.3" y="225.4" fill="grey" class="flag">[?]</text><text x="482.3" y="225.4" fill="#999" class="taxonLabel">Clupeafumosus socialis</text><text x="417" y="254.8" fill="grey" class="flag">[?]</text><text x="439" y="254.8" fill="#999" class="taxonLabel">Lingulellotreta malongensis</text><text x="373.6" y="284.2" fill="grey" class="flag">[?]</text><text x="395.6" y="284.2" fill="#999" class="taxonLabel">Botsfordia</text><text x="351.9" y="294" fill="grey" class="flag">[?]</text><text x="373.9" y="294" fill="#999" class="taxonLabel">Eoobolus</text><text x="330.2" y="303.8" fill="grey" class="flag">[?]</text><text x="352.2" y="303.8" fill="#999" class="taxonLabel">Lingula</text><text x="330.2" y="196" fill="grey" class="flag">[?]</text><text x="352.2" y="196" fill="#999" class="taxonLabel">Micromitra</text><text x="330.2" y="205.8" fill="grey" class="flag">[?]</text><text x="352.2" y="205.8" fill="#999" class="taxonLabel">Askepasma toddense</text><text x="395.3" y="156.9" fill="grey" class="flag">[?]</text><text x="417.3" y="156.9" fill="#999" class="taxonLabel">Yuganotheca elegans</text><text x="395.3" y="166.7" fill="grey" class="flag">[?]</text><text x="417.3" y="166.7" fill="#999" class="taxonLabel">Tomteluva perturbata</text><text x="373.6" y="176.5" fill="grey" class="flag">[?]</text><text x="395.6" y="176.5" fill="#999" class="taxonLabel">Longtancunella chengjiangensis</text><text x="395.3" y="137.3" fill="grey" class="flag">[?]</text><text x="417.3" y="137.3" fill="#999" class="taxonLabel">Coolinia pecten</text><text x="395.3" y="147.1" fill="grey" class="flag">[?]</text><text x="417.3" y="147.1" fill="#999" class="taxonLabel">Antigonambonites planus</text><text x="482" y="78.5" fill="grey" class="flag">[?]</text><text x="504" y="78.5" fill="#999" class="taxonLabel">Terebratulina</text><text x="482" y="88.3" fill="grey" class="flag">[?]</text><text x="504" y="88.3" fill="#999" class="taxonLabel">Orthis</text><text x="460.3" y="98.1" fill="grey" class="flag">[?]</text><text x="482.3" y="98.1" fill="#999" class="taxonLabel">Alisina</text><text x="438.6" y="107.9" fill="grey" class="flag">[?]</text><text x="460.6" y="107.9" fill="#999" class="taxonLabel">Glyptoria</text><text x="417" y="117.7" fill="grey" class="flag">[?]</text><text x="439" y="117.7" fill="#999" class="taxonLabel">Nisusia sulcata</text><text x="395.3" y="127.5" fill="grey" class="flag">[?]</text><text x="417.3" y="127.5" fill="#999" class="taxonLabel">Kutorgina chengjiangensis</text><text x="330.2" y="186.2" fill="grey" class="flag">[?]</text><text x="352.2" y="186.2" fill="#999" class="taxonLabel">Salanygolina</text><text x="243.5" y="372.3" fill="grey" class="flag">[?]</text><text x="265.5" y="372.3" fill="#999" class="taxonLabel">Micrina</text><text x="221.8" y="382.1" fill="grey" class="flag">[?]</text><text x="243.8" y="382.1" fill="#999" class="taxonLabel">Paterimitra</text><text x="200.1" y="391.9" fill="grey" class="flag">[?]</text><text x="222.1" y="391.9" fill="#999" class="taxonLabel">Pedunculotheca diania</text><text x="156.8" y="666" fill="grey" class="flag">[?]</text><text x="178.8" y="666" fill="#999" class="taxonLabel">Paramicrocornus</text><text x="135.1" y="675.8" fill="grey" class="flag">[?]</text><text x="157.1" y="675.8" fill="#999" class="taxonLabel">Haplophrentis carinatus</text><text x="113.4" y="685.6" fill="grey" class="flag">[?]</text><text x="135.4" y="685.6" fill="#999" class="taxonLabel">Halkieria evangelista</text><text x="91.7" y="695.4" fill="grey" class="flag">[?]</text><text x="113.7" y="695.4" fill="#999" class="taxonLabel">Orthrozanclus</text><text x="70" y="705.2" fill="grey" class="flag">[?]</text><text x="92" y="705.2" fill="#999" class="taxonLabel">Dailyatia</text><text x="178.5" y="10" fill="grey" class="flag">[?]</text><text x="200.5" y="10" fill="#999" class="taxonLabel">Flustra</text><text x="178.5" y="19.8" fill="grey" class="flag">[?]</text><text x="200.5" y="19.8" fill="#999" class="taxonLabel">Amathia</text><text x="156.8" y="29.6" fill="grey" class="flag">[?]</text><text x="178.8" y="29.6" fill="#999" class="taxonLabel">Loxosomella</text><text x="135.1" y="39.4" fill="#fc8d59" class="flag">[0]</text><text x="157.1" y="39.4" fill="#000" class="taxonLabel">Phoronis</text><text x="113.4" y="49.2" fill="grey" class="flag">[?]</text><text x="135.4" y="49.2" fill="#999" class="taxonLabel">Namacalathus</text><text x="91.7" y="59" fill="grey" class="flag">[?]</text><text x="113.7" y="59" fill="#999" class="taxonLabel">Eccentrotheca</text><text x="70" y="68.8" fill="grey" class="flag">[?]</text><text x="92" y="68.8" fill="#999" class="taxonLabel">Cotyledion tylodes</text><text x="26.7" y="715" fill="grey" class="flag">[?]</text><text x="48.7" y="715" fill="#999" class="taxonLabel">Yilingia spiciformis</text><path d="M5,542V372.1H26.7M26.7,372.1V56.1H48.4M48.4,56.1V46.5H70M70,46.5V37H91.7M91.7,37V27.8H113.4M113.4,27.8V19.2H135.1M135.1,19.2V11.9H156.8M156.8,11.9V7H178.5M156.8,11.9V16.8H178.5M135.1,19.2V26.6H156.8M113.4,27.8V36.4H135.1M91.7,37V46.2H113.4M70,46.5V56H91.7M48.4,56.1V65.8H70M26.7,372.1V688H48.4M48.4,688V673.9H70M70,673.9V655.3H91.7M91.7,655.3V628H113.4M113.4,628V583.1H135.1M135.1,583.1V503.2H156.8M156.8,503.2V372.9H178.5M178.5,372.9V356.9H200.1M200.1,356.9V334.8H221.8M221.8,334.8V300.3H243.5M243.5,300.3V246H265.2M265.2,246V181.4H286.9M286.9,181.4V164.9H308.5M308.5,164.9V146.6H330.2M330.2,146.6V127.1H351.9M351.9,127.1V115H373.6M373.6,115V105.5H395.3M395.3,105.5V96.3H417M417,96.3V87.8H438.6M438.6,87.8V80.4H460.3M460.3,80.4V75.5H482M460.3,80.4V85.3H482M438.6,87.8V95.1H460.3M417,96.3V104.9H438.6M395.3,105.5V114.7H417M373.6,115V124.5H395.3M351.9,127.1V139.2H373.6M373.6,139.2V134.3H395.3M373.6,139.2V144.1H395.3M330.2,146.6V166.1H351.9M351.9,166.1V158.8H373.6M373.6,158.8V153.9H395.3M373.6,158.8V163.7H395.3M351.9,166.1V173.5H373.6M308.5,164.9V183.2H330.2M286.9,181.4V197.9H308.5M308.5,197.9V193H330.2M308.5,197.9V202.8H330.2M265.2,246V310.6H286.9M286.9,310.6V289.9H308.5M308.5,289.9V279H330.2M330.2,279V267.1H351.9M351.9,267.1V253H373.6M373.6,253V239.6H395.3M395.3,239.6V227.3H417M417,227.3V217.5H438.6M438.6,217.5V212.6H460.3M438.6,217.5V222.4H460.3M417,227.3V237.1H438.6M438.6,237.1V232.2H460.3M438.6,237.1V242H460.3M395.3,239.6V251.8H417M373.6,253V266.5H395.3M395.3,266.5V261.6H417M395.3,266.5V271.4H417M351.9,267.1V281.2H373.6M330.2,279V291H351.9M308.5,289.9V300.8H330.2M286.9,310.6V331.3H308.5M308.5,331.3V322.8H330.2M330.2,322.8V315.4H351.9M351.9,315.4V310.5H373.6M351.9,315.4V320.3H373.6M330.2,322.8V330.1H351.9M308.5,331.3V339.9H330.2M243.5,300.3V354.6H265.2M265.2,354.6V349.7H286.9M265.2,354.6V359.5H286.9M221.8,334.8V369.3H243.5M200.1,356.9V379.1H221.8M178.5,372.9V388.9H200.1M156.8,503.2V633.5H178.5M178.5,633.5V613.8H200.1M200.1,613.8V584.2H221.8M221.8,584.2V543.2H243.5M243.5,543.2V501.6H265.2M265.2,501.6V482H286.9M286.9,482V457.7H308.5M308.5,457.7V434.8H330.2M330.2,434.8V421.9H351.9M351.9,421.9V410.9H373.6M373.6,410.9V403.6H395.3M395.3,403.6V398.7H417M395.3,403.6V408.5H417M373.6,410.9V418.2H395.3M351.9,421.9V432.9H373.6M373.6,432.9V428H395.3M373.6,432.9V437.8H395.3M330.2,434.8V447.6H351.9M308.5,457.7V480.7H330.2M330.2,480.7V469.7H351.9M351.9,469.7V462.3H373.6M373.6,462.3V457.4H395.3M373.6,462.3V467.2H395.3M351.9,469.7V477H373.6M330.2,480.7V491.7H351.9M351.9,491.7V486.8H373.6M351.9,491.7V496.6H373.6M286.9,482V506.4H308.5M265.2,501.6V521.1H286.9M286.9,521.1V516.2H308.5M286.9,521.1V526H308.5M243.5,543.2V584.9H265.2M265.2,584.9V575.2H286.9M286.9,575.2V565.7H308.5M308.5,565.7V556.6H330.2M330.2,556.6V548H351.9M351.9,548V540.6H373.6M373.6,540.6V535.8H395.3M373.6,540.6V545.5H395.3M351.9,548V555.3H373.6M330.2,556.6V565.1H351.9M308.5,565.7V574.9H330.2M286.9,575.2V584.7H308.5M265.2,584.9V594.5H286.9M200.1,613.8V643.5H221.8M178.5,633.5V653.2H200.1M135.1,583.1V663H156.8M113.4,628V672.8H135.1M91.7,655.3V682.6H113.4M70,673.9V692.4H91.7M48.4,688V702.2H70M5,542V712H26.7" stroke="#fc8d59"></path><path d="M221.8,584.2V625.1H243.5M243.5,625.1V616.5H265.2M265.2,616.5V609.2H286.9M286.9,609.2V604.3H308.5M286.9,609.2V614.1H308.5M265.2,616.5V623.9H286.9M243.5,625.1V633.7H265.2" stroke="#91bfdb"></path><text x="28.7" y="375.1" class="node" fill="#C7CBE3">0.6</text><text x="50.4" y="59.1" class="node" fill="#E498A7">0.26</text><text x="72" y="49.5" class="node" fill="#C7CBE3">0.6</text><text x="93.7" y="40" class="node" fill="#E6BAC2">0.37</text><text x="115.4" y="30.8" class="node" fill="#C7CBE3">0.6</text><text x="137.1" y="22.2" class="node" fill="#4A6FE3">1</text><text x="158.8" y="14.9" class="node" fill="#DE728B">0.14</text><text x="50.4" y="691" class="node" fill="#C7CBE3">0.6</text><text x="72" y="676.9" class="node" fill="#C7CBE3">0.6</text><text x="93.7" y="658.3" class="node" fill="#C7CBE3">0.6</text><text x="115.4" y="631" class="node" fill="#E6ABB6">0.32</text><text x="137.1" y="586.1" class="node" fill="#C7CBE3">0.6</text><text x="158.8" y="506.2" class="node" fill="#C7CBE3">0.6</text><text x="180.5" y="375.9" class="node" fill="#C7CBE3">0.6</text><text x="202.1" y="359.9" class="node" fill="#4A6FE3">1</text><text x="223.8" y="337.8" class="node" fill="#C7CBE3">0.6</text><text x="245.5" y="303.3" class="node" fill="#C7CBE3">0.6</text><text x="267.2" y="249" class="node" fill="#C7CBE3">0.6</text><text x="288.9" y="184.4" class="node" fill="#C7CBE3">0.6</text><text x="310.5" y="167.9" class="node" fill="#E6ABB6">0.32</text><text x="332.2" y="149.6" class="node" fill="#DADBE3">0.53</text><text x="353.9" y="130.1" class="node" fill="#E4D6D8">0.46</text><text x="375.6" y="118" class="node" fill="#E495A5">0.25</text><text x="397.3" y="108.5" class="node" fill="#DADBE3">0.53</text><text x="419" y="99.3" class="node" fill="#5B78E2">0.96</text><text x="440.6" y="90.8" class="node" fill="#5B78E2">0.96</text><text x="462.3" y="83.4" class="node" fill="#4A6FE3">1</text><text x="375.6" y="142.2" class="node" fill="#E6AEB8">0.33</text><text x="353.9" y="169.1" class="node" fill="#D7D9E3">0.54</text><text x="375.6" y="161.8" class="node" fill="#4A6FE3">1</text><text x="310.5" y="200.9" class="node" fill="#4A6FE3">1</text><text x="288.9" y="313.6" class="node" fill="#4A6FE3">1</text><text x="310.5" y="292.9" class="node" fill="#4A6FE3">1</text><text x="332.2" y="282" class="node" fill="#4A6FE3">1</text><text x="353.9" y="270.1" class="node" fill="#4A6FE3">1</text><text x="375.6" y="256" class="node" fill="#4A6FE3">1</text><text x="397.3" y="242.6" class="node" fill="#4A6FE3">1</text><text x="419" y="230.3" class="node" fill="#E6C1C7">0.39</text><text x="440.6" y="220.5" class="node" fill="#4A6FE3">1</text><text x="440.6" y="240.1" class="node" fill="#4A6FE3">1</text><text x="397.3" y="269.5" class="node" fill="#4A6FE3">1</text><text x="310.5" y="334.3" class="node" fill="#4A6FE3">1</text><text x="332.2" y="325.8" class="node" fill="#4A6FE3">1</text><text x="353.9" y="318.4" class="node" fill="#4A6FE3">1</text><text x="267.2" y="357.6" class="node" fill="#C7CBE3">0.6</text><text x="180.5" y="636.5" class="node" fill="#C7CBE3">0.6</text><text x="202.1" y="616.8" class="node" fill="#4A6FE3">1</text><text x="223.8" y="587.2" class="node" fill="#768BE1">0.88</text><text x="245.5" y="546.2" class="node" fill="#C4C9E3">0.61</text><text x="267.2" y="504.6" class="node" fill="#4A6FE3">1</text><text x="288.9" y="485" class="node" fill="#D2D4E3">0.56</text><text x="310.5" y="460.7" class="node" fill="#5B78E2">0.96</text><text x="332.2" y="437.8" class="node" fill="#C7CBE3">0.6</text><text x="353.9" y="424.9" class="node" fill="#DD6C86">0.12</text><text x="375.6" y="413.9" class="node" fill="#E498A7">0.26</text><text x="397.3" y="406.6" class="node" fill="#4A6FE3">1</text><text x="375.6" y="435.9" class="node" fill="#5374E2">0.98</text><text x="332.2" y="483.7" class="node" fill="#C7CBE3">0.6</text><text x="353.9" y="472.7" class="node" fill="#C7CBE3">0.6</text><text x="375.6" y="465.3" class="node" fill="#5374E2">0.98</text><text x="353.9" y="494.7" class="node" fill="#4A6FE3">1</text><text x="288.9" y="524.1" class="node" fill="#B4BBE3">0.67</text><text x="267.2" y="587.9" class="node" fill="#4A6FE3">1</text><text x="288.9" y="578.2" class="node" fill="#C4C9E3">0.61</text><text x="310.5" y="568.7" class="node" fill="#E18297">0.19</text><text x="332.2" y="559.6" class="node" fill="#7D8FE1">0.86</text><text x="353.9" y="551" class="node" fill="#DE728B">0.14</text><text x="375.6" y="543.6" class="node" fill="#4A6FE3">1</text><text x="245.5" y="628.1" class="node" fill="#C4C9E3">0.61</text><text x="267.2" y="619.5" class="node" fill="#E6B4BD">0.35</text><text x="288.9" y="612.2" class="node" fill="#C7CBE3">0.6</text></svg>
