<svg xmlns="http://www.w3.org/2000/svg" version="1.1" viewBox="0 0 682 720" preserveAspectRatio="xMidYMid meet" class="tree" data-char="146"><text x="678" y="12.7" text-anchor="end" class="stepsLabel">Character adds <tspan class="score">0</tspan> to tree score</text><text x="678" y="22.4" text-anchor="end" class="stepsLabel"><tspan class="score">0</tspan> additional regions</text><text x="678" y="32.1" text-anchor="end" class="stepsLabel"></text><text x="678" y="51.5" text-anchor="end" class="stepsLabel"><tspan dy="16" fill="#34caaf">An optimal tree under:</tspan><tspan x="680" style="font-style:italic" class="notThisAn" dy="1.2em">Implied weights, k = 4.5</tspan><tspan x="680" style="font-style:italic" class="notThisAn" dy="1.2em">IW, k = 10.5</tspan><tspan x="680" style="font-style:italic" class="notThisAn" dy="1.2em">IW, k = 24</tspan><tspan x="680" style="font-style:italic" class="thisAn" dy="1.2em">Equal weights</tspan></text><text x="164" y="666" fill="#fc8d59" class="flag">[0]</text><text x="186" y="666" fill="#000" class="taxonLabel">Paramicrocornus</text><text x="164" y="675.8" fill="#fc8d59" class="flag">[0]</text><text x="186" y="675.8" fill="#000" class="taxonLabel">Haplophrentis carinatus</text><text x="300.3" y="607.3" fill="#fc8d59" class="flag">[0]</text><text x="322.3" y="607.3" fill="#000" class="taxonLabel">Capitella</text><text x="300.3" y="617.1" fill="#fc8d59" class="flag">[0]</text><text x="322.3" y="617.1" fill="#000" class="taxonLabel">Canadia spinosa</text><text x="277.6" y="626.9" fill="#fc8d59" class="flag">[0]</text><text x="299.6" y="626.9" fill="#000" class="taxonLabel">Serpula</text><text x="254.9" y="636.7" fill="#fc8d59" class="flag">[0]</text><text x="276.9" y="636.7" fill="#000" class="taxonLabel">Sipunculus</text><text x="345.7" y="568.1" fill="#fc8d59" class="flag">[0]</text><text x="367.7" y="568.1" fill="#000" class="taxonLabel">Pojetaia runnegari</text><text x="345.7" y="577.9" fill="#fc8d59" class="flag">[0]</text><text x="367.7" y="577.9" fill="#000" class="taxonLabel">Mytilus</text><text x="368.4" y="538.8" fill="#fc8d59" class="flag">[0]</text><text x="390.4" y="538.8" fill="#000" class="taxonLabel">Neopilina</text><text x="368.4" y="548.5" fill="#fc8d59" class="flag">[0]</text><text x="390.4" y="548.5" fill="#000" class="taxonLabel">Conocardium elongatum</text><text x="345.7" y="558.3" fill="#fc8d59" class="flag">[0]</text><text x="367.7" y="558.3" fill="#000" class="taxonLabel">Haliotis</text><text x="300.3" y="587.7" fill="#fc8d59" class="flag">[0]</text><text x="322.3" y="587.7" fill="#000" class="taxonLabel">Dentalium</text><text x="277.6" y="597.5" fill="#fc8d59" class="flag">[0]</text><text x="299.6" y="597.5" fill="#000" class="taxonLabel">Pelagiella</text><text x="300.3" y="519.2" fill="#fc8d59" class="flag">[0]</text><text x="322.3" y="519.2" fill="#000" class="taxonLabel">Wiwaxia corrugata</text><text x="300.3" y="529" fill="#fc8d59" class="flag">[0]</text><text x="322.3" y="529" fill="#000" class="taxonLabel">Odontogriphus omalus</text><text x="368.4" y="489.8" fill="#fc8d59" class="flag">[0]</text><text x="390.4" y="489.8" fill="#000" class="taxonLabel">Wirenia</text><text x="368.4" y="499.6" fill="#fc8d59" class="flag">[0]</text><text x="390.4" y="499.6" fill="#000" class="taxonLabel">Chaetoderma</text><text x="391.1" y="460.4" fill="#fc8d59" class="flag">[0]</text><text x="413.1" y="460.4" fill="#000" class="taxonLabel">Phthipodochiton thraivensis</text><text x="391.1" y="470.2" fill="#fc8d59" class="flag">[0]</text><text x="413.1" y="470.2" fill="#000" class="taxonLabel">Kulindroplax perissokomos</text><text x="368.4" y="480" fill="#fc8d59" class="flag">[0]</text><text x="390.4" y="480" fill="#000" class="taxonLabel">Acaenoplax hayae</text><text x="436.6" y="401.7" fill="#fc8d59" class="flag">[0]</text><text x="458.6" y="401.7" fill="#000" class="taxonLabel">Tonicella</text><text x="436.6" y="411.5" fill="#fc8d59" class="flag">[0]</text><text x="458.6" y="411.5" fill="#000" class="taxonLabel">Mopalia</text><text x="413.9" y="421.2" fill="#fc8d59" class="flag">[0]</text><text x="435.9" y="421.2" fill="#000" class="taxonLabel">Glaphurochiton carbonarius</text><text x="391.1" y="431" fill="#fc8d59" class="flag">[0]</text><text x="413.1" y="431" fill="#000" class="taxonLabel">Leptochiton</text><text x="368.4" y="440.8" fill="#fc8d59" class="flag">[0]</text><text x="390.4" y="440.8" fill="#000" class="taxonLabel">Calvapilosa kroegeri</text><text x="345.7" y="450.6" fill="#fc8d59" class="flag">[0]</text><text x="367.7" y="450.6" fill="#000" class="taxonLabel">Polysacos vickersianum</text><text x="300.3" y="509.4" fill="#fc8d59" class="flag">[0]</text><text x="322.3" y="509.4" fill="#000" class="taxonLabel">Siphogonuchites multa</text><text x="209.4" y="646.5" fill="#fc8d59" class="flag">[0]</text><text x="231.4" y="646.5" fill="#000" class="taxonLabel">Bactrotheca</text><text x="186.7" y="656.2" fill="#fc8d59" class="flag">[0]</text><text x="208.7" y="656.2" fill="#000" class="taxonLabel">Cupitheca holocyclata</text><text x="277.6" y="352.7" fill="#fc8d59" class="flag">[0]</text><text x="299.6" y="352.7" fill="#000" class="taxonLabel">Mickwitzia muralensis</text><text x="277.6" y="362.5" fill="#fc8d59" class="flag">[0]</text><text x="299.6" y="362.5" fill="#000" class="taxonLabel">Heliomedusa orienta</text><text x="368.4" y="313.5" fill="#fc8d59" class="flag">[0]</text><text x="390.4" y="313.5" fill="#000" class="taxonLabel">Novocrania</text><text x="368.4" y="323.3" fill="#fc8d59" class="flag">[0]</text><text x="390.4" y="323.3" fill="#000" class="taxonLabel">Craniops</text><text x="345.7" y="333.1" fill="#fc8d59" class="flag">[0]</text><text x="367.7" y="333.1" fill="#000" class="taxonLabel">Ussunia</text><text x="323" y="342.9" fill="#fc8d59" class="flag">[0]</text><text x="345" y="342.9" fill="#000" class="taxonLabel">Gasconsia</text><text x="413.9" y="264.6" fill="#fc8d59" class="flag">[0]</text><text x="435.9" y="264.6" fill="#000" class="taxonLabel">Pelagodiscus atlanticus</text><text x="413.9" y="274.4" fill="#fc8d59" class="flag">[0]</text><text x="435.9" y="274.4" fill="#000" class="taxonLabel">Mummpikia nuda</text><text x="459.3" y="235.2" fill="#fc8d59" class="flag">[0]</text><text x="481.3" y="235.2" fill="#000" class="taxonLabel">Siphonobolus priscus</text><text x="459.3" y="245" fill="#fc8d59" class="flag">[0]</text><text x="481.3" y="245" fill="#000" class="taxonLabel">Acanthotretella spinosa</text><text x="459.3" y="215.6" fill="#fc8d59" class="flag">[0]</text><text x="481.3" y="215.6" fill="#000" class="taxonLabel">Lingulosacculus</text><text x="459.3" y="225.4" fill="#fc8d59" class="flag">[0]</text><text x="481.3" y="225.4" fill="#000" class="taxonLabel">Clupeafumosus socialis</text><text x="413.9" y="254.8" fill="#fc8d59" class="flag">[0]</text><text x="435.9" y="254.8" fill="#000" class="taxonLabel">Lingulellotreta malongensis</text><text x="368.4" y="284.2" fill="#fc8d59" class="flag">[0]</text><text x="390.4" y="284.2" fill="#000" class="taxonLabel">Botsfordia</text><text x="345.7" y="294" fill="#fc8d59" class="flag">[0]</text><text x="367.7" y="294" fill="#000" class="taxonLabel">Eoobolus</text><text x="323" y="303.8" fill="#fc8d59" class="flag">[0]</text><text x="345" y="303.8" fill="#000" class="taxonLabel">Lingula</text><text x="323" y="196" fill="#fc8d59" class="flag">[0]</text><text x="345" y="196" fill="#000" class="taxonLabel">Micromitra</text><text x="323" y="205.8" fill="#fc8d59" class="flag">[0]</text><text x="345" y="205.8" fill="#000" class="taxonLabel">Askepasma toddense</text><text x="368.4" y="166.7" fill="#fc8d59" class="flag">[0]</text><text x="390.4" y="166.7" fill="#000" class="taxonLabel">Yuganotheca elegans</text><text x="368.4" y="176.5" fill="#fc8d59" class="flag">[0]</text><text x="390.4" y="176.5" fill="#000" class="taxonLabel">Tomteluva perturbata</text><text x="413.9" y="137.3" fill="#fc8d59" class="flag">[0]</text><text x="435.9" y="137.3" fill="#000" class="taxonLabel">Coolinia pecten</text><text x="413.9" y="147.1" fill="#fc8d59" class="flag">[0]</text><text x="435.9" y="147.1" fill="#000" class="taxonLabel">Antigonambonites planus</text><text x="436.6" y="117.7" fill="#fc8d59" class="flag">[0]</text><text x="458.6" y="117.7" fill="#000" class="taxonLabel">Nisusia sulcata</text><text x="436.6" y="127.5" fill="#fc8d59" class="flag">[0]</text><text x="458.6" y="127.5" fill="#000" class="taxonLabel">Kutorgina chengjiangensis</text><text x="482" y="78.5" fill="#fc8d59" class="flag">[0]</text><text x="504" y="78.5" fill="#000" class="taxonLabel">Terebratulina</text><text x="482" y="88.3" fill="#fc8d59" class="flag">[0]</text><text x="504" y="88.3" fill="#000" class="taxonLabel">Orthis</text><text x="459.3" y="98.1" fill="#fc8d59" class="flag">[0]</text><text x="481.3" y="98.1" fill="#000" class="taxonLabel">Alisina</text><text x="436.6" y="107.9" fill="#fc8d59" class="flag">[0]</text><text x="458.6" y="107.9" fill="#000" class="taxonLabel">Glyptoria</text><text x="368.4" y="156.9" fill="#fc8d59" class="flag">[0]</text><text x="390.4" y="156.9" fill="#000" class="taxonLabel">Longtancunella chengjiangensis</text><text x="323" y="186.2" fill="#fc8d59" class="flag">[0]</text><text x="345" y="186.2" fill="#000" class="taxonLabel">Salanygolina</text><text x="232.1" y="372.3" fill="#fc8d59" class="flag">[0]</text><text x="254.1" y="372.3" fill="#000" class="taxonLabel">Micrina</text><text x="209.4" y="382.1" fill="#fc8d59" class="flag">[0]</text><text x="231.4" y="382.1" fill="#000" class="taxonLabel">Paterimitra</text><text x="186.7" y="391.9" fill="#fc8d59" class="flag">[0]</text><text x="208.7" y="391.9" fill="#000" class="taxonLabel">Pedunculotheca diania</text><text x="118.6" y="685.6" fill="#fc8d59" class="flag">[0]</text><text x="140.6" y="685.6" fill="#000" class="taxonLabel">Halkieria evangelista</text><text x="95.9" y="695.4" fill="#fc8d59" class="flag">[0]</text><text x="117.9" y="695.4" fill="#000" class="taxonLabel">Orthrozanclus</text><text x="73.1" y="705.2" fill="#fc8d59" class="flag">[0]</text><text x="95.1" y="705.2" fill="#000" class="taxonLabel">Dailyatia</text><text x="186.7" y="10" fill="#fc8d59" class="flag">[0]</text><text x="208.7" y="10" fill="#000" class="taxonLabel">Flustra</text><text x="186.7" y="19.8" fill="#fc8d59" class="flag">[0]</text><text x="208.7" y="19.8" fill="#000" class="taxonLabel">Amathia</text><text x="164" y="29.6" fill="#fc8d59" class="flag">[0]</text><text x="186" y="29.6" fill="#000" class="taxonLabel">Loxosomella</text><text x="141.3" y="39.4" fill="#fc8d59" class="flag">[0]</text><text x="163.3" y="39.4" fill="#000" class="taxonLabel">Phoronis</text><text x="118.6" y="49.2" fill="#fc8d59" class="flag">[0]</text><text x="140.6" y="49.2" fill="#000" class="taxonLabel">Namacalathus</text><text x="95.9" y="59" fill="#fc8d59" class="flag">[0]</text><text x="117.9" y="59" fill="#000" class="taxonLabel">Cotyledion tylodes</text><text x="73.1" y="68.8" fill="#fc8d59" class="flag">[0]</text><text x="95.1" y="68.8" fill="#000" class="taxonLabel">Eccentrotheca</text><text x="27.7" y="715" fill="#fc8d59" class="flag">[0]</text><text x="49.7" y="715" fill="#000" class="taxonLabel">Yilingia spiciformis</text><path d="M5,540.7V369.4H27.7M27.7,369.4V56.1H50.4M50.4,56.1V46.5H73.1M73.1,46.5V37H95.9M95.9,37V27.8H118.6M118.6,27.8V19.2H141.3M141.3,19.2V11.9H164M164,11.9V7H186.7M164,11.9V16.8H186.7M141.3,19.2V26.6H164M118.6,27.8V36.4H141.3M95.9,37V46.2H118.6M73.1,46.5V56H95.9M50.4,56.1V65.8H73.1M27.7,369.4V682.7H50.4M50.4,682.7V663.3H73.1M73.1,663.3V634.1H95.9M95.9,634.1V585.6H118.6M118.6,585.6V503.2H141.3M141.3,503.2V373H164M164,373V357.1H186.7M186.7,357.1V335H209.4M209.4,335V300.8H232.1M232.1,300.8V246.9H254.9M254.9,246.9V183.2H277.6M277.6,183.2V168.4H300.3M300.3,168.4V153.6H323M323,153.6V138.7H345.7M345.7,138.7V123.6H368.4M368.4,123.6V108H391.1M391.1,108V96.3H413.9M413.9,96.3V87.8H436.6M436.6,87.8V80.4H459.3M459.3,80.4V75.5H482M459.3,80.4V85.3H482M436.6,87.8V95.1H459.3M413.9,96.3V104.9H436.6M391.1,108V119.6H413.9M413.9,119.6V114.7H436.6M413.9,119.6V124.5H436.6M368.4,123.6V139.2H391.1M391.1,139.2V134.3H413.9M391.1,139.2V144.1H413.9M345.7,138.7V153.9H368.4M323,153.6V168.6H345.7M345.7,168.6V163.7H368.4M345.7,168.6V173.5H368.4M300.3,168.4V183.2H323M277.6,183.2V197.9H300.3M300.3,197.9V193H323M300.3,197.9V202.8H323M254.9,246.9V310.6H277.6M277.6,310.6V289.9H300.3M300.3,289.9V279H323M323,279V267.1H345.7M345.7,267.1V253H368.4M368.4,253V239.6H391.1M391.1,239.6V227.3H413.9M413.9,227.3V217.5H436.6M436.6,217.5V212.6H459.3M436.6,217.5V222.4H459.3M413.9,227.3V237.1H436.6M436.6,237.1V232.2H459.3M436.6,237.1V242H459.3M391.1,239.6V251.8H413.9M368.4,253V266.5H391.1M391.1,266.5V261.6H413.9M391.1,266.5V271.4H413.9M345.7,267.1V281.2H368.4M323,279V291H345.7M300.3,289.9V300.8H323M277.6,310.6V331.3H300.3M300.3,331.3V322.8H323M323,322.8V315.4H345.7M345.7,315.4V310.5H368.4M345.7,315.4V320.3H368.4M323,322.8V330.1H345.7M300.3,331.3V339.9H323M232.1,300.8V354.6H254.9M254.9,354.6V349.7H277.6M254.9,354.6V359.5H277.6M209.4,335V369.3H232.1M186.7,357.1V379.1H209.4M164,373V388.9H186.7M141.3,503.2V633.4H164M164,633.4V613.6H186.7M186.7,613.6V583.8H209.4M209.4,583.8V542.6H232.1M232.1,542.6V502H254.9M254.9,502V482.9H277.6M277.6,482.9V459.4H300.3M300.3,459.4V438.1H323M323,438.1V428.7H345.7M345.7,428.7V419.5H368.4M368.4,419.5V410.9H391.1M391.1,410.9V403.6H413.9M413.9,403.6V398.7H436.6M413.9,403.6V408.5H436.6M391.1,410.9V418.2H413.9M368.4,419.5V428H391.1M345.7,428.7V437.8H368.4M323,438.1V447.6H345.7M300.3,459.4V480.7H323M323,480.7V469.7H345.7M345.7,469.7V462.3H368.4M368.4,462.3V457.4H391.1M368.4,462.3V467.2H391.1M345.7,469.7V477H368.4M323,480.7V491.7H345.7M345.7,491.7V486.8H368.4M345.7,491.7V496.6H368.4M277.6,482.9V506.4H300.3M254.9,502V521.1H277.6M277.6,521.1V516.2H300.3M277.6,521.1V526H300.3M232.1,542.6V583.2H254.9M254.9,583.2V571.9H277.6M277.6,571.9V559H300.3M300.3,559V548H323M323,548V540.6H345.7M345.7,540.6V535.8H368.4M345.7,540.6V545.5H368.4M323,548V555.3H345.7M300.3,559V570H323M323,570V565.1H345.7M323,570V574.9H345.7M277.6,571.9V584.7H300.3M254.9,583.2V594.5H277.6M209.4,583.8V625.1H232.1M232.1,625.1V616.5H254.9M254.9,616.5V609.2H277.6M277.6,609.2V604.3H300.3M277.6,609.2V614.1H300.3M254.9,616.5V623.9H277.6M232.1,625.1V633.7H254.9M186.7,613.6V643.5H209.4M164,633.4V653.2H186.7M118.6,585.6V667.9H141.3M141.3,667.9V663H164M141.3,667.9V672.8H164M95.9,634.1V682.6H118.6M73.1,663.3V692.4H95.9M50.4,682.7V702.2H73.1M5,540.7V712H27.7" stroke="#fc8d59"></path><text x="29.7" y="372.4" class="node" fill="#C7CBE3">0.6</text><text x="52.4" y="59.1" class="node" fill="#DF798F">0.16</text><text x="75.1" y="49.5" class="node" fill="#C7CBE3">0.6</text><text x="97.9" y="40" class="node" fill="#E6BAC2">0.37</text><text x="120.6" y="30.8" class="node" fill="#C7CBE3">0.6</text><text x="143.3" y="22.2" class="node" fill="#4A6FE3">1</text><text x="166" y="14.9" class="node" fill="#DE728B">0.14</text><text x="52.4" y="685.7" class="node" fill="#C7CBE3">0.6</text><text x="75.1" y="666.3" class="node" fill="#C7CBE3">0.6</text><text x="97.9" y="637.1" class="node" fill="#C7CBE3">0.6</text><text x="120.6" y="588.6" class="node" fill="#C7CBE3">0.6</text><text x="143.3" y="506.2" class="node" fill="#C7CBE3">0.6</text><text x="166" y="376" class="node" fill="#C7CBE3">0.6</text><text x="188.7" y="360.1" class="node" fill="#4A6FE3">1</text><text x="211.4" y="338" class="node" fill="#C7CBE3">0.6</text><text x="234.1" y="303.8" class="node" fill="#C7CBE3">0.6</text><text x="256.9" y="249.9" class="node" fill="#C7CBE3">0.6</text><text x="279.6" y="186.2" class="node" fill="#C7CBE3">0.6</text><text x="302.3" y="171.4" class="node" fill="#E6ABB6">0.32</text><text x="325" y="156.6" class="node" fill="#E495A5">0.25</text><text x="347.7" y="141.7" class="node" fill="#DADBE3">0.53</text><text x="370.4" y="126.6" class="node" fill="#E4D6D8">0.46</text><text x="393.1" y="111" class="node" fill="#DADBE3">0.53</text><text x="415.9" y="99.3" class="node" fill="#5B78E2">0.96</text><text x="438.6" y="90.8" class="node" fill="#5B78E2">0.96</text><text x="461.3" y="83.4" class="node" fill="#A6AFE2">0.72</text><text x="415.9" y="122.6" class="node" fill="#4A6FE3">1</text><text x="393.1" y="142.2" class="node" fill="#D7D9E3">0.54</text><text x="347.7" y="171.6" class="node" fill="#4A6FE3">1</text><text x="302.3" y="200.9" class="node" fill="#4A6FE3">1</text><text x="279.6" y="313.6" class="node" fill="#4A6FE3">1</text><text x="302.3" y="292.9" class="node" fill="#4A6FE3">1</text><text x="325" y="282" class="node" fill="#4A6FE3">1</text><text x="347.7" y="270.1" class="node" fill="#4A6FE3">1</text><text x="370.4" y="256" class="node" fill="#4A6FE3">1</text><text x="393.1" y="242.6" class="node" fill="#4A6FE3">1</text><text x="415.9" y="230.3" class="node" fill="#E6C1C7">0.39</text><text x="438.6" y="220.5" class="node" fill="#4A6FE3">1</text><text x="438.6" y="240.1" class="node" fill="#4A6FE3">1</text><text x="393.1" y="269.5" class="node" fill="#4A6FE3">1</text><text x="302.3" y="334.3" class="node" fill="#4A6FE3">1</text><text x="325" y="325.8" class="node" fill="#4A6FE3">1</text><text x="347.7" y="318.4" class="node" fill="#4A6FE3">1</text><text x="256.9" y="357.6" class="node" fill="#C7CBE3">0.6</text><text x="166" y="636.4" class="node" fill="#C7CBE3">0.6</text><text x="188.7" y="616.6" class="node" fill="#4A6FE3">1</text><text x="211.4" y="586.8" class="node" fill="#768BE1">0.88</text><text x="234.1" y="545.6" class="node" fill="#C4C9E3">0.61</text><text x="256.9" y="505" class="node" fill="#4A6FE3">1</text><text x="279.6" y="485.9" class="node" fill="#D2D4E3">0.56</text><text x="302.3" y="462.4" class="node" fill="#5B78E2">0.96</text><text x="325" y="441.1" class="node" fill="#C7CBE3">0.6</text><text x="347.7" y="431.7" class="node" fill="#E6AEB8">0.33</text><text x="370.4" y="422.5" class="node" fill="#DE728B">0.14</text><text x="393.1" y="413.9" class="node" fill="#4A6FE3">1</text><text x="415.9" y="406.6" class="node" fill="#5374E2">0.98</text><text x="325" y="483.7" class="node" fill="#C7CBE3">0.6</text><text x="347.7" y="472.7" class="node" fill="#C7CBE3">0.6</text><text x="370.4" y="465.3" class="node" fill="#5374E2">0.98</text><text x="347.7" y="494.7" class="node" fill="#4A6FE3">1</text><text x="279.6" y="524.1" class="node" fill="#B4BBE3">0.67</text><text x="256.9" y="586.2" class="node" fill="#4A6FE3">1</text><text x="279.6" y="574.9" class="node" fill="#C4C9E3">0.61</text><text x="302.3" y="562" class="node" fill="#7D8FE1">0.86</text><text x="325" y="551" class="node" fill="#A0ABE2">0.74</text><text x="347.7" y="543.6" class="node" fill="#C7CBE3">0.6</text><text x="325" y="573" class="node" fill="#4A6FE3">1</text><text x="234.1" y="628.1" class="node" fill="#C4C9E3">0.61</text><text x="256.9" y="619.5" class="node" fill="#E6B4BD">0.35</text><text x="279.6" y="612.2" class="node" fill="#B1B8E2">0.68</text><text x="143.3" y="670.9" class="node" fill="#C7CBE3">0.6</text></svg>
