<svg xmlns="http://www.w3.org/2000/svg" version="1.1" viewBox="0 0 682 720" preserveAspectRatio="xMidYMid meet" class="tree" data-char="144"><text x="678" y="12.7" text-anchor="end" class="stepsLabel">Character adds <tspan class="score">2</tspan> to tree score</text><text x="678" y="22.4" text-anchor="end" class="stepsLabel"><tspan class="score">0</tspan> additional regions</text><text x="678" y="32.1" text-anchor="end" class="stepsLabel"></text><text x="678" y="51.5" text-anchor="end" class="stepsLabel"><tspan dy="16" fill="#34caaf">An optimal tree under:</tspan><tspan x="680" style="font-style:italic" class="notThisAn" dy="1.2em">Implied weights, k = 4.5</tspan><tspan x="680" style="font-style:italic" class="notThisAn" dy="1.2em">IW, k = 10.5</tspan><tspan x="680" style="font-style:italic" class="thisAn" dy="1.2em">IW, k = 24</tspan><tspan x="680" style="font-style:italic" class="notThisAn" dy="1.2em">Equal weights</tspan></text><text x="164" y="675.8" fill="#fc8d59" class="flag">[0]</text><text x="186" y="675.8" fill="#000" class="taxonLabel">Serpula</text><text x="164" y="685.6" fill="#fc8d59" class="flag">[0]</text><text x="186" y="685.6" fill="#000" class="taxonLabel">Capitella</text><text x="132.2" y="695.4" fill="#fc8d59" class="flag">[0]</text><text x="154.2" y="695.4" fill="#000" class="taxonLabel">Canadia spinosa</text><text x="100.4" y="705.2" fill="#fc8d59" class="flag">[0]</text><text x="122.4" y="705.2" fill="#000" class="taxonLabel">Sipunculus</text><text x="259.4" y="636.7" fill="#fc8d59" class="flag">[0]</text><text x="281.4" y="636.7" fill="#000" class="taxonLabel">Wirenia</text><text x="259.4" y="646.5" fill="#fc8d59" class="flag">[0]</text><text x="281.4" y="646.5" fill="#000" class="taxonLabel">Chaetoderma</text><text x="418.4" y="568.1" fill="#fc8d59" class="flag">[0]</text><text x="440.4" y="568.1" fill="#000" class="taxonLabel">Tonicella</text><text x="418.4" y="577.9" fill="#fc8d59" class="flag">[0]</text><text x="440.4" y="577.9" fill="#000" class="taxonLabel">Mopalia</text><text x="386.6" y="587.7" fill="#fc8d59" class="flag">[0]</text><text x="408.6" y="587.7" fill="#000" class="taxonLabel">Polysacos vickersianum</text><text x="354.8" y="597.5" fill="#fc8d59" class="flag">[0]</text><text x="376.8" y="597.5" fill="#000" class="taxonLabel">Leptochiton</text><text x="323" y="607.3" fill="#fc8d59" class="flag">[0]</text><text x="345" y="607.3" fill="#000" class="taxonLabel">Glaphurochiton carbonarius</text><text x="291.2" y="617.1" fill="#fc8d59" class="flag">[0]</text><text x="313.2" y="617.1" fill="#000" class="taxonLabel">Calvapilosa kroegeri</text><text x="259.4" y="626.9" fill="#fc8d59" class="flag">[0]</text><text x="281.4" y="626.9" fill="#000" class="taxonLabel">Phthipodochiton thraivensis</text><text x="291.2" y="538.8" fill="#fc8d59" class="flag">[0]</text><text x="313.2" y="538.8" fill="#000" class="taxonLabel">Wiwaxia corrugata</text><text x="291.2" y="548.5" fill="#fc8d59" class="flag">[0]</text><text x="313.2" y="548.5" fill="#000" class="taxonLabel">Odontogriphus omalus</text><text x="386.6" y="499.6" fill="#fc8d59" class="flag">[0]</text><text x="408.6" y="499.6" fill="#000" class="taxonLabel">Neopilina</text><text x="386.6" y="509.4" fill="#fc8d59" class="flag">[0]</text><text x="408.6" y="509.4" fill="#000" class="taxonLabel">Conocardium elongatum</text><text x="354.8" y="519.2" fill="#fc8d59" class="flag">[0]</text><text x="376.8" y="519.2" fill="#000" class="taxonLabel">Haliotis</text><text x="386.6" y="470.2" fill="#fc8d59" class="flag">[0]</text><text x="408.6" y="470.2" fill="#000" class="taxonLabel">Pojetaia runnegari</text><text x="386.6" y="480" fill="#fc8d59" class="flag">[0]</text><text x="408.6" y="480" fill="#000" class="taxonLabel">Mytilus</text><text x="354.8" y="489.8" fill="#fc8d59" class="flag">[0]</text><text x="376.8" y="489.8" fill="#000" class="taxonLabel">Dentalium</text><text x="291.2" y="529" fill="#fc8d59" class="flag">[0]</text><text x="313.2" y="529" fill="#000" class="taxonLabel">Pelagiella</text><text x="227.6" y="558.3" fill="#fc8d59" class="flag">[0]</text><text x="249.6" y="558.3" fill="#000" class="taxonLabel">Siphogonuchites multa</text><text x="164" y="656.2" fill="#fc8d59" class="flag">[0]</text><text x="186" y="656.2" fill="#000" class="taxonLabel">Acaenoplax hayae</text><text x="132.2" y="666" fill="#fc8d59" class="flag">[0]</text><text x="154.2" y="666" fill="#000" class="taxonLabel">Kulindroplax perissokomos</text><text x="259.4" y="440.8" fill="#91bfdb" class="flag">[1]</text><text x="281.4" y="440.8" fill="#000" class="taxonLabel">Paramicrocornus</text><text x="259.4" y="450.6" fill="#91bfdb" class="flag">[1]</text><text x="281.4" y="450.6" fill="#000" class="taxonLabel">Haplophrentis carinatus</text><text x="291.2" y="411.5" fill="#91bfdb" class="flag">[1]</text><text x="313.2" y="411.5" fill="#000" class="taxonLabel">Cupitheca holocyclata</text><text x="291.2" y="421.2" fill="#fc8d59" class="flag">[0]</text><text x="313.2" y="421.2" fill="#000" class="taxonLabel">Bactrotheca</text><text x="259.4" y="431" fill="#91bfdb" class="flag">[1]</text><text x="281.4" y="431" fill="#000" class="taxonLabel">Pedunculotheca diania</text><text x="195.8" y="460.4" fill="#fc8d59" class="flag">[0]</text><text x="217.8" y="460.4" fill="#000" class="taxonLabel">Halkieria evangelista</text><text x="259.4" y="382.1" fill="#fc8d59" class="flag">[0]</text><text x="281.4" y="382.1" fill="#000" class="taxonLabel">Eccentrotheca</text><text x="259.4" y="391.9" fill="#fc8d59" class="flag">[0]</text><text x="281.4" y="391.9" fill="#000" class="taxonLabel">Cotyledion tylodes</text><text x="386.6" y="323.3" fill="#fc8d59" class="flag">[0]</text><text x="408.6" y="323.3" fill="#000" class="taxonLabel">Flustra</text><text x="386.6" y="333.1" fill="#fc8d59" class="flag">[0]</text><text x="408.6" y="333.1" fill="#000" class="taxonLabel">Amathia</text><text x="354.8" y="342.9" fill="#fc8d59" class="flag">[0]</text><text x="376.8" y="342.9" fill="#000" class="taxonLabel">Loxosomella</text><text x="323" y="352.7" fill="#fc8d59" class="flag">[0]</text><text x="345" y="352.7" fill="#000" class="taxonLabel">Namacalathus</text><text x="291.2" y="362.5" fill="#fc8d59" class="flag">[0]</text><text x="313.2" y="362.5" fill="#000" class="taxonLabel">Phoronis</text><text x="259.4" y="372.3" fill="#fc8d59" class="flag">[0]</text><text x="281.4" y="372.3" fill="#000" class="taxonLabel">Dailyatia</text><text x="195.8" y="401.7" fill="#fc8d59" class="flag">[0]</text><text x="217.8" y="401.7" fill="#000" class="taxonLabel">Orthrozanclus</text><text x="291.2" y="284.2" fill="#fc8d59" class="flag">[0]</text><text x="313.2" y="284.2" fill="#000" class="taxonLabel">Micromitra</text><text x="291.2" y="294" fill="#fc8d59" class="flag">[0]</text><text x="313.2" y="294" fill="#000" class="taxonLabel">Askepasma toddense</text><text x="354.8" y="264.6" fill="#fc8d59" class="flag">[0]</text><text x="376.8" y="264.6" fill="#000" class="taxonLabel">Coolinia pecten</text><text x="354.8" y="274.4" fill="#fc8d59" class="flag">[0]</text><text x="376.8" y="274.4" fill="#000" class="taxonLabel">Antigonambonites planus</text><text x="386.6" y="235.2" fill="#fc8d59" class="flag">[0]</text><text x="408.6" y="235.2" fill="#000" class="taxonLabel">Yuganotheca elegans</text><text x="386.6" y="245" fill="#fc8d59" class="flag">[0]</text><text x="408.6" y="245" fill="#000" class="taxonLabel">Tomteluva perturbata</text><text x="354.8" y="254.8" fill="#fc8d59" class="flag">[0]</text><text x="376.8" y="254.8" fill="#000" class="taxonLabel">Salanygolina</text><text x="482" y="166.7" fill="#fc8d59" class="flag">[0]</text><text x="504" y="166.7" fill="#000" class="taxonLabel">Terebratulina</text><text x="482" y="176.5" fill="#fc8d59" class="flag">[0]</text><text x="504" y="176.5" fill="#000" class="taxonLabel">Orthis</text><text x="450.2" y="186.2" fill="#fc8d59" class="flag">[0]</text><text x="472.2" y="186.2" fill="#000" class="taxonLabel">Alisina</text><text x="418.4" y="196" fill="#fc8d59" class="flag">[0]</text><text x="440.4" y="196" fill="#000" class="taxonLabel">Longtancunella chengjiangensis</text><text x="386.6" y="205.8" fill="#fc8d59" class="flag">[0]</text><text x="408.6" y="205.8" fill="#000" class="taxonLabel">Glyptoria</text><text x="354.8" y="215.6" fill="#fc8d59" class="flag">[0]</text><text x="376.8" y="215.6" fill="#000" class="taxonLabel">Nisusia sulcata</text><text x="323" y="225.4" fill="#fc8d59" class="flag">[0]</text><text x="345" y="225.4" fill="#000" class="taxonLabel">Kutorgina chengjiangensis</text><text x="386.6" y="117.7" fill="#fc8d59" class="flag">[0]</text><text x="408.6" y="117.7" fill="#000" class="taxonLabel">Novocrania</text><text x="386.6" y="127.5" fill="#fc8d59" class="flag">[0]</text><text x="408.6" y="127.5" fill="#000" class="taxonLabel">Craniops</text><text x="354.8" y="137.3" fill="#fc8d59" class="flag">[0]</text><text x="376.8" y="137.3" fill="#000" class="taxonLabel">Ussunia</text><text x="323" y="147.1" fill="#fc8d59" class="flag">[0]</text><text x="345" y="147.1" fill="#000" class="taxonLabel">Heliomedusa orienta</text><text x="291.2" y="156.9" fill="#fc8d59" class="flag">[0]</text><text x="313.2" y="156.9" fill="#000" class="taxonLabel">Gasconsia</text><text x="323" y="98.1" fill="#fc8d59" class="flag">[0]</text><text x="345" y="98.1" fill="#000" class="taxonLabel">Pelagodiscus atlanticus</text><text x="323" y="107.9" fill="#fc8d59" class="flag">[0]</text><text x="345" y="107.9" fill="#000" class="taxonLabel">Mickwitzia muralensis</text><text x="386.6" y="68.8" fill="#fc8d59" class="flag">[0]</text><text x="408.6" y="68.8" fill="#000" class="taxonLabel">Mummpikia nuda</text><text x="386.6" y="78.5" fill="#fc8d59" class="flag">[0]</text><text x="408.6" y="78.5" fill="#000" class="taxonLabel">Botsfordia</text><text x="354.8" y="88.3" fill="#fc8d59" class="flag">[0]</text><text x="376.8" y="88.3" fill="#000" class="taxonLabel">Eoobolus</text><text x="386.6" y="49.2" fill="#fc8d59" class="flag">[0]</text><text x="408.6" y="49.2" fill="#000" class="taxonLabel">Lingulellotreta malongensis</text><text x="386.6" y="59" fill="#fc8d59" class="flag">[0]</text><text x="408.6" y="59" fill="#000" class="taxonLabel">Lingula</text><text x="418.4" y="29.6" fill="#fc8d59" class="flag">[0]</text><text x="440.4" y="29.6" fill="#000" class="taxonLabel">Siphonobolus priscus</text><text x="418.4" y="39.4" fill="#fc8d59" class="flag">[0]</text><text x="440.4" y="39.4" fill="#000" class="taxonLabel">Acanthotretella spinosa</text><text x="418.4" y="10" fill="#fc8d59" class="flag">[0]</text><text x="440.4" y="10" fill="#000" class="taxonLabel">Lingulosacculus</text><text x="418.4" y="19.8" fill="#fc8d59" class="flag">[0]</text><text x="440.4" y="19.8" fill="#000" class="taxonLabel">Clupeafumosus socialis</text><text x="195.8" y="303.8" fill="#fc8d59" class="flag">[0]</text><text x="217.8" y="303.8" fill="#000" class="taxonLabel">Micrina</text><text x="164" y="313.5" fill="#fc8d59" class="flag">[0]</text><text x="186" y="313.5" fill="#000" class="taxonLabel">Paterimitra</text><text x="36.8" y="715" fill="#fc8d59" class="flag">[0]</text><text x="58.8" y="715" fill="#000" class="taxonLabel">Yilingia spiciformis</text><path d="M5,652.7V593.5H36.8M36.8,593.5V493.3H68.6M68.6,493.3V345.9H100.4M100.4,345.9V276.9H132.2M132.2,276.9V243.3H164M164,243.3V185.9H195.8M195.8,185.9V111.6H227.6M227.6,111.6V78.6H259.4M259.4,78.6V57.2H291.2M291.2,57.2V36.4H323M323,36.4V21.7H354.8M354.8,21.7V11.9H386.6M386.6,11.9V7H418.4M386.6,11.9V16.8H418.4M354.8,21.7V31.5H386.6M386.6,31.5V26.6H418.4M386.6,31.5V36.4H418.4M323,36.4V51.1H354.8M354.8,51.1V46.2H386.6M354.8,51.1V56H386.6M291.2,57.2V78H323M323,78V70.6H354.8M354.8,70.6V65.8H386.6M354.8,70.6V75.5H386.6M323,78V85.3H354.8M259.4,78.6V100H291.2M291.2,100V95.1H323M291.2,100V104.9H323M227.6,111.6V144.7H259.4M259.4,144.7V135.5H291.2M291.2,135.5V126.9H323M323,126.9V119.6H354.8M354.8,119.6V114.7H386.6M354.8,119.6V124.5H386.6M323,126.9V134.3H354.8M291.2,135.5V144.1H323M259.4,144.7V153.9H291.2M195.8,185.9V260.1H227.6M227.6,260.1V234.1H259.4M259.4,234.1V212.8H291.2M291.2,212.8V203.1H323M323,203.1V193.7H354.8M354.8,193.7V184.5H386.6M386.6,184.5V175.9H418.4M418.4,175.9V168.6H450.2M450.2,168.6V163.7H482M450.2,168.6V173.5H482M418.4,175.9V183.2H450.2M386.6,184.5V193H418.4M354.8,193.7V202.8H386.6M323,203.1V212.6H354.8M291.2,212.8V222.4H323M259.4,234.1V255.5H291.2M291.2,255.5V244.4H323M323,244.4V237.1H354.8M354.8,237.1V232.2H386.6M354.8,237.1V242H386.6M323,244.4V251.8H354.8M291.2,255.5V266.5H323M323,266.5V261.6H354.8M323,266.5V271.4H354.8M227.6,260.1V286.1H259.4M259.4,286.1V281.2H291.2M259.4,286.1V291H291.2M164,243.3V300.8H195.8M132.2,276.9V310.5H164M100.4,345.9V414.9H132.2M132.2,414.9V385.3H164M164,385.3V371.9H195.8M195.8,371.9V359.8H227.6M227.6,359.8V350.3H259.4M259.4,350.3V341.1H291.2M291.2,341.1V332.6H323M323,332.6V325.2H354.8M354.8,325.2V320.3H386.6M354.8,325.2V330.1H386.6M323,332.6V339.9H354.8M291.2,341.1V349.7H323M259.4,350.3V359.5H291.2M227.6,359.8V369.3H259.4M195.8,371.9V384H227.6M227.6,384V379.1H259.4M227.6,384V388.9H259.4M164,385.3V398.7H195.8M132.2,414.9V444.6H164M259.4,413.4V418.2H291.2M164,444.6V457.4H195.8M68.6,493.3V640.7H100.4M100.4,640.7V618.3H132.2M132.2,618.3V583.4H164M164,583.4V540.3H195.8M195.8,540.3V525.3H227.6M227.6,525.3V510H259.4M259.4,510V494.1H291.2M291.2,494.1V479.4H323M323,479.4V472.1H354.8M354.8,472.1V467.2H386.6M354.8,472.1V477H386.6M323,479.4V486.8H354.8M291.2,494.1V508.8H323M323,508.8V501.5H354.8M354.8,501.5V496.6H386.6M354.8,501.5V506.4H386.6M323,508.8V516.2H354.8M259.4,510V526H291.2M227.6,525.3V540.6H259.4M259.4,540.6V535.8H291.2M259.4,540.6V545.5H291.2M195.8,540.3V555.3H227.6M164,583.4V626.4H195.8M195.8,626.4V614.2H227.6M227.6,614.2V604.6H259.4M259.4,604.6V595.1H291.2M291.2,595.1V585.9H323M323,585.9V577.4H354.8M354.8,577.4V570H386.6M386.6,570V565.1H418.4M386.6,570V574.9H418.4M354.8,577.4V584.7H386.6M323,585.9V594.5H354.8M291.2,595.1V604.3H323M259.4,604.6V614.1H291.2M227.6,614.2V623.9H259.4M195.8,626.4V638.6H227.6M227.6,638.6V633.7H259.4M227.6,638.6V643.5H259.4M132.2,618.3V653.2H164M100.4,640.7V663H132.2M36.8,593.5V693.6H68.6M68.6,693.6V685.1H100.4M100.4,685.1V677.7H132.2M132.2,677.7V672.8H164M132.2,677.7V682.6H164M100.4,685.1V692.4H132.2M68.6,693.6V702.2H100.4M5,652.7V712H36.8" stroke="#fc8d59"></path><path d="M164,444.6V431.7H195.8M195.8,431.7V420.7H227.6M227.6,420.7V413.4H259.4M259.4,413.4V408.5H291.2M227.6,420.7V428H259.4M195.8,431.7V442.7H227.6M227.6,442.7V437.8H259.4M227.6,442.7V447.6H259.4" stroke="#91bfdb"></path><text x="38.8" y="596.5" class="node" fill="#D75376">0.05</text><text x="70.6" y="496.3" class="node" fill="#D75376">0.05</text><text x="102.4" y="348.9" class="node" fill="#5776E2">0.97</text><text x="134.2" y="279.9" class="node" fill="#4A6FE3">1</text><text x="166" y="246.3" class="node" fill="#5776E2">0.97</text><text x="197.8" y="188.9" class="node" fill="#D75376">0.05</text><text x="229.6" y="114.6" class="node" fill="#D75376">0.05</text><text x="261.4" y="81.6" class="node" fill="#D75376">0.05</text><text x="293.2" y="60.2" class="node" fill="#D75376">0.05</text><text x="325" y="39.4" class="node" fill="#4A6FE3">1</text><text x="356.8" y="24.7" class="node" fill="#E3DFE0">0.49</text><text x="388.6" y="14.9" class="node" fill="#4A6FE3">1</text><text x="388.6" y="34.5" class="node" fill="#D75376">0.05</text><text x="356.8" y="54.1" class="node" fill="#D75376">0.05</text><text x="325" y="81" class="node" fill="#D75376">0.05</text><text x="356.8" y="73.6" class="node" fill="#D75376">0.05</text><text x="293.2" y="103" class="node" fill="#D75376">0.05</text><text x="261.4" y="147.7" class="node" fill="#D75376">0.05</text><text x="293.2" y="138.5" class="node" fill="#4A6FE3">1</text><text x="325" y="129.9" class="node" fill="#4A6FE3">1</text><text x="356.8" y="122.6" class="node" fill="#5776E2">0.97</text><text x="229.6" y="263.1" class="node" fill="#5776E2">0.97</text><text x="261.4" y="237.1" class="node" fill="#DF798F">0.16</text><text x="293.2" y="215.8" class="node" fill="#DC6884">0.11</text><text x="325" y="206.1" class="node" fill="#E18297">0.19</text><text x="356.8" y="196.7" class="node" fill="#E18297">0.19</text><text x="388.6" y="187.5" class="node" fill="#5F7BE1">0.95</text><text x="420.4" y="178.9" class="node" fill="#5F7BE1">0.95</text><text x="452.2" y="171.6" class="node" fill="#D75376">0.05</text><text x="293.2" y="258.5" class="node" fill="#DE728B">0.14</text><text x="325" y="247.4" class="node" fill="#7388E1">0.89</text><text x="356.8" y="240.1" class="node" fill="#4A6FE3">1</text><text x="325" y="269.5" class="node" fill="#4A6FE3">1</text><text x="261.4" y="289.1" class="node" fill="#D75376">0.05</text><text x="134.2" y="417.9" class="node" fill="#D75376">0.05</text><text x="166" y="388.3" class="node" fill="#CACDE3">0.59</text><text x="197.8" y="374.9" class="node" fill="#D75376">0.05</text><text x="229.6" y="362.8" class="node" fill="#5776E2">0.97</text><text x="261.4" y="353.3" class="node" fill="#E38C9E">0.22</text><text x="293.2" y="344.1" class="node" fill="#5776E2">0.97</text><text x="325" y="335.6" class="node" fill="#4A6FE3">1</text><text x="356.8" y="328.2" class="node" fill="#E5A5B1">0.3</text><text x="229.6" y="387" class="node" fill="#D75376">0.05</text><text x="166" y="447.6" class="node" fill="#DA5E7D">0.08</text><text x="197.8" y="434.7" class="node" fill="#D75376">0.05</text><text x="229.6" y="423.7" class="node" fill="#DA5E7D">0.08</text><text x="261.4" y="416.4" class="node" fill="#E0E0E2">0.51</text><text x="229.6" y="445.7" class="node" fill="#8C9BE1">0.81</text><text x="102.4" y="643.7" class="node" fill="#D75376">0.05</text><text x="134.2" y="621.3" class="node" fill="#D75376">0.05</text><text x="166" y="586.4" class="node" fill="#D75376">0.05</text><text x="197.8" y="543.3" class="node" fill="#D75376">0.05</text><text x="229.6" y="528.3" class="node" fill="#E3DFE0">0.49</text><text x="261.4" y="513" class="node" fill="#4A6FE3">1</text><text x="293.2" y="497.1" class="node" fill="#D75376">0.05</text><text x="325" y="482.4" class="node" fill="#E6BDC5">0.38</text><text x="356.8" y="475.1" class="node" fill="#95A1E2">0.78</text><text x="325" y="511.8" class="node" fill="#CACDE3">0.59</text><text x="356.8" y="504.5" class="node" fill="#4A6FE3">1</text><text x="261.4" y="543.6" class="node" fill="#D75376">0.05</text><text x="197.8" y="629.4" class="node" fill="#D75376">0.05</text><text x="229.6" y="617.2" class="node" fill="#5F7BE1">0.95</text><text x="261.4" y="607.6" class="node" fill="#DA5E7D">0.08</text><text x="293.2" y="598.1" class="node" fill="#DA5E7D">0.08</text><text x="325" y="588.9" class="node" fill="#DA5E7D">0.08</text><text x="356.8" y="580.4" class="node" fill="#4A6FE3">1</text><text x="388.6" y="573" class="node" fill="#5776E2">0.97</text><text x="229.6" y="641.6" class="node" fill="#4A6FE3">1</text><text x="70.6" y="696.6" class="node" fill="#4A6FE3">1</text><text x="102.4" y="688.1" class="node" fill="#E4D6D8">0.46</text><text x="134.2" y="680.7" class="node" fill="#D75376">0.05</text></svg>
