<svg xmlns="http://www.w3.org/2000/svg" version="1.1" viewBox="0 0 682 720" preserveAspectRatio="xMidYMid meet" class="tree" data-char="192"><text x="678" y="12.7" text-anchor="end" class="stepsLabel">Character adds <tspan class="score">2</tspan> to tree score</text><text x="678" y="22.4" text-anchor="end" class="stepsLabel"><tspan class="score">0</tspan> additional regions</text><text x="678" y="32.1" text-anchor="end" class="stepsLabel"></text><text x="678" y="51.5" text-anchor="end" class="stepsLabel"><tspan dy="16" fill="#34caaf">An optimal tree under:</tspan><tspan x="680" style="font-style:italic" class="notThisAn" dy="1.2em">Implied weights, k = 4.5</tspan><tspan x="680" style="font-style:italic" class="notThisAn" dy="1.2em">IW, k = 10.5</tspan><tspan x="680" style="font-style:italic" class="notThisAn" dy="1.2em">IW, k = 24</tspan><tspan x="680" style="font-style:italic" class="thisAn" dy="1.2em">Equal weights</tspan></text><text x="300.3" y="617.1" fill="#91bfdb" class="flag">[1]</text><text x="322.3" y="617.1" fill="#000" class="taxonLabel">Capitella</text><text x="300.3" y="626.9" fill="grey" class="flag">[?]</text><text x="322.3" y="626.9" fill="#999" class="taxonLabel">Canadia spinosa</text><text x="277.6" y="636.7" fill="#91bfdb" class="flag">[1]</text><text x="299.6" y="636.7" fill="#000" class="taxonLabel">Serpula</text><text x="254.9" y="646.5" fill="#91bfdb" class="flag">[1]</text><text x="276.9" y="646.5" fill="#000" class="taxonLabel">Sipunculus</text><text x="345.7" y="577.9" fill="grey" class="flag">[?]</text><text x="367.7" y="577.9" fill="#999" class="taxonLabel">Pojetaia runnegari</text><text x="345.7" y="587.7" fill="#91bfdb" class="flag">[1]</text><text x="367.7" y="587.7" fill="#000" class="taxonLabel">Mytilus</text><text x="368.4" y="548.5" fill="#fc8d59" class="flag">[0]</text><text x="390.4" y="548.5" fill="#000" class="taxonLabel">Neopilina</text><text x="368.4" y="558.3" fill="#fc8d59" class="flag">[0]</text><text x="390.4" y="558.3" fill="#000" class="taxonLabel">Haliotis</text><text x="345.7" y="568.1" fill="grey" class="flag">[?]</text><text x="367.7" y="568.1" fill="#999" class="taxonLabel">Conocardium elongatum</text><text x="300.3" y="597.5" fill="#fc8d59" class="flag">[0]</text><text x="322.3" y="597.5" fill="#000" class="taxonLabel">Dentalium</text><text x="323" y="529" fill="grey" class="flag">[?]</text><text x="345" y="529" fill="#999" class="taxonLabel">Wiwaxia corrugata</text><text x="323" y="538.8" fill="grey" class="flag">[?]</text><text x="345" y="538.8" fill="#999" class="taxonLabel">Odontogriphus omalus</text><text x="368.4" y="509.4" fill="#fc8d59" class="flag">[0]</text><text x="390.4" y="509.4" fill="#000" class="taxonLabel">Wirenia</text><text x="368.4" y="519.2" fill="#fc8d59" class="flag">[0]</text><text x="390.4" y="519.2" fill="#000" class="taxonLabel">Chaetoderma</text><text x="391.1" y="480" fill="grey" class="flag">[?]</text><text x="413.1" y="480" fill="#999" class="taxonLabel">Phthipodochiton thraivensis</text><text x="391.1" y="489.8" fill="grey" class="flag">[?]</text><text x="413.1" y="489.8" fill="#999" class="taxonLabel">Kulindroplax perissokomos</text><text x="368.4" y="499.6" fill="grey" class="flag">[?]</text><text x="390.4" y="499.6" fill="#999" class="taxonLabel">Acaenoplax hayae</text><text x="459.3" y="411.5" fill="#fc8d59" class="flag">[0]</text><text x="481.3" y="411.5" fill="#000" class="taxonLabel">Tonicella</text><text x="459.3" y="421.2" fill="#fc8d59" class="flag">[0]</text><text x="481.3" y="421.2" fill="#000" class="taxonLabel">Mopalia</text><text x="436.6" y="431" fill="#fc8d59" class="flag">[0]</text><text x="458.6" y="431" fill="#000" class="taxonLabel">Leptochiton</text><text x="413.9" y="440.8" fill="grey" class="flag">[?]</text><text x="435.9" y="440.8" fill="#999" class="taxonLabel">Glaphurochiton carbonarius</text><text x="391.1" y="450.6" fill="grey" class="flag">[?]</text><text x="413.1" y="450.6" fill="#999" class="taxonLabel">Calvapilosa kroegeri</text><text x="368.4" y="460.4" fill="grey" class="flag">[?]</text><text x="390.4" y="460.4" fill="#999" class="taxonLabel">Siphogonuchites multa</text><text x="345.7" y="470.2" fill="grey" class="flag">[?]</text><text x="367.7" y="470.2" fill="#999" class="taxonLabel">Polysacos vickersianum</text><text x="254.9" y="607.3" fill="grey" class="flag">[?]</text><text x="276.9" y="607.3" fill="#999" class="taxonLabel">Pelagiella</text><text x="209.4" y="656.2" fill="grey" class="flag">[?]</text><text x="231.4" y="656.2" fill="#999" class="taxonLabel">Bactrotheca</text><text x="186.7" y="666" fill="grey" class="flag">[?]</text><text x="208.7" y="666" fill="#999" class="taxonLabel">Cupitheca holocyclata</text><text x="277.6" y="362.5" fill="grey" class="flag">[?]</text><text x="299.6" y="362.5" fill="#999" class="taxonLabel">Mickwitzia muralensis</text><text x="277.6" y="372.3" fill="grey" class="flag">[?]</text><text x="299.6" y="372.3" fill="#999" class="taxonLabel">Heliomedusa orienta</text><text x="368.4" y="323.3" fill="#fc8d59" class="flag">[0]</text><text x="390.4" y="323.3" fill="#000" class="taxonLabel">Novocrania</text><text x="368.4" y="333.1" fill="grey" class="flag">[?]</text><text x="390.4" y="333.1" fill="#999" class="taxonLabel">Craniops</text><text x="345.7" y="342.9" fill="grey" class="flag">[?]</text><text x="367.7" y="342.9" fill="#999" class="taxonLabel">Ussunia</text><text x="323" y="352.7" fill="grey" class="flag">[?]</text><text x="345" y="352.7" fill="#999" class="taxonLabel">Gasconsia</text><text x="413.9" y="274.4" fill="grey" class="flag">[?]</text><text x="435.9" y="274.4" fill="#999" class="taxonLabel">Pelagodiscus atlanticus</text><text x="413.9" y="284.2" fill="grey" class="flag">[?]</text><text x="435.9" y="284.2" fill="#999" class="taxonLabel">Mummpikia nuda</text><text x="482" y="225.4" fill="grey" class="flag">[?]</text><text x="504" y="225.4" fill="#999" class="taxonLabel">Siphonobolus priscus</text><text x="482" y="235.2" fill="grey" class="flag">[?]</text><text x="504" y="235.2" fill="#999" class="taxonLabel">Acanthotretella spinosa</text><text x="459.3" y="245" fill="grey" class="flag">[?]</text><text x="481.3" y="245" fill="#999" class="taxonLabel">Clupeafumosus socialis</text><text x="436.6" y="254.8" fill="grey" class="flag">[?]</text><text x="458.6" y="254.8" fill="#999" class="taxonLabel">Lingulosacculus</text><text x="413.9" y="264.6" fill="grey" class="flag">[?]</text><text x="435.9" y="264.6" fill="#999" class="taxonLabel">Lingulellotreta malongensis</text><text x="368.4" y="294" fill="grey" class="flag">[?]</text><text x="390.4" y="294" fill="#999" class="taxonLabel">Botsfordia</text><text x="345.7" y="303.8" fill="grey" class="flag">[?]</text><text x="367.7" y="303.8" fill="#999" class="taxonLabel">Eoobolus</text><text x="323" y="313.5" fill="#fc8d59" class="flag">[0]</text><text x="345" y="313.5" fill="#000" class="taxonLabel">Lingula</text><text x="323" y="205.8" fill="grey" class="flag">[?]</text><text x="345" y="205.8" fill="#999" class="taxonLabel">Micromitra</text><text x="323" y="215.6" fill="grey" class="flag">[?]</text><text x="345" y="215.6" fill="#999" class="taxonLabel">Askepasma toddense</text><text x="391.1" y="166.7" fill="grey" class="flag">[?]</text><text x="413.1" y="166.7" fill="#999" class="taxonLabel">Yuganotheca elegans</text><text x="391.1" y="176.5" fill="grey" class="flag">[?]</text><text x="413.1" y="176.5" fill="#999" class="taxonLabel">Tomteluva perturbata</text><text x="368.4" y="186.2" fill="grey" class="flag">[?]</text><text x="390.4" y="186.2" fill="#999" class="taxonLabel">Longtancunella chengjiangensis</text><text x="391.1" y="147.1" fill="grey" class="flag">[?]</text><text x="413.1" y="147.1" fill="#999" class="taxonLabel">Coolinia pecten</text><text x="391.1" y="156.9" fill="grey" class="flag">[?]</text><text x="413.1" y="156.9" fill="#999" class="taxonLabel">Antigonambonites planus</text><text x="482" y="88.3" fill="grey" class="flag">[?]</text><text x="504" y="88.3" fill="#999" class="taxonLabel">Terebratulina</text><text x="482" y="98.1" fill="grey" class="flag">[?]</text><text x="504" y="98.1" fill="#999" class="taxonLabel">Orthis</text><text x="459.3" y="107.9" fill="grey" class="flag">[?]</text><text x="481.3" y="107.9" fill="#999" class="taxonLabel">Alisina</text><text x="436.6" y="117.7" fill="grey" class="flag">[?]</text><text x="458.6" y="117.7" fill="#999" class="taxonLabel">Glyptoria</text><text x="413.9" y="127.5" fill="grey" class="flag">[?]</text><text x="435.9" y="127.5" fill="#999" class="taxonLabel">Nisusia sulcata</text><text x="391.1" y="137.3" fill="grey" class="flag">[?]</text><text x="413.1" y="137.3" fill="#999" class="taxonLabel">Kutorgina chengjiangensis</text><text x="323" y="196" fill="grey" class="flag">[?]</text><text x="345" y="196" fill="#999" class="taxonLabel">Salanygolina</text><text x="232.1" y="382.1" fill="grey" class="flag">[?]</text><text x="254.1" y="382.1" fill="#999" class="taxonLabel">Micrina</text><text x="209.4" y="391.9" fill="grey" class="flag">[?]</text><text x="231.4" y="391.9" fill="#999" class="taxonLabel">Paterimitra</text><text x="186.7" y="401.7" fill="grey" class="flag">[?]</text><text x="208.7" y="401.7" fill="#999" class="taxonLabel">Pedunculotheca diania</text><text x="141.3" y="675.8" fill="grey" class="flag">[?]</text><text x="163.3" y="675.8" fill="#999" class="taxonLabel">Paramicrocornus</text><text x="118.6" y="685.6" fill="grey" class="flag">[?]</text><text x="140.6" y="685.6" fill="#999" class="taxonLabel">Haplophrentis carinatus</text><text x="95.9" y="695.4" fill="grey" class="flag">[?]</text><text x="117.9" y="695.4" fill="#999" class="taxonLabel">Halkieria evangelista</text><text x="73.1" y="705.2" fill="grey" class="flag">[?]</text><text x="95.1" y="705.2" fill="#999" class="taxonLabel">Orthrozanclus</text><text x="209.4" y="10" fill="#fc8d59" class="flag">[0]</text><text x="231.4" y="10" fill="#000" class="taxonLabel">Flustra</text><text x="209.4" y="19.8" fill="#fc8d59" class="flag">[0]</text><text x="231.4" y="19.8" fill="#000" class="taxonLabel">Amathia</text><text x="186.7" y="29.6" fill="#fc8d59" class="flag">[0]</text><text x="208.7" y="29.6" fill="#000" class="taxonLabel">Loxosomella</text><text x="164" y="39.4" fill="#fc8d59" class="flag">[0]</text><text x="186" y="39.4" fill="#000" class="taxonLabel">Phoronis</text><text x="141.3" y="49.2" fill="grey" class="flag">[?]</text><text x="163.3" y="49.2" fill="#999" class="taxonLabel">Namacalathus</text><text x="118.6" y="59" fill="grey" class="flag">[?]</text><text x="140.6" y="59" fill="#999" class="taxonLabel">Cotyledion tylodes</text><text x="95.9" y="68.8" fill="grey" class="flag">[?]</text><text x="117.9" y="68.8" fill="#999" class="taxonLabel">Eccentrotheca</text><text x="73.1" y="78.5" fill="grey" class="flag">[?]</text><text x="95.1" y="78.5" fill="#999" class="taxonLabel">Dailyatia</text><text x="27.7" y="715" fill="grey" class="flag">[?]</text><text x="49.7" y="715" fill="#999" class="taxonLabel">Yilingia spiciformis</text><path d="M5,543.4V374.8H27.7M27.7,374.8V65.8H50.4M50.4,65.8V56.1H73.1M73.1,56.1V46.5H95.9M95.9,46.5V37H118.6M118.6,37V27.8H141.3M141.3,27.8V19.2H164M164,19.2V11.9H186.7M186.7,11.9V7H209.4M186.7,11.9V16.8H209.4M164,19.2V26.6H186.7M141.3,27.8V36.4H164M118.6,37V46.2H141.3M95.9,46.5V56H118.6M73.1,56.1V65.8H95.9M50.4,65.8V75.5H73.1M27.7,374.8V683.7H50.4M50.4,683.7V665.3H73.1M73.1,665.3V638.1H95.9M95.9,638.1V593.6H118.6M118.6,593.6V514.3H141.3M141.3,514.3V382.7H164M164,382.7V366.7H186.7M186.7,366.7V344.6H209.4M209.4,344.6V310.1H232.1M232.1,310.1V255.9H254.9M254.9,255.9V191.2H277.6M277.6,191.2V174.7H300.3M300.3,174.7V156.4H323M323,156.4V136.9H345.7M345.7,136.9V124.8H368.4M368.4,124.8V115.3H391.1M391.1,115.3V106.1H413.9M413.9,106.1V97.6H436.6M436.6,97.6V90.2H459.3M459.3,90.2V85.3H482M459.3,90.2V95.1H482M436.6,97.6V104.9H459.3M413.9,106.1V114.7H436.6M391.1,115.3V124.5H413.9M368.4,124.8V134.3H391.1M345.7,136.9V149H368.4M368.4,149V144.1H391.1M368.4,149V153.9H391.1M323,156.4V175.9H345.7M345.7,175.9V168.6H368.4M368.4,168.6V163.7H391.1M368.4,168.6V173.5H391.1M345.7,175.9V183.2H368.4M300.3,174.7V193H323M277.6,191.2V207.7H300.3M300.3,207.7V202.8H323M300.3,207.7V212.6H323M254.9,255.9V320.5H277.6M277.6,320.5V299.9H300.3M300.3,299.9V289.2H323M323,289.2V277.6H345.7M345.7,277.6V264.3H368.4M368.4,264.3V252.4H391.1M391.1,252.4V243.2H413.9M413.9,243.2V234.7H436.6M436.6,234.7V227.3H459.3M459.3,227.3V222.4H482M459.3,227.3V232.2H482M436.6,234.7V242H459.3M413.9,243.2V251.8H436.6M391.1,252.4V261.6H413.9M368.4,264.3V276.3H391.1M391.1,276.3V271.4H413.9M391.1,276.3V281.2H413.9M345.7,277.6V291H368.4M323,289.2V300.8H345.7M300.3,299.9V310.5H323M277.6,320.5V341.1H300.3M300.3,341.1V332.6H323M323,332.6V325.2H345.7M345.7,325.2V320.3H368.4M345.7,325.2V330.1H368.4M323,332.6V339.9H345.7M300.3,341.1V349.7H323M232.1,310.1V364.4H254.9M254.9,364.4V359.5H277.6M254.9,364.4V369.3H277.6M209.4,344.6V379.1H232.1M186.7,366.7V388.9H209.4M164,382.7V398.7H186.7M141.3,514.3V645.9H164M164,645.9V628.8H186.7M186.7,628.8V604.3H209.4M209.4,604.3V573.8H232.1M232.1,573.8V543.3H254.9M254.9,543.3V504.9H277.6M277.6,504.9V478.9H300.3M300.3,478.9V457.6H323M323,457.6V447.9H345.7M345.7,447.9V438.4H368.4M368.4,438.4V429.3H391.1M391.1,429.3V420.7H413.9M413.9,420.7V413.4H436.6M436.6,413.4V408.5H459.3M436.6,413.4V418.2H459.3M413.9,420.7V428H436.6M391.1,429.3V437.8H413.9M368.4,438.4V447.6H391.1M345.7,447.9V457.4H368.4M323,457.6V467.2H345.7M300.3,478.9V500.3H323M323,500.3V489.2H345.7M345.7,489.2V481.9H368.4M368.4,481.9V477H391.1M368.4,481.9V486.8H391.1M345.7,489.2V496.6H368.4M323,500.3V511.3H345.7M345.7,511.3V506.4H368.4M345.7,511.3V516.2H368.4M277.6,504.9V530.9H300.3M300.3,530.9V526H323M300.3,530.9V535.8H323M254.9,543.3V581.6H277.6M277.6,581.6V568.8H300.3M300.3,568.8V557.8H323M323,557.8V550.4H345.7M345.7,550.4V545.5H368.4M345.7,550.4V555.3H368.4M323,557.8V565.1H345.7M300.3,568.8V579.8H323M277.6,581.6V594.5H300.3M232.1,573.8V604.3H254.9M186.7,628.8V653.2H209.4M164,645.9V663H186.7M118.6,593.6V672.8H141.3M95.9,638.1V682.6H118.6M73.1,665.3V692.4H95.9M50.4,683.7V702.2H73.1M5,543.4V712H27.7" stroke="#fc8d59"></path><path d="M323,579.8V574.9H345.7" stroke="darkgrey"></path><path d="M323,579.8V584.7H345.7M209.4,604.3V634.9H232.1M232.1,634.9V626.3H254.9M254.9,626.3V619H277.6M277.6,619V614.1H300.3M277.6,619V623.9H300.3M254.9,626.3V633.7H277.6M232.1,634.9V643.5H254.9" stroke="#91bfdb"></path><text x="29.7" y="377.8" class="node" fill="#CACDE3">0.59</text><text x="52.4" y="68.8" class="node" fill="#6982E1">0.92</text><text x="75.1" y="59.1" class="node" fill="#E392A2">0.24</text><text x="97.9" y="49.5" class="node" fill="#5776E2">0.97</text><text x="120.6" y="40" class="node" fill="#D2D4E3">0.57</text><text x="143.3" y="30.8" class="node" fill="#5776E2">0.97</text><text x="166" y="22.2" class="node" fill="#4A6FE3">1</text><text x="188.7" y="14.9" class="node" fill="#6982E1">0.92</text><text x="52.4" y="686.7" class="node" fill="#6982E1">0.92</text><text x="75.1" y="668.3" class="node" fill="#6982E1">0.92</text><text x="97.9" y="641.1" class="node" fill="#E3DFE0">0.49</text><text x="120.6" y="596.6" class="node" fill="#6982E1">0.92</text><text x="143.3" y="517.3" class="node" fill="#6982E1">0.92</text><text x="166" y="385.7" class="node" fill="#5776E2">0.97</text><text x="188.7" y="369.7" class="node" fill="#4A6FE3">1</text><text x="211.4" y="347.6" class="node" fill="#5776E2">0.97</text><text x="234.1" y="313.1" class="node" fill="#6982E1">0.92</text><text x="256.9" y="258.9" class="node" fill="#5776E2">0.97</text><text x="279.6" y="194.2" class="node" fill="#5776E2">0.97</text><text x="302.3" y="177.7" class="node" fill="#E3DFE0">0.49</text><text x="325" y="159.4" class="node" fill="#8C9BE1">0.81</text><text x="347.7" y="139.9" class="node" fill="#ABB4E2">0.7</text><text x="370.4" y="127.8" class="node" fill="#E6BDC5">0.38</text><text x="393.1" y="118.3" class="node" fill="#8C9BE1">0.81</text><text x="415.9" y="109.1" class="node" fill="#5F7BE1">0.95</text><text x="438.6" y="100.6" class="node" fill="#5F7BE1">0.95</text><text x="461.3" y="93.2" class="node" fill="#4A6FE3">1</text><text x="370.4" y="152" class="node" fill="#E0E0E2">0.51</text><text x="347.7" y="178.9" class="node" fill="#7388E1">0.89</text><text x="370.4" y="171.6" class="node" fill="#4A6FE3">1</text><text x="302.3" y="210.7" class="node" fill="#5F7BE1">0.95</text><text x="279.6" y="323.5" class="node" fill="#5F7BE1">0.95</text><text x="302.3" y="302.9" class="node" fill="#5F7BE1">0.95</text><text x="325" y="292.2" class="node" fill="#5F7BE1">0.95</text><text x="347.7" y="280.6" class="node" fill="#5F7BE1">0.95</text><text x="370.4" y="267.3" class="node" fill="#5F7BE1">0.95</text><text x="393.1" y="255.4" class="node" fill="#4A6FE3">1</text><text x="415.9" y="246.2" class="node" fill="#DF798F">0.16</text><text x="438.6" y="237.7" class="node" fill="#4A6FE3">1</text><text x="461.3" y="230.3" class="node" fill="#5F7BE1">0.95</text><text x="393.1" y="279.3" class="node" fill="#5F7BE1">0.95</text><text x="302.3" y="344.1" class="node" fill="#4A6FE3">1</text><text x="325" y="335.6" class="node" fill="#4A6FE3">1</text><text x="347.7" y="328.2" class="node" fill="#5F7BE1">0.95</text><text x="256.9" y="367.4" class="node" fill="#6982E1">0.92</text><text x="166" y="648.9" class="node" fill="#6982E1">0.92</text><text x="188.7" y="631.8" class="node" fill="#5F7BE1">0.95</text><text x="211.4" y="607.3" class="node" fill="#8C9BE1">0.81</text><text x="234.1" y="576.8" class="node" fill="#E0E0E2">0.51</text><text x="256.9" y="546.3" class="node" fill="#5F7BE1">0.95</text><text x="279.6" y="507.9" class="node" fill="#5F7BE1">0.95</text><text x="302.3" y="481.9" class="node" fill="#D75376">0.05</text><text x="325" y="460.6" class="node" fill="#D54C71">0.03</text><text x="347.7" y="450.9" class="node" fill="#6982E1">0.92</text><text x="370.4" y="441.4" class="node" fill="#E0E0E2">0.51</text><text x="393.1" y="432.3" class="node" fill="#E5C7CC">0.41</text><text x="415.9" y="423.7" class="node" fill="#4A6FE3">1</text><text x="438.6" y="416.4" class="node" fill="#6982E1">0.92</text><text x="325" y="503.3" class="node" fill="#6982E1">0.92</text><text x="347.7" y="492.2" class="node" fill="#6982E1">0.92</text><text x="370.4" y="484.9" class="node" fill="#5776E2">0.97</text><text x="347.7" y="514.3" class="node" fill="#4A6FE3">1</text><text x="302.3" y="533.9" class="node" fill="#4A6FE3">1</text><text x="279.6" y="584.6" class="node" fill="#5F7BE1">0.95</text><text x="302.3" y="571.8" class="node" fill="#95A1E2">0.78</text><text x="325" y="560.8" class="node" fill="#DF798F">0.16</text><text x="347.7" y="553.4" class="node" fill="#E6BDC5">0.38</text><text x="325" y="582.8" class="node" fill="#4A6FE3">1</text><text x="234.1" y="637.9" class="node" fill="#4A6FE3">1</text><text x="256.9" y="629.3" class="node" fill="#D7D9E3">0.54</text><text x="279.6" y="622" class="node" fill="#CACDE3">0.59</text></svg>
