<svg xmlns="http://www.w3.org/2000/svg" version="1.1" viewBox="0 0 682 720" preserveAspectRatio="xMidYMid meet" class="tree" data-char="221"><text x="678" y="12.7" text-anchor="end" class="stepsLabel">Character adds <tspan class="score">2</tspan> to tree score</text><text x="678" y="22.4" text-anchor="end" class="stepsLabel"><tspan class="score">0</tspan> additional regions</text><text x="678" y="32.1" text-anchor="end" class="stepsLabel"></text><text x="678" y="51.5" text-anchor="end" class="stepsLabel"><tspan dy="16" fill="#34caaf">An optimal tree under:</tspan><tspan x="680" style="font-style:italic" class="notThisAn" dy="1.2em">Implied weights, k = 4.5</tspan><tspan x="680" style="font-style:italic" class="notThisAn" dy="1.2em">IW, k = 10.5</tspan><tspan x="680" style="font-style:italic" class="notThisAn" dy="1.2em">IW, k = 24</tspan><tspan x="680" style="font-style:italic" class="thisAn" dy="1.2em">Equal weights</tspan></text><text x="155.6" y="675.8" fill="grey" class="flag">[?]</text><text x="177.6" y="675.8" fill="#999" class="taxonLabel">Paramicrocornus</text><text x="155.6" y="685.6" fill="grey" class="flag">[?]</text><text x="177.6" y="685.6" fill="#999" class="taxonLabel">Haplophrentis carinatus</text><text x="331.4" y="607.3" fill="#91bfdb" class="flag">[2]</text><text x="353.4" y="607.3" fill="#000" class="taxonLabel">Capitella</text><text x="331.4" y="617.1" fill="grey" class="flag">[?]</text><text x="353.4" y="617.1" fill="#999" class="taxonLabel">Canadia spinosa</text><text x="306.3" y="626.9" fill="#91bfdb" class="flag">[2]</text><text x="328.3" y="626.9" fill="#000" class="taxonLabel">Serpula</text><text x="281.2" y="636.7" fill="#91bfdb" class="flag">[2]</text><text x="303.2" y="636.7" fill="#000" class="taxonLabel">Sipunculus</text><text x="256.1" y="646.5" fill="grey" class="flag">[?]</text><text x="278.1" y="646.5" fill="#999" class="taxonLabel">Pelagiella</text><text x="356.5" y="568.1" fill="grey" class="flag">[?]</text><text x="378.5" y="568.1" fill="#999" class="taxonLabel">Neopilina</text><text x="356.5" y="577.9" fill="grey" class="flag">[?]</text><text x="378.5" y="577.9" fill="#999" class="taxonLabel">Conocardium elongatum</text><text x="356.5" y="548.5" fill="grey" class="flag">[?]</text><text x="378.5" y="548.5" fill="#999" class="taxonLabel">Pojetaia runnegari</text><text x="356.5" y="558.3" fill="#91bfdb" class="flag">[2]</text><text x="378.5" y="558.3" fill="#000" class="taxonLabel">Haliotis</text><text x="306.3" y="587.7" fill="#91bfdb" class="flag">[2]</text><text x="328.3" y="587.7" fill="#000" class="taxonLabel">Mytilus</text><text x="281.2" y="597.5" fill="#91bfdb" class="flag">[2]</text><text x="303.2" y="597.5" fill="#000" class="taxonLabel">Dentalium</text><text x="306.3" y="529" fill="grey" class="flag">[?]</text><text x="328.3" y="529" fill="#999" class="taxonLabel">Wiwaxia corrugata</text><text x="306.3" y="538.8" fill="grey" class="flag">[?]</text><text x="328.3" y="538.8" fill="#999" class="taxonLabel">Odontogriphus omalus</text><text x="381.6" y="499.6" fill="#91bfdb" class="flag">[2]</text><text x="403.6" y="499.6" fill="#000" class="taxonLabel">Wirenia</text><text x="381.6" y="509.4" fill="grey" class="flag">[?]</text><text x="403.6" y="509.4" fill="#999" class="taxonLabel">Chaetoderma</text><text x="406.7" y="470.2" fill="grey" class="flag">[?]</text><text x="428.7" y="470.2" fill="#999" class="taxonLabel">Phthipodochiton thraivensis</text><text x="406.7" y="480" fill="grey" class="flag">[?]</text><text x="428.7" y="480" fill="#999" class="taxonLabel">Kulindroplax perissokomos</text><text x="381.6" y="489.8" fill="grey" class="flag">[?]</text><text x="403.6" y="489.8" fill="#999" class="taxonLabel">Acaenoplax hayae</text><text x="456.9" y="411.5" fill="#91bfdb" class="flag">[2]</text><text x="478.9" y="411.5" fill="#000" class="taxonLabel">Tonicella</text><text x="456.9" y="421.2" fill="#91bfdb" class="flag">[2]</text><text x="478.9" y="421.2" fill="#000" class="taxonLabel">Mopalia</text><text x="431.8" y="431" fill="grey" class="flag">[?]</text><text x="453.8" y="431" fill="#999" class="taxonLabel">Glaphurochiton carbonarius</text><text x="406.7" y="440.8" fill="#91bfdb" class="flag">[2]</text><text x="428.7" y="440.8" fill="#000" class="taxonLabel">Leptochiton</text><text x="381.6" y="450.6" fill="grey" class="flag">[?]</text><text x="403.6" y="450.6" fill="#999" class="taxonLabel">Calvapilosa kroegeri</text><text x="356.5" y="460.4" fill="grey" class="flag">[?]</text><text x="378.5" y="460.4" fill="#999" class="taxonLabel">Polysacos vickersianum</text><text x="306.3" y="519.2" fill="grey" class="flag">[?]</text><text x="328.3" y="519.2" fill="#999" class="taxonLabel">Siphogonuchites multa</text><text x="205.8" y="656.2" fill="grey" class="flag">[?]</text><text x="227.8" y="656.2" fill="#999" class="taxonLabel">Bactrotheca</text><text x="180.7" y="666" fill="grey" class="flag">[?]</text><text x="202.7" y="666" fill="#999" class="taxonLabel">Cupitheca holocyclata</text><text x="281.2" y="362.5" fill="grey" class="flag">[?]</text><text x="303.2" y="362.5" fill="#999" class="taxonLabel">Mickwitzia muralensis</text><text x="281.2" y="372.3" fill="grey" class="flag">[?]</text><text x="303.2" y="372.3" fill="#999" class="taxonLabel">Heliomedusa orienta</text><text x="381.6" y="323.3" fill="#e2e2a2" class="flag">[1]</text><text x="403.6" y="323.3" fill="#000" class="taxonLabel">Novocrania</text><text x="381.6" y="333.1" fill="grey" class="flag">[?]</text><text x="403.6" y="333.1" fill="#999" class="taxonLabel">Craniops</text><text x="356.5" y="342.9" fill="grey" class="flag">[?]</text><text x="378.5" y="342.9" fill="#999" class="taxonLabel">Ussunia</text><text x="331.4" y="352.7" fill="grey" class="flag">[?]</text><text x="353.4" y="352.7" fill="#999" class="taxonLabel">Gasconsia</text><text x="431.8" y="274.4" fill="#e2e2a2" class="flag">[1]</text><text x="453.8" y="274.4" fill="#000" class="taxonLabel">Pelagodiscus atlanticus</text><text x="431.8" y="284.2" fill="grey" class="flag">[?]</text><text x="453.8" y="284.2" fill="#999" class="taxonLabel">Mummpikia nuda</text><text x="482" y="245" fill="grey" class="flag">[?]</text><text x="504" y="245" fill="#999" class="taxonLabel">Siphonobolus priscus</text><text x="482" y="254.8" fill="grey" class="flag">[?]</text><text x="504" y="254.8" fill="#999" class="taxonLabel">Acanthotretella spinosa</text><text x="482" y="225.4" fill="grey" class="flag">[?]</text><text x="504" y="225.4" fill="#999" class="taxonLabel">Lingulosacculus</text><text x="482" y="235.2" fill="grey" class="flag">[?]</text><text x="504" y="235.2" fill="#999" class="taxonLabel">Clupeafumosus socialis</text><text x="431.8" y="264.6" fill="grey" class="flag">[?]</text><text x="453.8" y="264.6" fill="#999" class="taxonLabel">Lingulellotreta malongensis</text><text x="381.6" y="294" fill="grey" class="flag">[?]</text><text x="403.6" y="294" fill="#999" class="taxonLabel">Botsfordia</text><text x="356.5" y="303.8" fill="grey" class="flag">[?]</text><text x="378.5" y="303.8" fill="#999" class="taxonLabel">Eoobolus</text><text x="331.4" y="313.5" fill="#e2e2a2" class="flag">[1]</text><text x="353.4" y="313.5" fill="#000" class="taxonLabel">Lingula</text><text x="331.4" y="205.8" fill="grey" class="flag">[?]</text><text x="353.4" y="205.8" fill="#999" class="taxonLabel">Micromitra</text><text x="331.4" y="215.6" fill="grey" class="flag">[?]</text><text x="353.4" y="215.6" fill="#999" class="taxonLabel">Askepasma toddense</text><text x="406.7" y="166.7" fill="grey" class="flag">[?]</text><text x="428.7" y="166.7" fill="#999" class="taxonLabel">Yuganotheca elegans</text><text x="406.7" y="176.5" fill="grey" class="flag">[?]</text><text x="428.7" y="176.5" fill="#999" class="taxonLabel">Tomteluva perturbata</text><text x="381.6" y="186.2" fill="grey" class="flag">[?]</text><text x="403.6" y="186.2" fill="#999" class="taxonLabel">Longtancunella chengjiangensis</text><text x="356.5" y="196" fill="grey" class="flag">[?]</text><text x="378.5" y="196" fill="#999" class="taxonLabel">Salanygolina</text><text x="381.6" y="147.1" fill="grey" class="flag">[?]</text><text x="403.6" y="147.1" fill="#999" class="taxonLabel">Nisusia sulcata</text><text x="381.6" y="156.9" fill="grey" class="flag">[?]</text><text x="403.6" y="156.9" fill="#999" class="taxonLabel">Kutorgina chengjiangensis</text><text x="406.7" y="127.5" fill="grey" class="flag">[?]</text><text x="428.7" y="127.5" fill="#999" class="taxonLabel">Coolinia pecten</text><text x="406.7" y="137.3" fill="grey" class="flag">[?]</text><text x="428.7" y="137.3" fill="#999" class="taxonLabel">Antigonambonites planus</text><text x="431.8" y="107.9" fill="#e2e2a2" class="flag">[1]</text><text x="453.8" y="107.9" fill="#000" class="taxonLabel">Terebratulina</text><text x="431.8" y="117.7" fill="grey" class="flag">[?]</text><text x="453.8" y="117.7" fill="#999" class="taxonLabel">Alisina</text><text x="431.8" y="88.3" fill="grey" class="flag">[?]</text><text x="453.8" y="88.3" fill="#999" class="taxonLabel">Orthis</text><text x="431.8" y="98.1" fill="grey" class="flag">[?]</text><text x="453.8" y="98.1" fill="#999" class="taxonLabel">Glyptoria</text><text x="230.9" y="382.1" fill="grey" class="flag">[?]</text><text x="252.9" y="382.1" fill="#999" class="taxonLabel">Micrina</text><text x="205.8" y="391.9" fill="grey" class="flag">[?]</text><text x="227.8" y="391.9" fill="#999" class="taxonLabel">Paterimitra</text><text x="180.7" y="401.7" fill="grey" class="flag">[?]</text><text x="202.7" y="401.7" fill="#999" class="taxonLabel">Pedunculotheca diania</text><text x="105.4" y="695.4" fill="grey" class="flag">[?]</text><text x="127.4" y="695.4" fill="#999" class="taxonLabel">Halkieria evangelista</text><text x="80.3" y="705.2" fill="grey" class="flag">[?]</text><text x="102.3" y="705.2" fill="#999" class="taxonLabel">Orthrozanclus</text><text x="180.7" y="39.4" fill="#91bfdb" class="flag">[2]</text><text x="202.7" y="39.4" fill="#000" class="taxonLabel">Phoronis</text><text x="180.7" y="49.2" fill="grey" class="flag">[?]</text><text x="202.7" y="49.2" fill="#999" class="taxonLabel">Namacalathus</text><text x="205.8" y="10" fill="#e2e2a2" class="flag">[1]</text><text x="227.8" y="10" fill="#000" class="taxonLabel">Flustra</text><text x="205.8" y="19.8" fill="#e2e2a2" class="flag">[1]</text><text x="227.8" y="19.8" fill="#000" class="taxonLabel">Amathia</text><text x="180.7" y="29.6" fill="#91bfdb" class="flag">[2]</text><text x="202.7" y="29.6" fill="#000" class="taxonLabel">Loxosomella</text><text x="130.5" y="59" fill="grey" class="flag">[?]</text><text x="152.5" y="59" fill="#999" class="taxonLabel">Eccentrotheca</text><text x="105.4" y="68.8" fill="grey" class="flag">[?]</text><text x="127.4" y="68.8" fill="#999" class="taxonLabel">Cotyledion tylodes</text><text x="80.3" y="78.5" fill="grey" class="flag">[?]</text><text x="102.3" y="78.5" fill="#999" class="taxonLabel">Dailyatia</text><text x="30.1" y="715" fill="grey" class="flag">[?]</text><text x="52.1" y="715" fill="#999" class="taxonLabel">Yilingia spiciformis</text><path d="M5,540.5V369H30.1M30.1,369V65H55.2M55.2,65V54.4H80.3M80.3,54.4V43.1H105.4M105.4,43.1V30.3H130.5M130.5,30.3V19.2H155.6M155.6,19.2V26.6H180.7M130.5,30.3V41.3H155.6M155.6,41.3V36.4H180.7M155.6,41.3V46.2H180.7M105.4,43.1V56H130.5M80.3,54.4V65.8H105.4M55.2,65V75.5H80.3M30.1,369V673H55.2M55.2,673V643.8H80.3M80.3,643.8V595.1H105.4M105.4,595.1V512.5H130.5M130.5,512.5V382.4H155.6M130.5,512.5V642.6H155.6M155.6,642.6V622.1H180.7M180.7,622.1V591H205.8M205.8,591V547.6H230.9M230.9,547.6V511.8H256.1M256.1,511.8V492.7H281.2M281.2,492.7V469.2H306.3M306.3,469.2V447.9H331.4M331.4,447.9V438.4H356.5M356.5,438.4V429.3H381.6M381.6,429.3V420.7H406.7M406.7,420.7V413.4H431.8M431.8,413.4V408.5H456.9M431.8,413.4V418.2H456.9M406.7,420.7V428H431.8M381.6,429.3V437.8H406.7M356.5,438.4V447.6H381.6M331.4,447.9V457.4H356.5M306.3,469.2V490.5H331.4M331.4,490.5V479.4H356.5M356.5,479.4V472.1H381.6M381.6,472.1V467.2H406.7M381.6,472.1V477H406.7M356.5,479.4V486.8H381.6M331.4,490.5V501.5H356.5M356.5,501.5V496.6H381.6M356.5,501.5V506.4H381.6M281.2,492.7V516.2H306.3M256.1,511.8V530.9H281.2M281.2,530.9V526H306.3M281.2,530.9V535.8H306.3M230.9,547.6V583.5H256.1M256.1,583.5V572.5H281.2M281.2,572.5V560.2H306.3M306.3,560.2V550.4H331.4M331.4,550.4V545.5H356.5M331.4,550.4V555.3H356.5M306.3,560.2V570H331.4M331.4,570V565.1H356.5M331.4,570V574.9H356.5M281.2,572.5V584.7H306.3M256.1,583.5V594.5H281.2M205.8,591V634.3H230.9M230.9,634.3V625.1H256.1M256.1,625.1V616.5H281.2M281.2,616.5V609.2H306.3M306.3,609.2V604.3H331.4M306.3,609.2V614.1H331.4M281.2,616.5V623.9H306.3M256.1,625.1V633.7H281.2M230.9,634.3V643.5H256.1M180.7,622.1V653.2H205.8M155.6,642.6V663H180.7M105.4,595.1V677.7H130.5M130.5,677.7V672.8H155.6M130.5,677.7V682.6H155.6M80.3,643.8V692.4H105.4M55.2,673V702.2H80.3M5,540.5V712H30.1" stroke="#91bfdb"></path><path d="M155.6,19.2V11.9H180.7M180.7,11.9V7H205.8M180.7,11.9V16.8H205.8M230.9,308V251.7H256.1M256.1,251.7V182.9H281.2M281.2,182.9V158.2H306.3M306.3,158.2V131.8H331.4M331.4,131.8V114.7H356.5M356.5,114.7V100H381.6M381.6,100V90.2H406.7M406.7,90.2V85.3H431.8M406.7,90.2V95.1H431.8M381.6,100V109.8H406.7M406.7,109.8V104.9H431.8M406.7,109.8V114.7H431.8M356.5,114.7V129.4H381.6M381.6,129.4V124.5H406.7M381.6,129.4V134.3H406.7M331.4,131.8V149H356.5M356.5,149V144.1H381.6M356.5,149V153.9H381.6M306.3,158.2V184.5H331.4M331.4,184.5V175.9H356.5M356.5,175.9V168.6H381.6M381.6,168.6V163.7H406.7M381.6,168.6V173.5H406.7M356.5,175.9V183.2H381.6M331.4,184.5V193H356.5M281.2,182.9V207.7H306.3M306.3,207.7V202.8H331.4M306.3,207.7V212.6H331.4M256.1,251.7V320.4H281.2M281.2,320.4V299.7H306.3M306.3,299.7V288.8H331.4M331.4,288.8V276.9H356.5M356.5,276.9V262.8H381.6M381.6,262.8V249.3H406.7M406.7,249.3V237.1H431.8M431.8,237.1V227.3H456.9M456.9,227.3V222.4H482M456.9,227.3V232.2H482M431.8,237.1V246.9H456.9M456.9,246.9V242H482M456.9,246.9V251.8H482M406.7,249.3V261.6H431.8M381.6,262.8V276.3H406.7M406.7,276.3V271.4H431.8M406.7,276.3V281.2H431.8M356.5,276.9V291H381.6M331.4,288.8V300.8H356.5M306.3,299.7V310.5H331.4M281.2,320.4V341.1H306.3M306.3,341.1V332.6H331.4M331.4,332.6V325.2H356.5M356.5,325.2V320.3H381.6M356.5,325.2V330.1H381.6M331.4,332.6V339.9H356.5M306.3,341.1V349.7H331.4" stroke="#e2e2a2"></path><path d="M155.6,382.4V366.2H180.7M180.7,366.2V343.6H205.8M205.8,343.6V308H230.9M230.9,308V364.4H256.1M256.1,364.4V359.5H281.2M256.1,364.4V369.3H281.2M205.8,343.6V379.1H230.9M180.7,366.2V388.9H205.8M155.6,382.4V398.7H180.7" stroke="darkgrey"></path><text x="32.1" y="372" class="node" fill="#E6B4BD">0.35</text><text x="57.2" y="68" class="node" fill="#C7CBE3">0.6</text><text x="82.3" y="57.4" class="node" fill="#E498A7">0.26</text><text x="107.4" y="46.1" class="node" fill="#C7CBE3">0.6</text><text x="132.5" y="33.3" class="node" fill="#C7CBE3">0.6</text><text x="157.6" y="22.2" class="node" fill="#4A6FE3">1</text><text x="182.7" y="14.9" class="node" fill="#DD6C86">0.12</text><text x="157.6" y="44.3" class="node" fill="#C7CBE3">0.6</text><text x="57.2" y="676" class="node" fill="#C7CBE3">0.6</text><text x="82.3" y="646.8" class="node" fill="#C7CBE3">0.6</text><text x="107.4" y="598.1" class="node" fill="#C7CBE3">0.6</text><text x="132.5" y="515.5" class="node" fill="#C7CBE3">0.6</text><text x="157.6" y="385.4" class="node" fill="#C7CBE3">0.6</text><text x="182.7" y="369.2" class="node" fill="#4A6FE3">1</text><text x="207.8" y="346.6" class="node" fill="#C7CBE3">0.6</text><text x="232.9" y="311" class="node" fill="#C7CBE3">0.6</text><text x="258.1" y="254.7" class="node" fill="#C7CBE3">0.6</text><text x="283.2" y="185.9" class="node" fill="#C7CBE3">0.6</text><text x="308.3" y="161.2" class="node" fill="#DADBE3">0.53</text><text x="333.4" y="134.8" class="node" fill="#D95A7A">0.07</text><text x="358.5" y="117.7" class="node" fill="#DADBE3">0.53</text><text x="383.6" y="103" class="node" fill="#D64F73">0.04</text><text x="408.7" y="93.2" class="node" fill="#D64F73">0.04</text><text x="408.7" y="112.8" class="node" fill="#4A6FE3">1</text><text x="383.6" y="132.4" class="node" fill="#A6AFE2">0.72</text><text x="358.5" y="152" class="node" fill="#E38FA0">0.23</text><text x="333.4" y="187.5" class="node" fill="#E6AEB8">0.33</text><text x="358.5" y="178.9" class="node" fill="#D7D9E3">0.54</text><text x="383.6" y="171.6" class="node" fill="#4A6FE3">1</text><text x="308.3" y="210.7" class="node" fill="#4A6FE3">1</text><text x="283.2" y="323.4" class="node" fill="#4A6FE3">1</text><text x="308.3" y="302.7" class="node" fill="#4A6FE3">1</text><text x="333.4" y="291.8" class="node" fill="#4A6FE3">1</text><text x="358.5" y="279.9" class="node" fill="#4A6FE3">1</text><text x="383.6" y="265.8" class="node" fill="#4A6FE3">1</text><text x="408.7" y="252.3" class="node" fill="#4A6FE3">1</text><text x="433.8" y="240.1" class="node" fill="#E6C1C7">0.39</text><text x="458.9" y="230.3" class="node" fill="#4A6FE3">1</text><text x="458.9" y="249.9" class="node" fill="#4A6FE3">1</text><text x="408.7" y="279.3" class="node" fill="#4A6FE3">1</text><text x="308.3" y="344.1" class="node" fill="#4A6FE3">1</text><text x="333.4" y="335.6" class="node" fill="#4A6FE3">1</text><text x="358.5" y="328.2" class="node" fill="#4A6FE3">1</text><text x="258.1" y="367.4" class="node" fill="#C7CBE3">0.6</text><text x="157.6" y="645.6" class="node" fill="#C7CBE3">0.6</text><text x="182.7" y="625.1" class="node" fill="#4A6FE3">1</text><text x="207.8" y="594" class="node" fill="#E6AEB8">0.33</text><text x="232.9" y="550.6" class="node" fill="#C4C9E3">0.61</text><text x="258.1" y="514.8" class="node" fill="#4A6FE3">1</text><text x="283.2" y="495.7" class="node" fill="#D2D4E3">0.56</text><text x="308.3" y="472.2" class="node" fill="#5B78E2">0.96</text><text x="333.4" y="450.9" class="node" fill="#C7CBE3">0.6</text><text x="358.5" y="441.4" class="node" fill="#E6AEB8">0.33</text><text x="383.6" y="432.3" class="node" fill="#DE728B">0.14</text><text x="408.7" y="423.7" class="node" fill="#4A6FE3">1</text><text x="433.8" y="416.4" class="node" fill="#5374E2">0.98</text><text x="333.4" y="493.5" class="node" fill="#C7CBE3">0.6</text><text x="358.5" y="482.4" class="node" fill="#C7CBE3">0.6</text><text x="383.6" y="475.1" class="node" fill="#5374E2">0.98</text><text x="358.5" y="504.5" class="node" fill="#4A6FE3">1</text><text x="283.2" y="533.9" class="node" fill="#4A6FE3">1</text><text x="258.1" y="586.5" class="node" fill="#C4C9E3">0.61</text><text x="283.2" y="575.5" class="node" fill="#E2899B">0.21</text><text x="308.3" y="563.2" class="node" fill="#D95A7A">0.07</text><text x="333.4" y="553.4" class="node" fill="#A0ABE2">0.74</text><text x="333.4" y="573" class="node" fill="#DD6C86">0.12</text><text x="232.9" y="637.3" class="node" fill="#4A6FE3">1</text><text x="258.1" y="628.1" class="node" fill="#C4C9E3">0.61</text><text x="283.2" y="619.5" class="node" fill="#E6B4BD">0.35</text><text x="308.3" y="612.2" class="node" fill="#B1B8E2">0.68</text><text x="132.5" y="680.7" class="node" fill="#E6B4BD">0.35</text></svg>
