<svg xmlns="http://www.w3.org/2000/svg" version="1.1" viewBox="0 0 682 720" preserveAspectRatio="xMidYMid meet" class="tree" data-char="92"><text x="678" y="12.7" text-anchor="end" class="stepsLabel">Character adds <tspan class="score">9</tspan> to tree score</text><text x="678" y="22.4" text-anchor="end" class="stepsLabel"><tspan class="score">0</tspan> additional regions</text><text x="678" y="32.1" text-anchor="end" class="stepsLabel"></text><text x="678" y="51.5" text-anchor="end" class="stepsLabel"><tspan dy="16" fill="#34caaf">An optimal tree under:</tspan><tspan x="680" style="font-style:italic" class="notThisAn" dy="1.2em">Implied weights, k = 4.5</tspan><tspan x="680" style="font-style:italic" class="notThisAn" dy="1.2em">IW, k = 10.5</tspan><tspan x="680" style="font-style:italic" class="notThisAn" dy="1.2em">IW, k = 24</tspan><tspan x="680" style="font-style:italic" class="thisAn" dy="1.2em">Equal weights</tspan></text><text x="295.3" y="607.3" fill="#fdae61" class="flag">[1]</text><text x="317.3" y="607.3" fill="#000" class="taxonLabel">Capitella</text><text x="295.3" y="617.1" fill="#fdae61" class="flag">[1]</text><text x="317.3" y="617.1" fill="#000" class="taxonLabel">Canadia spinosa</text><text x="274.6" y="626.9" fill="#fdae61" class="flag">[1]</text><text x="296.6" y="626.9" fill="#000" class="taxonLabel">Serpula</text><text x="253.9" y="636.7" fill="#abd9e9" class="flag">[2]</text><text x="275.9" y="636.7" fill="#000" class="taxonLabel">Sipunculus</text><text x="336.8" y="568.1" fill="grey" class="flag">[?]</text><text x="358.8" y="568.1" fill="#999" class="taxonLabel">Pojetaia runnegari</text><text x="336.8" y="577.9" fill="#fdae61" class="flag">[1]</text><text x="358.8" y="577.9" fill="#000" class="taxonLabel">Mytilus</text><text x="357.6" y="538.8" fill="#2c7bb6" class="flag">[3]</text><text x="379.6" y="538.8" fill="#000" class="taxonLabel">Neopilina</text><text x="357.6" y="548.5" fill="grey" class="flag">[?]</text><text x="379.6" y="548.5" fill="#999" class="taxonLabel">Conocardium elongatum</text><text x="336.8" y="558.3" fill="#2c7bb6" class="flag">[3]</text><text x="358.8" y="558.3" fill="#000" class="taxonLabel">Haliotis</text><text x="295.3" y="587.7" fill="#fdae61" class="flag">[1]</text><text x="317.3" y="587.7" fill="#000" class="taxonLabel">Dentalium</text><text x="316.1" y="519.2" fill="#fdae61" class="flag">[1]</text><text x="338.1" y="519.2" fill="#000" class="taxonLabel">Wiwaxia corrugata</text><text x="316.1" y="529" fill="#fdae61" class="flag">[1]</text><text x="338.1" y="529" fill="#000" class="taxonLabel">Odontogriphus omalus</text><text x="378.3" y="489.8" fill="#2c7bb6" class="flag">[3]</text><text x="400.3" y="489.8" fill="#000" class="taxonLabel">Wirenia</text><text x="378.3" y="499.6" fill="grey" class="flag">[13]</text><text x="400.3" y="499.6" fill="#999" class="taxonLabel">Chaetoderma</text><text x="399" y="460.4" fill="grey" class="flag">[?]</text><text x="421" y="460.4" fill="#999" class="taxonLabel">Phthipodochiton thraivensis</text><text x="399" y="470.2" fill="grey" class="flag">[13]</text><text x="421" y="470.2" fill="#999" class="taxonLabel">Kulindroplax perissokomos</text><text x="378.3" y="480" fill="#fdae61" class="flag">[1]</text><text x="400.3" y="480" fill="#000" class="taxonLabel">Acaenoplax hayae</text><text x="399" y="431" fill="grey" class="flag">[?]</text><text x="421" y="431" fill="#999" class="taxonLabel">Glaphurochiton carbonarius</text><text x="399" y="440.8" fill="grey" class="flag">[13]</text><text x="421" y="440.8" fill="#999" class="taxonLabel">Calvapilosa kroegeri</text><text x="419.8" y="401.7" fill="#2c7bb6" class="flag">[3]</text><text x="441.8" y="401.7" fill="#000" class="taxonLabel">Tonicella</text><text x="419.8" y="411.5" fill="#2c7bb6" class="flag">[3]</text><text x="441.8" y="411.5" fill="#000" class="taxonLabel">Mopalia</text><text x="399" y="421.2" fill="#2c7bb6" class="flag">[3]</text><text x="421" y="421.2" fill="#000" class="taxonLabel">Leptochiton</text><text x="357.6" y="450.6" fill="grey" class="flag">[?]</text><text x="379.6" y="450.6" fill="#999" class="taxonLabel">Polysacos vickersianum</text><text x="316.1" y="509.4" fill="grey" class="flag">[?]</text><text x="338.1" y="509.4" fill="#999" class="taxonLabel">Siphogonuchites multa</text><text x="253.9" y="597.5" fill="grey" class="flag">[?]</text><text x="275.9" y="597.5" fill="#999" class="taxonLabel">Pelagiella</text><text x="212.4" y="646.5" fill="grey" class="flag">[?]</text><text x="234.4" y="646.5" fill="#999" class="taxonLabel">Bactrotheca</text><text x="191.7" y="656.2" fill="grey" class="flag">[?]</text><text x="213.7" y="656.2" fill="#999" class="taxonLabel">Cupitheca holocyclata</text><text x="274.6" y="352.7" fill="grey" class="flag">[?]</text><text x="296.6" y="352.7" fill="#999" class="taxonLabel">Mickwitzia muralensis</text><text x="274.6" y="362.5" fill="grey" class="flag">[?]</text><text x="296.6" y="362.5" fill="#999" class="taxonLabel">Heliomedusa orienta</text><text x="357.6" y="313.5" fill="#fdae61" class="flag">[1]</text><text x="379.6" y="313.5" fill="#000" class="taxonLabel">Novocrania</text><text x="357.6" y="323.3" fill="grey" class="flag">[?]</text><text x="379.6" y="323.3" fill="#999" class="taxonLabel">Craniops</text><text x="336.8" y="333.1" fill="grey" class="flag">[?]</text><text x="358.8" y="333.1" fill="#999" class="taxonLabel">Ussunia</text><text x="316.1" y="342.9" fill="grey" class="flag">[?]</text><text x="338.1" y="342.9" fill="#999" class="taxonLabel">Gasconsia</text><text x="399" y="264.6" fill="#abd9e9" class="flag">[2]</text><text x="421" y="264.6" fill="#000" class="taxonLabel">Pelagodiscus atlanticus</text><text x="399" y="274.4" fill="grey" class="flag">[?]</text><text x="421" y="274.4" fill="#999" class="taxonLabel">Mummpikia nuda</text><text x="440.5" y="235.2" fill="grey" class="flag">[?]</text><text x="462.5" y="235.2" fill="#999" class="taxonLabel">Siphonobolus priscus</text><text x="440.5" y="245" fill="#abd9e9" class="flag">[2]</text><text x="462.5" y="245" fill="#000" class="taxonLabel">Acanthotretella spinosa</text><text x="440.5" y="215.6" fill="#abd9e9" class="flag">[2]</text><text x="462.5" y="215.6" fill="#000" class="taxonLabel">Lingulosacculus</text><text x="440.5" y="225.4" fill="grey" class="flag">[?]</text><text x="462.5" y="225.4" fill="#999" class="taxonLabel">Clupeafumosus socialis</text><text x="399" y="254.8" fill="#abd9e9" class="flag">[2]</text><text x="421" y="254.8" fill="#000" class="taxonLabel">Lingulellotreta malongensis</text><text x="357.6" y="284.2" fill="grey" class="flag">[?]</text><text x="379.6" y="284.2" fill="#999" class="taxonLabel">Botsfordia</text><text x="336.8" y="294" fill="grey" class="flag">[?]</text><text x="358.8" y="294" fill="#999" class="taxonLabel">Eoobolus</text><text x="316.1" y="303.8" fill="#abd9e9" class="flag">[2]</text><text x="338.1" y="303.8" fill="#000" class="taxonLabel">Lingula</text><text x="316.1" y="196" fill="grey" class="flag">[?]</text><text x="338.1" y="196" fill="#999" class="taxonLabel">Micromitra</text><text x="316.1" y="205.8" fill="grey" class="flag">[?]</text><text x="338.1" y="205.8" fill="#999" class="taxonLabel">Askepasma toddense</text><text x="399" y="147.1" fill="grey" class="flag">[?]</text><text x="421" y="147.1" fill="#999" class="taxonLabel">Coolinia pecten</text><text x="399" y="156.9" fill="grey" class="flag">[?]</text><text x="421" y="156.9" fill="#999" class="taxonLabel">Antigonambonites planus</text><text x="419.8" y="127.5" fill="grey" class="flag">[?]</text><text x="441.8" y="127.5" fill="#999" class="taxonLabel">Nisusia sulcata</text><text x="419.8" y="137.3" fill="#fdae61" class="flag">[1]</text><text x="441.8" y="137.3" fill="#000" class="taxonLabel">Kutorgina chengjiangensis</text><text x="482" y="78.5" fill="#abd9e9" class="flag">[2]</text><text x="504" y="78.5" fill="#000" class="taxonLabel">Terebratulina</text><text x="482" y="88.3" fill="grey" class="flag">[?]</text><text x="504" y="88.3" fill="#999" class="taxonLabel">Orthis</text><text x="461.3" y="98.1" fill="grey" class="flag">[?]</text><text x="483.3" y="98.1" fill="#999" class="taxonLabel">Alisina</text><text x="440.5" y="107.9" fill="#abd9e9" class="flag">[2]</text><text x="462.5" y="107.9" fill="#000" class="taxonLabel">Longtancunella chengjiangensis</text><text x="419.8" y="117.7" fill="grey" class="flag">[?]</text><text x="441.8" y="117.7" fill="#999" class="taxonLabel">Glyptoria</text><text x="357.6" y="166.7" fill="grey" class="flag">[?]</text><text x="379.6" y="166.7" fill="#999" class="taxonLabel">Tomteluva perturbata</text><text x="336.8" y="176.5" fill="#abd9e9" class="flag">[2]</text><text x="358.8" y="176.5" fill="#000" class="taxonLabel">Yuganotheca elegans</text><text x="316.1" y="186.2" fill="grey" class="flag">[?]</text><text x="338.1" y="186.2" fill="#999" class="taxonLabel">Salanygolina</text><text x="233.1" y="372.3" fill="grey" class="flag">[?]</text><text x="255.1" y="372.3" fill="#999" class="taxonLabel">Micrina</text><text x="212.4" y="382.1" fill="grey" class="flag">[?]</text><text x="234.4" y="382.1" fill="#999" class="taxonLabel">Paterimitra</text><text x="191.7" y="391.9" fill="#abd9e9" class="flag">[2]</text><text x="213.7" y="391.9" fill="#000" class="taxonLabel">Pedunculotheca diania</text><text x="150.2" y="666" fill="grey" class="flag">[?]</text><text x="172.2" y="666" fill="#999" class="taxonLabel">Paramicrocornus</text><text x="129.4" y="675.8" fill="#abd9e9" class="flag">[2]</text><text x="151.4" y="675.8" fill="#000" class="taxonLabel">Haplophrentis carinatus</text><text x="108.7" y="685.6" fill="grey" class="flag">[?]</text><text x="130.7" y="685.6" fill="#999" class="taxonLabel">Halkieria evangelista</text><text x="88" y="695.4" fill="#fdae61" class="flag">[1]</text><text x="110" y="695.4" fill="#000" class="taxonLabel">Orthrozanclus</text><text x="67.2" y="705.2" fill="grey" class="flag">[?]</text><text x="89.2" y="705.2" fill="#999" class="taxonLabel">Dailyatia</text><text x="170.9" y="10" fill="#abd9e9" class="flag">[2]</text><text x="192.9" y="10" fill="#000" class="taxonLabel">Flustra</text><text x="170.9" y="19.8" fill="#abd9e9" class="flag">[2]</text><text x="192.9" y="19.8" fill="#000" class="taxonLabel">Amathia</text><text x="150.2" y="29.6" fill="#2c7bb6" class="flag">[3]</text><text x="172.2" y="29.6" fill="#000" class="taxonLabel">Loxosomella</text><text x="129.4" y="39.4" fill="#abd9e9" class="flag">[2]</text><text x="151.4" y="39.4" fill="#000" class="taxonLabel">Phoronis</text><text x="108.7" y="49.2" fill="grey" class="flag">[?]</text><text x="130.7" y="49.2" fill="#999" class="taxonLabel">Namacalathus</text><text x="88" y="59" fill="grey" class="flag">[?]</text><text x="110" y="59" fill="#999" class="taxonLabel">Eccentrotheca</text><text x="67.2" y="68.8" fill="#abd9e9" class="flag">[2]</text><text x="89.2" y="68.8" fill="#000" class="taxonLabel">Cotyledion tylodes</text><text x="25.7" y="715" fill="grey" class="flag">[?]</text><text x="47.7" y="715" fill="#999" class="taxonLabel">Yilingia spiciformis</text><path d="M5,542V372.1H25.7M25.7,372.1V56.1H46.5M46.5,56.1V46.5H67.2M67.2,46.5V37H88M88,37V27.8H108.7M108.7,27.8V19.2H129.4M129.4,19.2V11.9H150.2M150.2,11.9V7H170.9M150.2,11.9V16.8H170.9M108.7,27.8V36.4H129.4M88,37V46.2H108.7M67.2,46.5V56H88M46.5,56.1V65.8H67.2M25.7,372.1V688.1H46.5M46.5,688.1V674H67.2M67.2,674V655.5H88M88,655.5V628.3H108.7M108.7,628.3V583.9H129.4M129.4,583.9V504.7H150.2M150.2,504.7V373H170.9M170.9,373V357.2H191.7M191.7,357.2V335.3H212.4M212.4,335.3V301.2H233.1M233.1,301.2V247.8H253.9M253.9,247.8V185H274.6M274.6,185V172.1H295.3M295.3,172.1V161H316.1M316.1,161V148.4H336.8M336.8,148.4V133.2H357.6M357.6,133.2V117.5H378.3M378.3,117.5V105.5H399M399,105.5V96.3H419.8M419.8,96.3V87.8H440.5M440.5,87.8V80.4H461.3M461.3,80.4V75.5H482M461.3,80.4V85.3H482M440.5,87.8V95.1H461.3M419.8,96.3V104.9H440.5M399,105.5V114.7H419.8M378.3,117.5V129.4H399M357.6,133.2V149H378.3M378.3,149V144.1H399M378.3,149V153.9H399M336.8,148.4V163.7H357.6M316.1,161V173.5H336.8M295.3,172.1V183.2H316.1M274.6,185V197.9H295.3M295.3,197.9V193H316.1M295.3,197.9V202.8H316.1M253.9,247.8V310.6H274.6M274.6,310.6V289.9H295.3M295.3,289.9V279H316.1M316.1,279V267.1H336.8M336.8,267.1V253H357.6M357.6,253V239.6H378.3M378.3,239.6V227.3H399M399,227.3V217.5H419.8M419.8,217.5V212.6H440.5M419.8,217.5V222.4H440.5M399,227.3V237.1H419.8M419.8,237.1V232.2H440.5M419.8,237.1V242H440.5M378.3,239.6V251.8H399M357.6,253V266.5H378.3M378.3,266.5V261.6H399M378.3,266.5V271.4H399M336.8,267.1V281.2H357.6M316.1,279V291H336.8M295.3,289.9V300.8H316.1M274.6,310.6V331.3H295.3M233.1,301.2V354.6H253.9M253.9,354.6V349.7H274.6M253.9,354.6V359.5H274.6M212.4,335.3V369.3H233.1M191.7,357.2V379.1H212.4M170.9,373V388.9H191.7M150.2,504.7V636.3H170.9M233.1,625.1V633.7H253.9M129.4,583.9V663H150.2M108.7,628.3V672.8H129.4M88,655.5V682.6H108.7M46.5,688.1V702.2H67.2M5,542V712H25.7" stroke="#abd9e9"></path><path d="M129.4,19.2V26.6H150.2M357.6,421.9V410.9H378.3M378.3,410.9V403.6H399M399,403.6V398.7H419.8M399,403.6V408.5H419.8M378.3,410.9V418.2H399M357.6,491.7V486.8H378.3M295.3,559V548H316.1M316.1,548V540.6H336.8M336.8,540.6V535.8H357.6M336.8,540.6V545.5H357.6M316.1,548V555.3H336.8" stroke="#2c7bb6"></path><path d="M399,129.4V124.5H419.8M295.3,331.3V322.8H316.1M316.1,322.8V315.4H336.8M336.8,315.4V320.3H357.6M316.1,322.8V330.1H336.8M295.3,331.3V339.9H316.1M170.9,636.3V619.4H191.7M191.7,619.4V595.4H212.4M212.4,595.4V565.6H233.1M295.3,482V457.7H316.1M316.1,457.7V434.8H336.8M336.8,434.8V421.9H357.6M357.6,421.9V432.9H378.3M378.3,432.9V428H399M378.3,432.9V437.8H399M336.8,434.8V447.6H357.6M316.1,457.7V480.7H336.8M336.8,480.7V469.7H357.6M357.6,469.7V462.3H378.3M378.3,462.3V457.4H399M378.3,462.3V467.2H399M336.8,480.7V491.7H357.6M357.6,491.7V496.6H378.3M295.3,482V506.4H316.1M233.1,565.6V594.5H253.9M212.4,595.4V625.1H233.1M191.7,619.4V643.5H212.4M170.9,636.3V653.2H191.7" stroke="darkgrey"></path><path d="M399,129.4V134.3H419.8M336.8,315.4V310.5H357.6M233.1,565.6V536.7H253.9M253.9,536.7V501.6H274.6M274.6,501.6V482H295.3M357.6,469.7V477H378.3M274.6,501.6V521.1H295.3M295.3,521.1V516.2H316.1M295.3,521.1V526H316.1M253.9,536.7V571.9H274.6M274.6,571.9V559H295.3M295.3,559V570H316.1M316.1,570V565.1H336.8M316.1,570V574.9H336.8M274.6,571.9V584.7H295.3M233.1,625.1V616.5H253.9M253.9,616.5V609.2H274.6M274.6,609.2V604.3H295.3M274.6,609.2V614.1H295.3M253.9,616.5V623.9H274.6M67.2,674V692.4H88" stroke="#fdae61"></path><text x="27.7" y="375.1" class="node" fill="#C7CBE3">0.6</text><text x="48.5" y="59.1" class="node" fill="#E498A7">0.26</text><text x="69.2" y="49.5" class="node" fill="#C7CBE3">0.6</text><text x="90" y="40" class="node" fill="#E6BAC2">0.37</text><text x="110.7" y="30.8" class="node" fill="#C7CBE3">0.6</text><text x="131.4" y="22.2" class="node" fill="#4A6FE3">1</text><text x="152.2" y="14.9" class="node" fill="#DE728B">0.14</text><text x="48.5" y="691.1" class="node" fill="#C7CBE3">0.6</text><text x="69.2" y="677" class="node" fill="#C7CBE3">0.6</text><text x="90" y="658.5" class="node" fill="#C7CBE3">0.6</text><text x="110.7" y="631.3" class="node" fill="#E6ABB6">0.32</text><text x="131.4" y="586.9" class="node" fill="#C7CBE3">0.6</text><text x="152.2" y="507.7" class="node" fill="#C7CBE3">0.6</text><text x="172.9" y="376" class="node" fill="#C7CBE3">0.6</text><text x="193.7" y="360.2" class="node" fill="#4A6FE3">1</text><text x="214.4" y="338.3" class="node" fill="#C7CBE3">0.6</text><text x="235.1" y="304.2" class="node" fill="#C7CBE3">0.6</text><text x="255.9" y="250.8" class="node" fill="#C7CBE3">0.6</text><text x="276.6" y="188" class="node" fill="#C7CBE3">0.6</text><text x="297.3" y="175.1" class="node" fill="#E6ABB6">0.32</text><text x="318.1" y="164" class="node" fill="#E5D0D3">0.44</text><text x="338.8" y="151.4" class="node" fill="#E495A5">0.25</text><text x="359.6" y="136.2" class="node" fill="#D95A7A">0.07</text><text x="380.3" y="120.5" class="node" fill="#E4D9DB">0.47</text><text x="401" y="108.5" class="node" fill="#E4D9DB">0.47</text><text x="421.8" y="99.3" class="node" fill="#5B78E2">0.96</text><text x="442.5" y="90.8" class="node" fill="#5B78E2">0.96</text><text x="463.3" y="83.4" class="node" fill="#A6AFE2">0.72</text><text x="401" y="132.4" class="node" fill="#4A6FE3">1</text><text x="380.3" y="152" class="node" fill="#4A6FE3">1</text><text x="297.3" y="200.9" class="node" fill="#4A6FE3">1</text><text x="276.6" y="313.6" class="node" fill="#4A6FE3">1</text><text x="297.3" y="292.9" class="node" fill="#4A6FE3">1</text><text x="318.1" y="282" class="node" fill="#4A6FE3">1</text><text x="338.8" y="270.1" class="node" fill="#4A6FE3">1</text><text x="359.6" y="256" class="node" fill="#4A6FE3">1</text><text x="380.3" y="242.6" class="node" fill="#4A6FE3">1</text><text x="401" y="230.3" class="node" fill="#E6C1C7">0.39</text><text x="421.8" y="220.5" class="node" fill="#4A6FE3">1</text><text x="421.8" y="240.1" class="node" fill="#4A6FE3">1</text><text x="380.3" y="269.5" class="node" fill="#4A6FE3">1</text><text x="297.3" y="334.3" class="node" fill="#4A6FE3">1</text><text x="318.1" y="325.8" class="node" fill="#4A6FE3">1</text><text x="338.8" y="318.4" class="node" fill="#4A6FE3">1</text><text x="255.9" y="357.6" class="node" fill="#C7CBE3">0.6</text><text x="172.9" y="639.3" class="node" fill="#C7CBE3">0.6</text><text x="193.7" y="622.4" class="node" fill="#4A6FE3">1</text><text x="214.4" y="598.4" class="node" fill="#768BE1">0.88</text><text x="235.1" y="568.6" class="node" fill="#E6AEB8">0.33</text><text x="255.9" y="539.7" class="node" fill="#C4C9E3">0.61</text><text x="276.6" y="504.6" class="node" fill="#4A6FE3">1</text><text x="297.3" y="485" class="node" fill="#D2D4E3">0.56</text><text x="318.1" y="460.7" class="node" fill="#5B78E2">0.96</text><text x="338.8" y="437.8" class="node" fill="#C7CBE3">0.6</text><text x="359.6" y="424.9" class="node" fill="#E498A7">0.26</text><text x="380.3" y="413.9" class="node" fill="#4A6FE3">1</text><text x="401" y="406.6" class="node" fill="#E498A7">0.26</text><text x="380.3" y="435.9" class="node" fill="#5374E2">0.98</text><text x="338.8" y="483.7" class="node" fill="#C7CBE3">0.6</text><text x="359.6" y="472.7" class="node" fill="#C7CBE3">0.6</text><text x="380.3" y="465.3" class="node" fill="#5374E2">0.98</text><text x="359.6" y="494.7" class="node" fill="#4A6FE3">1</text><text x="297.3" y="524.1" class="node" fill="#4A6FE3">1</text><text x="276.6" y="574.9" class="node" fill="#C4C9E3">0.61</text><text x="297.3" y="562" class="node" fill="#7D8FE1">0.86</text><text x="318.1" y="551" class="node" fill="#A0ABE2">0.74</text><text x="338.8" y="543.6" class="node" fill="#C7CBE3">0.6</text><text x="318.1" y="573" class="node" fill="#4A6FE3">1</text><text x="235.1" y="628.1" class="node" fill="#C4C9E3">0.61</text><text x="255.9" y="619.5" class="node" fill="#E6B4BD">0.35</text><text x="276.6" y="612.2" class="node" fill="#C7CBE3">0.6</text></svg>
