<svg xmlns="http://www.w3.org/2000/svg" version="1.1" viewBox="0 0 682 720" preserveAspectRatio="xMidYMid meet" class="tree" data-char="124"><text x="678" y="12.7" text-anchor="end" class="stepsLabel">Character adds <tspan class="score">2</tspan> to tree score</text><text x="678" y="22.4" text-anchor="end" class="stepsLabel"><tspan class="score">0</tspan> additional regions</text><text x="678" y="32.1" text-anchor="end" class="stepsLabel"></text><text x="678" y="51.5" text-anchor="end" class="stepsLabel"><tspan dy="16" fill="#34caaf">An optimal tree under:</tspan><tspan x="680" style="font-style:italic" class="notThisAn" dy="1.2em">Implied weights, k = 4.5</tspan><tspan x="680" style="font-style:italic" class="notThisAn" dy="1.2em">IW, k = 10.5</tspan><tspan x="680" style="font-style:italic" class="notThisAn" dy="1.2em">IW, k = 24</tspan><tspan x="680" style="font-style:italic" class="thisAn" dy="1.2em">Equal weights</tspan></text><text x="315.1" y="617.1" fill="#fc8d59" class="flag">[0]</text><text x="337.1" y="617.1" fill="#000" class="taxonLabel">Capitella</text><text x="315.1" y="626.9" fill="#fc8d59" class="flag">[0]</text><text x="337.1" y="626.9" fill="#000" class="taxonLabel">Canadia spinosa</text><text x="291.2" y="636.7" fill="#fc8d59" class="flag">[0]</text><text x="313.2" y="636.7" fill="#000" class="taxonLabel">Serpula</text><text x="267.4" y="646.5" fill="#fc8d59" class="flag">[0]</text><text x="289.4" y="646.5" fill="#000" class="taxonLabel">Sipunculus</text><text x="410.5" y="548.5" fill="#fc8d59" class="flag">[0]</text><text x="432.5" y="548.5" fill="#000" class="taxonLabel">Haliotis</text><text x="410.5" y="558.3" fill="#fc8d59" class="flag">[0]</text><text x="432.5" y="558.3" fill="#000" class="taxonLabel">Conocardium elongatum</text><text x="386.6" y="568.1" fill="#fc8d59" class="flag">[0]</text><text x="408.6" y="568.1" fill="#000" class="taxonLabel">Neopilina</text><text x="362.8" y="577.9" fill="#fc8d59" class="flag">[0]</text><text x="384.8" y="577.9" fill="#000" class="taxonLabel">Mytilus</text><text x="338.9" y="587.7" fill="#fc8d59" class="flag">[0]</text><text x="360.9" y="587.7" fill="#000" class="taxonLabel">Pojetaia runnegari</text><text x="315.1" y="597.5" fill="#fc8d59" class="flag">[0]</text><text x="337.1" y="597.5" fill="#000" class="taxonLabel">Dentalium</text><text x="291.2" y="607.3" fill="#fc8d59" class="flag">[0]</text><text x="313.2" y="607.3" fill="#000" class="taxonLabel">Pelagiella</text><text x="315.1" y="529" fill="#fc8d59" class="flag">[0]</text><text x="337.1" y="529" fill="#000" class="taxonLabel">Wiwaxia corrugata</text><text x="315.1" y="538.8" fill="#fc8d59" class="flag">[0]</text><text x="337.1" y="538.8" fill="#000" class="taxonLabel">Odontogriphus omalus</text><text x="386.6" y="499.6" fill="#fc8d59" class="flag">[0]</text><text x="408.6" y="499.6" fill="#000" class="taxonLabel">Wirenia</text><text x="386.6" y="509.4" fill="#fc8d59" class="flag">[0]</text><text x="408.6" y="509.4" fill="#000" class="taxonLabel">Chaetoderma</text><text x="410.5" y="470.2" fill="#fc8d59" class="flag">[0]</text><text x="432.5" y="470.2" fill="#000" class="taxonLabel">Phthipodochiton thraivensis</text><text x="410.5" y="480" fill="#fc8d59" class="flag">[0]</text><text x="432.5" y="480" fill="#000" class="taxonLabel">Kulindroplax perissokomos</text><text x="386.6" y="489.8" fill="#fc8d59" class="flag">[0]</text><text x="408.6" y="489.8" fill="#000" class="taxonLabel">Acaenoplax hayae</text><text x="458.2" y="411.5" fill="#fc8d59" class="flag">[0]</text><text x="480.2" y="411.5" fill="#000" class="taxonLabel">Tonicella</text><text x="458.2" y="421.2" fill="#fc8d59" class="flag">[0]</text><text x="480.2" y="421.2" fill="#000" class="taxonLabel">Mopalia</text><text x="434.3" y="431" fill="#fc8d59" class="flag">[0]</text><text x="456.3" y="431" fill="#000" class="taxonLabel">Glaphurochiton carbonarius</text><text x="410.5" y="440.8" fill="#fc8d59" class="flag">[0]</text><text x="432.5" y="440.8" fill="#000" class="taxonLabel">Leptochiton</text><text x="386.6" y="450.6" fill="#fc8d59" class="flag">[0]</text><text x="408.6" y="450.6" fill="#000" class="taxonLabel">Calvapilosa kroegeri</text><text x="362.8" y="460.4" fill="#fc8d59" class="flag">[0]</text><text x="384.8" y="460.4" fill="#000" class="taxonLabel">Polysacos vickersianum</text><text x="315.1" y="519.2" fill="grey" class="flag">[?]</text><text x="337.1" y="519.2" fill="#999" class="taxonLabel">Siphogonuchites multa</text><text x="219.7" y="656.2" fill="#fc8d59" class="flag">[0]</text><text x="241.7" y="656.2" fill="#000" class="taxonLabel">Bactrotheca</text><text x="195.8" y="666" fill="grey" class="flag">[?]</text><text x="217.8" y="666" fill="#999" class="taxonLabel">Cupitheca holocyclata</text><text x="291.2" y="362.5" fill="#fc8d59" class="flag">[0]</text><text x="313.2" y="362.5" fill="#000" class="taxonLabel">Mickwitzia muralensis</text><text x="291.2" y="372.3" fill="#fc8d59" class="flag">[0]</text><text x="313.2" y="372.3" fill="#000" class="taxonLabel">Heliomedusa orienta</text><text x="386.6" y="323.3" fill="#fc8d59" class="flag">[0]</text><text x="408.6" y="323.3" fill="#000" class="taxonLabel">Novocrania</text><text x="386.6" y="333.1" fill="#fc8d59" class="flag">[0]</text><text x="408.6" y="333.1" fill="#000" class="taxonLabel">Craniops</text><text x="362.8" y="342.9" fill="#fc8d59" class="flag">[0]</text><text x="384.8" y="342.9" fill="#000" class="taxonLabel">Ussunia</text><text x="338.9" y="352.7" fill="#fc8d59" class="flag">[0]</text><text x="360.9" y="352.7" fill="#000" class="taxonLabel">Gasconsia</text><text x="434.3" y="274.4" fill="#fc8d59" class="flag">[0]</text><text x="456.3" y="274.4" fill="#000" class="taxonLabel">Pelagodiscus atlanticus</text><text x="434.3" y="284.2" fill="#fc8d59" class="flag">[0]</text><text x="456.3" y="284.2" fill="#000" class="taxonLabel">Mummpikia nuda</text><text x="482" y="245" fill="#fc8d59" class="flag">[0]</text><text x="504" y="245" fill="#000" class="taxonLabel">Siphonobolus priscus</text><text x="482" y="254.8" fill="#fc8d59" class="flag">[0]</text><text x="504" y="254.8" fill="#000" class="taxonLabel">Acanthotretella spinosa</text><text x="482" y="225.4" fill="#fc8d59" class="flag">[0]</text><text x="504" y="225.4" fill="#000" class="taxonLabel">Lingulosacculus</text><text x="482" y="235.2" fill="#fc8d59" class="flag">[0]</text><text x="504" y="235.2" fill="#000" class="taxonLabel">Clupeafumosus socialis</text><text x="434.3" y="264.6" fill="#fc8d59" class="flag">[0]</text><text x="456.3" y="264.6" fill="#000" class="taxonLabel">Lingulellotreta malongensis</text><text x="386.6" y="294" fill="#fc8d59" class="flag">[0]</text><text x="408.6" y="294" fill="#000" class="taxonLabel">Botsfordia</text><text x="362.8" y="303.8" fill="#fc8d59" class="flag">[0]</text><text x="384.8" y="303.8" fill="#000" class="taxonLabel">Eoobolus</text><text x="338.9" y="313.5" fill="#fc8d59" class="flag">[0]</text><text x="360.9" y="313.5" fill="#000" class="taxonLabel">Lingula</text><text x="338.9" y="205.8" fill="#fc8d59" class="flag">[0]</text><text x="360.9" y="205.8" fill="#000" class="taxonLabel">Micromitra</text><text x="338.9" y="215.6" fill="#fc8d59" class="flag">[0]</text><text x="360.9" y="215.6" fill="#000" class="taxonLabel">Askepasma toddense</text><text x="410.5" y="166.7" fill="grey" class="flag">[?]</text><text x="432.5" y="166.7" fill="#999" class="taxonLabel">Yuganotheca elegans</text><text x="410.5" y="176.5" fill="#fc8d59" class="flag">[0]</text><text x="432.5" y="176.5" fill="#000" class="taxonLabel">Tomteluva perturbata</text><text x="386.6" y="186.2" fill="#fc8d59" class="flag">[0]</text><text x="408.6" y="186.2" fill="#000" class="taxonLabel">Longtancunella chengjiangensis</text><text x="362.8" y="196" fill="#fc8d59" class="flag">[0]</text><text x="384.8" y="196" fill="#000" class="taxonLabel">Salanygolina</text><text x="386.6" y="147.1" fill="#91bfdb" class="flag">[1]</text><text x="408.6" y="147.1" fill="#000" class="taxonLabel">Coolinia pecten</text><text x="386.6" y="156.9" fill="#91bfdb" class="flag">[1]</text><text x="408.6" y="156.9" fill="#000" class="taxonLabel">Antigonambonites planus</text><text x="410.5" y="127.5" fill="#fc8d59" class="flag">[0]</text><text x="432.5" y="127.5" fill="#000" class="taxonLabel">Nisusia sulcata</text><text x="410.5" y="137.3" fill="#fc8d59" class="flag">[0]</text><text x="432.5" y="137.3" fill="#000" class="taxonLabel">Kutorgina chengjiangensis</text><text x="458.2" y="88.3" fill="#91bfdb" class="flag">[1]</text><text x="480.2" y="88.3" fill="#000" class="taxonLabel">Terebratulina</text><text x="458.2" y="98.1" fill="#91bfdb" class="flag">[1]</text><text x="480.2" y="98.1" fill="#000" class="taxonLabel">Orthis</text><text x="434.3" y="107.9" fill="#91bfdb" class="flag">[1]</text><text x="456.3" y="107.9" fill="#000" class="taxonLabel">Alisina</text><text x="410.5" y="117.7" fill="#fc8d59" class="flag">[0]</text><text x="432.5" y="117.7" fill="#000" class="taxonLabel">Glyptoria</text><text x="243.5" y="382.1" fill="#fc8d59" class="flag">[0]</text><text x="265.5" y="382.1" fill="#000" class="taxonLabel">Micrina</text><text x="219.7" y="391.9" fill="#fc8d59" class="flag">[0]</text><text x="241.7" y="391.9" fill="#000" class="taxonLabel">Paterimitra</text><text x="195.8" y="401.7" fill="#fc8d59" class="flag">[0]</text><text x="217.8" y="401.7" fill="#000" class="taxonLabel">Pedunculotheca diania</text><text x="148.1" y="675.8" fill="#fc8d59" class="flag">[0]</text><text x="170.1" y="675.8" fill="#000" class="taxonLabel">Paramicrocornus</text><text x="124.2" y="685.6" fill="#fc8d59" class="flag">[0]</text><text x="146.2" y="685.6" fill="#000" class="taxonLabel">Haplophrentis carinatus</text><text x="100.4" y="695.4" fill="#fc8d59" class="flag">[0]</text><text x="122.4" y="695.4" fill="#000" class="taxonLabel">Halkieria evangelista</text><text x="76.6" y="705.2" fill="#fc8d59" class="flag">[0]</text><text x="98.6" y="705.2" fill="#000" class="taxonLabel">Orthrozanclus</text><text x="219.7" y="10" fill="#fc8d59" class="flag">[0]</text><text x="241.7" y="10" fill="#000" class="taxonLabel">Flustra</text><text x="219.7" y="19.8" fill="#fc8d59" class="flag">[0]</text><text x="241.7" y="19.8" fill="#000" class="taxonLabel">Amathia</text><text x="195.8" y="29.6" fill="#fc8d59" class="flag">[0]</text><text x="217.8" y="29.6" fill="#000" class="taxonLabel">Loxosomella</text><text x="172" y="39.4" fill="#fc8d59" class="flag">[0]</text><text x="194" y="39.4" fill="#000" class="taxonLabel">Namacalathus</text><text x="148.1" y="49.2" fill="#fc8d59" class="flag">[0]</text><text x="170.1" y="49.2" fill="#000" class="taxonLabel">Phoronis</text><text x="124.2" y="59" fill="#fc8d59" class="flag">[0]</text><text x="146.2" y="59" fill="#000" class="taxonLabel">Eccentrotheca</text><text x="100.4" y="68.8" fill="#fc8d59" class="flag">[0]</text><text x="122.4" y="68.8" fill="#000" class="taxonLabel">Cotyledion tylodes</text><text x="76.6" y="78.5" fill="#fc8d59" class="flag">[0]</text><text x="98.6" y="78.5" fill="#000" class="taxonLabel">Dailyatia</text><text x="28.9" y="715" fill="#fc8d59" class="flag">[0]</text><text x="50.9" y="715" fill="#000" class="taxonLabel">Yilingia spiciformis</text><path d="M5,543.4V374.7H28.9M28.9,374.7V65.8H52.7M52.7,65.8V56.1H76.6M76.6,56.1V46.5H100.4M100.4,46.5V37H124.2M124.2,37V27.8H148.1M148.1,27.8V19.2H172M172,19.2V11.9H195.8M195.8,11.9V7H219.7M195.8,11.9V16.8H219.7M172,19.2V26.6H195.8M148.1,27.8V36.4H172M124.2,37V46.2H148.1M100.4,46.5V56H124.2M76.6,56.1V65.8H100.4M52.7,65.8V75.5H76.6M28.9,374.7V683.6H52.7M52.7,683.6V665.1H76.6M76.6,665.1V637.7H100.4M100.4,637.7V592.9H124.2M124.2,592.9V512.9H148.1M148.1,512.9V382.5H172M172,382.5V366.2H195.8M195.8,366.2V343.6H219.7M219.7,343.6V308.1H243.5M243.5,308.1V251.9H267.4M267.4,251.9V183.3H291.2M291.2,183.3V158.9H315.1M315.1,158.9V133.4H338.9M338.9,133.4V117.8H362.8M362.8,117.8V106.1H386.6M386.6,106.1V114.7H410.5M362.8,117.8V129.4H386.6M386.6,129.4V124.5H410.5M386.6,129.4V134.3H410.5M315.1,158.9V184.5H338.9M338.9,184.5V175.9H362.8M362.8,175.9V168.6H386.6M386.6,168.6V163.7H410.5M386.6,168.6V173.5H410.5M362.8,175.9V183.2H386.6M338.9,184.5V193H362.8M291.2,183.3V207.7H315.1M315.1,207.7V202.8H338.9M315.1,207.7V212.6H338.9M267.4,251.9V320.4H291.2M291.2,320.4V299.7H315.1M315.1,299.7V288.8H338.9M338.9,288.8V276.9H362.8M362.8,276.9V262.8H386.6M386.6,262.8V249.3H410.5M410.5,249.3V237.1H434.3M434.3,237.1V227.3H458.2M458.2,227.3V222.4H482M458.2,227.3V232.2H482M434.3,237.1V246.9H458.2M458.2,246.9V242H482M458.2,246.9V251.8H482M410.5,249.3V261.6H434.3M386.6,262.8V276.3H410.5M410.5,276.3V271.4H434.3M410.5,276.3V281.2H434.3M362.8,276.9V291H386.6M338.9,288.8V300.8H362.8M315.1,299.7V310.5H338.9M291.2,320.4V341.1H315.1M315.1,341.1V332.6H338.9M338.9,332.6V325.2H362.8M362.8,325.2V320.3H386.6M362.8,325.2V330.1H386.6M338.9,332.6V339.9H362.8M315.1,341.1V349.7H338.9M243.5,308.1V364.4H267.4M267.4,364.4V359.5H291.2M267.4,364.4V369.3H291.2M219.7,343.6V379.1H243.5M195.8,366.2V388.9H219.7M172,382.5V398.7H195.8M148.1,512.9V643.3H172M172,643.3V623.7H195.8M195.8,623.7V594.1H219.7M219.7,594.1V553.2H243.5M243.5,553.2V511.8H267.4M267.4,511.8V492.7H291.2M291.2,492.7V469.2H315.1M315.1,469.2V447.9H338.9M338.9,447.9V438.4H362.8M362.8,438.4V429.3H386.6M386.6,429.3V420.7H410.5M410.5,420.7V413.4H434.3M434.3,413.4V408.5H458.2M434.3,413.4V418.2H458.2M410.5,420.7V428H434.3M386.6,429.3V437.8H410.5M362.8,438.4V447.6H386.6M338.9,447.9V457.4H362.8M315.1,469.2V490.5H338.9M338.9,490.5V479.4H362.8M362.8,479.4V472.1H386.6M386.6,472.1V467.2H410.5M386.6,472.1V477H410.5M362.8,479.4V486.8H386.6M338.9,490.5V501.5H362.8M362.8,501.5V496.6H386.6M362.8,501.5V506.4H386.6M291.2,492.7V516.2H315.1M267.4,511.8V530.9H291.2M291.2,530.9V526H315.1M291.2,530.9V535.8H315.1M243.5,553.2V594.7H267.4M267.4,594.7V585H291.2M291.2,585V575.5H315.1M315.1,575.5V566.3H338.9M338.9,566.3V557.8H362.8M362.8,557.8V550.4H386.6M386.6,550.4V545.5H410.5M386.6,550.4V555.3H410.5M362.8,557.8V565.1H386.6M338.9,566.3V574.9H362.8M315.1,575.5V584.7H338.9M291.2,585V594.5H315.1M267.4,594.7V604.3H291.2M219.7,594.1V634.9H243.5M243.5,634.9V626.3H267.4M267.4,626.3V619H291.2M291.2,619V614.1H315.1M291.2,619V623.9H315.1M267.4,626.3V633.7H291.2M243.5,634.9V643.5H267.4M195.8,623.7V653.2H219.7M172,643.3V663H195.8M124.2,592.9V672.8H148.1M100.4,637.7V682.6H124.2M76.6,665.1V692.4H100.4M52.7,683.6V702.2H76.6M5,543.4V712H28.9" stroke="#fc8d59"></path><path d="M386.6,106.1V97.6H410.5M410.5,97.6V90.2H434.3M434.3,90.2V85.3H458.2M434.3,90.2V95.1H458.2M410.5,97.6V104.9H434.3M338.9,133.4V149H362.8M362.8,149V144.1H386.6M362.8,149V153.9H386.6" stroke="#91bfdb"></path><text x="30.9" y="377.7" class="node" fill="#CACDE3">0.59</text><text x="54.7" y="68.8" class="node" fill="#6982E1">0.92</text><text x="78.6" y="59.1" class="node" fill="#E5C7CC">0.41</text><text x="102.4" y="49.5" class="node" fill="#5776E2">0.97</text><text x="126.2" y="40" class="node" fill="#E38C9E">0.22</text><text x="150.1" y="30.8" class="node" fill="#5776E2">0.97</text><text x="174" y="22.2" class="node" fill="#4A6FE3">1</text><text x="197.8" y="14.9" class="node" fill="#6982E1">0.92</text><text x="54.7" y="686.6" class="node" fill="#6982E1">0.92</text><text x="78.6" y="668.1" class="node" fill="#6982E1">0.92</text><text x="102.4" y="640.7" class="node" fill="#E3DFE0">0.49</text><text x="126.2" y="595.9" class="node" fill="#6982E1">0.92</text><text x="150.1" y="515.9" class="node" fill="#6982E1">0.92</text><text x="174" y="385.5" class="node" fill="#5776E2">0.97</text><text x="197.8" y="369.2" class="node" fill="#4A6FE3">1</text><text x="221.7" y="346.6" class="node" fill="#5776E2">0.97</text><text x="245.5" y="311.1" class="node" fill="#6982E1">0.92</text><text x="269.4" y="254.9" class="node" fill="#5776E2">0.97</text><text x="293.2" y="186.3" class="node" fill="#5776E2">0.97</text><text x="317.1" y="161.9" class="node" fill="#8C9BE1">0.81</text><text x="340.9" y="136.4" class="node" fill="#ABB4E2">0.7</text><text x="364.8" y="120.8" class="node" fill="#8C9BE1">0.81</text><text x="388.6" y="109.1" class="node" fill="#5F7BE1">0.95</text><text x="412.5" y="100.6" class="node" fill="#5F7BE1">0.95</text><text x="436.3" y="93.2" class="node" fill="#E0E0E2">0.51</text><text x="388.6" y="132.4" class="node" fill="#4A6FE3">1</text><text x="364.8" y="152" class="node" fill="#E6B4BD">0.35</text><text x="340.9" y="187.5" class="node" fill="#E0E0E2">0.51</text><text x="364.8" y="178.9" class="node" fill="#7388E1">0.89</text><text x="388.6" y="171.6" class="node" fill="#4A6FE3">1</text><text x="317.1" y="210.7" class="node" fill="#5F7BE1">0.95</text><text x="293.2" y="323.4" class="node" fill="#5F7BE1">0.95</text><text x="317.1" y="302.7" class="node" fill="#5F7BE1">0.95</text><text x="340.9" y="291.8" class="node" fill="#5F7BE1">0.95</text><text x="364.8" y="279.9" class="node" fill="#5F7BE1">0.95</text><text x="388.6" y="265.8" class="node" fill="#5F7BE1">0.95</text><text x="412.5" y="252.3" class="node" fill="#4A6FE3">1</text><text x="436.3" y="240.1" class="node" fill="#E3DFE0">0.49</text><text x="460.2" y="230.3" class="node" fill="#4A6FE3">1</text><text x="460.2" y="249.9" class="node" fill="#5F7BE1">0.95</text><text x="412.5" y="279.3" class="node" fill="#5F7BE1">0.95</text><text x="317.1" y="344.1" class="node" fill="#4A6FE3">1</text><text x="340.9" y="335.6" class="node" fill="#4A6FE3">1</text><text x="364.8" y="328.2" class="node" fill="#5F7BE1">0.95</text><text x="269.4" y="367.4" class="node" fill="#6982E1">0.92</text><text x="174" y="646.3" class="node" fill="#6982E1">0.92</text><text x="197.8" y="626.7" class="node" fill="#5F7BE1">0.95</text><text x="221.7" y="597.1" class="node" fill="#8C9BE1">0.81</text><text x="245.5" y="556.2" class="node" fill="#5F7BE1">0.95</text><text x="269.4" y="514.8" class="node" fill="#5F7BE1">0.95</text><text x="293.2" y="495.7" class="node" fill="#7D8FE1">0.86</text><text x="317.1" y="472.2" class="node" fill="#5F7BE1">0.95</text><text x="340.9" y="450.9" class="node" fill="#6982E1">0.92</text><text x="364.8" y="441.4" class="node" fill="#E0E0E2">0.51</text><text x="388.6" y="432.3" class="node" fill="#E38C9E">0.22</text><text x="412.5" y="423.7" class="node" fill="#4A6FE3">1</text><text x="436.3" y="416.4" class="node" fill="#6982E1">0.92</text><text x="340.9" y="493.5" class="node" fill="#6982E1">0.92</text><text x="364.8" y="482.4" class="node" fill="#6982E1">0.92</text><text x="388.6" y="475.1" class="node" fill="#5776E2">0.97</text><text x="364.8" y="504.5" class="node" fill="#4A6FE3">1</text><text x="293.2" y="533.9" class="node" fill="#E3DFE0">0.49</text><text x="269.4" y="597.7" class="node" fill="#4A6FE3">1</text><text x="293.2" y="588" class="node" fill="#5F7BE1">0.95</text><text x="317.1" y="578.5" class="node" fill="#E5A5B1">0.3</text><text x="340.9" y="569.3" class="node" fill="#95A1E2">0.78</text><text x="364.8" y="560.8" class="node" fill="#E38C9E">0.22</text><text x="388.6" y="553.4" class="node" fill="#4A6FE3">1</text><text x="245.5" y="637.9" class="node" fill="#4A6FE3">1</text><text x="269.4" y="629.3" class="node" fill="#D7D9E3">0.54</text><text x="293.2" y="622" class="node" fill="#CACDE3">0.59</text></svg>
