<svg xmlns="http://www.w3.org/2000/svg" version="1.1" viewBox="0 0 682 720" preserveAspectRatio="xMidYMid meet" class="tree" data-char="210"><text x="678" y="12.7" text-anchor="end" class="stepsLabel">Character adds <tspan class="score">5</tspan> to tree score</text><text x="678" y="22.4" text-anchor="end" class="stepsLabel"><tspan class="score">0</tspan> additional regions</text><text x="678" y="32.1" text-anchor="end" class="stepsLabel"></text><text x="678" y="51.5" text-anchor="end" class="stepsLabel"><tspan dy="16" fill="#34caaf">An optimal tree under:</tspan><tspan x="680" style="font-style:italic" class="notThisAn" dy="1.2em">Implied weights, k = 4.5</tspan><tspan x="680" style="font-style:italic" class="notThisAn" dy="1.2em">IW, k = 10.5</tspan><tspan x="680" style="font-style:italic" class="notThisAn" dy="1.2em">IW, k = 24</tspan><tspan x="680" style="font-style:italic" class="thisAn" dy="1.2em">Equal weights</tspan></text><text x="141.3" y="675.8" fill="grey" class="flag">[?]</text><text x="163.3" y="675.8" fill="#999" class="taxonLabel">Paramicrocornus</text><text x="141.3" y="685.6" fill="grey" class="flag">[?]</text><text x="163.3" y="685.6" fill="#999" class="taxonLabel">Haplophrentis carinatus</text><text x="277.6" y="617.1" fill="grey" class="flag">[?]</text><text x="299.6" y="617.1" fill="#999" class="taxonLabel">Serpula</text><text x="277.6" y="626.9" fill="#fdae61" class="flag">[1]</text><text x="299.6" y="626.9" fill="#000" class="taxonLabel">Capitella</text><text x="254.9" y="636.7" fill="grey" class="flag">[?]</text><text x="276.9" y="636.7" fill="#999" class="taxonLabel">Canadia spinosa</text><text x="232.1" y="646.5" fill="grey" class="flag">[?]</text><text x="254.1" y="646.5" fill="#999" class="taxonLabel">Sipunculus</text><text x="368.4" y="548.5" fill="#e2e2a2" class="flag">[2]</text><text x="390.4" y="548.5" fill="#000" class="taxonLabel">Neopilina</text><text x="368.4" y="558.3" fill="#fdae61" class="flag">[1]</text><text x="390.4" y="558.3" fill="#000" class="taxonLabel">Haliotis</text><text x="345.7" y="568.1" fill="grey" class="flag">[?]</text><text x="367.7" y="568.1" fill="#999" class="taxonLabel">Conocardium elongatum</text><text x="323" y="577.9" fill="#e2e2a2" class="flag">[2]</text><text x="345" y="577.9" fill="#000" class="taxonLabel">Mytilus</text><text x="300.3" y="587.7" fill="grey" class="flag">[?]</text><text x="322.3" y="587.7" fill="#999" class="taxonLabel">Pojetaia runnegari</text><text x="277.6" y="597.5" fill="grey" class="flag">[?]</text><text x="299.6" y="597.5" fill="#999" class="taxonLabel">Dentalium</text><text x="300.3" y="529" fill="grey" class="flag">[?]</text><text x="322.3" y="529" fill="#999" class="taxonLabel">Wiwaxia corrugata</text><text x="300.3" y="538.8" fill="grey" class="flag">[?]</text><text x="322.3" y="538.8" fill="#999" class="taxonLabel">Odontogriphus omalus</text><text x="368.4" y="499.6" fill="#fdae61" class="flag">[1]</text><text x="390.4" y="499.6" fill="#000" class="taxonLabel">Wirenia</text><text x="368.4" y="509.4" fill="#e2e2a2" class="flag">[2]</text><text x="390.4" y="509.4" fill="#000" class="taxonLabel">Chaetoderma</text><text x="391.1" y="470.2" fill="grey" class="flag">[?]</text><text x="413.1" y="470.2" fill="#999" class="taxonLabel">Phthipodochiton thraivensis</text><text x="391.1" y="480" fill="grey" class="flag">[?]</text><text x="413.1" y="480" fill="#999" class="taxonLabel">Kulindroplax perissokomos</text><text x="368.4" y="489.8" fill="grey" class="flag">[?]</text><text x="390.4" y="489.8" fill="#999" class="taxonLabel">Acaenoplax hayae</text><text x="436.6" y="411.5" fill="#2c7bb6" class="flag">[4]</text><text x="458.6" y="411.5" fill="#000" class="taxonLabel">Tonicella</text><text x="436.6" y="421.2" fill="#2c7bb6" class="flag">[4]</text><text x="458.6" y="421.2" fill="#000" class="taxonLabel">Mopalia</text><text x="413.9" y="431" fill="#e2e2a2" class="flag">[2]</text><text x="435.9" y="431" fill="#000" class="taxonLabel">Leptochiton</text><text x="391.1" y="440.8" fill="grey" class="flag">[?]</text><text x="413.1" y="440.8" fill="#999" class="taxonLabel">Glaphurochiton carbonarius</text><text x="368.4" y="450.6" fill="grey" class="flag">[?]</text><text x="390.4" y="450.6" fill="#999" class="taxonLabel">Calvapilosa kroegeri</text><text x="345.7" y="460.4" fill="grey" class="flag">[?]</text><text x="367.7" y="460.4" fill="#999" class="taxonLabel">Polysacos vickersianum</text><text x="300.3" y="519.2" fill="grey" class="flag">[?]</text><text x="322.3" y="519.2" fill="#999" class="taxonLabel">Siphogonuchites multa</text><text x="232.1" y="607.3" fill="grey" class="flag">[?]</text><text x="254.1" y="607.3" fill="#999" class="taxonLabel">Pelagiella</text><text x="186.7" y="656.2" fill="grey" class="flag">[?]</text><text x="208.7" y="656.2" fill="#999" class="taxonLabel">Bactrotheca</text><text x="164" y="666" fill="grey" class="flag">[?]</text><text x="186" y="666" fill="#999" class="taxonLabel">Cupitheca holocyclata</text><text x="254.9" y="362.5" fill="grey" class="flag">[?]</text><text x="276.9" y="362.5" fill="#999" class="taxonLabel">Mickwitzia muralensis</text><text x="254.9" y="372.3" fill="grey" class="flag">[?]</text><text x="276.9" y="372.3" fill="#999" class="taxonLabel">Heliomedusa orienta</text><text x="345.7" y="323.3" fill="#fdae61" class="flag">[1]</text><text x="367.7" y="323.3" fill="#000" class="taxonLabel">Novocrania</text><text x="345.7" y="333.1" fill="grey" class="flag">[?]</text><text x="367.7" y="333.1" fill="#999" class="taxonLabel">Craniops</text><text x="323" y="342.9" fill="grey" class="flag">[?]</text><text x="345" y="342.9" fill="#999" class="taxonLabel">Ussunia</text><text x="300.3" y="352.7" fill="grey" class="flag">[?]</text><text x="322.3" y="352.7" fill="#999" class="taxonLabel">Gasconsia</text><text x="391.1" y="274.4" fill="grey" class="flag">[?]</text><text x="413.1" y="274.4" fill="#999" class="taxonLabel">Pelagodiscus atlanticus</text><text x="391.1" y="284.2" fill="grey" class="flag">[?]</text><text x="413.1" y="284.2" fill="#999" class="taxonLabel">Mummpikia nuda</text><text x="459.3" y="225.4" fill="grey" class="flag">[?]</text><text x="481.3" y="225.4" fill="#999" class="taxonLabel">Siphonobolus priscus</text><text x="459.3" y="235.2" fill="grey" class="flag">[?]</text><text x="481.3" y="235.2" fill="#999" class="taxonLabel">Acanthotretella spinosa</text><text x="436.6" y="245" fill="grey" class="flag">[?]</text><text x="458.6" y="245" fill="#999" class="taxonLabel">Clupeafumosus socialis</text><text x="413.9" y="254.8" fill="grey" class="flag">[?]</text><text x="435.9" y="254.8" fill="#999" class="taxonLabel">Lingulosacculus</text><text x="391.1" y="264.6" fill="grey" class="flag">[?]</text><text x="413.1" y="264.6" fill="#999" class="taxonLabel">Lingulellotreta malongensis</text><text x="345.7" y="294" fill="grey" class="flag">[?]</text><text x="367.7" y="294" fill="#999" class="taxonLabel">Botsfordia</text><text x="323" y="303.8" fill="grey" class="flag">[?]</text><text x="345" y="303.8" fill="#999" class="taxonLabel">Eoobolus</text><text x="300.3" y="313.5" fill="grey" class="flag">[?]</text><text x="322.3" y="313.5" fill="#999" class="taxonLabel">Lingula</text><text x="300.3" y="205.8" fill="grey" class="flag">[?]</text><text x="322.3" y="205.8" fill="#999" class="taxonLabel">Micromitra</text><text x="300.3" y="215.6" fill="grey" class="flag">[?]</text><text x="322.3" y="215.6" fill="#999" class="taxonLabel">Askepasma toddense</text><text x="345.7" y="176.5" fill="grey" class="flag">[?]</text><text x="367.7" y="176.5" fill="#999" class="taxonLabel">Yuganotheca elegans</text><text x="345.7" y="186.2" fill="grey" class="flag">[?]</text><text x="367.7" y="186.2" fill="#999" class="taxonLabel">Tomteluva perturbata</text><text x="368.4" y="156.9" fill="grey" class="flag">[?]</text><text x="390.4" y="156.9" fill="#999" class="taxonLabel">Coolinia pecten</text><text x="368.4" y="166.7" fill="grey" class="flag">[?]</text><text x="390.4" y="166.7" fill="#999" class="taxonLabel">Antigonambonites planus</text><text x="482" y="88.3" fill="grey" class="flag">[?]</text><text x="504" y="88.3" fill="#999" class="taxonLabel">Terebratulina</text><text x="482" y="98.1" fill="grey" class="flag">[?]</text><text x="504" y="98.1" fill="#999" class="taxonLabel">Orthis</text><text x="459.3" y="107.9" fill="grey" class="flag">[?]</text><text x="481.3" y="107.9" fill="#999" class="taxonLabel">Alisina</text><text x="436.6" y="117.7" fill="grey" class="flag">[?]</text><text x="458.6" y="117.7" fill="#999" class="taxonLabel">Longtancunella chengjiangensis</text><text x="413.9" y="127.5" fill="grey" class="flag">[?]</text><text x="435.9" y="127.5" fill="#999" class="taxonLabel">Glyptoria</text><text x="391.1" y="137.3" fill="grey" class="flag">[?]</text><text x="413.1" y="137.3" fill="#999" class="taxonLabel">Nisusia sulcata</text><text x="368.4" y="147.1" fill="grey" class="flag">[?]</text><text x="390.4" y="147.1" fill="#999" class="taxonLabel">Kutorgina chengjiangensis</text><text x="300.3" y="196" fill="grey" class="flag">[?]</text><text x="322.3" y="196" fill="#999" class="taxonLabel">Salanygolina</text><text x="209.4" y="382.1" fill="grey" class="flag">[?]</text><text x="231.4" y="382.1" fill="#999" class="taxonLabel">Micrina</text><text x="186.7" y="391.9" fill="grey" class="flag">[?]</text><text x="208.7" y="391.9" fill="#999" class="taxonLabel">Paterimitra</text><text x="164" y="401.7" fill="grey" class="flag">[?]</text><text x="186" y="401.7" fill="#999" class="taxonLabel">Pedunculotheca diania</text><text x="95.9" y="695.4" fill="grey" class="flag">[?]</text><text x="117.9" y="695.4" fill="#999" class="taxonLabel">Halkieria evangelista</text><text x="73.1" y="705.2" fill="grey" class="flag">[?]</text><text x="95.1" y="705.2" fill="#999" class="taxonLabel">Orthrozanclus</text><text x="118.6" y="59" fill="grey" class="flag">[?]</text><text x="140.6" y="59" fill="#999" class="taxonLabel">Eccentrotheca</text><text x="118.6" y="68.8" fill="grey" class="flag">[?]</text><text x="140.6" y="68.8" fill="#999" class="taxonLabel">Cotyledion tylodes</text><text x="141.3" y="39.4" fill="grey" class="flag">[?]</text><text x="163.3" y="39.4" fill="#999" class="taxonLabel">Phoronis</text><text x="141.3" y="49.2" fill="grey" class="flag">[?]</text><text x="163.3" y="49.2" fill="#999" class="taxonLabel">Namacalathus</text><text x="164" y="10" fill="#fdae61" class="flag">[1]</text><text x="186" y="10" fill="#000" class="taxonLabel">Flustra</text><text x="164" y="19.8" fill="grey" class="flag">[?]</text><text x="186" y="19.8" fill="#999" class="taxonLabel">Amathia</text><text x="141.3" y="29.6" fill="#abd9e9" class="flag">[3]</text><text x="163.3" y="29.6" fill="#000" class="taxonLabel">Loxosomella</text><text x="73.1" y="78.5" fill="grey" class="flag">[?]</text><text x="95.1" y="78.5" fill="#999" class="taxonLabel">Dailyatia</text><text x="27.7" y="715" fill="grey" class="flag">[?]</text><text x="49.7" y="715" fill="#999" class="taxonLabel">Yilingia spiciformis</text><path d="M5,539.4V366.9H27.7M27.7,366.9V60.5H50.4M50.4,60.5V45.6H73.1M73.1,45.6V30.3H95.9M95.9,30.3V19.2H118.6M118.6,19.2V11.9H141.3M141.3,11.9V7H164M141.3,11.9V16.8H164M95.9,30.3V41.3H118.6M118.6,41.3V36.4H141.3M118.6,41.3V46.2H141.3M73.1,45.6V60.9H95.9M95.9,60.9V56H118.6M95.9,60.9V65.8H118.6M50.4,60.5V75.5H73.1M27.7,366.9V673.2H50.4M50.4,673.2V644.3H73.1M73.1,644.3V596.1H95.9M95.9,596.1V514.5H118.6M118.6,514.5V382.8H141.3M141.3,382.8V366.8H164M164,366.8V344.8H186.7M186.7,344.8V310.5H209.4M209.4,310.5V256.6H232.1M232.1,256.6V192.7H254.9M254.9,192.7V177.8H277.6M277.6,177.8V162.5H300.3M300.3,162.5V146.6H323M323,146.6V134.4H345.7M345.7,134.4V124.8H368.4M368.4,124.8V115.3H391.1M391.1,115.3V106.1H413.9M413.9,106.1V97.6H436.6M436.6,97.6V90.2H459.3M459.3,90.2V85.3H482M459.3,90.2V95.1H482M436.6,97.6V104.9H459.3M413.9,106.1V114.7H436.6M391.1,115.3V124.5H413.9M368.4,124.8V134.3H391.1M345.7,134.4V144.1H368.4M323,146.6V158.8H345.7M345.7,158.8V153.9H368.4M345.7,158.8V163.7H368.4M300.3,162.5V178.4H323M323,178.4V173.5H345.7M323,178.4V183.2H345.7M277.6,177.8V193H300.3M254.9,192.7V207.7H277.6M277.6,207.7V202.8H300.3M277.6,207.7V212.6H300.3M232.1,256.6V320.5H254.9M254.9,320.5V299.9H277.6M277.6,299.9V289.2H300.3M300.3,289.2V277.6H323M323,277.6V264.3H345.7M345.7,264.3V252.4H368.4M368.4,252.4V243.2H391.1M391.1,243.2V234.7H413.9M413.9,234.7V227.3H436.6M436.6,227.3V222.4H459.3M436.6,227.3V232.2H459.3M413.9,234.7V242H436.6M391.1,243.2V251.8H413.9M368.4,252.4V261.6H391.1M345.7,264.3V276.3H368.4M368.4,276.3V271.4H391.1M368.4,276.3V281.2H391.1M323,277.6V291H345.7M300.3,289.2V300.8H323M277.6,299.9V310.5H300.3M254.9,320.5V341.1H277.6M277.6,341.1V332.6H300.3M300.3,332.6V325.2H323M323,325.2V320.3H345.7M323,325.2V330.1H345.7M300.3,332.6V339.9H323M277.6,341.1V349.7H300.3M209.4,310.5V364.4H232.1M232.1,364.4V359.5H254.9M232.1,364.4V369.3H254.9M186.7,344.8V379.1H209.4M164,366.8V388.9H186.7M141.3,382.8V398.7H164M118.6,514.5V646.2H141.3M141.3,646.2V629.4H164M164,629.4V605.6H186.7M186.7,605.6V576.3H209.4M345.7,501.5V496.6H368.4M345.7,550.4V555.3H368.4M186.7,605.6V634.9H209.4M209.4,634.9V626.3H232.1M232.1,626.3V619H254.9M254.9,619V614.1H277.6M254.9,619V623.9H277.6M232.1,626.3V633.7H254.9M209.4,634.9V643.5H232.1M164,629.4V653.2H186.7M141.3,646.2V663H164M95.9,596.1V677.7H118.6M118.6,677.7V672.8H141.3M118.6,677.7V682.6H141.3M73.1,644.3V692.4H95.9M50.4,673.2V702.2H73.1M5,539.4V712H27.7" stroke="#fdae61"></path><path d="M118.6,19.2V26.6H141.3" stroke="#abd9e9"></path><path d="M209.4,576.3V548.4H232.1M232.1,548.4V511.8H254.9M254.9,511.8V492.7H277.6M277.6,492.7V469.2H300.3M300.3,469.2V447.9H323M323,447.9V438.4H345.7M345.7,438.4V429.3H368.4M368.4,429.3V420.7H391.1M391.1,420.7V428H413.9M368.4,429.3V437.8H391.1M345.7,438.4V447.6H368.4M323,447.9V457.4H345.7M300.3,469.2V490.5H323M323,490.5V479.4H345.7M345.7,479.4V472.1H368.4M368.4,472.1V467.2H391.1M368.4,472.1V477H391.1M345.7,479.4V486.8H368.4M323,490.5V501.5H345.7M345.7,501.5V506.4H368.4M277.6,492.7V516.2H300.3M254.9,511.8V530.9H277.6M277.6,530.9V526H300.3M277.6,530.9V535.8H300.3M232.1,548.4V585H254.9M254.9,585V575.5H277.6M277.6,575.5V566.3H300.3M300.3,566.3V557.8H323M323,557.8V550.4H345.7M345.7,550.4V545.5H368.4M323,557.8V565.1H345.7M300.3,566.3V574.9H323M277.6,575.5V584.7H300.3M254.9,585V594.5H277.6" stroke="#e2e2a2"></path><path d="M391.1,420.7V413.4H413.9M413.9,413.4V408.5H436.6M413.9,413.4V418.2H436.6" stroke="#2c7bb6"></path><path d="M209.4,576.3V604.3H232.1" stroke="darkgrey"></path><text x="29.7" y="369.9" class="node" fill="#CACDE3">0.59</text><text x="52.4" y="63.5" class="node" fill="#6982E1">0.92</text><text x="75.1" y="48.6" class="node" fill="#5776E2">0.97</text><text x="97.9" y="33.3" class="node" fill="#5776E2">0.97</text><text x="120.6" y="22.2" class="node" fill="#4A6FE3">1</text><text x="143.3" y="14.9" class="node" fill="#E18297">0.19</text><text x="120.6" y="44.3" class="node" fill="#E5A5B1">0.3</text><text x="97.9" y="63.9" class="node" fill="#6982E1">0.92</text><text x="52.4" y="676.2" class="node" fill="#6982E1">0.92</text><text x="75.1" y="647.3" class="node" fill="#6982E1">0.92</text><text x="97.9" y="599.1" class="node" fill="#6982E1">0.92</text><text x="120.6" y="517.5" class="node" fill="#6982E1">0.92</text><text x="143.3" y="385.8" class="node" fill="#5776E2">0.97</text><text x="166" y="369.8" class="node" fill="#4A6FE3">1</text><text x="188.7" y="347.8" class="node" fill="#5776E2">0.97</text><text x="211.4" y="313.5" class="node" fill="#6982E1">0.92</text><text x="234.1" y="259.6" class="node" fill="#5776E2">0.97</text><text x="256.9" y="195.7" class="node" fill="#5776E2">0.97</text><text x="279.6" y="180.8" class="node" fill="#E3DFE0">0.49</text><text x="302.3" y="165.5" class="node" fill="#E6BDC5">0.38</text><text x="325" y="149.6" class="node" fill="#DF798F">0.16</text><text x="347.7" y="137.4" class="node" fill="#DC6884">0.11</text><text x="370.4" y="127.8" class="node" fill="#E18297">0.19</text><text x="393.1" y="118.3" class="node" fill="#E18297">0.19</text><text x="415.9" y="109.1" class="node" fill="#5F7BE1">0.95</text><text x="438.6" y="100.6" class="node" fill="#5F7BE1">0.95</text><text x="461.3" y="93.2" class="node" fill="#4A6FE3">1</text><text x="347.7" y="161.8" class="node" fill="#7388E1">0.89</text><text x="325" y="181.4" class="node" fill="#4A6FE3">1</text><text x="279.6" y="210.7" class="node" fill="#5F7BE1">0.95</text><text x="256.9" y="323.5" class="node" fill="#5F7BE1">0.95</text><text x="279.6" y="302.9" class="node" fill="#5F7BE1">0.95</text><text x="302.3" y="292.2" class="node" fill="#5F7BE1">0.95</text><text x="325" y="280.6" class="node" fill="#5F7BE1">0.95</text><text x="347.7" y="267.3" class="node" fill="#5F7BE1">0.95</text><text x="370.4" y="255.4" class="node" fill="#4A6FE3">1</text><text x="393.1" y="246.2" class="node" fill="#DF798F">0.16</text><text x="415.9" y="237.7" class="node" fill="#4A6FE3">1</text><text x="438.6" y="230.3" class="node" fill="#5F7BE1">0.95</text><text x="370.4" y="279.3" class="node" fill="#5F7BE1">0.95</text><text x="279.6" y="344.1" class="node" fill="#4A6FE3">1</text><text x="302.3" y="335.6" class="node" fill="#4A6FE3">1</text><text x="325" y="328.2" class="node" fill="#5F7BE1">0.95</text><text x="234.1" y="367.4" class="node" fill="#6982E1">0.92</text><text x="143.3" y="649.2" class="node" fill="#6982E1">0.92</text><text x="166" y="632.4" class="node" fill="#5F7BE1">0.95</text><text x="188.7" y="608.6" class="node" fill="#8C9BE1">0.81</text><text x="211.4" y="579.3" class="node" fill="#E0E0E2">0.51</text><text x="234.1" y="551.4" class="node" fill="#5F7BE1">0.95</text><text x="256.9" y="514.8" class="node" fill="#5F7BE1">0.95</text><text x="279.6" y="495.7" class="node" fill="#7D8FE1">0.86</text><text x="302.3" y="472.2" class="node" fill="#5F7BE1">0.95</text><text x="325" y="450.9" class="node" fill="#6982E1">0.92</text><text x="347.7" y="441.4" class="node" fill="#E0E0E2">0.51</text><text x="370.4" y="432.3" class="node" fill="#E5C7CC">0.41</text><text x="393.1" y="423.7" class="node" fill="#4A6FE3">1</text><text x="415.9" y="416.4" class="node" fill="#6982E1">0.92</text><text x="325" y="493.5" class="node" fill="#6982E1">0.92</text><text x="347.7" y="482.4" class="node" fill="#6982E1">0.92</text><text x="370.4" y="475.1" class="node" fill="#5776E2">0.97</text><text x="347.7" y="504.5" class="node" fill="#4A6FE3">1</text><text x="279.6" y="533.9" class="node" fill="#4A6FE3">1</text><text x="256.9" y="588" class="node" fill="#5F7BE1">0.95</text><text x="279.6" y="578.5" class="node" fill="#E5A5B1">0.3</text><text x="302.3" y="569.3" class="node" fill="#95A1E2">0.78</text><text x="325" y="560.8" class="node" fill="#DF798F">0.16</text><text x="347.7" y="553.4" class="node" fill="#4A6FE3">1</text><text x="211.4" y="637.9" class="node" fill="#4A6FE3">1</text><text x="234.1" y="629.3" class="node" fill="#E4D6D8">0.46</text><text x="256.9" y="622" class="node" fill="#E0E0E2">0.51</text><text x="120.6" y="680.7" class="node" fill="#CACDE3">0.59</text></svg>
