<svg xmlns="http://www.w3.org/2000/svg" version="1.1" viewBox="0 0 682 720" preserveAspectRatio="xMidYMid meet" class="tree" data-char="50"><text x="678" y="12.7" text-anchor="end" class="stepsLabel">Character adds <tspan class="score">7</tspan> to tree score</text><text x="678" y="22.4" text-anchor="end" class="stepsLabel"><tspan class="score">0</tspan> additional regions</text><text x="678" y="32.1" text-anchor="end" class="stepsLabel"></text><text x="678" y="51.5" text-anchor="end" class="stepsLabel"><tspan dy="16" fill="#34caaf">An optimal tree under:</tspan><tspan x="680" style="font-style:italic" class="notThisAn" dy="1.2em">Implied weights, k = 4.5</tspan><tspan x="680" style="font-style:italic" class="notThisAn" dy="1.2em">IW, k = 10.5</tspan><tspan x="680" style="font-style:italic" class="notThisAn" dy="1.2em">IW, k = 24</tspan><tspan x="680" style="font-style:italic" class="thisAn" dy="1.2em">Equal weights</tspan></text><text x="323" y="607.3" fill="lightgrey" class="flag">[-]</text><text x="345" y="607.3" fill="#ccc" class="taxonLabel">Serpula</text><text x="323" y="617.1" fill="lightgrey" class="flag">[-]</text><text x="345" y="617.1" fill="#ccc" class="taxonLabel">Capitella</text><text x="300.3" y="626.9" fill="lightgrey" class="flag">[-]</text><text x="322.3" y="626.9" fill="#ccc" class="taxonLabel">Canadia spinosa</text><text x="277.6" y="636.7" fill="lightgrey" class="flag">[-]</text><text x="299.6" y="636.7" fill="#ccc" class="taxonLabel">Sipunculus</text><text x="413.9" y="538.8" fill="lightgrey" class="flag">[-]</text><text x="435.9" y="538.8" fill="#ccc" class="taxonLabel">Haliotis</text><text x="413.9" y="548.5" fill="lightgrey" class="flag">[-]</text><text x="435.9" y="548.5" fill="#ccc" class="taxonLabel">Conocardium elongatum</text><text x="391.1" y="558.3" fill="lightgrey" class="flag">[-]</text><text x="413.1" y="558.3" fill="#ccc" class="taxonLabel">Neopilina</text><text x="368.4" y="568.1" fill="lightgrey" class="flag">[-]</text><text x="390.4" y="568.1" fill="#ccc" class="taxonLabel">Pojetaia runnegari</text><text x="345.7" y="577.9" fill="lightgrey" class="flag">[-]</text><text x="367.7" y="577.9" fill="#ccc" class="taxonLabel">Mytilus</text><text x="323" y="587.7" fill="lightgrey" class="flag">[-]</text><text x="345" y="587.7" fill="#ccc" class="taxonLabel">Dentalium</text><text x="345.7" y="519.2" fill="lightgrey" class="flag">[-]</text><text x="367.7" y="519.2" fill="#ccc" class="taxonLabel">Wiwaxia corrugata</text><text x="345.7" y="529" fill="lightgrey" class="flag">[-]</text><text x="367.7" y="529" fill="#ccc" class="taxonLabel">Odontogriphus omalus</text><text x="413.9" y="489.8" fill="lightgrey" class="flag">[-]</text><text x="435.9" y="489.8" fill="#ccc" class="taxonLabel">Wirenia</text><text x="413.9" y="499.6" fill="lightgrey" class="flag">[-]</text><text x="435.9" y="499.6" fill="#ccc" class="taxonLabel">Chaetoderma</text><text x="436.6" y="460.4" fill="lightgrey" class="flag">[-]</text><text x="458.6" y="460.4" fill="#ccc" class="taxonLabel">Phthipodochiton thraivensis</text><text x="436.6" y="470.2" fill="lightgrey" class="flag">[-]</text><text x="458.6" y="470.2" fill="#ccc" class="taxonLabel">Kulindroplax perissokomos</text><text x="413.9" y="480" fill="lightgrey" class="flag">[-]</text><text x="435.9" y="480" fill="#ccc" class="taxonLabel">Acaenoplax hayae</text><text x="436.6" y="431" fill="lightgrey" class="flag">[-]</text><text x="458.6" y="431" fill="#ccc" class="taxonLabel">Glaphurochiton carbonarius</text><text x="436.6" y="440.8" fill="lightgrey" class="flag">[-]</text><text x="458.6" y="440.8" fill="#ccc" class="taxonLabel">Calvapilosa kroegeri</text><text x="459.3" y="401.7" fill="lightgrey" class="flag">[-]</text><text x="481.3" y="401.7" fill="#ccc" class="taxonLabel">Tonicella</text><text x="459.3" y="411.5" fill="lightgrey" class="flag">[-]</text><text x="481.3" y="411.5" fill="#ccc" class="taxonLabel">Mopalia</text><text x="436.6" y="421.2" fill="lightgrey" class="flag">[-]</text><text x="458.6" y="421.2" fill="#ccc" class="taxonLabel">Leptochiton</text><text x="391.1" y="450.6" fill="lightgrey" class="flag">[-]</text><text x="413.1" y="450.6" fill="#ccc" class="taxonLabel">Polysacos vickersianum</text><text x="345.7" y="509.4" fill="lightgrey" class="flag">[-]</text><text x="367.7" y="509.4" fill="#ccc" class="taxonLabel">Siphogonuchites multa</text><text x="277.6" y="597.5" fill="lightgrey" class="flag">[-]</text><text x="299.6" y="597.5" fill="#ccc" class="taxonLabel">Pelagiella</text><text x="232.1" y="646.5" fill="grey" class="flag">[?]</text><text x="254.1" y="646.5" fill="#999" class="taxonLabel">Bactrotheca</text><text x="209.4" y="656.2" fill="lightgrey" class="flag">[-]</text><text x="231.4" y="656.2" fill="#ccc" class="taxonLabel">Cupitheca holocyclata</text><text x="300.3" y="352.7" fill="grey" class="flag">[?]</text><text x="322.3" y="352.7" fill="#999" class="taxonLabel">Mickwitzia muralensis</text><text x="300.3" y="362.5" fill="#fdae61" class="flag">[1]</text><text x="322.3" y="362.5" fill="#000" class="taxonLabel">Heliomedusa orienta</text><text x="391.1" y="313.5" fill="#fdae61" class="flag">[1]</text><text x="413.1" y="313.5" fill="#000" class="taxonLabel">Novocrania</text><text x="391.1" y="323.3" fill="grey" class="flag">[?]</text><text x="413.1" y="323.3" fill="#999" class="taxonLabel">Craniops</text><text x="368.4" y="333.1" fill="grey" class="flag">[?]</text><text x="390.4" y="333.1" fill="#999" class="taxonLabel">Ussunia</text><text x="345.7" y="342.9" fill="grey" class="flag">[?]</text><text x="367.7" y="342.9" fill="#999" class="taxonLabel">Gasconsia</text><text x="436.6" y="264.6" fill="#e2e2a2" class="flag">[2]</text><text x="458.6" y="264.6" fill="#000" class="taxonLabel">Pelagodiscus atlanticus</text><text x="436.6" y="274.4" fill="grey" class="flag">[?]</text><text x="458.6" y="274.4" fill="#999" class="taxonLabel">Mummpikia nuda</text><text x="482" y="235.2" fill="#abd9e9" class="flag">[3]</text><text x="504" y="235.2" fill="#000" class="taxonLabel">Siphonobolus priscus</text><text x="482" y="245" fill="#abd9e9" class="flag">[3]</text><text x="504" y="245" fill="#000" class="taxonLabel">Acanthotretella spinosa</text><text x="482" y="215.6" fill="#abd9e9" class="flag">[3]</text><text x="504" y="215.6" fill="#000" class="taxonLabel">Lingulosacculus</text><text x="482" y="225.4" fill="#fdae61" class="flag">[1]</text><text x="504" y="225.4" fill="#000" class="taxonLabel">Clupeafumosus socialis</text><text x="436.6" y="254.8" fill="#abd9e9" class="flag">[3]</text><text x="458.6" y="254.8" fill="#000" class="taxonLabel">Lingulellotreta malongensis</text><text x="391.1" y="284.2" fill="#abd9e9" class="flag">[3]</text><text x="413.1" y="284.2" fill="#000" class="taxonLabel">Botsfordia</text><text x="368.4" y="294" fill="#abd9e9" class="flag">[3]</text><text x="390.4" y="294" fill="#000" class="taxonLabel">Eoobolus</text><text x="345.7" y="303.8" fill="#e2e2a2" class="flag">[2]</text><text x="367.7" y="303.8" fill="#000" class="taxonLabel">Lingula</text><text x="345.7" y="196" fill="#2c7bb6" class="flag">[4]</text><text x="367.7" y="196" fill="#000" class="taxonLabel">Micromitra</text><text x="345.7" y="205.8" fill="#fdae61" class="flag">[1]</text><text x="367.7" y="205.8" fill="#000" class="taxonLabel">Askepasma toddense</text><text x="413.9" y="156.9" fill="#fdae61" class="flag">[1]</text><text x="435.9" y="156.9" fill="#000" class="taxonLabel">Yuganotheca elegans</text><text x="413.9" y="166.7" fill="grey" class="flag">[?]</text><text x="435.9" y="166.7" fill="#999" class="taxonLabel">Tomteluva perturbata</text><text x="391.1" y="176.5" fill="#fdae61" class="flag">[1]</text><text x="413.1" y="176.5" fill="#000" class="taxonLabel">Longtancunella chengjiangensis</text><text x="413.9" y="137.3" fill="grey" class="flag">[?]</text><text x="435.9" y="137.3" fill="#999" class="taxonLabel">Coolinia pecten</text><text x="413.9" y="147.1" fill="grey" class="flag">[?]</text><text x="435.9" y="147.1" fill="#999" class="taxonLabel">Antigonambonites planus</text><text x="436.6" y="117.7" fill="#fdae61" class="flag">[1]</text><text x="458.6" y="117.7" fill="#000" class="taxonLabel">Nisusia sulcata</text><text x="436.6" y="127.5" fill="grey" class="flag">[?]</text><text x="458.6" y="127.5" fill="#999" class="taxonLabel">Kutorgina chengjiangensis</text><text x="482" y="78.5" fill="#fdae61" class="flag">[1]</text><text x="504" y="78.5" fill="#000" class="taxonLabel">Terebratulina</text><text x="482" y="88.3" fill="#2c7bb6" class="flag">[4]</text><text x="504" y="88.3" fill="#000" class="taxonLabel">Orthis</text><text x="459.3" y="98.1" fill="#abd9e9" class="flag">[3]</text><text x="481.3" y="98.1" fill="#000" class="taxonLabel">Alisina</text><text x="436.6" y="107.9" fill="#fdae61" class="flag">[1]</text><text x="458.6" y="107.9" fill="#000" class="taxonLabel">Glyptoria</text><text x="345.7" y="186.2" fill="grey" class="flag">[?]</text><text x="367.7" y="186.2" fill="#999" class="taxonLabel">Salanygolina</text><text x="254.9" y="372.3" fill="grey" class="flag">[?]</text><text x="276.9" y="372.3" fill="#999" class="taxonLabel">Micrina</text><text x="232.1" y="382.1" fill="lightgrey" class="flag">[-]</text><text x="254.1" y="382.1" fill="#ccc" class="taxonLabel">Paterimitra</text><text x="209.4" y="391.9" fill="grey" class="flag">[?]</text><text x="231.4" y="391.9" fill="#999" class="taxonLabel">Pedunculotheca diania</text><text x="164" y="666" fill="lightgrey" class="flag">[-]</text><text x="186" y="666" fill="#ccc" class="taxonLabel">Paramicrocornus</text><text x="141.3" y="675.8" fill="grey" class="flag">[?]</text><text x="163.3" y="675.8" fill="#999" class="taxonLabel">Haplophrentis carinatus</text><text x="118.6" y="685.6" fill="lightgrey" class="flag">[-]</text><text x="140.6" y="685.6" fill="#ccc" class="taxonLabel">Halkieria evangelista</text><text x="95.9" y="695.4" fill="lightgrey" class="flag">[-]</text><text x="117.9" y="695.4" fill="#ccc" class="taxonLabel">Orthrozanclus</text><text x="73.1" y="705.2" fill="lightgrey" class="flag">[-]</text><text x="95.1" y="705.2" fill="#ccc" class="taxonLabel">Dailyatia</text><text x="186.7" y="10" fill="lightgrey" class="flag">[-]</text><text x="208.7" y="10" fill="#ccc" class="taxonLabel">Flustra</text><text x="186.7" y="19.8" fill="lightgrey" class="flag">[-]</text><text x="208.7" y="19.8" fill="#ccc" class="taxonLabel">Amathia</text><text x="164" y="29.6" fill="lightgrey" class="flag">[-]</text><text x="186" y="29.6" fill="#ccc" class="taxonLabel">Loxosomella</text><text x="141.3" y="39.4" fill="lightgrey" class="flag">[-]</text><text x="163.3" y="39.4" fill="#ccc" class="taxonLabel">Phoronis</text><text x="118.6" y="49.2" fill="lightgrey" class="flag">[-]</text><text x="140.6" y="49.2" fill="#ccc" class="taxonLabel">Namacalathus</text><text x="95.9" y="59" fill="lightgrey" class="flag">[-]</text><text x="117.9" y="59" fill="#ccc" class="taxonLabel">Cotyledion tylodes</text><text x="73.1" y="68.8" fill="lightgrey" class="flag">[-]</text><text x="95.1" y="68.8" fill="#ccc" class="taxonLabel">Eccentrotheca</text><text x="27.7" y="715" fill="grey" class="flag">[?]</text><text x="49.7" y="715" fill="#999" class="taxonLabel">Yilingia spiciformis</text><path d="M5,542V372.1H27.7M27.7,372.1V56.1H50.4M50.4,56.1V46.5H73.1M73.1,46.5V37H95.9M95.9,37V27.8H118.6M118.6,27.8V19.2H141.3M141.3,19.2V11.9H164M164,11.9V7H186.7M164,11.9V16.8H186.7M141.3,19.2V26.6H164M118.6,27.8V36.4H141.3M95.9,37V46.2H118.6M73.1,46.5V56H95.9M50.4,56.1V65.8H73.1M27.7,372.1V688.1H50.4M50.4,688.1V674H73.1M73.1,674V655.5H95.9M95.9,655.5V628.3H118.6M118.6,628.3V583.9H141.3M141.3,583.9V504.7H164M164,504.7V372.9H186.7M186.7,372.9V356.9H209.4M209.4,356.9V379.1H232.1M186.7,372.9V388.9H209.4M164,504.7V636.4H186.7M186.7,636.4V619.6H209.4M209.4,619.6V595.8H232.1M232.1,595.8V566.4H254.9M254.9,566.4V538.4H277.6M277.6,538.4V501.6H300.3M300.3,501.6V482H323M323,482V457.7H345.7M345.7,457.7V434.8H368.4M368.4,434.8V421.9H391.1M391.1,421.9V410.9H413.9M413.9,410.9V403.6H436.6M436.6,403.6V398.7H459.3M436.6,403.6V408.5H459.3M413.9,410.9V418.2H436.6M391.1,421.9V432.9H413.9M413.9,432.9V428H436.6M413.9,432.9V437.8H436.6M368.4,434.8V447.6H391.1M345.7,457.7V480.7H368.4M368.4,480.7V469.7H391.1M391.1,469.7V462.3H413.9M413.9,462.3V457.4H436.6M413.9,462.3V467.2H436.6M391.1,469.7V477H413.9M368.4,480.7V491.7H391.1M391.1,491.7V486.8H413.9M391.1,491.7V496.6H413.9M323,482V506.4H345.7M300.3,501.6V521.1H323M323,521.1V516.2H345.7M323,521.1V526H345.7M277.6,538.4V575.2H300.3M300.3,575.2V565.7H323M323,565.7V556.6H345.7M345.7,556.6V548H368.4M368.4,548V540.6H391.1M391.1,540.6V535.8H413.9M391.1,540.6V545.5H413.9M368.4,548V555.3H391.1M345.7,556.6V565.1H368.4M323,565.7V574.9H345.7M300.3,575.2V584.7H323M254.9,566.4V594.5H277.6M232.1,595.8V625.1H254.9M254.9,625.1V616.5H277.6M277.6,616.5V609.2H300.3M300.3,609.2V604.3H323M300.3,609.2V614.1H323M277.6,616.5V623.9H300.3M254.9,625.1V633.7H277.6M209.4,619.6V643.5H232.1M186.7,636.4V653.2H209.4M141.3,583.9V663H164M118.6,628.3V672.8H141.3M95.9,655.5V682.6H118.6M73.1,674V692.4H95.9M50.4,688.1V702.2H73.1M5,542V712H27.7" stroke="lightgrey" class="inapplicable"></path><path d="M209.4,356.9V334.7H232.1M232.1,334.7V300.2H254.9M254.9,300.2V245.8H277.6M277.6,245.8V181H300.3M300.3,181V164H323M323,164V144.8H345.7M345.7,144.8V123.6H368.4M368.4,123.6V108H391.1M391.1,108V96.3H413.9M413.9,96.3V87.8H436.6M436.6,87.8V80.4H459.3M459.3,80.4V75.5H482M413.9,96.3V104.9H436.6M391.1,108V119.6H413.9M413.9,119.6V114.7H436.6M413.9,119.6V124.5H436.6M368.4,123.6V139.2H391.1M391.1,139.2V134.3H413.9M391.1,139.2V144.1H413.9M345.7,144.8V166.1H368.4M368.4,166.1V158.8H391.1M391.1,158.8V153.9H413.9M391.1,158.8V163.7H413.9M368.4,166.1V173.5H391.1M323,164V183.2H345.7M300.3,181V197.9H323M323,197.9V202.8H345.7M277.6,245.8V310.6H300.3M300.3,310.6V289.9H323M459.3,217.5V222.4H482M300.3,310.6V331.3H323M323,331.3V322.8H345.7M345.7,322.8V315.4H368.4M368.4,315.4V310.5H391.1M368.4,315.4V320.3H391.1M345.7,322.8V330.1H368.4M323,331.3V339.9H345.7M254.9,300.2V354.6H277.6M277.6,354.6V349.7H300.3M277.6,354.6V359.5H300.3M232.1,334.7V369.3H254.9" stroke="#fdae61"></path><path d="M459.3,80.4V85.3H482M323,197.9V193H345.7" stroke="#2c7bb6"></path><path d="M436.6,87.8V95.1H459.3M323,289.9V279H345.7M345.7,279V267.1H368.4M368.4,267.1V253H391.1M391.1,253V239.6H413.9M413.9,239.6V227.3H436.6M436.6,227.3V217.5H459.3M459.3,217.5V212.6H482M436.6,227.3V237.1H459.3M459.3,237.1V232.2H482M459.3,237.1V242H482M413.9,239.6V251.8H436.6M391.1,253V266.5H413.9M368.4,267.1V281.2H391.1M345.7,279V291H368.4" stroke="#abd9e9"></path><path d="M413.9,266.5V261.6H436.6M323,289.9V300.8H345.7" stroke="#e2e2a2"></path><path d="M413.9,266.5V271.4H436.6" stroke="darkgrey"></path><text x="29.7" y="375.1" class="node" fill="#6982E1">0.92</text><text x="52.4" y="59.1" class="node" fill="#E392A2">0.24</text><text x="75.1" y="49.5" class="node" fill="#5776E2">0.97</text><text x="97.9" y="40" class="node" fill="#D2D4E3">0.57</text><text x="120.6" y="30.8" class="node" fill="#5776E2">0.97</text><text x="143.3" y="22.2" class="node" fill="#4A6FE3">1</text><text x="166" y="14.9" class="node" fill="#E38C9E">0.22</text><text x="52.4" y="691.1" class="node" fill="#6982E1">0.92</text><text x="75.1" y="677" class="node" fill="#6982E1">0.92</text><text x="97.9" y="658.5" class="node" fill="#6982E1">0.92</text><text x="120.6" y="631.3" class="node" fill="#E3DFE0">0.49</text><text x="143.3" y="586.9" class="node" fill="#6982E1">0.92</text><text x="166" y="507.7" class="node" fill="#6982E1">0.92</text><text x="188.7" y="375.9" class="node" fill="#5776E2">0.97</text><text x="211.4" y="359.9" class="node" fill="#4A6FE3">1</text><text x="234.1" y="337.7" class="node" fill="#5776E2">0.97</text><text x="256.9" y="303.2" class="node" fill="#6982E1">0.92</text><text x="279.6" y="248.8" class="node" fill="#5776E2">0.97</text><text x="302.3" y="184" class="node" fill="#5776E2">0.97</text><text x="325" y="167" class="node" fill="#E3DFE0">0.49</text><text x="347.7" y="147.8" class="node" fill="#8C9BE1">0.81</text><text x="370.4" y="126.6" class="node" fill="#ABB4E2">0.7</text><text x="393.1" y="111" class="node" fill="#8C9BE1">0.81</text><text x="415.9" y="99.3" class="node" fill="#5F7BE1">0.95</text><text x="438.6" y="90.8" class="node" fill="#5F7BE1">0.95</text><text x="461.3" y="83.4" class="node" fill="#E0E0E2">0.51</text><text x="415.9" y="122.6" class="node" fill="#4A6FE3">1</text><text x="393.1" y="142.2" class="node" fill="#E0E0E2">0.51</text><text x="370.4" y="169.1" class="node" fill="#7388E1">0.89</text><text x="393.1" y="161.8" class="node" fill="#4A6FE3">1</text><text x="325" y="200.9" class="node" fill="#5F7BE1">0.95</text><text x="302.3" y="313.6" class="node" fill="#5F7BE1">0.95</text><text x="325" y="292.9" class="node" fill="#5F7BE1">0.95</text><text x="347.7" y="282" class="node" fill="#5F7BE1">0.95</text><text x="370.4" y="270.1" class="node" fill="#5F7BE1">0.95</text><text x="393.1" y="256" class="node" fill="#5F7BE1">0.95</text><text x="415.9" y="242.6" class="node" fill="#4A6FE3">1</text><text x="438.6" y="230.3" class="node" fill="#E3DFE0">0.49</text><text x="461.3" y="220.5" class="node" fill="#4A6FE3">1</text><text x="461.3" y="240.1" class="node" fill="#5F7BE1">0.95</text><text x="415.9" y="269.5" class="node" fill="#5F7BE1">0.95</text><text x="325" y="334.3" class="node" fill="#4A6FE3">1</text><text x="347.7" y="325.8" class="node" fill="#4A6FE3">1</text><text x="370.4" y="318.4" class="node" fill="#5F7BE1">0.95</text><text x="279.6" y="357.6" class="node" fill="#6982E1">0.92</text><text x="188.7" y="639.4" class="node" fill="#6982E1">0.92</text><text x="211.4" y="622.6" class="node" fill="#5F7BE1">0.95</text><text x="234.1" y="598.8" class="node" fill="#8C9BE1">0.81</text><text x="256.9" y="569.4" class="node" fill="#E0E0E2">0.51</text><text x="279.6" y="541.4" class="node" fill="#5F7BE1">0.95</text><text x="302.3" y="504.6" class="node" fill="#5F7BE1">0.95</text><text x="325" y="485" class="node" fill="#7D8FE1">0.86</text><text x="347.7" y="460.7" class="node" fill="#5F7BE1">0.95</text><text x="370.4" y="437.8" class="node" fill="#6982E1">0.92</text><text x="393.1" y="424.9" class="node" fill="#E5C7CC">0.41</text><text x="415.9" y="413.9" class="node" fill="#4A6FE3">1</text><text x="438.6" y="406.6" class="node" fill="#E5C7CC">0.41</text><text x="415.9" y="435.9" class="node" fill="#6982E1">0.92</text><text x="370.4" y="483.7" class="node" fill="#6982E1">0.92</text><text x="393.1" y="472.7" class="node" fill="#6982E1">0.92</text><text x="415.9" y="465.3" class="node" fill="#5776E2">0.97</text><text x="393.1" y="494.7" class="node" fill="#4A6FE3">1</text><text x="325" y="524.1" class="node" fill="#4A6FE3">1</text><text x="302.3" y="578.2" class="node" fill="#5F7BE1">0.95</text><text x="325" y="568.7" class="node" fill="#E6ABB6">0.32</text><text x="347.7" y="559.6" class="node" fill="#95A1E2">0.78</text><text x="370.4" y="551" class="node" fill="#E38C9E">0.22</text><text x="393.1" y="543.6" class="node" fill="#4A6FE3">1</text><text x="256.9" y="628.1" class="node" fill="#4A6FE3">1</text><text x="279.6" y="619.5" class="node" fill="#E4D6D8">0.46</text><text x="302.3" y="612.2" class="node" fill="#6982E1">0.92</text></svg>
