<svg xmlns="http://www.w3.org/2000/svg" version="1.1" viewBox="0 0 682 720" preserveAspectRatio="xMidYMid meet" class="tree" data-char="231"><text x="678" y="12.7" text-anchor="end" class="stepsLabel">Character adds <tspan class="score">3</tspan> to tree score</text><text x="678" y="22.4" text-anchor="end" class="stepsLabel"><tspan class="score">0</tspan> additional regions</text><text x="678" y="32.1" text-anchor="end" class="stepsLabel"></text><text x="678" y="51.5" text-anchor="end" class="stepsLabel"><tspan dy="16" fill="#34caaf">An optimal tree under:</tspan><tspan x="680" style="font-style:italic" class="notThisAn" dy="1.2em">Implied weights, k = 4.5</tspan><tspan x="680" style="font-style:italic" class="notThisAn" dy="1.2em">IW, k = 10.5</tspan><tspan x="680" style="font-style:italic" class="notThisAn" dy="1.2em">IW, k = 24</tspan><tspan x="680" style="font-style:italic" class="thisAn" dy="1.2em">Equal weights</tspan></text><text x="156.8" y="666" fill="grey" class="flag">[?]</text><text x="178.8" y="666" fill="#999" class="taxonLabel">Paramicrocornus</text><text x="156.8" y="675.8" fill="grey" class="flag">[?]</text><text x="178.8" y="675.8" fill="#999" class="taxonLabel">Haplophrentis carinatus</text><text x="286.9" y="607.3" fill="#fc8d59" class="flag">[0]</text><text x="308.9" y="607.3" fill="#000" class="taxonLabel">Serpula</text><text x="286.9" y="617.1" fill="#fc8d59" class="flag">[0]</text><text x="308.9" y="617.1" fill="#000" class="taxonLabel">Capitella</text><text x="265.2" y="626.9" fill="grey" class="flag">[?]</text><text x="287.2" y="626.9" fill="#999" class="taxonLabel">Canadia spinosa</text><text x="243.5" y="636.7" fill="#fc8d59" class="flag">[0]</text><text x="265.5" y="636.7" fill="#000" class="taxonLabel">Sipunculus</text><text x="330.2" y="568.1" fill="grey" class="flag">[?]</text><text x="352.2" y="568.1" fill="#999" class="taxonLabel">Pojetaia runnegari</text><text x="330.2" y="577.9" fill="#91bfdb" class="flag">[1]</text><text x="352.2" y="577.9" fill="#000" class="taxonLabel">Mytilus</text><text x="351.9" y="538.8" fill="#91bfdb" class="flag">[1]</text><text x="373.9" y="538.8" fill="#000" class="taxonLabel">Neopilina</text><text x="351.9" y="548.5" fill="grey" class="flag">[?]</text><text x="373.9" y="548.5" fill="#999" class="taxonLabel">Conocardium elongatum</text><text x="330.2" y="558.3" fill="#91bfdb" class="flag">[1]</text><text x="352.2" y="558.3" fill="#000" class="taxonLabel">Haliotis</text><text x="286.9" y="587.7" fill="#91bfdb" class="flag">[1]</text><text x="308.9" y="587.7" fill="#000" class="taxonLabel">Dentalium</text><text x="308.5" y="519.2" fill="grey" class="flag">[?]</text><text x="330.5" y="519.2" fill="#999" class="taxonLabel">Wiwaxia corrugata</text><text x="308.5" y="529" fill="grey" class="flag">[?]</text><text x="330.5" y="529" fill="#999" class="taxonLabel">Odontogriphus omalus</text><text x="373.6" y="489.8" fill="#91bfdb" class="flag">[1]</text><text x="395.6" y="489.8" fill="#000" class="taxonLabel">Wirenia</text><text x="373.6" y="499.6" fill="#fc8d59" class="flag">[0]</text><text x="395.6" y="499.6" fill="#000" class="taxonLabel">Chaetoderma</text><text x="395.3" y="460.4" fill="grey" class="flag">[?]</text><text x="417.3" y="460.4" fill="#999" class="taxonLabel">Phthipodochiton thraivensis</text><text x="395.3" y="470.2" fill="grey" class="flag">[?]</text><text x="417.3" y="470.2" fill="#999" class="taxonLabel">Kulindroplax perissokomos</text><text x="373.6" y="480" fill="grey" class="flag">[?]</text><text x="395.6" y="480" fill="#999" class="taxonLabel">Acaenoplax hayae</text><text x="395.3" y="431" fill="grey" class="flag">[?]</text><text x="417.3" y="431" fill="#999" class="taxonLabel">Glaphurochiton carbonarius</text><text x="395.3" y="440.8" fill="grey" class="flag">[?]</text><text x="417.3" y="440.8" fill="#999" class="taxonLabel">Calvapilosa kroegeri</text><text x="417" y="401.7" fill="#fc8d59" class="flag">[0]</text><text x="439" y="401.7" fill="#000" class="taxonLabel">Tonicella</text><text x="417" y="411.5" fill="#fc8d59" class="flag">[0]</text><text x="439" y="411.5" fill="#000" class="taxonLabel">Mopalia</text><text x="395.3" y="421.2" fill="#fc8d59" class="flag">[0]</text><text x="417.3" y="421.2" fill="#000" class="taxonLabel">Leptochiton</text><text x="351.9" y="450.6" fill="grey" class="flag">[?]</text><text x="373.9" y="450.6" fill="#999" class="taxonLabel">Polysacos vickersianum</text><text x="308.5" y="509.4" fill="grey" class="flag">[?]</text><text x="330.5" y="509.4" fill="#999" class="taxonLabel">Siphogonuchites multa</text><text x="243.5" y="597.5" fill="grey" class="flag">[?]</text><text x="265.5" y="597.5" fill="#999" class="taxonLabel">Pelagiella</text><text x="200.1" y="646.5" fill="grey" class="flag">[?]</text><text x="222.1" y="646.5" fill="#999" class="taxonLabel">Bactrotheca</text><text x="178.5" y="656.2" fill="grey" class="flag">[?]</text><text x="200.5" y="656.2" fill="#999" class="taxonLabel">Cupitheca holocyclata</text><text x="265.2" y="352.7" fill="grey" class="flag">[?]</text><text x="287.2" y="352.7" fill="#999" class="taxonLabel">Mickwitzia muralensis</text><text x="265.2" y="362.5" fill="grey" class="flag">[?]</text><text x="287.2" y="362.5" fill="#999" class="taxonLabel">Heliomedusa orienta</text><text x="351.9" y="313.5" fill="#fc8d59" class="flag">[0]</text><text x="373.9" y="313.5" fill="#000" class="taxonLabel">Novocrania</text><text x="351.9" y="323.3" fill="grey" class="flag">[?]</text><text x="373.9" y="323.3" fill="#999" class="taxonLabel">Craniops</text><text x="330.2" y="333.1" fill="grey" class="flag">[?]</text><text x="352.2" y="333.1" fill="#999" class="taxonLabel">Ussunia</text><text x="308.5" y="342.9" fill="grey" class="flag">[?]</text><text x="330.5" y="342.9" fill="#999" class="taxonLabel">Gasconsia</text><text x="395.3" y="264.6" fill="#fc8d59" class="flag">[0]</text><text x="417.3" y="264.6" fill="#000" class="taxonLabel">Pelagodiscus atlanticus</text><text x="395.3" y="274.4" fill="grey" class="flag">[?]</text><text x="417.3" y="274.4" fill="#999" class="taxonLabel">Mummpikia nuda</text><text x="460.3" y="215.6" fill="grey" class="flag">[?]</text><text x="482.3" y="215.6" fill="#999" class="taxonLabel">Siphonobolus priscus</text><text x="460.3" y="225.4" fill="grey" class="flag">[?]</text><text x="482.3" y="225.4" fill="#999" class="taxonLabel">Acanthotretella spinosa</text><text x="438.6" y="235.2" fill="grey" class="flag">[?]</text><text x="460.6" y="235.2" fill="#999" class="taxonLabel">Clupeafumosus socialis</text><text x="417" y="245" fill="grey" class="flag">[?]</text><text x="439" y="245" fill="#999" class="taxonLabel">Lingulosacculus</text><text x="395.3" y="254.8" fill="grey" class="flag">[?]</text><text x="417.3" y="254.8" fill="#999" class="taxonLabel">Lingulellotreta malongensis</text><text x="351.9" y="284.2" fill="grey" class="flag">[?]</text><text x="373.9" y="284.2" fill="#999" class="taxonLabel">Botsfordia</text><text x="330.2" y="294" fill="grey" class="flag">[?]</text><text x="352.2" y="294" fill="#999" class="taxonLabel">Eoobolus</text><text x="308.5" y="303.8" fill="#fc8d59" class="flag">[0]</text><text x="330.5" y="303.8" fill="#000" class="taxonLabel">Lingula</text><text x="308.5" y="196" fill="grey" class="flag">[?]</text><text x="330.5" y="196" fill="#999" class="taxonLabel">Micromitra</text><text x="308.5" y="205.8" fill="grey" class="flag">[?]</text><text x="330.5" y="205.8" fill="#999" class="taxonLabel">Askepasma toddense</text><text x="351.9" y="166.7" fill="grey" class="flag">[?]</text><text x="373.9" y="166.7" fill="#999" class="taxonLabel">Yuganotheca elegans</text><text x="351.9" y="176.5" fill="grey" class="flag">[?]</text><text x="373.9" y="176.5" fill="#999" class="taxonLabel">Tomteluva perturbata</text><text x="395.3" y="137.3" fill="grey" class="flag">[?]</text><text x="417.3" y="137.3" fill="#999" class="taxonLabel">Coolinia pecten</text><text x="395.3" y="147.1" fill="grey" class="flag">[?]</text><text x="417.3" y="147.1" fill="#999" class="taxonLabel">Antigonambonites planus</text><text x="482" y="78.5" fill="#fc8d59" class="flag">[0]</text><text x="504" y="78.5" fill="#000" class="taxonLabel">Terebratulina</text><text x="482" y="88.3" fill="grey" class="flag">[?]</text><text x="504" y="88.3" fill="#999" class="taxonLabel">Orthis</text><text x="460.3" y="98.1" fill="grey" class="flag">[?]</text><text x="482.3" y="98.1" fill="#999" class="taxonLabel">Alisina</text><text x="438.6" y="107.9" fill="grey" class="flag">[?]</text><text x="460.6" y="107.9" fill="#999" class="taxonLabel">Glyptoria</text><text x="417" y="117.7" fill="grey" class="flag">[?]</text><text x="439" y="117.7" fill="#999" class="taxonLabel">Nisusia sulcata</text><text x="395.3" y="127.5" fill="grey" class="flag">[?]</text><text x="417.3" y="127.5" fill="#999" class="taxonLabel">Kutorgina chengjiangensis</text><text x="351.9" y="156.9" fill="grey" class="flag">[?]</text><text x="373.9" y="156.9" fill="#999" class="taxonLabel">Longtancunella chengjiangensis</text><text x="308.5" y="186.2" fill="grey" class="flag">[?]</text><text x="330.5" y="186.2" fill="#999" class="taxonLabel">Salanygolina</text><text x="221.8" y="372.3" fill="grey" class="flag">[?]</text><text x="243.8" y="372.3" fill="#999" class="taxonLabel">Micrina</text><text x="200.1" y="382.1" fill="grey" class="flag">[?]</text><text x="222.1" y="382.1" fill="#999" class="taxonLabel">Paterimitra</text><text x="178.5" y="391.9" fill="grey" class="flag">[?]</text><text x="200.5" y="391.9" fill="#999" class="taxonLabel">Pedunculotheca diania</text><text x="113.4" y="685.6" fill="grey" class="flag">[?]</text><text x="135.4" y="685.6" fill="#999" class="taxonLabel">Halkieria evangelista</text><text x="91.7" y="695.4" fill="grey" class="flag">[?]</text><text x="113.7" y="695.4" fill="#999" class="taxonLabel">Orthrozanclus</text><text x="200.1" y="10" fill="#fc8d59" class="flag">[0]</text><text x="222.1" y="10" fill="#000" class="taxonLabel">Flustra</text><text x="200.1" y="19.8" fill="#fc8d59" class="flag">[0]</text><text x="222.1" y="19.8" fill="#000" class="taxonLabel">Amathia</text><text x="178.5" y="29.6" fill="#91bfdb" class="flag">[1]</text><text x="200.5" y="29.6" fill="#000" class="taxonLabel">Loxosomella</text><text x="156.8" y="39.4" fill="#fc8d59" class="flag">[0]</text><text x="178.8" y="39.4" fill="#000" class="taxonLabel">Phoronis</text><text x="135.1" y="49.2" fill="grey" class="flag">[?]</text><text x="157.1" y="49.2" fill="#999" class="taxonLabel">Namacalathus</text><text x="113.4" y="59" fill="grey" class="flag">[?]</text><text x="135.4" y="59" fill="#999" class="taxonLabel">Eccentrotheca</text><text x="91.7" y="68.8" fill="grey" class="flag">[?]</text><text x="113.7" y="68.8" fill="#999" class="taxonLabel">Cotyledion tylodes</text><text x="48.4" y="705.2" fill="grey" class="flag">[?]</text><text x="70.4" y="705.2" fill="#999" class="taxonLabel">Dailyatia</text><text x="26.7" y="715" fill="grey" class="flag">[?]</text><text x="48.7" y="715" fill="#999" class="taxonLabel">Yilingia spiciformis</text><path d="M5,621.5V531H26.7M26.7,531V359.8H48.4M48.4,359.8V56.1H70M70,56.1V46.5H91.7M91.7,46.5V37H113.4M113.4,37V27.8H135.1M135.1,27.8V19.2H156.8M156.8,19.2V11.9H178.5M178.5,11.9V7H200.1M178.5,11.9V16.8H200.1M135.1,27.8V36.4H156.8M113.4,37V46.2H135.1M91.7,46.5V56H113.4M70,56.1V65.8H91.7M48.4,359.8V663.4H70M70,663.4V634.5H91.7M91.7,634.5V586.3H113.4M113.4,586.3V504.7H135.1M135.1,504.7V373H156.8M156.8,373V357.1H178.5M178.5,357.1V335.1H200.1M200.1,335.1V300.8H221.8M221.8,300.8V247.1H243.5M243.5,247.1V183.4H265.2M265.2,183.4V168.9H286.9M286.9,168.9V154.5H308.5M308.5,154.5V140.5H330.2M330.2,140.5V127.1H351.9M351.9,127.1V115H373.6M373.6,115V105.5H395.3M395.3,105.5V96.3H417M417,96.3V87.8H438.6M438.6,87.8V80.4H460.3M460.3,80.4V75.5H482M460.3,80.4V85.3H482M438.6,87.8V95.1H460.3M417,96.3V104.9H438.6M395.3,105.5V114.7H417M373.6,115V124.5H395.3M351.9,127.1V139.2H373.6M373.6,139.2V134.3H395.3M373.6,139.2V144.1H395.3M330.2,140.5V153.9H351.9M308.5,154.5V168.6H330.2M330.2,168.6V163.7H351.9M330.2,168.6V173.5H351.9M286.9,168.9V183.2H308.5M265.2,183.4V197.9H286.9M286.9,197.9V193H308.5M286.9,197.9V202.8H308.5M243.5,247.1V310.7H265.2M265.2,310.7V290.1H286.9M286.9,290.1V279.4H308.5M308.5,279.4V267.9H330.2M330.2,267.9V254.5H351.9M351.9,254.5V242.6H373.6M373.6,242.6V233.4H395.3M395.3,233.4V224.9H417M417,224.9V217.5H438.6M438.6,217.5V212.6H460.3M438.6,217.5V222.4H460.3M417,224.9V232.2H438.6M395.3,233.4V242H417M373.6,242.6V251.8H395.3M351.9,254.5V266.5H373.6M373.6,266.5V261.6H395.3M373.6,266.5V271.4H395.3M330.2,267.9V281.2H351.9M308.5,279.4V291H330.2M286.9,290.1V300.8H308.5M265.2,310.7V331.3H286.9M286.9,331.3V322.8H308.5M308.5,322.8V315.4H330.2M330.2,315.4V310.5H351.9M330.2,315.4V320.3H351.9M308.5,322.8V330.1H330.2M286.9,331.3V339.9H308.5M221.8,300.8V354.6H243.5M243.5,354.6V349.7H265.2M243.5,354.6V359.5H265.2M200.1,335.1V369.3H221.8M178.5,357.1V379.1H200.1M156.8,373V388.9H178.5M135.1,504.7V636.3H156.8M156.8,636.3V619.4H178.5M178.5,619.4V595.4H200.1M200.1,595.4V565.6H221.8M221.8,565.6V536.7H243.5M243.5,536.7V501.6H265.2M265.2,501.6V482H286.9M286.9,482V457.7H308.5M308.5,457.7V434.8H330.2M330.2,434.8V421.9H351.9M351.9,421.9V410.9H373.6M373.6,410.9V403.6H395.3M395.3,403.6V398.7H417M395.3,403.6V408.5H417M373.6,410.9V418.2H395.3M351.9,421.9V432.9H373.6M373.6,432.9V428H395.3M373.6,432.9V437.8H395.3M330.2,434.8V447.6H351.9M308.5,457.7V480.7H330.2M330.2,480.7V469.7H351.9M351.9,469.7V462.3H373.6M373.6,462.3V457.4H395.3M373.6,462.3V467.2H395.3M351.9,469.7V477H373.6M330.2,480.7V491.7H351.9M351.9,491.7V496.6H373.6M286.9,482V506.4H308.5M265.2,501.6V521.1H286.9M286.9,521.1V516.2H308.5M286.9,521.1V526H308.5M221.8,565.6V594.5H243.5M200.1,595.4V625.1H221.8M221.8,625.1V616.5H243.5M243.5,616.5V609.2H265.2M265.2,609.2V604.3H286.9M265.2,609.2V614.1H286.9M243.5,616.5V623.9H265.2M221.8,625.1V633.7H243.5M178.5,619.4V643.5H200.1M156.8,636.3V653.2H178.5M113.4,586.3V667.9H135.1M135.1,667.9V663H156.8M135.1,667.9V672.8H156.8M91.7,634.5V682.6H113.4M70,663.4V692.4H91.7M26.7,531V702.2H48.4M5,621.5V712H26.7" stroke="#fc8d59"></path><path d="M156.8,19.2V26.6H178.5M351.9,491.7V486.8H373.6M243.5,536.7V571.9H265.2M265.2,571.9V559H286.9M286.9,559V548H308.5M308.5,548V540.6H330.2M330.2,540.6V535.8H351.9M330.2,540.6V545.5H351.9M308.5,548V555.3H330.2M286.9,559V570H308.5M308.5,570V565.1H330.2M308.5,570V574.9H330.2M265.2,571.9V584.7H286.9" stroke="#91bfdb"></path><text x="28.7" y="534" class="node" fill="#E07C92">0.17</text><text x="50.4" y="362.8" class="node" fill="#627DE1">0.94</text><text x="72" y="59.1" class="node" fill="#E5CACE">0.42</text><text x="93.7" y="49.5" class="node" fill="#4A6FE3">1</text><text x="115.4" y="40" class="node" fill="#CFD2E3">0.58</text><text x="137.1" y="30.8" class="node" fill="#4A6FE3">1</text><text x="158.8" y="22.2" class="node" fill="#4A6FE3">1</text><text x="180.5" y="14.9" class="node" fill="#627DE1">0.94</text><text x="72" y="666.4" class="node" fill="#627DE1">0.94</text><text x="93.7" y="637.5" class="node" fill="#627DE1">0.94</text><text x="115.4" y="589.3" class="node" fill="#627DE1">0.94</text><text x="137.1" y="507.7" class="node" fill="#627DE1">0.94</text><text x="158.8" y="376" class="node" fill="#4A6FE3">1</text><text x="180.5" y="360.1" class="node" fill="#4A6FE3">1</text><text x="202.1" y="338.1" class="node" fill="#4A6FE3">1</text><text x="223.8" y="303.8" class="node" fill="#627DE1">0.94</text><text x="245.5" y="250.1" class="node" fill="#4A6FE3">1</text><text x="267.2" y="186.4" class="node" fill="#4A6FE3">1</text><text x="288.9" y="171.9" class="node" fill="#E2E2E2">0.5</text><text x="310.5" y="157.5" class="node" fill="#E6C1C7">0.39</text><text x="332.2" y="143.5" class="node" fill="#8696E1">0.83</text><text x="353.9" y="130.1" class="node" fill="#A6AFE2">0.72</text><text x="375.6" y="118" class="node" fill="#E6C1C7">0.39</text><text x="397.3" y="108.5" class="node" fill="#8696E1">0.83</text><text x="419" y="99.3" class="node" fill="#627DE1">0.94</text><text x="440.6" y="90.8" class="node" fill="#627DE1">0.94</text><text x="462.3" y="83.4" class="node" fill="#4A6FE3">1</text><text x="375.6" y="142.2" class="node" fill="#6982E1">0.92</text><text x="332.2" y="171.6" class="node" fill="#4A6FE3">1</text><text x="288.9" y="200.9" class="node" fill="#627DE1">0.94</text><text x="267.2" y="313.7" class="node" fill="#627DE1">0.94</text><text x="288.9" y="293.1" class="node" fill="#627DE1">0.94</text><text x="310.5" y="282.4" class="node" fill="#627DE1">0.94</text><text x="332.2" y="270.9" class="node" fill="#627DE1">0.94</text><text x="353.9" y="257.5" class="node" fill="#627DE1">0.94</text><text x="375.6" y="245.6" class="node" fill="#4A6FE3">1</text><text x="397.3" y="236.4" class="node" fill="#E07C92">0.17</text><text x="419" y="227.9" class="node" fill="#4A6FE3">1</text><text x="440.6" y="220.5" class="node" fill="#627DE1">0.94</text><text x="375.6" y="269.5" class="node" fill="#627DE1">0.94</text><text x="288.9" y="334.3" class="node" fill="#4A6FE3">1</text><text x="310.5" y="325.8" class="node" fill="#4A6FE3">1</text><text x="332.2" y="318.4" class="node" fill="#627DE1">0.94</text><text x="245.5" y="357.6" class="node" fill="#627DE1">0.94</text><text x="158.8" y="639.3" class="node" fill="#627DE1">0.94</text><text x="180.5" y="622.4" class="node" fill="#627DE1">0.94</text><text x="202.1" y="598.4" class="node" fill="#8C9BE1">0.81</text><text x="223.8" y="568.6" class="node" fill="#DADBE3">0.53</text><text x="245.5" y="539.7" class="node" fill="#627DE1">0.94</text><text x="267.2" y="504.6" class="node" fill="#627DE1">0.94</text><text x="288.9" y="485" class="node" fill="#7388E1">0.89</text><text x="310.5" y="460.7" class="node" fill="#627DE1">0.94</text><text x="332.2" y="437.8" class="node" fill="#627DE1">0.94</text><text x="353.9" y="424.9" class="node" fill="#E5CACE">0.42</text><text x="375.6" y="413.9" class="node" fill="#4A6FE3">1</text><text x="397.3" y="406.6" class="node" fill="#E5CACE">0.42</text><text x="375.6" y="435.9" class="node" fill="#627DE1">0.94</text><text x="332.2" y="483.7" class="node" fill="#627DE1">0.94</text><text x="353.9" y="472.7" class="node" fill="#627DE1">0.94</text><text x="375.6" y="465.3" class="node" fill="#4A6FE3">1</text><text x="353.9" y="494.7" class="node" fill="#4A6FE3">1</text><text x="288.9" y="524.1" class="node" fill="#4A6FE3">1</text><text x="267.2" y="574.9" class="node" fill="#627DE1">0.94</text><text x="288.9" y="562" class="node" fill="#8C9BE1">0.81</text><text x="310.5" y="551" class="node" fill="#C4C9E3">0.61</text><text x="332.2" y="543.6" class="node" fill="#E6B7C0">0.36</text><text x="310.5" y="573" class="node" fill="#4A6FE3">1</text><text x="223.8" y="628.1" class="node" fill="#4A6FE3">1</text><text x="245.5" y="619.5" class="node" fill="#E5D0D3">0.44</text><text x="267.2" y="612.2" class="node" fill="#E2E2E2">0.5</text><text x="137.1" y="670.9" class="node" fill="#E07C92">0.17</text></svg>
