<svg xmlns="http://www.w3.org/2000/svg" version="1.1" viewBox="0 0 682 720" preserveAspectRatio="xMidYMid meet" class="tree" data-char="259"><text x="678" y="12.7" text-anchor="end" class="stepsLabel">Character adds <tspan class="score">2</tspan> to tree score</text><text x="678" y="22.4" text-anchor="end" class="stepsLabel"><tspan class="score">0</tspan> additional regions</text><text x="678" y="32.1" text-anchor="end" class="stepsLabel"></text><text x="678" y="51.5" text-anchor="end" class="stepsLabel"><tspan dy="16" fill="#34caaf">An optimal tree under:</tspan><tspan x="680" style="font-style:italic" class="notThisAn" dy="1.2em">Implied weights, k = 4.5</tspan><tspan x="680" style="font-style:italic" class="notThisAn" dy="1.2em">IW, k = 10.5</tspan><tspan x="680" style="font-style:italic" class="notThisAn" dy="1.2em">IW, k = 24</tspan><tspan x="680" style="font-style:italic" class="thisAn" dy="1.2em">Equal weights</tspan></text><text x="286.9" y="617.1" fill="grey" class="flag">[?]</text><text x="308.9" y="617.1" fill="#999" class="taxonLabel">Capitella</text><text x="286.9" y="626.9" fill="grey" class="flag">[?]</text><text x="308.9" y="626.9" fill="#999" class="taxonLabel">Canadia spinosa</text><text x="265.2" y="636.7" fill="#91bfdb" class="flag">[1]</text><text x="287.2" y="636.7" fill="#000" class="taxonLabel">Serpula</text><text x="243.5" y="646.5" fill="#91bfdb" class="flag">[1]</text><text x="265.5" y="646.5" fill="#000" class="taxonLabel">Sipunculus</text><text x="330.2" y="577.9" fill="grey" class="flag">[?]</text><text x="352.2" y="577.9" fill="#999" class="taxonLabel">Pojetaia runnegari</text><text x="330.2" y="587.7" fill="grey" class="flag">[?]</text><text x="352.2" y="587.7" fill="#999" class="taxonLabel">Mytilus</text><text x="351.9" y="548.5" fill="grey" class="flag">[?]</text><text x="373.9" y="548.5" fill="#999" class="taxonLabel">Neopilina</text><text x="351.9" y="558.3" fill="grey" class="flag">[?]</text><text x="373.9" y="558.3" fill="#999" class="taxonLabel">Conocardium elongatum</text><text x="330.2" y="568.1" fill="grey" class="flag">[?]</text><text x="352.2" y="568.1" fill="#999" class="taxonLabel">Haliotis</text><text x="286.9" y="597.5" fill="#91bfdb" class="flag">[1]</text><text x="308.9" y="597.5" fill="#000" class="taxonLabel">Dentalium</text><text x="308.5" y="529" fill="grey" class="flag">[?]</text><text x="330.5" y="529" fill="#999" class="taxonLabel">Wiwaxia corrugata</text><text x="308.5" y="538.8" fill="grey" class="flag">[?]</text><text x="330.5" y="538.8" fill="#999" class="taxonLabel">Odontogriphus omalus</text><text x="373.6" y="499.6" fill="grey" class="flag">[?]</text><text x="395.6" y="499.6" fill="#999" class="taxonLabel">Wirenia</text><text x="373.6" y="509.4" fill="grey" class="flag">[?]</text><text x="395.6" y="509.4" fill="#999" class="taxonLabel">Chaetoderma</text><text x="395.3" y="470.2" fill="grey" class="flag">[?]</text><text x="417.3" y="470.2" fill="#999" class="taxonLabel">Phthipodochiton thraivensis</text><text x="395.3" y="480" fill="grey" class="flag">[?]</text><text x="417.3" y="480" fill="#999" class="taxonLabel">Kulindroplax perissokomos</text><text x="373.6" y="489.8" fill="grey" class="flag">[?]</text><text x="395.6" y="489.8" fill="#999" class="taxonLabel">Acaenoplax hayae</text><text x="438.6" y="411.5" fill="#91bfdb" class="flag">[1]</text><text x="460.6" y="411.5" fill="#000" class="taxonLabel">Tonicella</text><text x="438.6" y="421.2" fill="grey" class="flag">[?]</text><text x="460.6" y="421.2" fill="#999" class="taxonLabel">Mopalia</text><text x="417" y="431" fill="grey" class="flag">[?]</text><text x="439" y="431" fill="#999" class="taxonLabel">Glaphurochiton carbonarius</text><text x="395.3" y="440.8" fill="grey" class="flag">[?]</text><text x="417.3" y="440.8" fill="#999" class="taxonLabel">Leptochiton</text><text x="373.6" y="450.6" fill="grey" class="flag">[?]</text><text x="395.6" y="450.6" fill="#999" class="taxonLabel">Calvapilosa kroegeri</text><text x="351.9" y="460.4" fill="grey" class="flag">[?]</text><text x="373.9" y="460.4" fill="#999" class="taxonLabel">Polysacos vickersianum</text><text x="308.5" y="519.2" fill="grey" class="flag">[?]</text><text x="330.5" y="519.2" fill="#999" class="taxonLabel">Siphogonuchites multa</text><text x="243.5" y="607.3" fill="grey" class="flag">[?]</text><text x="265.5" y="607.3" fill="#999" class="taxonLabel">Pelagiella</text><text x="200.1" y="656.2" fill="grey" class="flag">[?]</text><text x="222.1" y="656.2" fill="#999" class="taxonLabel">Bactrotheca</text><text x="178.5" y="666" fill="grey" class="flag">[?]</text><text x="200.5" y="666" fill="#999" class="taxonLabel">Cupitheca holocyclata</text><text x="265.2" y="362.5" fill="grey" class="flag">[?]</text><text x="287.2" y="362.5" fill="#999" class="taxonLabel">Mickwitzia muralensis</text><text x="265.2" y="372.3" fill="grey" class="flag">[?]</text><text x="287.2" y="372.3" fill="#999" class="taxonLabel">Heliomedusa orienta</text><text x="351.9" y="323.3" fill="#fc8d59" class="flag">[0]</text><text x="373.9" y="323.3" fill="#000" class="taxonLabel">Novocrania</text><text x="351.9" y="333.1" fill="grey" class="flag">[?]</text><text x="373.9" y="333.1" fill="#999" class="taxonLabel">Craniops</text><text x="330.2" y="342.9" fill="grey" class="flag">[?]</text><text x="352.2" y="342.9" fill="#999" class="taxonLabel">Ussunia</text><text x="308.5" y="352.7" fill="grey" class="flag">[?]</text><text x="330.5" y="352.7" fill="#999" class="taxonLabel">Gasconsia</text><text x="395.3" y="274.4" fill="#fc8d59" class="flag">[0]</text><text x="417.3" y="274.4" fill="#000" class="taxonLabel">Pelagodiscus atlanticus</text><text x="395.3" y="284.2" fill="grey" class="flag">[?]</text><text x="417.3" y="284.2" fill="#999" class="taxonLabel">Mummpikia nuda</text><text x="460.3" y="225.4" fill="grey" class="flag">[?]</text><text x="482.3" y="225.4" fill="#999" class="taxonLabel">Siphonobolus priscus</text><text x="460.3" y="235.2" fill="grey" class="flag">[?]</text><text x="482.3" y="235.2" fill="#999" class="taxonLabel">Acanthotretella spinosa</text><text x="438.6" y="245" fill="grey" class="flag">[?]</text><text x="460.6" y="245" fill="#999" class="taxonLabel">Clupeafumosus socialis</text><text x="417" y="254.8" fill="grey" class="flag">[?]</text><text x="439" y="254.8" fill="#999" class="taxonLabel">Lingulosacculus</text><text x="395.3" y="264.6" fill="grey" class="flag">[?]</text><text x="417.3" y="264.6" fill="#999" class="taxonLabel">Lingulellotreta malongensis</text><text x="351.9" y="294" fill="grey" class="flag">[?]</text><text x="373.9" y="294" fill="#999" class="taxonLabel">Botsfordia</text><text x="330.2" y="303.8" fill="grey" class="flag">[?]</text><text x="352.2" y="303.8" fill="#999" class="taxonLabel">Eoobolus</text><text x="308.5" y="313.5" fill="#fc8d59" class="flag">[0]</text><text x="330.5" y="313.5" fill="#000" class="taxonLabel">Lingula</text><text x="308.5" y="205.8" fill="grey" class="flag">[?]</text><text x="330.5" y="205.8" fill="#999" class="taxonLabel">Micromitra</text><text x="308.5" y="215.6" fill="grey" class="flag">[?]</text><text x="330.5" y="215.6" fill="#999" class="taxonLabel">Askepasma toddense</text><text x="351.9" y="176.5" fill="grey" class="flag">[?]</text><text x="373.9" y="176.5" fill="#999" class="taxonLabel">Yuganotheca elegans</text><text x="351.9" y="186.2" fill="grey" class="flag">[?]</text><text x="373.9" y="186.2" fill="#999" class="taxonLabel">Tomteluva perturbata</text><text x="395.3" y="147.1" fill="grey" class="flag">[?]</text><text x="417.3" y="147.1" fill="#999" class="taxonLabel">Coolinia pecten</text><text x="395.3" y="156.9" fill="grey" class="flag">[?]</text><text x="417.3" y="156.9" fill="#999" class="taxonLabel">Antigonambonites planus</text><text x="482" y="88.3" fill="#fc8d59" class="flag">[0]</text><text x="504" y="88.3" fill="#000" class="taxonLabel">Terebratulina</text><text x="482" y="98.1" fill="grey" class="flag">[?]</text><text x="504" y="98.1" fill="#999" class="taxonLabel">Orthis</text><text x="460.3" y="107.9" fill="grey" class="flag">[?]</text><text x="482.3" y="107.9" fill="#999" class="taxonLabel">Alisina</text><text x="438.6" y="117.7" fill="grey" class="flag">[?]</text><text x="460.6" y="117.7" fill="#999" class="taxonLabel">Glyptoria</text><text x="417" y="127.5" fill="grey" class="flag">[?]</text><text x="439" y="127.5" fill="#999" class="taxonLabel">Nisusia sulcata</text><text x="395.3" y="137.3" fill="grey" class="flag">[?]</text><text x="417.3" y="137.3" fill="#999" class="taxonLabel">Kutorgina chengjiangensis</text><text x="351.9" y="166.7" fill="grey" class="flag">[?]</text><text x="373.9" y="166.7" fill="#999" class="taxonLabel">Longtancunella chengjiangensis</text><text x="308.5" y="196" fill="grey" class="flag">[?]</text><text x="330.5" y="196" fill="#999" class="taxonLabel">Salanygolina</text><text x="221.8" y="382.1" fill="grey" class="flag">[?]</text><text x="243.8" y="382.1" fill="#999" class="taxonLabel">Micrina</text><text x="200.1" y="391.9" fill="grey" class="flag">[?]</text><text x="222.1" y="391.9" fill="#999" class="taxonLabel">Paterimitra</text><text x="178.5" y="401.7" fill="grey" class="flag">[?]</text><text x="200.5" y="401.7" fill="#999" class="taxonLabel">Pedunculotheca diania</text><text x="135.1" y="675.8" fill="grey" class="flag">[?]</text><text x="157.1" y="675.8" fill="#999" class="taxonLabel">Paramicrocornus</text><text x="113.4" y="685.6" fill="grey" class="flag">[?]</text><text x="135.4" y="685.6" fill="#999" class="taxonLabel">Haplophrentis carinatus</text><text x="91.7" y="695.4" fill="grey" class="flag">[?]</text><text x="113.7" y="695.4" fill="#999" class="taxonLabel">Halkieria evangelista</text><text x="70" y="705.2" fill="grey" class="flag">[?]</text><text x="92" y="705.2" fill="#999" class="taxonLabel">Orthrozanclus</text><text x="200.1" y="10" fill="#fc8d59" class="flag">[0]</text><text x="222.1" y="10" fill="#000" class="taxonLabel">Flustra</text><text x="200.1" y="19.8" fill="grey" class="flag">[?]</text><text x="222.1" y="19.8" fill="#999" class="taxonLabel">Amathia</text><text x="178.5" y="29.6" fill="#fc8d59" class="flag">[0]</text><text x="200.5" y="29.6" fill="#000" class="taxonLabel">Loxosomella</text><text x="156.8" y="39.4" fill="#91bfdb" class="flag">[1]</text><text x="178.8" y="39.4" fill="#000" class="taxonLabel">Phoronis</text><text x="135.1" y="49.2" fill="grey" class="flag">[?]</text><text x="157.1" y="49.2" fill="#999" class="taxonLabel">Namacalathus</text><text x="113.4" y="59" fill="grey" class="flag">[?]</text><text x="135.4" y="59" fill="#999" class="taxonLabel">Eccentrotheca</text><text x="91.7" y="68.8" fill="grey" class="flag">[?]</text><text x="113.7" y="68.8" fill="#999" class="taxonLabel">Cotyledion tylodes</text><text x="70" y="78.5" fill="grey" class="flag">[?]</text><text x="92" y="78.5" fill="#999" class="taxonLabel">Dailyatia</text><text x="26.7" y="715" fill="grey" class="flag">[?]</text><text x="48.7" y="715" fill="#999" class="taxonLabel">Yilingia spiciformis</text><path d="M5,543.4V374.8H26.7M26.7,374.8V65.8H48.4M48.4,65.8V56.1H70M70,56.1V46.5H91.7M91.7,46.5V37H113.4M113.4,37V27.8H135.1M113.4,37V46.2H135.1M91.7,46.5V56H113.4M70,56.1V65.8H91.7M48.4,65.8V75.5H70M26.7,374.8V683.7H48.4M48.4,683.7V665.3H70M70,665.3V638.1H91.7M91.7,638.1V593.6H113.4M113.4,593.6V514.4H135.1M135.1,514.4V382.8H156.8M156.8,382.8V366.9H178.5M178.5,366.9V344.9H200.1M200.1,344.9V310.6H221.8M221.8,310.6V364.4H243.5M243.5,364.4V359.5H265.2M243.5,364.4V369.3H265.2M200.1,344.9V379.1H221.8M178.5,366.9V388.9H200.1M156.8,382.8V398.7H178.5M135.1,514.4V646.1H156.8M156.8,646.1V629.2H178.5M178.5,629.2V653.2H200.1M156.8,646.1V663H178.5M113.4,593.6V672.8H135.1M91.7,638.1V682.6H113.4M70,665.3V692.4H91.7M48.4,683.7V702.2H70M5,543.4V712H26.7" stroke="darkgrey"></path><path d="M135.1,27.8V19.2H156.8M156.8,19.2V11.9H178.5M178.5,11.9V7H200.1M178.5,11.9V16.8H200.1M156.8,19.2V26.6H178.5M221.8,310.6V256.9H243.5M243.5,256.9V193.2H265.2M265.2,193.2V178.7H286.9M286.9,178.7V164.3H308.5M308.5,164.3V150.3H330.2M330.2,150.3V136.9H351.9M351.9,136.9V124.8H373.6M373.6,124.8V115.3H395.3M395.3,115.3V106.1H417M417,106.1V97.6H438.6M438.6,97.6V90.2H460.3M460.3,90.2V85.3H482M460.3,90.2V95.1H482M438.6,97.6V104.9H460.3M417,106.1V114.7H438.6M395.3,115.3V124.5H417M373.6,124.8V134.3H395.3M351.9,136.9V149H373.6M373.6,149V144.1H395.3M373.6,149V153.9H395.3M330.2,150.3V163.7H351.9M308.5,164.3V178.4H330.2M330.2,178.4V173.5H351.9M330.2,178.4V183.2H351.9M286.9,178.7V193H308.5M265.2,193.2V207.7H286.9M286.9,207.7V202.8H308.5M286.9,207.7V212.6H308.5M243.5,256.9V320.5H265.2M265.2,320.5V299.9H286.9M286.9,299.9V289.2H308.5M308.5,289.2V277.6H330.2M330.2,277.6V264.3H351.9M351.9,264.3V252.4H373.6M373.6,252.4V243.2H395.3M395.3,243.2V234.7H417M417,234.7V227.3H438.6M438.6,227.3V222.4H460.3M438.6,227.3V232.2H460.3M417,234.7V242H438.6M395.3,243.2V251.8H417M373.6,252.4V261.6H395.3M351.9,264.3V276.3H373.6M373.6,276.3V271.4H395.3M373.6,276.3V281.2H395.3M330.2,277.6V291H351.9M308.5,289.2V300.8H330.2M286.9,299.9V310.5H308.5M265.2,320.5V341.1H286.9M286.9,341.1V332.6H308.5M308.5,332.6V325.2H330.2M330.2,325.2V320.3H351.9M330.2,325.2V330.1H351.9M308.5,332.6V339.9H330.2M286.9,341.1V349.7H308.5" stroke="#fc8d59"></path><path d="M135.1,27.8V36.4H156.8M178.5,629.2V605.2H200.1M200.1,605.2V575.5H221.8M221.8,575.5V546.7H243.5M243.5,546.7V511.8H265.2M265.2,511.8V492.7H286.9M286.9,492.7V469.2H308.5M308.5,469.2V447.9H330.2M330.2,447.9V438.4H351.9M351.9,438.4V429.3H373.6M373.6,429.3V420.7H395.3M395.3,420.7V413.4H417M417,413.4V408.5H438.6M417,413.4V418.2H438.6M395.3,420.7V428H417M373.6,429.3V437.8H395.3M351.9,438.4V447.6H373.6M330.2,447.9V457.4H351.9M308.5,469.2V490.5H330.2M330.2,490.5V479.4H351.9M351.9,479.4V472.1H373.6M373.6,472.1V467.2H395.3M373.6,472.1V477H395.3M351.9,479.4V486.8H373.6M330.2,490.5V501.5H351.9M351.9,501.5V496.6H373.6M351.9,501.5V506.4H373.6M286.9,492.7V516.2H308.5M265.2,511.8V530.9H286.9M286.9,530.9V526H308.5M286.9,530.9V535.8H308.5M243.5,546.7V581.6H265.2M265.2,581.6V568.8H286.9M286.9,568.8V557.8H308.5M308.5,557.8V550.4H330.2M330.2,550.4V545.5H351.9M330.2,550.4V555.3H351.9M308.5,557.8V565.1H330.2M286.9,568.8V579.8H308.5M308.5,579.8V574.9H330.2M308.5,579.8V584.7H330.2M265.2,581.6V594.5H286.9M221.8,575.5V604.3H243.5M200.1,605.2V634.9H221.8M221.8,634.9V626.3H243.5M243.5,626.3V619H265.2M265.2,619V614.1H286.9M265.2,619V623.9H286.9M243.5,626.3V633.7H265.2M221.8,634.9V643.5H243.5" stroke="#91bfdb"></path><text x="28.7" y="377.8" class="node" fill="#C4C9E3">0.61</text><text x="50.4" y="68.8" class="node" fill="#627DE1">0.94</text><text x="72" y="59.1" class="node" fill="#E5CACE">0.42</text><text x="93.7" y="49.5" class="node" fill="#4A6FE3">1</text><text x="115.4" y="40" class="node" fill="#CFD2E3">0.58</text><text x="137.1" y="30.8" class="node" fill="#4A6FE3">1</text><text x="158.8" y="22.2" class="node" fill="#4A6FE3">1</text><text x="180.5" y="14.9" class="node" fill="#627DE1">0.94</text><text x="50.4" y="686.7" class="node" fill="#627DE1">0.94</text><text x="72" y="668.3" class="node" fill="#627DE1">0.94</text><text x="93.7" y="641.1" class="node" fill="#E2E2E2">0.5</text><text x="115.4" y="596.6" class="node" fill="#627DE1">0.94</text><text x="137.1" y="517.4" class="node" fill="#627DE1">0.94</text><text x="158.8" y="385.8" class="node" fill="#4A6FE3">1</text><text x="180.5" y="369.9" class="node" fill="#4A6FE3">1</text><text x="202.1" y="347.9" class="node" fill="#4A6FE3">1</text><text x="223.8" y="313.6" class="node" fill="#627DE1">0.94</text><text x="245.5" y="259.9" class="node" fill="#4A6FE3">1</text><text x="267.2" y="196.2" class="node" fill="#4A6FE3">1</text><text x="288.9" y="181.7" class="node" fill="#E2E2E2">0.5</text><text x="310.5" y="167.3" class="node" fill="#E6C1C7">0.39</text><text x="332.2" y="153.3" class="node" fill="#8696E1">0.83</text><text x="353.9" y="139.9" class="node" fill="#A6AFE2">0.72</text><text x="375.6" y="127.8" class="node" fill="#E6C1C7">0.39</text><text x="397.3" y="118.3" class="node" fill="#8696E1">0.83</text><text x="419" y="109.1" class="node" fill="#627DE1">0.94</text><text x="440.6" y="100.6" class="node" fill="#627DE1">0.94</text><text x="462.3" y="93.2" class="node" fill="#4A6FE3">1</text><text x="375.6" y="152" class="node" fill="#6982E1">0.92</text><text x="332.2" y="181.4" class="node" fill="#4A6FE3">1</text><text x="288.9" y="210.7" class="node" fill="#627DE1">0.94</text><text x="267.2" y="323.5" class="node" fill="#627DE1">0.94</text><text x="288.9" y="302.9" class="node" fill="#627DE1">0.94</text><text x="310.5" y="292.2" class="node" fill="#627DE1">0.94</text><text x="332.2" y="280.6" class="node" fill="#627DE1">0.94</text><text x="353.9" y="267.3" class="node" fill="#627DE1">0.94</text><text x="375.6" y="255.4" class="node" fill="#4A6FE3">1</text><text x="397.3" y="246.2" class="node" fill="#E07C92">0.17</text><text x="419" y="237.7" class="node" fill="#4A6FE3">1</text><text x="440.6" y="230.3" class="node" fill="#627DE1">0.94</text><text x="375.6" y="279.3" class="node" fill="#627DE1">0.94</text><text x="288.9" y="344.1" class="node" fill="#4A6FE3">1</text><text x="310.5" y="335.6" class="node" fill="#4A6FE3">1</text><text x="332.2" y="328.2" class="node" fill="#627DE1">0.94</text><text x="245.5" y="367.4" class="node" fill="#627DE1">0.94</text><text x="158.8" y="649.1" class="node" fill="#627DE1">0.94</text><text x="180.5" y="632.2" class="node" fill="#627DE1">0.94</text><text x="202.1" y="608.2" class="node" fill="#8C9BE1">0.81</text><text x="223.8" y="578.5" class="node" fill="#DADBE3">0.53</text><text x="245.5" y="549.7" class="node" fill="#627DE1">0.94</text><text x="267.2" y="514.8" class="node" fill="#627DE1">0.94</text><text x="288.9" y="495.7" class="node" fill="#7388E1">0.89</text><text x="310.5" y="472.2" class="node" fill="#627DE1">0.94</text><text x="332.2" y="450.9" class="node" fill="#627DE1">0.94</text><text x="353.9" y="441.4" class="node" fill="#DADBE3">0.53</text><text x="375.6" y="432.3" class="node" fill="#E38C9E">0.22</text><text x="397.3" y="423.7" class="node" fill="#4A6FE3">1</text><text x="419" y="416.4" class="node" fill="#627DE1">0.94</text><text x="332.2" y="493.5" class="node" fill="#627DE1">0.94</text><text x="353.9" y="482.4" class="node" fill="#627DE1">0.94</text><text x="375.6" y="475.1" class="node" fill="#4A6FE3">1</text><text x="353.9" y="504.5" class="node" fill="#4A6FE3">1</text><text x="288.9" y="533.9" class="node" fill="#4A6FE3">1</text><text x="267.2" y="584.6" class="node" fill="#627DE1">0.94</text><text x="288.9" y="571.8" class="node" fill="#8C9BE1">0.81</text><text x="310.5" y="560.8" class="node" fill="#C4C9E3">0.61</text><text x="332.2" y="553.4" class="node" fill="#E6B7C0">0.36</text><text x="310.5" y="582.8" class="node" fill="#4A6FE3">1</text><text x="223.8" y="637.9" class="node" fill="#4A6FE3">1</text><text x="245.5" y="629.3" class="node" fill="#D2D4E3">0.56</text><text x="267.2" y="622" class="node" fill="#C4C9E3">0.61</text></svg>
