<svg xmlns="http://www.w3.org/2000/svg" version="1.1" viewBox="0 0 682 720" preserveAspectRatio="xMidYMid meet" class="tree" data-char="41"><text x="678" y="12.7" text-anchor="end" class="stepsLabel">Character adds <tspan class="score">2</tspan> to tree score</text><text x="678" y="22.4" text-anchor="end" class="stepsLabel"><tspan class="score">0</tspan> additional regions</text><text x="678" y="32.1" text-anchor="end" class="stepsLabel"></text><text x="678" y="51.5" text-anchor="end" class="stepsLabel"><tspan dy="16" fill="#34caaf">An optimal tree under:</tspan><tspan x="680" style="font-style:italic" class="notThisAn" dy="1.2em">Implied weights, k = 4.5</tspan><tspan x="680" style="font-style:italic" class="notThisAn" dy="1.2em">IW, k = 10.5</tspan><tspan x="680" style="font-style:italic" class="notThisAn" dy="1.2em">IW, k = 24</tspan><tspan x="680" style="font-style:italic" class="thisAn" dy="1.2em">Equal weights</tspan></text><text x="308.5" y="607.3" fill="lightgrey" class="flag">[-]</text><text x="330.5" y="607.3" fill="#ccc" class="taxonLabel">Capitella</text><text x="308.5" y="617.1" fill="lightgrey" class="flag">[-]</text><text x="330.5" y="617.1" fill="#ccc" class="taxonLabel">Canadia spinosa</text><text x="286.9" y="626.9" fill="lightgrey" class="flag">[-]</text><text x="308.9" y="626.9" fill="#ccc" class="taxonLabel">Serpula</text><text x="265.2" y="636.7" fill="lightgrey" class="flag">[-]</text><text x="287.2" y="636.7" fill="#ccc" class="taxonLabel">Sipunculus</text><text x="351.9" y="568.1" fill="lightgrey" class="flag">[-]</text><text x="373.9" y="568.1" fill="#ccc" class="taxonLabel">Pojetaia runnegari</text><text x="351.9" y="577.9" fill="lightgrey" class="flag">[-]</text><text x="373.9" y="577.9" fill="#ccc" class="taxonLabel">Mytilus</text><text x="373.6" y="538.8" fill="lightgrey" class="flag">[-]</text><text x="395.6" y="538.8" fill="#ccc" class="taxonLabel">Neopilina</text><text x="373.6" y="548.5" fill="lightgrey" class="flag">[-]</text><text x="395.6" y="548.5" fill="#ccc" class="taxonLabel">Conocardium elongatum</text><text x="351.9" y="558.3" fill="lightgrey" class="flag">[-]</text><text x="373.9" y="558.3" fill="#ccc" class="taxonLabel">Haliotis</text><text x="308.5" y="587.7" fill="lightgrey" class="flag">[-]</text><text x="330.5" y="587.7" fill="#ccc" class="taxonLabel">Dentalium</text><text x="330.2" y="519.2" fill="lightgrey" class="flag">[-]</text><text x="352.2" y="519.2" fill="#ccc" class="taxonLabel">Wiwaxia corrugata</text><text x="330.2" y="529" fill="lightgrey" class="flag">[-]</text><text x="352.2" y="529" fill="#ccc" class="taxonLabel">Odontogriphus omalus</text><text x="395.3" y="489.8" fill="lightgrey" class="flag">[-]</text><text x="417.3" y="489.8" fill="#ccc" class="taxonLabel">Wirenia</text><text x="395.3" y="499.6" fill="lightgrey" class="flag">[-]</text><text x="417.3" y="499.6" fill="#ccc" class="taxonLabel">Chaetoderma</text><text x="417" y="460.4" fill="lightgrey" class="flag">[-]</text><text x="439" y="460.4" fill="#ccc" class="taxonLabel">Phthipodochiton thraivensis</text><text x="417" y="470.2" fill="lightgrey" class="flag">[-]</text><text x="439" y="470.2" fill="#ccc" class="taxonLabel">Kulindroplax perissokomos</text><text x="395.3" y="480" fill="lightgrey" class="flag">[-]</text><text x="417.3" y="480" fill="#ccc" class="taxonLabel">Acaenoplax hayae</text><text x="460.3" y="401.7" fill="lightgrey" class="flag">[-]</text><text x="482.3" y="401.7" fill="#ccc" class="taxonLabel">Tonicella</text><text x="460.3" y="411.5" fill="lightgrey" class="flag">[-]</text><text x="482.3" y="411.5" fill="#ccc" class="taxonLabel">Mopalia</text><text x="438.6" y="421.2" fill="lightgrey" class="flag">[-]</text><text x="460.6" y="421.2" fill="#ccc" class="taxonLabel">Glaphurochiton carbonarius</text><text x="417" y="431" fill="lightgrey" class="flag">[-]</text><text x="439" y="431" fill="#ccc" class="taxonLabel">Leptochiton</text><text x="395.3" y="440.8" fill="lightgrey" class="flag">[-]</text><text x="417.3" y="440.8" fill="#ccc" class="taxonLabel">Calvapilosa kroegeri</text><text x="373.6" y="450.6" fill="lightgrey" class="flag">[-]</text><text x="395.6" y="450.6" fill="#ccc" class="taxonLabel">Polysacos vickersianum</text><text x="330.2" y="509.4" fill="grey" class="flag">[?]</text><text x="352.2" y="509.4" fill="#999" class="taxonLabel">Siphogonuchites multa</text><text x="265.2" y="597.5" fill="lightgrey" class="flag">[-]</text><text x="287.2" y="597.5" fill="#ccc" class="taxonLabel">Pelagiella</text><text x="221.8" y="646.5" fill="lightgrey" class="flag">[-]</text><text x="243.8" y="646.5" fill="#ccc" class="taxonLabel">Bactrotheca</text><text x="200.1" y="656.2" fill="lightgrey" class="flag">[-]</text><text x="222.1" y="656.2" fill="#ccc" class="taxonLabel">Cupitheca holocyclata</text><text x="286.9" y="352.7" fill="grey" class="flag">[?]</text><text x="308.9" y="352.7" fill="#999" class="taxonLabel">Mickwitzia muralensis</text><text x="286.9" y="362.5" fill="lightgrey" class="flag">[-]</text><text x="308.9" y="362.5" fill="#ccc" class="taxonLabel">Heliomedusa orienta</text><text x="373.6" y="313.5" fill="lightgrey" class="flag">[-]</text><text x="395.6" y="313.5" fill="#ccc" class="taxonLabel">Novocrania</text><text x="373.6" y="323.3" fill="lightgrey" class="flag">[-]</text><text x="395.6" y="323.3" fill="#ccc" class="taxonLabel">Craniops</text><text x="351.9" y="333.1" fill="lightgrey" class="flag">[-]</text><text x="373.9" y="333.1" fill="#ccc" class="taxonLabel">Ussunia</text><text x="330.2" y="342.9" fill="lightgrey" class="flag">[-]</text><text x="352.2" y="342.9" fill="#ccc" class="taxonLabel">Gasconsia</text><text x="417" y="264.6" fill="#91bfdb" class="flag">[2]</text><text x="439" y="264.6" fill="#000" class="taxonLabel">Pelagodiscus atlanticus</text><text x="417" y="274.4" fill="#91bfdb" class="flag">[2]</text><text x="439" y="274.4" fill="#000" class="taxonLabel">Mummpikia nuda</text><text x="482" y="215.6" fill="grey" class="flag">[?]</text><text x="504" y="215.6" fill="#999" class="taxonLabel">Siphonobolus priscus</text><text x="482" y="225.4" fill="#91bfdb" class="flag">[2]</text><text x="504" y="225.4" fill="#000" class="taxonLabel">Acanthotretella spinosa</text><text x="460.3" y="235.2" fill="grey" class="flag">[?]</text><text x="482.3" y="235.2" fill="#999" class="taxonLabel">Lingulosacculus</text><text x="438.6" y="245" fill="grey" class="flag">[?]</text><text x="460.6" y="245" fill="#999" class="taxonLabel">Clupeafumosus socialis</text><text x="417" y="254.8" fill="#91bfdb" class="flag">[2]</text><text x="439" y="254.8" fill="#000" class="taxonLabel">Lingulellotreta malongensis</text><text x="373.6" y="284.2" fill="grey" class="flag">[?]</text><text x="395.6" y="284.2" fill="#999" class="taxonLabel">Botsfordia</text><text x="351.9" y="294" fill="grey" class="flag">[?]</text><text x="373.9" y="294" fill="#999" class="taxonLabel">Eoobolus</text><text x="330.2" y="303.8" fill="#91bfdb" class="flag">[2]</text><text x="352.2" y="303.8" fill="#000" class="taxonLabel">Lingula</text><text x="330.2" y="196" fill="grey" class="flag">[?]</text><text x="352.2" y="196" fill="#999" class="taxonLabel">Micromitra</text><text x="330.2" y="205.8" fill="grey" class="flag">[?]</text><text x="352.2" y="205.8" fill="#999" class="taxonLabel">Askepasma toddense</text><text x="373.6" y="166.7" fill="#91bfdb" class="flag">[2]</text><text x="395.6" y="166.7" fill="#000" class="taxonLabel">Yuganotheca elegans</text><text x="373.6" y="176.5" fill="grey" class="flag">[?]</text><text x="395.6" y="176.5" fill="#999" class="taxonLabel">Tomteluva perturbata</text><text x="417" y="137.3" fill="grey" class="flag">[?]</text><text x="439" y="137.3" fill="#999" class="taxonLabel">Coolinia pecten</text><text x="417" y="147.1" fill="#91bfdb" class="flag">[2]</text><text x="439" y="147.1" fill="#000" class="taxonLabel">Antigonambonites planus</text><text x="438.6" y="117.7" fill="#91bfdb" class="flag">[2]</text><text x="460.6" y="117.7" fill="#000" class="taxonLabel">Nisusia sulcata</text><text x="438.6" y="127.5" fill="#91bfdb" class="flag">[2]</text><text x="460.6" y="127.5" fill="#000" class="taxonLabel">Kutorgina chengjiangensis</text><text x="482" y="78.5" fill="#e2e2a2" class="flag">[1]</text><text x="504" y="78.5" fill="#000" class="taxonLabel">Terebratulina</text><text x="482" y="88.3" fill="grey" class="flag">[?]</text><text x="504" y="88.3" fill="#999" class="taxonLabel">Orthis</text><text x="460.3" y="98.1" fill="#e2e2a2" class="flag">[1]</text><text x="482.3" y="98.1" fill="#000" class="taxonLabel">Alisina</text><text x="438.6" y="107.9" fill="grey" class="flag">[?]</text><text x="460.6" y="107.9" fill="#999" class="taxonLabel">Glyptoria</text><text x="373.6" y="156.9" fill="#e2e2a2" class="flag">[1]</text><text x="395.6" y="156.9" fill="#000" class="taxonLabel">Longtancunella chengjiangensis</text><text x="330.2" y="186.2" fill="grey" class="flag">[?]</text><text x="352.2" y="186.2" fill="#999" class="taxonLabel">Salanygolina</text><text x="243.5" y="372.3" fill="grey" class="flag">[?]</text><text x="265.5" y="372.3" fill="#999" class="taxonLabel">Micrina</text><text x="221.8" y="382.1" fill="grey" class="flag">[?]</text><text x="243.8" y="382.1" fill="#999" class="taxonLabel">Paterimitra</text><text x="200.1" y="391.9" fill="#91bfdb" class="flag">[2]</text><text x="222.1" y="391.9" fill="#000" class="taxonLabel">Pedunculotheca diania</text><text x="156.8" y="666" fill="lightgrey" class="flag">[-]</text><text x="178.8" y="666" fill="#ccc" class="taxonLabel">Paramicrocornus</text><text x="135.1" y="675.8" fill="lightgrey" class="flag">[-]</text><text x="157.1" y="675.8" fill="#ccc" class="taxonLabel">Haplophrentis carinatus</text><text x="113.4" y="685.6" fill="lightgrey" class="flag">[-]</text><text x="135.4" y="685.6" fill="#ccc" class="taxonLabel">Halkieria evangelista</text><text x="91.7" y="695.4" fill="lightgrey" class="flag">[-]</text><text x="113.7" y="695.4" fill="#ccc" class="taxonLabel">Orthrozanclus</text><text x="70" y="705.2" fill="grey" class="flag">[?]</text><text x="92" y="705.2" fill="#999" class="taxonLabel">Dailyatia</text><text x="178.5" y="10" fill="lightgrey" class="flag">[-]</text><text x="200.5" y="10" fill="#ccc" class="taxonLabel">Flustra</text><text x="178.5" y="19.8" fill="lightgrey" class="flag">[-]</text><text x="200.5" y="19.8" fill="#ccc" class="taxonLabel">Amathia</text><text x="156.8" y="29.6" fill="lightgrey" class="flag">[-]</text><text x="178.8" y="29.6" fill="#ccc" class="taxonLabel">Loxosomella</text><text x="135.1" y="39.4" fill="lightgrey" class="flag">[-]</text><text x="157.1" y="39.4" fill="#ccc" class="taxonLabel">Phoronis</text><text x="113.4" y="49.2" fill="lightgrey" class="flag">[-]</text><text x="135.4" y="49.2" fill="#ccc" class="taxonLabel">Namacalathus</text><text x="91.7" y="59" fill="lightgrey" class="flag">[-]</text><text x="113.7" y="59" fill="#ccc" class="taxonLabel">Cotyledion tylodes</text><text x="70" y="68.8" fill="grey" class="flag">[?]</text><text x="92" y="68.8" fill="#999" class="taxonLabel">Eccentrotheca</text><text x="26.7" y="715" fill="lightgrey" class="flag">[-]</text><text x="48.7" y="715" fill="#ccc" class="taxonLabel">Yilingia spiciformis</text><path d="M5,542V372.1H26.7M26.7,372.1V56.1H48.4M48.4,56.1V46.5H70M70,46.5V37H91.7M91.7,37V27.8H113.4M113.4,27.8V19.2H135.1M135.1,19.2V11.9H156.8M156.8,11.9V7H178.5M156.8,11.9V16.8H178.5M135.1,19.2V26.6H156.8M113.4,27.8V36.4H135.1M91.7,37V46.2H113.4M70,46.5V56H91.7M48.4,56.1V65.8H70M26.7,372.1V688.1H48.4M48.4,688.1V673.9H70M70,673.9V655.5H91.7M91.7,655.5V628.3H113.4M113.4,628.3V583.8H135.1M135.1,583.8V504.7H156.8M286.9,310.7V331.3H308.5M308.5,331.3V322.8H330.2M330.2,322.8V315.4H351.9M351.9,315.4V310.5H373.6M351.9,315.4V320.3H373.6M330.2,322.8V330.1H351.9M308.5,331.3V339.9H330.2M243.5,300.8V354.6H265.2M265.2,354.6V349.7H286.9M265.2,354.6V359.5H286.9M156.8,504.7V636.3H178.5M178.5,636.3V619.4H200.1M200.1,619.4V595.4H221.8M221.8,595.4V565.7H243.5M243.5,565.7V536.9H265.2M265.2,536.9V502H286.9M286.9,502V482.9H308.5M308.5,482.9V459.4H330.2M330.2,459.4V438.1H351.9M351.9,438.1V428.7H373.6M373.6,428.7V419.5H395.3M395.3,419.5V410.9H417M417,410.9V403.6H438.6M438.6,403.6V398.7H460.3M438.6,403.6V408.5H460.3M417,410.9V418.2H438.6M395.3,419.5V428H417M373.6,428.7V437.8H395.3M351.9,438.1V447.6H373.6M330.2,459.4V480.7H351.9M351.9,480.7V469.7H373.6M373.6,469.7V462.3H395.3M395.3,462.3V457.4H417M395.3,462.3V467.2H417M373.6,469.7V477H395.3M351.9,480.7V491.7H373.6M373.6,491.7V486.8H395.3M373.6,491.7V496.6H395.3M308.5,482.9V506.4H330.2M286.9,502V521.1H308.5M308.5,521.1V516.2H330.2M308.5,521.1V526H330.2M265.2,536.9V571.9H286.9M286.9,571.9V559H308.5M308.5,559V548H330.2M330.2,548V540.6H351.9M351.9,540.6V535.8H373.6M351.9,540.6V545.5H373.6M330.2,548V555.3H351.9M308.5,559V570H330.2M330.2,570V565.1H351.9M330.2,570V574.9H351.9M286.9,571.9V584.7H308.5M243.5,565.7V594.5H265.2M221.8,595.4V625.1H243.5M243.5,625.1V616.5H265.2M265.2,616.5V609.2H286.9M286.9,609.2V604.3H308.5M286.9,609.2V614.1H308.5M265.2,616.5V623.9H286.9M243.5,625.1V633.7H265.2M200.1,619.4V643.5H221.8M178.5,636.3V653.2H200.1M135.1,583.8V663H156.8M113.4,628.3V672.8H135.1M91.7,655.5V682.6H113.4M70,673.9V692.4H91.7M48.4,688.1V702.2H70M5,542V712H26.7" stroke="lightgrey" class="inapplicable"></path><path d="M156.8,504.7V373H178.5M178.5,373V357.1H200.1M200.1,357.1V335H221.8M221.8,335V300.8H243.5M243.5,300.8V247H265.2M265.2,247V183.2H286.9M286.9,183.2V168.4H308.5M308.5,168.4V153.6H330.2M330.2,153.6V138.7H351.9M351.9,138.7V123.6H373.6M373.6,123.6V108H395.3M395.3,108V96.3H417M395.3,108V119.6H417M417,119.6V114.7H438.6M417,119.6V124.5H438.6M373.6,123.6V139.2H395.3M395.3,139.2V134.3H417M395.3,139.2V144.1H417M330.2,153.6V168.6H351.9M351.9,168.6V163.7H373.6M351.9,168.6V173.5H373.6M308.5,168.4V183.2H330.2M286.9,183.2V197.9H308.5M308.5,197.9V193H330.2M308.5,197.9V202.8H330.2M265.2,247V310.7H286.9M286.9,310.7V290.1H308.5M308.5,290.1V279.4H330.2M330.2,279.4V267.9H351.9M351.9,267.9V254.5H373.6M373.6,254.5V242.6H395.3M395.3,242.6V233.4H417M417,233.4V224.9H438.6M438.6,224.9V217.5H460.3M460.3,217.5V212.6H482M460.3,217.5V222.4H482M438.6,224.9V232.2H460.3M417,233.4V242H438.6M395.3,242.6V251.8H417M373.6,254.5V266.5H395.3M395.3,266.5V261.6H417M395.3,266.5V271.4H417M351.9,267.9V281.2H373.6M330.2,279.4V291H351.9M308.5,290.1V300.8H330.2M221.8,335V369.3H243.5M200.1,357.1V379.1H221.8M178.5,373V388.9H200.1" stroke="#91bfdb"></path><path d="M417,96.3V87.8H438.6M438.6,87.8V80.4H460.3M460.3,80.4V75.5H482M460.3,80.4V85.3H482M438.6,87.8V95.1H460.3M351.9,138.7V153.9H373.6" stroke="#e2e2a2"></path><path d="M417,96.3V104.9H438.6" stroke="darkgrey"></path><text x="28.7" y="375.1" class="node" fill="#6982E1">0.92</text><text x="50.4" y="59.1" class="node" fill="#E392A2">0.24</text><text x="72" y="49.5" class="node" fill="#5776E2">0.97</text><text x="93.7" y="40" class="node" fill="#D2D4E3">0.57</text><text x="115.4" y="30.8" class="node" fill="#5776E2">0.97</text><text x="137.1" y="22.2" class="node" fill="#4A6FE3">1</text><text x="158.8" y="14.9" class="node" fill="#E38C9E">0.22</text><text x="50.4" y="691.1" class="node" fill="#6982E1">0.92</text><text x="72" y="676.9" class="node" fill="#6982E1">0.92</text><text x="93.7" y="658.5" class="node" fill="#6982E1">0.92</text><text x="115.4" y="631.3" class="node" fill="#E3DFE0">0.49</text><text x="137.1" y="586.8" class="node" fill="#6982E1">0.92</text><text x="158.8" y="507.7" class="node" fill="#6982E1">0.92</text><text x="180.5" y="376" class="node" fill="#5776E2">0.97</text><text x="202.1" y="360.1" class="node" fill="#4A6FE3">1</text><text x="223.8" y="338" class="node" fill="#5776E2">0.97</text><text x="245.5" y="303.8" class="node" fill="#6982E1">0.92</text><text x="267.2" y="250" class="node" fill="#5776E2">0.97</text><text x="288.9" y="186.2" class="node" fill="#5776E2">0.97</text><text x="310.5" y="171.4" class="node" fill="#E3DFE0">0.49</text><text x="332.2" y="156.6" class="node" fill="#E6BDC5">0.38</text><text x="353.9" y="141.7" class="node" fill="#8C9BE1">0.81</text><text x="375.6" y="126.6" class="node" fill="#ABB4E2">0.7</text><text x="397.3" y="111" class="node" fill="#8C9BE1">0.81</text><text x="419" y="99.3" class="node" fill="#5F7BE1">0.95</text><text x="440.6" y="90.8" class="node" fill="#5F7BE1">0.95</text><text x="462.3" y="83.4" class="node" fill="#E0E0E2">0.51</text><text x="419" y="122.6" class="node" fill="#4A6FE3">1</text><text x="397.3" y="142.2" class="node" fill="#7388E1">0.89</text><text x="353.9" y="171.6" class="node" fill="#4A6FE3">1</text><text x="310.5" y="200.9" class="node" fill="#5F7BE1">0.95</text><text x="288.9" y="313.7" class="node" fill="#5F7BE1">0.95</text><text x="310.5" y="293.1" class="node" fill="#5F7BE1">0.95</text><text x="332.2" y="282.4" class="node" fill="#5F7BE1">0.95</text><text x="353.9" y="270.9" class="node" fill="#5F7BE1">0.95</text><text x="375.6" y="257.5" class="node" fill="#5F7BE1">0.95</text><text x="397.3" y="245.6" class="node" fill="#4A6FE3">1</text><text x="419" y="236.4" class="node" fill="#E6B4BD">0.35</text><text x="440.6" y="227.9" class="node" fill="#4A6FE3">1</text><text x="462.3" y="220.5" class="node" fill="#5F7BE1">0.95</text><text x="397.3" y="269.5" class="node" fill="#5F7BE1">0.95</text><text x="310.5" y="334.3" class="node" fill="#4A6FE3">1</text><text x="332.2" y="325.8" class="node" fill="#4A6FE3">1</text><text x="353.9" y="318.4" class="node" fill="#5F7BE1">0.95</text><text x="267.2" y="357.6" class="node" fill="#6982E1">0.92</text><text x="180.5" y="639.3" class="node" fill="#6982E1">0.92</text><text x="202.1" y="622.4" class="node" fill="#5F7BE1">0.95</text><text x="223.8" y="598.4" class="node" fill="#8C9BE1">0.81</text><text x="245.5" y="568.7" class="node" fill="#E0E0E2">0.51</text><text x="267.2" y="539.9" class="node" fill="#5F7BE1">0.95</text><text x="288.9" y="505" class="node" fill="#5F7BE1">0.95</text><text x="310.5" y="485.9" class="node" fill="#7D8FE1">0.86</text><text x="332.2" y="462.4" class="node" fill="#5F7BE1">0.95</text><text x="353.9" y="441.1" class="node" fill="#6982E1">0.92</text><text x="375.6" y="431.7" class="node" fill="#E0E0E2">0.51</text><text x="397.3" y="422.5" class="node" fill="#E38C9E">0.22</text><text x="419" y="413.9" class="node" fill="#4A6FE3">1</text><text x="440.6" y="406.6" class="node" fill="#6982E1">0.92</text><text x="353.9" y="483.7" class="node" fill="#6982E1">0.92</text><text x="375.6" y="472.7" class="node" fill="#6982E1">0.92</text><text x="397.3" y="465.3" class="node" fill="#5776E2">0.97</text><text x="375.6" y="494.7" class="node" fill="#4A6FE3">1</text><text x="310.5" y="524.1" class="node" fill="#4A6FE3">1</text><text x="288.9" y="574.9" class="node" fill="#5F7BE1">0.95</text><text x="310.5" y="562" class="node" fill="#95A1E2">0.78</text><text x="332.2" y="551" class="node" fill="#CACDE3">0.59</text><text x="353.9" y="543.6" class="node" fill="#E6BDC5">0.38</text><text x="332.2" y="573" class="node" fill="#4A6FE3">1</text><text x="245.5" y="628.1" class="node" fill="#4A6FE3">1</text><text x="267.2" y="619.5" class="node" fill="#D7D9E3">0.54</text><text x="288.9" y="612.2" class="node" fill="#6982E1">0.92</text></svg>
