<svg xmlns="http://www.w3.org/2000/svg" version="1.1" viewBox="0 0 682 720" preserveAspectRatio="xMidYMid meet" class="tree" data-char="110"><text x="678" y="12.7" text-anchor="end" class="stepsLabel">Character adds <tspan class="score">1</tspan> to tree score</text><text x="678" y="22.4" text-anchor="end" class="stepsLabel"><tspan class="score">0</tspan> additional regions</text><text x="678" y="32.1" text-anchor="end" class="stepsLabel"></text><text x="678" y="51.5" text-anchor="end" class="stepsLabel"><tspan dy="16" fill="#34caaf">An optimal tree under:</tspan><tspan x="680" style="font-style:italic" class="notThisAn" dy="1.2em">Implied weights, k = 4.5</tspan><tspan x="680" style="font-style:italic" class="notThisAn" dy="1.2em">IW, k = 10.5</tspan><tspan x="680" style="font-style:italic" class="notThisAn" dy="1.2em">IW, k = 24</tspan><tspan x="680" style="font-style:italic" class="thisAn" dy="1.2em">Equal weights</tspan></text><text x="145.3" y="675.8" fill="#fc8d59" class="flag">[0]</text><text x="167.3" y="675.8" fill="#000" class="taxonLabel">Serpula</text><text x="145.3" y="685.6" fill="#fc8d59" class="flag">[0]</text><text x="167.3" y="685.6" fill="#000" class="taxonLabel">Capitella</text><text x="117.2" y="695.4" fill="#fc8d59" class="flag">[0]</text><text x="139.2" y="695.4" fill="#000" class="taxonLabel">Canadia spinosa</text><text x="89.2" y="705.2" fill="#fc8d59" class="flag">[0]</text><text x="111.2" y="705.2" fill="#000" class="taxonLabel">Sipunculus</text><text x="229.5" y="636.7" fill="#fc8d59" class="flag">[0]</text><text x="251.5" y="636.7" fill="#000" class="taxonLabel">Pojetaia runnegari</text><text x="229.5" y="646.5" fill="#fc8d59" class="flag">[0]</text><text x="251.5" y="646.5" fill="#000" class="taxonLabel">Mytilus</text><text x="257.5" y="607.3" fill="#fc8d59" class="flag">[0]</text><text x="279.5" y="607.3" fill="#000" class="taxonLabel">Neopilina</text><text x="257.5" y="617.1" fill="#fc8d59" class="flag">[0]</text><text x="279.5" y="617.1" fill="#000" class="taxonLabel">Conocardium elongatum</text><text x="229.5" y="626.9" fill="#fc8d59" class="flag">[0]</text><text x="251.5" y="626.9" fill="#000" class="taxonLabel">Haliotis</text><text x="173.4" y="656.2" fill="#fc8d59" class="flag">[0]</text><text x="195.4" y="656.2" fill="#000" class="taxonLabel">Dentalium</text><text x="145.3" y="666" fill="#fc8d59" class="flag">[0]</text><text x="167.3" y="666" fill="#000" class="taxonLabel">Pelagiella</text><text x="173.4" y="587.7" fill="#fc8d59" class="flag">[0]</text><text x="195.4" y="587.7" fill="#000" class="taxonLabel">Wiwaxia corrugata</text><text x="173.4" y="597.5" fill="#fc8d59" class="flag">[0]</text><text x="195.4" y="597.5" fill="#000" class="taxonLabel">Odontogriphus omalus</text><text x="257.5" y="558.3" fill="#fc8d59" class="flag">[0]</text><text x="279.5" y="558.3" fill="#000" class="taxonLabel">Wirenia</text><text x="257.5" y="568.1" fill="#fc8d59" class="flag">[0]</text><text x="279.5" y="568.1" fill="#000" class="taxonLabel">Chaetoderma</text><text x="285.6" y="529" fill="#fc8d59" class="flag">[0]</text><text x="307.6" y="529" fill="#000" class="taxonLabel">Phthipodochiton thraivensis</text><text x="285.6" y="538.8" fill="#fc8d59" class="flag">[0]</text><text x="307.6" y="538.8" fill="#000" class="taxonLabel">Kulindroplax perissokomos</text><text x="257.5" y="548.5" fill="#fc8d59" class="flag">[0]</text><text x="279.5" y="548.5" fill="#000" class="taxonLabel">Acaenoplax hayae</text><text x="341.7" y="470.2" fill="#91bfdb" class="flag">[1]</text><text x="363.7" y="470.2" fill="#000" class="taxonLabel">Tonicella</text><text x="341.7" y="480" fill="#91bfdb" class="flag">[1]</text><text x="363.7" y="480" fill="#000" class="taxonLabel">Mopalia</text><text x="313.6" y="489.8" fill="#fc8d59" class="flag">[0]</text><text x="335.6" y="489.8" fill="#000" class="taxonLabel">Leptochiton</text><text x="285.6" y="499.6" fill="#fc8d59" class="flag">[0]</text><text x="307.6" y="499.6" fill="#000" class="taxonLabel">Glaphurochiton carbonarius</text><text x="257.5" y="509.4" fill="#fc8d59" class="flag">[0]</text><text x="279.5" y="509.4" fill="#000" class="taxonLabel">Calvapilosa kroegeri</text><text x="229.5" y="519.2" fill="#fc8d59" class="flag">[0]</text><text x="251.5" y="519.2" fill="#000" class="taxonLabel">Polysacos vickersianum</text><text x="173.4" y="577.9" fill="grey" class="flag">[?]</text><text x="195.4" y="577.9" fill="#999" class="taxonLabel">Siphogonuchites multa</text><text x="229.5" y="440.8" fill="grey" class="flag">[?]</text><text x="251.5" y="440.8" fill="#999" class="taxonLabel">Paramicrocornus</text><text x="229.5" y="450.6" fill="grey" class="flag">[?]</text><text x="251.5" y="450.6" fill="#999" class="taxonLabel">Haplophrentis carinatus</text><text x="257.5" y="411.5" fill="grey" class="flag">[?]</text><text x="279.5" y="411.5" fill="#999" class="taxonLabel">Cupitheca holocyclata</text><text x="257.5" y="421.2" fill="grey" class="flag">[?]</text><text x="279.5" y="421.2" fill="#999" class="taxonLabel">Bactrotheca</text><text x="229.5" y="431" fill="grey" class="flag">[?]</text><text x="251.5" y="431" fill="#999" class="taxonLabel">Pedunculotheca diania</text><text x="173.4" y="460.4" fill="#fc8d59" class="flag">[0]</text><text x="195.4" y="460.4" fill="#000" class="taxonLabel">Halkieria evangelista</text><text x="313.6" y="352.7" fill="#fc8d59" class="flag">[0]</text><text x="335.6" y="352.7" fill="#000" class="taxonLabel">Phoronis</text><text x="313.6" y="362.5" fill="#fc8d59" class="flag">[0]</text><text x="335.6" y="362.5" fill="#000" class="taxonLabel">Namacalathus</text><text x="341.7" y="323.3" fill="#fc8d59" class="flag">[0]</text><text x="363.7" y="323.3" fill="#000" class="taxonLabel">Flustra</text><text x="341.7" y="333.1" fill="#fc8d59" class="flag">[0]</text><text x="363.7" y="333.1" fill="#000" class="taxonLabel">Amathia</text><text x="313.6" y="342.9" fill="#fc8d59" class="flag">[0]</text><text x="335.6" y="342.9" fill="#000" class="taxonLabel">Loxosomella</text><text x="257.5" y="372.3" fill="#fc8d59" class="flag">[0]</text><text x="279.5" y="372.3" fill="#000" class="taxonLabel">Dailyatia</text><text x="229.5" y="382.1" fill="grey" class="flag">[?]</text><text x="251.5" y="382.1" fill="#999" class="taxonLabel">Cotyledion tylodes</text><text x="201.4" y="391.9" fill="grey" class="flag">[?]</text><text x="223.4" y="391.9" fill="#999" class="taxonLabel">Eccentrotheca</text><text x="173.4" y="401.7" fill="#fc8d59" class="flag">[0]</text><text x="195.4" y="401.7" fill="#000" class="taxonLabel">Orthrozanclus</text><text x="229.5" y="284.2" fill="grey" class="flag">[?]</text><text x="251.5" y="284.2" fill="#999" class="taxonLabel">Mickwitzia muralensis</text><text x="229.5" y="294" fill="grey" class="flag">[?]</text><text x="251.5" y="294" fill="#999" class="taxonLabel">Heliomedusa orienta</text><text x="341.7" y="245" fill="#fc8d59" class="flag">[0]</text><text x="363.7" y="245" fill="#000" class="taxonLabel">Novocrania</text><text x="341.7" y="254.8" fill="grey" class="flag">[?]</text><text x="363.7" y="254.8" fill="#999" class="taxonLabel">Craniops</text><text x="313.6" y="264.6" fill="grey" class="flag">[?]</text><text x="335.6" y="264.6" fill="#999" class="taxonLabel">Ussunia</text><text x="285.6" y="274.4" fill="grey" class="flag">[?]</text><text x="307.6" y="274.4" fill="#999" class="taxonLabel">Gasconsia</text><text x="397.8" y="196" fill="#fc8d59" class="flag">[0]</text><text x="419.8" y="196" fill="#000" class="taxonLabel">Pelagodiscus atlanticus</text><text x="397.8" y="205.8" fill="grey" class="flag">[?]</text><text x="419.8" y="205.8" fill="#999" class="taxonLabel">Mummpikia nuda</text><text x="482" y="147.1" fill="grey" class="flag">[?]</text><text x="504" y="147.1" fill="#999" class="taxonLabel">Siphonobolus priscus</text><text x="482" y="156.9" fill="grey" class="flag">[?]</text><text x="504" y="156.9" fill="#999" class="taxonLabel">Acanthotretella spinosa</text><text x="453.9" y="166.7" fill="grey" class="flag">[?]</text><text x="475.9" y="166.7" fill="#999" class="taxonLabel">Lingulosacculus</text><text x="425.9" y="176.5" fill="grey" class="flag">[?]</text><text x="447.9" y="176.5" fill="#999" class="taxonLabel">Clupeafumosus socialis</text><text x="397.8" y="186.2" fill="grey" class="flag">[?]</text><text x="419.8" y="186.2" fill="#999" class="taxonLabel">Lingulellotreta malongensis</text><text x="341.7" y="215.6" fill="grey" class="flag">[?]</text><text x="363.7" y="215.6" fill="#999" class="taxonLabel">Botsfordia</text><text x="313.6" y="225.4" fill="grey" class="flag">[?]</text><text x="335.6" y="225.4" fill="#999" class="taxonLabel">Eoobolus</text><text x="285.6" y="235.2" fill="#fc8d59" class="flag">[0]</text><text x="307.6" y="235.2" fill="#000" class="taxonLabel">Lingula</text><text x="369.8" y="107.9" fill="grey" class="flag">[?]</text><text x="391.8" y="107.9" fill="#999" class="taxonLabel">Coolinia pecten</text><text x="369.8" y="117.7" fill="grey" class="flag">[?]</text><text x="391.8" y="117.7" fill="#999" class="taxonLabel">Antigonambonites planus</text><text x="397.8" y="78.5" fill="grey" class="flag">[?]</text><text x="419.8" y="78.5" fill="#999" class="taxonLabel">Yuganotheca elegans</text><text x="397.8" y="88.3" fill="grey" class="flag">[?]</text><text x="419.8" y="88.3" fill="#999" class="taxonLabel">Tomteluva perturbata</text><text x="369.8" y="98.1" fill="grey" class="flag">[?]</text><text x="391.8" y="98.1" fill="#999" class="taxonLabel">Salanygolina</text><text x="369.8" y="59" fill="grey" class="flag">[?]</text><text x="391.8" y="59" fill="#999" class="taxonLabel">Nisusia sulcata</text><text x="369.8" y="68.8" fill="grey" class="flag">[?]</text><text x="391.8" y="68.8" fill="#999" class="taxonLabel">Kutorgina chengjiangensis</text><text x="453.9" y="10" fill="#fc8d59" class="flag">[0]</text><text x="475.9" y="10" fill="#000" class="taxonLabel">Terebratulina</text><text x="453.9" y="19.8" fill="grey" class="flag">[?]</text><text x="475.9" y="19.8" fill="#999" class="taxonLabel">Orthis</text><text x="425.9" y="29.6" fill="grey" class="flag">[?]</text><text x="447.9" y="29.6" fill="#999" class="taxonLabel">Alisina</text><text x="397.8" y="39.4" fill="grey" class="flag">[?]</text><text x="419.8" y="39.4" fill="#999" class="taxonLabel">Longtancunella chengjiangensis</text><text x="369.8" y="49.2" fill="grey" class="flag">[?]</text><text x="391.8" y="49.2" fill="#999" class="taxonLabel">Glyptoria</text><text x="285.6" y="127.5" fill="grey" class="flag">[?]</text><text x="307.6" y="127.5" fill="#999" class="taxonLabel">Micromitra</text><text x="257.5" y="137.3" fill="grey" class="flag">[?]</text><text x="279.5" y="137.3" fill="#999" class="taxonLabel">Askepasma toddense</text><text x="173.4" y="303.8" fill="grey" class="flag">[?]</text><text x="195.4" y="303.8" fill="#999" class="taxonLabel">Micrina</text><text x="145.3" y="313.5" fill="#fc8d59" class="flag">[0]</text><text x="167.3" y="313.5" fill="#000" class="taxonLabel">Paterimitra</text><text x="33.1" y="715" fill="#fc8d59" class="flag">[0]</text><text x="55.1" y="715" fill="#000" class="taxonLabel">Yilingia spiciformis</text><path d="M5,649.9V587.7H33.1M33.1,587.7V481.9H61.1M61.1,481.9V352.6H89.2M89.2,352.6V288.6H117.2M117.2,288.6V266.8H145.3M145.3,266.8V232.8H173.4M173.4,232.8V179.5H201.4M201.4,179.5V116.7H229.5M229.5,116.7V99.2H257.5M257.5,99.2V73.9H285.6M285.6,73.9V48.9H313.6M313.6,48.9V37H341.7M341.7,37V27.8H369.8M369.8,27.8V19.2H397.8M397.8,19.2V11.9H425.9M425.9,11.9V7H453.9M425.9,11.9V16.8H453.9M397.8,19.2V26.6H425.9M369.8,27.8V36.4H397.8M341.7,37V46.2H369.8M313.6,48.9V60.9H341.7M341.7,60.9V56H369.8M341.7,60.9V65.8H369.8M285.6,73.9V98.8H313.6M313.6,98.8V87.8H341.7M341.7,87.8V80.4H369.8M369.8,80.4V75.5H397.8M369.8,80.4V85.3H397.8M341.7,87.8V95.1H369.8M313.6,98.8V109.8H341.7M341.7,109.8V104.9H369.8M341.7,109.8V114.7H369.8M257.5,99.2V124.5H285.6M229.5,116.7V134.3H257.5M201.4,179.5V242.2H229.5M229.5,242.2V221.5H257.5M257.5,221.5V210.9H285.6M285.6,210.9V199.3H313.6M313.6,199.3V186H341.7M341.7,186V174.1H369.8M369.8,174.1V164.9H397.8M397.8,164.9V156.3H425.9M425.9,156.3V149H453.9M453.9,149V144.1H482M453.9,149V153.9H482M425.9,156.3V163.7H453.9M397.8,164.9V173.5H425.9M369.8,174.1V183.2H397.8M341.7,186V197.9H369.8M369.8,197.9V193H397.8M369.8,197.9V202.8H397.8M313.6,199.3V212.6H341.7M285.6,210.9V222.4H313.6M257.5,221.5V232.2H285.6M229.5,242.2V262.8H257.5M257.5,262.8V254.2H285.6M285.6,254.2V246.9H313.6M313.6,246.9V242H341.7M313.6,246.9V251.8H341.7M285.6,254.2V261.6H313.6M257.5,262.8V271.4H285.6M173.4,232.8V286.1H201.4M201.4,286.1V281.2H229.5M201.4,286.1V291H229.5M145.3,266.8V300.8H173.4M117.2,288.6V310.5H145.3M89.2,352.6V416.5H117.2M117.2,416.5V388.5H145.3M145.3,388.5V378.3H173.4M173.4,378.3V367.8H201.4M201.4,367.8V356.4H229.5M229.5,356.4V343.6H257.5M257.5,343.6V332.6H285.6M285.6,332.6V325.2H313.6M313.6,325.2V320.3H341.7M313.6,325.2V330.1H341.7M285.6,332.6V339.9H313.6M257.5,343.6V354.6H285.6M285.6,354.6V349.7H313.6M285.6,354.6V359.5H313.6M229.5,356.4V369.3H257.5M201.4,367.8V379.1H229.5M173.4,378.3V388.9H201.4M145.3,388.5V398.7H173.4M117.2,416.5V444.6H145.3M145.3,444.6V431.7H173.4M173.4,431.7V420.7H201.4M201.4,420.7V413.4H229.5M229.5,413.4V408.5H257.5M229.5,413.4V418.2H257.5M201.4,420.7V428H229.5M173.4,431.7V442.7H201.4M201.4,442.7V437.8H229.5M201.4,442.7V447.6H229.5M145.3,444.6V457.4H173.4M61.1,481.9V611.1H89.2M89.2,611.1V570.5H117.2M117.2,570.5V551.4H145.3M145.3,551.4V527.9H173.4M173.4,527.9V506.7H201.4M201.4,506.7V497.2H229.5M229.5,497.2V488H257.5M257.5,488V479.4H285.6M285.6,479.4V486.8H313.6M257.5,488V496.6H285.6M229.5,497.2V506.4H257.5M201.4,506.7V516.2H229.5M173.4,527.9V549.2H201.4M201.4,549.2V538.2H229.5M229.5,538.2V530.9H257.5M257.5,530.9V526H285.6M257.5,530.9V535.8H285.6M229.5,538.2V545.5H257.5M201.4,549.2V560.2H229.5M229.5,560.2V555.3H257.5M229.5,560.2V565.1H257.5M145.3,551.4V574.9H173.4M117.2,570.5V589.6H145.3M145.3,589.6V584.7H173.4M145.3,589.6V594.5H173.4M89.2,611.1V651.7H117.2M117.2,651.7V640.4H145.3M145.3,640.4V627.5H173.4M173.4,627.5V616.5H201.4M201.4,616.5V609.2H229.5M229.5,609.2V604.3H257.5M229.5,609.2V614.1H257.5M201.4,616.5V623.9H229.5M173.4,627.5V638.6H201.4M201.4,638.6V633.7H229.5M201.4,638.6V643.5H229.5M145.3,640.4V653.2H173.4M117.2,651.7V663H145.3M33.1,587.7V693.6H61.1M61.1,693.6V685.1H89.2M89.2,685.1V677.7H117.2M117.2,677.7V672.8H145.3M117.2,677.7V682.6H145.3M89.2,685.1V692.4H117.2M61.1,693.6V702.2H89.2M5,649.9V712H33.1" stroke="#fc8d59"></path><path d="M285.6,479.4V472.1H313.6M313.6,472.1V467.2H341.7M313.6,472.1V477H341.7" stroke="#91bfdb"></path><text x="35.1" y="590.7" class="node" fill="#E5CDD1">0.43</text><text x="63.1" y="484.9" class="node" fill="#E28699">0.2</text><text x="91.2" y="355.6" class="node" fill="#E28699">0.2</text><text x="119.2" y="291.6" class="node" fill="#4A6FE3">1</text><text x="147.3" y="269.8" class="node" fill="#A8B1E2">0.71</text><text x="175.4" y="235.8" class="node" fill="#E4D9DB">0.47</text><text x="203.4" y="182.5" class="node" fill="#E4D9DB">0.47</text><text x="231.5" y="119.7" class="node" fill="#D95A7A">0.07</text><text x="259.5" y="102.2" class="node" fill="#E4D9DB">0.47</text><text x="287.6" y="76.9" class="node" fill="#ABB4E2">0.7</text><text x="315.6" y="51.9" class="node" fill="#4F72E2">0.99</text><text x="343.7" y="40" class="node" fill="#4F72E2">0.99</text><text x="371.8" y="30.8" class="node" fill="#4A6FE3">1</text><text x="399.8" y="22.2" class="node" fill="#4A6FE3">1</text><text x="427.9" y="14.9" class="node" fill="#BCC2E3">0.64</text><text x="343.7" y="63.9" class="node" fill="#C4C9E3">0.61</text><text x="315.6" y="101.8" class="node" fill="#ABB4E2">0.7</text><text x="343.7" y="90.8" class="node" fill="#A8B1E2">0.71</text><text x="371.8" y="83.4" class="node" fill="#4A6FE3">1</text><text x="343.7" y="112.8" class="node" fill="#9AA6E2">0.76</text><text x="231.5" y="245.2" class="node" fill="#9AA6E2">0.76</text><text x="259.5" y="224.5" class="node" fill="#9AA6E2">0.76</text><text x="287.6" y="213.9" class="node" fill="#9AA6E2">0.76</text><text x="315.6" y="202.3" class="node" fill="#9AA6E2">0.76</text><text x="343.7" y="189" class="node" fill="#9AA6E2">0.76</text><text x="371.8" y="177.1" class="node" fill="#4A6FE3">1</text><text x="399.8" y="167.9" class="node" fill="#E6ABB6">0.32</text><text x="427.9" y="159.3" class="node" fill="#4A6FE3">1</text><text x="455.9" y="152" class="node" fill="#9AA6E2">0.76</text><text x="371.8" y="200.9" class="node" fill="#9AA6E2">0.76</text><text x="259.5" y="265.8" class="node" fill="#4A6FE3">1</text><text x="287.6" y="257.2" class="node" fill="#4A6FE3">1</text><text x="315.6" y="249.9" class="node" fill="#9AA6E2">0.76</text><text x="203.4" y="289.1" class="node" fill="#E28699">0.2</text><text x="119.2" y="419.5" class="node" fill="#E28699">0.2</text><text x="147.3" y="391.5" class="node" fill="#E28699">0.2</text><text x="175.4" y="381.3" class="node" fill="#DD6F88">0.13</text><text x="203.4" y="370.8" class="node" fill="#DB617F">0.09</text><text x="231.5" y="359.4" class="node" fill="#E28699">0.2</text><text x="259.5" y="346.6" class="node" fill="#E28699">0.2</text><text x="287.6" y="335.6" class="node" fill="#4A6FE3">1</text><text x="315.6" y="328.2" class="node" fill="#DD6C86">0.12</text><text x="287.6" y="357.6" class="node" fill="#E28699">0.2</text><text x="147.3" y="447.6" class="node" fill="#4A6FE3">1</text><text x="175.4" y="434.7" class="node" fill="#E28699">0.2</text><text x="203.4" y="423.7" class="node" fill="#E3DFE0">0.49</text><text x="231.5" y="416.4" class="node" fill="#4A6FE3">1</text><text x="203.4" y="445.7" class="node" fill="#4A6FE3">1</text><text x="91.2" y="614.1" class="node" fill="#E5CDD1">0.43</text><text x="119.2" y="573.5" class="node" fill="#9AA6E2">0.76</text><text x="147.3" y="554.4" class="node" fill="#E498A7">0.26</text><text x="175.4" y="530.9" class="node" fill="#9AA6E2">0.76</text><text x="203.4" y="509.7" class="node" fill="#E28699">0.2</text><text x="231.5" y="500.2" class="node" fill="#E28699">0.2</text><text x="259.5" y="491" class="node" fill="#E28699">0.2</text><text x="287.6" y="482.4" class="node" fill="#4A6FE3">1</text><text x="315.6" y="475.1" class="node" fill="#B4BBE3">0.67</text><text x="203.4" y="552.2" class="node" fill="#E28699">0.2</text><text x="231.5" y="541.2" class="node" fill="#E28699">0.2</text><text x="259.5" y="533.9" class="node" fill="#E3DFE0">0.49</text><text x="231.5" y="563.2" class="node" fill="#4A6FE3">1</text><text x="147.3" y="592.6" class="node" fill="#6D84E1">0.91</text><text x="119.2" y="654.7" class="node" fill="#4A6FE3">1</text><text x="147.3" y="643.4" class="node" fill="#E5CDD1">0.43</text><text x="175.4" y="630.5" class="node" fill="#E4D6D8">0.46</text><text x="203.4" y="619.5" class="node" fill="#E3DFE0">0.49</text><text x="231.5" y="612.2" class="node" fill="#7D8FE1">0.86</text><text x="203.4" y="641.6" class="node" fill="#4A6FE3">1</text><text x="63.1" y="696.6" class="node" fill="#A8B1E2">0.71</text><text x="91.2" y="688.1" class="node" fill="#CACDE3">0.59</text><text x="119.2" y="680.7" class="node" fill="#E5CDD1">0.43</text></svg>
