<svg xmlns="http://www.w3.org/2000/svg" version="1.1" viewBox="0 0 682 720" preserveAspectRatio="xMidYMid meet" class="tree" data-char="251"><text x="678" y="16.8" text-anchor="end" class="stepsLabel">Character adds <tspan class="score">1</tspan> to tree score</text><text x="678" y="30.6" text-anchor="end" class="stepsLabel"><tspan class="score">0</tspan> additional regions</text><text x="678" y="44.4" text-anchor="end" class="stepsLabel"></text><text x="678" y="72" text-anchor="end" class="stepsLabel"><tspan dy="16" fill="#34caaf">An optimal tree under:</tspan><tspan x="680" style="font-style:italic" class="notThisAn" dy="1.2em">Implied weights, k = 3</tspan><tspan x="680" style="font-style:italic" class="notThisAn" dy="1.2em">IW, k = 4.5</tspan><tspan x="680" style="font-style:italic" class="notThisAn" dy="1.2em">IW, k = 7</tspan><tspan x="680" style="font-style:italic" class="thisAn" dy="1.2em">IW, k = 10.5</tspan><tspan x="680" style="font-style:italic" class="notThisAn" dy="1.2em">IW, k = 16</tspan><tspan x="680" style="font-style:italic" class="notThisAn" dy="1.2em">IW, k = 24</tspan><tspan x="680" style="font-style:italic" class="notThisAn" dy="1.2em">Equal weights</tspan></text><text x="130.5" y="658.6" fill="NA" class="flag">[2]</text><text x="152.5" y="658.6" fill="NA" class="taxonLabel">Serpula</text><text x="130.5" y="672.7" fill="NA" class="flag">[2]</text><text x="152.5" y="672.7" fill="NA" class="taxonLabel">Capitella</text><text x="105.4" y="686.8" fill="NA" class="flag">[?]</text><text x="127.4" y="686.8" fill="NA" class="taxonLabel">Canadia spinosa</text><text x="80.3" y="700.9" fill="NA" class="flag">[2]</text><text x="102.3" y="700.9" fill="NA" class="taxonLabel">Sipunculus</text><text x="205.8" y="602.2" fill="NA" class="flag">[?]</text><text x="227.8" y="602.2" fill="NA" class="taxonLabel">Neopilina</text><text x="205.8" y="616.3" fill="NA" class="flag">[?]</text><text x="227.8" y="616.3" fill="NA" class="taxonLabel">Conocardium elongatum</text><text x="180.7" y="630.4" fill="NA" class="flag">[2]</text><text x="202.7" y="630.4" fill="NA" class="taxonLabel">Haliotis</text><text x="205.8" y="559.9" fill="NA" class="flag">[?]</text><text x="227.8" y="559.9" fill="NA" class="taxonLabel">Pojetaia runnegari</text><text x="205.8" y="574" fill="NA" class="flag">[2]</text><text x="227.8" y="574" fill="NA" class="taxonLabel">Mytilus</text><text x="180.7" y="588.1" fill="NA" class="flag">[2]</text><text x="202.7" y="588.1" fill="NA" class="taxonLabel">Dentalium</text><text x="180.7" y="531.7" fill="NA" class="flag">[?]</text><text x="202.7" y="531.7" fill="NA" class="taxonLabel">Wiwaxia corrugata</text><text x="180.7" y="545.8" fill="NA" class="flag">[?]</text><text x="202.7" y="545.8" fill="NA" class="taxonLabel">Odontogriphus omalus</text><text x="256.1" y="489.4" fill="NA" class="flag">[?]</text><text x="278.1" y="489.4" fill="NA" class="taxonLabel">Kulindroplax perissokomos</text><text x="256.1" y="503.5" fill="NA" class="flag">[?]</text><text x="278.1" y="503.5" fill="NA" class="taxonLabel">Acaenoplax hayae</text><text x="281.2" y="447.1" fill="NA" class="flag">[2]</text><text x="303.2" y="447.1" fill="NA" class="taxonLabel">Wirenia</text><text x="281.2" y="461.2" fill="NA" class="flag">[2]</text><text x="303.2" y="461.2" fill="NA" class="taxonLabel">Chaetoderma</text><text x="256.1" y="475.3" fill="NA" class="flag">[?]</text><text x="278.1" y="475.3" fill="NA" class="taxonLabel">Phthipodochiton thraivensis</text><text x="331.4" y="362.5" fill="NA" class="flag">[2]</text><text x="353.4" y="362.5" fill="NA" class="taxonLabel">Tonicella</text><text x="331.4" y="376.6" fill="NA" class="flag">[2]</text><text x="353.4" y="376.6" fill="NA" class="taxonLabel">Mopalia</text><text x="306.3" y="390.7" fill="NA" class="flag">[?]</text><text x="328.3" y="390.7" fill="NA" class="taxonLabel">Polysacos vickersianum</text><text x="281.2" y="404.8" fill="NA" class="flag">[2]</text><text x="303.2" y="404.8" fill="NA" class="taxonLabel">Leptochiton</text><text x="256.1" y="418.9" fill="NA" class="flag">[?]</text><text x="278.1" y="418.9" fill="NA" class="taxonLabel">Glaphurochiton carbonarius</text><text x="230.9" y="433" fill="NA" class="flag">[?]</text><text x="252.9" y="433" fill="NA" class="taxonLabel">Calvapilosa kroegeri</text><text x="180.7" y="517.6" fill="NA" class="flag">[?]</text><text x="202.7" y="517.6" fill="NA" class="taxonLabel">Siphogonuchites multa</text><text x="105.4" y="644.5" fill="NA" class="flag">[?]</text><text x="127.4" y="644.5" fill="NA" class="taxonLabel">Pelagiella</text><text x="230.9" y="277.9" fill="NA" class="flag">[-]</text><text x="252.9" y="277.9" fill="NA" class="taxonLabel">Flustra</text><text x="230.9" y="292" fill="NA" class="flag">[-]</text><text x="252.9" y="292" fill="NA" class="taxonLabel">Amathia</text><text x="205.8" y="306.1" fill="NA" class="flag">[?]</text><text x="227.8" y="306.1" fill="NA" class="taxonLabel">Namacalathus</text><text x="230.9" y="249.7" fill="NA" class="flag">[-]</text><text x="252.9" y="249.7" fill="NA" class="taxonLabel">Phoronis</text><text x="230.9" y="263.8" fill="NA" class="flag">[?]</text><text x="252.9" y="263.8" fill="NA" class="taxonLabel">Eccentrotheca</text><text x="256.1" y="221.5" fill="NA" class="flag">[?]</text><text x="278.1" y="221.5" fill="NA" class="taxonLabel">Orthrozanclus</text><text x="256.1" y="235.6" fill="NA" class="flag">[?]</text><text x="278.1" y="235.6" fill="NA" class="taxonLabel">Halkieria evangelista</text><text x="331.4" y="165.1" fill="NA" class="flag">[?]</text><text x="353.4" y="165.1" fill="NA" class="taxonLabel">Pedunculotheca diania</text><text x="331.4" y="179.2" fill="NA" class="flag">[?]</text><text x="353.4" y="179.2" fill="NA" class="taxonLabel">Haplophrentis carinatus</text><text x="306.3" y="193.3" fill="NA" class="flag">[?]</text><text x="328.3" y="193.3" fill="NA" class="taxonLabel">Heliomedusa orienta</text><text x="381.6" y="108.7" fill="NA" class="flag">[?]</text><text x="403.6" y="108.7" fill="NA" class="taxonLabel">Micromitra</text><text x="381.6" y="122.8" fill="NA" class="flag">[?]</text><text x="403.6" y="122.8" fill="NA" class="taxonLabel">Gasconsia</text><text x="406.7" y="80.5" fill="NA" class="flag">[1]</text><text x="428.7" y="80.5" fill="NA" class="taxonLabel">Terebratulina</text><text x="406.7" y="94.6" fill="NA" class="flag">[?]</text><text x="428.7" y="94.6" fill="NA" class="taxonLabel">Orthis</text><text x="482" y="10" fill="NA" class="flag">[?]</text><text x="504" y="10" fill="NA" class="taxonLabel">Yuganotheca elegans</text><text x="482" y="24.1" fill="NA" class="flag">[1]</text><text x="504" y="24.1" fill="NA" class="taxonLabel">Lingula</text><text x="456.9" y="38.2" fill="NA" class="flag">[?]</text><text x="478.9" y="38.2" fill="NA" class="taxonLabel">Lingulellotreta malongensis</text><text x="431.8" y="52.3" fill="NA" class="flag">[?]</text><text x="453.8" y="52.3" fill="NA" class="taxonLabel">Pelagodiscus atlanticus</text><text x="406.7" y="66.4" fill="NA" class="flag">[1]</text><text x="428.7" y="66.4" fill="NA" class="taxonLabel">Novocrania</text><text x="331.4" y="136.9" fill="NA" class="flag">[?]</text><text x="353.4" y="136.9" fill="NA" class="taxonLabel">Mickwitzia muralensis</text><text x="306.3" y="151" fill="NA" class="flag">[?]</text><text x="328.3" y="151" fill="NA" class="taxonLabel">Micrina</text><text x="256.1" y="207.4" fill="NA" class="flag">[?]</text><text x="278.1" y="207.4" fill="NA" class="taxonLabel">Paterimitra</text><text x="155.6" y="320.2" fill="NA" class="flag">[?]</text><text x="177.6" y="320.2" fill="NA" class="taxonLabel">Dailyatia</text><text x="130.5" y="334.3" fill="NA" class="flag">[2]</text><text x="152.5" y="334.3" fill="NA" class="taxonLabel">Loxosomella</text><text x="105.4" y="348.4" fill="NA" class="flag">[?]</text><text x="127.4" y="348.4" fill="NA" class="taxonLabel">Cotyledion tylodes</text><text x="30.1" y="715" fill="NA" class="flag">[?]</text><text x="52.1" y="715" fill="NA" class="taxonLabel">Yilingia spiciformis</text><path d="MNA,NAVNAHNAMNA,NAVNAHNAMNA,NAVNAHNAMNA,NAVNAHNAMNA,NAVNAHNAMNA,NAVNAHNAMNA,NAVNAHNAMNA,NAVNAHNAMNA,NAVNAHNAMNA,NAVNAHNAMNA,NAVNAHNAMNA,NAVNAHNAMNA,NAVNAHNAMNA,NAVNAHNAMNA,NAVNAHNAMNA,NAVNAHNAMNA,NAVNAHNAMNA,NAVNAHNAMNA,NAVNAHNAMNA,NAVNAHNAMNA,NAVNAHNAMNA,NAVNAHNAMNA,NAVNAHNAMNA,NAVNAHNAMNA,NAVNAHNAMNA,NAVNAHNAMNA,NAVNAHNAMNA,NAVNAHNAMNA,NAVNAHNAMNA,NAVNAHNAMNA,NAVNAHNAMNA,NAVNAHNAMNA,NAVNAHNAMNA,NAVNAHNAMNA,NAVNAHNAMNA,NAVNAHNAMNA,NAVNAHNAMNA,NAVNAHNAMNA,NAVNAHNAMNA,NAVNAHNAMNA,NAVNAHNAMNA,NAVNAHNAMNA,NAVNAHNAMNA,NAVNAHNAMNA,NAVNAHNAMNA,NAVNAHNAMNA,NAVNAHNAMNA,NAVNAHNAMNA,NAVNAHNAMNA,NAVNAHNAMNA,NAVNAHNAMNA,NAVNAHNAMNA,NAVNAHNAMNA,NAVNAHNAMNA,NAVNAHNAMNA,NAVNAHNAMNA,NAVNAHNAMNA,NAVNAHNAMNA,NAVNAHNAMNA,NAVNAHNAMNA,NAVNAHNAMNA,NAVNAHNAMNA,NAVNAHNAMNA,NAVNAHNAMNA,NAVNAHNAMNA,NAVNAHNAMNA,NAVNAHNAMNA,NAVNAHNAMNA,NAVNAHNAMNA,NAVNAHNAMNA,NAVNAHNAMNA,NAVNAHNAMNA,NAVNAHNAMNA,NAVNAHNAMNA,NAVNAHNAMNA,NAVNAHNAMNA,NAVNAHNAMNA,NAVNAHNAMNA,NAVNAHNAMNA,NAVNAHNAMNA,NAVNAHNAMNA,NAVNAHNAMNA,NAVNAHNAMNA,NAVNAHNAMNA,NAVNAHNAMNA,NAVNAHNAMNA,NAVNAHNAMNA,NAVNAHNAMNA,NAVNAHNAMNA,NAVNAHNAMNA,NAVNAHNAMNA,NAVNAHNAMNA,NAVNAHNAMNA,NAVNAHNAMNA,NAVNAHNAMNA,NAVNAHNAMNA,NAVNAHNAMNA,NAVNAHNAMNA,NAVNAHNAMNA,NAVNAHNA" stroke="NANA"></path><text x="32.1" y="576.9" class="node" fill="#D64F73">0.04</text><text x="57.2" y="465.2" class="node" fill="#D4486F">0.02</text><text x="82.3" y="330.7" class="node" fill="#D4486F">0.02</text><text x="107.4" y="313" class="node" fill="#D4486F">0.02</text><text x="132.5" y="291.8" class="node" fill="#D4486F">0.02</text><text x="157.6" y="263.3" class="node" fill="#D4486F">0.02</text><text x="182.7" y="231.2" class="node" fill="#E5CDD1">0.43</text><text x="207.8" y="205.6" class="node" fill="#E4D6D8">0.46</text><text x="232.9" y="182.6" class="node" fill="#D64F73">0.04</text><text x="258.1" y="157.9" class="node" fill="#D4486F">0.02</text><text x="283.2" y="133" class="node" fill="#D4486F">0.02</text><text x="308.3" y="115" class="node" fill="#5374E2">0.98</text><text x="333.4" y="93.1" class="node" fill="#5374E2">0.98</text><text x="358.5" y="70.4" class="node" fill="#5374E2">0.98</text><text x="383.6" y="53.2" class="node" fill="#5374E2">0.98</text><text x="408.7" y="40" class="node" fill="#4A6FE3">1</text><text x="433.8" y="27.6" class="node" fill="#E2E2E2">0.5</text><text x="458.9" y="17.1" class="node" fill="#4A6FE3">1</text><text x="383.6" y="87.5" class="node" fill="#4A6FE3">1</text><text x="358.5" y="115.8" class="node" fill="#D4486F">0.02</text><text x="283.2" y="182.7" class="node" fill="#4A6FE3">1</text><text x="308.3" y="172.1" class="node" fill="#B9BFE3">0.65</text><text x="232.9" y="228.6" class="node" fill="#D4486F">0.02</text><text x="207.8" y="256.7" class="node" fill="#D4486F">0.02</text><text x="182.7" y="295.5" class="node" fill="#4A6FE3">1</text><text x="207.8" y="284.9" class="node" fill="#4A6FE3">1</text><text x="82.3" y="599.7" class="node" fill="#D4486F">0.02</text><text x="107.4" y="555" class="node" fill="#D4486F">0.02</text><text x="132.5" y="511.3" class="node" fill="#E5CDD1">0.43</text><text x="157.6" y="483.8" class="node" fill="#E07C92">0.17</text><text x="182.7" y="450" class="node" fill="#5374E2">0.98</text><text x="207.8" y="419.3" class="node" fill="#5374E2">0.98</text><text x="232.9" y="405.7" class="node" fill="#4A6FE3">1</text><text x="258.1" y="392.5" class="node" fill="#4A6FE3">1</text><text x="283.2" y="380.1" class="node" fill="#4A6FE3">1</text><text x="308.3" y="369.5" class="node" fill="#E5CDD1">0.43</text><text x="207.8" y="480.6" class="node" fill="#E38C9E">0.22</text><text x="232.9" y="464.7" class="node" fill="#5374E2">0.98</text><text x="258.1" y="454.1" class="node" fill="#E5CDD1">0.43</text><text x="232.9" y="496.4" class="node" fill="#4A6FE3">1</text><text x="157.6" y="538.8" class="node" fill="#95A1E2">0.78</text><text x="132.5" y="598.7" class="node" fill="#5374E2">0.98</text><text x="157.6" y="577.5" class="node" fill="#4A6FE3">1</text><text x="182.7" y="567" class="node" fill="#5374E2">0.98</text><text x="157.6" y="619.8" class="node" fill="#5374E2">0.98</text><text x="182.7" y="609.2" class="node" fill="#4A6FE3">1</text><text x="57.2" y="688.6" class="node" fill="#4A6FE3">1</text><text x="82.3" y="676.2" class="node" fill="#4A6FE3">1</text><text x="107.4" y="665.6" class="node" fill="#D64F73">0.04</text></svg>
