<svg xmlns="http://www.w3.org/2000/svg" version="1.1" viewBox="0 0 682 720" preserveAspectRatio="xMidYMid meet" class="tree" data-char="275"><text x="678" y="17.7" text-anchor="end" class="stepsLabel">Character adds <tspan class="score">2</tspan> to tree score</text><text x="678" y="32.4" text-anchor="end" class="stepsLabel"><tspan class="score">0</tspan> additional regions</text><text x="678" y="47.1" text-anchor="end" class="stepsLabel"></text><text x="678" y="76.5" text-anchor="end" class="stepsLabel"><tspan dy="16" fill="#34caaf">An optimal tree under:</tspan><tspan x="680" style="font-style:italic" class="notThisAn" dy="1.2em">Implied weights, k = 3</tspan><tspan x="680" style="font-style:italic" class="notThisAn" dy="1.2em">IW, k = 4.5</tspan><tspan x="680" style="font-style:italic" class="notThisAn" dy="1.2em">IW, k = 7</tspan><tspan x="680" style="font-style:italic" class="notThisAn" dy="1.2em">IW, k = 10.5</tspan><tspan x="680" style="font-style:italic" class="notThisAn" dy="1.2em">IW, k = 16</tspan><tspan x="680" style="font-style:italic" class="notThisAn" dy="1.2em">IW, k = 24</tspan><tspan x="680" style="font-style:italic" class="thisAn" dy="1.2em">Equal weights</tspan></text><text x="188.5" y="655" fill="#e2e2a2" class="flag">[1]</text><text x="210.5" y="655" fill="#000" class="taxonLabel">Serpula</text><text x="188.5" y="670" fill="grey" class="flag">[?]</text><text x="210.5" y="670" fill="#999" class="taxonLabel">Capitella</text><text x="151.8" y="685" fill="grey" class="flag">[?]</text><text x="173.8" y="685" fill="#999" class="taxonLabel">Canadia spinosa</text><text x="115.1" y="700" fill="#e2e2a2" class="flag">[1]</text><text x="137.1" y="700" fill="#000" class="taxonLabel">Sipunculus</text><text x="188.5" y="625" fill="grey" class="flag">[?]</text><text x="210.5" y="625" fill="#999" class="taxonLabel">Siphogonuchites multa</text><text x="188.5" y="640" fill="grey" class="flag">[?]</text><text x="210.5" y="640" fill="#999" class="taxonLabel">Acaenoplax hayae</text><text x="298.5" y="580" fill="#e2e2a2" class="flag">[1]</text><text x="320.5" y="580" fill="#000" class="taxonLabel">Wirenia</text><text x="298.5" y="595" fill="#e2e2a2" class="flag">[1]</text><text x="320.5" y="595" fill="#000" class="taxonLabel">Chaetoderma</text><text x="482" y="475" fill="#e2e2a2" class="flag">[1]</text><text x="504" y="475" fill="#000" class="taxonLabel">Tonicella</text><text x="482" y="490" fill="#e2e2a2" class="flag">[1]</text><text x="504" y="490" fill="#000" class="taxonLabel">Mopalia</text><text x="445.3" y="505" fill="grey" class="flag">[?]</text><text x="467.3" y="505" fill="#999" class="taxonLabel">Polysacos vickersianum</text><text x="408.6" y="520" fill="#e2e2a2" class="flag">[1]</text><text x="430.6" y="520" fill="#000" class="taxonLabel">Leptochiton</text><text x="371.9" y="535" fill="grey" class="flag">[?]</text><text x="393.9" y="535" fill="#999" class="taxonLabel">Glaphurochiton carbonarius</text><text x="335.2" y="550" fill="grey" class="flag">[?]</text><text x="357.2" y="550" fill="#999" class="taxonLabel">Calvapilosa kroegeri</text><text x="298.5" y="565" fill="grey" class="flag">[?]</text><text x="320.5" y="565" fill="#999" class="taxonLabel">Phthipodochiton thraivensis</text><text x="298.5" y="445" fill="grey" class="flag">[?]</text><text x="320.5" y="445" fill="#999" class="taxonLabel">Wiwaxia corrugata</text><text x="298.5" y="460" fill="grey" class="flag">[?]</text><text x="320.5" y="460" fill="#999" class="taxonLabel">Odontogriphus omalus</text><text x="371.9" y="400" fill="grey" class="flag">[?]</text><text x="393.9" y="400" fill="#999" class="taxonLabel">Neopilina</text><text x="371.9" y="415" fill="grey" class="flag">[?]</text><text x="393.9" y="415" fill="#999" class="taxonLabel">Conocardium elongatum</text><text x="445.3" y="340" fill="grey" class="flag">[?]</text><text x="467.3" y="340" fill="#999" class="taxonLabel">Pojetaia runnegari</text><text x="445.3" y="355" fill="#e2e2a2" class="flag">[1]</text><text x="467.3" y="355" fill="#000" class="taxonLabel">Mytilus</text><text x="408.6" y="370" fill="#e2e2a2" class="flag">[1]</text><text x="430.6" y="370" fill="#000" class="taxonLabel">Dentalium</text><text x="371.9" y="385" fill="#e2e2a2" class="flag">[1]</text><text x="393.9" y="385" fill="#000" class="taxonLabel">Haliotis</text><text x="298.5" y="430" fill="grey" class="flag">[?]</text><text x="320.5" y="430" fill="#999" class="taxonLabel">Pelagiella</text><text x="188.5" y="610" fill="grey" class="flag">[?]</text><text x="210.5" y="610" fill="#999" class="taxonLabel">Kulindroplax perissokomos</text><text x="261.8" y="295" fill="grey" class="flag">[?]</text><text x="283.8" y="295" fill="#999" class="taxonLabel">Pedunculotheca diania</text><text x="261.8" y="310" fill="grey" class="flag">[?]</text><text x="283.8" y="310" fill="#999" class="taxonLabel">Haplophrentis carinatus</text><text x="335.2" y="250" fill="grey" class="flag">[?]</text><text x="357.2" y="250" fill="#999" class="taxonLabel">Eccentrotheca</text><text x="335.2" y="265" fill="grey" class="flag">[?]</text><text x="357.2" y="265" fill="#999" class="taxonLabel">Cotyledion tylodes</text><text x="408.6" y="205" fill="#91bfdb" class="flag">[2]</text><text x="430.6" y="205" fill="#000" class="taxonLabel">Loxosomella</text><text x="408.6" y="220" fill="#e2e2a2" class="flag">[1]</text><text x="430.6" y="220" fill="#000" class="taxonLabel">Flustra</text><text x="408.6" y="175" fill="#e2e2a2" class="flag">[1]</text><text x="430.6" y="175" fill="#000" class="taxonLabel">Phoronis</text><text x="408.6" y="190" fill="grey" class="flag">[?]</text><text x="430.6" y="190" fill="#999" class="taxonLabel">Namacalathus</text><text x="335.2" y="235" fill="grey" class="flag">[?]</text><text x="357.2" y="235" fill="#999" class="taxonLabel">Dailyatia</text><text x="261.8" y="280" fill="grey" class="flag">[?]</text><text x="283.8" y="280" fill="#999" class="taxonLabel">Orthrozanclus</text><text x="335.2" y="115" fill="grey" class="flag">[?]</text><text x="357.2" y="115" fill="#999" class="taxonLabel">Mickwitzia muralensis</text><text x="335.2" y="130" fill="grey" class="flag">[?]</text><text x="357.2" y="130" fill="#999" class="taxonLabel">Heliomedusa orienta</text><text x="371.9" y="85" fill="grey" class="flag">[?]</text><text x="393.9" y="85" fill="#999" class="taxonLabel">Micromitra</text><text x="371.9" y="100" fill="grey" class="flag">[?]</text><text x="393.9" y="100" fill="#999" class="taxonLabel">Gasconsia</text><text x="408.6" y="55" fill="#e2e2a2" class="flag">[1]</text><text x="430.6" y="55" fill="#000" class="taxonLabel">Terebratulina</text><text x="408.6" y="70" fill="grey" class="flag">[?]</text><text x="430.6" y="70" fill="#999" class="taxonLabel">Orthis</text><text x="445.3" y="10" fill="grey" class="flag">[?]</text><text x="467.3" y="10" fill="#999" class="taxonLabel">Pelagodiscus atlanticus</text><text x="445.3" y="25" fill="#91bfdb" class="flag">[2]</text><text x="467.3" y="25" fill="#000" class="taxonLabel">Lingula</text><text x="408.6" y="40" fill="#91bfdb" class="flag">[2]</text><text x="430.6" y="40" fill="#000" class="taxonLabel">Novocrania</text><text x="261.8" y="145" fill="grey" class="flag">[?]</text><text x="283.8" y="145" fill="#999" class="taxonLabel">Micrina</text><text x="225.2" y="160" fill="grey" class="flag">[?]</text><text x="247.2" y="160" fill="#999" class="taxonLabel">Paterimitra</text><text x="151.8" y="325" fill="grey" class="flag">[?]</text><text x="173.8" y="325" fill="#999" class="taxonLabel">Halkieria evangelista</text><text x="41.7" y="715" fill="grey" class="flag">[?]</text><text x="63.7" y="715" fill="#999" class="taxonLabel">Yilingia spiciformis</text><path d="M5,633.9V555.8H41.7M41.7,555.8V427.7H78.4M78.4,427.7V264.7H115.1M115.1,264.7V207.3H151.8M151.8,207.3V137.2H188.5M188.5,137.2V117.4H225.2M225.2,117.4V92.8H261.8M261.8,92.8V66.1H298.5M298.5,66.1V42.6H335.2M335.2,42.6V59.5H371.9M371.9,59.5V52H408.6M371.9,59.5V67H408.6M298.5,66.1V89.5H335.2M335.2,89.5V82H371.9M335.2,89.5V97H371.9M261.8,92.8V119.5H298.5M298.5,119.5V112H335.2M298.5,119.5V127H335.2M225.2,117.4V142H261.8M188.5,137.2V157H225.2M151.8,207.3V277.5H188.5M188.5,277.5V255.4H225.2M225.2,255.4V233.9H261.8M261.8,233.9V213.2H298.5M298.5,213.2V194.5H335.2M335.2,194.5V179.5H371.9M371.9,179.5V172H408.6M371.9,179.5V187H408.6M335.2,194.5V209.5H371.9M371.9,209.5V217H408.6M298.5,213.2V232H335.2M261.8,233.9V254.5H298.5M298.5,254.5V247H335.2M298.5,254.5V262H335.2M225.2,255.4V277H261.8M188.5,277.5V299.5H225.2M225.2,299.5V292H261.8M225.2,299.5V307H261.8M115.1,264.7V322H151.8M78.4,427.7V590.8H115.1M115.1,590.8V552H151.8M151.8,552V497H188.5M188.5,497V428.2H225.2M225.2,428.2V406.8H261.8M261.8,406.8V386.7H298.5M298.5,386.7V368.9H335.2M335.2,368.9V355.8H371.9M371.9,355.8V344.5H408.6M408.6,344.5V337H445.3M408.6,344.5V352H445.3M371.9,355.8V367H408.6M335.2,368.9V382H371.9M298.5,386.7V404.5H335.2M335.2,404.5V397H371.9M335.2,404.5V412H371.9M261.8,406.8V427H298.5M225.2,428.2V449.5H261.8M261.8,449.5V442H298.5M261.8,449.5V457H298.5M188.5,497V565.9H225.2M225.2,565.9V547.2H261.8M261.8,547.2V532.5H298.5M298.5,532.5V517.9H335.2M335.2,517.9V503.9H371.9M371.9,503.9V490.8H408.6M408.6,490.8V479.5H445.3M445.3,479.5V472H482M445.3,479.5V487H482M408.6,490.8V502H445.3M371.9,503.9V517H408.6M335.2,517.9V532H371.9M298.5,532.5V547H335.2M261.8,547.2V562H298.5M225.2,565.9V584.5H261.8M261.8,584.5V577H298.5M261.8,584.5V592H298.5M151.8,552V607H188.5M115.1,590.8V629.5H151.8M151.8,629.5V622H188.5M151.8,629.5V637H188.5M41.7,555.8V683.9H78.4M78.4,683.9V670.8H115.1M115.1,670.8V659.5H151.8M151.8,659.5V652H188.5M151.8,659.5V667H188.5M115.1,670.8V682H151.8M78.4,683.9V697H115.1M5,633.9V712H41.7" stroke="#e2e2a2"></path><path d="M335.2,42.6V25.8H371.9M371.9,25.8V14.5H408.6M408.6,14.5V7H445.3M408.6,14.5V22H445.3M371.9,25.8V37H408.6M371.9,209.5V202H408.6" stroke="#91bfdb"></path><text x="43.7" y="558.8" class="node" fill="#97A4E2">0.77</text><text x="80.4" y="430.7" class="node" fill="#97A4E2">0.77</text><text x="117.1" y="267.7" class="node" fill="#97A4E2">0.77</text><text x="153.8" y="210.3" class="node" fill="#4A6FE3">1</text><text x="190.5" y="140.2" class="node" fill="#4A6FE3">1</text><text x="227.2" y="120.4" class="node" fill="#4A6FE3">1</text><text x="263.8" y="95.8" class="node" fill="#4A6FE3">1</text><text x="300.5" y="69.1" class="node" fill="#4A6FE3">1</text><text x="337.2" y="45.6" class="node" fill="#4A6FE3">1</text><text x="373.9" y="28.8" class="node" fill="#4A6FE3">1</text><text x="410.6" y="17.5" class="node" fill="#4A6FE3">1</text><text x="373.9" y="62.5" class="node" fill="#4A6FE3">1</text><text x="337.2" y="92.5" class="node" fill="#4A6FE3">1</text><text x="300.5" y="122.5" class="node" fill="#97A4E2">0.77</text><text x="190.5" y="280.5" class="node" fill="#97A4E2">0.77</text><text x="227.2" y="258.4" class="node" fill="#97A4E2">0.77</text><text x="263.8" y="236.9" class="node" fill="#E4D9DB">0.47</text><text x="300.5" y="216.2" class="node" fill="#97A4E2">0.77</text><text x="337.2" y="197.5" class="node" fill="#E5CDD1">0.43</text><text x="373.9" y="182.5" class="node" fill="#97A4E2">0.77</text><text x="373.9" y="212.5" class="node" fill="#DD6F88">0.13</text><text x="300.5" y="257.5" class="node" fill="#4A6FE3">1</text><text x="227.2" y="302.5" class="node" fill="#4A6FE3">1</text><text x="117.1" y="593.8" class="node" fill="#97A4E2">0.77</text><text x="153.8" y="555" class="node" fill="#97A4E2">0.77</text><text x="190.5" y="500" class="node" fill="#4A6FE3">1</text><text x="227.2" y="431.2" class="node" fill="#4A6FE3">1</text><text x="263.8" y="409.8" class="node" fill="#7388E1">0.89</text><text x="300.5" y="389.7" class="node" fill="#4A6FE3">1</text><text x="337.2" y="371.9" class="node" fill="#4A6FE3">1</text><text x="373.9" y="358.8" class="node" fill="#4A6FE3">1</text><text x="410.6" y="347.5" class="node" fill="#4A6FE3">1</text><text x="337.2" y="407.5" class="node" fill="#4A6FE3">1</text><text x="263.8" y="452.5" class="node" fill="#97A4E2">0.77</text><text x="227.2" y="568.9" class="node" fill="#97A4E2">0.77</text><text x="263.8" y="550.2" class="node" fill="#4A6FE3">1</text><text x="300.5" y="535.5" class="node" fill="#4A6FE3">1</text><text x="337.2" y="520.9" class="node" fill="#4A6FE3">1</text><text x="373.9" y="506.9" class="node" fill="#4A6FE3">1</text><text x="410.6" y="493.8" class="node" fill="#4A6FE3">1</text><text x="447.3" y="482.5" class="node" fill="#97A4E2">0.77</text><text x="263.8" y="587.5" class="node" fill="#E5A5B1">0.3</text><text x="153.8" y="632.5" class="node" fill="#4A6FE3">1</text><text x="80.4" y="686.9" class="node" fill="#4A6FE3">1</text><text x="117.1" y="673.8" class="node" fill="#4A6FE3">1</text><text x="153.8" y="662.5" class="node" fill="#97A4E2">0.77</text></svg>
