<svg xmlns="http://www.w3.org/2000/svg" version="1.1" viewBox="0 0 682 720" preserveAspectRatio="xMidYMid meet" class="tree" data-char="245"><text x="678" y="17.7" text-anchor="end" class="stepsLabel">Character adds <tspan class="score">1</tspan> to tree score</text><text x="678" y="32.4" text-anchor="end" class="stepsLabel"><tspan class="score">0</tspan> additional regions</text><text x="678" y="47.1" text-anchor="end" class="stepsLabel"></text><text x="678" y="76.5" text-anchor="end" class="stepsLabel"><tspan dy="16" fill="#34caaf">An optimal tree under:</tspan><tspan x="680" style="font-style:italic" class="notThisAn" dy="1.2em">Implied weights, k = 3</tspan><tspan x="680" style="font-style:italic" class="notThisAn" dy="1.2em">IW, k = 4.5</tspan><tspan x="680" style="font-style:italic" class="notThisAn" dy="1.2em">IW, k = 7</tspan><tspan x="680" style="font-style:italic" class="notThisAn" dy="1.2em">IW, k = 10.5</tspan><tspan x="680" style="font-style:italic" class="notThisAn" dy="1.2em">IW, k = 16</tspan><tspan x="680" style="font-style:italic" class="thisAn" dy="1.2em">IW, k = 24</tspan><tspan x="680" style="font-style:italic" class="notThisAn" dy="1.2em">Equal weights</tspan></text><text x="172" y="640" fill="grey" class="flag">[?]</text><text x="194" y="640" fill="#999" class="taxonLabel">Orthrozanclus</text><text x="172" y="655" fill="grey" class="flag">[?]</text><text x="194" y="655" fill="#999" class="taxonLabel">Halkieria evangelista</text><text x="195.8" y="610" fill="grey" class="flag">[?]</text><text x="217.8" y="610" fill="#999" class="taxonLabel">Pedunculotheca diania</text><text x="195.8" y="625" fill="grey" class="flag">[?]</text><text x="217.8" y="625" fill="#999" class="taxonLabel">Haplophrentis carinatus</text><text x="267.4" y="550" fill="grey" class="flag">[?]</text><text x="289.4" y="550" fill="#999" class="taxonLabel">Mickwitzia muralensis</text><text x="267.4" y="565" fill="grey" class="flag">[?]</text><text x="289.4" y="565" fill="#999" class="taxonLabel">Heliomedusa orienta</text><text x="291.2" y="520" fill="grey" class="flag">[?]</text><text x="313.2" y="520" fill="#999" class="taxonLabel">Micromitra</text><text x="291.2" y="535" fill="grey" class="flag">[?]</text><text x="313.2" y="535" fill="#999" class="taxonLabel">Gasconsia</text><text x="315.1" y="490" fill="grey" class="flag">[?]</text><text x="337.1" y="490" fill="#999" class="taxonLabel">Terebratulina</text><text x="315.1" y="505" fill="grey" class="flag">[?]</text><text x="337.1" y="505" fill="#999" class="taxonLabel">Orthis</text><text x="338.9" y="445" fill="grey" class="flag">[?]</text><text x="360.9" y="445" fill="#999" class="taxonLabel">Pelagodiscus atlanticus</text><text x="338.9" y="460" fill="grey" class="flag">[?]</text><text x="360.9" y="460" fill="#999" class="taxonLabel">Lingula</text><text x="315.1" y="475" fill="grey" class="flag">[?]</text><text x="337.1" y="475" fill="#999" class="taxonLabel">Novocrania</text><text x="219.7" y="580" fill="grey" class="flag">[?]</text><text x="241.7" y="580" fill="#999" class="taxonLabel">Micrina</text><text x="195.8" y="595" fill="grey" class="flag">[?]</text><text x="217.8" y="595" fill="#999" class="taxonLabel">Paterimitra</text><text x="124.2" y="670" fill="grey" class="flag">[?]</text><text x="146.2" y="670" fill="#999" class="taxonLabel">Eccentrotheca</text><text x="100.4" y="685" fill="grey" class="flag">[?]</text><text x="122.4" y="685" fill="#999" class="taxonLabel">Cotyledion tylodes</text><text x="267.4" y="325" fill="grey" class="flag">[?]</text><text x="289.4" y="325" fill="#999" class="taxonLabel">Serpula</text><text x="267.4" y="340" fill="grey" class="flag">[?]</text><text x="289.4" y="340" fill="#999" class="taxonLabel">Capitella</text><text x="243.5" y="355" fill="grey" class="flag">[?]</text><text x="265.5" y="355" fill="#999" class="taxonLabel">Canadia spinosa</text><text x="219.7" y="370" fill="grey" class="flag">[?]</text><text x="241.7" y="370" fill="#999" class="taxonLabel">Sipunculus</text><text x="482" y="145" fill="#91bfdb" class="flag">[1]</text><text x="504" y="145" fill="#000" class="taxonLabel">Tonicella</text><text x="482" y="160" fill="#91bfdb" class="flag">[1]</text><text x="504" y="160" fill="#000" class="taxonLabel">Mopalia</text><text x="458.2" y="175" fill="grey" class="flag">[?]</text><text x="480.2" y="175" fill="#999" class="taxonLabel">Polysacos vickersianum</text><text x="434.3" y="190" fill="#91bfdb" class="flag">[1]</text><text x="456.3" y="190" fill="#000" class="taxonLabel">Leptochiton</text><text x="410.5" y="205" fill="grey" class="flag">[?]</text><text x="432.5" y="205" fill="#999" class="taxonLabel">Glaphurochiton carbonarius</text><text x="386.6" y="220" fill="grey" class="flag">[?]</text><text x="408.6" y="220" fill="#999" class="taxonLabel">Calvapilosa kroegeri</text><text x="362.8" y="235" fill="grey" class="flag">[?]</text><text x="384.8" y="235" fill="#999" class="taxonLabel">Siphogonuchites multa</text><text x="386.6" y="115" fill="grey" class="flag">[?]</text><text x="408.6" y="115" fill="#999" class="taxonLabel">Wiwaxia corrugata</text><text x="386.6" y="130" fill="grey" class="flag">[?]</text><text x="408.6" y="130" fill="#999" class="taxonLabel">Odontogriphus omalus</text><text x="434.3" y="70" fill="grey" class="flag">[?]</text><text x="456.3" y="70" fill="#999" class="taxonLabel">Neopilina</text><text x="434.3" y="85" fill="grey" class="flag">[?]</text><text x="456.3" y="85" fill="#999" class="taxonLabel">Conocardium elongatum</text><text x="482" y="10" fill="grey" class="flag">[?]</text><text x="504" y="10" fill="#999" class="taxonLabel">Pojetaia runnegari</text><text x="482" y="25" fill="grey" class="flag">[?]</text><text x="504" y="25" fill="#999" class="taxonLabel">Mytilus</text><text x="458.2" y="40" fill="#fc8d59" class="flag">[0]</text><text x="480.2" y="40" fill="#000" class="taxonLabel">Dentalium</text><text x="434.3" y="55" fill="grey" class="flag">[?]</text><text x="456.3" y="55" fill="#999" class="taxonLabel">Haliotis</text><text x="386.6" y="100" fill="grey" class="flag">[?]</text><text x="408.6" y="100" fill="#999" class="taxonLabel">Pelagiella</text><text x="315.1" y="250" fill="grey" class="flag">[?]</text><text x="337.1" y="250" fill="#999" class="taxonLabel">Acaenoplax hayae</text><text x="291.2" y="265" fill="grey" class="flag">[?]</text><text x="313.2" y="265" fill="#999" class="taxonLabel">Phthipodochiton thraivensis</text><text x="267.4" y="280" fill="grey" class="flag">[?]</text><text x="289.4" y="280" fill="#999" class="taxonLabel">Kulindroplax perissokomos</text><text x="243.5" y="295" fill="grey" class="flag">[?]</text><text x="265.5" y="295" fill="#999" class="taxonLabel">Chaetoderma</text><text x="219.7" y="310" fill="#fc8d59" class="flag">[0]</text><text x="241.7" y="310" fill="#000" class="taxonLabel">Wirenia</text><text x="172" y="385" fill="grey" class="flag">[?]</text><text x="194" y="385" fill="#999" class="taxonLabel">Loxosomella</text><text x="148.1" y="400" fill="grey" class="flag">[?]</text><text x="170.1" y="400" fill="#999" class="taxonLabel">Flustra</text><text x="124.2" y="415" fill="grey" class="flag">[?]</text><text x="146.2" y="415" fill="#999" class="taxonLabel">Namacalathus</text><text x="100.4" y="430" fill="grey" class="flag">[?]</text><text x="122.4" y="430" fill="#999" class="taxonLabel">Phoronis</text><text x="52.7" y="700" fill="grey" class="flag">[?]</text><text x="74.7" y="700" fill="#999" class="taxonLabel">Dailyatia</text><text x="28.9" y="715" fill="grey" class="flag">[?]</text><text x="50.9" y="715" fill="#999" class="taxonLabel">Yilingia spiciformis</text><path d="M5,664.3V616.7H28.9M28.9,616.7V536.3H52.7M52.7,536.3V410.1H76.6M76.6,410.1V393.3H100.4M100.4,393.3V374.5H124.2M124.2,374.5V352H148.1M148.1,352V322H172M172,322V290.1H195.8M195.8,290.1V273.3H219.7M219.7,273.3V254.6H243.5M243.5,254.6V232.2H267.4M267.4,232.2V202.4H291.2M291.2,202.4V157.7H315.1M315.1,157.7V98.2H338.9M338.9,98.2V76.8H362.8M362.8,76.8V56.7H386.6M386.6,56.7V38.9H410.5M410.5,38.9V25.8H434.3M434.3,25.8V14.5H458.2M458.2,14.5V7H482M458.2,14.5V22H482M434.3,25.8V37H458.2M410.5,38.9V52H434.3M386.6,56.7V74.5H410.5M410.5,74.5V67H434.3M410.5,74.5V82H434.3M362.8,76.8V97H386.6M338.9,98.2V119.5H362.8M362.8,119.5V112H386.6M362.8,119.5V127H386.6M315.1,157.7V217.2H338.9M291.2,202.4V247H315.1M267.4,232.2V262H291.2M243.5,254.6V277H267.4M219.7,273.3V292H243.5M195.8,290.1V307H219.7M172,322V353.9H195.8M195.8,353.9V340.8H219.7M219.7,340.8V329.5H243.5M243.5,329.5V322H267.4M243.5,329.5V337H267.4M219.7,340.8V352H243.5M195.8,353.9V367H219.7M148.1,352V382H172M124.2,374.5V397H148.1M100.4,393.3V412H124.2M76.6,410.1V427H100.4M52.7,536.3V662.5H76.6M76.6,662.5V643H100.4M100.4,643V618.9H124.2M124.2,618.9V593.3H148.1M148.1,593.3V572.2H172M172,572.2V552.4H195.8M195.8,552.4V527.8H219.7M219.7,527.8V501.1H243.5M243.5,501.1V477.6H267.4M267.4,477.6V460.8H291.2M291.2,460.8V449.5H315.1M315.1,449.5V442H338.9M315.1,449.5V457H338.9M291.2,460.8V472H315.1M267.4,477.6V494.5H291.2M291.2,494.5V487H315.1M291.2,494.5V502H315.1M243.5,501.1V524.5H267.4M267.4,524.5V517H291.2M267.4,524.5V532H291.2M219.7,527.8V554.5H243.5M243.5,554.5V547H267.4M243.5,554.5V562H267.4M195.8,552.4V577H219.7M172,572.2V592H195.8M148.1,593.3V614.5H172M172,614.5V607H195.8M172,614.5V622H195.8M124.2,618.9V644.5H148.1M148.1,644.5V637H172M148.1,644.5V652H172M100.4,643V667H124.2M76.6,662.5V682H100.4M28.9,616.7V697H52.7M5,664.3V712H28.9" stroke="#fc8d59"></path><path d="M338.9,217.2V202.5H362.8M362.8,202.5V187.9H386.6M386.6,187.9V202H410.5M362.8,202.5V217H386.6M338.9,217.2V232H362.8" stroke="darkgrey"></path><path d="M386.6,187.9V173.9H410.5M410.5,173.9V160.8H434.3M434.3,160.8V149.5H458.2M458.2,149.5V142H482M458.2,149.5V157H482M434.3,160.8V172H458.2M410.5,173.9V187H434.3" stroke="#91bfdb"></path><text x="30.9" y="619.7" class="node" fill="#E38FA0">0.23</text><text x="54.7" y="539.3" class="node" fill="#E38FA0">0.23</text><text x="78.6" y="413.1" class="node" fill="#D85778">0.06</text><text x="102.4" y="396.3" class="node" fill="#E38FA0">0.23</text><text x="126.2" y="377.5" class="node" fill="#E38FA0">0.23</text><text x="150.1" y="355" class="node" fill="#E38FA0">0.23</text><text x="174" y="325" class="node" fill="#4A6FE3">1</text><text x="197.8" y="293.1" class="node" fill="#E38FA0">0.23</text><text x="221.7" y="276.3" class="node" fill="#E38FA0">0.23</text><text x="245.5" y="257.6" class="node" fill="#E38FA0">0.23</text><text x="269.4" y="235.2" class="node" fill="#E38FA0">0.23</text><text x="293.2" y="205.4" class="node" fill="#E18297">0.19</text><text x="317.1" y="160.7" class="node" fill="#4A6FE3">1</text><text x="340.9" y="101.2" class="node" fill="#4A6FE3">1</text><text x="364.8" y="79.8" class="node" fill="#7388E1">0.89</text><text x="388.6" y="59.7" class="node" fill="#4A6FE3">1</text><text x="412.5" y="41.9" class="node" fill="#4A6FE3">1</text><text x="436.3" y="28.8" class="node" fill="#4A6FE3">1</text><text x="460.2" y="17.5" class="node" fill="#4A6FE3">1</text><text x="412.5" y="77.5" class="node" fill="#4A6FE3">1</text><text x="364.8" y="122.5" class="node" fill="#D64F73">0.04</text><text x="340.9" y="220.2" class="node" fill="#4A6FE3">1</text><text x="364.8" y="205.5" class="node" fill="#4A6FE3">1</text><text x="388.6" y="190.9" class="node" fill="#4A6FE3">1</text><text x="412.5" y="176.9" class="node" fill="#4A6FE3">1</text><text x="436.3" y="163.8" class="node" fill="#4A6FE3">1</text><text x="460.2" y="152.5" class="node" fill="#4A6FE3">1</text><text x="197.8" y="356.9" class="node" fill="#4A6FE3">1</text><text x="221.7" y="343.8" class="node" fill="#4A6FE3">1</text><text x="245.5" y="332.5" class="node" fill="#E07C92">0.17</text><text x="78.6" y="665.5" class="node" fill="#E18297">0.19</text><text x="102.4" y="646" class="node" fill="#E38FA0">0.23</text><text x="126.2" y="621.9" class="node" fill="#E38FA0">0.23</text><text x="150.1" y="596.3" class="node" fill="#4A6FE3">1</text><text x="174" y="575.2" class="node" fill="#4A6FE3">1</text><text x="197.8" y="555.4" class="node" fill="#4A6FE3">1</text><text x="221.7" y="530.8" class="node" fill="#4A6FE3">1</text><text x="245.5" y="504.1" class="node" fill="#4A6FE3">1</text><text x="269.4" y="480.6" class="node" fill="#4A6FE3">1</text><text x="293.2" y="463.8" class="node" fill="#4A6FE3">1</text><text x="317.1" y="452.5" class="node" fill="#4A6FE3">1</text><text x="293.2" y="497.5" class="node" fill="#4A6FE3">1</text><text x="269.4" y="527.5" class="node" fill="#4A6FE3">1</text><text x="245.5" y="557.5" class="node" fill="#4A6FE3">1</text><text x="174" y="617.5" class="node" fill="#E38FA0">0.23</text><text x="150.1" y="647.5" class="node" fill="#E38FA0">0.23</text></svg>
