<svg xmlns="http://www.w3.org/2000/svg" version="1.1" viewBox="0 0 682 720" preserveAspectRatio="xMidYMid meet" class="tree" data-char="13"><text x="678" y="12.7" text-anchor="end" class="stepsLabel">Character adds <tspan class="score">3</tspan> to tree score (<tspan class="score fitch">1</tspan> with Fitch)</text><text x="678" y="22.4" text-anchor="end" class="stepsLabel"><tspan class="score">3</tspan> additional regions (not counted by Fitch)</text><text x="678" y="32.1" text-anchor="end" class="stepsLabel"></text><text x="678" y="51.5" text-anchor="end" class="stepsLabel"><tspan dy="16" fill="#34caaf">An optimal tree under:</tspan><tspan x="680" style="font-style:italic" class="thisAn" dy="1.2em">Implied weights, k = 4.5</tspan><tspan x="680" style="font-style:italic" class="notThisAn" dy="1.2em">IW, k = 10.5</tspan><tspan x="680" style="font-style:italic" class="notThisAn" dy="1.2em">IW, k = 24</tspan><tspan x="680" style="font-style:italic" class="notThisAn" dy="1.2em">Equal weights</tspan></text><text x="124.2" y="675.8" fill="#e2e2a2" class="flag">[1]</text><text x="146.2" y="675.8" fill="#000" class="taxonLabel">Serpula</text><text x="124.2" y="685.6" fill="#e2e2a2" class="flag">[1]</text><text x="146.2" y="685.6" fill="#000" class="taxonLabel">Capitella</text><text x="100.4" y="695.4" fill="grey" class="flag">[?]</text><text x="122.4" y="695.4" fill="#999" class="taxonLabel">Canadia spinosa</text><text x="76.6" y="705.2" fill="lightgrey" class="flag">[-]</text><text x="98.6" y="705.2" fill="#ccc" class="taxonLabel">Sipunculus</text><text x="124.2" y="656.2" fill="lightgrey" class="flag">[-]</text><text x="146.2" y="656.2" fill="#ccc" class="taxonLabel">Orthrozanclus</text><text x="124.2" y="666" fill="grey" class="flag">[?]</text><text x="146.2" y="666" fill="#999" class="taxonLabel">Halkieria evangelista</text><text x="195.8" y="617.1" fill="grey" class="flag">[?]</text><text x="217.8" y="617.1" fill="#999" class="taxonLabel">Wirenia</text><text x="195.8" y="626.9" fill="grey" class="flag">[?]</text><text x="217.8" y="626.9" fill="#999" class="taxonLabel">Phthipodochiton thraivensis</text><text x="315.1" y="558.3" fill="#e2e2a2" class="flag">[1]</text><text x="337.1" y="558.3" fill="#000" class="taxonLabel">Tonicella</text><text x="315.1" y="568.1" fill="#e2e2a2" class="flag">[1]</text><text x="337.1" y="568.1" fill="#000" class="taxonLabel">Mopalia</text><text x="291.2" y="577.9" fill="grey" class="flag">[?]</text><text x="313.2" y="577.9" fill="#999" class="taxonLabel">Polysacos vickersianum</text><text x="267.4" y="587.7" fill="#e2e2a2" class="flag">[1]</text><text x="289.4" y="587.7" fill="#000" class="taxonLabel">Leptochiton</text><text x="243.5" y="597.5" fill="grey" class="flag">[?]</text><text x="265.5" y="597.5" fill="#999" class="taxonLabel">Glaphurochiton carbonarius</text><text x="315.1" y="519.2" fill="#e2e2a2" class="flag">[1]</text><text x="337.1" y="519.2" fill="#000" class="taxonLabel">Wiwaxia corrugata</text><text x="315.1" y="529" fill="grey" class="flag">[?]</text><text x="337.1" y="529" fill="#999" class="taxonLabel">Odontogriphus omalus</text><text x="362.8" y="489.8" fill="lightgrey" class="flag">[-]</text><text x="384.8" y="489.8" fill="#ccc" class="taxonLabel">Neopilina</text><text x="362.8" y="499.6" fill="lightgrey" class="flag">[-]</text><text x="384.8" y="499.6" fill="#ccc" class="taxonLabel">Haliotis</text><text x="410.5" y="450.6" fill="lightgrey" class="flag">[-]</text><text x="432.5" y="450.6" fill="#ccc" class="taxonLabel">Pojetaia runnegari</text><text x="410.5" y="460.4" fill="lightgrey" class="flag">[-]</text><text x="432.5" y="460.4" fill="#ccc" class="taxonLabel">Mytilus</text><text x="386.6" y="470.2" fill="grey" class="flag">[?]</text><text x="408.6" y="470.2" fill="#999" class="taxonLabel">Conocardium elongatum</text><text x="362.8" y="480" fill="lightgrey" class="flag">[-]</text><text x="384.8" y="480" fill="#ccc" class="taxonLabel">Dentalium</text><text x="315.1" y="509.4" fill="grey" class="flag">[?]</text><text x="337.1" y="509.4" fill="#999" class="taxonLabel">Pelagiella</text><text x="267.4" y="538.8" fill="grey" class="flag">[?]</text><text x="289.4" y="538.8" fill="#999" class="taxonLabel">Siphogonuchites multa</text><text x="243.5" y="548.5" fill="grey" class="flag">[?]</text><text x="265.5" y="548.5" fill="#999" class="taxonLabel">Calvapilosa kroegeri</text><text x="195.8" y="607.3" fill="lightgrey" class="flag">[-]</text><text x="217.8" y="607.3" fill="#ccc" class="taxonLabel">Chaetoderma</text><text x="148.1" y="636.7" fill="grey" class="flag">[?]</text><text x="170.1" y="636.7" fill="#999" class="taxonLabel">Acaenoplax hayae</text><text x="124.2" y="646.5" fill="grey" class="flag">[?]</text><text x="146.2" y="646.5" fill="#999" class="taxonLabel">Kulindroplax perissokomos</text><text x="148.1" y="421.2" fill="lightgrey" class="flag">[-]</text><text x="170.1" y="421.2" fill="#ccc" class="taxonLabel">Namacalathus</text><text x="148.1" y="431" fill="lightgrey" class="flag">[-]</text><text x="170.1" y="431" fill="#ccc" class="taxonLabel">Loxosomella</text><text x="195.8" y="391.9" fill="lightgrey" class="flag">[-]</text><text x="217.8" y="391.9" fill="#ccc" class="taxonLabel">Flustra</text><text x="195.8" y="401.7" fill="#91bfdb" class="flag">[2]</text><text x="217.8" y="401.7" fill="#000" class="taxonLabel">Amathia</text><text x="172" y="411.5" fill="grey" class="flag">[?]</text><text x="194" y="411.5" fill="#999" class="taxonLabel">Dailyatia</text><text x="195.8" y="372.3" fill="lightgrey" class="flag">[-]</text><text x="217.8" y="372.3" fill="#ccc" class="taxonLabel">Phoronis</text><text x="195.8" y="382.1" fill="grey" class="flag">[?]</text><text x="217.8" y="382.1" fill="#999" class="taxonLabel">Eccentrotheca</text><text x="315.1" y="313.5" fill="grey" class="flag">[?]</text><text x="337.1" y="313.5" fill="#999" class="taxonLabel">Paramicrocornus</text><text x="315.1" y="323.3" fill="lightgrey" class="flag">[-]</text><text x="337.1" y="323.3" fill="#ccc" class="taxonLabel">Haplophrentis carinatus</text><text x="291.2" y="333.1" fill="grey" class="flag">[?]</text><text x="313.2" y="333.1" fill="#999" class="taxonLabel">Bactrotheca</text><text x="267.4" y="342.9" fill="grey" class="flag">[?]</text><text x="289.4" y="342.9" fill="#999" class="taxonLabel">Cupitheca holocyclata</text><text x="243.5" y="352.7" fill="grey" class="flag">[?]</text><text x="265.5" y="352.7" fill="#999" class="taxonLabel">Pedunculotheca diania</text><text x="315.1" y="284.2" fill="grey" class="flag">[?]</text><text x="337.1" y="284.2" fill="#999" class="taxonLabel">Coolinia pecten</text><text x="315.1" y="294" fill="grey" class="flag">[?]</text><text x="337.1" y="294" fill="#999" class="taxonLabel">Antigonambonites planus</text><text x="338.9" y="254.8" fill="grey" class="flag">[?]</text><text x="360.9" y="254.8" fill="#999" class="taxonLabel">Yuganotheca elegans</text><text x="338.9" y="264.6" fill="grey" class="flag">[?]</text><text x="360.9" y="264.6" fill="#999" class="taxonLabel">Tomteluva perturbata</text><text x="315.1" y="274.4" fill="grey" class="flag">[?]</text><text x="337.1" y="274.4" fill="#999" class="taxonLabel">Salanygolina</text><text x="338.9" y="235.2" fill="grey" class="flag">[?]</text><text x="360.9" y="235.2" fill="#999" class="taxonLabel">Nisusia sulcata</text><text x="338.9" y="245" fill="grey" class="flag">[?]</text><text x="360.9" y="245" fill="#999" class="taxonLabel">Kutorgina chengjiangensis</text><text x="410.5" y="186.2" fill="#91bfdb" class="flag">[2]</text><text x="432.5" y="186.2" fill="#000" class="taxonLabel">Terebratulina</text><text x="410.5" y="196" fill="grey" class="flag">[?]</text><text x="432.5" y="196" fill="#999" class="taxonLabel">Orthis</text><text x="386.6" y="205.8" fill="grey" class="flag">[?]</text><text x="408.6" y="205.8" fill="#999" class="taxonLabel">Alisina</text><text x="362.8" y="215.6" fill="grey" class="flag">[?]</text><text x="384.8" y="215.6" fill="#999" class="taxonLabel">Longtancunella chengjiangensis</text><text x="338.9" y="225.4" fill="grey" class="flag">[?]</text><text x="360.9" y="225.4" fill="#999" class="taxonLabel">Glyptoria</text><text x="458.2" y="117.7" fill="lightgrey" class="flag">[-]</text><text x="480.2" y="117.7" fill="#ccc" class="taxonLabel">Novocrania</text><text x="458.2" y="127.5" fill="grey" class="flag">[?]</text><text x="480.2" y="127.5" fill="#999" class="taxonLabel">Craniops</text><text x="434.3" y="137.3" fill="grey" class="flag">[?]</text><text x="456.3" y="137.3" fill="#999" class="taxonLabel">Ussunia</text><text x="410.5" y="147.1" fill="grey" class="flag">[?]</text><text x="432.5" y="147.1" fill="#999" class="taxonLabel">Heliomedusa orienta</text><text x="386.6" y="156.9" fill="grey" class="flag">[?]</text><text x="408.6" y="156.9" fill="#999" class="taxonLabel">Gasconsia</text><text x="362.8" y="166.7" fill="grey" class="flag">[?]</text><text x="384.8" y="166.7" fill="#999" class="taxonLabel">Micromitra</text><text x="386.6" y="98.1" fill="#91bfdb" class="flag">[2]</text><text x="408.6" y="98.1" fill="#000" class="taxonLabel">Pelagodiscus atlanticus</text><text x="386.6" y="107.9" fill="grey" class="flag">[?]</text><text x="408.6" y="107.9" fill="#999" class="taxonLabel">Mickwitzia muralensis</text><text x="434.3" y="68.8" fill="grey" class="flag">[?]</text><text x="456.3" y="68.8" fill="#999" class="taxonLabel">Mummpikia nuda</text><text x="434.3" y="78.5" fill="grey" class="flag">[?]</text><text x="456.3" y="78.5" fill="#999" class="taxonLabel">Botsfordia</text><text x="410.5" y="88.3" fill="grey" class="flag">[?]</text><text x="432.5" y="88.3" fill="#999" class="taxonLabel">Eoobolus</text><text x="434.3" y="49.2" fill="grey" class="flag">[?]</text><text x="456.3" y="49.2" fill="#999" class="taxonLabel">Lingulellotreta malongensis</text><text x="434.3" y="59" fill="#91bfdb" class="flag">[2]</text><text x="456.3" y="59" fill="#000" class="taxonLabel">Lingula</text><text x="482" y="10" fill="grey" class="flag">[?]</text><text x="504" y="10" fill="#999" class="taxonLabel">Siphonobolus priscus</text><text x="482" y="19.8" fill="grey" class="flag">[?]</text><text x="504" y="19.8" fill="#999" class="taxonLabel">Acanthotretella spinosa</text><text x="458.2" y="29.6" fill="grey" class="flag">[?]</text><text x="480.2" y="29.6" fill="#999" class="taxonLabel">Lingulosacculus</text><text x="434.3" y="39.4" fill="grey" class="flag">[?]</text><text x="456.3" y="39.4" fill="#999" class="taxonLabel">Clupeafumosus socialis</text><text x="315.1" y="176.5" fill="grey" class="flag">[?]</text><text x="337.1" y="176.5" fill="#999" class="taxonLabel">Askepasma toddense</text><text x="243.5" y="303.8" fill="grey" class="flag">[?]</text><text x="265.5" y="303.8" fill="#999" class="taxonLabel">Micrina</text><text x="195.8" y="362.5" fill="grey" class="flag">[?]</text><text x="217.8" y="362.5" fill="#999" class="taxonLabel">Paterimitra</text><text x="100.4" y="440.8" fill="lightgrey" class="flag">[-]</text><text x="122.4" y="440.8" fill="#ccc" class="taxonLabel">Cotyledion tylodes</text><text x="28.9" y="715" fill="grey" class="flag">[?]</text><text x="50.9" y="715" fill="#999" class="taxonLabel">Yilingia spiciformis</text><path d="M5,662.3V612.6H28.9M28.9,612.6V531.6H52.7M52.7,531.6V418.9H76.6M76.6,418.9V400H100.4M100.4,400V376.9H124.2M124.2,376.9V352.7H148.1M148.1,352.7V331.2H172M172,331.2V303H195.8M315.1,116.8V154.2H338.9M338.9,154.2V144.7H362.8M362.8,144.7V135.5H386.6M386.6,135.5V126.9H410.5M410.5,126.9V119.6H434.3M434.3,119.6V114.7H458.2M434.3,119.6V124.5H458.2M410.5,126.9V134.3H434.3M386.6,135.5V144.1H410.5M362.8,144.7V153.9H386.6M338.9,154.2V163.7H362.8M195.8,303V340.5H219.7M219.7,340.5V331.3H243.5M243.5,331.3V322.8H267.4M267.4,322.8V315.4H291.2M291.2,315.4V310.5H315.1M291.2,315.4V320.3H315.1M267.4,322.8V330.1H291.2M243.5,331.3V339.9H267.4M219.7,340.5V349.7H243.5M172,331.2V359.5H195.8M148.1,352.7V374.2H172M172,374.2V369.3H195.8M172,374.2V379.1H195.8M124.2,376.9V401.1H148.1M148.1,401.1V393.8H172M172,393.8V388.9H195.8M148.1,401.1V408.5H172M100.4,400V423.1H124.2M124.2,423.1V418.2H148.1M124.2,423.1V428H148.1M76.6,418.9V437.8H100.4M52.7,531.6V644.2H76.6M76.6,644.2V630.2H100.4M100.4,630.2V617H124.2M124.2,617V600.4H148.1M148.1,600.4V581.8H172M267.4,507.1V493.2H291.2M291.2,493.2V480.1H315.1M315.1,480.1V468.4H338.9M338.9,468.4V459.9H362.8M362.8,459.9V452.5H386.6M386.6,452.5V447.6H410.5M386.6,452.5V457.4H410.5M362.8,459.9V467.2H386.6M338.9,468.4V477H362.8M315.1,480.1V491.7H338.9M338.9,491.7V486.8H362.8M338.9,491.7V496.6H362.8M291.2,493.2V506.4H315.1M172,581.8V604.3H195.8M148.1,600.4V619H172M172,619V614.1H195.8M172,619V623.9H195.8M124.2,617V633.7H148.1M100.4,630.2V643.5H124.2M76.6,644.2V658.1H100.4M100.4,658.1V653.2H124.2M100.4,658.1V663H124.2M28.9,612.6V693.6H52.7M52.7,693.6V702.2H76.6M5,662.3V712H28.9" stroke="lightgrey" class="inapplicable"></path><path d="M195.8,303V265.4H219.7M219.7,265.4V230.1H243.5M243.5,230.1V185.1H267.4M267.4,185.1V145.1H291.2M291.2,145.1V116.8H315.1M315.1,116.8V79.4H338.9M338.9,79.4V58.7H362.8M362.8,58.7V39.4H386.6M386.6,39.4V27.8H410.5M410.5,27.8V19.2H434.3M434.3,19.2V11.9H458.2M458.2,11.9V7H482M458.2,11.9V16.8H482M434.3,19.2V26.6H458.2M410.5,27.8V36.4H434.3M386.6,39.4V51.1H410.5M410.5,51.1V46.2H434.3M410.5,51.1V56H434.3M362.8,58.7V78H386.6M386.6,78V70.6H410.5M410.5,70.6V65.8H434.3M410.5,70.6V75.5H434.3M386.6,78V85.3H410.5M338.9,79.4V100H362.8M362.8,100V95.1H386.6M362.8,100V104.9H386.6M291.2,145.1V173.5H315.1M267.4,185.1V225.2H291.2M291.2,225.2V213.2H315.1M315.1,213.2V204.1H338.9M338.9,204.1V195.5H362.8M362.8,195.5V188.1H386.6M386.6,188.1V183.2H410.5M386.6,188.1V193H410.5M362.8,195.5V202.8H386.6M338.9,204.1V212.6H362.8M315.1,213.2V222.4H338.9M291.2,225.2V237.1H315.1M315.1,237.1V232.2H338.9M315.1,237.1V242H338.9M243.5,230.1V275H267.4M267.4,275V264H291.2M291.2,264V256.7H315.1M315.1,256.7V251.8H338.9M315.1,256.7V261.6H338.9M291.2,264V271.4H315.1M267.4,275V286.1H291.2M291.2,286.1V281.2H315.1M291.2,286.1V291H315.1M219.7,265.4V300.8H243.5M172,393.8V398.7H195.8" stroke="#91bfdb"></path><path d="M172,581.8V559.4H195.8M195.8,559.4V533.5H219.7M219.7,533.5V521.4H243.5M243.5,521.4V507.1H267.4M267.4,507.1V521.1H291.2M291.2,521.1V516.2H315.1M291.2,521.1V526H315.1M243.5,521.4V535.8H267.4M219.7,533.5V545.5H243.5M195.8,559.4V585.3H219.7M219.7,585.3V576.1H243.5M243.5,576.1V567.6H267.4M267.4,567.6V560.2H291.2M291.2,560.2V555.3H315.1M291.2,560.2V565.1H315.1M267.4,567.6V574.9H291.2M243.5,576.1V584.7H267.4M219.7,585.3V594.5H243.5M52.7,693.6V685.1H76.6M76.6,685.1V677.7H100.4M100.4,677.7V672.8H124.2M100.4,677.7V682.6H124.2M76.6,685.1V692.4H100.4" stroke="#e2e2a2"></path><text x="30.9" y="615.6" class="node" fill="#E5CDD1">0.43</text><text x="54.7" y="534.6" class="node" fill="#E392A2">0.24</text><text x="78.6" y="421.9" class="node" fill="#D95A7A">0.07</text><text x="102.4" y="403" class="node" fill="#DD6C86">0.12</text><text x="126.2" y="379.9" class="node" fill="#DB617F">0.09</text><text x="150.1" y="355.7" class="node" fill="#8F9DE1">0.8</text><text x="174" y="334.2" class="node" fill="#8F9DE1">0.8</text><text x="197.8" y="306" class="node" fill="#4A6FE3">1</text><text x="221.7" y="268.4" class="node" fill="#A8B1E2">0.71</text><text x="245.5" y="233.1" class="node" fill="#E392A2">0.24</text><text x="269.4" y="188.1" class="node" fill="#E392A2">0.24</text><text x="293.2" y="148.1" class="node" fill="#E392A2">0.24</text><text x="317.1" y="119.8" class="node" fill="#E392A2">0.24</text><text x="340.9" y="82.4" class="node" fill="#E392A2">0.24</text><text x="364.8" y="61.7" class="node" fill="#E392A2">0.24</text><text x="388.6" y="42.4" class="node" fill="#4A6FE3">1</text><text x="412.5" y="30.8" class="node" fill="#E6ABB6">0.32</text><text x="436.3" y="22.2" class="node" fill="#4A6FE3">1</text><text x="460.2" y="14.9" class="node" fill="#E392A2">0.24</text><text x="412.5" y="54.1" class="node" fill="#E392A2">0.24</text><text x="388.6" y="81" class="node" fill="#E392A2">0.24</text><text x="412.5" y="73.6" class="node" fill="#E392A2">0.24</text><text x="364.8" y="103" class="node" fill="#E392A2">0.24</text><text x="340.9" y="157.2" class="node" fill="#E392A2">0.24</text><text x="364.8" y="147.7" class="node" fill="#E392A2">0.24</text><text x="388.6" y="138.5" class="node" fill="#4A6FE3">1</text><text x="412.5" y="129.9" class="node" fill="#4A6FE3">1</text><text x="436.3" y="122.6" class="node" fill="#ABB4E2">0.7</text><text x="293.2" y="228.2" class="node" fill="#4F72E2">0.99</text><text x="317.1" y="216.2" class="node" fill="#4F72E2">0.99</text><text x="340.9" y="207.1" class="node" fill="#4A6FE3">1</text><text x="364.8" y="198.5" class="node" fill="#4A6FE3">1</text><text x="388.6" y="191.1" class="node" fill="#BCC2E3">0.64</text><text x="317.1" y="240.1" class="node" fill="#C4C9E3">0.61</text><text x="269.4" y="278" class="node" fill="#ABB4E2">0.7</text><text x="293.2" y="267" class="node" fill="#A8B1E2">0.71</text><text x="317.1" y="259.7" class="node" fill="#4A6FE3">1</text><text x="293.2" y="289.1" class="node" fill="#4A6FE3">1</text><text x="221.7" y="343.5" class="node" fill="#DADBE3">0.53</text><text x="245.5" y="334.3" class="node" fill="#E392A2">0.24</text><text x="269.4" y="325.8" class="node" fill="#4A6FE3">1</text><text x="293.2" y="318.4" class="node" fill="#D75376">0.05</text><text x="174" y="377.2" class="node" fill="#D75376">0.05</text><text x="150.1" y="404.1" class="node" fill="#4A6FE3">1</text><text x="174" y="396.8" class="node" fill="#E392A2">0.24</text><text x="126.2" y="426.1" class="node" fill="#E392A2">0.24</text><text x="78.6" y="647.2" class="node" fill="#4A6FE3">1</text><text x="102.4" y="633.2" class="node" fill="#E392A2">0.24</text><text x="126.2" y="620" class="node" fill="#E392A2">0.24</text><text x="150.1" y="603.4" class="node" fill="#E392A2">0.24</text><text x="174" y="584.8" class="node" fill="#E392A2">0.24</text><text x="197.8" y="562.4" class="node" fill="#E392A2">0.24</text><text x="221.7" y="536.5" class="node" fill="#E392A2">0.24</text><text x="245.5" y="524.4" class="node" fill="#E59FAC">0.28</text><text x="269.4" y="510.1" class="node" fill="#6D84E1">0.91</text><text x="293.2" y="496.2" class="node" fill="#4A6FE3">1</text><text x="317.1" y="483.1" class="node" fill="#E392A2">0.24</text><text x="340.9" y="471.4" class="node" fill="#E0E0E2">0.51</text><text x="364.8" y="462.9" class="node" fill="#7D8FE1">0.86</text><text x="388.6" y="455.5" class="node" fill="#E392A2">0.24</text><text x="340.9" y="494.7" class="node" fill="#4A6FE3">1</text><text x="293.2" y="524.1" class="node" fill="#8F9DE1">0.8</text><text x="221.7" y="588.3" class="node" fill="#8F9DE1">0.8</text><text x="245.5" y="579.1" class="node" fill="#8F9DE1">0.8</text><text x="269.4" y="570.6" class="node" fill="#4A6FE3">1</text><text x="293.2" y="563.2" class="node" fill="#E0E0E2">0.51</text><text x="174" y="622" class="node" fill="#E392A2">0.24</text><text x="102.4" y="661.1" class="node" fill="#4A6FE3">1</text><text x="54.7" y="696.6" class="node" fill="#A8B1E2">0.71</text><text x="78.6" y="688.1" class="node" fill="#CACDE3">0.59</text><text x="102.4" y="680.7" class="node" fill="#E5CDD1">0.43</text></svg>
