<svg xmlns="http://www.w3.org/2000/svg" version="1.1" viewBox="0 0 682 720" preserveAspectRatio="xMidYMid meet" class="tree" data-char="211"><text x="678" y="17.7" text-anchor="end" class="stepsLabel">Character adds <tspan class="score">6</tspan> to tree score</text><text x="678" y="32.4" text-anchor="end" class="stepsLabel"><tspan class="score">0</tspan> additional regions</text><text x="678" y="47.1" text-anchor="end" class="stepsLabel"></text><text x="678" y="76.5" text-anchor="end" class="stepsLabel"><tspan dy="16" fill="#34caaf">An optimal tree under:</tspan><tspan x="680" style="font-style:italic" class="notThisAn" dy="1.2em">Implied weights, k = 3</tspan><tspan x="680" style="font-style:italic" class="notThisAn" dy="1.2em">IW, k = 4.5</tspan><tspan x="680" style="font-style:italic" class="notThisAn" dy="1.2em">IW, k = 7</tspan><tspan x="680" style="font-style:italic" class="notThisAn" dy="1.2em">IW, k = 10.5</tspan><tspan x="680" style="font-style:italic" class="notThisAn" dy="1.2em">IW, k = 16</tspan><tspan x="680" style="font-style:italic" class="thisAn" dy="1.2em">IW, k = 24</tspan><tspan x="680" style="font-style:italic" class="notThisAn" dy="1.2em">Equal weights</tspan></text><text x="172" y="640" fill="grey" class="flag">[?]</text><text x="194" y="640" fill="#999" class="taxonLabel">Orthrozanclus</text><text x="172" y="655" fill="grey" class="flag">[?]</text><text x="194" y="655" fill="#999" class="taxonLabel">Halkieria evangelista</text><text x="195.8" y="610" fill="grey" class="flag">[?]</text><text x="217.8" y="610" fill="#999" class="taxonLabel">Pedunculotheca diania</text><text x="195.8" y="625" fill="grey" class="flag">[?]</text><text x="217.8" y="625" fill="#999" class="taxonLabel">Haplophrentis carinatus</text><text x="267.4" y="550" fill="grey" class="flag">[?]</text><text x="289.4" y="550" fill="#999" class="taxonLabel">Mickwitzia muralensis</text><text x="267.4" y="565" fill="grey" class="flag">[?]</text><text x="289.4" y="565" fill="#999" class="taxonLabel">Heliomedusa orienta</text><text x="291.2" y="520" fill="grey" class="flag">[?]</text><text x="313.2" y="520" fill="#999" class="taxonLabel">Micromitra</text><text x="291.2" y="535" fill="grey" class="flag">[?]</text><text x="313.2" y="535" fill="#999" class="taxonLabel">Gasconsia</text><text x="315.1" y="490" fill="grey" class="flag">[?]</text><text x="337.1" y="490" fill="#999" class="taxonLabel">Terebratulina</text><text x="315.1" y="505" fill="grey" class="flag">[?]</text><text x="337.1" y="505" fill="#999" class="taxonLabel">Orthis</text><text x="338.9" y="445" fill="grey" class="flag">[?]</text><text x="360.9" y="445" fill="#999" class="taxonLabel">Pelagodiscus atlanticus</text><text x="338.9" y="460" fill="#fc8d59" class="flag">[0]</text><text x="360.9" y="460" fill="#000" class="taxonLabel">Lingula</text><text x="315.1" y="475" fill="#fc8d59" class="flag">[0]</text><text x="337.1" y="475" fill="#000" class="taxonLabel">Novocrania</text><text x="219.7" y="580" fill="grey" class="flag">[?]</text><text x="241.7" y="580" fill="#999" class="taxonLabel">Micrina</text><text x="195.8" y="595" fill="grey" class="flag">[?]</text><text x="217.8" y="595" fill="#999" class="taxonLabel">Paterimitra</text><text x="124.2" y="670" fill="grey" class="flag">[?]</text><text x="146.2" y="670" fill="#999" class="taxonLabel">Eccentrotheca</text><text x="100.4" y="685" fill="grey" class="flag">[?]</text><text x="122.4" y="685" fill="#999" class="taxonLabel">Cotyledion tylodes</text><text x="124.2" y="415" fill="#fc8d59" class="flag">[0]</text><text x="146.2" y="415" fill="#000" class="taxonLabel">Phoronis</text><text x="124.2" y="430" fill="grey" class="flag">[?]</text><text x="146.2" y="430" fill="#999" class="taxonLabel">Namacalathus</text><text x="243.5" y="325" fill="#fc8d59" class="flag">[0]</text><text x="265.5" y="325" fill="#000" class="taxonLabel">Serpula</text><text x="243.5" y="340" fill="#91bfdb" class="flag">[1]</text><text x="265.5" y="340" fill="#000" class="taxonLabel">Capitella</text><text x="219.7" y="355" fill="grey" class="flag">[?]</text><text x="241.7" y="355" fill="#999" class="taxonLabel">Canadia spinosa</text><text x="195.8" y="370" fill="#fc8d59" class="flag">[0]</text><text x="217.8" y="370" fill="#000" class="taxonLabel">Sipunculus</text><text x="434.3" y="160" fill="#91bfdb" class="flag">[1]</text><text x="456.3" y="160" fill="#000" class="taxonLabel">Tonicella</text><text x="434.3" y="175" fill="#fc8d59" class="flag">[0]</text><text x="456.3" y="175" fill="#000" class="taxonLabel">Mopalia</text><text x="410.5" y="190" fill="grey" class="flag">[?]</text><text x="432.5" y="190" fill="#999" class="taxonLabel">Polysacos vickersianum</text><text x="386.6" y="205" fill="#fc8d59" class="flag">[0]</text><text x="408.6" y="205" fill="#000" class="taxonLabel">Leptochiton</text><text x="362.8" y="220" fill="grey" class="flag">[?]</text><text x="384.8" y="220" fill="#999" class="taxonLabel">Glaphurochiton carbonarius</text><text x="338.9" y="235" fill="grey" class="flag">[?]</text><text x="360.9" y="235" fill="#999" class="taxonLabel">Calvapilosa kroegeri</text><text x="386.6" y="115" fill="grey" class="flag">[?]</text><text x="408.6" y="115" fill="#999" class="taxonLabel">Wiwaxia corrugata</text><text x="386.6" y="130" fill="grey" class="flag">[?]</text><text x="408.6" y="130" fill="#999" class="taxonLabel">Odontogriphus omalus</text><text x="434.3" y="70" fill="#fc8d59" class="flag">[0]</text><text x="456.3" y="70" fill="#000" class="taxonLabel">Neopilina</text><text x="434.3" y="85" fill="grey" class="flag">[?]</text><text x="456.3" y="85" fill="#999" class="taxonLabel">Conocardium elongatum</text><text x="482" y="10" fill="grey" class="flag">[?]</text><text x="504" y="10" fill="#999" class="taxonLabel">Pojetaia runnegari</text><text x="482" y="25" fill="#91bfdb" class="flag">[1]</text><text x="504" y="25" fill="#000" class="taxonLabel">Mytilus</text><text x="458.2" y="40" fill="#91bfdb" class="flag">[1]</text><text x="480.2" y="40" fill="#000" class="taxonLabel">Dentalium</text><text x="434.3" y="55" fill="#91bfdb" class="flag">[1]</text><text x="456.3" y="55" fill="#000" class="taxonLabel">Haliotis</text><text x="386.6" y="100" fill="grey" class="flag">[?]</text><text x="408.6" y="100" fill="#999" class="taxonLabel">Pelagiella</text><text x="338.9" y="145" fill="grey" class="flag">[?]</text><text x="360.9" y="145" fill="#999" class="taxonLabel">Siphogonuchites multa</text><text x="291.2" y="250" fill="grey" class="flag">[?]</text><text x="313.2" y="250" fill="#999" class="taxonLabel">Acaenoplax hayae</text><text x="267.4" y="265" fill="grey" class="flag">[?]</text><text x="289.4" y="265" fill="#999" class="taxonLabel">Phthipodochiton thraivensis</text><text x="243.5" y="280" fill="grey" class="flag">[?]</text><text x="265.5" y="280" fill="#999" class="taxonLabel">Kulindroplax perissokomos</text><text x="219.7" y="295" fill="#91bfdb" class="flag">[1]</text><text x="241.7" y="295" fill="#000" class="taxonLabel">Chaetoderma</text><text x="195.8" y="310" fill="#91bfdb" class="flag">[1]</text><text x="217.8" y="310" fill="#000" class="taxonLabel">Wirenia</text><text x="148.1" y="385" fill="#91bfdb" class="flag">[1]</text><text x="170.1" y="385" fill="#000" class="taxonLabel">Loxosomella</text><text x="124.2" y="400" fill="#91bfdb" class="flag">[1]</text><text x="146.2" y="400" fill="#000" class="taxonLabel">Flustra</text><text x="52.7" y="700" fill="grey" class="flag">[?]</text><text x="74.7" y="700" fill="#999" class="taxonLabel">Dailyatia</text><text x="28.9" y="715" fill="grey" class="flag">[?]</text><text x="50.9" y="715" fill="#999" class="taxonLabel">Yilingia spiciformis</text><path d="M5,662.7V613.4H28.9M28.9,613.4V529.8H52.7M52.7,529.8V397H76.6M410.5,74.5V67H434.3M410.5,164.5V172H434.3M362.8,188.9V202H386.6M219.7,329.5V322H243.5M172,353.9V367H195.8M76.6,397V419.5H100.4M100.4,419.5V412H124.2M100.4,419.5V427H124.2M52.7,529.8V662.5H76.6M76.6,662.5V643H100.4M100.4,643V618.9H124.2M124.2,618.9V593.3H148.1M148.1,593.3V572.2H172M172,572.2V552.4H195.8M195.8,552.4V527.8H219.7M219.7,527.8V501.1H243.5M243.5,501.1V477.6H267.4M267.4,477.6V460.8H291.2M291.2,460.8V449.5H315.1M315.1,449.5V442H338.9M315.1,449.5V457H338.9M291.2,460.8V472H315.1M267.4,477.6V494.5H291.2M291.2,494.5V487H315.1M291.2,494.5V502H315.1M243.5,501.1V524.5H267.4M267.4,524.5V517H291.2M267.4,524.5V532H291.2M219.7,527.8V554.5H243.5M243.5,554.5V547H267.4M243.5,554.5V562H267.4M195.8,552.4V577H219.7M172,572.2V592H195.8M148.1,593.3V614.5H172M172,614.5V607H195.8M172,614.5V622H195.8M124.2,618.9V644.5H148.1M148.1,644.5V637H172M148.1,644.5V652H172M100.4,643V667H124.2M76.6,662.5V682H100.4M28.9,613.4V697H52.7M5,662.7V712H28.9" stroke="#fc8d59"></path><path d="M76.6,397V374.5H100.4M100.4,374.5V352.1H124.2M124.2,352.1V322.2H148.1M148.1,322.2V290.5H172M172,290.5V274H195.8M195.8,274V256H219.7M386.6,56.7V38.9H410.5M410.5,38.9V25.8H434.3M434.3,25.8V14.5H458.2M458.2,14.5V7H482M458.2,14.5V22H482M434.3,25.8V37H458.2M410.5,38.9V52H434.3M410.5,164.5V157H434.3M195.8,274V292H219.7M172,290.5V307H195.8M148.1,322.2V353.9H172M219.7,329.5V337H243.5M124.2,352.1V382H148.1M100.4,374.5V397H124.2" stroke="#91bfdb"></path><path d="M219.7,256V234.9H243.5M243.5,234.9V207.9H267.4M267.4,207.9V168.8H291.2M291.2,168.8V120.1H315.1M315.1,120.1V98.2H338.9M338.9,98.2V76.8H362.8M362.8,76.8V56.7H386.6M386.6,56.7V74.5H410.5M410.5,74.5V82H434.3M362.8,76.8V97H386.6M338.9,98.2V119.5H362.8M362.8,119.5V112H386.6M362.8,119.5V127H386.6M315.1,120.1V142H338.9M291.2,168.8V217.5H315.1M315.1,217.5V202.9H338.9M338.9,202.9V188.9H362.8M362.8,188.9V175.8H386.6M386.6,175.8V164.5H410.5M386.6,175.8V187H410.5M338.9,202.9V217H362.8M315.1,217.5V232H338.9M267.4,207.9V247H291.2M243.5,234.9V262H267.4M219.7,256V277H243.5M172,353.9V340.8H195.8M195.8,340.8V329.5H219.7M195.8,340.8V352H219.7" stroke="darkgrey"></path><text x="30.9" y="616.4" class="node" fill="#E38FA0">0.23</text><text x="54.7" y="532.8" class="node" fill="#E38FA0">0.23</text><text x="78.6" y="400" class="node" fill="#E38FA0">0.23</text><text x="102.4" y="377.5" class="node" fill="#E38FA0">0.23</text><text x="126.2" y="355.1" class="node" fill="#E38FA0">0.23</text><text x="150.1" y="325.2" class="node" fill="#4A6FE3">1</text><text x="174" y="293.5" class="node" fill="#E38FA0">0.23</text><text x="197.8" y="277" class="node" fill="#E38FA0">0.23</text><text x="221.7" y="259" class="node" fill="#E38FA0">0.23</text><text x="245.5" y="237.9" class="node" fill="#E38FA0">0.23</text><text x="269.4" y="210.9" class="node" fill="#E18297">0.19</text><text x="293.2" y="171.8" class="node" fill="#D85778">0.06</text><text x="317.1" y="123.1" class="node" fill="#4A6FE3">1</text><text x="340.9" y="101.2" class="node" fill="#4A6FE3">1</text><text x="364.8" y="79.8" class="node" fill="#7388E1">0.89</text><text x="388.6" y="59.7" class="node" fill="#4A6FE3">1</text><text x="412.5" y="41.9" class="node" fill="#4A6FE3">1</text><text x="436.3" y="28.8" class="node" fill="#4A6FE3">1</text><text x="460.2" y="17.5" class="node" fill="#4A6FE3">1</text><text x="412.5" y="77.5" class="node" fill="#4A6FE3">1</text><text x="364.8" y="122.5" class="node" fill="#4A6FE3">1</text><text x="317.1" y="220.5" class="node" fill="#4A6FE3">1</text><text x="340.9" y="205.9" class="node" fill="#4A6FE3">1</text><text x="364.8" y="191.9" class="node" fill="#4A6FE3">1</text><text x="388.6" y="178.8" class="node" fill="#4A6FE3">1</text><text x="412.5" y="167.5" class="node" fill="#4A6FE3">1</text><text x="174" y="356.9" class="node" fill="#4A6FE3">1</text><text x="197.8" y="343.8" class="node" fill="#4A6FE3">1</text><text x="221.7" y="332.5" class="node" fill="#E5CDD1">0.43</text><text x="102.4" y="422.5" class="node" fill="#E07C92">0.17</text><text x="78.6" y="665.5" class="node" fill="#E18297">0.19</text><text x="102.4" y="646" class="node" fill="#E38FA0">0.23</text><text x="126.2" y="621.9" class="node" fill="#E38FA0">0.23</text><text x="150.1" y="596.3" class="node" fill="#4A6FE3">1</text><text x="174" y="575.2" class="node" fill="#4A6FE3">1</text><text x="197.8" y="555.4" class="node" fill="#4A6FE3">1</text><text x="221.7" y="530.8" class="node" fill="#4A6FE3">1</text><text x="245.5" y="504.1" class="node" fill="#4A6FE3">1</text><text x="269.4" y="480.6" class="node" fill="#4A6FE3">1</text><text x="293.2" y="463.8" class="node" fill="#4A6FE3">1</text><text x="317.1" y="452.5" class="node" fill="#4A6FE3">1</text><text x="293.2" y="497.5" class="node" fill="#4A6FE3">1</text><text x="269.4" y="527.5" class="node" fill="#4A6FE3">1</text><text x="245.5" y="557.5" class="node" fill="#4A6FE3">1</text><text x="174" y="617.5" class="node" fill="#E38FA0">0.23</text><text x="150.1" y="647.5" class="node" fill="#E38FA0">0.23</text></svg>
