<svg xmlns="http://www.w3.org/2000/svg" version="1.1" viewBox="0 0 682 720" preserveAspectRatio="xMidYMid meet" class="tree" data-char="245"><text x="678" y="12.7" text-anchor="end" class="stepsLabel">Character adds <tspan class="score">1</tspan> to tree score</text><text x="678" y="22.4" text-anchor="end" class="stepsLabel"><tspan class="score">0</tspan> additional regions</text><text x="678" y="32.1" text-anchor="end" class="stepsLabel"></text><text x="678" y="51.5" text-anchor="end" class="stepsLabel"><tspan dy="16" fill="#34caaf">An optimal tree under:</tspan><tspan x="680" style="font-style:italic" class="thisAn" dy="1.2em">Implied weights, k = 4.5</tspan><tspan x="680" style="font-style:italic" class="notThisAn" dy="1.2em">IW, k = 10.5</tspan><tspan x="680" style="font-style:italic" class="notThisAn" dy="1.2em">IW, k = 24</tspan><tspan x="680" style="font-style:italic" class="notThisAn" dy="1.2em">Equal weights</tspan></text><text x="118.6" y="675.8" fill="#91bfdb" class="flag">[2]</text><text x="140.6" y="675.8" fill="#000" class="taxonLabel">Serpula</text><text x="118.6" y="685.6" fill="grey" class="flag">[?]</text><text x="140.6" y="685.6" fill="#999" class="taxonLabel">Capitella</text><text x="95.9" y="695.4" fill="grey" class="flag">[?]</text><text x="117.9" y="695.4" fill="#999" class="taxonLabel">Canadia spinosa</text><text x="73.1" y="705.2" fill="#91bfdb" class="flag">[2]</text><text x="95.1" y="705.2" fill="#000" class="taxonLabel">Sipunculus</text><text x="118.6" y="656.2" fill="grey" class="flag">[?]</text><text x="140.6" y="656.2" fill="#999" class="taxonLabel">Orthrozanclus</text><text x="118.6" y="666" fill="grey" class="flag">[?]</text><text x="140.6" y="666" fill="#999" class="taxonLabel">Halkieria evangelista</text><text x="186.7" y="617.1" fill="grey" class="flag">[?]</text><text x="208.7" y="617.1" fill="#999" class="taxonLabel">Wirenia</text><text x="186.7" y="626.9" fill="grey" class="flag">[?]</text><text x="208.7" y="626.9" fill="#999" class="taxonLabel">Phthipodochiton thraivensis</text><text x="300.3" y="558.3" fill="#91bfdb" class="flag">[2]</text><text x="322.3" y="558.3" fill="#000" class="taxonLabel">Tonicella</text><text x="300.3" y="568.1" fill="grey" class="flag">[?]</text><text x="322.3" y="568.1" fill="#999" class="taxonLabel">Mopalia</text><text x="277.6" y="577.9" fill="grey" class="flag">[?]</text><text x="299.6" y="577.9" fill="#999" class="taxonLabel">Polysacos vickersianum</text><text x="254.9" y="587.7" fill="grey" class="flag">[?]</text><text x="276.9" y="587.7" fill="#999" class="taxonLabel">Leptochiton</text><text x="232.1" y="597.5" fill="grey" class="flag">[?]</text><text x="254.1" y="597.5" fill="#999" class="taxonLabel">Glaphurochiton carbonarius</text><text x="300.3" y="519.2" fill="grey" class="flag">[?]</text><text x="322.3" y="519.2" fill="#999" class="taxonLabel">Wiwaxia corrugata</text><text x="300.3" y="529" fill="grey" class="flag">[?]</text><text x="322.3" y="529" fill="#999" class="taxonLabel">Odontogriphus omalus</text><text x="345.7" y="489.8" fill="grey" class="flag">[?]</text><text x="367.7" y="489.8" fill="#999" class="taxonLabel">Neopilina</text><text x="345.7" y="499.6" fill="grey" class="flag">[?]</text><text x="367.7" y="499.6" fill="#999" class="taxonLabel">Haliotis</text><text x="391.1" y="450.6" fill="grey" class="flag">[?]</text><text x="413.1" y="450.6" fill="#999" class="taxonLabel">Pojetaia runnegari</text><text x="391.1" y="460.4" fill="grey" class="flag">[?]</text><text x="413.1" y="460.4" fill="#999" class="taxonLabel">Conocardium elongatum</text><text x="368.4" y="470.2" fill="grey" class="flag">[?]</text><text x="390.4" y="470.2" fill="#999" class="taxonLabel">Mytilus</text><text x="345.7" y="480" fill="#91bfdb" class="flag">[2]</text><text x="367.7" y="480" fill="#000" class="taxonLabel">Dentalium</text><text x="300.3" y="509.4" fill="grey" class="flag">[?]</text><text x="322.3" y="509.4" fill="#999" class="taxonLabel">Pelagiella</text><text x="254.9" y="538.8" fill="grey" class="flag">[?]</text><text x="276.9" y="538.8" fill="#999" class="taxonLabel">Siphogonuchites multa</text><text x="232.1" y="548.5" fill="grey" class="flag">[?]</text><text x="254.1" y="548.5" fill="#999" class="taxonLabel">Calvapilosa kroegeri</text><text x="186.7" y="607.3" fill="grey" class="flag">[?]</text><text x="208.7" y="607.3" fill="#999" class="taxonLabel">Chaetoderma</text><text x="141.3" y="636.7" fill="grey" class="flag">[?]</text><text x="163.3" y="636.7" fill="#999" class="taxonLabel">Acaenoplax hayae</text><text x="118.6" y="646.5" fill="grey" class="flag">[?]</text><text x="140.6" y="646.5" fill="#999" class="taxonLabel">Kulindroplax perissokomos</text><text x="141.3" y="421.2" fill="grey" class="flag">[?]</text><text x="163.3" y="421.2" fill="#999" class="taxonLabel">Namacalathus</text><text x="141.3" y="431" fill="#e2e2a2" class="flag">[1]</text><text x="163.3" y="431" fill="#000" class="taxonLabel">Loxosomella</text><text x="118.6" y="440.8" fill="grey" class="flag">[?]</text><text x="140.6" y="440.8" fill="#999" class="taxonLabel">Cotyledion tylodes</text><text x="164" y="391.9" fill="#e2e2a2" class="flag">[1]</text><text x="186" y="391.9" fill="#000" class="taxonLabel">Flustra</text><text x="164" y="401.7" fill="#e2e2a2" class="flag">[1]</text><text x="186" y="401.7" fill="#000" class="taxonLabel">Amathia</text><text x="323" y="313.5" fill="grey" class="flag">[?]</text><text x="345" y="313.5" fill="#999" class="taxonLabel">Paramicrocornus</text><text x="323" y="323.3" fill="grey" class="flag">[?]</text><text x="345" y="323.3" fill="#999" class="taxonLabel">Haplophrentis carinatus</text><text x="300.3" y="333.1" fill="grey" class="flag">[?]</text><text x="322.3" y="333.1" fill="#999" class="taxonLabel">Bactrotheca</text><text x="277.6" y="342.9" fill="grey" class="flag">[?]</text><text x="299.6" y="342.9" fill="#999" class="taxonLabel">Cupitheca holocyclata</text><text x="254.9" y="352.7" fill="grey" class="flag">[?]</text><text x="276.9" y="352.7" fill="#999" class="taxonLabel">Pedunculotheca diania</text><text x="323" y="284.2" fill="grey" class="flag">[?]</text><text x="345" y="284.2" fill="#999" class="taxonLabel">Coolinia pecten</text><text x="323" y="294" fill="grey" class="flag">[?]</text><text x="345" y="294" fill="#999" class="taxonLabel">Antigonambonites planus</text><text x="345.7" y="254.8" fill="grey" class="flag">[?]</text><text x="367.7" y="254.8" fill="#999" class="taxonLabel">Yuganotheca elegans</text><text x="345.7" y="264.6" fill="grey" class="flag">[?]</text><text x="367.7" y="264.6" fill="#999" class="taxonLabel">Tomteluva perturbata</text><text x="323" y="274.4" fill="grey" class="flag">[?]</text><text x="345" y="274.4" fill="#999" class="taxonLabel">Salanygolina</text><text x="345.7" y="235.2" fill="grey" class="flag">[?]</text><text x="367.7" y="235.2" fill="#999" class="taxonLabel">Nisusia sulcata</text><text x="345.7" y="245" fill="grey" class="flag">[?]</text><text x="367.7" y="245" fill="#999" class="taxonLabel">Kutorgina chengjiangensis</text><text x="413.9" y="186.2" fill="#e2e2a2" class="flag">[1]</text><text x="435.9" y="186.2" fill="#000" class="taxonLabel">Terebratulina</text><text x="413.9" y="196" fill="grey" class="flag">[?]</text><text x="435.9" y="196" fill="#999" class="taxonLabel">Orthis</text><text x="391.1" y="205.8" fill="grey" class="flag">[?]</text><text x="413.1" y="205.8" fill="#999" class="taxonLabel">Alisina</text><text x="368.4" y="215.6" fill="grey" class="flag">[?]</text><text x="390.4" y="215.6" fill="#999" class="taxonLabel">Longtancunella chengjiangensis</text><text x="345.7" y="225.4" fill="grey" class="flag">[?]</text><text x="367.7" y="225.4" fill="#999" class="taxonLabel">Glyptoria</text><text x="459.3" y="117.7" fill="#e2e2a2" class="flag">[1]</text><text x="481.3" y="117.7" fill="#000" class="taxonLabel">Novocrania</text><text x="459.3" y="127.5" fill="grey" class="flag">[?]</text><text x="481.3" y="127.5" fill="#999" class="taxonLabel">Craniops</text><text x="436.6" y="137.3" fill="grey" class="flag">[?]</text><text x="458.6" y="137.3" fill="#999" class="taxonLabel">Ussunia</text><text x="413.9" y="147.1" fill="grey" class="flag">[?]</text><text x="435.9" y="147.1" fill="#999" class="taxonLabel">Heliomedusa orienta</text><text x="391.1" y="156.9" fill="grey" class="flag">[?]</text><text x="413.1" y="156.9" fill="#999" class="taxonLabel">Gasconsia</text><text x="368.4" y="166.7" fill="grey" class="flag">[?]</text><text x="390.4" y="166.7" fill="#999" class="taxonLabel">Micromitra</text><text x="391.1" y="98.1" fill="grey" class="flag">[?]</text><text x="413.1" y="98.1" fill="#999" class="taxonLabel">Pelagodiscus atlanticus</text><text x="391.1" y="107.9" fill="grey" class="flag">[?]</text><text x="413.1" y="107.9" fill="#999" class="taxonLabel">Mickwitzia muralensis</text><text x="436.6" y="68.8" fill="grey" class="flag">[?]</text><text x="458.6" y="68.8" fill="#999" class="taxonLabel">Mummpikia nuda</text><text x="436.6" y="78.5" fill="grey" class="flag">[?]</text><text x="458.6" y="78.5" fill="#999" class="taxonLabel">Botsfordia</text><text x="413.9" y="88.3" fill="grey" class="flag">[?]</text><text x="435.9" y="88.3" fill="#999" class="taxonLabel">Eoobolus</text><text x="436.6" y="49.2" fill="grey" class="flag">[?]</text><text x="458.6" y="49.2" fill="#999" class="taxonLabel">Lingulellotreta malongensis</text><text x="436.6" y="59" fill="#e2e2a2" class="flag">[1]</text><text x="458.6" y="59" fill="#000" class="taxonLabel">Lingula</text><text x="482" y="10" fill="grey" class="flag">[?]</text><text x="504" y="10" fill="#999" class="taxonLabel">Siphonobolus priscus</text><text x="482" y="19.8" fill="grey" class="flag">[?]</text><text x="504" y="19.8" fill="#999" class="taxonLabel">Acanthotretella spinosa</text><text x="459.3" y="29.6" fill="grey" class="flag">[?]</text><text x="481.3" y="29.6" fill="#999" class="taxonLabel">Clupeafumosus socialis</text><text x="436.6" y="39.4" fill="grey" class="flag">[?]</text><text x="458.6" y="39.4" fill="#999" class="taxonLabel">Lingulosacculus</text><text x="323" y="176.5" fill="grey" class="flag">[?]</text><text x="345" y="176.5" fill="#999" class="taxonLabel">Askepasma toddense</text><text x="254.9" y="303.8" fill="grey" class="flag">[?]</text><text x="276.9" y="303.8" fill="#999" class="taxonLabel">Micrina</text><text x="209.4" y="362.5" fill="grey" class="flag">[?]</text><text x="231.4" y="362.5" fill="#999" class="taxonLabel">Paterimitra</text><text x="186.7" y="372.3" fill="#e2e2a2" class="flag">[1]</text><text x="208.7" y="372.3" fill="#000" class="taxonLabel">Phoronis</text><text x="164" y="382.1" fill="grey" class="flag">[?]</text><text x="186" y="382.1" fill="#999" class="taxonLabel">Eccentrotheca</text><text x="118.6" y="411.5" fill="grey" class="flag">[?]</text><text x="140.6" y="411.5" fill="#999" class="taxonLabel">Dailyatia</text><text x="27.7" y="715" fill="grey" class="flag">[?]</text><text x="49.7" y="715" fill="#999" class="taxonLabel">Yilingia spiciformis</text><path d="M5,661.5V610.9H27.7M27.7,610.9V528.2H50.4M50.4,528.2V644.2H73.1M73.1,644.2V630.2H95.9M95.9,630.2V617H118.6M118.6,617V600.4H141.3M141.3,600.4V581.8H164M164,581.8V559.4H186.7M186.7,559.4V533.5H209.4M209.4,533.5V521.4H232.1M232.1,521.4V507.1H254.9M254.9,507.1V493.2H277.6M277.6,493.2V480.1H300.3M300.3,480.1V468.4H323M323,468.4V459.9H345.7M345.7,459.9V452.5H368.4M368.4,452.5V447.6H391.1M368.4,452.5V457.4H391.1M345.7,459.9V467.2H368.4M323,468.4V477H345.7M300.3,480.1V491.7H323M323,491.7V486.8H345.7M323,491.7V496.6H345.7M277.6,493.2V506.4H300.3M254.9,507.1V521.1H277.6M277.6,521.1V516.2H300.3M277.6,521.1V526H300.3M232.1,521.4V535.8H254.9M209.4,533.5V545.5H232.1M186.7,559.4V585.3H209.4M209.4,585.3V576.1H232.1M232.1,576.1V567.6H254.9M254.9,567.6V560.2H277.6M277.6,560.2V555.3H300.3M277.6,560.2V565.1H300.3M254.9,567.6V574.9H277.6M232.1,576.1V584.7H254.9M209.4,585.3V594.5H232.1M164,581.8V604.3H186.7M141.3,600.4V619H164M164,619V614.1H186.7M164,619V623.9H186.7M118.6,617V633.7H141.3M95.9,630.2V643.5H118.6M73.1,644.2V658.1H95.9M95.9,658.1V653.2H118.6M95.9,658.1V663H118.6M27.7,610.9V693.6H50.4M50.4,693.6V685.1H73.1M73.1,685.1V677.7H95.9M95.9,677.7V672.8H118.6M95.9,677.7V682.6H118.6M73.1,685.1V692.4H95.9M50.4,693.6V702.2H73.1M5,661.5V712H27.7" stroke="#91bfdb"></path><path d="M50.4,528.2V412.2H73.1M73.1,412.2V393.8H95.9M95.9,393.8V379.2H118.6M118.6,379.2V364.7H141.3M141.3,364.7V350.3H164M164,350.3V331.2H186.7M186.7,331.2V303H209.4M209.4,303V265.4H232.1M232.1,265.4V230.1H254.9M254.9,230.1V185.1H277.6M277.6,185.1V145.1H300.3M300.3,145.1V116.8H323M323,116.8V79.4H345.7M345.7,79.4V58.7H368.4M368.4,58.7V39.4H391.1M391.1,39.4V27.8H413.9M413.9,27.8V19.2H436.6M436.6,19.2V11.9H459.3M459.3,11.9V7H482M459.3,11.9V16.8H482M436.6,19.2V26.6H459.3M413.9,27.8V36.4H436.6M391.1,39.4V51.1H413.9M413.9,51.1V46.2H436.6M413.9,51.1V56H436.6M368.4,58.7V78H391.1M391.1,78V70.6H413.9M413.9,70.6V65.8H436.6M413.9,70.6V75.5H436.6M391.1,78V85.3H413.9M345.7,79.4V100H368.4M368.4,100V95.1H391.1M368.4,100V104.9H391.1M323,116.8V154.2H345.7M345.7,154.2V144.7H368.4M368.4,144.7V135.5H391.1M391.1,135.5V126.9H413.9M413.9,126.9V119.6H436.6M436.6,119.6V114.7H459.3M436.6,119.6V124.5H459.3M413.9,126.9V134.3H436.6M391.1,135.5V144.1H413.9M368.4,144.7V153.9H391.1M345.7,154.2V163.7H368.4M300.3,145.1V173.5H323M277.6,185.1V225.2H300.3M300.3,225.2V213.2H323M323,213.2V204.1H345.7M345.7,204.1V195.5H368.4M368.4,195.5V188.1H391.1M391.1,188.1V183.2H413.9M391.1,188.1V193H413.9M368.4,195.5V202.8H391.1M345.7,204.1V212.6H368.4M323,213.2V222.4H345.7M300.3,225.2V237.1H323M323,237.1V232.2H345.7M323,237.1V242H345.7M254.9,230.1V275H277.6M277.6,275V264H300.3M300.3,264V256.7H323M323,256.7V251.8H345.7M323,256.7V261.6H345.7M300.3,264V271.4H323M277.6,275V286.1H300.3M300.3,286.1V281.2H323M300.3,286.1V291H323M232.1,265.4V300.8H254.9M209.4,303V340.5H232.1M232.1,340.5V331.3H254.9M254.9,331.3V322.8H277.6M277.6,322.8V315.4H300.3M300.3,315.4V310.5H323M300.3,315.4V320.3H323M277.6,322.8V330.1H300.3M254.9,331.3V339.9H277.6M232.1,340.5V349.7H254.9M186.7,331.2V359.5H209.4M164,350.3V369.3H186.7M141.3,364.7V379.1H164M118.6,379.2V393.8H141.3M141.3,393.8V388.9H164M141.3,393.8V398.7H164M95.9,393.8V408.5H118.6M73.1,412.2V430.5H95.9M95.9,430.5V423.1H118.6M118.6,423.1V418.2H141.3M118.6,423.1V428H141.3M95.9,430.5V437.8H118.6" stroke="#e2e2a2"></path><text x="29.7" y="613.9" class="node" fill="#E5CDD1">0.43</text><text x="52.4" y="531.2" class="node" fill="#E392A2">0.24</text><text x="75.1" y="415.2" class="node" fill="#DD6C86">0.12</text><text x="97.9" y="396.8" class="node" fill="#DF798F">0.16</text><text x="120.6" y="382.2" class="node" fill="#DB617F">0.09</text><text x="143.3" y="367.7" class="node" fill="#E17F94">0.18</text><text x="166" y="353.3" class="node" fill="#8F9DE1">0.8</text><text x="188.7" y="334.2" class="node" fill="#8F9DE1">0.8</text><text x="211.4" y="306" class="node" fill="#4A6FE3">1</text><text x="234.1" y="268.4" class="node" fill="#A8B1E2">0.71</text><text x="256.9" y="233.1" class="node" fill="#E392A2">0.24</text><text x="279.6" y="188.1" class="node" fill="#E392A2">0.24</text><text x="302.3" y="148.1" class="node" fill="#E392A2">0.24</text><text x="325" y="119.8" class="node" fill="#E392A2">0.24</text><text x="347.7" y="82.4" class="node" fill="#E392A2">0.24</text><text x="370.4" y="61.7" class="node" fill="#E392A2">0.24</text><text x="393.1" y="42.4" class="node" fill="#4A6FE3">1</text><text x="415.9" y="30.8" class="node" fill="#E6BAC2">0.37</text><text x="438.6" y="22.2" class="node" fill="#4A6FE3">1</text><text x="461.3" y="14.9" class="node" fill="#E392A2">0.24</text><text x="415.9" y="54.1" class="node" fill="#E392A2">0.24</text><text x="393.1" y="81" class="node" fill="#E392A2">0.24</text><text x="415.9" y="73.6" class="node" fill="#E392A2">0.24</text><text x="370.4" y="103" class="node" fill="#E392A2">0.24</text><text x="347.7" y="157.2" class="node" fill="#E392A2">0.24</text><text x="370.4" y="147.7" class="node" fill="#E392A2">0.24</text><text x="393.1" y="138.5" class="node" fill="#4A6FE3">1</text><text x="415.9" y="129.9" class="node" fill="#4A6FE3">1</text><text x="438.6" y="122.6" class="node" fill="#ABB4E2">0.7</text><text x="302.3" y="228.2" class="node" fill="#4F72E2">0.99</text><text x="325" y="216.2" class="node" fill="#4F72E2">0.99</text><text x="347.7" y="207.1" class="node" fill="#4A6FE3">1</text><text x="370.4" y="198.5" class="node" fill="#4A6FE3">1</text><text x="393.1" y="191.1" class="node" fill="#BCC2E3">0.64</text><text x="325" y="240.1" class="node" fill="#C4C9E3">0.61</text><text x="279.6" y="278" class="node" fill="#ABB4E2">0.7</text><text x="302.3" y="267" class="node" fill="#A8B1E2">0.71</text><text x="325" y="259.7" class="node" fill="#4A6FE3">1</text><text x="302.3" y="289.1" class="node" fill="#4A6FE3">1</text><text x="234.1" y="343.5" class="node" fill="#DADBE3">0.53</text><text x="256.9" y="334.3" class="node" fill="#E392A2">0.24</text><text x="279.6" y="325.8" class="node" fill="#4A6FE3">1</text><text x="302.3" y="318.4" class="node" fill="#4A6FE3">1</text><text x="143.3" y="396.8" class="node" fill="#DD6C86">0.12</text><text x="97.9" y="433.5" class="node" fill="#E392A2">0.24</text><text x="120.6" y="426.1" class="node" fill="#E392A2">0.24</text><text x="75.1" y="647.2" class="node" fill="#4A6FE3">1</text><text x="97.9" y="633.2" class="node" fill="#E392A2">0.24</text><text x="120.6" y="620" class="node" fill="#E392A2">0.24</text><text x="143.3" y="603.4" class="node" fill="#E392A2">0.24</text><text x="166" y="584.8" class="node" fill="#E392A2">0.24</text><text x="188.7" y="562.4" class="node" fill="#E392A2">0.24</text><text x="211.4" y="536.5" class="node" fill="#E392A2">0.24</text><text x="234.1" y="524.4" class="node" fill="#E59FAC">0.28</text><text x="256.9" y="510.1" class="node" fill="#6D84E1">0.91</text><text x="279.6" y="496.2" class="node" fill="#4A6FE3">1</text><text x="302.3" y="483.1" class="node" fill="#E392A2">0.24</text><text x="325" y="471.4" class="node" fill="#E0E0E2">0.51</text><text x="347.7" y="462.9" class="node" fill="#DD6F88">0.13</text><text x="370.4" y="455.5" class="node" fill="#E392A2">0.24</text><text x="325" y="494.7" class="node" fill="#4A6FE3">1</text><text x="279.6" y="524.1" class="node" fill="#8F9DE1">0.8</text><text x="211.4" y="588.3" class="node" fill="#8F9DE1">0.8</text><text x="234.1" y="579.1" class="node" fill="#8F9DE1">0.8</text><text x="256.9" y="570.6" class="node" fill="#4A6FE3">1</text><text x="279.6" y="563.2" class="node" fill="#E0E0E2">0.51</text><text x="166" y="622" class="node" fill="#E392A2">0.24</text><text x="97.9" y="661.1" class="node" fill="#4A6FE3">1</text><text x="52.4" y="696.6" class="node" fill="#A8B1E2">0.71</text><text x="75.1" y="688.1" class="node" fill="#CACDE3">0.59</text><text x="97.9" y="680.7" class="node" fill="#E5CDD1">0.43</text></svg>
