<svg xmlns="http://www.w3.org/2000/svg" version="1.1" viewBox="0 0 682 720" preserveAspectRatio="xMidYMid meet" class="tree" data-char="205"><text x="678" y="16.8" text-anchor="end" class="stepsLabel">Character adds <tspan class="score">8</tspan> to tree score</text><text x="678" y="30.6" text-anchor="end" class="stepsLabel"><tspan class="score">0</tspan> additional regions</text><text x="678" y="44.4" text-anchor="end" class="stepsLabel"></text><text x="678" y="72" text-anchor="end" class="stepsLabel"><tspan dy="16" fill="#34caaf">An optimal tree under:</tspan><tspan x="680" style="font-style:italic" class="notThisAn" dy="1.2em">Implied weights, k = 3</tspan><tspan x="680" style="font-style:italic" class="notThisAn" dy="1.2em">IW, k = 4.5</tspan><tspan x="680" style="font-style:italic" class="notThisAn" dy="1.2em">IW, k = 7</tspan><tspan x="680" style="font-style:italic" class="notThisAn" dy="1.2em">IW, k = 10.5</tspan><tspan x="680" style="font-style:italic" class="notThisAn" dy="1.2em">IW, k = 16</tspan><tspan x="680" style="font-style:italic" class="notThisAn" dy="1.2em">IW, k = 24</tspan><tspan x="680" style="font-style:italic" class="thisAn" dy="1.2em">Equal weights</tspan></text><text x="164" y="630.4" fill="NA" class="flag">[4]</text><text x="186" y="630.4" fill="NA" class="taxonLabel">Flustra</text><text x="164" y="644.5" fill="NA" class="flag">[4]</text><text x="186" y="644.5" fill="NA" class="taxonLabel">Amathia</text><text x="141.3" y="658.6" fill="NA" class="flag">[4]</text><text x="163.3" y="658.6" fill="NA" class="taxonLabel">Loxosomella</text><text x="118.6" y="672.7" fill="NA" class="flag">[2]</text><text x="140.6" y="672.7" fill="NA" class="taxonLabel">Phoronis</text><text x="95.9" y="686.8" fill="NA" class="flag">[?]</text><text x="117.9" y="686.8" fill="NA" class="taxonLabel">Namacalathus</text><text x="186.7" y="559.9" fill="NA" class="flag">[?]</text><text x="208.7" y="559.9" fill="NA" class="taxonLabel">Pedunculotheca diania</text><text x="186.7" y="574" fill="NA" class="flag">[?]</text><text x="208.7" y="574" fill="NA" class="taxonLabel">Haplophrentis carinatus</text><text x="277.6" y="503.5" fill="NA" class="flag">[?]</text><text x="299.6" y="503.5" fill="NA" class="taxonLabel">Mickwitzia muralensis</text><text x="277.6" y="517.6" fill="NA" class="flag">[?]</text><text x="299.6" y="517.6" fill="NA" class="taxonLabel">Heliomedusa orienta</text><text x="300.3" y="475.3" fill="NA" class="flag">[?]</text><text x="322.3" y="475.3" fill="NA" class="taxonLabel">Micromitra</text><text x="300.3" y="489.4" fill="NA" class="flag">[?]</text><text x="322.3" y="489.4" fill="NA" class="taxonLabel">Gasconsia</text><text x="323" y="447.1" fill="NA" class="flag">[3]</text><text x="345" y="447.1" fill="NA" class="taxonLabel">Terebratulina</text><text x="323" y="461.2" fill="NA" class="flag">[?]</text><text x="345" y="461.2" fill="NA" class="taxonLabel">Orthis</text><text x="391.1" y="376.6" fill="NA" class="flag">[?]</text><text x="413.1" y="376.6" fill="NA" class="taxonLabel">Yuganotheca elegans</text><text x="391.1" y="390.7" fill="NA" class="flag">[?]</text><text x="413.1" y="390.7" fill="NA" class="taxonLabel">Lingulellotreta malongensis</text><text x="368.4" y="404.8" fill="NA" class="flag">[1]</text><text x="390.4" y="404.8" fill="NA" class="taxonLabel">Lingula</text><text x="345.7" y="418.9" fill="NA" class="flag">[1]</text><text x="367.7" y="418.9" fill="NA" class="taxonLabel">Pelagodiscus atlanticus</text><text x="323" y="433" fill="NA" class="flag">[2]</text><text x="345" y="433" fill="NA" class="taxonLabel">Novocrania</text><text x="232.1" y="531.7" fill="NA" class="flag">[?]</text><text x="254.1" y="531.7" fill="NA" class="taxonLabel">Micrina</text><text x="209.4" y="545.8" fill="NA" class="flag">[?]</text><text x="231.4" y="545.8" fill="NA" class="taxonLabel">Paterimitra</text><text x="300.3" y="306.1" fill="NA" class="flag">[3]</text><text x="322.3" y="306.1" fill="NA" class="taxonLabel">Serpula</text><text x="300.3" y="320.2" fill="NA" class="flag">[4]</text><text x="322.3" y="320.2" fill="NA" class="taxonLabel">Capitella</text><text x="277.6" y="334.3" fill="NA" class="flag">[?]</text><text x="299.6" y="334.3" fill="NA" class="taxonLabel">Canadia spinosa</text><text x="254.9" y="348.4" fill="NA" class="flag">[3]</text><text x="276.9" y="348.4" fill="NA" class="taxonLabel">Sipunculus</text><text x="345.7" y="249.7" fill="NA" class="flag">[?]</text><text x="367.7" y="249.7" fill="NA" class="taxonLabel">Wiwaxia corrugata</text><text x="345.7" y="263.8" fill="NA" class="flag">[?]</text><text x="367.7" y="263.8" fill="NA" class="taxonLabel">Odontogriphus omalus</text><text x="413.9" y="193.3" fill="NA" class="flag">[4]</text><text x="435.9" y="193.3" fill="NA" class="taxonLabel">Neopilina</text><text x="413.9" y="207.4" fill="NA" class="flag">[?]</text><text x="435.9" y="207.4" fill="NA" class="taxonLabel">Conocardium elongatum</text><text x="391.1" y="221.5" fill="NA" class="flag">[4]</text><text x="413.1" y="221.5" fill="NA" class="taxonLabel">Haliotis</text><text x="413.9" y="151" fill="NA" class="flag">[?]</text><text x="435.9" y="151" fill="NA" class="taxonLabel">Pojetaia runnegari</text><text x="413.9" y="165.1" fill="NA" class="flag">[4]</text><text x="435.9" y="165.1" fill="NA" class="taxonLabel">Mytilus</text><text x="391.1" y="179.2" fill="NA" class="flag">[4]</text><text x="413.1" y="179.2" fill="NA" class="taxonLabel">Dentalium</text><text x="345.7" y="235.6" fill="NA" class="flag">[?]</text><text x="367.7" y="235.6" fill="NA" class="taxonLabel">Pelagiella</text><text x="345.7" y="122.8" fill="NA" class="flag">[4]</text><text x="367.7" y="122.8" fill="NA" class="taxonLabel">Wirenia</text><text x="345.7" y="136.9" fill="NA" class="flag">[5]</text><text x="367.7" y="136.9" fill="NA" class="taxonLabel">Chaetoderma</text><text x="482" y="10" fill="NA" class="flag">[5]</text><text x="504" y="10" fill="NA" class="taxonLabel">Tonicella</text><text x="482" y="24.1" fill="NA" class="flag">[5]</text><text x="504" y="24.1" fill="NA" class="taxonLabel">Mopalia</text><text x="459.3" y="38.2" fill="NA" class="flag">[?]</text><text x="481.3" y="38.2" fill="NA" class="taxonLabel">Polysacos vickersianum</text><text x="436.6" y="52.3" fill="NA" class="flag">[4]</text><text x="458.6" y="52.3" fill="NA" class="taxonLabel">Leptochiton</text><text x="413.9" y="66.4" fill="NA" class="flag">[?]</text><text x="435.9" y="66.4" fill="NA" class="taxonLabel">Glaphurochiton carbonarius</text><text x="391.1" y="80.5" fill="NA" class="flag">[?]</text><text x="413.1" y="80.5" fill="NA" class="taxonLabel">Calvapilosa kroegeri</text><text x="368.4" y="94.6" fill="NA" class="flag">[?]</text><text x="390.4" y="94.6" fill="NA" class="taxonLabel">Phthipodochiton thraivensis</text><text x="345.7" y="108.7" fill="NA" class="flag">[?]</text><text x="367.7" y="108.7" fill="NA" class="taxonLabel">Siphogonuchites multa</text><text x="277.6" y="277.9" fill="NA" class="flag">[?]</text><text x="299.6" y="277.9" fill="NA" class="taxonLabel">Acaenoplax hayae</text><text x="254.9" y="292" fill="NA" class="flag">[?]</text><text x="276.9" y="292" fill="NA" class="taxonLabel">Kulindroplax perissokomos</text><text x="209.4" y="362.5" fill="NA" class="flag">[?]</text><text x="231.4" y="362.5" fill="NA" class="taxonLabel">Halkieria evangelista</text><text x="141.3" y="588.1" fill="NA" class="flag">[?]</text><text x="163.3" y="588.1" fill="NA" class="taxonLabel">Orthrozanclus</text><text x="118.6" y="602.2" fill="NA" class="flag">[?]</text><text x="140.6" y="602.2" fill="NA" class="taxonLabel">Cotyledion tylodes</text><text x="95.9" y="616.3" fill="NA" class="flag">[?]</text><text x="117.9" y="616.3" fill="NA" class="taxonLabel">Eccentrotheca</text><text x="50.4" y="700.9" fill="NA" class="flag">[?]</text><text x="72.4" y="700.9" fill="NA" class="taxonLabel">Dailyatia</text><text x="27.7" y="715" fill="NA" class="flag">[?]</text><text x="49.7" y="715" fill="NA" class="taxonLabel">Yilingia spiciformis</text><path d="MNA,NAVNAHNAMNA,NAVNAHNAMNA,NAVNAHNAMNA,NAVNAHNAMNA,NAVNAHNAMNA,NAVNAHNAMNA,NAVNAHNAMNA,NAVNAHNAMNA,NAVNAHNAMNA,NAVNAHNAMNA,NAVNAHNAMNA,NAVNAHNAMNA,NAVNAHNAMNA,NAVNAHNAMNA,NAVNAHNAMNA,NAVNAHNAMNA,NAVNAHNAMNA,NAVNAHNAMNA,NAVNAHNAMNA,NAVNAHNAMNA,NAVNAHNAMNA,NAVNAHNAMNA,NAVNAHNAMNA,NAVNAHNAMNA,NAVNAHNAMNA,NAVNAHNAMNA,NAVNAHNAMNA,NAVNAHNAMNA,NAVNAHNAMNA,NAVNAHNAMNA,NAVNAHNAMNA,NAVNAHNAMNA,NAVNAHNAMNA,NAVNAHNAMNA,NAVNAHNAMNA,NAVNAHNAMNA,NAVNAHNAMNA,NAVNAHNAMNA,NAVNAHNAMNA,NAVNAHNAMNA,NAVNAHNAMNA,NAVNAHNAMNA,NAVNAHNAMNA,NAVNAHNAMNA,NAVNAHNAMNA,NAVNAHNAMNA,NAVNAHNAMNA,NAVNAHNAMNA,NAVNAHNAMNA,NAVNAHNAMNA,NAVNAHNAMNA,NAVNAHNAMNA,NAVNAHNAMNA,NAVNAHNAMNA,NAVNAHNAMNA,NAVNAHNAMNA,NAVNAHNAMNA,NAVNAHNAMNA,NAVNAHNAMNA,NAVNAHNAMNA,NAVNAHNAMNA,NAVNAHNAMNA,NAVNAHNAMNA,NAVNAHNAMNA,NAVNAHNAMNA,NAVNAHNAMNA,NAVNAHNAMNA,NAVNAHNAMNA,NAVNAHNAMNA,NAVNAHNAMNA,NAVNAHNAMNA,NAVNAHNAMNA,NAVNAHNAMNA,NAVNAHNAMNA,NAVNAHNAMNA,NAVNAHNAMNA,NAVNAHNAMNA,NAVNAHNAMNA,NAVNAHNAMNA,NAVNAHNAMNA,NAVNAHNAMNA,NAVNAHNAMNA,NAVNAHNAMNA,NAVNAHNAMNA,NAVNAHNAMNA,NAVNAHNAMNA,NAVNAHNAMNA,NAVNAHNAMNA,NAVNAHNAMNA,NAVNAHNAMNA,NAVNAHNAMNA,NAVNAHNAMNA,NAVNAHNAMNA,NAVNAHNAMNA,NAVNAHNAMNA,NAVNAHNAMNA,NAVNAHNAMNA,NAVNAHNAMNA,NAVNAHNAMNA,NAVNAHNA" stroke="NANA"></path><text x="29.7" y="667.5" class="node" fill="#8696E1">0.83</text><text x="52.4" y="634" class="node" fill="#DF758D">0.15</text><text x="75.1" y="594.4" class="node" fill="#D64F73">0.04</text><text x="97.9" y="572.6" class="node" fill="#D7D9E3">0.54</text><text x="120.6" y="542.9" class="node" fill="#E6B4BD">0.35</text><text x="143.3" y="497.7" class="node" fill="#DB617F">0.09</text><text x="166" y="428.5" class="node" fill="#DB617F">0.09</text><text x="188.7" y="330" class="node" fill="#5B78E2">0.96</text><text x="211.4" y="297.5" class="node" fill="#4A6FE3">1</text><text x="234.1" y="258.8" class="node" fill="#D2D4E3">0.57</text><text x="256.9" y="225.7" class="node" fill="#D2D4E3">0.57</text><text x="279.6" y="173.5" class="node" fill="#DB617F">0.09</text><text x="302.3" y="112.3" class="node" fill="#D4486F">0.02</text><text x="325" y="94.7" class="node" fill="#D7D9E3">0.54</text><text x="347.7" y="80.7" class="node" fill="#5374E2">0.98</text><text x="370.4" y="66.8" class="node" fill="#5374E2">0.98</text><text x="393.1" y="53.2" class="node" fill="#4A6FE3">1</text><text x="415.9" y="40" class="node" fill="#4A6FE3">1</text><text x="438.6" y="27.6" class="node" fill="#4A6FE3">1</text><text x="461.3" y="17.1" class="node" fill="#5374E2">0.98</text><text x="325" y="129.8" class="node" fill="#D2D4E3">0.57</text><text x="302.3" y="234.7" class="node" fill="#5374E2">0.98</text><text x="325" y="212.7" class="node" fill="#95A1E2">0.78</text><text x="347.7" y="189.8" class="node" fill="#5374E2">0.98</text><text x="370.4" y="168.6" class="node" fill="#4A6FE3">1</text><text x="393.1" y="158.1" class="node" fill="#5374E2">0.98</text><text x="370.4" y="210.9" class="node" fill="#5374E2">0.98</text><text x="393.1" y="200.3" class="node" fill="#4A6FE3">1</text><text x="325" y="256.7" class="node" fill="#4A6FE3">1</text><text x="234.1" y="336.1" class="node" fill="#4A6FE3">1</text><text x="256.9" y="323.7" class="node" fill="#4A6FE3">1</text><text x="279.6" y="313.1" class="node" fill="#5B78E2">0.96</text><text x="188.7" y="527.1" class="node" fill="#5B78E2">0.96</text><text x="211.4" y="508.4" class="node" fill="#5B78E2">0.96</text><text x="234.1" y="485.1" class="node" fill="#5374E2">0.98</text><text x="256.9" y="459.7" class="node" fill="#5374E2">0.98</text><text x="279.6" y="437" class="node" fill="#5374E2">0.98</text><text x="302.3" y="419.8" class="node" fill="#5374E2">0.98</text><text x="325" y="406.6" class="node" fill="#4A6FE3">1</text><text x="347.7" y="394.2" class="node" fill="#E2E2E2">0.5</text><text x="370.4" y="383.6" class="node" fill="#4A6FE3">1</text><text x="302.3" y="454.1" class="node" fill="#4A6FE3">1</text><text x="279.6" y="482.4" class="node" fill="#5B78E2">0.96</text><text x="256.9" y="510.5" class="node" fill="#4A6FE3">1</text><text x="166" y="567" class="node" fill="#D7D9E3">0.54</text><text x="75.1" y="673.6" class="node" fill="#E2E2E2">0.5</text><text x="97.9" y="660.4" class="node" fill="#D7D9E3">0.54</text><text x="120.6" y="648" class="node" fill="#4A6FE3">1</text><text x="143.3" y="637.5" class="node" fill="#8696E1">0.83</text></svg>
