<svg xmlns="http://www.w3.org/2000/svg" version="1.1" viewBox="0 0 682 720" preserveAspectRatio="xMidYMid meet" class="tree" data-char="133"><text x="678" y="16.8" text-anchor="end" class="stepsLabel">Character adds <tspan class="score">1</tspan> to tree score</text><text x="678" y="30.6" text-anchor="end" class="stepsLabel"><tspan class="score">0</tspan> additional regions</text><text x="678" y="44.4" text-anchor="end" class="stepsLabel"></text><text x="678" y="72" text-anchor="end" class="stepsLabel"><tspan dy="16" fill="#34caaf">An optimal tree under:</tspan><tspan x="680" style="font-style:italic" class="notThisAn" dy="1.2em">Implied weights, k = 3</tspan><tspan x="680" style="font-style:italic" class="notThisAn" dy="1.2em">IW, k = 4.5</tspan><tspan x="680" style="font-style:italic" class="notThisAn" dy="1.2em">IW, k = 7</tspan><tspan x="680" style="font-style:italic" class="notThisAn" dy="1.2em">IW, k = 10.5</tspan><tspan x="680" style="font-style:italic" class="notThisAn" dy="1.2em">IW, k = 16</tspan><tspan x="680" style="font-style:italic" class="thisAn" dy="1.2em">IW, k = 24</tspan><tspan x="680" style="font-style:italic" class="notThisAn" dy="1.2em">Equal weights</tspan></text><text x="164" y="658.6" fill="lightgrey" class="flag">[-]</text><text x="186" y="658.6" fill="#ccc" class="taxonLabel">Orthrozanclus</text><text x="164" y="672.7" fill="grey" class="flag">[?]</text><text x="186" y="672.7" fill="#999" class="taxonLabel">Halkieria evangelista</text><text x="190.5" y="630.4" fill="grey" class="flag">[?]</text><text x="212.5" y="630.4" fill="#999" class="taxonLabel">Pedunculotheca diania</text><text x="190.5" y="644.5" fill="grey" class="flag">[?]</text><text x="212.5" y="644.5" fill="#999" class="taxonLabel">Haplophrentis carinatus</text><text x="270" y="574" fill="lightgrey" class="flag">[-]</text><text x="292" y="574" fill="#ccc" class="taxonLabel">Mickwitzia muralensis</text><text x="270" y="588.1" fill="grey" class="flag">[?]</text><text x="292" y="588.1" fill="#999" class="taxonLabel">Heliomedusa orienta</text><text x="296.5" y="545.8" fill="grey" class="flag">[?]</text><text x="318.5" y="545.8" fill="#999" class="taxonLabel">Micromitra</text><text x="296.5" y="559.9" fill="#91bfdb" class="flag">[2]</text><text x="318.5" y="559.9" fill="#000" class="taxonLabel">Gasconsia</text><text x="323" y="517.6" fill="#e2e2a2" class="flag">[1]</text><text x="345" y="517.6" fill="#000" class="taxonLabel">Terebratulina</text><text x="323" y="531.7" fill="#e2e2a2" class="flag">[1]</text><text x="345" y="531.7" fill="#000" class="taxonLabel">Orthis</text><text x="402.5" y="447.1" fill="grey" class="flag">[?]</text><text x="424.5" y="447.1" fill="#999" class="taxonLabel">Yuganotheca elegans</text><text x="402.5" y="461.2" fill="lightgrey" class="flag">[-]</text><text x="424.5" y="461.2" fill="#ccc" class="taxonLabel">Lingulellotreta malongensis</text><text x="376" y="475.3" fill="lightgrey" class="flag">[-]</text><text x="398" y="475.3" fill="#ccc" class="taxonLabel">Lingula</text><text x="349.5" y="489.4" fill="lightgrey" class="flag">[-]</text><text x="371.5" y="489.4" fill="#ccc" class="taxonLabel">Pelagodiscus atlanticus</text><text x="323" y="503.5" fill="#91bfdb" class="flag">[2]</text><text x="345" y="503.5" fill="#000" class="taxonLabel">Novocrania</text><text x="217" y="602.2" fill="grey" class="flag">[?]</text><text x="239" y="602.2" fill="#999" class="taxonLabel">Micrina</text><text x="190.5" y="616.3" fill="grey" class="flag">[?]</text><text x="212.5" y="616.3" fill="#999" class="taxonLabel">Paterimitra</text><text x="111" y="686.8" fill="lightgrey" class="flag">[-]</text><text x="133" y="686.8" fill="#ccc" class="taxonLabel">Eccentrotheca</text><text x="217" y="376.6" fill="lightgrey" class="flag">[-]</text><text x="239" y="376.6" fill="#ccc" class="taxonLabel">Flustra</text><text x="217" y="390.7" fill="lightgrey" class="flag">[-]</text><text x="239" y="390.7" fill="#ccc" class="taxonLabel">Amathia</text><text x="323" y="306.1" fill="lightgrey" class="flag">[-]</text><text x="345" y="306.1" fill="#ccc" class="taxonLabel">Serpula</text><text x="323" y="320.2" fill="lightgrey" class="flag">[-]</text><text x="345" y="320.2" fill="#ccc" class="taxonLabel">Capitella</text><text x="296.5" y="334.3" fill="lightgrey" class="flag">[-]</text><text x="318.5" y="334.3" fill="#ccc" class="taxonLabel">Canadia spinosa</text><text x="270" y="348.4" fill="lightgrey" class="flag">[-]</text><text x="292" y="348.4" fill="#ccc" class="taxonLabel">Sipunculus</text><text x="296.5" y="277.9" fill="lightgrey" class="flag">[-]</text><text x="318.5" y="277.9" fill="#ccc" class="taxonLabel">Wiwaxia corrugata</text><text x="296.5" y="292" fill="lightgrey" class="flag">[-]</text><text x="318.5" y="292" fill="#ccc" class="taxonLabel">Odontogriphus omalus</text><text x="402.5" y="221.5" fill="lightgrey" class="flag">[-]</text><text x="424.5" y="221.5" fill="#ccc" class="taxonLabel">Neopilina</text><text x="402.5" y="235.6" fill="lightgrey" class="flag">[-]</text><text x="424.5" y="235.6" fill="#ccc" class="taxonLabel">Conocardium elongatum</text><text x="376" y="249.7" fill="lightgrey" class="flag">[-]</text><text x="398" y="249.7" fill="#ccc" class="taxonLabel">Haliotis</text><text x="402.5" y="179.2" fill="lightgrey" class="flag">[-]</text><text x="424.5" y="179.2" fill="#ccc" class="taxonLabel">Pojetaia runnegari</text><text x="402.5" y="193.3" fill="lightgrey" class="flag">[-]</text><text x="424.5" y="193.3" fill="#ccc" class="taxonLabel">Mytilus</text><text x="376" y="207.4" fill="lightgrey" class="flag">[-]</text><text x="398" y="207.4" fill="#ccc" class="taxonLabel">Dentalium</text><text x="323" y="263.8" fill="lightgrey" class="flag">[-]</text><text x="345" y="263.8" fill="#ccc" class="taxonLabel">Pelagiella</text><text x="376" y="151" fill="lightgrey" class="flag">[-]</text><text x="398" y="151" fill="#ccc" class="taxonLabel">Kulindroplax perissokomos</text><text x="376" y="165.1" fill="lightgrey" class="flag">[-]</text><text x="398" y="165.1" fill="#ccc" class="taxonLabel">Acaenoplax hayae</text><text x="402.5" y="108.7" fill="lightgrey" class="flag">[-]</text><text x="424.5" y="108.7" fill="#ccc" class="taxonLabel">Wirenia</text><text x="402.5" y="122.8" fill="lightgrey" class="flag">[-]</text><text x="424.5" y="122.8" fill="#ccc" class="taxonLabel">Chaetoderma</text><text x="376" y="136.9" fill="lightgrey" class="flag">[-]</text><text x="398" y="136.9" fill="#ccc" class="taxonLabel">Phthipodochiton thraivensis</text><text x="482" y="10" fill="lightgrey" class="flag">[-]</text><text x="504" y="10" fill="#ccc" class="taxonLabel">Tonicella</text><text x="482" y="24.1" fill="lightgrey" class="flag">[-]</text><text x="504" y="24.1" fill="#ccc" class="taxonLabel">Mopalia</text><text x="455.5" y="38.2" fill="lightgrey" class="flag">[-]</text><text x="477.5" y="38.2" fill="#ccc" class="taxonLabel">Polysacos vickersianum</text><text x="429" y="52.3" fill="lightgrey" class="flag">[-]</text><text x="451" y="52.3" fill="#ccc" class="taxonLabel">Leptochiton</text><text x="402.5" y="66.4" fill="lightgrey" class="flag">[-]</text><text x="424.5" y="66.4" fill="#ccc" class="taxonLabel">Glaphurochiton carbonarius</text><text x="376" y="80.5" fill="lightgrey" class="flag">[-]</text><text x="398" y="80.5" fill="#ccc" class="taxonLabel">Calvapilosa kroegeri</text><text x="349.5" y="94.6" fill="grey" class="flag">[?]</text><text x="371.5" y="94.6" fill="#999" class="taxonLabel">Siphogonuchites multa</text><text x="217" y="362.5" fill="lightgrey" class="flag">[-]</text><text x="239" y="362.5" fill="#ccc" class="taxonLabel">Loxosomella</text><text x="164" y="404.8" fill="lightgrey" class="flag">[-]</text><text x="186" y="404.8" fill="#ccc" class="taxonLabel">Namacalathus</text><text x="137.5" y="418.9" fill="lightgrey" class="flag">[-]</text><text x="159.5" y="418.9" fill="#ccc" class="taxonLabel">Phoronis</text><text x="111" y="433" fill="lightgrey" class="flag">[-]</text><text x="133" y="433" fill="#ccc" class="taxonLabel">Cotyledion tylodes</text><text x="58" y="700.9" fill="lightgrey" class="flag">[-]</text><text x="80" y="700.9" fill="#ccc" class="taxonLabel">Dailyatia</text><text x="31.5" y="715" fill="lightgrey" class="flag">[-]</text><text x="53.5" y="715" fill="#ccc" class="taxonLabel">Yilingia spiciformis</text><path d="M5,664.7V617.5H31.5M31.5,617.5V537.1H58M58,537.1V413H84.5M84.5,413V396H111M111,396V376H137.5M137.5,376V350.3H164M164,350.3V319.9H190.5M190.5,319.9V280.3H217M217,280.3V227.6H243.5M243.5,227.6V173.2H270M270,173.2V108.5H296.5M296.5,108.5V77.7H323M323,77.7V63.8H349.5M349.5,63.8V50.2H376M376,50.2V37H402.5M402.5,37V24.6H429M429,24.6V14.1H455.5M455.5,14.1V7H482M455.5,14.1V21.1H482M429,24.6V35.2H455.5M402.5,37V49.3H429M376,50.2V63.4H402.5M349.5,63.8V77.5H376M323,77.7V91.6H349.5M296.5,108.5V139.2H323M323,139.2V123.3H349.5M349.5,123.3V112.8H376M376,112.8V105.7H402.5M376,112.8V119.8H402.5M349.5,123.3V133.9H376M323,139.2V155.1H349.5M349.5,155.1V148H376M349.5,155.1V162.1H376M270,173.2V237.9H296.5M296.5,237.9V215H323M323,215V193.8H349.5M349.5,193.8V183.2H376M376,183.2V176.2H402.5M376,183.2V190.3H402.5M349.5,193.8V204.4H376M323,215V236.1H349.5M349.5,236.1V225.6H376M376,225.6V218.5H402.5M376,225.6V232.6H402.5M349.5,236.1V246.7H376M296.5,237.9V260.8H323M243.5,227.6V281.9H270M270,281.9V274.9H296.5M270,281.9V289H296.5M217,280.3V333.1H243.5M243.5,333.1V320.7H270M270,320.7V310.1H296.5M296.5,310.1V303.1H323M296.5,310.1V317.2H323M270,320.7V331.3H296.5M243.5,333.1V345.4H270M190.5,319.9V359.5H217M164,350.3V380.6H190.5M190.5,380.6V373.6H217M190.5,380.6V387.7H217M137.5,376V401.8H164M111,396V415.9H137.5M84.5,413V430H111M58,537.1V661.2H84.5M84.5,661.2V638.6H111M111,638.6V614.5H137.5M137.5,614.5V594.6H164M164,594.6V575.9H190.5M190.5,575.9V552.6H217M296.5,487.3V474.1H323M323,474.1V461.7H349.5M349.5,461.7V451.1H376M376,451.1V444.1H402.5M376,451.1V458.2H402.5M349.5,461.7V472.3H376M323,474.1V486.4H349.5M217,552.6V578H243.5M243.5,578V571H270M243.5,578V585.1H270M190.5,575.9V599.2H217M164,594.6V613.3H190.5M137.5,614.5V634.5H164M164,634.5V627.4H190.5M164,634.5V641.5H190.5M111,638.6V662.6H137.5M137.5,662.6V655.6H164M137.5,662.6V669.7H164M84.5,661.2V683.8H111M31.5,617.5V697.9H58M5,664.7V712H31.5" stroke="lightgrey" class="inapplicable"></path><path d="M217,552.6V527.2H243.5M243.5,527.2V504.5H270M270,504.5V487.3H296.5M296.5,487.3V500.5H323M243.5,527.2V549.8H270M270,549.8V542.8H296.5M270,549.8V556.9H296.5" stroke="#91bfdb"></path><path d="M270,504.5V521.6H296.5M296.5,521.6V514.6H323M296.5,521.6V528.7H323" stroke="#e2e2a2"></path><text x="33.5" y="620.5" class="node" fill="#8696E1">0.83</text><text x="60" y="540.1" class="node" fill="#D64F73">0.04</text><text x="86.5" y="416" class="node" fill="#E5C7CC">0.41</text><text x="113" y="399" class="node" fill="#DD6F88">0.13</text><text x="139.5" y="379" class="node" fill="#E5C7CC">0.41</text><text x="166" y="353.3" class="node" fill="#E5C7CC">0.41</text><text x="192.5" y="322.9" class="node" fill="#5B78E2">0.96</text><text x="219" y="283.3" class="node" fill="#4A6FE3">1</text><text x="245.5" y="230.6" class="node" fill="#E5C7CC">0.41</text><text x="272" y="176.2" class="node" fill="#E5CDD1">0.43</text><text x="298.5" y="111.5" class="node" fill="#DB617F">0.09</text><text x="325" y="80.7" class="node" fill="#5374E2">0.98</text><text x="351.5" y="66.8" class="node" fill="#5374E2">0.98</text><text x="378" y="53.2" class="node" fill="#4A6FE3">1</text><text x="404.5" y="40" class="node" fill="#4A6FE3">1</text><text x="431" y="27.6" class="node" fill="#4A6FE3">1</text><text x="457.5" y="17.1" class="node" fill="#E5CDD1">0.43</text><text x="325" y="142.2" class="node" fill="#E38C9E">0.22</text><text x="351.5" y="126.3" class="node" fill="#5374E2">0.98</text><text x="378" y="115.8" class="node" fill="#E5CDD1">0.43</text><text x="351.5" y="158.1" class="node" fill="#5374E2">0.98</text><text x="298.5" y="240.9" class="node" fill="#95A1E2">0.78</text><text x="325" y="218" class="node" fill="#5374E2">0.98</text><text x="351.5" y="196.8" class="node" fill="#4A6FE3">1</text><text x="378" y="186.2" class="node" fill="#5374E2">0.98</text><text x="351.5" y="239.1" class="node" fill="#5374E2">0.98</text><text x="378" y="228.6" class="node" fill="#4A6FE3">1</text><text x="272" y="284.9" class="node" fill="#4A6FE3">1</text><text x="245.5" y="336.1" class="node" fill="#4A6FE3">1</text><text x="272" y="323.7" class="node" fill="#4A6FE3">1</text><text x="298.5" y="313.1" class="node" fill="#4A6FE3">1</text><text x="192.5" y="383.6" class="node" fill="#E28699">0.2</text><text x="86.5" y="664.2" class="node" fill="#E5CDD1">0.43</text><text x="113" y="641.6" class="node" fill="#E4D6D8">0.46</text><text x="139.5" y="617.5" class="node" fill="#5B78E2">0.96</text><text x="166" y="597.6" class="node" fill="#5B78E2">0.96</text><text x="192.5" y="578.9" class="node" fill="#5B78E2">0.96</text><text x="219" y="555.6" class="node" fill="#5374E2">0.98</text><text x="245.5" y="530.2" class="node" fill="#5374E2">0.98</text><text x="272" y="507.5" class="node" fill="#5374E2">0.98</text><text x="298.5" y="490.3" class="node" fill="#5374E2">0.98</text><text x="325" y="477.1" class="node" fill="#4A6FE3">1</text><text x="351.5" y="464.7" class="node" fill="#E2E2E2">0.5</text><text x="378" y="454.1" class="node" fill="#4A6FE3">1</text><text x="298.5" y="524.6" class="node" fill="#4A6FE3">1</text><text x="272" y="552.8" class="node" fill="#5B78E2">0.96</text><text x="245.5" y="581" class="node" fill="#4A6FE3">1</text><text x="166" y="637.5" class="node" fill="#B9BFE3">0.65</text><text x="139.5" y="665.6" class="node" fill="#8696E1">0.83</text></svg>
