<svg xmlns="http://www.w3.org/2000/svg" version="1.1" viewBox="0 0 682 720" preserveAspectRatio="xMidYMid meet" class="tree" data-char="260"><text x="678" y="16.8" text-anchor="end" class="stepsLabel">Character adds <tspan class="score">2</tspan> to tree score</text><text x="678" y="30.6" text-anchor="end" class="stepsLabel"><tspan class="score">0</tspan> additional regions</text><text x="678" y="44.4" text-anchor="end" class="stepsLabel"></text><text x="678" y="72" text-anchor="end" class="stepsLabel"><tspan dy="16" fill="#34caaf">An optimal tree under:</tspan><tspan x="680" style="font-style:italic" class="notThisAn" dy="1.2em">Implied weights, k = 3</tspan><tspan x="680" style="font-style:italic" class="thisAn" dy="1.2em">IW, k = 4.5</tspan><tspan x="680" style="font-style:italic" class="notThisAn" dy="1.2em">IW, k = 7</tspan><tspan x="680" style="font-style:italic" class="notThisAn" dy="1.2em">IW, k = 10.5</tspan><tspan x="680" style="font-style:italic" class="notThisAn" dy="1.2em">IW, k = 16</tspan><tspan x="680" style="font-style:italic" class="notThisAn" dy="1.2em">IW, k = 24</tspan><tspan x="680" style="font-style:italic" class="notThisAn" dy="1.2em">Equal weights</tspan></text><text x="154.1" y="658.6" fill="#e2e2a2" class="flag">[1]</text><text x="176.1" y="658.6" fill="#000" class="taxonLabel">Serpula</text><text x="154.1" y="672.7" fill="grey" class="flag">[?]</text><text x="176.1" y="672.7" fill="#999" class="taxonLabel">Capitella</text><text x="124.2" y="686.8" fill="grey" class="flag">[?]</text><text x="146.2" y="686.8" fill="#999" class="taxonLabel">Canadia spinosa</text><text x="94.4" y="700.9" fill="#e2e2a2" class="flag">[1]</text><text x="116.4" y="700.9" fill="#000" class="taxonLabel">Sipunculus</text><text x="154.1" y="630.4" fill="grey" class="flag">[?]</text><text x="176.1" y="630.4" fill="#999" class="taxonLabel">Orthrozanclus</text><text x="154.1" y="644.5" fill="grey" class="flag">[?]</text><text x="176.1" y="644.5" fill="#999" class="taxonLabel">Halkieria evangelista</text><text x="243.5" y="574" fill="#e2e2a2" class="flag">[1]</text><text x="265.5" y="574" fill="#000" class="taxonLabel">Wirenia</text><text x="243.5" y="588.1" fill="grey" class="flag">[?]</text><text x="265.5" y="588.1" fill="#999" class="taxonLabel">Phthipodochiton thraivensis</text><text x="362.8" y="517.6" fill="grey" class="flag">[?]</text><text x="384.8" y="517.6" fill="#999" class="taxonLabel">Siphogonuchites multa</text><text x="362.8" y="531.7" fill="grey" class="flag">[?]</text><text x="384.8" y="531.7" fill="#999" class="taxonLabel">Calvapilosa kroegeri</text><text x="332.9" y="545.8" fill="grey" class="flag">[?]</text><text x="354.9" y="545.8" fill="#999" class="taxonLabel">Glaphurochiton carbonarius</text><text x="392.6" y="461.2" fill="#91bfdb" class="flag">[2]</text><text x="414.6" y="461.2" fill="#000" class="taxonLabel">Tonicella</text><text x="392.6" y="475.3" fill="#91bfdb" class="flag">[2]</text><text x="414.6" y="475.3" fill="#000" class="taxonLabel">Mopalia</text><text x="362.8" y="489.4" fill="grey" class="flag">[?]</text><text x="384.8" y="489.4" fill="#999" class="taxonLabel">Polysacos vickersianum</text><text x="332.9" y="503.5" fill="#91bfdb" class="flag">[2]</text><text x="354.9" y="503.5" fill="#000" class="taxonLabel">Leptochiton</text><text x="332.9" y="433" fill="grey" class="flag">[?]</text><text x="354.9" y="433" fill="#999" class="taxonLabel">Wiwaxia corrugata</text><text x="332.9" y="447.1" fill="grey" class="flag">[?]</text><text x="354.9" y="447.1" fill="#999" class="taxonLabel">Odontogriphus omalus</text><text x="422.4" y="376.6" fill="lightgrey" class="flag">[-]</text><text x="444.4" y="376.6" fill="#ccc" class="taxonLabel">Neopilina</text><text x="422.4" y="390.7" fill="grey" class="flag">[?]</text><text x="444.4" y="390.7" fill="#999" class="taxonLabel">Conocardium elongatum</text><text x="392.6" y="404.8" fill="lightgrey" class="flag">[-]</text><text x="414.6" y="404.8" fill="#ccc" class="taxonLabel">Haliotis</text><text x="422.4" y="334.3" fill="grey" class="flag">[?]</text><text x="444.4" y="334.3" fill="#999" class="taxonLabel">Pojetaia runnegari</text><text x="422.4" y="348.4" fill="lightgrey" class="flag">[-]</text><text x="444.4" y="348.4" fill="#ccc" class="taxonLabel">Mytilus</text><text x="392.6" y="362.5" fill="#e2e2a2" class="flag">[1]</text><text x="414.6" y="362.5" fill="#000" class="taxonLabel">Dentalium</text><text x="332.9" y="418.9" fill="grey" class="flag">[?]</text><text x="354.9" y="418.9" fill="#999" class="taxonLabel">Pelagiella</text><text x="243.5" y="559.9" fill="#91bfdb" class="flag">[2]</text><text x="265.5" y="559.9" fill="#000" class="taxonLabel">Chaetoderma</text><text x="183.9" y="602.2" fill="grey" class="flag">[?]</text><text x="205.9" y="602.2" fill="#999" class="taxonLabel">Acaenoplax hayae</text><text x="154.1" y="616.3" fill="grey" class="flag">[?]</text><text x="176.1" y="616.3" fill="#999" class="taxonLabel">Kulindroplax perissokomos</text><text x="213.7" y="277.9" fill="grey" class="flag">[?]</text><text x="235.7" y="277.9" fill="#999" class="taxonLabel">Namacalathus</text><text x="213.7" y="292" fill="lightgrey" class="flag">[-]</text><text x="235.7" y="292" fill="#ccc" class="taxonLabel">Loxosomella</text><text x="183.9" y="306.1" fill="grey" class="flag">[?]</text><text x="205.9" y="306.1" fill="#999" class="taxonLabel">Cotyledion tylodes</text><text x="154.1" y="320.2" fill="grey" class="flag">[?]</text><text x="176.1" y="320.2" fill="#999" class="taxonLabel">Dailyatia</text><text x="183.9" y="249.7" fill="#e2e2a2" class="flag">[1]</text><text x="205.9" y="249.7" fill="#000" class="taxonLabel">Flustra</text><text x="183.9" y="263.8" fill="#e2e2a2" class="flag">[1]</text><text x="205.9" y="263.8" fill="#000" class="taxonLabel">Amathia</text><text x="332.9" y="165.1" fill="grey" class="flag">[?]</text><text x="354.9" y="165.1" fill="#999" class="taxonLabel">Terebratulina</text><text x="332.9" y="179.2" fill="grey" class="flag">[?]</text><text x="354.9" y="179.2" fill="#999" class="taxonLabel">Orthis</text><text x="392.6" y="136.9" fill="grey" class="flag">[?]</text><text x="414.6" y="136.9" fill="#999" class="taxonLabel">Micromitra</text><text x="392.6" y="151" fill="grey" class="flag">[?]</text><text x="414.6" y="151" fill="#999" class="taxonLabel">Gasconsia</text><text x="392.6" y="108.7" fill="#e2e2a2" class="flag">[1]</text><text x="414.6" y="108.7" fill="#000" class="taxonLabel">Novocrania</text><text x="392.6" y="122.8" fill="grey" class="flag">[?]</text><text x="414.6" y="122.8" fill="#999" class="taxonLabel">Heliomedusa orienta</text><text x="452.2" y="52.3" fill="grey" class="flag">[?]</text><text x="474.2" y="52.3" fill="#999" class="taxonLabel">Pedunculotheca diania</text><text x="452.2" y="66.4" fill="grey" class="flag">[?]</text><text x="474.2" y="66.4" fill="#999" class="taxonLabel">Haplophrentis carinatus</text><text x="482" y="10" fill="grey" class="flag">[?]</text><text x="504" y="10" fill="#999" class="taxonLabel">Yuganotheca elegans</text><text x="482" y="24.1" fill="#e2e2a2" class="flag">[1]</text><text x="504" y="24.1" fill="#000" class="taxonLabel">Lingula</text><text x="452.2" y="38.2" fill="grey" class="flag">[?]</text><text x="474.2" y="38.2" fill="#999" class="taxonLabel">Lingulellotreta malongensis</text><text x="392.6" y="80.5" fill="grey" class="flag">[?]</text><text x="414.6" y="80.5" fill="#999" class="taxonLabel">Pelagodiscus atlanticus</text><text x="362.8" y="94.6" fill="grey" class="flag">[?]</text><text x="384.8" y="94.6" fill="#999" class="taxonLabel">Mickwitzia muralensis</text><text x="273.3" y="193.3" fill="grey" class="flag">[?]</text><text x="295.3" y="193.3" fill="#999" class="taxonLabel">Micrina</text><text x="243.5" y="207.4" fill="grey" class="flag">[?]</text><text x="265.5" y="207.4" fill="#999" class="taxonLabel">Paterimitra</text><text x="213.7" y="221.5" fill="#e2e2a2" class="flag">[1]</text><text x="235.7" y="221.5" fill="#000" class="taxonLabel">Phoronis</text><text x="183.9" y="235.6" fill="grey" class="flag">[?]</text><text x="205.9" y="235.6" fill="#999" class="taxonLabel">Eccentrotheca</text><text x="34.8" y="715" fill="grey" class="flag">[?]</text><text x="56.8" y="715" fill="#999" class="taxonLabel">Yilingia spiciformis</text><path d="M5,637.8V563.7H34.8M34.8,563.7V441.8H64.6M64.6,441.8V270.1H94.4M94.4,270.1V235.3H124.2M124.2,235.3V216.8H154.1M154.1,216.8V201H183.9M183.9,201V183.6H213.7M213.7,183.6V162.7H243.5M243.5,162.7V135.1H273.3M273.3,135.1V101.1H303.1M303.1,101.1V75.3H332.9M332.9,75.3V59H362.8M362.8,59V40.5H392.6M392.6,40.5V24.6H422.4M422.4,24.6V14.1H452.2M452.2,14.1V7H482M452.2,14.1V21.1H482M422.4,24.6V35.2H452.2M392.6,40.5V56.3H422.4M422.4,56.3V49.3H452.2M422.4,56.3V63.4H452.2M362.8,59V77.5H392.6M332.9,75.3V91.6H362.8M303.1,101.1V126.8H332.9M332.9,126.8V112.8H362.8M362.8,112.8V105.7H392.6M362.8,112.8V119.8H392.6M332.9,126.8V140.9H362.8M362.8,140.9V133.9H392.6M362.8,140.9V148H392.6M273.3,135.1V169.1H303.1M303.1,169.1V162.1H332.9M303.1,169.1V176.2H332.9M243.5,162.7V190.3H273.3M213.7,183.6V204.4H243.5M183.9,201V218.5H213.7M154.1,216.8V232.6H183.9M124.2,235.3V253.7H154.1M154.1,253.7V246.7H183.9M154.1,253.7V260.8H183.9M64.6,441.8V613.4H94.4M94.4,613.4V592.4H124.2M124.2,592.4V571.6H154.1M154.1,571.6V543.9H183.9M183.9,543.9V509.8H213.7M362.8,348.9V359.5H392.6M183.9,543.9V578H213.7M213.7,578V571H243.5M213.7,578V585.1H243.5M154.1,571.6V599.2H183.9M124.2,592.4V613.3H154.1M94.4,613.4V634.5H124.2M124.2,634.5V627.4H154.1M124.2,634.5V641.5H154.1M34.8,563.7V685.6H64.6M64.6,685.6V673.2H94.4M94.4,673.2V662.6H124.2M124.2,662.6V655.6H154.1M124.2,662.6V669.7H154.1M94.4,673.2V683.8H124.2M64.6,685.6V697.9H94.4M5,637.8V712H34.8" stroke="#e2e2a2"></path><path d="M94.4,270.1V304.9H124.2M124.2,304.9V292.5H154.1M154.1,292.5V281.9H183.9M183.9,281.9V274.9H213.7M183.9,281.9V289H213.7M154.1,292.5V303.1H183.9M124.2,304.9V317.2H154.1M362.8,348.9V338.4H392.6M392.6,338.4V331.3H422.4M392.6,338.4V345.4H422.4M332.9,370.1V391.2H362.8M362.8,391.2V380.6H392.6M392.6,380.6V373.6H422.4M392.6,380.6V387.7H422.4M362.8,391.2V401.8H392.6" stroke="lightgrey" class="inapplicable"></path><path d="M213.7,509.8V462.6H243.5M243.5,462.6V415H273.3M273.3,415V393H303.1M303.1,393V370.1H332.9M332.9,370.1V348.9H362.8M303.1,393V415.9H332.9M273.3,415V437H303.1M303.1,437V430H332.9M303.1,437V444.1H332.9M243.5,462.6V510.2H273.3M273.3,510.2V532.2H303.1M303.1,532.2V521.6H332.9M332.9,521.6V514.6H362.8M332.9,521.6V528.7H362.8M303.1,532.2V542.8H332.9" stroke="darkgrey"></path><path d="M273.3,510.2V488.2H303.1M303.1,488.2V475.8H332.9M332.9,475.8V465.2H362.8M362.8,465.2V458.2H392.6M362.8,465.2V472.3H392.6M332.9,475.8V486.4H362.8M303.1,488.2V500.5H332.9M213.7,509.8V556.9H243.5" stroke="#91bfdb"></path><text x="36.8" y="566.7" class="node" fill="#E6C1C7">0.39</text><text x="66.6" y="444.8" class="node" fill="#E49CAA">0.27</text><text x="96.4" y="273.1" class="node" fill="#E18297">0.19</text><text x="126.2" y="238.3" class="node" fill="#E07C92">0.17</text><text x="156.1" y="219.8" class="node" fill="#E28699">0.2</text><text x="185.9" y="204" class="node" fill="#BCC2E3">0.64</text><text x="215.7" y="186.6" class="node" fill="#E49CAA">0.27</text><text x="245.5" y="165.7" class="node" fill="#E49CAA">0.27</text><text x="275.3" y="138.1" class="node" fill="#E49CAA">0.27</text><text x="305.1" y="104.1" class="node" fill="#E49CAA">0.27</text><text x="334.9" y="78.3" class="node" fill="#E49CAA">0.27</text><text x="364.8" y="62" class="node" fill="#E49CAA">0.27</text><text x="394.6" y="43.5" class="node" fill="#4A6FE3">1</text><text x="424.4" y="27.6" class="node" fill="#C4C9E3">0.61</text><text x="454.2" y="17.1" class="node" fill="#4A6FE3">1</text><text x="424.4" y="59.3" class="node" fill="#E49CAA">0.27</text><text x="334.9" y="129.8" class="node" fill="#E49CAA">0.27</text><text x="364.8" y="115.8" class="node" fill="#4A6FE3">1</text><text x="364.8" y="143.9" class="node" fill="#4A6FE3">1</text><text x="305.1" y="172.1" class="node" fill="#4A6FE3">1</text><text x="156.1" y="256.7" class="node" fill="#DF798F">0.16</text><text x="126.2" y="307.9" class="node" fill="#E18297">0.19</text><text x="156.1" y="295.5" class="node" fill="#E49CAA">0.27</text><text x="185.9" y="284.9" class="node" fill="#E49CAA">0.27</text><text x="96.4" y="616.4" class="node" fill="#4A6FE3">1</text><text x="126.2" y="595.4" class="node" fill="#BFC4E3">0.63</text><text x="156.1" y="574.6" class="node" fill="#BFC4E3">0.63</text><text x="185.9" y="546.9" class="node" fill="#E49CAA">0.27</text><text x="215.7" y="512.8" class="node" fill="#E4D9DB">0.47</text><text x="245.5" y="465.6" class="node" fill="#7388E1">0.89</text><text x="275.3" y="418" class="node" fill="#7388E1">0.89</text><text x="305.1" y="396" class="node" fill="#7086E1">0.9</text><text x="334.9" y="373.1" class="node" fill="#4A6FE3">1</text><text x="364.8" y="351.9" class="node" fill="#4A6FE3">1</text><text x="394.6" y="341.4" class="node" fill="#4A6FE3">1</text><text x="364.8" y="394.2" class="node" fill="#4A6FE3">1</text><text x="394.6" y="383.6" class="node" fill="#4A6FE3">1</text><text x="305.1" y="440" class="node" fill="#E6B1BB">0.34</text><text x="275.3" y="513.2" class="node" fill="#4A6FE3">1</text><text x="305.1" y="491.2" class="node" fill="#4A6FE3">1</text><text x="334.9" y="478.8" class="node" fill="#4A6FE3">1</text><text x="364.8" y="468.2" class="node" fill="#DC6884">0.11</text><text x="305.1" y="535.2" class="node" fill="#E49CAA">0.27</text><text x="334.9" y="524.6" class="node" fill="#E6C1C7">0.39</text><text x="215.7" y="581" class="node" fill="#97A4E2">0.77</text><text x="126.2" y="637.5" class="node" fill="#4A6FE3">1</text><text x="66.6" y="688.6" class="node" fill="#4A6FE3">1</text><text x="96.4" y="676.2" class="node" fill="#4A6FE3">1</text><text x="126.2" y="665.6" class="node" fill="#E6C1C7">0.39</text></svg>
