<svg xmlns="http://www.w3.org/2000/svg" version="1.1" viewBox="0 0 682 720" preserveAspectRatio="xMidYMid meet" class="tree" data-char="247"><text x="678" y="16.8" text-anchor="end" class="stepsLabel">Character adds <tspan class="score">2</tspan> to tree score</text><text x="678" y="30.6" text-anchor="end" class="stepsLabel"><tspan class="score">0</tspan> additional regions</text><text x="678" y="44.4" text-anchor="end" class="stepsLabel"></text><text x="678" y="72" text-anchor="end" class="stepsLabel"><tspan dy="16" fill="#34caaf">An optimal tree under:</tspan><tspan x="680" style="font-style:italic" class="notThisAn" dy="1.2em">Implied weights, k = 3</tspan><tspan x="680" style="font-style:italic" class="notThisAn" dy="1.2em">IW, k = 4.5</tspan><tspan x="680" style="font-style:italic" class="notThisAn" dy="1.2em">IW, k = 7</tspan><tspan x="680" style="font-style:italic" class="notThisAn" dy="1.2em">IW, k = 10.5</tspan><tspan x="680" style="font-style:italic" class="notThisAn" dy="1.2em">IW, k = 16</tspan><tspan x="680" style="font-style:italic" class="thisAn" dy="1.2em">IW, k = 24</tspan><tspan x="680" style="font-style:italic" class="notThisAn" dy="1.2em">Equal weights</tspan></text><text x="213.7" y="644.5" fill="grey" class="flag">[?]</text><text x="235.7" y="644.5" fill="#999" class="taxonLabel">Orthrozanclus</text><text x="213.7" y="658.6" fill="grey" class="flag">[?]</text><text x="235.7" y="658.6" fill="#999" class="taxonLabel">Halkieria evangelista</text><text x="243.5" y="616.3" fill="grey" class="flag">[?]</text><text x="265.5" y="616.3" fill="#999" class="taxonLabel">Pedunculotheca diania</text><text x="243.5" y="630.4" fill="grey" class="flag">[?]</text><text x="265.5" y="630.4" fill="#999" class="taxonLabel">Haplophrentis carinatus</text><text x="332.9" y="559.9" fill="grey" class="flag">[?]</text><text x="354.9" y="559.9" fill="#999" class="taxonLabel">Mickwitzia muralensis</text><text x="332.9" y="574" fill="grey" class="flag">[?]</text><text x="354.9" y="574" fill="#999" class="taxonLabel">Heliomedusa orienta</text><text x="362.8" y="531.7" fill="grey" class="flag">[?]</text><text x="384.8" y="531.7" fill="#999" class="taxonLabel">Micromitra</text><text x="362.8" y="545.8" fill="grey" class="flag">[?]</text><text x="384.8" y="545.8" fill="#999" class="taxonLabel">Gasconsia</text><text x="392.6" y="503.5" fill="grey" class="flag">[?]</text><text x="414.6" y="503.5" fill="#999" class="taxonLabel">Terebratulina</text><text x="392.6" y="517.6" fill="grey" class="flag">[?]</text><text x="414.6" y="517.6" fill="#999" class="taxonLabel">Orthis</text><text x="482" y="433" fill="grey" class="flag">[?]</text><text x="504" y="433" fill="#999" class="taxonLabel">Yuganotheca elegans</text><text x="482" y="447.1" fill="grey" class="flag">[?]</text><text x="504" y="447.1" fill="#999" class="taxonLabel">Lingulellotreta malongensis</text><text x="452.2" y="461.2" fill="grey" class="flag">[?]</text><text x="474.2" y="461.2" fill="#999" class="taxonLabel">Lingula</text><text x="422.4" y="475.3" fill="grey" class="flag">[?]</text><text x="444.4" y="475.3" fill="#999" class="taxonLabel">Pelagodiscus atlanticus</text><text x="392.6" y="489.4" fill="grey" class="flag">[?]</text><text x="414.6" y="489.4" fill="#999" class="taxonLabel">Novocrania</text><text x="273.3" y="588.1" fill="grey" class="flag">[?]</text><text x="295.3" y="588.1" fill="#999" class="taxonLabel">Micrina</text><text x="243.5" y="602.2" fill="grey" class="flag">[?]</text><text x="265.5" y="602.2" fill="#999" class="taxonLabel">Paterimitra</text><text x="154.1" y="672.7" fill="grey" class="flag">[?]</text><text x="176.1" y="672.7" fill="#999" class="taxonLabel">Eccentrotheca</text><text x="183.9" y="404.8" fill="#e2e2a2" class="flag">[1]</text><text x="205.9" y="404.8" fill="#000" class="taxonLabel">Phoronis</text><text x="183.9" y="418.9" fill="grey" class="flag">[?]</text><text x="205.9" y="418.9" fill="#999" class="taxonLabel">Namacalathus</text><text x="213.7" y="376.6" fill="#e2e2a2" class="flag">[1]</text><text x="235.7" y="376.6" fill="#000" class="taxonLabel">Flustra</text><text x="213.7" y="390.7" fill="#e2e2a2" class="flag">[1]</text><text x="235.7" y="390.7" fill="#000" class="taxonLabel">Amathia</text><text x="332.9" y="306.1" fill="#e2e2a2" class="flag">[1]</text><text x="354.9" y="306.1" fill="#000" class="taxonLabel">Serpula</text><text x="332.9" y="320.2" fill="grey" class="flag">[?]</text><text x="354.9" y="320.2" fill="#999" class="taxonLabel">Capitella</text><text x="303.1" y="334.3" fill="grey" class="flag">[?]</text><text x="325.1" y="334.3" fill="#999" class="taxonLabel">Canadia spinosa</text><text x="273.3" y="348.4" fill="#91bfdb" class="flag">[2]</text><text x="295.3" y="348.4" fill="#000" class="taxonLabel">Sipunculus</text><text x="303.1" y="277.9" fill="grey" class="flag">[?]</text><text x="325.1" y="277.9" fill="#999" class="taxonLabel">Wiwaxia corrugata</text><text x="303.1" y="292" fill="grey" class="flag">[?]</text><text x="325.1" y="292" fill="#999" class="taxonLabel">Odontogriphus omalus</text><text x="392.6" y="235.6" fill="grey" class="flag">[?]</text><text x="414.6" y="235.6" fill="#999" class="taxonLabel">Pojetaia runnegari</text><text x="392.6" y="249.7" fill="grey" class="flag">[?]</text><text x="414.6" y="249.7" fill="#999" class="taxonLabel">Mytilus</text><text x="362.8" y="263.8" fill="#91bfdb" class="flag">[2]</text><text x="384.8" y="263.8" fill="#000" class="taxonLabel">Dentalium</text><text x="422.4" y="179.2" fill="grey" class="flag">[?]</text><text x="444.4" y="179.2" fill="#999" class="taxonLabel">Neopilina</text><text x="422.4" y="193.3" fill="grey" class="flag">[?]</text><text x="444.4" y="193.3" fill="#999" class="taxonLabel">Conocardium elongatum</text><text x="392.6" y="207.4" fill="grey" class="flag">[?]</text><text x="414.6" y="207.4" fill="#999" class="taxonLabel">Haliotis</text><text x="362.8" y="221.5" fill="grey" class="flag">[?]</text><text x="384.8" y="221.5" fill="#999" class="taxonLabel">Pelagiella</text><text x="452.2" y="122.8" fill="grey" class="flag">[?]</text><text x="474.2" y="122.8" fill="#999" class="taxonLabel">Kulindroplax perissokomos</text><text x="452.2" y="136.9" fill="grey" class="flag">[?]</text><text x="474.2" y="136.9" fill="#999" class="taxonLabel">Acaenoplax hayae</text><text x="452.2" y="94.6" fill="grey" class="flag">[?]</text><text x="474.2" y="94.6" fill="#999" class="taxonLabel">Wirenia</text><text x="452.2" y="108.7" fill="grey" class="flag">[?]</text><text x="474.2" y="108.7" fill="#999" class="taxonLabel">Chaetoderma</text><text x="392.6" y="151" fill="grey" class="flag">[?]</text><text x="414.6" y="151" fill="#999" class="taxonLabel">Phthipodochiton thraivensis</text><text x="362.8" y="165.1" fill="grey" class="flag">[?]</text><text x="384.8" y="165.1" fill="#999" class="taxonLabel">Siphogonuchites multa</text><text x="482" y="10" fill="#91bfdb" class="flag">[2]</text><text x="504" y="10" fill="#000" class="taxonLabel">Tonicella</text><text x="482" y="24.1" fill="grey" class="flag">[?]</text><text x="504" y="24.1" fill="#999" class="taxonLabel">Mopalia</text><text x="452.2" y="38.2" fill="grey" class="flag">[?]</text><text x="474.2" y="38.2" fill="#999" class="taxonLabel">Polysacos vickersianum</text><text x="422.4" y="52.3" fill="grey" class="flag">[?]</text><text x="444.4" y="52.3" fill="#999" class="taxonLabel">Leptochiton</text><text x="392.6" y="66.4" fill="grey" class="flag">[?]</text><text x="414.6" y="66.4" fill="#999" class="taxonLabel">Glaphurochiton carbonarius</text><text x="362.8" y="80.5" fill="grey" class="flag">[?]</text><text x="384.8" y="80.5" fill="#999" class="taxonLabel">Calvapilosa kroegeri</text><text x="213.7" y="362.5" fill="#e2e2a2" class="flag">[1]</text><text x="235.7" y="362.5" fill="#000" class="taxonLabel">Loxosomella</text><text x="94.4" y="686.8" fill="grey" class="flag">[?]</text><text x="116.4" y="686.8" fill="#999" class="taxonLabel">Cotyledion tylodes</text><text x="64.6" y="700.9" fill="grey" class="flag">[?]</text><text x="86.6" y="700.9" fill="#999" class="taxonLabel">Dailyatia</text><text x="34.8" y="715" fill="grey" class="flag">[?]</text><text x="56.8" y="715" fill="#999" class="taxonLabel">Yilingia spiciformis</text><path d="M5,680.1V648.2H34.8M34.8,648.2V598.5H64.6M64.6,598.5V513.2H94.4M94.4,513.2V379.4H124.2M124.2,379.4V349.9H154.1M154.1,349.9V319.1H183.9M183.9,319.1V278.7H213.7M303.1,310.1V303.1H332.9M183.9,319.1V359.5H213.7M154.1,349.9V380.6H183.9M183.9,380.6V373.6H213.7M183.9,380.6V387.7H213.7M124.2,379.4V408.9H154.1M154.1,408.9V401.8H183.9M154.1,408.9V415.9H183.9M94.4,513.2V647.1H124.2M124.2,647.1V624.5H154.1M154.1,624.5V600.4H183.9M183.9,600.4V580.5H213.7M213.7,580.5V561.8H243.5M243.5,561.8V538.5H273.3M273.3,538.5V513.1H303.1M303.1,513.1V490.4H332.9M332.9,490.4V473.2H362.8M362.8,473.2V460H392.6M392.6,460V447.6H422.4M422.4,447.6V437H452.2M452.2,437V430H482M452.2,437V444.1H482M422.4,447.6V458.2H452.2M392.6,460V472.3H422.4M362.8,473.2V486.4H392.6M332.9,490.4V507.5H362.8M362.8,507.5V500.5H392.6M362.8,507.5V514.6H392.6M303.1,513.1V535.8H332.9M332.9,535.8V528.7H362.8M332.9,535.8V542.8H362.8M273.3,538.5V564H303.1M303.1,564V556.9H332.9M303.1,564V571H332.9M243.5,561.8V585.1H273.3M213.7,580.5V599.2H243.5M183.9,600.4V620.3H213.7M213.7,620.3V613.3H243.5M213.7,620.3V627.4H243.5M154.1,624.5V648.5H183.9M183.9,648.5V641.5H213.7M183.9,648.5V655.6H213.7M124.2,647.1V669.7H154.1M64.6,598.5V683.8H94.4M34.8,648.2V697.9H64.6M5,680.1V712H34.8" stroke="#e2e2a2"></path><path d="M213.7,278.7V224.3H243.5M243.5,224.3V281.9H273.3M273.3,281.9V274.9H303.1M273.3,281.9V289H303.1M213.7,278.7V333.1H243.5M243.5,333.1V320.7H273.3M273.3,320.7V310.1H303.1M303.1,310.1V317.2H332.9M273.3,320.7V331.3H303.1" stroke="darkgrey"></path><path d="M243.5,224.3V166.6H273.3M273.3,166.6V105H303.1M303.1,105V63.8H332.9M332.9,63.8V50.2H362.8M362.8,50.2V37H392.6M392.6,37V24.6H422.4M422.4,24.6V14.1H452.2M452.2,14.1V7H482M452.2,14.1V21.1H482M422.4,24.6V35.2H452.2M392.6,37V49.3H422.4M362.8,50.2V63.4H392.6M332.9,63.8V77.5H362.8M303.1,105V146.2H332.9M332.9,146.2V130.4H362.8M362.8,130.4V112.8H392.6M392.6,112.8V98.7H422.4M422.4,98.7V91.6H452.2M422.4,98.7V105.7H452.2M392.6,112.8V126.8H422.4M422.4,126.8V119.8H452.2M422.4,126.8V133.9H452.2M362.8,130.4V148H392.6M332.9,146.2V162.1H362.8M273.3,166.6V228.2H303.1M303.1,228.2V206.2H332.9M332.9,206.2V193.8H362.8M362.8,193.8V183.2H392.6M392.6,183.2V176.2H422.4M392.6,183.2V190.3H422.4M362.8,193.8V204.4H392.6M332.9,206.2V218.5H362.8M303.1,228.2V250.2H332.9M332.9,250.2V239.6H362.8M362.8,239.6V232.6H392.6M362.8,239.6V246.7H392.6M332.9,250.2V260.8H362.8M243.5,333.1V345.4H273.3" stroke="#91bfdb"></path><text x="36.8" y="651.2" class="node" fill="#8696E1">0.83</text><text x="66.6" y="601.5" class="node" fill="#DD6F88">0.13</text><text x="96.4" y="516.2" class="node" fill="#E5C7CC">0.41</text><text x="126.2" y="382.4" class="node" fill="#E5C7CC">0.41</text><text x="156.1" y="352.9" class="node" fill="#E5C7CC">0.41</text><text x="185.9" y="322.1" class="node" fill="#5B78E2">0.96</text><text x="215.7" y="281.7" class="node" fill="#4A6FE3">1</text><text x="245.5" y="227.3" class="node" fill="#E5C7CC">0.41</text><text x="275.3" y="169.6" class="node" fill="#E5CDD1">0.43</text><text x="305.1" y="108" class="node" fill="#5374E2">0.98</text><text x="334.9" y="66.8" class="node" fill="#5374E2">0.98</text><text x="364.8" y="53.2" class="node" fill="#4A6FE3">1</text><text x="394.6" y="40" class="node" fill="#4A6FE3">1</text><text x="424.4" y="27.6" class="node" fill="#4A6FE3">1</text><text x="454.2" y="17.1" class="node" fill="#E28699">0.2</text><text x="334.9" y="149.2" class="node" fill="#E5CDD1">0.43</text><text x="364.8" y="133.4" class="node" fill="#E38C9E">0.22</text><text x="394.6" y="115.8" class="node" fill="#5374E2">0.98</text><text x="424.4" y="101.7" class="node" fill="#E5CDD1">0.43</text><text x="424.4" y="129.8" class="node" fill="#5374E2">0.98</text><text x="305.1" y="231.2" class="node" fill="#E38C9E">0.22</text><text x="334.9" y="209.2" class="node" fill="#5374E2">0.98</text><text x="364.8" y="196.8" class="node" fill="#5374E2">0.98</text><text x="394.6" y="186.2" class="node" fill="#5374E2">0.98</text><text x="334.9" y="253.2" class="node" fill="#4A6FE3">1</text><text x="364.8" y="242.6" class="node" fill="#4A6FE3">1</text><text x="275.3" y="284.9" class="node" fill="#4A6FE3">1</text><text x="245.5" y="336.1" class="node" fill="#4A6FE3">1</text><text x="275.3" y="323.7" class="node" fill="#4A6FE3">1</text><text x="305.1" y="313.1" class="node" fill="#4A6FE3">1</text><text x="185.9" y="383.6" class="node" fill="#E59FAC">0.28</text><text x="156.1" y="411.9" class="node" fill="#E28699">0.2</text><text x="126.2" y="650.1" class="node" fill="#E5CDD1">0.43</text><text x="156.1" y="627.5" class="node" fill="#E4D6D8">0.46</text><text x="185.9" y="603.4" class="node" fill="#5B78E2">0.96</text><text x="215.7" y="583.5" class="node" fill="#5B78E2">0.96</text><text x="245.5" y="564.8" class="node" fill="#5B78E2">0.96</text><text x="275.3" y="541.5" class="node" fill="#5374E2">0.98</text><text x="305.1" y="516.1" class="node" fill="#5374E2">0.98</text><text x="334.9" y="493.4" class="node" fill="#5374E2">0.98</text><text x="364.8" y="476.2" class="node" fill="#5374E2">0.98</text><text x="394.6" y="463" class="node" fill="#4A6FE3">1</text><text x="424.4" y="450.6" class="node" fill="#E2E2E2">0.5</text><text x="454.2" y="440" class="node" fill="#4A6FE3">1</text><text x="364.8" y="510.5" class="node" fill="#4A6FE3">1</text><text x="334.9" y="538.8" class="node" fill="#5B78E2">0.96</text><text x="305.1" y="567" class="node" fill="#4A6FE3">1</text><text x="215.7" y="623.3" class="node" fill="#B9BFE3">0.65</text><text x="185.9" y="651.5" class="node" fill="#8696E1">0.83</text></svg>
