<svg xmlns="http://www.w3.org/2000/svg" version="1.1" viewBox="0 0 682 720" preserveAspectRatio="xMidYMid meet" class="tree" data-char="162"><text x="678" y="16.8" text-anchor="end" class="stepsLabel">Character adds <tspan class="score">1</tspan> to tree score</text><text x="678" y="30.6" text-anchor="end" class="stepsLabel"><tspan class="score">0</tspan> additional regions</text><text x="678" y="44.4" text-anchor="end" class="stepsLabel"></text><text x="678" y="72" text-anchor="end" class="stepsLabel"><tspan dy="16" fill="#34caaf">An optimal tree under:</tspan><tspan x="680" style="font-style:italic" class="notThisAn" dy="1.2em">Implied weights, k = 3</tspan><tspan x="680" style="font-style:italic" class="notThisAn" dy="1.2em">IW, k = 4.5</tspan><tspan x="680" style="font-style:italic" class="notThisAn" dy="1.2em">IW, k = 7</tspan><tspan x="680" style="font-style:italic" class="notThisAn" dy="1.2em">IW, k = 10.5</tspan><tspan x="680" style="font-style:italic" class="notThisAn" dy="1.2em">IW, k = 16</tspan><tspan x="680" style="font-style:italic" class="notThisAn" dy="1.2em">IW, k = 24</tspan><tspan x="680" style="font-style:italic" class="thisAn" dy="1.2em">Equal weights</tspan></text><text x="205.8" y="616.3" fill="NA" class="flag">[-]</text><text x="227.8" y="616.3" fill="NA" class="taxonLabel">Flustra</text><text x="205.8" y="630.4" fill="NA" class="flag">[-]</text><text x="227.8" y="630.4" fill="NA" class="taxonLabel">Amathia</text><text x="180.7" y="644.5" fill="NA" class="flag">[-]</text><text x="202.7" y="644.5" fill="NA" class="taxonLabel">Loxosomella</text><text x="155.6" y="658.6" fill="NA" class="flag">[-]</text><text x="177.6" y="658.6" fill="NA" class="taxonLabel">Phoronis</text><text x="130.5" y="672.7" fill="NA" class="flag">[-]</text><text x="152.5" y="672.7" fill="NA" class="taxonLabel">Namacalathus</text><text x="180.7" y="574" fill="NA" class="flag">[-]</text><text x="202.7" y="574" fill="NA" class="taxonLabel">Orthrozanclus</text><text x="180.7" y="588.1" fill="NA" class="flag">[-]</text><text x="202.7" y="588.1" fill="NA" class="taxonLabel">Halkieria evangelista</text><text x="205.8" y="545.8" fill="NA" class="flag">[-]</text><text x="227.8" y="545.8" fill="NA" class="taxonLabel">Pedunculotheca diania</text><text x="205.8" y="559.9" fill="NA" class="flag">[-]</text><text x="227.8" y="559.9" fill="NA" class="taxonLabel">Haplophrentis carinatus</text><text x="306.3" y="489.4" fill="NA" class="flag">[2]</text><text x="328.3" y="489.4" fill="NA" class="taxonLabel">Mickwitzia muralensis</text><text x="306.3" y="503.5" fill="NA" class="flag">[-]</text><text x="328.3" y="503.5" fill="NA" class="taxonLabel">Heliomedusa orienta</text><text x="331.4" y="461.2" fill="NA" class="flag">[2]</text><text x="353.4" y="461.2" fill="NA" class="taxonLabel">Micromitra</text><text x="331.4" y="475.3" fill="NA" class="flag">[1]</text><text x="353.4" y="475.3" fill="NA" class="taxonLabel">Gasconsia</text><text x="356.5" y="433" fill="NA" class="flag">[-]</text><text x="378.5" y="433" fill="NA" class="taxonLabel">Terebratulina</text><text x="356.5" y="447.1" fill="NA" class="flag">[-]</text><text x="378.5" y="447.1" fill="NA" class="taxonLabel">Orthis</text><text x="431.8" y="362.5" fill="NA" class="flag">[?]</text><text x="453.8" y="362.5" fill="NA" class="taxonLabel">Yuganotheca elegans</text><text x="431.8" y="376.6" fill="NA" class="flag">[-]</text><text x="453.8" y="376.6" fill="NA" class="taxonLabel">Lingula</text><text x="406.7" y="390.7" fill="NA" class="flag">[-]</text><text x="428.7" y="390.7" fill="NA" class="taxonLabel">Lingulellotreta malongensis</text><text x="381.6" y="404.8" fill="NA" class="flag">[-]</text><text x="403.6" y="404.8" fill="NA" class="taxonLabel">Pelagodiscus atlanticus</text><text x="356.5" y="418.9" fill="NA" class="flag">[-]</text><text x="378.5" y="418.9" fill="NA" class="taxonLabel">Novocrania</text><text x="256.1" y="517.6" fill="NA" class="flag">[2]</text><text x="278.1" y="517.6" fill="NA" class="taxonLabel">Micrina</text><text x="230.9" y="531.7" fill="NA" class="flag">[2]</text><text x="252.9" y="531.7" fill="NA" class="taxonLabel">Paterimitra</text><text x="306.3" y="306.1" fill="NA" class="flag">[-]</text><text x="328.3" y="306.1" fill="NA" class="taxonLabel">Serpula</text><text x="306.3" y="320.2" fill="NA" class="flag">[-]</text><text x="328.3" y="320.2" fill="NA" class="taxonLabel">Capitella</text><text x="281.2" y="334.3" fill="NA" class="flag">[-]</text><text x="303.2" y="334.3" fill="NA" class="taxonLabel">Canadia spinosa</text><text x="256.1" y="348.4" fill="NA" class="flag">[-]</text><text x="278.1" y="348.4" fill="NA" class="taxonLabel">Sipunculus</text><text x="356.5" y="249.7" fill="NA" class="flag">[-]</text><text x="378.5" y="249.7" fill="NA" class="taxonLabel">Wirenia</text><text x="356.5" y="263.8" fill="NA" class="flag">[-]</text><text x="378.5" y="263.8" fill="NA" class="taxonLabel">Chaetoderma</text><text x="482" y="151" fill="NA" class="flag">[-]</text><text x="504" y="151" fill="NA" class="taxonLabel">Tonicella</text><text x="482" y="165.1" fill="NA" class="flag">[-]</text><text x="504" y="165.1" fill="NA" class="taxonLabel">Mopalia</text><text x="456.9" y="179.2" fill="NA" class="flag">[-]</text><text x="478.9" y="179.2" fill="NA" class="taxonLabel">Polysacos vickersianum</text><text x="431.8" y="193.3" fill="NA" class="flag">[-]</text><text x="453.8" y="193.3" fill="NA" class="taxonLabel">Leptochiton</text><text x="406.7" y="207.4" fill="NA" class="flag">[-]</text><text x="428.7" y="207.4" fill="NA" class="taxonLabel">Glaphurochiton carbonarius</text><text x="381.6" y="221.5" fill="NA" class="flag">[-]</text><text x="403.6" y="221.5" fill="NA" class="taxonLabel">Calvapilosa kroegeri</text><text x="356.5" y="235.6" fill="NA" class="flag">[-]</text><text x="378.5" y="235.6" fill="NA" class="taxonLabel">Phthipodochiton thraivensis</text><text x="381.6" y="108.7" fill="NA" class="flag">[-]</text><text x="403.6" y="108.7" fill="NA" class="taxonLabel">Wiwaxia corrugata</text><text x="381.6" y="122.8" fill="NA" class="flag">[-]</text><text x="403.6" y="122.8" fill="NA" class="taxonLabel">Odontogriphus omalus</text><text x="456.9" y="52.3" fill="NA" class="flag">[-]</text><text x="478.9" y="52.3" fill="NA" class="taxonLabel">Neopilina</text><text x="456.9" y="66.4" fill="NA" class="flag">[-]</text><text x="478.9" y="66.4" fill="NA" class="taxonLabel">Conocardium elongatum</text><text x="431.8" y="80.5" fill="NA" class="flag">[-]</text><text x="453.8" y="80.5" fill="NA" class="taxonLabel">Haliotis</text><text x="456.9" y="10" fill="NA" class="flag">[-]</text><text x="478.9" y="10" fill="NA" class="taxonLabel">Pojetaia runnegari</text><text x="456.9" y="24.1" fill="NA" class="flag">[-]</text><text x="478.9" y="24.1" fill="NA" class="taxonLabel">Mytilus</text><text x="431.8" y="38.2" fill="NA" class="flag">[-]</text><text x="453.8" y="38.2" fill="NA" class="taxonLabel">Dentalium</text><text x="381.6" y="94.6" fill="NA" class="flag">[-]</text><text x="403.6" y="94.6" fill="NA" class="taxonLabel">Pelagiella</text><text x="331.4" y="136.9" fill="NA" class="flag">[?]</text><text x="353.4" y="136.9" fill="NA" class="taxonLabel">Siphogonuchites multa</text><text x="281.2" y="277.9" fill="NA" class="flag">[-]</text><text x="303.2" y="277.9" fill="NA" class="taxonLabel">Acaenoplax hayae</text><text x="256.1" y="292" fill="NA" class="flag">[-]</text><text x="278.1" y="292" fill="NA" class="taxonLabel">Kulindroplax perissokomos</text><text x="130.5" y="602.2" fill="NA" class="flag">[-]</text><text x="152.5" y="602.2" fill="NA" class="taxonLabel">Eccentrotheca</text><text x="80.3" y="686.8" fill="NA" class="flag">[-]</text><text x="102.3" y="686.8" fill="NA" class="taxonLabel">Cotyledion tylodes</text><text x="55.2" y="700.9" fill="NA" class="flag">[-]</text><text x="77.2" y="700.9" fill="NA" class="taxonLabel">Dailyatia</text><text x="30.1" y="715" fill="NA" class="flag">[-]</text><text x="52.1" y="715" fill="NA" class="taxonLabel">Yilingia spiciformis</text><path d="MNA,NAVNAHNAMNA,NAVNAHNAMNA,NAVNAHNAMNA,NAVNAHNAMNA,NAVNAHNAMNA,NAVNAHNAMNA,NAVNAHNAMNA,NAVNAHNAMNA,NAVNAHNAMNA,NAVNAHNAMNA,NAVNAHNAMNA,NAVNAHNAMNA,NAVNAHNAMNA,NAVNAHNAMNA,NAVNAHNAMNA,NAVNAHNAMNA,NAVNAHNAMNA,NAVNAHNAMNA,NAVNAHNAMNA,NAVNAHNAMNA,NAVNAHNAMNA,NAVNAHNAMNA,NAVNAHNAMNA,NAVNAHNAMNA,NAVNAHNAMNA,NAVNAHNAMNA,NAVNAHNAMNA,NAVNAHNAMNA,NAVNAHNAMNA,NAVNAHNAMNA,NAVNAHNAMNA,NAVNAHNAMNA,NAVNAHNAMNA,NAVNAHNAMNA,NAVNAHNAMNA,NAVNAHNAMNA,NAVNAHNAMNA,NAVNAHNAMNA,NAVNAHNAMNA,NAVNAHNAMNA,NAVNAHNAMNA,NAVNAHNAMNA,NAVNAHNAMNA,NAVNAHNAMNA,NAVNAHNAMNA,NAVNAHNAMNA,NAVNAHNAMNA,NAVNAHNAMNA,NAVNAHNAMNA,NAVNAHNAMNA,NAVNAHNAMNA,NAVNAHNAMNA,NAVNAHNAMNA,NAVNAHNAMNA,NAVNAHNAMNA,NAVNAHNAMNA,NAVNAHNAMNA,NAVNAHNAMNA,NAVNAHNAMNA,NAVNAHNAMNA,NAVNAHNAMNA,NAVNAHNAMNA,NAVNAHNAMNA,NAVNAHNAMNA,NAVNAHNAMNA,NAVNAHNAMNA,NAVNAHNAMNA,NAVNAHNAMNA,NAVNAHNAMNA,NAVNAHNAMNA,NAVNAHNAMNA,NAVNAHNAMNA,NAVNAHNAMNA,NAVNAHNAMNA,NAVNAHNAMNA,NAVNAHNAMNA,NAVNAHNAMNA,NAVNAHNAMNA,NAVNAHNAMNA,NAVNAHNAMNA,NAVNAHNAMNA,NAVNAHNAMNA,NAVNAHNAMNA,NAVNAHNAMNA,NAVNAHNAMNA,NAVNAHNAMNA,NAVNAHNAMNA,NAVNAHNAMNA,NAVNAHNAMNA,NAVNAHNAMNA,NAVNAHNAMNA,NAVNAHNAMNA,NAVNAHNAMNA,NAVNAHNAMNA,NAVNAHNAMNA,NAVNAHNAMNA,NAVNAHNAMNA,NAVNAHNAMNA,NAVNAHNAMNA,NAVNAHNA" stroke="NANA"></path><text x="32.1" y="675.4" class="node" fill="#8696E1">0.83</text><text x="57.2" y="649.8" class="node" fill="#DD6F88">0.13</text><text x="82.3" y="612.8" class="node" fill="#E28699">0.2</text><text x="107.4" y="566.2" class="node" fill="#D7D9E3">0.54</text><text x="132.5" y="530.1" class="node" fill="#E4D6D8">0.46</text><text x="157.6" y="479.2" class="node" fill="#E4D6D8">0.46</text><text x="182.7" y="405.5" class="node" fill="#5B78E2">0.96</text><text x="207.8" y="297.9" class="node" fill="#4A6FE3">1</text><text x="232.9" y="259.8" class="node" fill="#D2D4E3">0.57</text><text x="258.1" y="227.6" class="node" fill="#D2D4E3">0.57</text><text x="283.2" y="177.3" class="node" fill="#E4D6D8">0.46</text><text x="308.3" y="115.3" class="node" fill="#D2D4E3">0.57</text><text x="333.4" y="93.7" class="node" fill="#5374E2">0.98</text><text x="358.5" y="71.7" class="node" fill="#95A1E2">0.78</text><text x="383.6" y="48.8" class="node" fill="#5374E2">0.98</text><text x="408.7" y="27.6" class="node" fill="#4A6FE3">1</text><text x="433.8" y="17.1" class="node" fill="#5374E2">0.98</text><text x="408.7" y="69.9" class="node" fill="#5374E2">0.98</text><text x="433.8" y="59.3" class="node" fill="#4A6FE3">1</text><text x="358.5" y="115.8" class="node" fill="#E3DCDD">0.48</text><text x="308.3" y="239.2" class="node" fill="#D7D9E3">0.54</text><text x="333.4" y="221.7" class="node" fill="#5374E2">0.98</text><text x="358.5" y="207.8" class="node" fill="#5374E2">0.98</text><text x="383.6" y="194.2" class="node" fill="#4A6FE3">1</text><text x="408.7" y="181" class="node" fill="#4A6FE3">1</text><text x="433.8" y="168.6" class="node" fill="#4A6FE3">1</text><text x="458.9" y="158.1" class="node" fill="#5374E2">0.98</text><text x="333.4" y="256.7" class="node" fill="#4A6FE3">1</text><text x="232.9" y="336.1" class="node" fill="#4A6FE3">1</text><text x="258.1" y="323.7" class="node" fill="#4A6FE3">1</text><text x="283.2" y="313.1" class="node" fill="#5B78E2">0.96</text><text x="207.8" y="513" class="node" fill="#5B78E2">0.96</text><text x="232.9" y="494.3" class="node" fill="#5B78E2">0.96</text><text x="258.1" y="471" class="node" fill="#5374E2">0.98</text><text x="283.2" y="445.6" class="node" fill="#5374E2">0.98</text><text x="308.3" y="422.9" class="node" fill="#5374E2">0.98</text><text x="333.4" y="405.7" class="node" fill="#5374E2">0.98</text><text x="358.5" y="392.5" class="node" fill="#4A6FE3">1</text><text x="383.6" y="380.1" class="node" fill="#E2E2E2">0.5</text><text x="408.7" y="369.5" class="node" fill="#4A6FE3">1</text><text x="333.4" y="440" class="node" fill="#4A6FE3">1</text><text x="308.3" y="468.2" class="node" fill="#5B78E2">0.96</text><text x="283.2" y="496.4" class="node" fill="#4A6FE3">1</text><text x="182.7" y="552.8" class="node" fill="#B9BFE3">0.65</text><text x="157.6" y="581" class="node" fill="#D7D9E3">0.54</text><text x="107.4" y="659.5" class="node" fill="#E2E2E2">0.5</text><text x="132.5" y="646.3" class="node" fill="#D7D9E3">0.54</text><text x="157.6" y="633.9" class="node" fill="#4A6FE3">1</text><text x="182.7" y="623.3" class="node" fill="#8696E1">0.83</text></svg>
