<svg xmlns="http://www.w3.org/2000/svg" version="1.1" viewBox="0 0 682 720" preserveAspectRatio="xMidYMid meet" class="tree" data-char="242"><text x="678" y="16.8" text-anchor="end" class="stepsLabel">Character adds <tspan class="score">1</tspan> to tree score</text><text x="678" y="30.6" text-anchor="end" class="stepsLabel"><tspan class="score">0</tspan> additional regions</text><text x="678" y="44.4" text-anchor="end" class="stepsLabel"></text><text x="678" y="72" text-anchor="end" class="stepsLabel"><tspan dy="16" fill="#34caaf">An optimal tree under:</tspan><tspan x="680" style="font-style:italic" class="notThisAn" dy="1.2em">Implied weights, k = 3</tspan><tspan x="680" style="font-style:italic" class="notThisAn" dy="1.2em">IW, k = 4.5</tspan><tspan x="680" style="font-style:italic" class="notThisAn" dy="1.2em">IW, k = 7</tspan><tspan x="680" style="font-style:italic" class="notThisAn" dy="1.2em">IW, k = 10.5</tspan><tspan x="680" style="font-style:italic" class="notThisAn" dy="1.2em">IW, k = 16</tspan><tspan x="680" style="font-style:italic" class="thisAn" dy="1.2em">IW, k = 24</tspan><tspan x="680" style="font-style:italic" class="notThisAn" dy="1.2em">Equal weights</tspan></text><text x="180.7" y="644.5" fill="grey" class="flag">[?]</text><text x="202.7" y="644.5" fill="#999" class="taxonLabel">Orthrozanclus</text><text x="180.7" y="658.6" fill="grey" class="flag">[?]</text><text x="202.7" y="658.6" fill="#999" class="taxonLabel">Halkieria evangelista</text><text x="205.8" y="616.3" fill="grey" class="flag">[?]</text><text x="227.8" y="616.3" fill="#999" class="taxonLabel">Pedunculotheca diania</text><text x="205.8" y="630.4" fill="grey" class="flag">[?]</text><text x="227.8" y="630.4" fill="#999" class="taxonLabel">Haplophrentis carinatus</text><text x="281.2" y="559.9" fill="grey" class="flag">[?]</text><text x="303.2" y="559.9" fill="#999" class="taxonLabel">Mickwitzia muralensis</text><text x="281.2" y="574" fill="grey" class="flag">[?]</text><text x="303.2" y="574" fill="#999" class="taxonLabel">Heliomedusa orienta</text><text x="306.3" y="531.7" fill="grey" class="flag">[?]</text><text x="328.3" y="531.7" fill="#999" class="taxonLabel">Micromitra</text><text x="306.3" y="545.8" fill="grey" class="flag">[?]</text><text x="328.3" y="545.8" fill="#999" class="taxonLabel">Gasconsia</text><text x="331.4" y="503.5" fill="grey" class="flag">[?]</text><text x="353.4" y="503.5" fill="#999" class="taxonLabel">Terebratulina</text><text x="331.4" y="517.6" fill="grey" class="flag">[?]</text><text x="353.4" y="517.6" fill="#999" class="taxonLabel">Orthis</text><text x="406.7" y="433" fill="grey" class="flag">[?]</text><text x="428.7" y="433" fill="#999" class="taxonLabel">Yuganotheca elegans</text><text x="406.7" y="447.1" fill="grey" class="flag">[?]</text><text x="428.7" y="447.1" fill="#999" class="taxonLabel">Lingulellotreta malongensis</text><text x="381.6" y="461.2" fill="#fc8d59" class="flag">[0]</text><text x="403.6" y="461.2" fill="#000" class="taxonLabel">Lingula</text><text x="356.5" y="475.3" fill="grey" class="flag">[?]</text><text x="378.5" y="475.3" fill="#999" class="taxonLabel">Pelagodiscus atlanticus</text><text x="331.4" y="489.4" fill="#fc8d59" class="flag">[0]</text><text x="353.4" y="489.4" fill="#000" class="taxonLabel">Novocrania</text><text x="230.9" y="588.1" fill="grey" class="flag">[?]</text><text x="252.9" y="588.1" fill="#999" class="taxonLabel">Micrina</text><text x="205.8" y="602.2" fill="grey" class="flag">[?]</text><text x="227.8" y="602.2" fill="#999" class="taxonLabel">Paterimitra</text><text x="130.5" y="672.7" fill="grey" class="flag">[?]</text><text x="152.5" y="672.7" fill="#999" class="taxonLabel">Eccentrotheca</text><text x="105.4" y="686.8" fill="grey" class="flag">[?]</text><text x="127.4" y="686.8" fill="#999" class="taxonLabel">Cotyledion tylodes</text><text x="130.5" y="404.8" fill="#fc8d59" class="flag">[0]</text><text x="152.5" y="404.8" fill="#000" class="taxonLabel">Phoronis</text><text x="130.5" y="418.9" fill="grey" class="flag">[?]</text><text x="152.5" y="418.9" fill="#999" class="taxonLabel">Namacalathus</text><text x="155.6" y="376.6" fill="#91bfdb" class="flag">[1]</text><text x="177.6" y="376.6" fill="#000" class="taxonLabel">Flustra</text><text x="155.6" y="390.7" fill="#91bfdb" class="flag">[1]</text><text x="177.6" y="390.7" fill="#000" class="taxonLabel">Amathia</text><text x="256.1" y="306.1" fill="#91bfdb" class="flag">[1]</text><text x="278.1" y="306.1" fill="#000" class="taxonLabel">Serpula</text><text x="256.1" y="320.2" fill="grey" class="flag">[?]</text><text x="278.1" y="320.2" fill="#999" class="taxonLabel">Capitella</text><text x="230.9" y="334.3" fill="grey" class="flag">[?]</text><text x="252.9" y="334.3" fill="#999" class="taxonLabel">Canadia spinosa</text><text x="205.8" y="348.4" fill="#91bfdb" class="flag">[1]</text><text x="227.8" y="348.4" fill="#000" class="taxonLabel">Sipunculus</text><text x="482" y="136.9" fill="#91bfdb" class="flag">[1]</text><text x="504" y="136.9" fill="#000" class="taxonLabel">Tonicella</text><text x="482" y="151" fill="grey" class="flag">[?]</text><text x="504" y="151" fill="#999" class="taxonLabel">Mopalia</text><text x="456.9" y="165.1" fill="grey" class="flag">[?]</text><text x="478.9" y="165.1" fill="#999" class="taxonLabel">Polysacos vickersianum</text><text x="431.8" y="179.2" fill="grey" class="flag">[?]</text><text x="453.8" y="179.2" fill="#999" class="taxonLabel">Leptochiton</text><text x="406.7" y="193.3" fill="grey" class="flag">[?]</text><text x="428.7" y="193.3" fill="#999" class="taxonLabel">Glaphurochiton carbonarius</text><text x="381.6" y="207.4" fill="grey" class="flag">[?]</text><text x="403.6" y="207.4" fill="#999" class="taxonLabel">Calvapilosa kroegeri</text><text x="356.5" y="221.5" fill="grey" class="flag">[?]</text><text x="378.5" y="221.5" fill="#999" class="taxonLabel">Siphogonuchites multa</text><text x="381.6" y="108.7" fill="grey" class="flag">[?]</text><text x="403.6" y="108.7" fill="#999" class="taxonLabel">Wiwaxia corrugata</text><text x="381.6" y="122.8" fill="grey" class="flag">[?]</text><text x="403.6" y="122.8" fill="#999" class="taxonLabel">Odontogriphus omalus</text><text x="456.9" y="52.3" fill="grey" class="flag">[?]</text><text x="478.9" y="52.3" fill="#999" class="taxonLabel">Neopilina</text><text x="456.9" y="66.4" fill="grey" class="flag">[?]</text><text x="478.9" y="66.4" fill="#999" class="taxonLabel">Conocardium elongatum</text><text x="431.8" y="80.5" fill="#91bfdb" class="flag">[1]</text><text x="453.8" y="80.5" fill="#000" class="taxonLabel">Haliotis</text><text x="456.9" y="10" fill="grey" class="flag">[?]</text><text x="478.9" y="10" fill="#999" class="taxonLabel">Pojetaia runnegari</text><text x="456.9" y="24.1" fill="grey" class="flag">[?]</text><text x="478.9" y="24.1" fill="#999" class="taxonLabel">Mytilus</text><text x="431.8" y="38.2" fill="#91bfdb" class="flag">[1]</text><text x="453.8" y="38.2" fill="#000" class="taxonLabel">Dentalium</text><text x="381.6" y="94.6" fill="grey" class="flag">[?]</text><text x="403.6" y="94.6" fill="#999" class="taxonLabel">Pelagiella</text><text x="306.3" y="235.6" fill="grey" class="flag">[?]</text><text x="328.3" y="235.6" fill="#999" class="taxonLabel">Acaenoplax hayae</text><text x="281.2" y="249.7" fill="grey" class="flag">[?]</text><text x="303.2" y="249.7" fill="#999" class="taxonLabel">Phthipodochiton thraivensis</text><text x="256.1" y="263.8" fill="grey" class="flag">[?]</text><text x="278.1" y="263.8" fill="#999" class="taxonLabel">Kulindroplax perissokomos</text><text x="230.9" y="277.9" fill="grey" class="flag">[?]</text><text x="252.9" y="277.9" fill="#999" class="taxonLabel">Chaetoderma</text><text x="205.8" y="292" fill="grey" class="flag">[?]</text><text x="227.8" y="292" fill="#999" class="taxonLabel">Wirenia</text><text x="155.6" y="362.5" fill="#91bfdb" class="flag">[1]</text><text x="177.6" y="362.5" fill="#000" class="taxonLabel">Loxosomella</text><text x="55.2" y="700.9" fill="grey" class="flag">[?]</text><text x="77.2" y="700.9" fill="#999" class="taxonLabel">Dailyatia</text><text x="30.1" y="715" fill="grey" class="flag">[?]</text><text x="52.1" y="715" fill="#999" class="taxonLabel">Yilingia spiciformis</text><path d="M5,661.5V610.9H30.1M30.1,610.9V523.9H55.2M55.2,523.9V382.4H80.3M80.3,382.4V408.9H105.4M105.4,408.9V401.8H130.5M105.4,408.9V415.9H130.5M55.2,523.9V665.4H80.3M80.3,665.4V647.1H105.4M105.4,647.1V624.5H130.5M130.5,624.5V600.4H155.6M155.6,600.4V580.5H180.7M180.7,580.5V561.8H205.8M205.8,561.8V538.5H230.9M230.9,538.5V513.1H256.1M256.1,513.1V490.4H281.2M281.2,490.4V473.2H306.3M306.3,473.2V460H331.4M331.4,460V447.6H356.5M356.5,447.6V437H381.6M381.6,437V430H406.7M381.6,437V444.1H406.7M356.5,447.6V458.2H381.6M331.4,460V472.3H356.5M306.3,473.2V486.4H331.4M281.2,490.4V507.5H306.3M306.3,507.5V500.5H331.4M306.3,507.5V514.6H331.4M256.1,513.1V535.8H281.2M281.2,535.8V528.7H306.3M281.2,535.8V542.8H306.3M230.9,538.5V564H256.1M256.1,564V556.9H281.2M256.1,564V571H281.2M205.8,561.8V585.1H230.9M180.7,580.5V599.2H205.8M155.6,600.4V620.3H180.7M180.7,620.3V613.3H205.8M180.7,620.3V627.4H205.8M130.5,624.5V648.5H155.6M155.6,648.5V641.5H180.7M155.6,648.5V655.6H180.7M105.4,647.1V669.7H130.5M80.3,665.4V683.8H105.4M30.1,610.9V697.9H55.2M5,661.5V712H30.1" stroke="#fc8d59"></path><path d="M80.3,382.4V356H105.4M105.4,356V331.3H130.5M130.5,331.3V303.1H155.6M155.6,303.1V273.1H180.7M180.7,273.1V257.3H205.8M205.8,257.3V239.6H230.9M230.9,239.6V218.4H256.1M256.1,218.4V190.1H281.2M281.2,190.1V147.7H306.3M306.3,147.7V90.7H331.4M331.4,90.7V68.7H356.5M356.5,68.7V45.8H381.6M381.6,45.8V24.6H406.7M406.7,24.6V14.1H431.8M431.8,14.1V7H456.9M431.8,14.1V21.1H456.9M406.7,24.6V35.2H431.8M381.6,45.8V66.9H406.7M406.7,66.9V56.3H431.8M431.8,56.3V49.3H456.9M431.8,56.3V63.4H456.9M406.7,66.9V77.5H431.8M356.5,68.7V91.6H381.6M331.4,90.7V112.8H356.5M356.5,112.8V105.7H381.6M356.5,112.8V119.8H381.6M306.3,147.7V204.6H331.4M331.4,204.6V190.7H356.5M356.5,190.7V177.1H381.6M381.6,177.1V163.9H406.7M406.7,163.9V151.5H431.8M431.8,151.5V140.9H456.9M456.9,140.9V133.9H482M456.9,140.9V148H482M431.8,151.5V162.1H456.9M406.7,163.9V176.2H431.8M381.6,177.1V190.3H406.7M356.5,190.7V204.4H381.6M331.4,204.6V218.5H356.5M281.2,190.1V232.6H306.3M256.1,218.4V246.7H281.2M230.9,239.6V260.8H256.1M205.8,257.3V274.9H230.9M180.7,273.1V289H205.8M155.6,303.1V333.1H180.7M180.7,333.1V320.7H205.8M205.8,320.7V310.1H230.9M230.9,310.1V303.1H256.1M230.9,310.1V317.2H256.1M205.8,320.7V331.3H230.9M180.7,333.1V345.4H205.8M130.5,331.3V359.5H155.6M105.4,356V380.6H130.5M130.5,380.6V373.6H155.6M130.5,380.6V387.7H155.6" stroke="#91bfdb"></path><text x="32.1" y="613.9" class="node" fill="#DADBE3">0.53</text><text x="57.2" y="526.9" class="node" fill="#E498A7">0.26</text><text x="82.3" y="385.4" class="node" fill="#E498A7">0.26</text><text x="107.4" y="359" class="node" fill="#E498A7">0.26</text><text x="132.5" y="334.3" class="node" fill="#C4C9E3">0.61</text><text x="157.6" y="306.1" class="node" fill="#4A6FE3">1</text><text x="182.7" y="276.1" class="node" fill="#E498A7">0.26</text><text x="207.8" y="260.3" class="node" fill="#E498A7">0.26</text><text x="232.9" y="242.6" class="node" fill="#E498A7">0.26</text><text x="258.1" y="221.4" class="node" fill="#E498A7">0.26</text><text x="283.2" y="193.1" class="node" fill="#E4D9DB">0.47</text><text x="308.3" y="150.7" class="node" fill="#7388E1">0.89</text><text x="333.4" y="93.7" class="node" fill="#7388E1">0.89</text><text x="358.5" y="71.7" class="node" fill="#7086E1">0.9</text><text x="383.6" y="48.8" class="node" fill="#4A6FE3">1</text><text x="408.7" y="27.6" class="node" fill="#4A6FE3">1</text><text x="433.8" y="17.1" class="node" fill="#4A6FE3">1</text><text x="408.7" y="69.9" class="node" fill="#4A6FE3">1</text><text x="433.8" y="59.3" class="node" fill="#4A6FE3">1</text><text x="358.5" y="115.8" class="node" fill="#E6B1BB">0.34</text><text x="333.4" y="207.6" class="node" fill="#A3ADE2">0.73</text><text x="358.5" y="193.7" class="node" fill="#A3ADE2">0.73</text><text x="383.6" y="180.1" class="node" fill="#4A6FE3">1</text><text x="408.7" y="166.9" class="node" fill="#4A6FE3">1</text><text x="433.8" y="154.5" class="node" fill="#4A6FE3">1</text><text x="458.9" y="143.9" class="node" fill="#4A6FE3">1</text><text x="182.7" y="336.1" class="node" fill="#4A6FE3">1</text><text x="207.8" y="323.7" class="node" fill="#4A6FE3">1</text><text x="232.9" y="313.1" class="node" fill="#4A6FE3">1</text><text x="132.5" y="383.6" class="node" fill="#DC6884">0.11</text><text x="107.4" y="411.9" class="node" fill="#E07C92">0.17</text><text x="82.3" y="668.4" class="node" fill="#E18297">0.19</text><text x="107.4" y="650.1" class="node" fill="#E6BAC2">0.37</text><text x="132.5" y="627.5" class="node" fill="#BCC2E3">0.64</text><text x="157.6" y="603.4" class="node" fill="#A3ADE2">0.73</text><text x="182.7" y="583.5" class="node" fill="#A3ADE2">0.73</text><text x="207.8" y="564.8" class="node" fill="#A3ADE2">0.73</text><text x="232.9" y="541.5" class="node" fill="#A3ADE2">0.73</text><text x="258.1" y="516.1" class="node" fill="#A3ADE2">0.73</text><text x="283.2" y="493.4" class="node" fill="#A3ADE2">0.73</text><text x="308.3" y="476.2" class="node" fill="#A3ADE2">0.73</text><text x="333.4" y="463" class="node" fill="#4A6FE3">1</text><text x="358.5" y="450.6" class="node" fill="#E6C1C7">0.39</text><text x="383.6" y="440" class="node" fill="#4A6FE3">1</text><text x="308.3" y="510.5" class="node" fill="#4A6FE3">1</text><text x="283.2" y="538.8" class="node" fill="#A3ADE2">0.73</text><text x="258.1" y="567" class="node" fill="#4A6FE3">1</text><text x="182.7" y="623.3" class="node" fill="#97A4E2">0.77</text><text x="157.6" y="651.5" class="node" fill="#DADBE3">0.53</text></svg>
