<svg xmlns="http://www.w3.org/2000/svg" version="1.1" viewBox="0 0 682 720" preserveAspectRatio="xMidYMid meet" class="tree" data-char="112"><text x="678" y="16.8" text-anchor="end" class="stepsLabel">Character adds <tspan class="score">0</tspan> to tree score</text><text x="678" y="30.6" text-anchor="end" class="stepsLabel"><tspan class="score">0</tspan> additional regions</text><text x="678" y="44.4" text-anchor="end" class="stepsLabel"></text><text x="678" y="72" text-anchor="end" class="stepsLabel"><tspan dy="16" fill="#34caaf">An optimal tree under:</tspan><tspan x="680" style="font-style:italic" class="notThisAn" dy="1.2em">Implied weights, k = 3</tspan><tspan x="680" style="font-style:italic" class="notThisAn" dy="1.2em">IW, k = 4.5</tspan><tspan x="680" style="font-style:italic" class="notThisAn" dy="1.2em">IW, k = 7</tspan><tspan x="680" style="font-style:italic" class="notThisAn" dy="1.2em">IW, k = 10.5</tspan><tspan x="680" style="font-style:italic" class="notThisAn" dy="1.2em">IW, k = 16</tspan><tspan x="680" style="font-style:italic" class="thisAn" dy="1.2em">IW, k = 24</tspan><tspan x="680" style="font-style:italic" class="notThisAn" dy="1.2em">Equal weights</tspan></text><text x="148.1" y="658.6" fill="lightgrey" class="flag">[-]</text><text x="170.1" y="658.6" fill="#ccc" class="taxonLabel">Orthrozanclus</text><text x="148.1" y="672.7" fill="lightgrey" class="flag">[-]</text><text x="170.1" y="672.7" fill="#ccc" class="taxonLabel">Halkieria evangelista</text><text x="172" y="630.4" fill="lightgrey" class="flag">[-]</text><text x="194" y="630.4" fill="#ccc" class="taxonLabel">Pedunculotheca diania</text><text x="172" y="644.5" fill="lightgrey" class="flag">[-]</text><text x="194" y="644.5" fill="#ccc" class="taxonLabel">Haplophrentis carinatus</text><text x="243.5" y="574" fill="grey" class="flag">[?]</text><text x="265.5" y="574" fill="#999" class="taxonLabel">Mickwitzia muralensis</text><text x="243.5" y="588.1" fill="grey" class="flag">[?]</text><text x="265.5" y="588.1" fill="#999" class="taxonLabel">Heliomedusa orienta</text><text x="267.4" y="545.8" fill="grey" class="flag">[?]</text><text x="289.4" y="545.8" fill="#999" class="taxonLabel">Micromitra</text><text x="267.4" y="559.9" fill="grey" class="flag">[?]</text><text x="289.4" y="559.9" fill="#999" class="taxonLabel">Gasconsia</text><text x="291.2" y="517.6" fill="lightgrey" class="flag">[-]</text><text x="313.2" y="517.6" fill="#ccc" class="taxonLabel">Terebratulina</text><text x="291.2" y="531.7" fill="grey" class="flag">[?]</text><text x="313.2" y="531.7" fill="#999" class="taxonLabel">Orthis</text><text x="362.8" y="447.1" fill="grey" class="flag">[?]</text><text x="384.8" y="447.1" fill="#999" class="taxonLabel">Yuganotheca elegans</text><text x="362.8" y="461.2" fill="grey" class="flag">[?]</text><text x="384.8" y="461.2" fill="#999" class="taxonLabel">Lingulellotreta malongensis</text><text x="338.9" y="475.3" fill="lightgrey" class="flag">[-]</text><text x="360.9" y="475.3" fill="#ccc" class="taxonLabel">Lingula</text><text x="315.1" y="489.4" fill="lightgrey" class="flag">[-]</text><text x="337.1" y="489.4" fill="#ccc" class="taxonLabel">Pelagodiscus atlanticus</text><text x="291.2" y="503.5" fill="lightgrey" class="flag">[-]</text><text x="313.2" y="503.5" fill="#ccc" class="taxonLabel">Novocrania</text><text x="195.8" y="602.2" fill="grey" class="flag">[?]</text><text x="217.8" y="602.2" fill="#999" class="taxonLabel">Micrina</text><text x="172" y="616.3" fill="lightgrey" class="flag">[-]</text><text x="194" y="616.3" fill="#ccc" class="taxonLabel">Paterimitra</text><text x="100.4" y="686.8" fill="grey" class="flag">[?]</text><text x="122.4" y="686.8" fill="#999" class="taxonLabel">Eccentrotheca</text><text x="148.1" y="404.8" fill="lightgrey" class="flag">[-]</text><text x="170.1" y="404.8" fill="#ccc" class="taxonLabel">Phoronis</text><text x="148.1" y="418.9" fill="lightgrey" class="flag">[-]</text><text x="170.1" y="418.9" fill="#ccc" class="taxonLabel">Namacalathus</text><text x="172" y="376.6" fill="lightgrey" class="flag">[-]</text><text x="194" y="376.6" fill="#ccc" class="taxonLabel">Flustra</text><text x="172" y="390.7" fill="lightgrey" class="flag">[-]</text><text x="194" y="390.7" fill="#ccc" class="taxonLabel">Amathia</text><text x="267.4" y="306.1" fill="lightgrey" class="flag">[-]</text><text x="289.4" y="306.1" fill="#ccc" class="taxonLabel">Serpula</text><text x="267.4" y="320.2" fill="lightgrey" class="flag">[-]</text><text x="289.4" y="320.2" fill="#ccc" class="taxonLabel">Capitella</text><text x="243.5" y="334.3" fill="lightgrey" class="flag">[-]</text><text x="265.5" y="334.3" fill="#ccc" class="taxonLabel">Canadia spinosa</text><text x="219.7" y="348.4" fill="lightgrey" class="flag">[-]</text><text x="241.7" y="348.4" fill="#ccc" class="taxonLabel">Sipunculus</text><text x="482" y="136.9" fill="#91bfdb" class="flag">[2]</text><text x="504" y="136.9" fill="#000" class="taxonLabel">Tonicella</text><text x="482" y="151" fill="#91bfdb" class="flag">[2]</text><text x="504" y="151" fill="#000" class="taxonLabel">Mopalia</text><text x="458.2" y="165.1" fill="lightgrey" class="flag">[-]</text><text x="480.2" y="165.1" fill="#ccc" class="taxonLabel">Polysacos vickersianum</text><text x="434.3" y="179.2" fill="lightgrey" class="flag">[-]</text><text x="456.3" y="179.2" fill="#ccc" class="taxonLabel">Leptochiton</text><text x="410.5" y="193.3" fill="lightgrey" class="flag">[-]</text><text x="432.5" y="193.3" fill="#ccc" class="taxonLabel">Glaphurochiton carbonarius</text><text x="386.6" y="207.4" fill="lightgrey" class="flag">[-]</text><text x="408.6" y="207.4" fill="#ccc" class="taxonLabel">Calvapilosa kroegeri</text><text x="362.8" y="221.5" fill="grey" class="flag">[?]</text><text x="384.8" y="221.5" fill="#999" class="taxonLabel">Siphogonuchites multa</text><text x="386.6" y="108.7" fill="lightgrey" class="flag">[-]</text><text x="408.6" y="108.7" fill="#ccc" class="taxonLabel">Wiwaxia corrugata</text><text x="386.6" y="122.8" fill="lightgrey" class="flag">[-]</text><text x="408.6" y="122.8" fill="#ccc" class="taxonLabel">Odontogriphus omalus</text><text x="458.2" y="52.3" fill="lightgrey" class="flag">[-]</text><text x="480.2" y="52.3" fill="#ccc" class="taxonLabel">Neopilina</text><text x="458.2" y="66.4" fill="lightgrey" class="flag">[-]</text><text x="480.2" y="66.4" fill="#ccc" class="taxonLabel">Conocardium elongatum</text><text x="434.3" y="80.5" fill="lightgrey" class="flag">[-]</text><text x="456.3" y="80.5" fill="#ccc" class="taxonLabel">Haliotis</text><text x="458.2" y="10" fill="lightgrey" class="flag">[-]</text><text x="480.2" y="10" fill="#ccc" class="taxonLabel">Pojetaia runnegari</text><text x="458.2" y="24.1" fill="lightgrey" class="flag">[-]</text><text x="480.2" y="24.1" fill="#ccc" class="taxonLabel">Mytilus</text><text x="434.3" y="38.2" fill="lightgrey" class="flag">[-]</text><text x="456.3" y="38.2" fill="#ccc" class="taxonLabel">Dentalium</text><text x="386.6" y="94.6" fill="lightgrey" class="flag">[-]</text><text x="408.6" y="94.6" fill="#ccc" class="taxonLabel">Pelagiella</text><text x="315.1" y="235.6" fill="lightgrey" class="flag">[-]</text><text x="337.1" y="235.6" fill="#ccc" class="taxonLabel">Acaenoplax hayae</text><text x="291.2" y="249.7" fill="lightgrey" class="flag">[-]</text><text x="313.2" y="249.7" fill="#ccc" class="taxonLabel">Phthipodochiton thraivensis</text><text x="267.4" y="263.8" fill="lightgrey" class="flag">[-]</text><text x="289.4" y="263.8" fill="#ccc" class="taxonLabel">Kulindroplax perissokomos</text><text x="243.5" y="277.9" fill="lightgrey" class="flag">[-]</text><text x="265.5" y="277.9" fill="#ccc" class="taxonLabel">Chaetoderma</text><text x="219.7" y="292" fill="lightgrey" class="flag">[-]</text><text x="241.7" y="292" fill="#ccc" class="taxonLabel">Wirenia</text><text x="172" y="362.5" fill="lightgrey" class="flag">[-]</text><text x="194" y="362.5" fill="#ccc" class="taxonLabel">Loxosomella</text><text x="100.4" y="433" fill="grey" class="flag">[?]</text><text x="122.4" y="433" fill="#999" class="taxonLabel">Cotyledion tylodes</text><text x="52.7" y="700.9" fill="lightgrey" class="flag">[-]</text><text x="74.7" y="700.9" fill="#ccc" class="taxonLabel">Dailyatia</text><text x="28.9" y="715" fill="lightgrey" class="flag">[-]</text><text x="50.9" y="715" fill="#ccc" class="taxonLabel">Yilingia spiciformis</text><path d="M5,663.9V615.8H28.9M28.9,615.8V533.7H52.7M52.7,533.7V406.2H76.6M76.6,406.2V382.4H100.4M100.4,382.4V356H124.2M124.2,356V331.3H148.1M148.1,331.3V303.1H172M172,303.1V273.1H195.8M195.8,273.1V257.3H219.7M219.7,257.3V239.6H243.5M243.5,239.6V218.4H267.4M267.4,218.4V190.1H291.2M291.2,190.1V147.7H315.1M315.1,147.7V90.7H338.9M338.9,90.7V68.7H362.8M362.8,68.7V45.8H386.6M386.6,45.8V24.6H410.5M410.5,24.6V14.1H434.3M434.3,14.1V7H458.2M434.3,14.1V21.1H458.2M410.5,24.6V35.2H434.3M386.6,45.8V66.9H410.5M410.5,66.9V56.3H434.3M434.3,56.3V49.3H458.2M434.3,56.3V63.4H458.2M410.5,66.9V77.5H434.3M362.8,68.7V91.6H386.6M338.9,90.7V112.8H362.8M362.8,112.8V105.7H386.6M362.8,112.8V119.8H386.6M315.1,147.7V204.6H338.9M338.9,204.6V190.7H362.8M362.8,190.7V177.1H386.6M386.6,177.1V163.9H410.5M410.5,163.9V151.5H434.3M434.3,151.5V162.1H458.2M410.5,163.9V176.2H434.3M386.6,177.1V190.3H410.5M362.8,190.7V204.4H386.6M338.9,204.6V218.5H362.8M291.2,190.1V232.6H315.1M267.4,218.4V246.7H291.2M243.5,239.6V260.8H267.4M219.7,257.3V274.9H243.5M195.8,273.1V289H219.7M172,303.1V333.1H195.8M195.8,333.1V320.7H219.7M219.7,320.7V310.1H243.5M243.5,310.1V303.1H267.4M243.5,310.1V317.2H267.4M219.7,320.7V331.3H243.5M195.8,333.1V345.4H219.7M148.1,331.3V359.5H172M124.2,356V380.6H148.1M148.1,380.6V373.6H172M148.1,380.6V387.7H172M100.4,382.4V408.9H124.2M124.2,408.9V401.8H148.1M124.2,408.9V415.9H148.1M76.6,406.2V430H100.4M52.7,533.7V661.2H76.6M76.6,661.2V638.6H100.4M100.4,638.6V614.5H124.2M124.2,614.5V594.6H148.1M148.1,594.6V575.9H172M172,575.9V552.6H195.8M195.8,552.6V527.2H219.7M219.7,527.2V504.5H243.5M243.5,504.5V487.3H267.4M267.4,487.3V474.1H291.2M291.2,474.1V461.7H315.1M315.1,461.7V451.1H338.9M338.9,451.1V444.1H362.8M338.9,451.1V458.2H362.8M315.1,461.7V472.3H338.9M291.2,474.1V486.4H315.1M267.4,487.3V500.5H291.2M243.5,504.5V521.6H267.4M267.4,521.6V514.6H291.2M267.4,521.6V528.7H291.2M219.7,527.2V549.8H243.5M243.5,549.8V542.8H267.4M243.5,549.8V556.9H267.4M195.8,552.6V578H219.7M219.7,578V571H243.5M219.7,578V585.1H243.5M172,575.9V599.2H195.8M148.1,594.6V613.3H172M124.2,614.5V634.5H148.1M148.1,634.5V627.4H172M148.1,634.5V641.5H172M100.4,638.6V662.6H124.2M124.2,662.6V655.6H148.1M124.2,662.6V669.7H148.1M76.6,661.2V683.8H100.4M28.9,615.8V697.9H52.7M5,663.9V712H28.9" stroke="lightgrey" class="inapplicable"></path><path d="M434.3,151.5V140.9H458.2M458.2,140.9V133.9H482M458.2,140.9V148H482" stroke="#91bfdb"></path><text x="30.9" y="618.8" class="node" fill="#DADBE3">0.53</text><text x="54.7" y="536.7" class="node" fill="#D85778">0.06</text><text x="78.6" y="409.2" class="node" fill="#E498A7">0.26</text><text x="102.4" y="385.4" class="node" fill="#E498A7">0.26</text><text x="126.2" y="359" class="node" fill="#E498A7">0.26</text><text x="150.1" y="334.3" class="node" fill="#C4C9E3">0.61</text><text x="174" y="306.1" class="node" fill="#4A6FE3">1</text><text x="197.8" y="276.1" class="node" fill="#E498A7">0.26</text><text x="221.7" y="260.3" class="node" fill="#E498A7">0.26</text><text x="245.5" y="242.6" class="node" fill="#E498A7">0.26</text><text x="269.4" y="221.4" class="node" fill="#E498A7">0.26</text><text x="293.2" y="193.1" class="node" fill="#E4D9DB">0.47</text><text x="317.1" y="150.7" class="node" fill="#7388E1">0.89</text><text x="340.9" y="93.7" class="node" fill="#7388E1">0.89</text><text x="364.8" y="71.7" class="node" fill="#7086E1">0.9</text><text x="388.6" y="48.8" class="node" fill="#4A6FE3">1</text><text x="412.5" y="27.6" class="node" fill="#4A6FE3">1</text><text x="436.3" y="17.1" class="node" fill="#4A6FE3">1</text><text x="412.5" y="69.9" class="node" fill="#4A6FE3">1</text><text x="436.3" y="59.3" class="node" fill="#4A6FE3">1</text><text x="364.8" y="115.8" class="node" fill="#E6B1BB">0.34</text><text x="340.9" y="207.6" class="node" fill="#A3ADE2">0.73</text><text x="364.8" y="193.7" class="node" fill="#A3ADE2">0.73</text><text x="388.6" y="180.1" class="node" fill="#4A6FE3">1</text><text x="412.5" y="166.9" class="node" fill="#4A6FE3">1</text><text x="436.3" y="154.5" class="node" fill="#4A6FE3">1</text><text x="460.2" y="143.9" class="node" fill="#4A6FE3">1</text><text x="197.8" y="336.1" class="node" fill="#4A6FE3">1</text><text x="221.7" y="323.7" class="node" fill="#4A6FE3">1</text><text x="245.5" y="313.1" class="node" fill="#4A6FE3">1</text><text x="150.1" y="383.6" class="node" fill="#DC6884">0.11</text><text x="126.2" y="411.9" class="node" fill="#E18297">0.19</text><text x="78.6" y="664.2" class="node" fill="#E6BAC2">0.37</text><text x="102.4" y="641.6" class="node" fill="#BCC2E3">0.64</text><text x="126.2" y="617.5" class="node" fill="#A3ADE2">0.73</text><text x="150.1" y="597.6" class="node" fill="#A3ADE2">0.73</text><text x="174" y="578.9" class="node" fill="#A3ADE2">0.73</text><text x="197.8" y="555.6" class="node" fill="#A3ADE2">0.73</text><text x="221.7" y="530.2" class="node" fill="#A3ADE2">0.73</text><text x="245.5" y="507.5" class="node" fill="#A3ADE2">0.73</text><text x="269.4" y="490.3" class="node" fill="#A3ADE2">0.73</text><text x="293.2" y="477.1" class="node" fill="#4A6FE3">1</text><text x="317.1" y="464.7" class="node" fill="#E6C1C7">0.39</text><text x="340.9" y="454.1" class="node" fill="#4A6FE3">1</text><text x="269.4" y="524.6" class="node" fill="#4A6FE3">1</text><text x="245.5" y="552.8" class="node" fill="#A3ADE2">0.73</text><text x="221.7" y="581" class="node" fill="#4A6FE3">1</text><text x="150.1" y="637.5" class="node" fill="#97A4E2">0.77</text><text x="126.2" y="665.6" class="node" fill="#DADBE3">0.53</text></svg>
