<svg xmlns="http://www.w3.org/2000/svg" version="1.1" viewBox="0 0 682 720" preserveAspectRatio="xMidYMid meet" class="tree" data-char="188"><text x="678" y="12.7" text-anchor="end" class="stepsLabel">Character adds <tspan class="score">0</tspan> to tree score</text><text x="678" y="22.4" text-anchor="end" class="stepsLabel"><tspan class="score">0</tspan> additional regions</text><text x="678" y="32.1" text-anchor="end" class="stepsLabel"></text><text x="678" y="51.5" text-anchor="end" class="stepsLabel"><tspan dy="16" fill="#34caaf">An optimal tree under:</tspan><tspan x="680" style="font-style:italic" class="notThisAn" dy="1.2em">Implied weights, k = 4.5</tspan><tspan x="680" style="font-style:italic" class="thisAn" dy="1.2em">IW, k = 10.5</tspan><tspan x="680" style="font-style:italic" class="notThisAn" dy="1.2em">IW, k = 24</tspan><tspan x="680" style="font-style:italic" class="notThisAn" dy="1.2em">Equal weights</tspan></text><text x="130.5" y="685.6" fill="#fc8d59" class="flag">[0]</text><text x="152.5" y="685.6" fill="#000" class="taxonLabel">Eccentrotheca</text><text x="130.5" y="695.4" fill="#fc8d59" class="flag">[0]</text><text x="152.5" y="695.4" fill="#000" class="taxonLabel">Cotyledion tylodes</text><text x="205.8" y="646.5" fill="#fc8d59" class="flag">[0]</text><text x="227.8" y="646.5" fill="#000" class="taxonLabel">Flustra</text><text x="205.8" y="656.2" fill="#fc8d59" class="flag">[0]</text><text x="227.8" y="656.2" fill="#000" class="taxonLabel">Amathia</text><text x="306.3" y="597.5" fill="#fc8d59" class="flag">[0]</text><text x="328.3" y="597.5" fill="#000" class="taxonLabel">Serpula</text><text x="306.3" y="607.3" fill="#fc8d59" class="flag">[0]</text><text x="328.3" y="607.3" fill="#000" class="taxonLabel">Capitella</text><text x="281.2" y="617.1" fill="#fc8d59" class="flag">[0]</text><text x="303.2" y="617.1" fill="#000" class="taxonLabel">Canadia spinosa</text><text x="256.1" y="626.9" fill="#fc8d59" class="flag">[0]</text><text x="278.1" y="626.9" fill="#000" class="taxonLabel">Sipunculus</text><text x="406.7" y="529" fill="#fc8d59" class="flag">[0]</text><text x="428.7" y="529" fill="#000" class="taxonLabel">Pojetaia runnegari</text><text x="406.7" y="538.8" fill="#fc8d59" class="flag">[0]</text><text x="428.7" y="538.8" fill="#000" class="taxonLabel">Mytilus</text><text x="381.6" y="548.5" fill="#fc8d59" class="flag">[0]</text><text x="403.6" y="548.5" fill="#000" class="taxonLabel">Conocardium elongatum</text><text x="356.5" y="558.3" fill="#fc8d59" class="flag">[0]</text><text x="378.5" y="558.3" fill="#000" class="taxonLabel">Neopilina</text><text x="331.4" y="568.1" fill="#fc8d59" class="flag">[0]</text><text x="353.4" y="568.1" fill="#000" class="taxonLabel">Haliotis</text><text x="306.3" y="577.9" fill="#fc8d59" class="flag">[0]</text><text x="328.3" y="577.9" fill="#000" class="taxonLabel">Dentalium</text><text x="281.2" y="587.7" fill="#fc8d59" class="flag">[0]</text><text x="303.2" y="587.7" fill="#000" class="taxonLabel">Pelagiella</text><text x="306.3" y="509.4" fill="#fc8d59" class="flag">[0]</text><text x="328.3" y="509.4" fill="#000" class="taxonLabel">Wiwaxia corrugata</text><text x="306.3" y="519.2" fill="#fc8d59" class="flag">[0]</text><text x="328.3" y="519.2" fill="#000" class="taxonLabel">Odontogriphus omalus</text><text x="406.7" y="470.2" fill="#fc8d59" class="flag">[0]</text><text x="428.7" y="470.2" fill="#000" class="taxonLabel">Kulindroplax perissokomos</text><text x="406.7" y="480" fill="#fc8d59" class="flag">[0]</text><text x="428.7" y="480" fill="#000" class="taxonLabel">Chaetoderma</text><text x="406.7" y="450.6" fill="#fc8d59" class="flag">[0]</text><text x="428.7" y="450.6" fill="#000" class="taxonLabel">Wirenia</text><text x="406.7" y="460.4" fill="#fc8d59" class="flag">[0]</text><text x="428.7" y="460.4" fill="#000" class="taxonLabel">Phthipodochiton thraivensis</text><text x="356.5" y="489.8" fill="#fc8d59" class="flag">[0]</text><text x="378.5" y="489.8" fill="#000" class="taxonLabel">Siphogonuchites multa</text><text x="331.4" y="499.6" fill="#fc8d59" class="flag">[0]</text><text x="353.4" y="499.6" fill="#000" class="taxonLabel">Acaenoplax hayae</text><text x="431.8" y="391.9" fill="#fc8d59" class="flag">[0]</text><text x="453.8" y="391.9" fill="#000" class="taxonLabel">Tonicella</text><text x="431.8" y="401.7" fill="#fc8d59" class="flag">[0]</text><text x="453.8" y="401.7" fill="#000" class="taxonLabel">Mopalia</text><text x="406.7" y="411.5" fill="#fc8d59" class="flag">[0]</text><text x="428.7" y="411.5" fill="#000" class="taxonLabel">Polysacos vickersianum</text><text x="381.6" y="421.2" fill="#fc8d59" class="flag">[0]</text><text x="403.6" y="421.2" fill="#000" class="taxonLabel">Leptochiton</text><text x="356.5" y="431" fill="#fc8d59" class="flag">[0]</text><text x="378.5" y="431" fill="#000" class="taxonLabel">Glaphurochiton carbonarius</text><text x="331.4" y="440.8" fill="#fc8d59" class="flag">[0]</text><text x="353.4" y="440.8" fill="#000" class="taxonLabel">Calvapilosa kroegeri</text><text x="205.8" y="636.7" fill="#fc8d59" class="flag">[0]</text><text x="227.8" y="636.7" fill="#000" class="taxonLabel">Loxosomella</text><text x="155.6" y="666" fill="#fc8d59" class="flag">[0]</text><text x="177.6" y="666" fill="#000" class="taxonLabel">Namacalathus</text><text x="130.5" y="675.8" fill="#fc8d59" class="flag">[0]</text><text x="152.5" y="675.8" fill="#000" class="taxonLabel">Phoronis</text><text x="256.1" y="333.1" fill="#fc8d59" class="flag">[0]</text><text x="278.1" y="333.1" fill="#000" class="taxonLabel">Pedunculotheca diania</text><text x="256.1" y="342.9" fill="#fc8d59" class="flag">[0]</text><text x="278.1" y="342.9" fill="#000" class="taxonLabel">Cupitheca holocyclata</text><text x="256.1" y="313.5" fill="#fc8d59" class="flag">[0]</text><text x="278.1" y="313.5" fill="#000" class="taxonLabel">Paramicrocornus</text><text x="256.1" y="323.3" fill="#fc8d59" class="flag">[0]</text><text x="278.1" y="323.3" fill="#000" class="taxonLabel">Haplophrentis carinatus</text><text x="205.8" y="352.7" fill="#fc8d59" class="flag">[0]</text><text x="227.8" y="352.7" fill="#000" class="taxonLabel">Bactrotheca</text><text x="256.1" y="284.2" fill="#fc8d59" class="flag">[0]</text><text x="278.1" y="284.2" fill="#000" class="taxonLabel">Mickwitzia muralensis</text><text x="256.1" y="294" fill="#fc8d59" class="flag">[0]</text><text x="278.1" y="294" fill="#000" class="taxonLabel">Heliomedusa orienta</text><text x="356.5" y="245" fill="#fc8d59" class="flag">[0]</text><text x="378.5" y="245" fill="#000" class="taxonLabel">Novocrania</text><text x="356.5" y="254.8" fill="#fc8d59" class="flag">[0]</text><text x="378.5" y="254.8" fill="#000" class="taxonLabel">Craniops</text><text x="331.4" y="264.6" fill="#fc8d59" class="flag">[0]</text><text x="353.4" y="264.6" fill="#000" class="taxonLabel">Ussunia</text><text x="306.3" y="274.4" fill="#fc8d59" class="flag">[0]</text><text x="328.3" y="274.4" fill="#000" class="taxonLabel">Gasconsia</text><text x="406.7" y="196" fill="#fc8d59" class="flag">[0]</text><text x="428.7" y="196" fill="#000" class="taxonLabel">Pelagodiscus atlanticus</text><text x="406.7" y="205.8" fill="#fc8d59" class="flag">[0]</text><text x="428.7" y="205.8" fill="#000" class="taxonLabel">Mummpikia nuda</text><text x="482" y="147.1" fill="#fc8d59" class="flag">[0]</text><text x="504" y="147.1" fill="#000" class="taxonLabel">Siphonobolus priscus</text><text x="482" y="156.9" fill="#fc8d59" class="flag">[0]</text><text x="504" y="156.9" fill="#000" class="taxonLabel">Acanthotretella spinosa</text><text x="456.9" y="166.7" fill="#fc8d59" class="flag">[0]</text><text x="478.9" y="166.7" fill="#000" class="taxonLabel">Clupeafumosus socialis</text><text x="431.8" y="176.5" fill="#fc8d59" class="flag">[0]</text><text x="453.8" y="176.5" fill="#000" class="taxonLabel">Lingulosacculus</text><text x="406.7" y="186.2" fill="#fc8d59" class="flag">[0]</text><text x="428.7" y="186.2" fill="#000" class="taxonLabel">Lingulellotreta malongensis</text><text x="356.5" y="215.6" fill="#fc8d59" class="flag">[0]</text><text x="378.5" y="215.6" fill="#000" class="taxonLabel">Botsfordia</text><text x="331.4" y="225.4" fill="#fc8d59" class="flag">[0]</text><text x="353.4" y="225.4" fill="#000" class="taxonLabel">Eoobolus</text><text x="306.3" y="235.2" fill="#fc8d59" class="flag">[0]</text><text x="328.3" y="235.2" fill="#000" class="taxonLabel">Lingula</text><text x="306.3" y="127.5" fill="#fc8d59" class="flag">[0]</text><text x="328.3" y="127.5" fill="#000" class="taxonLabel">Micromitra</text><text x="306.3" y="137.3" fill="#fc8d59" class="flag">[0]</text><text x="328.3" y="137.3" fill="#000" class="taxonLabel">Askepasma toddense</text><text x="356.5" y="107.9" fill="#fc8d59" class="flag">[0]</text><text x="378.5" y="107.9" fill="#000" class="taxonLabel">Coolinia pecten</text><text x="356.5" y="117.7" fill="#fc8d59" class="flag">[0]</text><text x="378.5" y="117.7" fill="#000" class="taxonLabel">Antigonambonites planus</text><text x="381.6" y="78.5" fill="#fc8d59" class="flag">[0]</text><text x="403.6" y="78.5" fill="#000" class="taxonLabel">Yuganotheca elegans</text><text x="381.6" y="88.3" fill="#fc8d59" class="flag">[0]</text><text x="403.6" y="88.3" fill="#000" class="taxonLabel">Tomteluva perturbata</text><text x="356.5" y="98.1" fill="#fc8d59" class="flag">[0]</text><text x="378.5" y="98.1" fill="#000" class="taxonLabel">Salanygolina</text><text x="456.9" y="10" fill="#fc8d59" class="flag">[0]</text><text x="478.9" y="10" fill="#000" class="taxonLabel">Terebratulina</text><text x="456.9" y="19.8" fill="#fc8d59" class="flag">[0]</text><text x="478.9" y="19.8" fill="#000" class="taxonLabel">Orthis</text><text x="431.8" y="29.6" fill="#fc8d59" class="flag">[0]</text><text x="453.8" y="29.6" fill="#000" class="taxonLabel">Alisina</text><text x="406.7" y="39.4" fill="#fc8d59" class="flag">[0]</text><text x="428.7" y="39.4" fill="#000" class="taxonLabel">Longtancunella chengjiangensis</text><text x="381.6" y="49.2" fill="#fc8d59" class="flag">[0]</text><text x="403.6" y="49.2" fill="#000" class="taxonLabel">Glyptoria</text><text x="356.5" y="59" fill="#fc8d59" class="flag">[0]</text><text x="378.5" y="59" fill="#000" class="taxonLabel">Nisusia sulcata</text><text x="331.4" y="68.8" fill="#fc8d59" class="flag">[0]</text><text x="353.4" y="68.8" fill="#000" class="taxonLabel">Kutorgina chengjiangensis</text><text x="205.8" y="303.8" fill="#fc8d59" class="flag">[0]</text><text x="227.8" y="303.8" fill="#000" class="taxonLabel">Micrina</text><text x="155.6" y="362.5" fill="#fc8d59" class="flag">[0]</text><text x="177.6" y="362.5" fill="#000" class="taxonLabel">Paterimitra</text><text x="130.5" y="372.3" fill="#fc8d59" class="flag">[0]</text><text x="152.5" y="372.3" fill="#000" class="taxonLabel">Halkieria evangelista</text><text x="105.4" y="382.1" fill="#fc8d59" class="flag">[0]</text><text x="127.4" y="382.1" fill="#000" class="taxonLabel">Orthrozanclus</text><text x="55.2" y="705.2" fill="#fc8d59" class="flag">[0]</text><text x="77.2" y="705.2" fill="#000" class="taxonLabel">Dailyatia</text><text x="30.1" y="715" fill="#fc8d59" class="flag">[0]</text><text x="52.1" y="715" fill="#000" class="taxonLabel">Yilingia spiciformis</text><path d="M5,661.2V610.5H30.1M30.1,610.5V518.8H55.2M55.2,518.8V364.5H80.3M80.3,364.5V349.8H105.4M105.4,349.8V330.4H130.5M130.5,330.4V301.3H155.6M155.6,301.3V265.1H180.7M180.7,265.1V229.4H205.8M205.8,229.4V172.8H230.9M230.9,172.8V103.4H256.1M256.1,103.4V77.5H281.2M281.2,77.5V56.1H306.3M306.3,56.1V46.5H331.4M331.4,46.5V37H356.5M356.5,37V27.8H381.6M381.6,27.8V19.2H406.7M406.7,19.2V11.9H431.8M431.8,11.9V7H456.9M431.8,11.9V16.8H456.9M406.7,19.2V26.6H431.8M381.6,27.8V36.4H406.7M356.5,37V46.2H381.6M331.4,46.5V56H356.5M306.3,56.1V65.8H331.4M281.2,77.5V98.8H306.3M306.3,98.8V87.8H331.4M331.4,87.8V80.4H356.5M356.5,80.4V75.5H381.6M356.5,80.4V85.3H381.6M331.4,87.8V95.1H356.5M306.3,98.8V109.8H331.4M331.4,109.8V104.9H356.5M331.4,109.8V114.7H356.5M256.1,103.4V129.4H281.2M281.2,129.4V124.5H306.3M281.2,129.4V134.3H306.3M230.9,172.8V242.2H256.1M256.1,242.2V221.5H281.2M281.2,221.5V210.9H306.3M306.3,210.9V199.3H331.4M331.4,199.3V186H356.5M356.5,186V174.1H381.6M381.6,174.1V164.9H406.7M406.7,164.9V156.3H431.8M431.8,156.3V149H456.9M456.9,149V144.1H482M456.9,149V153.9H482M431.8,156.3V163.7H456.9M406.7,164.9V173.5H431.8M381.6,174.1V183.2H406.7M356.5,186V197.9H381.6M381.6,197.9V193H406.7M381.6,197.9V202.8H406.7M331.4,199.3V212.6H356.5M306.3,210.9V222.4H331.4M281.2,221.5V232.2H306.3M256.1,242.2V262.8H281.2M281.2,262.8V254.2H306.3M306.3,254.2V246.9H331.4M331.4,246.9V242H356.5M331.4,246.9V251.8H356.5M306.3,254.2V261.6H331.4M281.2,262.8V271.4H306.3M205.8,229.4V286.1H230.9M230.9,286.1V281.2H256.1M230.9,286.1V291H256.1M180.7,265.1V300.8H205.8M155.6,301.3V337.5H180.7M180.7,337.5V325.2H205.8M205.8,325.2V315.4H230.9M230.9,315.4V310.5H256.1M230.9,315.4V320.3H256.1M205.8,325.2V335H230.9M230.9,335V330.1H256.1M230.9,335V339.9H256.1M180.7,337.5V349.7H205.8M130.5,330.4V359.5H155.6M105.4,349.8V369.3H130.5M80.3,364.5V379.1H105.4M55.2,518.8V673.1H80.3M80.3,673.1V658.6H105.4M105.4,658.6V644.4H130.5M130.5,644.4V625.7H155.6M155.6,625.7V603.1H180.7M180.7,603.1V572.4H205.8M205.8,572.4V529.6H230.9M230.9,529.6V484.1H256.1M256.1,484.1V457H281.2M281.2,457V428.3H306.3M306.3,428.3V418.9H331.4M331.4,418.9V409.7H356.5M356.5,409.7V401.1H381.6M381.6,401.1V393.8H406.7M406.7,393.8V388.9H431.8M406.7,393.8V398.7H431.8M381.6,401.1V408.5H406.7M356.5,409.7V418.2H381.6M331.4,418.9V428H356.5M306.3,428.3V437.8H331.4M281.2,457V485.6H306.3M306.3,485.6V474.6H331.4M331.4,474.6V462.3H356.5M356.5,462.3V452.5H381.6M381.6,452.5V447.6H406.7M381.6,452.5V457.4H406.7M356.5,462.3V472.1H381.6M381.6,472.1V467.2H406.7M381.6,472.1V477H406.7M331.4,474.6V486.8H356.5M306.3,485.6V496.6H331.4M256.1,484.1V511.3H281.2M281.2,511.3V506.4H306.3M281.2,511.3V516.2H306.3M230.9,529.6V575.1H256.1M256.1,575.1V565.4H281.2M281.2,565.4V555.9H306.3M306.3,555.9V546.8H331.4M331.4,546.8V538.2H356.5M356.5,538.2V530.9H381.6M381.6,530.9V526H406.7M381.6,530.9V535.8H406.7M356.5,538.2V545.5H381.6M331.4,546.8V555.3H356.5M306.3,555.9V565.1H331.4M281.2,565.4V574.9H306.3M256.1,575.1V584.7H281.2M205.8,572.4V615.3H230.9M230.9,615.3V606.7H256.1M256.1,606.7V599.4H281.2M281.2,599.4V594.5H306.3M281.2,599.4V604.3H306.3M256.1,606.7V614.1H281.2M230.9,615.3V623.9H256.1M180.7,603.1V633.7H205.8M155.6,625.7V648.4H180.7M180.7,648.4V643.5H205.8M180.7,648.4V653.2H205.8M130.5,644.4V663H155.6M105.4,658.6V672.8H130.5M80.3,673.1V687.5H105.4M105.4,687.5V682.6H130.5M105.4,687.5V692.4H130.5M30.1,610.5V702.2H55.2M5,661.2V712H30.1" stroke="#fc8d59"></path><text x="32.1" y="613.5" class="node" fill="#E59FAC">0.28</text><text x="57.2" y="521.8" class="node" fill="#D2D4E3">0.57</text><text x="82.3" y="367.5" class="node" fill="#D2D4E3">0.57</text><text x="107.4" y="352.8" class="node" fill="#8F9DE1">0.8</text><text x="132.5" y="333.4" class="node" fill="#8F9DE1">0.8</text><text x="157.6" y="304.3" class="node" fill="#4A6FE3">1</text><text x="182.7" y="268.1" class="node" fill="#A8B1E2">0.71</text><text x="207.8" y="232.4" class="node" fill="#E4D9DB">0.47</text><text x="232.9" y="175.8" class="node" fill="#E4D9DB">0.47</text><text x="258.1" y="106.4" class="node" fill="#E4D9DB">0.47</text><text x="283.2" y="80.5" class="node" fill="#ABB4E2">0.7</text><text x="308.3" y="59.1" class="node" fill="#E6B7C0">0.36</text><text x="333.4" y="49.5" class="node" fill="#4F72E2">0.99</text><text x="358.5" y="40" class="node" fill="#4F72E2">0.99</text><text x="383.6" y="30.8" class="node" fill="#4A6FE3">1</text><text x="408.7" y="22.2" class="node" fill="#4A6FE3">1</text><text x="433.8" y="14.9" class="node" fill="#C4C9E3">0.61</text><text x="308.3" y="101.8" class="node" fill="#ABB4E2">0.7</text><text x="333.4" y="90.8" class="node" fill="#A8B1E2">0.71</text><text x="358.5" y="83.4" class="node" fill="#4A6FE3">1</text><text x="333.4" y="112.8" class="node" fill="#ABB4E2">0.7</text><text x="283.2" y="132.4" class="node" fill="#9AA6E2">0.76</text><text x="258.1" y="245.2" class="node" fill="#9AA6E2">0.76</text><text x="283.2" y="224.5" class="node" fill="#9AA6E2">0.76</text><text x="308.3" y="213.9" class="node" fill="#9AA6E2">0.76</text><text x="333.4" y="202.3" class="node" fill="#9AA6E2">0.76</text><text x="358.5" y="189" class="node" fill="#9AA6E2">0.76</text><text x="383.6" y="177.1" class="node" fill="#4A6FE3">1</text><text x="408.7" y="167.9" class="node" fill="#E6BAC2">0.37</text><text x="433.8" y="159.3" class="node" fill="#4A6FE3">1</text><text x="458.9" y="152" class="node" fill="#9AA6E2">0.76</text><text x="383.6" y="200.9" class="node" fill="#9AA6E2">0.76</text><text x="283.2" y="265.8" class="node" fill="#4A6FE3">1</text><text x="308.3" y="257.2" class="node" fill="#4A6FE3">1</text><text x="333.4" y="249.9" class="node" fill="#9AA6E2">0.76</text><text x="232.9" y="289.1" class="node" fill="#4A6FE3">1</text><text x="182.7" y="340.5" class="node" fill="#E59FAC">0.28</text><text x="207.8" y="328.2" class="node" fill="#4A6FE3">1</text><text x="232.9" y="318.4" class="node" fill="#E59FAC">0.28</text><text x="232.9" y="338" class="node" fill="#D2D4E3">0.57</text><text x="82.3" y="676.1" class="node" fill="#D2D4E3">0.57</text><text x="107.4" y="661.6" class="node" fill="#DE728B">0.14</text><text x="132.5" y="647.4" class="node" fill="#D2D4E3">0.57</text><text x="157.6" y="628.7" class="node" fill="#D2D4E3">0.57</text><text x="182.7" y="606.1" class="node" fill="#D2D4E3">0.57</text><text x="207.8" y="575.4" class="node" fill="#4A6FE3">1</text><text x="232.9" y="532.6" class="node" fill="#E5CDD1">0.43</text><text x="258.1" y="487.1" class="node" fill="#9AA6E2">0.76</text><text x="283.2" y="460" class="node" fill="#9AA6E2">0.76</text><text x="308.3" y="431.3" class="node" fill="#8F9DE1">0.8</text><text x="333.4" y="421.9" class="node" fill="#8F9DE1">0.8</text><text x="358.5" y="412.7" class="node" fill="#8F9DE1">0.8</text><text x="383.6" y="404.1" class="node" fill="#4A6FE3">1</text><text x="408.7" y="396.8" class="node" fill="#E6ABB6">0.32</text><text x="308.3" y="488.6" class="node" fill="#D95A7A">0.07</text><text x="333.4" y="477.6" class="node" fill="#E59FAC">0.28</text><text x="358.5" y="465.3" class="node" fill="#E0E0E2">0.51</text><text x="383.6" y="455.5" class="node" fill="#E59FAC">0.28</text><text x="383.6" y="475.1" class="node" fill="#4A6FE3">1</text><text x="283.2" y="514.3" class="node" fill="#6D84E1">0.91</text><text x="258.1" y="578.1" class="node" fill="#4A6FE3">1</text><text x="283.2" y="568.4" class="node" fill="#E5CDD1">0.43</text><text x="308.3" y="558.9" class="node" fill="#E59FAC">0.28</text><text x="333.4" y="549.8" class="node" fill="#E0E0E2">0.51</text><text x="358.5" y="541.2" class="node" fill="#7D8FE1">0.86</text><text x="383.6" y="533.9" class="node" fill="#4A6FE3">1</text><text x="232.9" y="618.3" class="node" fill="#A8B1E2">0.71</text><text x="258.1" y="609.7" class="node" fill="#CACDE3">0.59</text><text x="283.2" y="602.4" class="node" fill="#4A6FE3">1</text><text x="182.7" y="651.4" class="node" fill="#E28699">0.2</text><text x="107.4" y="690.5" class="node" fill="#E59FAC">0.28</text></svg>
