<svg xmlns="http://www.w3.org/2000/svg" version="1.1" viewBox="0 0 682 720" preserveAspectRatio="xMidYMid meet" class="tree" data-char="163"><text x="678" y="12.7" text-anchor="end" class="stepsLabel">Character adds <tspan class="score">2</tspan> to tree score</text><text x="678" y="22.4" text-anchor="end" class="stepsLabel"><tspan class="score">0</tspan> additional regions</text><text x="678" y="32.1" text-anchor="end" class="stepsLabel"></text><text x="678" y="51.5" text-anchor="end" class="stepsLabel"><tspan dy="16" fill="#34caaf">An optimal tree under:</tspan><tspan x="680" style="font-style:italic" class="notThisAn" dy="1.2em">Implied weights, k = 4.5</tspan><tspan x="680" style="font-style:italic" class="notThisAn" dy="1.2em">IW, k = 10.5</tspan><tspan x="680" style="font-style:italic" class="thisAn" dy="1.2em">IW, k = 24</tspan><tspan x="680" style="font-style:italic" class="notThisAn" dy="1.2em">Equal weights</tspan></text><text x="205.8" y="656.2" fill="#fc8d59" class="flag">[0]</text><text x="227.8" y="656.2" fill="#000" class="taxonLabel">Flustra</text><text x="205.8" y="666" fill="#fc8d59" class="flag">[0]</text><text x="227.8" y="666" fill="#000" class="taxonLabel">Amathia</text><text x="306.3" y="607.3" fill="#fc8d59" class="flag">[0]</text><text x="328.3" y="607.3" fill="#000" class="taxonLabel">Sipunculus</text><text x="306.3" y="617.1" fill="#fc8d59" class="flag">[0]</text><text x="328.3" y="617.1" fill="#000" class="taxonLabel">Capitella</text><text x="281.2" y="626.9" fill="#fc8d59" class="flag">[0]</text><text x="303.2" y="626.9" fill="#000" class="taxonLabel">Serpula</text><text x="256.1" y="636.7" fill="#fc8d59" class="flag">[0]</text><text x="278.1" y="636.7" fill="#000" class="taxonLabel">Canadia spinosa</text><text x="281.2" y="587.7" fill="#fc8d59" class="flag">[0]</text><text x="303.2" y="587.7" fill="#000" class="taxonLabel">Wiwaxia corrugata</text><text x="281.2" y="597.5" fill="#fc8d59" class="flag">[0]</text><text x="303.2" y="597.5" fill="#000" class="taxonLabel">Odontogriphus omalus</text><text x="381.6" y="548.5" fill="#fc8d59" class="flag">[0]</text><text x="403.6" y="548.5" fill="#000" class="taxonLabel">Neopilina</text><text x="381.6" y="558.3" fill="#fc8d59" class="flag">[0]</text><text x="403.6" y="558.3" fill="#000" class="taxonLabel">Conocardium elongatum</text><text x="356.5" y="568.1" fill="#fc8d59" class="flag">[0]</text><text x="378.5" y="568.1" fill="#000" class="taxonLabel">Haliotis</text><text x="381.6" y="519.2" fill="#fc8d59" class="flag">[0]</text><text x="403.6" y="519.2" fill="#000" class="taxonLabel">Pojetaia runnegari</text><text x="381.6" y="529" fill="#fc8d59" class="flag">[0]</text><text x="403.6" y="529" fill="#000" class="taxonLabel">Mytilus</text><text x="356.5" y="538.8" fill="#fc8d59" class="flag">[0]</text><text x="378.5" y="538.8" fill="#000" class="taxonLabel">Dentalium</text><text x="306.3" y="577.9" fill="#fc8d59" class="flag">[0]</text><text x="328.3" y="577.9" fill="#000" class="taxonLabel">Pelagiella</text><text x="381.6" y="489.8" fill="#fc8d59" class="flag">[0]</text><text x="403.6" y="489.8" fill="#000" class="taxonLabel">Kulindroplax perissokomos</text><text x="381.6" y="499.6" fill="#fc8d59" class="flag">[0]</text><text x="403.6" y="499.6" fill="#000" class="taxonLabel">Acaenoplax hayae</text><text x="406.7" y="460.4" fill="#fc8d59" class="flag">[0]</text><text x="428.7" y="460.4" fill="#000" class="taxonLabel">Wirenia</text><text x="406.7" y="470.2" fill="#fc8d59" class="flag">[0]</text><text x="428.7" y="470.2" fill="#000" class="taxonLabel">Chaetoderma</text><text x="381.6" y="480" fill="#fc8d59" class="flag">[0]</text><text x="403.6" y="480" fill="#000" class="taxonLabel">Phthipodochiton thraivensis</text><text x="331.4" y="509.4" fill="#fc8d59" class="flag">[0]</text><text x="353.4" y="509.4" fill="#000" class="taxonLabel">Siphogonuchites multa</text><text x="431.8" y="401.7" fill="#fc8d59" class="flag">[0]</text><text x="453.8" y="401.7" fill="#000" class="taxonLabel">Tonicella</text><text x="431.8" y="411.5" fill="#fc8d59" class="flag">[0]</text><text x="453.8" y="411.5" fill="#000" class="taxonLabel">Mopalia</text><text x="406.7" y="421.2" fill="#fc8d59" class="flag">[0]</text><text x="428.7" y="421.2" fill="#000" class="taxonLabel">Polysacos vickersianum</text><text x="381.6" y="431" fill="#fc8d59" class="flag">[0]</text><text x="403.6" y="431" fill="#000" class="taxonLabel">Leptochiton</text><text x="356.5" y="440.8" fill="#fc8d59" class="flag">[0]</text><text x="378.5" y="440.8" fill="#000" class="taxonLabel">Glaphurochiton carbonarius</text><text x="331.4" y="450.6" fill="#fc8d59" class="flag">[0]</text><text x="353.4" y="450.6" fill="#000" class="taxonLabel">Calvapilosa kroegeri</text><text x="205.8" y="646.5" fill="#fc8d59" class="flag">[0]</text><text x="227.8" y="646.5" fill="#000" class="taxonLabel">Loxosomella</text><text x="155.6" y="675.8" fill="#fc8d59" class="flag">[0]</text><text x="177.6" y="675.8" fill="#000" class="taxonLabel">Phoronis</text><text x="130.5" y="685.6" fill="#fc8d59" class="flag">[0]</text><text x="152.5" y="685.6" fill="#000" class="taxonLabel">Namacalathus</text><text x="105.4" y="695.4" fill="#fc8d59" class="flag">[0]</text><text x="127.4" y="695.4" fill="#000" class="taxonLabel">Eccentrotheca</text><text x="80.3" y="705.2" fill="#fc8d59" class="flag">[0]</text><text x="102.3" y="705.2" fill="#000" class="taxonLabel">Cotyledion tylodes</text><text x="256.1" y="333.1" fill="#fc8d59" class="flag">[0]</text><text x="278.1" y="333.1" fill="#000" class="taxonLabel">Cupitheca holocyclata</text><text x="256.1" y="342.9" fill="#fc8d59" class="flag">[0]</text><text x="278.1" y="342.9" fill="#000" class="taxonLabel">Bactrotheca</text><text x="256.1" y="313.5" fill="#fc8d59" class="flag">[0]</text><text x="278.1" y="313.5" fill="#000" class="taxonLabel">Paramicrocornus</text><text x="256.1" y="323.3" fill="#fc8d59" class="flag">[0]</text><text x="278.1" y="323.3" fill="#000" class="taxonLabel">Haplophrentis carinatus</text><text x="205.8" y="352.7" fill="#fc8d59" class="flag">[0]</text><text x="227.8" y="352.7" fill="#000" class="taxonLabel">Pedunculotheca diania</text><text x="281.2" y="274.4" fill="#fc8d59" class="flag">[0]</text><text x="303.2" y="274.4" fill="#000" class="taxonLabel">Mickwitzia muralensis</text><text x="281.2" y="284.2" fill="#fc8d59" class="flag">[0]</text><text x="303.2" y="284.2" fill="#000" class="taxonLabel">Heliomedusa orienta</text><text x="256.1" y="294" fill="#fc8d59" class="flag">[0]</text><text x="278.1" y="294" fill="#000" class="taxonLabel">Micrina</text><text x="306.3" y="254.8" fill="#fc8d59" class="flag">[0]</text><text x="328.3" y="254.8" fill="#000" class="taxonLabel">Micromitra</text><text x="306.3" y="264.6" fill="#fc8d59" class="flag">[0]</text><text x="328.3" y="264.6" fill="#000" class="taxonLabel">Askepasma toddense</text><text x="356.5" y="225.4" fill="#91bfdb" class="flag">[1]</text><text x="378.5" y="225.4" fill="#000" class="taxonLabel">Coolinia pecten</text><text x="356.5" y="235.2" fill="#91bfdb" class="flag">[1]</text><text x="378.5" y="235.2" fill="#000" class="taxonLabel">Antigonambonites planus</text><text x="381.6" y="205.8" fill="#91bfdb" class="flag">[1]</text><text x="403.6" y="205.8" fill="#000" class="taxonLabel">Nisusia sulcata</text><text x="381.6" y="215.6" fill="#91bfdb" class="flag">[1]</text><text x="403.6" y="215.6" fill="#000" class="taxonLabel">Kutorgina chengjiangensis</text><text x="482" y="147.1" fill="#fc8d59" class="flag">[0]</text><text x="504" y="147.1" fill="#000" class="taxonLabel">Terebratulina</text><text x="482" y="156.9" fill="#fc8d59" class="flag">[0]</text><text x="504" y="156.9" fill="#000" class="taxonLabel">Orthis</text><text x="456.9" y="166.7" fill="#fc8d59" class="flag">[0]</text><text x="478.9" y="166.7" fill="#000" class="taxonLabel">Alisina</text><text x="431.8" y="176.5" fill="grey" class="flag">[?]</text><text x="453.8" y="176.5" fill="#999" class="taxonLabel">Longtancunella chengjiangensis</text><text x="406.7" y="186.2" fill="#fc8d59" class="flag">[0]</text><text x="428.7" y="186.2" fill="#000" class="taxonLabel">Glyptoria</text><text x="381.6" y="196" fill="#91bfdb" class="flag">[1]</text><text x="403.6" y="196" fill="#000" class="taxonLabel">Tomteluva perturbata</text><text x="306.3" y="245" fill="#91bfdb" class="flag">[1]</text><text x="328.3" y="245" fill="#000" class="taxonLabel">Salanygolina</text><text x="356.5" y="107.9" fill="#fc8d59" class="flag">[0]</text><text x="378.5" y="107.9" fill="#000" class="taxonLabel">Novocrania</text><text x="356.5" y="117.7" fill="#fc8d59" class="flag">[0]</text><text x="378.5" y="117.7" fill="#000" class="taxonLabel">Craniops</text><text x="331.4" y="127.5" fill="#fc8d59" class="flag">[0]</text><text x="353.4" y="127.5" fill="#000" class="taxonLabel">Ussunia</text><text x="306.3" y="137.3" fill="#fc8d59" class="flag">[0]</text><text x="328.3" y="137.3" fill="#000" class="taxonLabel">Gasconsia</text><text x="406.7" y="59" fill="#fc8d59" class="flag">[0]</text><text x="428.7" y="59" fill="#000" class="taxonLabel">Pelagodiscus atlanticus</text><text x="406.7" y="68.8" fill="#fc8d59" class="flag">[0]</text><text x="428.7" y="68.8" fill="#000" class="taxonLabel">Mummpikia nuda</text><text x="456.9" y="29.6" fill="#fc8d59" class="flag">[0]</text><text x="478.9" y="29.6" fill="#000" class="taxonLabel">Siphonobolus priscus</text><text x="456.9" y="39.4" fill="#fc8d59" class="flag">[0]</text><text x="478.9" y="39.4" fill="#000" class="taxonLabel">Acanthotretella spinosa</text><text x="456.9" y="10" fill="#fc8d59" class="flag">[0]</text><text x="478.9" y="10" fill="#000" class="taxonLabel">Lingulosacculus</text><text x="456.9" y="19.8" fill="#fc8d59" class="flag">[0]</text><text x="478.9" y="19.8" fill="#000" class="taxonLabel">Clupeafumosus socialis</text><text x="406.7" y="49.2" fill="#fc8d59" class="flag">[0]</text><text x="428.7" y="49.2" fill="#000" class="taxonLabel">Lingulellotreta malongensis</text><text x="356.5" y="78.5" fill="#fc8d59" class="flag">[0]</text><text x="378.5" y="78.5" fill="#000" class="taxonLabel">Botsfordia</text><text x="331.4" y="88.3" fill="#fc8d59" class="flag">[0]</text><text x="353.4" y="88.3" fill="#000" class="taxonLabel">Eoobolus</text><text x="306.3" y="98.1" fill="#fc8d59" class="flag">[0]</text><text x="328.3" y="98.1" fill="#000" class="taxonLabel">Lingula</text><text x="205.8" y="303.8" fill="grey" class="flag">[?]</text><text x="227.8" y="303.8" fill="#999" class="taxonLabel">Yuganotheca elegans</text><text x="155.6" y="362.5" fill="#fc8d59" class="flag">[0]</text><text x="177.6" y="362.5" fill="#000" class="taxonLabel">Paterimitra</text><text x="130.5" y="372.3" fill="#fc8d59" class="flag">[0]</text><text x="152.5" y="372.3" fill="#000" class="taxonLabel">Halkieria evangelista</text><text x="105.4" y="382.1" fill="#fc8d59" class="flag">[0]</text><text x="127.4" y="382.1" fill="#000" class="taxonLabel">Orthrozanclus</text><text x="80.3" y="391.9" fill="#fc8d59" class="flag">[0]</text><text x="102.3" y="391.9" fill="#000" class="taxonLabel">Dailyatia</text><text x="30.1" y="715" fill="#fc8d59" class="flag">[0]</text><text x="52.1" y="715" fill="#000" class="taxonLabel">Yilingia spiciformis</text><path d="M5,623V534H30.1M30.1,534V376.7H55.2M55.2,376.7V364.4H80.3M80.3,364.4V349.8H105.4M105.4,349.8V330.3H130.5M130.5,330.3V301H155.6M155.6,301V264.6H180.7M180.7,264.6V228.5H205.8M205.8,228.5V173.4H230.9M230.9,173.4V105H256.1M256.1,105V84.3H281.2M281.2,84.3V73.4H306.3M306.3,73.4V61.5H331.4M331.4,61.5V47.4H356.5M356.5,47.4V33.9H381.6M381.6,33.9V21.7H406.7M406.7,21.7V11.9H431.8M431.8,11.9V7H456.9M431.8,11.9V16.8H456.9M406.7,21.7V31.5H431.8M431.8,31.5V26.6H456.9M431.8,31.5V36.4H456.9M381.6,33.9V46.2H406.7M356.5,47.4V60.9H381.6M381.6,60.9V56H406.7M381.6,60.9V65.8H406.7M331.4,61.5V75.5H356.5M306.3,73.4V85.3H331.4M281.2,84.3V95.1H306.3M256.1,105V125.7H281.2M281.2,125.7V117.2H306.3M306.3,117.2V109.8H331.4M331.4,109.8V104.9H356.5M331.4,109.8V114.7H356.5M306.3,117.2V124.5H331.4M281.2,125.7V134.3H306.3M230.9,173.4V241.7H256.1M356.5,183.6V174.1H381.6M381.6,174.1V164.9H406.7M406.7,164.9V156.3H431.8M431.8,156.3V149H456.9M456.9,149V144.1H482M456.9,149V153.9H482M431.8,156.3V163.7H456.9M406.7,164.9V173.5H431.8M381.6,174.1V183.2H406.7M256.1,241.7V256.7H281.2M281.2,256.7V251.8H306.3M281.2,256.7V261.6H306.3M205.8,228.5V283.6H230.9M230.9,283.6V276.3H256.1M256.1,276.3V271.4H281.2M256.1,276.3V281.2H281.2M230.9,283.6V291H256.1M180.7,264.6V300.8H205.8M155.6,301V337.5H180.7M180.7,337.5V325.2H205.8M205.8,325.2V315.4H230.9M230.9,315.4V310.5H256.1M230.9,315.4V320.3H256.1M205.8,325.2V335H230.9M230.9,335V330.1H256.1M230.9,335V339.9H256.1M180.7,337.5V349.7H205.8M130.5,330.3V359.5H155.6M105.4,349.8V369.3H130.5M80.3,364.4V379.1H105.4M55.2,376.7V388.9H80.3M30.1,534V691.4H55.2M55.2,691.4V680.6H80.3M80.3,680.6V668.8H105.4M105.4,668.8V654.9H130.5M130.5,654.9V637H155.6M155.6,637V615.8H180.7M180.7,615.8V588.1H205.8M205.8,588.1V551H230.9M230.9,551V512.4H256.1M256.1,512.4V465.8H281.2M281.2,465.8V438.1H306.3M306.3,438.1V428.7H331.4M331.4,428.7V419.5H356.5M356.5,419.5V410.9H381.6M381.6,410.9V403.6H406.7M406.7,403.6V398.7H431.8M406.7,403.6V408.5H431.8M381.6,410.9V418.2H406.7M356.5,419.5V428H381.6M331.4,428.7V437.8H356.5M306.3,438.1V447.6H331.4M281.2,465.8V493.5H306.3M306.3,493.5V480.7H331.4M331.4,480.7V469.7H356.5M356.5,469.7V462.3H381.6M381.6,462.3V457.4H406.7M381.6,462.3V467.2H406.7M356.5,469.7V477H381.6M331.4,480.7V491.7H356.5M356.5,491.7V486.8H381.6M356.5,491.7V496.6H381.6M306.3,493.5V506.4H331.4M256.1,512.4V559H281.2M281.2,559V543.1H306.3M306.3,543.1V528.4H331.4M331.4,528.4V521.1H356.5M356.5,521.1V516.2H381.6M356.5,521.1V526H381.6M331.4,528.4V535.8H356.5M306.3,543.1V557.8H331.4M331.4,557.8V550.4H356.5M356.5,550.4V545.5H381.6M356.5,550.4V555.3H381.6M331.4,557.8V565.1H356.5M281.2,559V574.9H306.3M230.9,551V589.6H256.1M256.1,589.6V584.7H281.2M256.1,589.6V594.5H281.2M205.8,588.1V625.1H230.9M230.9,625.1V616.5H256.1M256.1,616.5V609.2H281.2M281.2,609.2V604.3H306.3M281.2,609.2V614.1H306.3M256.1,616.5V623.9H281.2M230.9,625.1V633.7H256.1M180.7,615.8V643.5H205.8M155.6,637V658.1H180.7M180.7,658.1V653.2H205.8M180.7,658.1V663H205.8M130.5,654.9V672.8H155.6M105.4,668.8V682.6H130.5M80.3,680.6V692.4H105.4M55.2,691.4V702.2H80.3M5,623V712H30.1" stroke="#fc8d59"></path><path d="M256.1,241.7V226.7H281.2M281.2,226.7V211.5H306.3M306.3,211.5V195.6H331.4M331.4,195.6V183.6H356.5M356.5,183.6V193H381.6M331.4,195.6V207.7H356.5M356.5,207.7V202.8H381.6M356.5,207.7V212.6H381.6M306.3,211.5V227.3H331.4M331.4,227.3V222.4H356.5M331.4,227.3V232.2H356.5M281.2,226.7V242H306.3" stroke="#91bfdb"></path><text x="32.1" y="537" class="node" fill="#E38C9E">0.22</text><text x="57.2" y="379.7" class="node" fill="#D2D4E3">0.57</text><text x="82.3" y="367.4" class="node" fill="#D2D4E3">0.57</text><text x="107.4" y="352.8" class="node" fill="#8F9DE1">0.8</text><text x="132.5" y="333.3" class="node" fill="#8F9DE1">0.8</text><text x="157.6" y="304" class="node" fill="#4A6FE3">1</text><text x="182.7" y="267.6" class="node" fill="#E59FAC">0.29</text><text x="207.8" y="231.5" class="node" fill="#E59FAC">0.29</text><text x="232.9" y="176.4" class="node" fill="#9AA6E2">0.76</text><text x="258.1" y="108" class="node" fill="#9AA6E2">0.76</text><text x="283.2" y="87.3" class="node" fill="#9AA6E2">0.76</text><text x="308.3" y="76.4" class="node" fill="#9AA6E2">0.76</text><text x="333.4" y="64.5" class="node" fill="#9AA6E2">0.76</text><text x="358.5" y="50.4" class="node" fill="#9AA6E2">0.76</text><text x="383.6" y="36.9" class="node" fill="#4A6FE3">1</text><text x="408.7" y="24.7" class="node" fill="#E6ABB6">0.32</text><text x="433.8" y="14.9" class="node" fill="#4A6FE3">1</text><text x="433.8" y="34.5" class="node" fill="#9AA6E2">0.76</text><text x="383.6" y="63.9" class="node" fill="#9AA6E2">0.76</text><text x="283.2" y="128.7" class="node" fill="#4A6FE3">1</text><text x="308.3" y="120.2" class="node" fill="#4A6FE3">1</text><text x="333.4" y="112.8" class="node" fill="#E59FAC">0.29</text><text x="258.1" y="244.7" class="node" fill="#E59FAC">0.29</text><text x="283.2" y="229.7" class="node" fill="#E59FAC">0.29</text><text x="308.3" y="214.5" class="node" fill="#E59FAC">0.29</text><text x="333.4" y="198.6" class="node" fill="#E59FAC">0.29</text><text x="358.5" y="186.6" class="node" fill="#4F72E2">0.99</text><text x="383.6" y="177.1" class="node" fill="#4F72E2">0.99</text><text x="408.7" y="167.9" class="node" fill="#4A6FE3">1</text><text x="433.8" y="159.3" class="node" fill="#4A6FE3">1</text><text x="458.9" y="152" class="node" fill="#BCC2E3">0.64</text><text x="358.5" y="210.7" class="node" fill="#4A6FE3">1</text><text x="333.4" y="230.3" class="node" fill="#ABB4E2">0.7</text><text x="283.2" y="259.7" class="node" fill="#E59FAC">0.29</text><text x="232.9" y="286.6" class="node" fill="#9AA6E2">0.76</text><text x="258.1" y="279.3" class="node" fill="#4A6FE3">1</text><text x="182.7" y="340.5" class="node" fill="#DADBE3">0.53</text><text x="207.8" y="328.2" class="node" fill="#4A6FE3">1</text><text x="232.9" y="318.4" class="node" fill="#E3DFE0">0.49</text><text x="232.9" y="338" class="node" fill="#D2D4E3">0.57</text><text x="57.2" y="694.4" class="node" fill="#E17F94">0.18</text><text x="82.3" y="683.6" class="node" fill="#D2D4E3">0.57</text><text x="107.4" y="671.8" class="node" fill="#E6BAC2">0.37</text><text x="132.5" y="657.9" class="node" fill="#D2D4E3">0.57</text><text x="157.6" y="640" class="node" fill="#D2D4E3">0.57</text><text x="182.7" y="618.8" class="node" fill="#D2D4E3">0.57</text><text x="207.8" y="591.1" class="node" fill="#4A6FE3">1</text><text x="232.9" y="554" class="node" fill="#E59FAC">0.29</text><text x="258.1" y="515.4" class="node" fill="#9AA6E2">0.76</text><text x="283.2" y="468.8" class="node" fill="#9AA6E2">0.76</text><text x="308.3" y="441.1" class="node" fill="#8F9DE1">0.8</text><text x="333.4" y="431.7" class="node" fill="#8F9DE1">0.8</text><text x="358.5" y="422.5" class="node" fill="#8F9DE1">0.8</text><text x="383.6" y="413.9" class="node" fill="#4A6FE3">1</text><text x="408.7" y="406.6" class="node" fill="#E6ABB6">0.32</text><text x="308.3" y="496.5" class="node" fill="#B4BBE3">0.67</text><text x="333.4" y="483.7" class="node" fill="#DD6F88">0.13</text><text x="358.5" y="472.7" class="node" fill="#E3DFE0">0.49</text><text x="383.6" y="465.3" class="node" fill="#E59FAC">0.29</text><text x="358.5" y="494.7" class="node" fill="#6D84E1">0.91</text><text x="283.2" y="562" class="node" fill="#4A6FE3">1</text><text x="308.3" y="546.1" class="node" fill="#E6ABB6">0.32</text><text x="333.4" y="531.4" class="node" fill="#7D8FE1">0.86</text><text x="358.5" y="524.1" class="node" fill="#E4D6D8">0.46</text><text x="333.4" y="560.8" class="node" fill="#E3DFE0">0.49</text><text x="358.5" y="553.4" class="node" fill="#4A6FE3">1</text><text x="258.1" y="592.6" class="node" fill="#4A6FE3">1</text><text x="232.9" y="628.1" class="node" fill="#E59FAC">0.29</text><text x="258.1" y="619.5" class="node" fill="#E59FAC">0.29</text><text x="283.2" y="612.2" class="node" fill="#4A6FE3">1</text><text x="182.7" y="661.1" class="node" fill="#E38C9E">0.22</text></svg>
