<svg xmlns="http://www.w3.org/2000/svg" version="1.1" viewBox="0 0 682 720" preserveAspectRatio="xMidYMid meet" class="tree" data-char="74"><text x="678" y="16.8" text-anchor="end" class="stepsLabel">Character adds <tspan class="score">2</tspan> to tree score</text><text x="678" y="30.6" text-anchor="end" class="stepsLabel"><tspan class="score">0</tspan> additional regions</text><text x="678" y="44.4" text-anchor="end" class="stepsLabel"></text><text x="678" y="72" text-anchor="end" class="stepsLabel"><tspan dy="16" fill="#34caaf">An optimal tree under:</tspan><tspan x="680" style="font-style:italic" class="notThisAn" dy="1.2em">Implied weights, k = 3</tspan><tspan x="680" style="font-style:italic" class="thisAn" dy="1.2em">IW, k = 4.5</tspan><tspan x="680" style="font-style:italic" class="notThisAn" dy="1.2em">IW, k = 7</tspan><tspan x="680" style="font-style:italic" class="notThisAn" dy="1.2em">IW, k = 10.5</tspan><tspan x="680" style="font-style:italic" class="notThisAn" dy="1.2em">IW, k = 16</tspan><tspan x="680" style="font-style:italic" class="notThisAn" dy="1.2em">IW, k = 24</tspan><tspan x="680" style="font-style:italic" class="notThisAn" dy="1.2em">Equal weights</tspan></text><text x="154.1" y="658.6" fill="#fc8d59" class="flag">[0]</text><text x="176.1" y="658.6" fill="#000" class="taxonLabel">Serpula</text><text x="154.1" y="672.7" fill="#fc8d59" class="flag">[0]</text><text x="176.1" y="672.7" fill="#000" class="taxonLabel">Capitella</text><text x="124.2" y="686.8" fill="#fc8d59" class="flag">[0]</text><text x="146.2" y="686.8" fill="#000" class="taxonLabel">Canadia spinosa</text><text x="94.4" y="700.9" fill="#fc8d59" class="flag">[0]</text><text x="116.4" y="700.9" fill="#000" class="taxonLabel">Sipunculus</text><text x="243.5" y="588.1" fill="#fc8d59" class="flag">[0]</text><text x="265.5" y="588.1" fill="#000" class="taxonLabel">Wirenia</text><text x="243.5" y="602.2" fill="grey" class="flag">[?]</text><text x="265.5" y="602.2" fill="#999" class="taxonLabel">Phthipodochiton thraivensis</text><text x="303.1" y="559.9" fill="grey" class="flag">[?]</text><text x="325.1" y="559.9" fill="#999" class="taxonLabel">Siphogonuchites multa</text><text x="303.1" y="574" fill="grey" class="flag">[?]</text><text x="325.1" y="574" fill="#999" class="taxonLabel">Calvapilosa kroegeri</text><text x="392.6" y="489.4" fill="#91bfdb" class="flag">[1]</text><text x="414.6" y="489.4" fill="#000" class="taxonLabel">Tonicella</text><text x="392.6" y="503.5" fill="#91bfdb" class="flag">[1]</text><text x="414.6" y="503.5" fill="#000" class="taxonLabel">Mopalia</text><text x="362.8" y="517.6" fill="grey" class="flag">[?]</text><text x="384.8" y="517.6" fill="#999" class="taxonLabel">Polysacos vickersianum</text><text x="332.9" y="531.7" fill="#91bfdb" class="flag">[1]</text><text x="354.9" y="531.7" fill="#000" class="taxonLabel">Leptochiton</text><text x="303.1" y="545.8" fill="grey" class="flag">[?]</text><text x="325.1" y="545.8" fill="#999" class="taxonLabel">Glaphurochiton carbonarius</text><text x="303.1" y="461.2" fill="grey" class="flag">[?]</text><text x="325.1" y="461.2" fill="#999" class="taxonLabel">Wiwaxia corrugata</text><text x="303.1" y="475.3" fill="#91bfdb" class="flag">[1]</text><text x="325.1" y="475.3" fill="#000" class="taxonLabel">Odontogriphus omalus</text><text x="482" y="348.4" fill="#fc8d59" class="flag">[0]</text><text x="504" y="348.4" fill="#000" class="taxonLabel">Mytilus</text><text x="482" y="362.5" fill="#fc8d59" class="flag">[0]</text><text x="504" y="362.5" fill="#000" class="taxonLabel">Dentalium</text><text x="452.2" y="376.6" fill="grey" class="flag">[?]</text><text x="474.2" y="376.6" fill="#999" class="taxonLabel">Pojetaia runnegari</text><text x="422.4" y="390.7" fill="grey" class="flag">[?]</text><text x="444.4" y="390.7" fill="#999" class="taxonLabel">Conocardium elongatum</text><text x="392.6" y="404.8" fill="#91bfdb" class="flag">[1]</text><text x="414.6" y="404.8" fill="#000" class="taxonLabel">Neopilina</text><text x="362.8" y="418.9" fill="#91bfdb" class="flag">[1]</text><text x="384.8" y="418.9" fill="#000" class="taxonLabel">Haliotis</text><text x="332.9" y="433" fill="grey" class="flag">[?]</text><text x="354.9" y="433" fill="#999" class="taxonLabel">Pelagiella</text><text x="303.1" y="447.1" fill="#91bfdb" class="flag">[1]</text><text x="325.1" y="447.1" fill="#000" class="taxonLabel">Chaetoderma</text><text x="183.9" y="616.3" fill="#fc8d59" class="flag">[0]</text><text x="205.9" y="616.3" fill="#000" class="taxonLabel">Acaenoplax hayae</text><text x="154.1" y="630.4" fill="#fc8d59" class="flag">[0]</text><text x="176.1" y="630.4" fill="#000" class="taxonLabel">Kulindroplax perissokomos</text><text x="243.5" y="292" fill="grey" class="flag">[?]</text><text x="265.5" y="292" fill="#999" class="taxonLabel">Namacalathus</text><text x="243.5" y="306.1" fill="#fc8d59" class="flag">[0]</text><text x="265.5" y="306.1" fill="#000" class="taxonLabel">Loxosomella</text><text x="213.7" y="320.2" fill="#fc8d59" class="flag">[0]</text><text x="235.7" y="320.2" fill="#000" class="taxonLabel">Cotyledion tylodes</text><text x="183.9" y="334.3" fill="grey" class="flag">[?]</text><text x="205.9" y="334.3" fill="#999" class="taxonLabel">Orthrozanclus</text><text x="243.5" y="249.7" fill="#fc8d59" class="flag">[0]</text><text x="265.5" y="249.7" fill="#000" class="taxonLabel">Flustra</text><text x="243.5" y="263.8" fill="#fc8d59" class="flag">[0]</text><text x="265.5" y="263.8" fill="#000" class="taxonLabel">Amathia</text><text x="213.7" y="277.9" fill="grey" class="flag">[?]</text><text x="235.7" y="277.9" fill="#999" class="taxonLabel">Dailyatia</text><text x="243.5" y="221.5" fill="#fc8d59" class="flag">[0]</text><text x="265.5" y="221.5" fill="#000" class="taxonLabel">Phoronis</text><text x="243.5" y="235.6" fill="grey" class="flag">[?]</text><text x="265.5" y="235.6" fill="#999" class="taxonLabel">Eccentrotheca</text><text x="332.9" y="165.1" fill="#fc8d59" class="flag">[0]</text><text x="354.9" y="165.1" fill="#000" class="taxonLabel">Terebratulina</text><text x="332.9" y="179.2" fill="grey" class="flag">[?]</text><text x="354.9" y="179.2" fill="#999" class="taxonLabel">Orthis</text><text x="392.6" y="136.9" fill="grey" class="flag">[?]</text><text x="414.6" y="136.9" fill="#999" class="taxonLabel">Micromitra</text><text x="392.6" y="151" fill="grey" class="flag">[?]</text><text x="414.6" y="151" fill="#999" class="taxonLabel">Gasconsia</text><text x="392.6" y="108.7" fill="#fc8d59" class="flag">[0]</text><text x="414.6" y="108.7" fill="#000" class="taxonLabel">Novocrania</text><text x="392.6" y="122.8" fill="#fc8d59" class="flag">[0]</text><text x="414.6" y="122.8" fill="#000" class="taxonLabel">Heliomedusa orienta</text><text x="452.2" y="52.3" fill="grey" class="flag">[?]</text><text x="474.2" y="52.3" fill="#999" class="taxonLabel">Pedunculotheca diania</text><text x="452.2" y="66.4" fill="#fc8d59" class="flag">[0]</text><text x="474.2" y="66.4" fill="#000" class="taxonLabel">Haplophrentis carinatus</text><text x="482" y="10" fill="#fc8d59" class="flag">[0]</text><text x="504" y="10" fill="#000" class="taxonLabel">Yuganotheca elegans</text><text x="482" y="24.1" fill="#fc8d59" class="flag">[0]</text><text x="504" y="24.1" fill="#000" class="taxonLabel">Lingula</text><text x="452.2" y="38.2" fill="#fc8d59" class="flag">[0]</text><text x="474.2" y="38.2" fill="#000" class="taxonLabel">Lingulellotreta malongensis</text><text x="392.6" y="80.5" fill="#fc8d59" class="flag">[0]</text><text x="414.6" y="80.5" fill="#000" class="taxonLabel">Pelagodiscus atlanticus</text><text x="362.8" y="94.6" fill="grey" class="flag">[?]</text><text x="384.8" y="94.6" fill="#999" class="taxonLabel">Mickwitzia muralensis</text><text x="273.3" y="193.3" fill="grey" class="flag">[?]</text><text x="295.3" y="193.3" fill="#999" class="taxonLabel">Micrina</text><text x="243.5" y="207.4" fill="grey" class="flag">[?]</text><text x="265.5" y="207.4" fill="#999" class="taxonLabel">Paterimitra</text><text x="94.4" y="644.5" fill="grey" class="flag">[?]</text><text x="116.4" y="644.5" fill="#999" class="taxonLabel">Halkieria evangelista</text><text x="34.8" y="715" fill="grey" class="flag">[?]</text><text x="56.8" y="715" fill="#999" class="taxonLabel">Yilingia spiciformis</text><path d="M5,662.6V613.1H34.8M34.8,613.1V540.7H64.6M64.6,540.7V439.9H94.4M94.4,439.9V276.7H124.2M124.2,276.7V234.4H154.1M154.1,234.4V204.6H183.9M183.9,204.6V183.6H213.7M213.7,183.6V162.7H243.5M243.5,162.7V135.1H273.3M273.3,135.1V101.1H303.1M303.1,101.1V75.3H332.9M332.9,75.3V59H362.8M362.8,59V40.5H392.6M392.6,40.5V24.6H422.4M422.4,24.6V14.1H452.2M452.2,14.1V7H482M452.2,14.1V21.1H482M422.4,24.6V35.2H452.2M392.6,40.5V56.3H422.4M422.4,56.3V49.3H452.2M422.4,56.3V63.4H452.2M362.8,59V77.5H392.6M332.9,75.3V91.6H362.8M303.1,101.1V126.8H332.9M332.9,126.8V112.8H362.8M362.8,112.8V105.7H392.6M362.8,112.8V119.8H392.6M332.9,126.8V140.9H362.8M362.8,140.9V133.9H392.6M362.8,140.9V148H392.6M273.3,135.1V169.1H303.1M303.1,169.1V162.1H332.9M303.1,169.1V176.2H332.9M243.5,162.7V190.3H273.3M213.7,183.6V204.4H243.5M183.9,204.6V225.6H213.7M213.7,225.6V218.5H243.5M213.7,225.6V232.6H243.5M154.1,234.4V264.3H183.9M183.9,264.3V253.7H213.7M213.7,253.7V246.7H243.5M213.7,253.7V260.8H243.5M183.9,264.3V274.9H213.7M124.2,276.7V319H154.1M154.1,319V306.6H183.9M183.9,306.6V296H213.7M213.7,296V289H243.5M213.7,296V303.1H243.5M183.9,306.6V317.2H213.7M154.1,319V331.3H183.9M94.4,439.9V603.2H124.2M124.2,603.2V579H154.1M154.1,579V544.7H183.9M422.4,363V352.4H452.2M452.2,352.4V345.4H482M452.2,352.4V359.5H482M183.9,544.7V592.1H213.7M213.7,592.1V585.1H243.5M213.7,592.1V599.2H243.5M154.1,579V613.3H183.9M124.2,603.2V627.4H154.1M64.6,540.7V641.5H94.4M34.8,613.1V685.6H64.6M64.6,685.6V673.2H94.4M94.4,673.2V662.6H124.2M124.2,662.6V655.6H154.1M124.2,662.6V669.7H154.1M94.4,673.2V683.8H124.2M64.6,685.6V697.9H94.4M5,662.6V712H34.8" stroke="#fc8d59"></path><path d="M183.9,544.7V497.2H213.7M213.7,497.2V447.7H243.5M243.5,447.7V430.1H273.3M273.3,430.1V416.1H303.1M303.1,416.1V402.2H332.9M332.9,402.2V388.6H362.8M362.8,388.6V375.4H392.6M362.8,388.6V401.8H392.6M332.9,402.2V415.9H362.8M303.1,416.1V430H332.9M273.3,430.1V444.1H303.1M243.5,447.7V465.2H273.3M273.3,465.2V458.2H303.1M273.3,465.2V472.3H303.1M213.7,497.2V546.8H243.5M243.5,546.8V529.6H273.3M273.3,529.6V516.4H303.1M303.1,516.4V504H332.9M332.9,504V493.4H362.8M362.8,493.4V486.4H392.6M362.8,493.4V500.5H392.6M332.9,504V514.6H362.8M303.1,516.4V528.7H332.9M273.3,529.6V542.8H303.1M243.5,546.8V564H273.3M273.3,564V556.9H303.1M273.3,564V571H303.1" stroke="#91bfdb"></path><path d="M392.6,375.4V363H422.4M422.4,363V373.6H452.2M392.6,375.4V387.7H422.4" stroke="darkgrey"></path><text x="36.8" y="616.1" class="node" fill="#E38FA0">0.23</text><text x="66.6" y="543.7" class="node" fill="#D54C71">0.03</text><text x="96.4" y="442.9" class="node" fill="#D54C71">0.03</text><text x="126.2" y="279.7" class="node" fill="#D54C71">0.03</text><text x="156.1" y="237.4" class="node" fill="#D54C71">0.03</text><text x="185.9" y="207.6" class="node" fill="#E6B7C0">0.36</text><text x="215.7" y="186.6" class="node" fill="#D54C71">0.03</text><text x="245.5" y="165.7" class="node" fill="#D54C71">0.03</text><text x="275.3" y="138.1" class="node" fill="#D54C71">0.03</text><text x="305.1" y="104.1" class="node" fill="#D54C71">0.03</text><text x="334.9" y="78.3" class="node" fill="#D54C71">0.03</text><text x="364.8" y="62" class="node" fill="#D54C71">0.03</text><text x="394.6" y="43.5" class="node" fill="#4A6FE3">1</text><text x="424.4" y="27.6" class="node" fill="#E3DFE0">0.49</text><text x="454.2" y="17.1" class="node" fill="#4A6FE3">1</text><text x="424.4" y="59.3" class="node" fill="#D54C71">0.03</text><text x="334.9" y="129.8" class="node" fill="#D54C71">0.03</text><text x="364.8" y="115.8" class="node" fill="#4A6FE3">1</text><text x="364.8" y="143.9" class="node" fill="#4A6FE3">1</text><text x="305.1" y="172.1" class="node" fill="#DD6F88">0.13</text><text x="215.7" y="228.6" class="node" fill="#D54C71">0.03</text><text x="185.9" y="267.3" class="node" fill="#4A6FE3">1</text><text x="215.7" y="256.7" class="node" fill="#D54C71">0.03</text><text x="156.1" y="322" class="node" fill="#D54C71">0.03</text><text x="185.9" y="309.6" class="node" fill="#D54C71">0.03</text><text x="215.7" y="299" class="node" fill="#4A6FE3">1</text><text x="126.2" y="606.2" class="node" fill="#B4BBE3">0.67</text><text x="156.1" y="582" class="node" fill="#B4BBE3">0.67</text><text x="185.9" y="547.7" class="node" fill="#D54C71">0.03</text><text x="215.7" y="500.2" class="node" fill="#D54C71">0.03</text><text x="245.5" y="450.7" class="node" fill="#D54C71">0.03</text><text x="275.3" y="433.1" class="node" fill="#929FE1">0.79</text><text x="305.1" y="419.1" class="node" fill="#7A8DE1">0.87</text><text x="334.9" y="405.2" class="node" fill="#D54C71">0.03</text><text x="364.8" y="391.6" class="node" fill="#D54C71">0.03</text><text x="394.6" y="378.4" class="node" fill="#4A6FE3">1</text><text x="424.4" y="366" class="node" fill="#D54C71">0.03</text><text x="454.2" y="355.4" class="node" fill="#4A6FE3">1</text><text x="275.3" y="468.2" class="node" fill="#DA5E7D">0.08</text><text x="245.5" y="549.8" class="node" fill="#4A6FE3">1</text><text x="275.3" y="532.6" class="node" fill="#4A6FE3">1</text><text x="305.1" y="519.4" class="node" fill="#4A6FE3">1</text><text x="334.9" y="507" class="node" fill="#4A6FE3">1</text><text x="364.8" y="496.4" class="node" fill="#D54C71">0.03</text><text x="275.3" y="567" class="node" fill="#E38FA0">0.23</text><text x="215.7" y="595.1" class="node" fill="#4A6FE3">1</text><text x="66.6" y="688.6" class="node" fill="#4A6FE3">1</text><text x="96.4" y="676.2" class="node" fill="#4A6FE3">1</text><text x="126.2" y="665.6" class="node" fill="#E38FA0">0.23</text></svg>
