<svg xmlns="http://www.w3.org/2000/svg" version="1.1" viewBox="0 0 682 720" preserveAspectRatio="xMidYMid meet" class="tree" data-char="266"><text x="678" y="16.8" text-anchor="end" class="stepsLabel">Character adds <tspan class="score">2</tspan> to tree score</text><text x="678" y="30.6" text-anchor="end" class="stepsLabel"><tspan class="score">0</tspan> additional regions</text><text x="678" y="44.4" text-anchor="end" class="stepsLabel"></text><text x="678" y="72" text-anchor="end" class="stepsLabel"><tspan dy="16" fill="#34caaf">An optimal tree under:</tspan><tspan x="680" style="font-style:italic" class="notThisAn" dy="1.2em">Implied weights, k = 3</tspan><tspan x="680" style="font-style:italic" class="notThisAn" dy="1.2em">IW, k = 4.5</tspan><tspan x="680" style="font-style:italic" class="notThisAn" dy="1.2em">IW, k = 7</tspan><tspan x="680" style="font-style:italic" class="notThisAn" dy="1.2em">IW, k = 10.5</tspan><tspan x="680" style="font-style:italic" class="notThisAn" dy="1.2em">IW, k = 16</tspan><tspan x="680" style="font-style:italic" class="notThisAn" dy="1.2em">IW, k = 24</tspan><tspan x="680" style="font-style:italic" class="thisAn" dy="1.2em">Equal weights</tspan></text><text x="111" y="686.8" fill="grey" class="flag">[?]</text><text x="133" y="686.8" fill="#999" class="taxonLabel">Eccentrotheca</text><text x="111" y="700.9" fill="grey" class="flag">[?]</text><text x="133" y="700.9" fill="#999" class="taxonLabel">Cotyledion tylodes</text><text x="190.5" y="616.3" fill="#91bfdb" class="flag">[2]</text><text x="212.5" y="616.3" fill="#000" class="taxonLabel">Flustra</text><text x="190.5" y="630.4" fill="#91bfdb" class="flag">[2]</text><text x="212.5" y="630.4" fill="#000" class="taxonLabel">Amathia</text><text x="164" y="644.5" fill="#e2e2a2" class="flag">[1]</text><text x="186" y="644.5" fill="#000" class="taxonLabel">Loxosomella</text><text x="137.5" y="658.6" fill="#91bfdb" class="flag">[2]</text><text x="159.5" y="658.6" fill="#000" class="taxonLabel">Phoronis</text><text x="111" y="672.7" fill="grey" class="flag">[?]</text><text x="133" y="672.7" fill="#999" class="taxonLabel">Namacalathus</text><text x="190.5" y="545.8" fill="grey" class="flag">[?]</text><text x="212.5" y="545.8" fill="#999" class="taxonLabel">Pedunculotheca diania</text><text x="190.5" y="559.9" fill="grey" class="flag">[?]</text><text x="212.5" y="559.9" fill="#999" class="taxonLabel">Haplophrentis carinatus</text><text x="296.5" y="489.4" fill="grey" class="flag">[?]</text><text x="318.5" y="489.4" fill="#999" class="taxonLabel">Mickwitzia muralensis</text><text x="296.5" y="503.5" fill="grey" class="flag">[?]</text><text x="318.5" y="503.5" fill="#999" class="taxonLabel">Heliomedusa orienta</text><text x="323" y="461.2" fill="grey" class="flag">[?]</text><text x="345" y="461.2" fill="#999" class="taxonLabel">Micromitra</text><text x="323" y="475.3" fill="grey" class="flag">[?]</text><text x="345" y="475.3" fill="#999" class="taxonLabel">Gasconsia</text><text x="349.5" y="433" fill="grey" class="flag">[?]</text><text x="371.5" y="433" fill="#999" class="taxonLabel">Terebratulina</text><text x="349.5" y="447.1" fill="grey" class="flag">[?]</text><text x="371.5" y="447.1" fill="#999" class="taxonLabel">Orthis</text><text x="429" y="362.5" fill="grey" class="flag">[?]</text><text x="451" y="362.5" fill="#999" class="taxonLabel">Yuganotheca elegans</text><text x="429" y="376.6" fill="grey" class="flag">[?]</text><text x="451" y="376.6" fill="#999" class="taxonLabel">Lingula</text><text x="402.5" y="390.7" fill="grey" class="flag">[?]</text><text x="424.5" y="390.7" fill="#999" class="taxonLabel">Lingulellotreta malongensis</text><text x="376" y="404.8" fill="grey" class="flag">[?]</text><text x="398" y="404.8" fill="#999" class="taxonLabel">Pelagodiscus atlanticus</text><text x="349.5" y="418.9" fill="#91bfdb" class="flag">[2]</text><text x="371.5" y="418.9" fill="#000" class="taxonLabel">Novocrania</text><text x="243.5" y="517.6" fill="grey" class="flag">[?]</text><text x="265.5" y="517.6" fill="#999" class="taxonLabel">Micrina</text><text x="217" y="531.7" fill="grey" class="flag">[?]</text><text x="239" y="531.7" fill="#999" class="taxonLabel">Paterimitra</text><text x="296.5" y="306.1" fill="#91bfdb" class="flag">[2]</text><text x="318.5" y="306.1" fill="#000" class="taxonLabel">Serpula</text><text x="296.5" y="320.2" fill="grey" class="flag">[?]</text><text x="318.5" y="320.2" fill="#999" class="taxonLabel">Capitella</text><text x="270" y="334.3" fill="grey" class="flag">[?]</text><text x="292" y="334.3" fill="#999" class="taxonLabel">Canadia spinosa</text><text x="243.5" y="348.4" fill="#91bfdb" class="flag">[2]</text><text x="265.5" y="348.4" fill="#000" class="taxonLabel">Sipunculus</text><text x="349.5" y="249.7" fill="grey" class="flag">[?]</text><text x="371.5" y="249.7" fill="#999" class="taxonLabel">Wirenia</text><text x="349.5" y="263.8" fill="grey" class="flag">[?]</text><text x="371.5" y="263.8" fill="#999" class="taxonLabel">Chaetoderma</text><text x="482" y="151" fill="#e2e2a2" class="flag">[1]</text><text x="504" y="151" fill="#000" class="taxonLabel">Tonicella</text><text x="482" y="165.1" fill="grey" class="flag">[?]</text><text x="504" y="165.1" fill="#999" class="taxonLabel">Mopalia</text><text x="455.5" y="179.2" fill="grey" class="flag">[?]</text><text x="477.5" y="179.2" fill="#999" class="taxonLabel">Polysacos vickersianum</text><text x="429" y="193.3" fill="grey" class="flag">[?]</text><text x="451" y="193.3" fill="#999" class="taxonLabel">Leptochiton</text><text x="402.5" y="207.4" fill="grey" class="flag">[?]</text><text x="424.5" y="207.4" fill="#999" class="taxonLabel">Glaphurochiton carbonarius</text><text x="376" y="221.5" fill="grey" class="flag">[?]</text><text x="398" y="221.5" fill="#999" class="taxonLabel">Calvapilosa kroegeri</text><text x="349.5" y="235.6" fill="grey" class="flag">[?]</text><text x="371.5" y="235.6" fill="#999" class="taxonLabel">Phthipodochiton thraivensis</text><text x="376" y="108.7" fill="grey" class="flag">[?]</text><text x="398" y="108.7" fill="#999" class="taxonLabel">Wiwaxia corrugata</text><text x="376" y="122.8" fill="grey" class="flag">[?]</text><text x="398" y="122.8" fill="#999" class="taxonLabel">Odontogriphus omalus</text><text x="455.5" y="52.3" fill="grey" class="flag">[?]</text><text x="477.5" y="52.3" fill="#999" class="taxonLabel">Neopilina</text><text x="455.5" y="66.4" fill="grey" class="flag">[?]</text><text x="477.5" y="66.4" fill="#999" class="taxonLabel">Conocardium elongatum</text><text x="429" y="80.5" fill="grey" class="flag">[?]</text><text x="451" y="80.5" fill="#999" class="taxonLabel">Haliotis</text><text x="455.5" y="10" fill="grey" class="flag">[?]</text><text x="477.5" y="10" fill="#999" class="taxonLabel">Pojetaia runnegari</text><text x="455.5" y="24.1" fill="grey" class="flag">[?]</text><text x="477.5" y="24.1" fill="#999" class="taxonLabel">Mytilus</text><text x="429" y="38.2" fill="#e2e2a2" class="flag">[1]</text><text x="451" y="38.2" fill="#000" class="taxonLabel">Dentalium</text><text x="376" y="94.6" fill="grey" class="flag">[?]</text><text x="398" y="94.6" fill="#999" class="taxonLabel">Pelagiella</text><text x="323" y="136.9" fill="grey" class="flag">[?]</text><text x="345" y="136.9" fill="#999" class="taxonLabel">Siphogonuchites multa</text><text x="270" y="277.9" fill="grey" class="flag">[?]</text><text x="292" y="277.9" fill="#999" class="taxonLabel">Acaenoplax hayae</text><text x="243.5" y="292" fill="grey" class="flag">[?]</text><text x="265.5" y="292" fill="#999" class="taxonLabel">Kulindroplax perissokomos</text><text x="137.5" y="574" fill="grey" class="flag">[?]</text><text x="159.5" y="574" fill="#999" class="taxonLabel">Halkieria evangelista</text><text x="111" y="588.1" fill="grey" class="flag">[?]</text><text x="133" y="588.1" fill="#999" class="taxonLabel">Orthrozanclus</text><text x="84.5" y="602.2" fill="grey" class="flag">[?]</text><text x="106.5" y="602.2" fill="#999" class="taxonLabel">Dailyatia</text><text x="31.5" y="715" fill="grey" class="flag">[?]</text><text x="53.5" y="715" fill="#999" class="taxonLabel">Yilingia spiciformis</text><path d="M5,668.6V625.2H31.5M31.5,625.2V576.8H58M58,576.8V554.3H84.5M84.5,554.3V523.6H111M111,523.6V476.2H137.5M137.5,476.2V402.5H164M164,402.5V294.9H190.5M190.5,294.9V256.8H217M190.5,294.9V333.1H217M217,333.1V320.7H243.5M243.5,320.7V310.1H270M270,310.1V303.1H296.5M270,310.1V317.2H296.5M243.5,320.7V331.3H270M217,333.1V345.4H243.5M164,402.5V510H190.5M190.5,510V491.3H217M217,491.3V468H243.5M243.5,468V442.6H270M270,442.6V419.9H296.5M296.5,419.9V402.7H323M323,402.7V389.5H349.5M349.5,389.5V377.1H376M376,377.1V366.5H402.5M402.5,366.5V359.5H429M402.5,366.5V373.6H429M376,377.1V387.7H402.5M349.5,389.5V401.8H376M323,402.7V415.9H349.5M296.5,419.9V437H323M323,437V430H349.5M323,437V444.1H349.5M270,442.6V465.2H296.5M296.5,465.2V458.2H323M296.5,465.2V472.3H323M243.5,468V493.4H270M270,493.4V486.4H296.5M270,493.4V500.5H296.5M217,491.3V514.6H243.5M190.5,510V528.7H217M137.5,476.2V549.8H164M164,549.8V542.8H190.5M164,549.8V556.9H190.5M111,523.6V571H137.5M84.5,554.3V585.1H111M58,576.8V599.2H84.5M31.5,625.2V673.7H58M58,673.7V656.5H84.5M84.5,656.5V643.3H111M111,643.3V630.9H137.5M137.5,630.9V620.3H164M164,620.3V613.3H190.5M164,620.3V627.4H190.5M111,643.3V655.6H137.5M84.5,656.5V669.7H111M58,673.7V690.8H84.5M84.5,690.8V683.8H111M84.5,690.8V697.9H111M5,668.6V712H31.5" stroke="#91bfdb"></path><path d="M217,256.8V224.6H243.5M243.5,224.6V274.9H270M217,256.8V289H243.5" stroke="darkgrey"></path><path d="M243.5,224.6V174.3H270M270,174.3V112.3H296.5M296.5,112.3V90.7H323M323,90.7V68.7H349.5M349.5,68.7V45.8H376M376,45.8V24.6H402.5M402.5,24.6V14.1H429M429,14.1V7H455.5M429,14.1V21.1H455.5M402.5,24.6V35.2H429M376,45.8V66.9H402.5M402.5,66.9V56.3H429M429,56.3V49.3H455.5M429,56.3V63.4H455.5M402.5,66.9V77.5H429M349.5,68.7V91.6H376M323,90.7V112.8H349.5M349.5,112.8V105.7H376M349.5,112.8V119.8H376M296.5,112.3V133.9H323M270,174.3V236.2H296.5M296.5,236.2V218.7H323M323,218.7V204.8H349.5M349.5,204.8V191.2H376M376,191.2V178H402.5M402.5,178V165.6H429M429,165.6V155.1H455.5M455.5,155.1V148H482M455.5,155.1V162.1H482M429,165.6V176.2H455.5M402.5,178V190.3H429M376,191.2V204.4H402.5M349.5,204.8V218.5H376M323,218.7V232.6H349.5M296.5,236.2V253.7H323M323,253.7V246.7H349.5M323,253.7V260.8H349.5M137.5,630.9V641.5H164" stroke="#e2e2a2"></path><text x="33.5" y="628.2" class="node" fill="#DD6F88">0.13</text><text x="60" y="579.8" class="node" fill="#D7D9E3">0.54</text><text x="86.5" y="557.3" class="node" fill="#E6B4BD">0.35</text><text x="113" y="526.6" class="node" fill="#E4D6D8">0.46</text><text x="139.5" y="479.2" class="node" fill="#E4D6D8">0.46</text><text x="166" y="405.5" class="node" fill="#5B78E2">0.96</text><text x="192.5" y="297.9" class="node" fill="#4A6FE3">1</text><text x="219" y="259.8" class="node" fill="#D2D4E3">0.57</text><text x="245.5" y="227.6" class="node" fill="#D2D4E3">0.57</text><text x="272" y="177.3" class="node" fill="#E4D6D8">0.46</text><text x="298.5" y="115.3" class="node" fill="#D2D4E3">0.57</text><text x="325" y="93.7" class="node" fill="#5374E2">0.98</text><text x="351.5" y="71.7" class="node" fill="#95A1E2">0.78</text><text x="378" y="48.8" class="node" fill="#5374E2">0.98</text><text x="404.5" y="27.6" class="node" fill="#4A6FE3">1</text><text x="431" y="17.1" class="node" fill="#5374E2">0.98</text><text x="404.5" y="69.9" class="node" fill="#5374E2">0.98</text><text x="431" y="59.3" class="node" fill="#4A6FE3">1</text><text x="351.5" y="115.8" class="node" fill="#E3DCDD">0.48</text><text x="298.5" y="239.2" class="node" fill="#D7D9E3">0.54</text><text x="325" y="221.7" class="node" fill="#5374E2">0.98</text><text x="351.5" y="207.8" class="node" fill="#5374E2">0.98</text><text x="378" y="194.2" class="node" fill="#4A6FE3">1</text><text x="404.5" y="181" class="node" fill="#4A6FE3">1</text><text x="431" y="168.6" class="node" fill="#4A6FE3">1</text><text x="457.5" y="158.1" class="node" fill="#5374E2">0.98</text><text x="325" y="256.7" class="node" fill="#4A6FE3">1</text><text x="219" y="336.1" class="node" fill="#4A6FE3">1</text><text x="245.5" y="323.7" class="node" fill="#4A6FE3">1</text><text x="272" y="313.1" class="node" fill="#5B78E2">0.96</text><text x="192.5" y="513" class="node" fill="#5B78E2">0.96</text><text x="219" y="494.3" class="node" fill="#5B78E2">0.96</text><text x="245.5" y="471" class="node" fill="#5374E2">0.98</text><text x="272" y="445.6" class="node" fill="#5374E2">0.98</text><text x="298.5" y="422.9" class="node" fill="#5374E2">0.98</text><text x="325" y="405.7" class="node" fill="#5374E2">0.98</text><text x="351.5" y="392.5" class="node" fill="#4A6FE3">1</text><text x="378" y="380.1" class="node" fill="#E2E2E2">0.5</text><text x="404.5" y="369.5" class="node" fill="#4A6FE3">1</text><text x="325" y="440" class="node" fill="#4A6FE3">1</text><text x="298.5" y="468.2" class="node" fill="#5B78E2">0.96</text><text x="272" y="496.4" class="node" fill="#4A6FE3">1</text><text x="166" y="552.8" class="node" fill="#E498A7">0.26</text><text x="60" y="676.7" class="node" fill="#D7D9E3">0.54</text><text x="86.5" y="659.5" class="node" fill="#E2E2E2">0.5</text><text x="113" y="646.3" class="node" fill="#D7D9E3">0.54</text><text x="139.5" y="633.9" class="node" fill="#4A6FE3">1</text><text x="166" y="623.3" class="node" fill="#E59FAC">0.28</text><text x="86.5" y="693.8" class="node" fill="#DD6F88">0.13</text></svg>
