<svg xmlns="http://www.w3.org/2000/svg" version="1.1" viewBox="0 0 682 720" preserveAspectRatio="xMidYMid meet" class="tree" data-char="264"><text x="678" y="16.8" text-anchor="end" class="stepsLabel">Character adds <tspan class="score">2</tspan> to tree score</text><text x="678" y="30.6" text-anchor="end" class="stepsLabel"><tspan class="score">0</tspan> additional regions</text><text x="678" y="44.4" text-anchor="end" class="stepsLabel"></text><text x="678" y="72" text-anchor="end" class="stepsLabel"><tspan dy="16" fill="#34caaf">An optimal tree under:</tspan><tspan x="680" style="font-style:italic" class="notThisAn" dy="1.2em">Implied weights, k = 3</tspan><tspan x="680" style="font-style:italic" class="notThisAn" dy="1.2em">IW, k = 4.5</tspan><tspan x="680" style="font-style:italic" class="notThisAn" dy="1.2em">IW, k = 7</tspan><tspan x="680" style="font-style:italic" class="notThisAn" dy="1.2em">IW, k = 10.5</tspan><tspan x="680" style="font-style:italic" class="notThisAn" dy="1.2em">IW, k = 16</tspan><tspan x="680" style="font-style:italic" class="notThisAn" dy="1.2em">IW, k = 24</tspan><tspan x="680" style="font-style:italic" class="thisAn" dy="1.2em">Equal weights</tspan></text><text x="164" y="630.4" fill="grey" class="flag">[?]</text><text x="186" y="630.4" fill="#999" class="taxonLabel">Flustra</text><text x="164" y="644.5" fill="grey" class="flag">[?]</text><text x="186" y="644.5" fill="#999" class="taxonLabel">Amathia</text><text x="141.3" y="658.6" fill="grey" class="flag">[?]</text><text x="163.3" y="658.6" fill="#999" class="taxonLabel">Loxosomella</text><text x="118.6" y="672.7" fill="grey" class="flag">[?]</text><text x="140.6" y="672.7" fill="#999" class="taxonLabel">Phoronis</text><text x="95.9" y="686.8" fill="grey" class="flag">[?]</text><text x="117.9" y="686.8" fill="#999" class="taxonLabel">Namacalathus</text><text x="186.7" y="559.9" fill="grey" class="flag">[?]</text><text x="208.7" y="559.9" fill="#999" class="taxonLabel">Pedunculotheca diania</text><text x="186.7" y="574" fill="grey" class="flag">[?]</text><text x="208.7" y="574" fill="#999" class="taxonLabel">Haplophrentis carinatus</text><text x="277.6" y="503.5" fill="grey" class="flag">[?]</text><text x="299.6" y="503.5" fill="#999" class="taxonLabel">Mickwitzia muralensis</text><text x="277.6" y="517.6" fill="grey" class="flag">[?]</text><text x="299.6" y="517.6" fill="#999" class="taxonLabel">Heliomedusa orienta</text><text x="300.3" y="475.3" fill="grey" class="flag">[?]</text><text x="322.3" y="475.3" fill="#999" class="taxonLabel">Micromitra</text><text x="300.3" y="489.4" fill="grey" class="flag">[?]</text><text x="322.3" y="489.4" fill="#999" class="taxonLabel">Gasconsia</text><text x="323" y="447.1" fill="grey" class="flag">[?]</text><text x="345" y="447.1" fill="#999" class="taxonLabel">Terebratulina</text><text x="323" y="461.2" fill="grey" class="flag">[?]</text><text x="345" y="461.2" fill="#999" class="taxonLabel">Orthis</text><text x="391.1" y="376.6" fill="grey" class="flag">[?]</text><text x="413.1" y="376.6" fill="#999" class="taxonLabel">Yuganotheca elegans</text><text x="391.1" y="390.7" fill="grey" class="flag">[?]</text><text x="413.1" y="390.7" fill="#999" class="taxonLabel">Lingulellotreta malongensis</text><text x="368.4" y="404.8" fill="#e2e2a2" class="flag">[1]</text><text x="390.4" y="404.8" fill="#000" class="taxonLabel">Lingula</text><text x="345.7" y="418.9" fill="grey" class="flag">[?]</text><text x="367.7" y="418.9" fill="#999" class="taxonLabel">Pelagodiscus atlanticus</text><text x="323" y="433" fill="#e2e2a2" class="flag">[1]</text><text x="345" y="433" fill="#000" class="taxonLabel">Novocrania</text><text x="232.1" y="531.7" fill="grey" class="flag">[?]</text><text x="254.1" y="531.7" fill="#999" class="taxonLabel">Micrina</text><text x="209.4" y="545.8" fill="grey" class="flag">[?]</text><text x="231.4" y="545.8" fill="#999" class="taxonLabel">Paterimitra</text><text x="300.3" y="306.1" fill="#91bfdb" class="flag">[2]</text><text x="322.3" y="306.1" fill="#000" class="taxonLabel">Serpula</text><text x="300.3" y="320.2" fill="#91bfdb" class="flag">[2]</text><text x="322.3" y="320.2" fill="#000" class="taxonLabel">Capitella</text><text x="277.6" y="334.3" fill="grey" class="flag">[?]</text><text x="299.6" y="334.3" fill="#999" class="taxonLabel">Canadia spinosa</text><text x="254.9" y="348.4" fill="#e2e2a2" class="flag">[1]</text><text x="276.9" y="348.4" fill="#000" class="taxonLabel">Sipunculus</text><text x="345.7" y="249.7" fill="grey" class="flag">[?]</text><text x="367.7" y="249.7" fill="#999" class="taxonLabel">Wiwaxia corrugata</text><text x="345.7" y="263.8" fill="grey" class="flag">[?]</text><text x="367.7" y="263.8" fill="#999" class="taxonLabel">Odontogriphus omalus</text><text x="413.9" y="193.3" fill="#91bfdb" class="flag">[2]</text><text x="435.9" y="193.3" fill="#000" class="taxonLabel">Neopilina</text><text x="413.9" y="207.4" fill="grey" class="flag">[?]</text><text x="435.9" y="207.4" fill="#999" class="taxonLabel">Conocardium elongatum</text><text x="391.1" y="221.5" fill="#e2e2a2" class="flag">[1]</text><text x="413.1" y="221.5" fill="#000" class="taxonLabel">Haliotis</text><text x="413.9" y="151" fill="grey" class="flag">[?]</text><text x="435.9" y="151" fill="#999" class="taxonLabel">Pojetaia runnegari</text><text x="413.9" y="165.1" fill="grey" class="flag">[?]</text><text x="435.9" y="165.1" fill="#999" class="taxonLabel">Mytilus</text><text x="391.1" y="179.2" fill="grey" class="flag">[?]</text><text x="413.1" y="179.2" fill="#999" class="taxonLabel">Dentalium</text><text x="345.7" y="235.6" fill="grey" class="flag">[?]</text><text x="367.7" y="235.6" fill="#999" class="taxonLabel">Pelagiella</text><text x="345.7" y="122.8" fill="grey" class="flag">[?]</text><text x="367.7" y="122.8" fill="#999" class="taxonLabel">Wirenia</text><text x="345.7" y="136.9" fill="grey" class="flag">[?]</text><text x="367.7" y="136.9" fill="#999" class="taxonLabel">Chaetoderma</text><text x="482" y="10" fill="#e2e2a2" class="flag">[1]</text><text x="504" y="10" fill="#000" class="taxonLabel">Tonicella</text><text x="482" y="24.1" fill="#e2e2a2" class="flag">[1]</text><text x="504" y="24.1" fill="#000" class="taxonLabel">Mopalia</text><text x="459.3" y="38.2" fill="grey" class="flag">[?]</text><text x="481.3" y="38.2" fill="#999" class="taxonLabel">Polysacos vickersianum</text><text x="436.6" y="52.3" fill="#e2e2a2" class="flag">[1]</text><text x="458.6" y="52.3" fill="#000" class="taxonLabel">Leptochiton</text><text x="413.9" y="66.4" fill="grey" class="flag">[?]</text><text x="435.9" y="66.4" fill="#999" class="taxonLabel">Glaphurochiton carbonarius</text><text x="391.1" y="80.5" fill="grey" class="flag">[?]</text><text x="413.1" y="80.5" fill="#999" class="taxonLabel">Calvapilosa kroegeri</text><text x="368.4" y="94.6" fill="grey" class="flag">[?]</text><text x="390.4" y="94.6" fill="#999" class="taxonLabel">Phthipodochiton thraivensis</text><text x="345.7" y="108.7" fill="grey" class="flag">[?]</text><text x="367.7" y="108.7" fill="#999" class="taxonLabel">Siphogonuchites multa</text><text x="277.6" y="277.9" fill="grey" class="flag">[?]</text><text x="299.6" y="277.9" fill="#999" class="taxonLabel">Acaenoplax hayae</text><text x="254.9" y="292" fill="grey" class="flag">[?]</text><text x="276.9" y="292" fill="#999" class="taxonLabel">Kulindroplax perissokomos</text><text x="209.4" y="362.5" fill="grey" class="flag">[?]</text><text x="231.4" y="362.5" fill="#999" class="taxonLabel">Halkieria evangelista</text><text x="141.3" y="588.1" fill="grey" class="flag">[?]</text><text x="163.3" y="588.1" fill="#999" class="taxonLabel">Orthrozanclus</text><text x="118.6" y="602.2" fill="grey" class="flag">[?]</text><text x="140.6" y="602.2" fill="#999" class="taxonLabel">Cotyledion tylodes</text><text x="95.9" y="616.3" fill="grey" class="flag">[?]</text><text x="117.9" y="616.3" fill="#999" class="taxonLabel">Eccentrotheca</text><text x="50.4" y="700.9" fill="grey" class="flag">[?]</text><text x="72.4" y="700.9" fill="#999" class="taxonLabel">Dailyatia</text><text x="27.7" y="715" fill="grey" class="flag">[?]</text><text x="49.7" y="715" fill="#999" class="taxonLabel">Yilingia spiciformis</text><path d="M5,688.2V664.5H27.7M27.7,664.5V631H50.4M50.4,631V591.4H73.1M73.1,591.4V569.6H95.9M95.9,569.6V539.9H118.6M118.6,539.9V494.7H141.3M141.3,494.7V425.5H164M164,425.5V327H186.7M186.7,327V294.5H209.4M209.4,294.5V255.8H232.1M232.1,255.8V222.7H254.9M254.9,222.7V170.5H277.6M277.6,170.5V109.3H300.3M300.3,109.3V91.7H323M323,91.7V77.7H345.7M345.7,77.7V63.8H368.4M368.4,63.8V50.2H391.1M391.1,50.2V37H413.9M413.9,37V24.6H436.6M436.6,24.6V14.1H459.3M459.3,14.1V7H482M459.3,14.1V21.1H482M436.6,24.6V35.2H459.3M413.9,37V49.3H436.6M391.1,50.2V63.4H413.9M368.4,63.8V77.5H391.1M345.7,77.7V91.6H368.4M323,91.7V105.7H345.7M300.3,109.3V126.8H323M323,126.8V119.8H345.7M323,126.8V133.9H345.7M277.6,170.5V231.7H300.3M300.3,231.7V209.7H323M323,209.7V186.8H345.7M345.7,186.8V165.6H368.4M368.4,165.6V155.1H391.1M391.1,155.1V148H413.9M391.1,155.1V162.1H413.9M368.4,165.6V176.2H391.1M345.7,186.8V207.9H368.4M368.4,207.9V197.3H391.1M368.4,207.9V218.5H391.1M323,209.7V232.6H345.7M300.3,231.7V253.7H323M323,253.7V246.7H345.7M323,253.7V260.8H345.7M254.9,222.7V274.9H277.6M232.1,255.8V289H254.9M209.4,294.5V333.1H232.1M232.1,333.1V320.7H254.9M232.1,333.1V345.4H254.9M186.7,327V359.5H209.4M164,425.5V524.1H186.7M186.7,524.1V505.4H209.4M209.4,505.4V482.1H232.1M232.1,482.1V456.7H254.9M254.9,456.7V434H277.6M277.6,434V416.8H300.3M300.3,416.8V403.6H323M323,403.6V391.2H345.7M345.7,391.2V380.6H368.4M368.4,380.6V373.6H391.1M368.4,380.6V387.7H391.1M345.7,391.2V401.8H368.4M323,403.6V415.9H345.7M300.3,416.8V430H323M277.6,434V451.1H300.3M300.3,451.1V444.1H323M300.3,451.1V458.2H323M254.9,456.7V479.4H277.6M277.6,479.4V472.3H300.3M277.6,479.4V486.4H300.3M232.1,482.1V507.5H254.9M254.9,507.5V500.5H277.6M254.9,507.5V514.6H277.6M209.4,505.4V528.7H232.1M186.7,524.1V542.8H209.4M141.3,494.7V564H164M164,564V556.9H186.7M164,564V571H186.7M118.6,539.9V585.1H141.3M95.9,569.6V599.2H118.6M73.1,591.4V613.3H95.9M50.4,631V670.6H73.1M73.1,670.6V657.4H95.9M95.9,657.4V645H118.6M118.6,645V634.5H141.3M141.3,634.5V627.4H164M141.3,634.5V641.5H164M118.6,645V655.6H141.3M95.9,657.4V669.7H118.6M73.1,670.6V683.8H95.9M27.7,664.5V697.9H50.4M5,688.2V712H27.7" stroke="#e2e2a2"></path><path d="M391.1,197.3V190.3H413.9M254.9,320.7V310.1H277.6M277.6,310.1V303.1H300.3M277.6,310.1V317.2H300.3" stroke="#91bfdb"></path><path d="M391.1,197.3V204.4H413.9M254.9,320.7V331.3H277.6" stroke="darkgrey"></path><text x="29.7" y="667.5" class="node" fill="#DADBE3">0.53</text><text x="52.4" y="634" class="node" fill="#DB6581">0.1</text><text x="75.1" y="594.4" class="node" fill="#D54C71">0.03</text><text x="97.9" y="572.6" class="node" fill="#E6B7C0">0.36</text><text x="120.6" y="542.9" class="node" fill="#E38FA0">0.23</text><text x="143.3" y="497.7" class="node" fill="#D85778">0.06</text><text x="166" y="428.5" class="node" fill="#D85778">0.06</text><text x="188.7" y="330" class="node" fill="#C4C9E3">0.61</text><text x="211.4" y="297.5" class="node" fill="#4A6FE3">1</text><text x="234.1" y="258.8" class="node" fill="#BFC4E3">0.63</text><text x="256.9" y="225.7" class="node" fill="#BFC4E3">0.63</text><text x="279.6" y="173.5" class="node" fill="#D85778">0.06</text><text x="302.3" y="112.3" class="node" fill="#D3446C">0.01</text><text x="325" y="94.7" class="node" fill="#E6B7C0">0.36</text><text x="347.7" y="80.7" class="node" fill="#A3ADE2">0.73</text><text x="370.4" y="66.8" class="node" fill="#A3ADE2">0.73</text><text x="393.1" y="53.2" class="node" fill="#4A6FE3">1</text><text x="415.9" y="40" class="node" fill="#4A6FE3">1</text><text x="438.6" y="27.6" class="node" fill="#4A6FE3">1</text><text x="461.3" y="17.1" class="node" fill="#E6B7C0">0.36</text><text x="325" y="129.8" class="node" fill="#7388E1">0.89</text><text x="302.3" y="234.7" class="node" fill="#7388E1">0.89</text><text x="325" y="212.7" class="node" fill="#7086E1">0.9</text><text x="347.7" y="189.8" class="node" fill="#4A6FE3">1</text><text x="370.4" y="168.6" class="node" fill="#4A6FE3">1</text><text x="393.1" y="158.1" class="node" fill="#4A6FE3">1</text><text x="370.4" y="210.9" class="node" fill="#4A6FE3">1</text><text x="393.1" y="200.3" class="node" fill="#4A6FE3">1</text><text x="325" y="256.7" class="node" fill="#4A6FE3">1</text><text x="234.1" y="336.1" class="node" fill="#4A6FE3">1</text><text x="256.9" y="323.7" class="node" fill="#4A6FE3">1</text><text x="279.6" y="313.1" class="node" fill="#A3ADE2">0.73</text><text x="188.7" y="527.1" class="node" fill="#A3ADE2">0.73</text><text x="211.4" y="508.4" class="node" fill="#A3ADE2">0.73</text><text x="234.1" y="485.1" class="node" fill="#A3ADE2">0.73</text><text x="256.9" y="459.7" class="node" fill="#A3ADE2">0.73</text><text x="279.6" y="437" class="node" fill="#A3ADE2">0.73</text><text x="302.3" y="419.8" class="node" fill="#A3ADE2">0.73</text><text x="325" y="406.6" class="node" fill="#4A6FE3">1</text><text x="347.7" y="394.2" class="node" fill="#E6C1C7">0.39</text><text x="370.4" y="383.6" class="node" fill="#4A6FE3">1</text><text x="302.3" y="454.1" class="node" fill="#4A6FE3">1</text><text x="279.6" y="482.4" class="node" fill="#A3ADE2">0.73</text><text x="256.9" y="510.5" class="node" fill="#4A6FE3">1</text><text x="166" y="567" class="node" fill="#E6B7C0">0.36</text><text x="75.1" y="673.6" class="node" fill="#E6AEB8">0.33</text><text x="97.9" y="660.4" class="node" fill="#E6B7C0">0.36</text><text x="120.6" y="648" class="node" fill="#4A6FE3">1</text><text x="143.3" y="637.5" class="node" fill="#DADBE3">0.53</text></svg>
