<svg xmlns="http://www.w3.org/2000/svg" version="1.1" viewBox="0 0 682 720" preserveAspectRatio="xMidYMid meet" class="tree" data-char="280"><text x="678" y="17.7" text-anchor="end" class="stepsLabel">Character adds <tspan class="score">1</tspan> to tree score</text><text x="678" y="32.4" text-anchor="end" class="stepsLabel"><tspan class="score">0</tspan> additional regions</text><text x="678" y="47.1" text-anchor="end" class="stepsLabel"></text><text x="678" y="76.5" text-anchor="end" class="stepsLabel"><tspan dy="16" fill="#34caaf">An optimal tree under:</tspan><tspan x="680" style="font-style:italic" class="notThisAn" dy="1.2em">Implied weights, k = 3</tspan><tspan x="680" style="font-style:italic" class="notThisAn" dy="1.2em">IW, k = 4.5</tspan><tspan x="680" style="font-style:italic" class="notThisAn" dy="1.2em">IW, k = 7</tspan><tspan x="680" style="font-style:italic" class="notThisAn" dy="1.2em">IW, k = 10.5</tspan><tspan x="680" style="font-style:italic" class="notThisAn" dy="1.2em">IW, k = 16</tspan><tspan x="680" style="font-style:italic" class="thisAn" dy="1.2em">IW, k = 24</tspan><tspan x="680" style="font-style:italic" class="notThisAn" dy="1.2em">Equal weights</tspan></text><text x="141.3" y="655" fill="grey" class="flag">[?]</text><text x="163.3" y="655" fill="#999" class="taxonLabel">Orthrozanclus</text><text x="141.3" y="670" fill="grey" class="flag">[?]</text><text x="163.3" y="670" fill="#999" class="taxonLabel">Halkieria evangelista</text><text x="164" y="625" fill="grey" class="flag">[?]</text><text x="186" y="625" fill="#999" class="taxonLabel">Pedunculotheca diania</text><text x="164" y="640" fill="grey" class="flag">[?]</text><text x="186" y="640" fill="#999" class="taxonLabel">Haplophrentis carinatus</text><text x="232.1" y="565" fill="grey" class="flag">[?]</text><text x="254.1" y="565" fill="#999" class="taxonLabel">Mickwitzia muralensis</text><text x="232.1" y="580" fill="grey" class="flag">[?]</text><text x="254.1" y="580" fill="#999" class="taxonLabel">Heliomedusa orienta</text><text x="254.9" y="535" fill="grey" class="flag">[?]</text><text x="276.9" y="535" fill="#999" class="taxonLabel">Micromitra</text><text x="254.9" y="550" fill="grey" class="flag">[?]</text><text x="276.9" y="550" fill="#999" class="taxonLabel">Gasconsia</text><text x="277.6" y="505" fill="#fc8d59" class="flag">[0]</text><text x="299.6" y="505" fill="#000" class="taxonLabel">Terebratulina</text><text x="277.6" y="520" fill="grey" class="flag">[?]</text><text x="299.6" y="520" fill="#999" class="taxonLabel">Orthis</text><text x="300.3" y="460" fill="grey" class="flag">[?]</text><text x="322.3" y="460" fill="#999" class="taxonLabel">Pelagodiscus atlanticus</text><text x="300.3" y="475" fill="#fc8d59" class="flag">[0]</text><text x="322.3" y="475" fill="#000" class="taxonLabel">Lingula</text><text x="277.6" y="490" fill="#fc8d59" class="flag">[0]</text><text x="299.6" y="490" fill="#000" class="taxonLabel">Novocrania</text><text x="186.7" y="595" fill="grey" class="flag">[?]</text><text x="208.7" y="595" fill="#999" class="taxonLabel">Micrina</text><text x="164" y="610" fill="grey" class="flag">[?]</text><text x="186" y="610" fill="#999" class="taxonLabel">Paterimitra</text><text x="95.9" y="685" fill="grey" class="flag">[?]</text><text x="117.9" y="685" fill="#999" class="taxonLabel">Eccentrotheca</text><text x="141.3" y="415" fill="#fc8d59" class="flag">[0]</text><text x="163.3" y="415" fill="#000" class="taxonLabel">Phoronis</text><text x="141.3" y="430" fill="grey" class="flag">[?]</text><text x="163.3" y="430" fill="#999" class="taxonLabel">Namacalathus</text><text x="254.9" y="325" fill="#fc8d59" class="flag">[0]</text><text x="276.9" y="325" fill="#000" class="taxonLabel">Serpula</text><text x="254.9" y="340" fill="grey" class="flag">[?]</text><text x="276.9" y="340" fill="#999" class="taxonLabel">Capitella</text><text x="232.1" y="355" fill="grey" class="flag">[?]</text><text x="254.1" y="355" fill="#999" class="taxonLabel">Canadia spinosa</text><text x="209.4" y="370" fill="#fc8d59" class="flag">[0]</text><text x="231.4" y="370" fill="#000" class="taxonLabel">Sipunculus</text><text x="459.3" y="145" fill="#91bfdb" class="flag">[1]</text><text x="481.3" y="145" fill="#000" class="taxonLabel">Tonicella</text><text x="459.3" y="160" fill="grey" class="flag">[?]</text><text x="481.3" y="160" fill="#999" class="taxonLabel">Mopalia</text><text x="436.6" y="175" fill="grey" class="flag">[?]</text><text x="458.6" y="175" fill="#999" class="taxonLabel">Polysacos vickersianum</text><text x="413.9" y="190" fill="grey" class="flag">[?]</text><text x="435.9" y="190" fill="#999" class="taxonLabel">Leptochiton</text><text x="391.1" y="205" fill="grey" class="flag">[?]</text><text x="413.1" y="205" fill="#999" class="taxonLabel">Glaphurochiton carbonarius</text><text x="368.4" y="220" fill="grey" class="flag">[?]</text><text x="390.4" y="220" fill="#999" class="taxonLabel">Calvapilosa kroegeri</text><text x="391.1" y="115" fill="grey" class="flag">[?]</text><text x="413.1" y="115" fill="#999" class="taxonLabel">Wiwaxia corrugata</text><text x="391.1" y="130" fill="grey" class="flag">[?]</text><text x="413.1" y="130" fill="#999" class="taxonLabel">Odontogriphus omalus</text><text x="436.6" y="70" fill="grey" class="flag">[?]</text><text x="458.6" y="70" fill="#999" class="taxonLabel">Neopilina</text><text x="436.6" y="85" fill="grey" class="flag">[?]</text><text x="458.6" y="85" fill="#999" class="taxonLabel">Conocardium elongatum</text><text x="482" y="10" fill="grey" class="flag">[?]</text><text x="504" y="10" fill="#999" class="taxonLabel">Pojetaia runnegari</text><text x="482" y="25" fill="grey" class="flag">[?]</text><text x="504" y="25" fill="#999" class="taxonLabel">Mytilus</text><text x="459.3" y="40" fill="#91bfdb" class="flag">[1]</text><text x="481.3" y="40" fill="#000" class="taxonLabel">Dentalium</text><text x="436.6" y="55" fill="grey" class="flag">[?]</text><text x="458.6" y="55" fill="#999" class="taxonLabel">Haliotis</text><text x="391.1" y="100" fill="grey" class="flag">[?]</text><text x="413.1" y="100" fill="#999" class="taxonLabel">Pelagiella</text><text x="323" y="235" fill="grey" class="flag">[?]</text><text x="345" y="235" fill="#999" class="taxonLabel">Siphogonuchites multa</text><text x="300.3" y="250" fill="grey" class="flag">[?]</text><text x="322.3" y="250" fill="#999" class="taxonLabel">Acaenoplax hayae</text><text x="277.6" y="265" fill="grey" class="flag">[?]</text><text x="299.6" y="265" fill="#999" class="taxonLabel">Phthipodochiton thraivensis</text><text x="254.9" y="280" fill="grey" class="flag">[?]</text><text x="276.9" y="280" fill="#999" class="taxonLabel">Kulindroplax perissokomos</text><text x="232.1" y="295" fill="grey" class="flag">[?]</text><text x="254.1" y="295" fill="#999" class="taxonLabel">Chaetoderma</text><text x="209.4" y="310" fill="grey" class="flag">[?]</text><text x="231.4" y="310" fill="#999" class="taxonLabel">Wirenia</text><text x="164" y="385" fill="#fc8d59" class="flag">[0]</text><text x="186" y="385" fill="#000" class="taxonLabel">Loxosomella</text><text x="141.3" y="400" fill="#fc8d59" class="flag">[0]</text><text x="163.3" y="400" fill="#000" class="taxonLabel">Flustra</text><text x="95.9" y="445" fill="grey" class="flag">[?]</text><text x="117.9" y="445" fill="#999" class="taxonLabel">Cotyledion tylodes</text><text x="50.4" y="700" fill="grey" class="flag">[?]</text><text x="72.4" y="700" fill="#999" class="taxonLabel">Dailyatia</text><text x="27.7" y="715" fill="grey" class="flag">[?]</text><text x="49.7" y="715" fill="#999" class="taxonLabel">Yilingia spiciformis</text><path d="M5,664.9V617.9H27.7M27.7,617.9V538.7H50.4M50.4,538.7V419.5H73.1M73.1,419.5V397.1H95.9M95.9,397.1V374.6H118.6M118.6,374.6V352.3H141.3M141.3,352.3V322.5H164M164,322.5V291.2H186.7M164,322.5V353.9H186.7M186.7,353.9V340.8H209.4M209.4,340.8V329.5H232.1M232.1,329.5V322H254.9M232.1,329.5V337H254.9M209.4,340.8V352H232.1M186.7,353.9V367H209.4M141.3,352.3V382H164M118.6,374.6V397H141.3M95.9,397.1V419.5H118.6M118.6,419.5V412H141.3M118.6,419.5V427H141.3M73.1,419.5V442H95.9M50.4,538.7V658H73.1M73.1,658V633.9H95.9M95.9,633.9V608.3H118.6M118.6,608.3V587.2H141.3M141.3,587.2V567.4H164M164,567.4V542.8H186.7M186.7,542.8V516.1H209.4M209.4,516.1V492.6H232.1M232.1,492.6V475.8H254.9M254.9,475.8V464.5H277.6M277.6,464.5V457H300.3M277.6,464.5V472H300.3M254.9,475.8V487H277.6M232.1,492.6V509.5H254.9M254.9,509.5V502H277.6M254.9,509.5V517H277.6M209.4,516.1V539.5H232.1M232.1,539.5V532H254.9M232.1,539.5V547H254.9M186.7,542.8V569.5H209.4M209.4,569.5V562H232.1M209.4,569.5V577H232.1M164,567.4V592H186.7M141.3,587.2V607H164M118.6,608.3V629.5H141.3M141.3,629.5V622H164M141.3,629.5V637H164M95.9,633.9V659.5H118.6M118.6,659.5V652H141.3M118.6,659.5V667H141.3M73.1,658V682H95.9M27.7,617.9V697H50.4M5,664.9V712H27.7" stroke="#fc8d59"></path><path d="M186.7,291.2V275.4H209.4M209.4,275.4V258.8H232.1M232.1,258.8V240.5H254.9M254.9,240.5V219.1H277.6M277.6,219.1V191.2H300.3M300.3,191.2V232H323M277.6,219.1V247H300.3M254.9,240.5V262H277.6M232.1,258.8V277H254.9M209.4,275.4V292H232.1M186.7,291.2V307H209.4" stroke="darkgrey"></path><path d="M300.3,191.2V150.3H323M323,150.3V98.2H345.7M345.7,98.2V76.8H368.4M368.4,76.8V56.7H391.1M391.1,56.7V38.9H413.9M413.9,38.9V25.8H436.6M436.6,25.8V14.5H459.3M459.3,14.5V7H482M459.3,14.5V22H482M436.6,25.8V37H459.3M413.9,38.9V52H436.6M391.1,56.7V74.5H413.9M413.9,74.5V67H436.6M413.9,74.5V82H436.6M368.4,76.8V97H391.1M345.7,98.2V119.5H368.4M368.4,119.5V112H391.1M368.4,119.5V127H391.1M323,150.3V202.5H345.7M345.7,202.5V187.9H368.4M368.4,187.9V173.9H391.1M391.1,173.9V160.8H413.9M413.9,160.8V149.5H436.6M436.6,149.5V142H459.3M436.6,149.5V157H459.3M413.9,160.8V172H436.6M391.1,173.9V187H413.9M368.4,187.9V202H391.1M345.7,202.5V217H368.4" stroke="#91bfdb"></path><text x="29.7" y="620.9" class="node" fill="#E38FA0">0.23</text><text x="52.4" y="541.7" class="node" fill="#D64F73">0.04</text><text x="75.1" y="422.5" class="node" fill="#E38FA0">0.23</text><text x="97.9" y="400.1" class="node" fill="#E38FA0">0.23</text><text x="120.6" y="377.6" class="node" fill="#E38FA0">0.23</text><text x="143.3" y="355.3" class="node" fill="#E38FA0">0.23</text><text x="166" y="325.5" class="node" fill="#4A6FE3">1</text><text x="188.7" y="294.2" class="node" fill="#E38FA0">0.23</text><text x="211.4" y="278.4" class="node" fill="#E38FA0">0.23</text><text x="234.1" y="261.8" class="node" fill="#E38FA0">0.23</text><text x="256.9" y="243.5" class="node" fill="#E38FA0">0.23</text><text x="279.6" y="222.1" class="node" fill="#E18297">0.19</text><text x="302.3" y="194.2" class="node" fill="#DD6F88">0.13</text><text x="325" y="153.3" class="node" fill="#4A6FE3">1</text><text x="347.7" y="101.2" class="node" fill="#4A6FE3">1</text><text x="370.4" y="79.8" class="node" fill="#7388E1">0.89</text><text x="393.1" y="59.7" class="node" fill="#4A6FE3">1</text><text x="415.9" y="41.9" class="node" fill="#4A6FE3">1</text><text x="438.6" y="28.8" class="node" fill="#4A6FE3">1</text><text x="461.3" y="17.5" class="node" fill="#4A6FE3">1</text><text x="415.9" y="77.5" class="node" fill="#4A6FE3">1</text><text x="370.4" y="122.5" class="node" fill="#4A6FE3">1</text><text x="347.7" y="205.5" class="node" fill="#4A6FE3">1</text><text x="370.4" y="190.9" class="node" fill="#4A6FE3">1</text><text x="393.1" y="176.9" class="node" fill="#4A6FE3">1</text><text x="415.9" y="163.8" class="node" fill="#4A6FE3">1</text><text x="438.6" y="152.5" class="node" fill="#4A6FE3">1</text><text x="188.7" y="356.9" class="node" fill="#4A6FE3">1</text><text x="211.4" y="343.8" class="node" fill="#4A6FE3">1</text><text x="234.1" y="332.5" class="node" fill="#E5CDD1">0.43</text><text x="120.6" y="422.5" class="node" fill="#E18297">0.19</text><text x="75.1" y="661" class="node" fill="#E38FA0">0.23</text><text x="97.9" y="636.9" class="node" fill="#E38FA0">0.23</text><text x="120.6" y="611.3" class="node" fill="#4A6FE3">1</text><text x="143.3" y="590.2" class="node" fill="#4A6FE3">1</text><text x="166" y="570.4" class="node" fill="#4A6FE3">1</text><text x="188.7" y="545.8" class="node" fill="#4A6FE3">1</text><text x="211.4" y="519.1" class="node" fill="#4A6FE3">1</text><text x="234.1" y="495.6" class="node" fill="#4A6FE3">1</text><text x="256.9" y="478.8" class="node" fill="#4A6FE3">1</text><text x="279.6" y="467.5" class="node" fill="#4A6FE3">1</text><text x="256.9" y="512.5" class="node" fill="#4A6FE3">1</text><text x="234.1" y="542.5" class="node" fill="#4A6FE3">1</text><text x="211.4" y="572.5" class="node" fill="#4A6FE3">1</text><text x="143.3" y="632.5" class="node" fill="#E38FA0">0.23</text><text x="120.6" y="662.5" class="node" fill="#E38FA0">0.23</text></svg>
