<svg xmlns="http://www.w3.org/2000/svg" version="1.1" viewBox="0 0 682 720" preserveAspectRatio="xMidYMid meet" class="tree" data-char="298"><text x="678" y="16.8" text-anchor="end" class="stepsLabel">Character adds <tspan class="score">1</tspan> to tree score</text><text x="678" y="30.6" text-anchor="end" class="stepsLabel"><tspan class="score">0</tspan> additional regions</text><text x="678" y="44.4" text-anchor="end" class="stepsLabel"></text><text x="678" y="72" text-anchor="end" class="stepsLabel"><tspan dy="16" fill="#34caaf">An optimal tree under:</tspan><tspan x="680" style="font-style:italic" class="notThisAn" dy="1.2em">Implied weights, k = 3</tspan><tspan x="680" style="font-style:italic" class="notThisAn" dy="1.2em">IW, k = 4.5</tspan><tspan x="680" style="font-style:italic" class="notThisAn" dy="1.2em">IW, k = 7</tspan><tspan x="680" style="font-style:italic" class="notThisAn" dy="1.2em">IW, k = 10.5</tspan><tspan x="680" style="font-style:italic" class="notThisAn" dy="1.2em">IW, k = 16</tspan><tspan x="680" style="font-style:italic" class="thisAn" dy="1.2em">IW, k = 24</tspan><tspan x="680" style="font-style:italic" class="notThisAn" dy="1.2em">Equal weights</tspan></text><text x="164" y="644.5" fill="grey" class="flag">[?]</text><text x="186" y="644.5" fill="#999" class="taxonLabel">Orthrozanclus</text><text x="164" y="658.6" fill="grey" class="flag">[?]</text><text x="186" y="658.6" fill="#999" class="taxonLabel">Halkieria evangelista</text><text x="186.7" y="616.3" fill="grey" class="flag">[?]</text><text x="208.7" y="616.3" fill="#999" class="taxonLabel">Pedunculotheca diania</text><text x="186.7" y="630.4" fill="grey" class="flag">[?]</text><text x="208.7" y="630.4" fill="#999" class="taxonLabel">Haplophrentis carinatus</text><text x="254.9" y="559.9" fill="grey" class="flag">[?]</text><text x="276.9" y="559.9" fill="#999" class="taxonLabel">Mickwitzia muralensis</text><text x="254.9" y="574" fill="grey" class="flag">[?]</text><text x="276.9" y="574" fill="#999" class="taxonLabel">Heliomedusa orienta</text><text x="277.6" y="531.7" fill="grey" class="flag">[?]</text><text x="299.6" y="531.7" fill="#999" class="taxonLabel">Micromitra</text><text x="277.6" y="545.8" fill="grey" class="flag">[?]</text><text x="299.6" y="545.8" fill="#999" class="taxonLabel">Gasconsia</text><text x="300.3" y="503.5" fill="grey" class="flag">[?]</text><text x="322.3" y="503.5" fill="#999" class="taxonLabel">Terebratulina</text><text x="300.3" y="517.6" fill="grey" class="flag">[?]</text><text x="322.3" y="517.6" fill="#999" class="taxonLabel">Orthis</text><text x="368.4" y="433" fill="grey" class="flag">[?]</text><text x="390.4" y="433" fill="#999" class="taxonLabel">Yuganotheca elegans</text><text x="368.4" y="447.1" fill="#91bfdb" class="flag">[1]</text><text x="390.4" y="447.1" fill="#000" class="taxonLabel">Lingula</text><text x="345.7" y="461.2" fill="grey" class="flag">[?]</text><text x="367.7" y="461.2" fill="#999" class="taxonLabel">Lingulellotreta malongensis</text><text x="323" y="475.3" fill="grey" class="flag">[?]</text><text x="345" y="475.3" fill="#999" class="taxonLabel">Pelagodiscus atlanticus</text><text x="300.3" y="489.4" fill="#91bfdb" class="flag">[1]</text><text x="322.3" y="489.4" fill="#000" class="taxonLabel">Novocrania</text><text x="209.4" y="588.1" fill="grey" class="flag">[?]</text><text x="231.4" y="588.1" fill="#999" class="taxonLabel">Micrina</text><text x="186.7" y="602.2" fill="grey" class="flag">[?]</text><text x="208.7" y="602.2" fill="#999" class="taxonLabel">Paterimitra</text><text x="118.6" y="672.7" fill="grey" class="flag">[?]</text><text x="140.6" y="672.7" fill="#999" class="taxonLabel">Eccentrotheca</text><text x="186.7" y="376.6" fill="grey" class="flag">[?]</text><text x="208.7" y="376.6" fill="#999" class="taxonLabel">Flustra</text><text x="186.7" y="390.7" fill="grey" class="flag">[?]</text><text x="208.7" y="390.7" fill="#999" class="taxonLabel">Amathia</text><text x="277.6" y="306.1" fill="grey" class="flag">[?]</text><text x="299.6" y="306.1" fill="#999" class="taxonLabel">Serpula</text><text x="277.6" y="320.2" fill="grey" class="flag">[?]</text><text x="299.6" y="320.2" fill="#999" class="taxonLabel">Capitella</text><text x="254.9" y="334.3" fill="grey" class="flag">[?]</text><text x="276.9" y="334.3" fill="#999" class="taxonLabel">Canadia spinosa</text><text x="232.1" y="348.4" fill="grey" class="flag">[?]</text><text x="254.1" y="348.4" fill="#999" class="taxonLabel">Sipunculus</text><text x="459.3" y="151" fill="grey" class="flag">[?]</text><text x="481.3" y="151" fill="#999" class="taxonLabel">Tonicella</text><text x="459.3" y="165.1" fill="grey" class="flag">[?]</text><text x="481.3" y="165.1" fill="#999" class="taxonLabel">Mopalia</text><text x="436.6" y="179.2" fill="grey" class="flag">[?]</text><text x="458.6" y="179.2" fill="#999" class="taxonLabel">Polysacos vickersianum</text><text x="413.9" y="193.3" fill="grey" class="flag">[?]</text><text x="435.9" y="193.3" fill="#999" class="taxonLabel">Leptochiton</text><text x="391.1" y="207.4" fill="grey" class="flag">[?]</text><text x="413.1" y="207.4" fill="#999" class="taxonLabel">Glaphurochiton carbonarius</text><text x="368.4" y="221.5" fill="grey" class="flag">[?]</text><text x="390.4" y="221.5" fill="#999" class="taxonLabel">Calvapilosa kroegeri</text><text x="413.9" y="108.7" fill="grey" class="flag">[?]</text><text x="435.9" y="108.7" fill="#999" class="taxonLabel">Wiwaxia corrugata</text><text x="413.9" y="122.8" fill="grey" class="flag">[?]</text><text x="435.9" y="122.8" fill="#999" class="taxonLabel">Odontogriphus omalus</text><text x="459.3" y="66.4" fill="grey" class="flag">[?]</text><text x="481.3" y="66.4" fill="#999" class="taxonLabel">Pojetaia runnegari</text><text x="459.3" y="80.5" fill="#fc8d59" class="flag">[0]</text><text x="481.3" y="80.5" fill="#000" class="taxonLabel">Mytilus</text><text x="436.6" y="94.6" fill="grey" class="flag">[?]</text><text x="458.6" y="94.6" fill="#999" class="taxonLabel">Dentalium</text><text x="482" y="10" fill="grey" class="flag">[?]</text><text x="504" y="10" fill="#999" class="taxonLabel">Neopilina</text><text x="482" y="24.1" fill="grey" class="flag">[?]</text><text x="504" y="24.1" fill="#999" class="taxonLabel">Conocardium elongatum</text><text x="459.3" y="38.2" fill="grey" class="flag">[?]</text><text x="481.3" y="38.2" fill="#999" class="taxonLabel">Haliotis</text><text x="436.6" y="52.3" fill="grey" class="flag">[?]</text><text x="458.6" y="52.3" fill="#999" class="taxonLabel">Pelagiella</text><text x="368.4" y="136.9" fill="grey" class="flag">[?]</text><text x="390.4" y="136.9" fill="#999" class="taxonLabel">Siphogonuchites multa</text><text x="323" y="235.6" fill="grey" class="flag">[?]</text><text x="345" y="235.6" fill="#999" class="taxonLabel">Acaenoplax hayae</text><text x="300.3" y="249.7" fill="grey" class="flag">[?]</text><text x="322.3" y="249.7" fill="#999" class="taxonLabel">Phthipodochiton thraivensis</text><text x="277.6" y="263.8" fill="grey" class="flag">[?]</text><text x="299.6" y="263.8" fill="#999" class="taxonLabel">Kulindroplax perissokomos</text><text x="254.9" y="277.9" fill="grey" class="flag">[?]</text><text x="276.9" y="277.9" fill="#999" class="taxonLabel">Chaetoderma</text><text x="232.1" y="292" fill="grey" class="flag">[?]</text><text x="254.1" y="292" fill="#999" class="taxonLabel">Wirenia</text><text x="186.7" y="362.5" fill="grey" class="flag">[?]</text><text x="208.7" y="362.5" fill="#999" class="taxonLabel">Loxosomella</text><text x="141.3" y="404.8" fill="#fc8d59" class="flag">[0]</text><text x="163.3" y="404.8" fill="#000" class="taxonLabel">Phoronis</text><text x="118.6" y="418.9" fill="grey" class="flag">[?]</text><text x="140.6" y="418.9" fill="#999" class="taxonLabel">Namacalathus</text><text x="73.1" y="686.8" fill="grey" class="flag">[?]</text><text x="95.1" y="686.8" fill="#999" class="taxonLabel">Cotyledion tylodes</text><text x="50.4" y="700.9" fill="grey" class="flag">[?]</text><text x="72.4" y="700.9" fill="#999" class="taxonLabel">Dailyatia</text><text x="27.7" y="715" fill="grey" class="flag">[?]</text><text x="49.7" y="715" fill="#999" class="taxonLabel">Yilingia spiciformis</text><path d="M5,681.2V650.5H27.7M27.7,650.5V603H50.4M50.4,603V522.2H73.1M73.1,522.2V397.4H95.9M95.9,397.4V415.9H118.6M73.1,522.2V647.1H95.9M95.9,647.1V624.5H118.6M118.6,624.5V600.4H141.3M141.3,600.4V580.5H164M164,580.5V561.8H186.7M186.7,561.8V538.5H209.4M209.4,538.5V513.1H232.1M232.1,513.1V490.4H254.9M254.9,490.4V507.5H277.6M277.6,507.5V500.5H300.3M277.6,507.5V514.6H300.3M232.1,513.1V535.8H254.9M254.9,535.8V528.7H277.6M254.9,535.8V542.8H277.6M209.4,538.5V564H232.1M232.1,564V556.9H254.9M232.1,564V571H254.9M186.7,561.8V585.1H209.4M164,580.5V599.2H186.7M141.3,600.4V620.3H164M164,620.3V613.3H186.7M164,620.3V627.4H186.7M118.6,624.5V648.5H141.3M141.3,648.5V641.5H164M141.3,648.5V655.6H164M95.9,647.1V669.7H118.6M50.4,603V683.8H73.1M27.7,650.5V697.9H50.4M5,681.2V712H27.7" stroke="darkgrey"></path><path d="M95.9,397.4V378.9H118.6M118.6,378.9V356H141.3M141.3,356V331.4H164M164,331.4V303.2H186.7M186.7,303.2V273.4H209.4M209.4,273.4V257.9H232.1M232.1,257.9V240.8H254.9M254.9,240.8V220.8H277.6M277.6,220.8V195H300.3M300.3,195V157.4H323M323,157.4V109.9H345.7M345.7,109.9V85.9H368.4M368.4,85.9V59H391.1M391.1,59V37H413.9M413.9,37V24.6H436.6M436.6,24.6V14.1H459.3M459.3,14.1V7H482M459.3,14.1V21.1H482M436.6,24.6V35.2H459.3M413.9,37V49.3H436.6M391.1,59V81H413.9M413.9,81V70.5H436.6M436.6,70.5V63.4H459.3M436.6,70.5V77.5H459.3M413.9,81V91.6H436.6M368.4,85.9V112.8H391.1M391.1,112.8V105.7H413.9M391.1,112.8V119.8H413.9M345.7,109.9V133.9H368.4M323,157.4V204.8H345.7M345.7,204.8V191.2H368.4M368.4,191.2V178H391.1M391.1,178V165.6H413.9M413.9,165.6V155.1H436.6M436.6,155.1V148H459.3M436.6,155.1V162.1H459.3M413.9,165.6V176.2H436.6M391.1,178V190.3H413.9M368.4,191.2V204.4H391.1M345.7,204.8V218.5H368.4M300.3,195V232.6H323M277.6,220.8V246.7H300.3M254.9,240.8V260.8H277.6M232.1,257.9V274.9H254.9M209.4,273.4V289H232.1M186.7,303.2V333.1H209.4M209.4,333.1V320.7H232.1M232.1,320.7V310.1H254.9M254.9,310.1V303.1H277.6M254.9,310.1V317.2H277.6M232.1,320.7V331.3H254.9M209.4,333.1V345.4H232.1M164,331.4V359.5H186.7M141.3,356V380.6H164M164,380.6V373.6H186.7M164,380.6V387.7H186.7M118.6,378.9V401.8H141.3" stroke="#fc8d59"></path><path d="M254.9,490.4V473.2H277.6M277.6,473.2V460H300.3M300.3,460V447.6H323M323,447.6V437H345.7M345.7,437V430H368.4M345.7,437V444.1H368.4M323,447.6V458.2H345.7M300.3,460V472.3H323M277.6,473.2V486.4H300.3" stroke="#91bfdb"></path><text x="29.7" y="653.5" class="node" fill="#DADBE3">0.53</text><text x="52.4" y="606" class="node" fill="#DB617F">0.09</text><text x="75.1" y="525.2" class="node" fill="#E498A7">0.26</text><text x="97.9" y="400.4" class="node" fill="#DC6884">0.11</text><text x="120.6" y="381.9" class="node" fill="#E498A7">0.26</text><text x="143.3" y="359" class="node" fill="#E498A7">0.26</text><text x="166" y="334.4" class="node" fill="#C4C9E3">0.61</text><text x="188.7" y="306.2" class="node" fill="#4A6FE3">1</text><text x="211.4" y="276.4" class="node" fill="#E498A7">0.26</text><text x="234.1" y="260.9" class="node" fill="#E498A7">0.26</text><text x="256.9" y="243.8" class="node" fill="#E498A7">0.26</text><text x="279.6" y="223.8" class="node" fill="#E498A7">0.26</text><text x="302.3" y="198" class="node" fill="#E4D9DB">0.47</text><text x="325" y="160.4" class="node" fill="#E6BAC2">0.37</text><text x="347.7" y="112.9" class="node" fill="#7388E1">0.89</text><text x="370.4" y="88.9" class="node" fill="#7388E1">0.89</text><text x="393.1" y="62" class="node" fill="#DB6581">0.1</text><text x="415.9" y="40" class="node" fill="#4A6FE3">1</text><text x="438.6" y="27.6" class="node" fill="#4A6FE3">1</text><text x="461.3" y="17.1" class="node" fill="#4A6FE3">1</text><text x="415.9" y="84" class="node" fill="#4A6FE3">1</text><text x="438.6" y="73.5" class="node" fill="#4A6FE3">1</text><text x="393.1" y="115.8" class="node" fill="#A3ADE2">0.73</text><text x="347.7" y="207.8" class="node" fill="#A3ADE2">0.73</text><text x="370.4" y="194.2" class="node" fill="#4A6FE3">1</text><text x="393.1" y="181" class="node" fill="#4A6FE3">1</text><text x="415.9" y="168.6" class="node" fill="#4A6FE3">1</text><text x="438.6" y="158.1" class="node" fill="#4A6FE3">1</text><text x="211.4" y="336.1" class="node" fill="#4A6FE3">1</text><text x="234.1" y="323.7" class="node" fill="#4A6FE3">1</text><text x="256.9" y="313.1" class="node" fill="#4A6FE3">1</text><text x="166" y="383.6" class="node" fill="#E18297">0.19</text><text x="97.9" y="650.1" class="node" fill="#E6BAC2">0.37</text><text x="120.6" y="627.5" class="node" fill="#BCC2E3">0.64</text><text x="143.3" y="603.4" class="node" fill="#A3ADE2">0.73</text><text x="166" y="583.5" class="node" fill="#A3ADE2">0.73</text><text x="188.7" y="564.8" class="node" fill="#A3ADE2">0.73</text><text x="211.4" y="541.5" class="node" fill="#A3ADE2">0.73</text><text x="234.1" y="516.1" class="node" fill="#A3ADE2">0.73</text><text x="256.9" y="493.4" class="node" fill="#A3ADE2">0.73</text><text x="279.6" y="476.2" class="node" fill="#A3ADE2">0.73</text><text x="302.3" y="463" class="node" fill="#4A6FE3">1</text><text x="325" y="450.6" class="node" fill="#C4C9E3">0.61</text><text x="347.7" y="440" class="node" fill="#4A6FE3">1</text><text x="279.6" y="510.5" class="node" fill="#4A6FE3">1</text><text x="256.9" y="538.8" class="node" fill="#A3ADE2">0.73</text><text x="234.1" y="567" class="node" fill="#4A6FE3">1</text><text x="166" y="623.3" class="node" fill="#97A4E2">0.77</text><text x="143.3" y="651.5" class="node" fill="#DADBE3">0.53</text></svg>
