<svg xmlns="http://www.w3.org/2000/svg" version="1.1" viewBox="0 0 682 720" preserveAspectRatio="xMidYMid meet" class="tree" data-char="162"><text x="678" y="16.8" text-anchor="end" class="stepsLabel">Character adds <tspan class="score">3</tspan> to tree score</text><text x="678" y="30.6" text-anchor="end" class="stepsLabel"><tspan class="score">1</tspan> additional region</text><text x="678" y="44.4" text-anchor="end" class="stepsLabel"></text><text x="678" y="72" text-anchor="end" class="stepsLabel"><tspan dy="16" fill="#34caaf">An optimal tree under:</tspan><tspan x="680" style="font-style:italic" class="notThisAn" dy="1.2em">Implied weights, k = 3</tspan><tspan x="680" style="font-style:italic" class="notThisAn" dy="1.2em">IW, k = 4.5</tspan><tspan x="680" style="font-style:italic" class="notThisAn" dy="1.2em">IW, k = 7</tspan><tspan x="680" style="font-style:italic" class="thisAn" dy="1.2em">IW, k = 10.5</tspan><tspan x="680" style="font-style:italic" class="notThisAn" dy="1.2em">IW, k = 16</tspan><tspan x="680" style="font-style:italic" class="notThisAn" dy="1.2em">IW, k = 24</tspan><tspan x="680" style="font-style:italic" class="notThisAn" dy="1.2em">Equal weights</tspan></text><text x="130.5" y="658.6" fill="lightgrey" class="flag">[-]</text><text x="152.5" y="658.6" fill="#ccc" class="taxonLabel">Serpula</text><text x="130.5" y="672.7" fill="lightgrey" class="flag">[-]</text><text x="152.5" y="672.7" fill="#ccc" class="taxonLabel">Capitella</text><text x="105.4" y="686.8" fill="lightgrey" class="flag">[-]</text><text x="127.4" y="686.8" fill="#ccc" class="taxonLabel">Canadia spinosa</text><text x="80.3" y="700.9" fill="lightgrey" class="flag">[-]</text><text x="102.3" y="700.9" fill="#ccc" class="taxonLabel">Sipunculus</text><text x="205.8" y="602.2" fill="lightgrey" class="flag">[-]</text><text x="227.8" y="602.2" fill="#ccc" class="taxonLabel">Neopilina</text><text x="205.8" y="616.3" fill="lightgrey" class="flag">[-]</text><text x="227.8" y="616.3" fill="#ccc" class="taxonLabel">Conocardium elongatum</text><text x="180.7" y="630.4" fill="lightgrey" class="flag">[-]</text><text x="202.7" y="630.4" fill="#ccc" class="taxonLabel">Haliotis</text><text x="205.8" y="559.9" fill="lightgrey" class="flag">[-]</text><text x="227.8" y="559.9" fill="#ccc" class="taxonLabel">Pojetaia runnegari</text><text x="205.8" y="574" fill="lightgrey" class="flag">[-]</text><text x="227.8" y="574" fill="#ccc" class="taxonLabel">Mytilus</text><text x="180.7" y="588.1" fill="lightgrey" class="flag">[-]</text><text x="202.7" y="588.1" fill="#ccc" class="taxonLabel">Dentalium</text><text x="180.7" y="531.7" fill="lightgrey" class="flag">[-]</text><text x="202.7" y="531.7" fill="#ccc" class="taxonLabel">Wiwaxia corrugata</text><text x="180.7" y="545.8" fill="lightgrey" class="flag">[-]</text><text x="202.7" y="545.8" fill="#ccc" class="taxonLabel">Odontogriphus omalus</text><text x="281.2" y="475.3" fill="lightgrey" class="flag">[-]</text><text x="303.2" y="475.3" fill="#ccc" class="taxonLabel">Kulindroplax perissokomos</text><text x="281.2" y="489.4" fill="lightgrey" class="flag">[-]</text><text x="303.2" y="489.4" fill="#ccc" class="taxonLabel">Chaetoderma</text><text x="281.2" y="447.1" fill="lightgrey" class="flag">[-]</text><text x="303.2" y="447.1" fill="#ccc" class="taxonLabel">Wirenia</text><text x="281.2" y="461.2" fill="lightgrey" class="flag">[-]</text><text x="303.2" y="461.2" fill="#ccc" class="taxonLabel">Phthipodochiton thraivensis</text><text x="230.9" y="503.5" fill="grey" class="flag">[?]</text><text x="252.9" y="503.5" fill="#999" class="taxonLabel">Siphogonuchites multa</text><text x="205.8" y="517.6" fill="lightgrey" class="flag">[-]</text><text x="227.8" y="517.6" fill="#ccc" class="taxonLabel">Acaenoplax hayae</text><text x="306.3" y="362.5" fill="#91bfdb" class="flag">[2]</text><text x="328.3" y="362.5" fill="#000" class="taxonLabel">Tonicella</text><text x="306.3" y="376.6" fill="#91bfdb" class="flag">[2]</text><text x="328.3" y="376.6" fill="#000" class="taxonLabel">Mopalia</text><text x="281.2" y="390.7" fill="lightgrey" class="flag">[-]</text><text x="303.2" y="390.7" fill="#ccc" class="taxonLabel">Polysacos vickersianum</text><text x="256.1" y="404.8" fill="lightgrey" class="flag">[-]</text><text x="278.1" y="404.8" fill="#ccc" class="taxonLabel">Leptochiton</text><text x="230.9" y="418.9" fill="lightgrey" class="flag">[-]</text><text x="252.9" y="418.9" fill="#ccc" class="taxonLabel">Glaphurochiton carbonarius</text><text x="205.8" y="433" fill="lightgrey" class="flag">[-]</text><text x="227.8" y="433" fill="#ccc" class="taxonLabel">Calvapilosa kroegeri</text><text x="105.4" y="644.5" fill="lightgrey" class="flag">[-]</text><text x="127.4" y="644.5" fill="#ccc" class="taxonLabel">Pelagiella</text><text x="205.8" y="292" fill="lightgrey" class="flag">[-]</text><text x="227.8" y="292" fill="#ccc" class="taxonLabel">Flustra</text><text x="205.8" y="306.1" fill="lightgrey" class="flag">[-]</text><text x="227.8" y="306.1" fill="#ccc" class="taxonLabel">Amathia</text><text x="180.7" y="320.2" fill="lightgrey" class="flag">[-]</text><text x="202.7" y="320.2" fill="#ccc" class="taxonLabel">Namacalathus</text><text x="230.9" y="249.7" fill="lightgrey" class="flag">[-]</text><text x="252.9" y="249.7" fill="#ccc" class="taxonLabel">Phoronis</text><text x="230.9" y="263.8" fill="lightgrey" class="flag">[-]</text><text x="252.9" y="263.8" fill="#ccc" class="taxonLabel">Eccentrotheca</text><text x="256.1" y="221.5" fill="lightgrey" class="flag">[-]</text><text x="278.1" y="221.5" fill="#ccc" class="taxonLabel">Orthrozanclus</text><text x="256.1" y="235.6" fill="lightgrey" class="flag">[-]</text><text x="278.1" y="235.6" fill="#ccc" class="taxonLabel">Halkieria evangelista</text><text x="281.2" y="193.3" fill="lightgrey" class="flag">[-]</text><text x="303.2" y="193.3" fill="#ccc" class="taxonLabel">Pedunculotheca diania</text><text x="281.2" y="207.4" fill="lightgrey" class="flag">[-]</text><text x="303.2" y="207.4" fill="#ccc" class="taxonLabel">Haplophrentis carinatus</text><text x="356.5" y="136.9" fill="#91bfdb" class="flag">[2]</text><text x="378.5" y="136.9" fill="#000" class="taxonLabel">Mickwitzia muralensis</text><text x="356.5" y="151" fill="lightgrey" class="flag">[-]</text><text x="378.5" y="151" fill="#ccc" class="taxonLabel">Heliomedusa orienta</text><text x="381.6" y="108.7" fill="#91bfdb" class="flag">[2]</text><text x="403.6" y="108.7" fill="#000" class="taxonLabel">Micromitra</text><text x="381.6" y="122.8" fill="#91bfdb" class="flag">[2]</text><text x="403.6" y="122.8" fill="#000" class="taxonLabel">Gasconsia</text><text x="406.7" y="80.5" fill="#e2e2a2" class="flag">[1]</text><text x="428.7" y="80.5" fill="#000" class="taxonLabel">Terebratulina</text><text x="406.7" y="94.6" fill="lightgrey" class="flag">[-]</text><text x="428.7" y="94.6" fill="#ccc" class="taxonLabel">Orthis</text><text x="482" y="10" fill="grey" class="flag">[?]</text><text x="504" y="10" fill="#999" class="taxonLabel">Yuganotheca elegans</text><text x="482" y="24.1" fill="lightgrey" class="flag">[-]</text><text x="504" y="24.1" fill="#ccc" class="taxonLabel">Lingula</text><text x="456.9" y="38.2" fill="lightgrey" class="flag">[-]</text><text x="478.9" y="38.2" fill="#ccc" class="taxonLabel">Lingulellotreta malongensis</text><text x="431.8" y="52.3" fill="lightgrey" class="flag">[-]</text><text x="453.8" y="52.3" fill="#ccc" class="taxonLabel">Pelagodiscus atlanticus</text><text x="406.7" y="66.4" fill="lightgrey" class="flag">[-]</text><text x="428.7" y="66.4" fill="#ccc" class="taxonLabel">Novocrania</text><text x="306.3" y="165.1" fill="#e2e2a2" class="flag">[1]</text><text x="328.3" y="165.1" fill="#000" class="taxonLabel">Micrina</text><text x="281.2" y="179.2" fill="#e2e2a2" class="flag">[1]</text><text x="303.2" y="179.2" fill="#000" class="taxonLabel">Paterimitra</text><text x="180.7" y="277.9" fill="lightgrey" class="flag">[-]</text><text x="202.7" y="277.9" fill="#ccc" class="taxonLabel">Dailyatia</text><text x="130.5" y="334.3" fill="lightgrey" class="flag">[-]</text><text x="152.5" y="334.3" fill="#ccc" class="taxonLabel">Cotyledion tylodes</text><text x="105.4" y="348.4" fill="lightgrey" class="flag">[-]</text><text x="127.4" y="348.4" fill="#ccc" class="taxonLabel">Loxosomella</text><text x="30.1" y="715" fill="lightgrey" class="flag">[-]</text><text x="52.1" y="715" fill="#ccc" class="taxonLabel">Yilingia spiciformis</text><path d="M5,642.3V572.6H30.1M30.1,572.6V459.5H55.2M55.2,459.5V325.3H80.3M80.3,325.3V305.1H105.4M105.4,305.1V278.9H130.5M130.5,278.9V251.3H155.6M155.6,251.3V227.6H180.7M180.7,227.6V201.5H205.8M205.8,201.5V177.4H230.9M356.5,67.4V50.2H381.6M381.6,50.2V37H406.7M406.7,37V24.6H431.8M431.8,24.6V14.1H456.9M456.9,14.1V7H482M456.9,14.1V21.1H482M431.8,24.6V35.2H456.9M406.7,37V49.3H431.8M381.6,50.2V63.4H406.7M381.6,84.5V91.6H406.7M331.4,140.9V148H356.5M230.9,177.4V197.3H256.1M256.1,197.3V190.3H281.2M256.1,197.3V204.4H281.2M205.8,201.5V225.6H230.9M230.9,225.6V218.5H256.1M230.9,225.6V232.6H256.1M180.7,227.6V253.7H205.8M205.8,253.7V246.7H230.9M205.8,253.7V260.8H230.9M155.6,251.3V274.9H180.7M130.5,278.9V306.6H155.6M155.6,306.6V296H180.7M180.7,296V289H205.8M180.7,296V303.1H205.8M155.6,306.6V317.2H180.7M105.4,305.1V331.3H130.5M80.3,325.3V345.4H105.4M55.2,459.5V593.8H80.3M80.3,593.8V546.2H105.4M105.4,546.2V496.6H130.5M130.5,496.6V457.5H155.6M155.6,457.5V416.3H180.7M180.7,416.3V402.7H205.8M205.8,402.7V389.5H230.9M230.9,389.5V377.1H256.1M256.1,377.1V387.7H281.2M230.9,389.5V401.8H256.1M205.8,402.7V415.9H230.9M180.7,416.3V430H205.8M155.6,457.5V498.7H180.7M180.7,498.7V482.9H205.8M205.8,482.9V465.2H230.9M230.9,465.2V451.1H256.1M256.1,451.1V444.1H281.2M256.1,451.1V458.2H281.2M230.9,465.2V479.4H256.1M256.1,479.4V472.3H281.2M256.1,479.4V486.4H281.2M205.8,482.9V500.5H230.9M180.7,498.7V514.6H205.8M130.5,496.6V535.8H155.6M155.6,535.8V528.7H180.7M155.6,535.8V542.8H180.7M105.4,546.2V595.7H130.5M130.5,595.7V574.5H155.6M155.6,574.5V564H180.7M180.7,564V556.9H205.8M180.7,564V571H205.8M155.6,574.5V585.1H180.7M130.5,595.7V616.8H155.6M155.6,616.8V606.2H180.7M180.7,606.2V599.2H205.8M180.7,606.2V613.3H205.8M155.6,616.8V627.4H180.7M80.3,593.8V641.5H105.4M30.1,572.6V685.6H55.2M55.2,685.6V673.2H80.3M80.3,673.2V662.6H105.4M105.4,662.6V655.6H130.5M105.4,662.6V669.7H130.5M80.3,673.2V683.8H105.4M55.2,685.6V697.9H80.3M5,642.3V712H30.1" stroke="lightgrey" class="inapplicable"></path><path d="M230.9,177.4V157.5H256.1M256.1,157.5V138.8H281.2M281.2,138.8V115.5H306.3M381.6,84.5V77.5H406.7M281.2,138.8V162.1H306.3M256.1,157.5V176.2H281.2" stroke="#e2e2a2"></path><path d="M306.3,115.5V90.1H331.4M331.4,90.1V67.4H356.5M356.5,67.4V84.5H381.6M306.3,115.5V140.9H331.4" stroke="darkgrey"></path><path d="M331.4,90.1V112.8H356.5M356.5,112.8V105.7H381.6M356.5,112.8V119.8H381.6M331.4,140.9V133.9H356.5M256.1,377.1V366.5H281.2M281.2,366.5V359.5H306.3M281.2,366.5V373.6H306.3" stroke="#91bfdb"></path><text x="32.1" y="575.6" class="node" fill="#E38FA0">0.23</text><text x="57.2" y="462.5" class="node" fill="#E2899B">0.21</text><text x="82.3" y="328.3" class="node" fill="#E2899B">0.21</text><text x="107.4" y="308.1" class="node" fill="#DB6581">0.1</text><text x="132.5" y="281.9" class="node" fill="#D54C71">0.03</text><text x="157.6" y="254.3" class="node" fill="#DF758D">0.15</text><text x="182.7" y="230.6" class="node" fill="#E6AEB8">0.33</text><text x="207.8" y="204.5" class="node" fill="#E6B7C0">0.36</text><text x="232.9" y="180.4" class="node" fill="#5776E2">0.97</text><text x="258.1" y="160.5" class="node" fill="#5776E2">0.97</text><text x="283.2" y="141.8" class="node" fill="#5776E2">0.97</text><text x="308.3" y="118.5" class="node" fill="#5776E2">0.97</text><text x="333.4" y="93.1" class="node" fill="#5776E2">0.97</text><text x="358.5" y="70.4" class="node" fill="#5776E2">0.97</text><text x="383.6" y="53.2" class="node" fill="#5776E2">0.97</text><text x="408.7" y="40" class="node" fill="#4A6FE3">1</text><text x="433.8" y="27.6" class="node" fill="#E3DFE0">0.49</text><text x="458.9" y="17.1" class="node" fill="#4A6FE3">1</text><text x="383.6" y="87.5" class="node" fill="#4A6FE3">1</text><text x="358.5" y="115.8" class="node" fill="#5776E2">0.97</text><text x="333.4" y="143.9" class="node" fill="#4A6FE3">1</text><text x="258.1" y="200.3" class="node" fill="#D2D4E3">0.56</text><text x="232.9" y="228.6" class="node" fill="#DD6F88">0.13</text><text x="207.8" y="256.7" class="node" fill="#E17F94">0.18</text><text x="157.6" y="309.6" class="node" fill="#4A6FE3">1</text><text x="182.7" y="299" class="node" fill="#4A6FE3">1</text><text x="82.3" y="596.8" class="node" fill="#E2899B">0.21</text><text x="107.4" y="549.2" class="node" fill="#E2899B">0.21</text><text x="132.5" y="499.6" class="node" fill="#E2899B">0.21</text><text x="157.6" y="460.5" class="node" fill="#5776E2">0.97</text><text x="182.7" y="419.3" class="node" fill="#4A6FE3">1</text><text x="207.8" y="405.7" class="node" fill="#4A6FE3">1</text><text x="232.9" y="392.5" class="node" fill="#4A6FE3">1</text><text x="258.1" y="380.1" class="node" fill="#4A6FE3">1</text><text x="283.2" y="369.5" class="node" fill="#E17F94">0.18</text><text x="182.7" y="501.7" class="node" fill="#DA5E7D">0.08</text><text x="207.8" y="485.9" class="node" fill="#E2899B">0.21</text><text x="232.9" y="468.2" class="node" fill="#E38FA0">0.23</text><text x="258.1" y="454.1" class="node" fill="#E2899B">0.21</text><text x="258.1" y="482.4" class="node" fill="#4A6FE3">1</text><text x="157.6" y="538.8" class="node" fill="#7A8DE1">0.87</text><text x="132.5" y="598.7" class="node" fill="#4A6FE3">1</text><text x="157.6" y="577.5" class="node" fill="#5776E2">0.97</text><text x="182.7" y="567" class="node" fill="#8091E1">0.85</text><text x="157.6" y="619.8" class="node" fill="#5776E2">0.97</text><text x="182.7" y="609.2" class="node" fill="#4A6FE3">1</text><text x="57.2" y="688.6" class="node" fill="#4A6FE3">1</text><text x="82.3" y="676.2" class="node" fill="#4A6FE3">1</text><text x="107.4" y="665.6" class="node" fill="#E38FA0">0.23</text></svg>
