<svg xmlns="http://www.w3.org/2000/svg" version="1.1" viewBox="0 0 682 720" preserveAspectRatio="xMidYMid meet" class="tree" data-char="49"><text x="678" y="16.8" text-anchor="end" class="stepsLabel">Character adds <tspan class="score">1</tspan> to tree score</text><text x="678" y="30.6" text-anchor="end" class="stepsLabel"><tspan class="score">0</tspan> additional regions</text><text x="678" y="44.4" text-anchor="end" class="stepsLabel"></text><text x="678" y="72" text-anchor="end" class="stepsLabel"><tspan dy="16" fill="#34caaf">An optimal tree under:</tspan><tspan x="680" style="font-style:italic" class="notThisAn" dy="1.2em">Implied weights, k = 3</tspan><tspan x="680" style="font-style:italic" class="thisAn" dy="1.2em">IW, k = 4.5</tspan><tspan x="680" style="font-style:italic" class="notThisAn" dy="1.2em">IW, k = 7</tspan><tspan x="680" style="font-style:italic" class="notThisAn" dy="1.2em">IW, k = 10.5</tspan><tspan x="680" style="font-style:italic" class="notThisAn" dy="1.2em">IW, k = 16</tspan><tspan x="680" style="font-style:italic" class="notThisAn" dy="1.2em">IW, k = 24</tspan><tspan x="680" style="font-style:italic" class="notThisAn" dy="1.2em">Equal weights</tspan></text><text x="145.3" y="658.6" fill="#fc8d59" class="flag">[0]</text><text x="167.3" y="658.6" fill="#000" class="taxonLabel">Serpula</text><text x="145.3" y="672.7" fill="#fc8d59" class="flag">[0]</text><text x="167.3" y="672.7" fill="#000" class="taxonLabel">Capitella</text><text x="117.2" y="686.8" fill="#fc8d59" class="flag">[0]</text><text x="139.2" y="686.8" fill="#000" class="taxonLabel">Canadia spinosa</text><text x="89.2" y="700.9" fill="#fc8d59" class="flag">[0]</text><text x="111.2" y="700.9" fill="#000" class="taxonLabel">Sipunculus</text><text x="145.3" y="630.4" fill="#fc8d59" class="flag">[0]</text><text x="167.3" y="630.4" fill="#000" class="taxonLabel">Orthrozanclus</text><text x="145.3" y="644.5" fill="#fc8d59" class="flag">[0]</text><text x="167.3" y="644.5" fill="#000" class="taxonLabel">Halkieria evangelista</text><text x="229.5" y="574" fill="#fc8d59" class="flag">[0]</text><text x="251.5" y="574" fill="#000" class="taxonLabel">Wirenia</text><text x="229.5" y="588.1" fill="#fc8d59" class="flag">[0]</text><text x="251.5" y="588.1" fill="#000" class="taxonLabel">Phthipodochiton thraivensis</text><text x="341.7" y="517.6" fill="#fc8d59" class="flag">[0]</text><text x="363.7" y="517.6" fill="#000" class="taxonLabel">Siphogonuchites multa</text><text x="341.7" y="531.7" fill="#fc8d59" class="flag">[0]</text><text x="363.7" y="531.7" fill="#000" class="taxonLabel">Calvapilosa kroegeri</text><text x="397.8" y="461.2" fill="#fc8d59" class="flag">[0]</text><text x="419.8" y="461.2" fill="#000" class="taxonLabel">Tonicella</text><text x="397.8" y="475.3" fill="#fc8d59" class="flag">[0]</text><text x="419.8" y="475.3" fill="#000" class="taxonLabel">Mopalia</text><text x="369.8" y="489.4" fill="#fc8d59" class="flag">[0]</text><text x="391.8" y="489.4" fill="#000" class="taxonLabel">Polysacos vickersianum</text><text x="341.7" y="503.5" fill="#fc8d59" class="flag">[0]</text><text x="363.7" y="503.5" fill="#000" class="taxonLabel">Leptochiton</text><text x="285.6" y="545.8" fill="#fc8d59" class="flag">[0]</text><text x="307.6" y="545.8" fill="#000" class="taxonLabel">Glaphurochiton carbonarius</text><text x="313.6" y="433" fill="#fc8d59" class="flag">[0]</text><text x="335.6" y="433" fill="#000" class="taxonLabel">Wiwaxia corrugata</text><text x="313.6" y="447.1" fill="#fc8d59" class="flag">[0]</text><text x="335.6" y="447.1" fill="#000" class="taxonLabel">Odontogriphus omalus</text><text x="397.8" y="376.6" fill="#fc8d59" class="flag">[0]</text><text x="419.8" y="376.6" fill="#000" class="taxonLabel">Neopilina</text><text x="397.8" y="390.7" fill="#fc8d59" class="flag">[0]</text><text x="419.8" y="390.7" fill="#000" class="taxonLabel">Conocardium elongatum</text><text x="369.8" y="404.8" fill="#fc8d59" class="flag">[0]</text><text x="391.8" y="404.8" fill="#000" class="taxonLabel">Haliotis</text><text x="397.8" y="334.3" fill="#fc8d59" class="flag">[0]</text><text x="419.8" y="334.3" fill="#000" class="taxonLabel">Pojetaia runnegari</text><text x="397.8" y="348.4" fill="#fc8d59" class="flag">[0]</text><text x="419.8" y="348.4" fill="#000" class="taxonLabel">Mytilus</text><text x="369.8" y="362.5" fill="#fc8d59" class="flag">[0]</text><text x="391.8" y="362.5" fill="#000" class="taxonLabel">Dentalium</text><text x="313.6" y="418.9" fill="#fc8d59" class="flag">[0]</text><text x="335.6" y="418.9" fill="#000" class="taxonLabel">Pelagiella</text><text x="229.5" y="559.9" fill="#fc8d59" class="flag">[0]</text><text x="251.5" y="559.9" fill="#000" class="taxonLabel">Chaetoderma</text><text x="173.4" y="602.2" fill="#fc8d59" class="flag">[0]</text><text x="195.4" y="602.2" fill="#000" class="taxonLabel">Acaenoplax hayae</text><text x="145.3" y="616.3" fill="#fc8d59" class="flag">[0]</text><text x="167.3" y="616.3" fill="#000" class="taxonLabel">Kulindroplax perissokomos</text><text x="173.4" y="292" fill="#fc8d59" class="flag">[0]</text><text x="195.4" y="292" fill="#000" class="taxonLabel">Namacalathus</text><text x="173.4" y="306.1" fill="#fc8d59" class="flag">[0]</text><text x="195.4" y="306.1" fill="#000" class="taxonLabel">Loxosomella</text><text x="145.3" y="320.2" fill="#fc8d59" class="flag">[0]</text><text x="167.3" y="320.2" fill="#000" class="taxonLabel">Cotyledion tylodes</text><text x="201.4" y="249.7" fill="#fc8d59" class="flag">[0]</text><text x="223.4" y="249.7" fill="#000" class="taxonLabel">Flustra</text><text x="201.4" y="263.8" fill="#fc8d59" class="flag">[0]</text><text x="223.4" y="263.8" fill="#000" class="taxonLabel">Amathia</text><text x="341.7" y="165.1" fill="#91bfdb" class="flag">[1]</text><text x="363.7" y="165.1" fill="#000" class="taxonLabel">Terebratulina</text><text x="341.7" y="179.2" fill="#91bfdb" class="flag">[1]</text><text x="363.7" y="179.2" fill="#000" class="taxonLabel">Orthis</text><text x="397.8" y="136.9" fill="#91bfdb" class="flag">[1]</text><text x="419.8" y="136.9" fill="#000" class="taxonLabel">Micromitra</text><text x="397.8" y="151" fill="grey" class="flag">[?]</text><text x="419.8" y="151" fill="#999" class="taxonLabel">Gasconsia</text><text x="397.8" y="108.7" fill="#91bfdb" class="flag">[1]</text><text x="419.8" y="108.7" fill="#000" class="taxonLabel">Novocrania</text><text x="397.8" y="122.8" fill="#91bfdb" class="flag">[1]</text><text x="419.8" y="122.8" fill="#000" class="taxonLabel">Heliomedusa orienta</text><text x="453.9" y="52.3" fill="grey" class="flag">[?]</text><text x="475.9" y="52.3" fill="#999" class="taxonLabel">Pedunculotheca diania</text><text x="453.9" y="66.4" fill="grey" class="flag">[?]</text><text x="475.9" y="66.4" fill="#999" class="taxonLabel">Haplophrentis carinatus</text><text x="482" y="10" fill="#91bfdb" class="flag">[1]</text><text x="504" y="10" fill="#000" class="taxonLabel">Yuganotheca elegans</text><text x="482" y="24.1" fill="#91bfdb" class="flag">[1]</text><text x="504" y="24.1" fill="#000" class="taxonLabel">Lingula</text><text x="453.9" y="38.2" fill="#91bfdb" class="flag">[1]</text><text x="475.9" y="38.2" fill="#000" class="taxonLabel">Lingulellotreta malongensis</text><text x="397.8" y="80.5" fill="#91bfdb" class="flag">[1]</text><text x="419.8" y="80.5" fill="#000" class="taxonLabel">Pelagodiscus atlanticus</text><text x="369.8" y="94.6" fill="grey" class="flag">[?]</text><text x="391.8" y="94.6" fill="#999" class="taxonLabel">Mickwitzia muralensis</text><text x="285.6" y="193.3" fill="grey" class="flag">[?]</text><text x="307.6" y="193.3" fill="#999" class="taxonLabel">Micrina</text><text x="257.5" y="207.4" fill="#fc8d59" class="flag">[0]</text><text x="279.5" y="207.4" fill="#000" class="taxonLabel">Paterimitra</text><text x="229.5" y="221.5" fill="#fc8d59" class="flag">[0]</text><text x="251.5" y="221.5" fill="#000" class="taxonLabel">Phoronis</text><text x="201.4" y="235.6" fill="#fc8d59" class="flag">[0]</text><text x="223.4" y="235.6" fill="#000" class="taxonLabel">Eccentrotheca</text><text x="145.3" y="277.9" fill="#fc8d59" class="flag">[0]</text><text x="167.3" y="277.9" fill="#000" class="taxonLabel">Dailyatia</text><text x="33.1" y="715" fill="grey" class="flag">[?]</text><text x="55.1" y="715" fill="#999" class="taxonLabel">Yilingia spiciformis</text><path d="M5,639.2V566.4H33.1M33.1,566.4V447.3H61.1M61.1,447.3V280.9H89.2M89.2,280.9V255.1H117.2M117.2,255.1V235.3H145.3M145.3,235.3V216.8H173.4M173.4,216.8V201H201.4M201.4,201V183.6H229.5M229.5,183.6V162.7H257.5M229.5,183.6V204.4H257.5M201.4,201V218.5H229.5M173.4,216.8V232.6H201.4M145.3,235.3V253.7H173.4M173.4,253.7V246.7H201.4M173.4,253.7V260.8H201.4M117.2,255.1V274.9H145.3M89.2,280.9V306.6H117.2M117.2,306.6V296H145.3M145.3,296V289H173.4M145.3,296V303.1H173.4M117.2,306.6V317.2H145.3M61.1,447.3V613.7H89.2M89.2,613.7V592.9H117.2M117.2,592.9V572.4H145.3M145.3,572.4V545.6H173.4M173.4,545.6V513.2H201.4M201.4,513.2V469.4H229.5M229.5,469.4V415H257.5M257.5,415V393H285.6M285.6,393V370.1H313.6M313.6,370.1V348.9H341.7M341.7,348.9V338.4H369.8M369.8,338.4V331.3H397.8M369.8,338.4V345.4H397.8M341.7,348.9V359.5H369.8M313.6,370.1V391.2H341.7M341.7,391.2V380.6H369.8M369.8,380.6V373.6H397.8M369.8,380.6V387.7H397.8M341.7,391.2V401.8H369.8M285.6,393V415.9H313.6M257.5,415V437H285.6M285.6,437V430H313.6M285.6,437V444.1H313.6M229.5,469.4V523.9H257.5M257.5,523.9V504.9H285.6M285.6,504.9V488.2H313.6M313.6,488.2V475.8H341.7M341.7,475.8V465.2H369.8M369.8,465.2V458.2H397.8M369.8,465.2V472.3H397.8M341.7,475.8V486.4H369.8M313.6,488.2V500.5H341.7M285.6,504.9V521.6H313.6M313.6,521.6V514.6H341.7M313.6,521.6V528.7H341.7M257.5,523.9V542.8H285.6M201.4,513.2V556.9H229.5M173.4,545.6V578H201.4M201.4,578V571H229.5M201.4,578V585.1H229.5M145.3,572.4V599.2H173.4M117.2,592.9V613.3H145.3M89.2,613.7V634.5H117.2M117.2,634.5V627.4H145.3M117.2,634.5V641.5H145.3M33.1,566.4V685.6H61.1M61.1,685.6V673.2H89.2M89.2,673.2V662.6H117.2M117.2,662.6V655.6H145.3M117.2,662.6V669.7H145.3M89.2,673.2V683.8H117.2M61.1,685.6V697.9H89.2M5,639.2V712H33.1" stroke="#fc8d59"></path><path d="M257.5,162.7V135.1H285.6M285.6,135.1V101.1H313.6M313.6,101.1V75.3H341.7M341.7,75.3V59H369.8M369.8,59V40.5H397.8M397.8,40.5V24.6H425.9M425.9,24.6V14.1H453.9M453.9,14.1V7H482M453.9,14.1V21.1H482M425.9,24.6V35.2H453.9M397.8,40.5V56.3H425.9M425.9,56.3V49.3H453.9M425.9,56.3V63.4H453.9M369.8,59V77.5H397.8M341.7,75.3V91.6H369.8M313.6,101.1V126.8H341.7M341.7,126.8V112.8H369.8M369.8,112.8V105.7H397.8M369.8,112.8V119.8H397.8M341.7,126.8V140.9H369.8M369.8,140.9V133.9H397.8M369.8,140.9V148H397.8M285.6,135.1V169.1H313.6M313.6,169.1V162.1H341.7M313.6,169.1V176.2H341.7" stroke="#91bfdb"></path><path d="M257.5,162.7V190.3H285.6" stroke="darkgrey"></path><text x="35.1" y="569.4" class="node" fill="#E6C1C7">0.39</text><text x="63.1" y="450.3" class="node" fill="#E49CAA">0.27</text><text x="91.2" y="283.9" class="node" fill="#DC6884">0.11</text><text x="119.2" y="258.1" class="node" fill="#E18297">0.19</text><text x="147.3" y="238.3" class="node" fill="#E07C92">0.17</text><text x="175.4" y="219.8" class="node" fill="#E28699">0.2</text><text x="203.4" y="204" class="node" fill="#BCC2E3">0.64</text><text x="231.5" y="186.6" class="node" fill="#E49CAA">0.27</text><text x="259.5" y="165.7" class="node" fill="#E49CAA">0.27</text><text x="287.6" y="138.1" class="node" fill="#E49CAA">0.27</text><text x="315.6" y="104.1" class="node" fill="#E49CAA">0.27</text><text x="343.7" y="78.3" class="node" fill="#E49CAA">0.27</text><text x="371.8" y="62" class="node" fill="#E49CAA">0.27</text><text x="399.8" y="43.5" class="node" fill="#4A6FE3">1</text><text x="427.9" y="27.6" class="node" fill="#C4C9E3">0.61</text><text x="455.9" y="17.1" class="node" fill="#4A6FE3">1</text><text x="427.9" y="59.3" class="node" fill="#E49CAA">0.27</text><text x="343.7" y="129.8" class="node" fill="#E49CAA">0.27</text><text x="371.8" y="115.8" class="node" fill="#4A6FE3">1</text><text x="371.8" y="143.9" class="node" fill="#4A6FE3">1</text><text x="315.6" y="172.1" class="node" fill="#4A6FE3">1</text><text x="175.4" y="256.7" class="node" fill="#E18297">0.19</text><text x="119.2" y="309.6" class="node" fill="#E49CAA">0.27</text><text x="147.3" y="299" class="node" fill="#E49CAA">0.27</text><text x="91.2" y="616.7" class="node" fill="#4A6FE3">1</text><text x="119.2" y="595.9" class="node" fill="#BFC4E3">0.63</text><text x="147.3" y="575.4" class="node" fill="#BFC4E3">0.63</text><text x="175.4" y="548.6" class="node" fill="#E49CAA">0.27</text><text x="203.4" y="516.2" class="node" fill="#E4D9DB">0.47</text><text x="231.5" y="472.4" class="node" fill="#7388E1">0.89</text><text x="259.5" y="418" class="node" fill="#7388E1">0.89</text><text x="287.6" y="396" class="node" fill="#7086E1">0.9</text><text x="315.6" y="373.1" class="node" fill="#4A6FE3">1</text><text x="343.7" y="351.9" class="node" fill="#4A6FE3">1</text><text x="371.8" y="341.4" class="node" fill="#4A6FE3">1</text><text x="343.7" y="394.2" class="node" fill="#4A6FE3">1</text><text x="371.8" y="383.6" class="node" fill="#4A6FE3">1</text><text x="287.6" y="440" class="node" fill="#E6B1BB">0.34</text><text x="259.5" y="526.9" class="node" fill="#DF798F">0.16</text><text x="287.6" y="507.9" class="node" fill="#4A6FE3">1</text><text x="315.6" y="491.2" class="node" fill="#4A6FE3">1</text><text x="343.7" y="478.8" class="node" fill="#4A6FE3">1</text><text x="371.8" y="468.2" class="node" fill="#E49CAA">0.27</text><text x="315.6" y="524.6" class="node" fill="#E6C1C7">0.39</text><text x="203.4" y="581" class="node" fill="#97A4E2">0.77</text><text x="119.2" y="637.5" class="node" fill="#4A6FE3">1</text><text x="63.1" y="688.6" class="node" fill="#4A6FE3">1</text><text x="91.2" y="676.2" class="node" fill="#4A6FE3">1</text><text x="119.2" y="665.6" class="node" fill="#E6C1C7">0.39</text></svg>
