<svg xmlns="http://www.w3.org/2000/svg" version="1.1" viewBox="0 0 682 720" preserveAspectRatio="xMidYMid meet" class="tree" data-char="200"><text x="678" y="16.8" text-anchor="end" class="stepsLabel">Character adds <tspan class="score">6</tspan> to tree score</text><text x="678" y="30.6" text-anchor="end" class="stepsLabel"><tspan class="score">0</tspan> additional regions</text><text x="678" y="44.4" text-anchor="end" class="stepsLabel"></text><text x="678" y="72" text-anchor="end" class="stepsLabel"><tspan dy="16" fill="#34caaf">An optimal tree under:</tspan><tspan x="680" style="font-style:italic" class="notThisAn" dy="1.2em">Implied weights, k = 3</tspan><tspan x="680" style="font-style:italic" class="notThisAn" dy="1.2em">IW, k = 4.5</tspan><tspan x="680" style="font-style:italic" class="notThisAn" dy="1.2em">IW, k = 7</tspan><tspan x="680" style="font-style:italic" class="notThisAn" dy="1.2em">IW, k = 10.5</tspan><tspan x="680" style="font-style:italic" class="notThisAn" dy="1.2em">IW, k = 16</tspan><tspan x="680" style="font-style:italic" class="thisAn" dy="1.2em">IW, k = 24</tspan><tspan x="680" style="font-style:italic" class="notThisAn" dy="1.2em">Equal weights</tspan></text><text x="164" y="672.7" fill="grey" class="flag">[?]</text><text x="186" y="672.7" fill="#999" class="taxonLabel">Eccentrotheca</text><text x="164" y="686.8" fill="grey" class="flag">[?]</text><text x="186" y="686.8" fill="#999" class="taxonLabel">Cotyledion tylodes</text><text x="195.8" y="644.5" fill="grey" class="flag">[?]</text><text x="217.8" y="644.5" fill="#999" class="taxonLabel">Orthrozanclus</text><text x="195.8" y="658.6" fill="grey" class="flag">[?]</text><text x="217.8" y="658.6" fill="#999" class="taxonLabel">Halkieria evangelista</text><text x="227.6" y="616.3" fill="grey" class="flag">[?]</text><text x="249.6" y="616.3" fill="#999" class="taxonLabel">Pedunculotheca diania</text><text x="227.6" y="630.4" fill="grey" class="flag">[?]</text><text x="249.6" y="630.4" fill="#999" class="taxonLabel">Haplophrentis carinatus</text><text x="323" y="559.9" fill="grey" class="flag">[?]</text><text x="345" y="559.9" fill="#999" class="taxonLabel">Mickwitzia muralensis</text><text x="323" y="574" fill="grey" class="flag">[?]</text><text x="345" y="574" fill="#999" class="taxonLabel">Heliomedusa orienta</text><text x="354.8" y="531.7" fill="grey" class="flag">[?]</text><text x="376.8" y="531.7" fill="#999" class="taxonLabel">Micromitra</text><text x="354.8" y="545.8" fill="grey" class="flag">[?]</text><text x="376.8" y="545.8" fill="#999" class="taxonLabel">Gasconsia</text><text x="386.6" y="503.5" fill="grey" class="flag">[?]</text><text x="408.6" y="503.5" fill="#999" class="taxonLabel">Terebratulina</text><text x="386.6" y="517.6" fill="grey" class="flag">[?]</text><text x="408.6" y="517.6" fill="#999" class="taxonLabel">Orthis</text><text x="482" y="433" fill="grey" class="flag">[?]</text><text x="504" y="433" fill="#999" class="taxonLabel">Yuganotheca elegans</text><text x="482" y="447.1" fill="grey" class="flag">[?]</text><text x="504" y="447.1" fill="#999" class="taxonLabel">Lingulellotreta malongensis</text><text x="450.2" y="461.2" fill="#fc8d59" class="flag">[0]</text><text x="472.2" y="461.2" fill="#000" class="taxonLabel">Lingula</text><text x="418.4" y="475.3" fill="grey" class="flag">[?]</text><text x="440.4" y="475.3" fill="#999" class="taxonLabel">Pelagodiscus atlanticus</text><text x="386.6" y="489.4" fill="#fc8d59" class="flag">[0]</text><text x="408.6" y="489.4" fill="#000" class="taxonLabel">Novocrania</text><text x="259.4" y="588.1" fill="grey" class="flag">[?]</text><text x="281.4" y="588.1" fill="#999" class="taxonLabel">Micrina</text><text x="227.6" y="602.2" fill="grey" class="flag">[?]</text><text x="249.6" y="602.2" fill="#999" class="taxonLabel">Paterimitra</text><text x="164" y="404.8" fill="#fc8d59" class="flag">[0]</text><text x="186" y="404.8" fill="#000" class="taxonLabel">Phoronis</text><text x="164" y="418.9" fill="grey" class="flag">[?]</text><text x="186" y="418.9" fill="#999" class="taxonLabel">Namacalathus</text><text x="195.8" y="376.6" fill="#91bfdb" class="flag">[1]</text><text x="217.8" y="376.6" fill="#000" class="taxonLabel">Flustra</text><text x="195.8" y="390.7" fill="#91bfdb" class="flag">[1]</text><text x="217.8" y="390.7" fill="#000" class="taxonLabel">Amathia</text><text x="323" y="306.1" fill="#fc8d59" class="flag">[0]</text><text x="345" y="306.1" fill="#000" class="taxonLabel">Serpula</text><text x="323" y="320.2" fill="#91bfdb" class="flag">[1]</text><text x="345" y="320.2" fill="#000" class="taxonLabel">Capitella</text><text x="291.2" y="334.3" fill="grey" class="flag">[?]</text><text x="313.2" y="334.3" fill="#999" class="taxonLabel">Canadia spinosa</text><text x="259.4" y="348.4" fill="#fc8d59" class="flag">[0]</text><text x="281.4" y="348.4" fill="#000" class="taxonLabel">Sipunculus</text><text x="291.2" y="277.9" fill="grey" class="flag">[?]</text><text x="313.2" y="277.9" fill="#999" class="taxonLabel">Wiwaxia corrugata</text><text x="291.2" y="292" fill="grey" class="flag">[?]</text><text x="313.2" y="292" fill="#999" class="taxonLabel">Odontogriphus omalus</text><text x="418.4" y="221.5" fill="#fc8d59" class="flag">[0]</text><text x="440.4" y="221.5" fill="#000" class="taxonLabel">Neopilina</text><text x="418.4" y="235.6" fill="grey" class="flag">[?]</text><text x="440.4" y="235.6" fill="#999" class="taxonLabel">Conocardium elongatum</text><text x="386.6" y="249.7" fill="#91bfdb" class="flag">[1]</text><text x="408.6" y="249.7" fill="#000" class="taxonLabel">Haliotis</text><text x="418.4" y="179.2" fill="grey" class="flag">[?]</text><text x="440.4" y="179.2" fill="#999" class="taxonLabel">Pojetaia runnegari</text><text x="418.4" y="193.3" fill="#91bfdb" class="flag">[1]</text><text x="440.4" y="193.3" fill="#000" class="taxonLabel">Mytilus</text><text x="386.6" y="207.4" fill="#91bfdb" class="flag">[1]</text><text x="408.6" y="207.4" fill="#000" class="taxonLabel">Dentalium</text><text x="323" y="263.8" fill="grey" class="flag">[?]</text><text x="345" y="263.8" fill="#999" class="taxonLabel">Pelagiella</text><text x="418.4" y="136.9" fill="grey" class="flag">[?]</text><text x="440.4" y="136.9" fill="#999" class="taxonLabel">Kulindroplax perissokomos</text><text x="418.4" y="151" fill="grey" class="flag">[?]</text><text x="440.4" y="151" fill="#999" class="taxonLabel">Acaenoplax hayae</text><text x="450.2" y="94.6" fill="#91bfdb" class="flag">[1]</text><text x="472.2" y="94.6" fill="#000" class="taxonLabel">Wirenia</text><text x="450.2" y="108.7" fill="#91bfdb" class="flag">[1]</text><text x="472.2" y="108.7" fill="#000" class="taxonLabel">Chaetoderma</text><text x="418.4" y="122.8" fill="grey" class="flag">[?]</text><text x="440.4" y="122.8" fill="#999" class="taxonLabel">Phthipodochiton thraivensis</text><text x="354.8" y="165.1" fill="grey" class="flag">[?]</text><text x="376.8" y="165.1" fill="#999" class="taxonLabel">Siphogonuchites multa</text><text x="482" y="10" fill="#91bfdb" class="flag">[1]</text><text x="504" y="10" fill="#000" class="taxonLabel">Tonicella</text><text x="482" y="24.1" fill="#fc8d59" class="flag">[0]</text><text x="504" y="24.1" fill="#000" class="taxonLabel">Mopalia</text><text x="450.2" y="38.2" fill="grey" class="flag">[?]</text><text x="472.2" y="38.2" fill="#999" class="taxonLabel">Polysacos vickersianum</text><text x="418.4" y="52.3" fill="#fc8d59" class="flag">[0]</text><text x="440.4" y="52.3" fill="#000" class="taxonLabel">Leptochiton</text><text x="386.6" y="66.4" fill="grey" class="flag">[?]</text><text x="408.6" y="66.4" fill="#999" class="taxonLabel">Glaphurochiton carbonarius</text><text x="354.8" y="80.5" fill="grey" class="flag">[?]</text><text x="376.8" y="80.5" fill="#999" class="taxonLabel">Calvapilosa kroegeri</text><text x="195.8" y="362.5" fill="#91bfdb" class="flag">[1]</text><text x="217.8" y="362.5" fill="#000" class="taxonLabel">Loxosomella</text><text x="68.6" y="700.9" fill="grey" class="flag">[?]</text><text x="90.6" y="700.9" fill="#999" class="taxonLabel">Dailyatia</text><text x="36.8" y="715" fill="grey" class="flag">[?]</text><text x="58.8" y="715" fill="#999" class="taxonLabel">Yilingia spiciformis</text><path d="M5,659.2V606.5H36.8M36.8,606.5V515.1H68.6M68.6,515.1V379.5H100.4M450.2,14.1V21.1H482M386.6,37V49.3H418.4M386.6,225.6V218.5H418.4M291.2,310.1V303.1H323M227.6,333.1V345.4H259.4M100.4,379.5V408.9H132.2M132.2,408.9V401.8H164M132.2,408.9V415.9H164M68.6,515.1V650.6H100.4M100.4,650.6V624.5H132.2M132.2,624.5V600.4H164M164,600.4V580.5H195.8M195.8,580.5V561.8H227.6M227.6,561.8V538.5H259.4M259.4,538.5V513.1H291.2M291.2,513.1V490.4H323M323,490.4V473.2H354.8M354.8,473.2V460H386.6M386.6,460V447.6H418.4M418.4,447.6V437H450.2M450.2,437V430H482M450.2,437V444.1H482M418.4,447.6V458.2H450.2M386.6,460V472.3H418.4M354.8,473.2V486.4H386.6M323,490.4V507.5H354.8M354.8,507.5V500.5H386.6M354.8,507.5V514.6H386.6M291.2,513.1V535.8H323M323,535.8V528.7H354.8M323,535.8V542.8H354.8M259.4,538.5V564H291.2M291.2,564V556.9H323M291.2,564V571H323M227.6,561.8V585.1H259.4M195.8,580.5V599.2H227.6M164,600.4V620.3H195.8M195.8,620.3V613.3H227.6M195.8,620.3V627.4H227.6M132.2,624.5V648.5H164M164,648.5V641.5H195.8M164,648.5V655.6H195.8M100.4,650.6V676.8H132.2M132.2,676.8V669.7H164M132.2,676.8V683.8H164M36.8,606.5V697.9H68.6M5,659.2V712H36.8" stroke="#fc8d59"></path><path d="M100.4,379.5V350.1H132.2M132.2,350.1V319.6H164M164,319.6V279.7H195.8M195.8,279.7V226.4H227.6M227.6,226.4V170.8H259.4M259.4,170.8V103.7H291.2M291.2,103.7V63.8H323M450.2,14.1V7H482M291.2,103.7V143.6H323M323,143.6V125.1H354.8M354.8,125.1V109.2H386.6M386.6,109.2V98.7H418.4M418.4,98.7V91.6H450.2M418.4,98.7V105.7H450.2M386.6,109.2V119.8H418.4M354.8,125.1V140.9H386.6M386.6,140.9V133.9H418.4M386.6,140.9V148H418.4M323,143.6V162.1H354.8M259.4,170.8V237.9H291.2M291.2,237.9V215H323M323,215V193.8H354.8M354.8,193.8V183.2H386.6M386.6,183.2V176.2H418.4M386.6,183.2V190.3H418.4M354.8,193.8V204.4H386.6M323,215V236.1H354.8M354.8,236.1V225.6H386.6M354.8,236.1V246.7H386.6M291.2,237.9V260.8H323M227.6,226.4V281.9H259.4M259.4,281.9V274.9H291.2M259.4,281.9V289H291.2M195.8,279.7V333.1H227.6M291.2,310.1V317.2H323M164,319.6V359.5H195.8M132.2,350.1V380.6H164M164,380.6V373.6H195.8M164,380.6V387.7H195.8" stroke="#91bfdb"></path><path d="M323,63.8V50.2H354.8M354.8,50.2V37H386.6M386.6,37V24.6H418.4M418.4,24.6V14.1H450.2M418.4,24.6V35.2H450.2M354.8,50.2V63.4H386.6M323,63.8V77.5H354.8M386.6,225.6V232.6H418.4M227.6,333.1V320.7H259.4M259.4,320.7V310.1H291.2M259.4,320.7V331.3H291.2" stroke="darkgrey"></path><text x="38.8" y="609.5" class="node" fill="#8696E1">0.83</text><text x="70.6" y="518.1" class="node" fill="#E5C7CC">0.41</text><text x="102.4" y="382.5" class="node" fill="#E5C7CC">0.41</text><text x="134.2" y="353.1" class="node" fill="#E5C7CC">0.41</text><text x="166" y="322.6" class="node" fill="#5B78E2">0.96</text><text x="197.8" y="282.7" class="node" fill="#4A6FE3">1</text><text x="229.6" y="229.4" class="node" fill="#E5C7CC">0.41</text><text x="261.4" y="173.8" class="node" fill="#E5CDD1">0.43</text><text x="293.2" y="106.7" class="node" fill="#5374E2">0.98</text><text x="325" y="66.8" class="node" fill="#5374E2">0.98</text><text x="356.8" y="53.2" class="node" fill="#4A6FE3">1</text><text x="388.6" y="40" class="node" fill="#4A6FE3">1</text><text x="420.4" y="27.6" class="node" fill="#4A6FE3">1</text><text x="452.2" y="17.1" class="node" fill="#E28699">0.2</text><text x="325" y="146.6" class="node" fill="#E5CDD1">0.43</text><text x="356.8" y="128.1" class="node" fill="#E38C9E">0.22</text><text x="388.6" y="112.2" class="node" fill="#5374E2">0.98</text><text x="420.4" y="101.7" class="node" fill="#E5CDD1">0.43</text><text x="388.6" y="143.9" class="node" fill="#5374E2">0.98</text><text x="293.2" y="240.9" class="node" fill="#95A1E2">0.78</text><text x="325" y="218" class="node" fill="#5374E2">0.98</text><text x="356.8" y="196.8" class="node" fill="#4A6FE3">1</text><text x="388.6" y="186.2" class="node" fill="#5374E2">0.98</text><text x="356.8" y="239.1" class="node" fill="#5374E2">0.98</text><text x="388.6" y="228.6" class="node" fill="#4A6FE3">1</text><text x="261.4" y="284.9" class="node" fill="#4A6FE3">1</text><text x="229.6" y="336.1" class="node" fill="#4A6FE3">1</text><text x="261.4" y="323.7" class="node" fill="#4A6FE3">1</text><text x="293.2" y="313.1" class="node" fill="#4A6FE3">1</text><text x="166" y="383.6" class="node" fill="#E59FAC">0.28</text><text x="134.2" y="411.9" class="node" fill="#E6AEB8">0.33</text><text x="102.4" y="653.6" class="node" fill="#E5CDD1">0.43</text><text x="134.2" y="627.5" class="node" fill="#E4D6D8">0.46</text><text x="166" y="603.4" class="node" fill="#5B78E2">0.96</text><text x="197.8" y="583.5" class="node" fill="#5B78E2">0.96</text><text x="229.6" y="564.8" class="node" fill="#5B78E2">0.96</text><text x="261.4" y="541.5" class="node" fill="#5374E2">0.98</text><text x="293.2" y="516.1" class="node" fill="#5374E2">0.98</text><text x="325" y="493.4" class="node" fill="#5374E2">0.98</text><text x="356.8" y="476.2" class="node" fill="#5374E2">0.98</text><text x="388.6" y="463" class="node" fill="#4A6FE3">1</text><text x="420.4" y="450.6" class="node" fill="#E2E2E2">0.5</text><text x="452.2" y="440" class="node" fill="#4A6FE3">1</text><text x="356.8" y="510.5" class="node" fill="#4A6FE3">1</text><text x="325" y="538.8" class="node" fill="#5B78E2">0.96</text><text x="293.2" y="567" class="node" fill="#4A6FE3">1</text><text x="197.8" y="623.3" class="node" fill="#B9BFE3">0.65</text><text x="166" y="651.5" class="node" fill="#E59FAC">0.28</text><text x="134.2" y="679.8" class="node" fill="#8696E1">0.83</text></svg>
