<svg xmlns="http://www.w3.org/2000/svg" version="1.1" viewBox="0 0 682 720" preserveAspectRatio="xMidYMid meet" class="tree" data-char="230"><text x="678" y="16.8" text-anchor="end" class="stepsLabel">Character adds <tspan class="score">1</tspan> to tree score</text><text x="678" y="30.6" text-anchor="end" class="stepsLabel"><tspan class="score">0</tspan> additional regions</text><text x="678" y="44.4" text-anchor="end" class="stepsLabel"></text><text x="678" y="72" text-anchor="end" class="stepsLabel"><tspan dy="16" fill="#34caaf">An optimal tree under:</tspan><tspan x="680" style="font-style:italic" class="notThisAn" dy="1.2em">Implied weights, k = 3</tspan><tspan x="680" style="font-style:italic" class="notThisAn" dy="1.2em">IW, k = 4.5</tspan><tspan x="680" style="font-style:italic" class="notThisAn" dy="1.2em">IW, k = 7</tspan><tspan x="680" style="font-style:italic" class="thisAn" dy="1.2em">IW, k = 10.5</tspan><tspan x="680" style="font-style:italic" class="notThisAn" dy="1.2em">IW, k = 16</tspan><tspan x="680" style="font-style:italic" class="notThisAn" dy="1.2em">IW, k = 24</tspan><tspan x="680" style="font-style:italic" class="notThisAn" dy="1.2em">Equal weights</tspan></text><text x="137.5" y="658.6" fill="#91bfdb" class="flag">[2]</text><text x="159.5" y="658.6" fill="#000" class="taxonLabel">Serpula</text><text x="137.5" y="672.7" fill="grey" class="flag">[?]</text><text x="159.5" y="672.7" fill="#999" class="taxonLabel">Capitella</text><text x="111" y="686.8" fill="grey" class="flag">[?]</text><text x="133" y="686.8" fill="#999" class="taxonLabel">Canadia spinosa</text><text x="84.5" y="700.9" fill="#91bfdb" class="flag">[2]</text><text x="106.5" y="700.9" fill="#000" class="taxonLabel">Sipunculus</text><text x="217" y="602.2" fill="grey" class="flag">[?]</text><text x="239" y="602.2" fill="#999" class="taxonLabel">Neopilina</text><text x="217" y="616.3" fill="grey" class="flag">[?]</text><text x="239" y="616.3" fill="#999" class="taxonLabel">Conocardium elongatum</text><text x="190.5" y="630.4" fill="grey" class="flag">[?]</text><text x="212.5" y="630.4" fill="#999" class="taxonLabel">Haliotis</text><text x="217" y="559.9" fill="grey" class="flag">[?]</text><text x="239" y="559.9" fill="#999" class="taxonLabel">Pojetaia runnegari</text><text x="217" y="574" fill="grey" class="flag">[?]</text><text x="239" y="574" fill="#999" class="taxonLabel">Mytilus</text><text x="190.5" y="588.1" fill="grey" class="flag">[?]</text><text x="212.5" y="588.1" fill="#999" class="taxonLabel">Dentalium</text><text x="190.5" y="531.7" fill="grey" class="flag">[?]</text><text x="212.5" y="531.7" fill="#999" class="taxonLabel">Wiwaxia corrugata</text><text x="190.5" y="545.8" fill="grey" class="flag">[?]</text><text x="212.5" y="545.8" fill="#999" class="taxonLabel">Odontogriphus omalus</text><text x="296.5" y="475.3" fill="grey" class="flag">[?]</text><text x="318.5" y="475.3" fill="#999" class="taxonLabel">Kulindroplax perissokomos</text><text x="296.5" y="489.4" fill="grey" class="flag">[?]</text><text x="318.5" y="489.4" fill="#999" class="taxonLabel">Chaetoderma</text><text x="296.5" y="447.1" fill="grey" class="flag">[?]</text><text x="318.5" y="447.1" fill="#999" class="taxonLabel">Wirenia</text><text x="296.5" y="461.2" fill="grey" class="flag">[?]</text><text x="318.5" y="461.2" fill="#999" class="taxonLabel">Phthipodochiton thraivensis</text><text x="243.5" y="503.5" fill="grey" class="flag">[?]</text><text x="265.5" y="503.5" fill="#999" class="taxonLabel">Siphogonuchites multa</text><text x="217" y="517.6" fill="grey" class="flag">[?]</text><text x="239" y="517.6" fill="#999" class="taxonLabel">Acaenoplax hayae</text><text x="323" y="362.5" fill="#e2e2a2" class="flag">[1]</text><text x="345" y="362.5" fill="#000" class="taxonLabel">Tonicella</text><text x="323" y="376.6" fill="grey" class="flag">[?]</text><text x="345" y="376.6" fill="#999" class="taxonLabel">Mopalia</text><text x="296.5" y="390.7" fill="grey" class="flag">[?]</text><text x="318.5" y="390.7" fill="#999" class="taxonLabel">Polysacos vickersianum</text><text x="270" y="404.8" fill="grey" class="flag">[?]</text><text x="292" y="404.8" fill="#999" class="taxonLabel">Leptochiton</text><text x="243.5" y="418.9" fill="grey" class="flag">[?]</text><text x="265.5" y="418.9" fill="#999" class="taxonLabel">Glaphurochiton carbonarius</text><text x="217" y="433" fill="grey" class="flag">[?]</text><text x="239" y="433" fill="#999" class="taxonLabel">Calvapilosa kroegeri</text><text x="111" y="644.5" fill="grey" class="flag">[?]</text><text x="133" y="644.5" fill="#999" class="taxonLabel">Pelagiella</text><text x="243.5" y="277.9" fill="grey" class="flag">[?]</text><text x="265.5" y="277.9" fill="#999" class="taxonLabel">Flustra</text><text x="243.5" y="292" fill="grey" class="flag">[?]</text><text x="265.5" y="292" fill="#999" class="taxonLabel">Amathia</text><text x="217" y="306.1" fill="grey" class="flag">[?]</text><text x="239" y="306.1" fill="#999" class="taxonLabel">Namacalathus</text><text x="190.5" y="320.2" fill="grey" class="flag">[?]</text><text x="212.5" y="320.2" fill="#999" class="taxonLabel">Dailyatia</text><text x="217" y="249.7" fill="grey" class="flag">[?]</text><text x="239" y="249.7" fill="#999" class="taxonLabel">Phoronis</text><text x="217" y="263.8" fill="grey" class="flag">[?]</text><text x="239" y="263.8" fill="#999" class="taxonLabel">Eccentrotheca</text><text x="243.5" y="221.5" fill="grey" class="flag">[?]</text><text x="265.5" y="221.5" fill="#999" class="taxonLabel">Orthrozanclus</text><text x="243.5" y="235.6" fill="grey" class="flag">[?]</text><text x="265.5" y="235.6" fill="#999" class="taxonLabel">Halkieria evangelista</text><text x="270" y="193.3" fill="grey" class="flag">[?]</text><text x="292" y="193.3" fill="#999" class="taxonLabel">Pedunculotheca diania</text><text x="270" y="207.4" fill="grey" class="flag">[?]</text><text x="292" y="207.4" fill="#999" class="taxonLabel">Haplophrentis carinatus</text><text x="349.5" y="136.9" fill="grey" class="flag">[?]</text><text x="371.5" y="136.9" fill="#999" class="taxonLabel">Mickwitzia muralensis</text><text x="349.5" y="151" fill="grey" class="flag">[?]</text><text x="371.5" y="151" fill="#999" class="taxonLabel">Heliomedusa orienta</text><text x="376" y="108.7" fill="grey" class="flag">[?]</text><text x="398" y="108.7" fill="#999" class="taxonLabel">Micromitra</text><text x="376" y="122.8" fill="grey" class="flag">[?]</text><text x="398" y="122.8" fill="#999" class="taxonLabel">Gasconsia</text><text x="402.5" y="80.5" fill="grey" class="flag">[?]</text><text x="424.5" y="80.5" fill="#999" class="taxonLabel">Terebratulina</text><text x="402.5" y="94.6" fill="grey" class="flag">[?]</text><text x="424.5" y="94.6" fill="#999" class="taxonLabel">Orthis</text><text x="482" y="10" fill="grey" class="flag">[?]</text><text x="504" y="10" fill="#999" class="taxonLabel">Yuganotheca elegans</text><text x="482" y="24.1" fill="grey" class="flag">[?]</text><text x="504" y="24.1" fill="#999" class="taxonLabel">Lingulellotreta malongensis</text><text x="455.5" y="38.2" fill="#e2e2a2" class="flag">[1]</text><text x="477.5" y="38.2" fill="#000" class="taxonLabel">Lingula</text><text x="429" y="52.3" fill="grey" class="flag">[?]</text><text x="451" y="52.3" fill="#999" class="taxonLabel">Pelagodiscus atlanticus</text><text x="402.5" y="66.4" fill="#e2e2a2" class="flag">[1]</text><text x="424.5" y="66.4" fill="#000" class="taxonLabel">Novocrania</text><text x="296.5" y="165.1" fill="grey" class="flag">[?]</text><text x="318.5" y="165.1" fill="#999" class="taxonLabel">Micrina</text><text x="270" y="179.2" fill="grey" class="flag">[?]</text><text x="292" y="179.2" fill="#999" class="taxonLabel">Paterimitra</text><text x="137.5" y="334.3" fill="grey" class="flag">[?]</text><text x="159.5" y="334.3" fill="#999" class="taxonLabel">Cotyledion tylodes</text><text x="111" y="348.4" fill="lightgrey" class="flag">[-]</text><text x="133" y="348.4" fill="#ccc" class="taxonLabel">Loxosomella</text><text x="31.5" y="715" fill="grey" class="flag">[?]</text><text x="53.5" y="715" fill="#999" class="taxonLabel">Yilingia spiciformis</text><path d="M5,641.9V571.8H31.5M5,641.9V712H31.5" stroke="darkgrey"></path><path d="M31.5,571.8V458H58M58,458V322.1H84.5M84.5,322.1V298.8H111M111,298.8V266.2H137.5M137.5,266.2V227.6H164M164,227.6V201.5H190.5M190.5,201.5V177.4H217M217,177.4V157.5H243.5M243.5,157.5V138.8H270M270,138.8V115.5H296.5M296.5,115.5V90.1H323M323,90.1V67.4H349.5M349.5,67.4V50.2H376M376,50.2V37H402.5M402.5,37V24.6H429M429,24.6V14.1H455.5M455.5,14.1V7H482M455.5,14.1V21.1H482M429,24.6V35.2H455.5M402.5,37V49.3H429M376,50.2V63.4H402.5M349.5,67.4V84.5H376M376,84.5V77.5H402.5M376,84.5V91.6H402.5M323,90.1V112.8H349.5M349.5,112.8V105.7H376M349.5,112.8V119.8H376M296.5,115.5V140.9H323M323,140.9V133.9H349.5M323,140.9V148H349.5M270,138.8V162.1H296.5M243.5,157.5V176.2H270M217,177.4V197.3H243.5M243.5,197.3V190.3H270M243.5,197.3V204.4H270M190.5,201.5V225.6H217M217,225.6V218.5H243.5M217,225.6V232.6H243.5M164,227.6V253.7H190.5M190.5,253.7V246.7H217M190.5,253.7V260.8H217M137.5,266.2V304.9H164M164,304.9V292.5H190.5M190.5,292.5V281.9H217M217,281.9V274.9H243.5M217,281.9V289H243.5M190.5,292.5V303.1H217M164,304.9V317.2H190.5M111,298.8V331.3H137.5M58,458V593.8H84.5M84.5,593.8V546.2H111M111,546.2V496.6H137.5M137.5,496.6V457.5H164M164,457.5V416.3H190.5M190.5,416.3V402.7H217M217,402.7V389.5H243.5M243.5,389.5V377.1H270M270,377.1V366.5H296.5M296.5,366.5V359.5H323M296.5,366.5V373.6H323M270,377.1V387.7H296.5M243.5,389.5V401.8H270M217,402.7V415.9H243.5M190.5,416.3V430H217M164,457.5V498.7H190.5M190.5,498.7V482.9H217M217,482.9V465.2H243.5M243.5,465.2V451.1H270M270,451.1V444.1H296.5M270,451.1V458.2H296.5M243.5,465.2V479.4H270M270,479.4V472.3H296.5M270,479.4V486.4H296.5M217,482.9V500.5H243.5M190.5,498.7V514.6H217M137.5,496.6V535.8H164M164,535.8V528.7H190.5M164,535.8V542.8H190.5M111,546.2V595.7H137.5M137.5,595.7V574.5H164M164,574.5V564H190.5M190.5,564V556.9H217M190.5,564V571H217M164,574.5V585.1H190.5M137.5,595.7V616.8H164M164,616.8V606.2H190.5M190.5,606.2V599.2H217M190.5,606.2V613.3H217M164,616.8V627.4H190.5M84.5,593.8V641.5H111" stroke="#e2e2a2"></path><path d="M84.5,322.1V345.4H111" stroke="lightgrey" class="inapplicable"></path><path d="M31.5,571.8V685.6H58M58,685.6V673.2H84.5M84.5,673.2V662.6H111M111,662.6V655.6H137.5M111,662.6V669.7H137.5M84.5,673.2V683.8H111M58,685.6V697.9H84.5" stroke="#91bfdb"></path><text x="33.5" y="574.8" class="node" fill="#E6C1C7">0.39</text><text x="60" y="461" class="node" fill="#DC6884">0.11</text><text x="86.5" y="325.1" class="node" fill="#DC6884">0.11</text><text x="113" y="301.8" class="node" fill="#D85778">0.06</text><text x="139.5" y="269.2" class="node" fill="#DB617F">0.09</text><text x="166" y="230.6" class="node" fill="#E6BAC2">0.37</text><text x="192.5" y="204.5" class="node" fill="#BCC2E3">0.64</text><text x="219" y="180.4" class="node" fill="#A3ADE2">0.73</text><text x="245.5" y="160.5" class="node" fill="#A3ADE2">0.73</text><text x="272" y="141.8" class="node" fill="#A3ADE2">0.73</text><text x="298.5" y="118.5" class="node" fill="#A3ADE2">0.73</text><text x="325" y="93.1" class="node" fill="#A3ADE2">0.73</text><text x="351.5" y="70.4" class="node" fill="#A3ADE2">0.73</text><text x="378" y="53.2" class="node" fill="#A3ADE2">0.73</text><text x="404.5" y="40" class="node" fill="#4A6FE3">1</text><text x="431" y="27.6" class="node" fill="#E6C1C7">0.39</text><text x="457.5" y="17.1" class="node" fill="#4A6FE3">1</text><text x="378" y="87.5" class="node" fill="#4A6FE3">1</text><text x="351.5" y="115.8" class="node" fill="#A3ADE2">0.73</text><text x="325" y="143.9" class="node" fill="#4A6FE3">1</text><text x="245.5" y="200.3" class="node" fill="#97A4E2">0.77</text><text x="219" y="228.6" class="node" fill="#DD6F88">0.13</text><text x="192.5" y="256.7" class="node" fill="#D54C71">0.03</text><text x="166" y="307.9" class="node" fill="#DB6581">0.1</text><text x="192.5" y="295.5" class="node" fill="#4A6FE3">1</text><text x="219" y="284.9" class="node" fill="#4A6FE3">1</text><text x="86.5" y="596.8" class="node" fill="#DC6884">0.11</text><text x="113" y="549.2" class="node" fill="#DC6884">0.11</text><text x="139.5" y="499.6" class="node" fill="#DC6884">0.11</text><text x="166" y="460.5" class="node" fill="#A3ADE2">0.73</text><text x="192.5" y="419.3" class="node" fill="#A3ADE2">0.73</text><text x="219" y="405.7" class="node" fill="#4A6FE3">1</text><text x="245.5" y="392.5" class="node" fill="#4A6FE3">1</text><text x="272" y="380.1" class="node" fill="#4A6FE3">1</text><text x="298.5" y="369.5" class="node" fill="#DB6581">0.1</text><text x="192.5" y="501.7" class="node" fill="#D64F73">0.04</text><text x="219" y="485.9" class="node" fill="#DC6884">0.11</text><text x="245.5" y="468.2" class="node" fill="#E6C1C7">0.39</text><text x="272" y="454.1" class="node" fill="#DC6884">0.11</text><text x="272" y="482.4" class="node" fill="#4A6FE3">1</text><text x="166" y="538.8" class="node" fill="#7086E1">0.9</text><text x="139.5" y="598.7" class="node" fill="#4A6FE3">1</text><text x="166" y="577.5" class="node" fill="#4A6FE3">1</text><text x="192.5" y="567" class="node" fill="#4A6FE3">1</text><text x="166" y="619.8" class="node" fill="#4A6FE3">1</text><text x="192.5" y="609.2" class="node" fill="#4A6FE3">1</text><text x="60" y="688.6" class="node" fill="#4A6FE3">1</text><text x="86.5" y="676.2" class="node" fill="#4A6FE3">1</text><text x="113" y="665.6" class="node" fill="#E6C1C7">0.39</text></svg>
