<svg xmlns="http://www.w3.org/2000/svg" version="1.1" viewBox="0 0 682 720" preserveAspectRatio="xMidYMid meet" class="tree" data-char="82"><text x="678" y="12.7" text-anchor="end" class="stepsLabel">Character adds <tspan class="score">1</tspan> to tree score</text><text x="678" y="22.4" text-anchor="end" class="stepsLabel"><tspan class="score">0</tspan> additional regions</text><text x="678" y="32.1" text-anchor="end" class="stepsLabel"></text><text x="678" y="51.5" text-anchor="end" class="stepsLabel"><tspan dy="16" fill="#34caaf">An optimal tree under:</tspan><tspan x="680" style="font-style:italic" class="notThisAn" dy="1.2em">Implied weights, k = 4.5</tspan><tspan x="680" style="font-style:italic" class="notThisAn" dy="1.2em">IW, k = 10.5</tspan><tspan x="680" style="font-style:italic" class="notThisAn" dy="1.2em">IW, k = 24</tspan><tspan x="680" style="font-style:italic" class="thisAn" dy="1.2em">Equal weights</tspan></text><text x="154.1" y="675.8" fill="#fc8d59" class="flag">[0]</text><text x="176.1" y="675.8" fill="#000" class="taxonLabel">Serpula</text><text x="154.1" y="685.6" fill="#fc8d59" class="flag">[0]</text><text x="176.1" y="685.6" fill="#000" class="taxonLabel">Capitella</text><text x="124.2" y="695.4" fill="#fc8d59" class="flag">[0]</text><text x="146.2" y="695.4" fill="#000" class="taxonLabel">Canadia spinosa</text><text x="94.4" y="705.2" fill="#fc8d59" class="flag">[0]</text><text x="116.4" y="705.2" fill="#000" class="taxonLabel">Sipunculus</text><text x="243.5" y="636.7" fill="grey" class="flag">[?]</text><text x="265.5" y="636.7" fill="#999" class="taxonLabel">Pojetaia runnegari</text><text x="243.5" y="646.5" fill="#fc8d59" class="flag">[0]</text><text x="265.5" y="646.5" fill="#000" class="taxonLabel">Mytilus</text><text x="273.3" y="607.3" fill="#fc8d59" class="flag">[0]</text><text x="295.3" y="607.3" fill="#000" class="taxonLabel">Neopilina</text><text x="273.3" y="617.1" fill="grey" class="flag">[?]</text><text x="295.3" y="617.1" fill="#999" class="taxonLabel">Conocardium elongatum</text><text x="243.5" y="626.9" fill="#fc8d59" class="flag">[0]</text><text x="265.5" y="626.9" fill="#000" class="taxonLabel">Haliotis</text><text x="183.9" y="656.2" fill="#fc8d59" class="flag">[0]</text><text x="205.9" y="656.2" fill="#000" class="taxonLabel">Dentalium</text><text x="213.7" y="587.7" fill="#fc8d59" class="flag">[0]</text><text x="235.7" y="587.7" fill="#000" class="taxonLabel">Wiwaxia corrugata</text><text x="213.7" y="597.5" fill="#fc8d59" class="flag">[0]</text><text x="235.7" y="597.5" fill="#000" class="taxonLabel">Odontogriphus omalus</text><text x="303.1" y="558.3" fill="#fc8d59" class="flag">[0]</text><text x="325.1" y="558.3" fill="#000" class="taxonLabel">Wirenia</text><text x="303.1" y="568.1" fill="#fc8d59" class="flag">[0]</text><text x="325.1" y="568.1" fill="#000" class="taxonLabel">Chaetoderma</text><text x="332.9" y="529" fill="grey" class="flag">[?]</text><text x="354.9" y="529" fill="#999" class="taxonLabel">Phthipodochiton thraivensis</text><text x="332.9" y="538.8" fill="#fc8d59" class="flag">[0]</text><text x="354.9" y="538.8" fill="#000" class="taxonLabel">Kulindroplax perissokomos</text><text x="303.1" y="548.5" fill="#fc8d59" class="flag">[0]</text><text x="325.1" y="548.5" fill="#000" class="taxonLabel">Acaenoplax hayae</text><text x="392.6" y="470.2" fill="#91bfdb" class="flag">[1]</text><text x="414.6" y="470.2" fill="#000" class="taxonLabel">Tonicella</text><text x="392.6" y="480" fill="#91bfdb" class="flag">[1]</text><text x="414.6" y="480" fill="#000" class="taxonLabel">Mopalia</text><text x="362.8" y="489.8" fill="#91bfdb" class="flag">[1]</text><text x="384.8" y="489.8" fill="#000" class="taxonLabel">Leptochiton</text><text x="332.9" y="499.6" fill="grey" class="flag">[?]</text><text x="354.9" y="499.6" fill="#999" class="taxonLabel">Glaphurochiton carbonarius</text><text x="303.1" y="509.4" fill="grey" class="flag">[?]</text><text x="325.1" y="509.4" fill="#999" class="taxonLabel">Calvapilosa kroegeri</text><text x="273.3" y="519.2" fill="grey" class="flag">[?]</text><text x="295.3" y="519.2" fill="#999" class="taxonLabel">Polysacos vickersianum</text><text x="213.7" y="577.9" fill="grey" class="flag">[?]</text><text x="235.7" y="577.9" fill="#999" class="taxonLabel">Siphogonuchites multa</text><text x="124.2" y="666" fill="grey" class="flag">[?]</text><text x="146.2" y="666" fill="#999" class="taxonLabel">Pelagiella</text><text x="243.5" y="440.8" fill="grey" class="flag">[?]</text><text x="265.5" y="440.8" fill="#999" class="taxonLabel">Paramicrocornus</text><text x="243.5" y="450.6" fill="#fc8d59" class="flag">[0]</text><text x="265.5" y="450.6" fill="#000" class="taxonLabel">Haplophrentis carinatus</text><text x="273.3" y="411.5" fill="grey" class="flag">[?]</text><text x="295.3" y="411.5" fill="#999" class="taxonLabel">Cupitheca holocyclata</text><text x="273.3" y="421.2" fill="grey" class="flag">[?]</text><text x="295.3" y="421.2" fill="#999" class="taxonLabel">Bactrotheca</text><text x="243.5" y="431" fill="grey" class="flag">[?]</text><text x="265.5" y="431" fill="#999" class="taxonLabel">Pedunculotheca diania</text><text x="183.9" y="460.4" fill="grey" class="flag">[?]</text><text x="205.9" y="460.4" fill="#999" class="taxonLabel">Halkieria evangelista</text><text x="332.9" y="352.7" fill="#fc8d59" class="flag">[0]</text><text x="354.9" y="352.7" fill="#000" class="taxonLabel">Phoronis</text><text x="332.9" y="362.5" fill="grey" class="flag">[?]</text><text x="354.9" y="362.5" fill="#999" class="taxonLabel">Namacalathus</text><text x="362.8" y="323.3" fill="#fc8d59" class="flag">[0]</text><text x="384.8" y="323.3" fill="#000" class="taxonLabel">Flustra</text><text x="362.8" y="333.1" fill="#fc8d59" class="flag">[0]</text><text x="384.8" y="333.1" fill="#000" class="taxonLabel">Amathia</text><text x="332.9" y="342.9" fill="#fc8d59" class="flag">[0]</text><text x="354.9" y="342.9" fill="#000" class="taxonLabel">Loxosomella</text><text x="273.3" y="372.3" fill="grey" class="flag">[?]</text><text x="295.3" y="372.3" fill="#999" class="taxonLabel">Dailyatia</text><text x="243.5" y="382.1" fill="#fc8d59" class="flag">[0]</text><text x="265.5" y="382.1" fill="#000" class="taxonLabel">Cotyledion tylodes</text><text x="213.7" y="391.9" fill="grey" class="flag">[?]</text><text x="235.7" y="391.9" fill="#999" class="taxonLabel">Eccentrotheca</text><text x="183.9" y="401.7" fill="#fc8d59" class="flag">[0]</text><text x="205.9" y="401.7" fill="#000" class="taxonLabel">Orthrozanclus</text><text x="243.5" y="284.2" fill="grey" class="flag">[?]</text><text x="265.5" y="284.2" fill="#999" class="taxonLabel">Mickwitzia muralensis</text><text x="243.5" y="294" fill="#fc8d59" class="flag">[0]</text><text x="265.5" y="294" fill="#000" class="taxonLabel">Heliomedusa orienta</text><text x="362.8" y="245" fill="#fc8d59" class="flag">[0]</text><text x="384.8" y="245" fill="#000" class="taxonLabel">Novocrania</text><text x="362.8" y="254.8" fill="grey" class="flag">[?]</text><text x="384.8" y="254.8" fill="#999" class="taxonLabel">Craniops</text><text x="332.9" y="264.6" fill="grey" class="flag">[?]</text><text x="354.9" y="264.6" fill="#999" class="taxonLabel">Ussunia</text><text x="303.1" y="274.4" fill="grey" class="flag">[?]</text><text x="325.1" y="274.4" fill="#999" class="taxonLabel">Gasconsia</text><text x="422.4" y="196" fill="#fc8d59" class="flag">[0]</text><text x="444.4" y="196" fill="#000" class="taxonLabel">Pelagodiscus atlanticus</text><text x="422.4" y="205.8" fill="grey" class="flag">[?]</text><text x="444.4" y="205.8" fill="#999" class="taxonLabel">Mummpikia nuda</text><text x="482" y="166.7" fill="grey" class="flag">[?]</text><text x="504" y="166.7" fill="#999" class="taxonLabel">Siphonobolus priscus</text><text x="482" y="176.5" fill="#fc8d59" class="flag">[0]</text><text x="504" y="176.5" fill="#000" class="taxonLabel">Acanthotretella spinosa</text><text x="482" y="147.1" fill="#fc8d59" class="flag">[0]</text><text x="504" y="147.1" fill="#000" class="taxonLabel">Lingulosacculus</text><text x="482" y="156.9" fill="grey" class="flag">[?]</text><text x="504" y="156.9" fill="#999" class="taxonLabel">Clupeafumosus socialis</text><text x="422.4" y="186.2" fill="#fc8d59" class="flag">[0]</text><text x="444.4" y="186.2" fill="#000" class="taxonLabel">Lingulellotreta malongensis</text><text x="362.8" y="215.6" fill="grey" class="flag">[?]</text><text x="384.8" y="215.6" fill="#999" class="taxonLabel">Botsfordia</text><text x="332.9" y="225.4" fill="grey" class="flag">[?]</text><text x="354.9" y="225.4" fill="#999" class="taxonLabel">Eoobolus</text><text x="303.1" y="235.2" fill="#fc8d59" class="flag">[0]</text><text x="325.1" y="235.2" fill="#000" class="taxonLabel">Lingula</text><text x="303.1" y="127.5" fill="grey" class="flag">[?]</text><text x="325.1" y="127.5" fill="#999" class="taxonLabel">Micromitra</text><text x="303.1" y="137.3" fill="grey" class="flag">[?]</text><text x="325.1" y="137.3" fill="#999" class="taxonLabel">Askepasma toddense</text><text x="362.8" y="98.1" fill="#fc8d59" class="flag">[0]</text><text x="384.8" y="98.1" fill="#000" class="taxonLabel">Yuganotheca elegans</text><text x="362.8" y="107.9" fill="grey" class="flag">[?]</text><text x="384.8" y="107.9" fill="#999" class="taxonLabel">Tomteluva perturbata</text><text x="332.9" y="117.7" fill="grey" class="flag">[?]</text><text x="354.9" y="117.7" fill="#999" class="taxonLabel">Salanygolina</text><text x="362.8" y="78.5" fill="grey" class="flag">[?]</text><text x="384.8" y="78.5" fill="#999" class="taxonLabel">Coolinia pecten</text><text x="362.8" y="88.3" fill="grey" class="flag">[?]</text><text x="384.8" y="88.3" fill="#999" class="taxonLabel">Antigonambonites planus</text><text x="392.6" y="59" fill="grey" class="flag">[?]</text><text x="414.6" y="59" fill="#999" class="taxonLabel">Nisusia sulcata</text><text x="392.6" y="68.8" fill="#fc8d59" class="flag">[0]</text><text x="414.6" y="68.8" fill="#000" class="taxonLabel">Kutorgina chengjiangensis</text><text x="482" y="10" fill="#fc8d59" class="flag">[0]</text><text x="504" y="10" fill="#000" class="taxonLabel">Terebratulina</text><text x="482" y="19.8" fill="grey" class="flag">[?]</text><text x="504" y="19.8" fill="#999" class="taxonLabel">Orthis</text><text x="452.2" y="29.6" fill="grey" class="flag">[?]</text><text x="474.2" y="29.6" fill="#999" class="taxonLabel">Alisina</text><text x="422.4" y="39.4" fill="#fc8d59" class="flag">[0]</text><text x="444.4" y="39.4" fill="#000" class="taxonLabel">Longtancunella chengjiangensis</text><text x="392.6" y="49.2" fill="grey" class="flag">[?]</text><text x="414.6" y="49.2" fill="#999" class="taxonLabel">Glyptoria</text><text x="183.9" y="303.8" fill="grey" class="flag">[?]</text><text x="205.9" y="303.8" fill="#999" class="taxonLabel">Micrina</text><text x="154.1" y="313.5" fill="grey" class="flag">[?]</text><text x="176.1" y="313.5" fill="#999" class="taxonLabel">Paterimitra</text><text x="34.8" y="715" fill="grey" class="flag">[?]</text><text x="56.8" y="715" fill="#999" class="taxonLabel">Yilingia spiciformis</text><path d="M5,652.7V593.5H34.8M34.8,593.5V493.3H64.6M64.6,493.3V352.3H94.4M94.4,352.3V288.1H124.2M124.2,288.1V265.6H154.1M154.1,265.6V230.5H183.9M183.9,230.5V174.9H213.7M213.7,174.9V107.7H243.5M243.5,107.7V86H273.3M273.3,86V64.7H303.1M303.1,64.7V48.9H332.9M332.9,48.9V37H362.8M362.8,37V27.8H392.6M392.6,27.8V19.2H422.4M422.4,19.2V11.9H452.2M452.2,11.9V7H482M452.2,11.9V16.8H482M422.4,19.2V26.6H452.2M392.6,27.8V36.4H422.4M362.8,37V46.2H392.6M332.9,48.9V60.9H362.8M362.8,60.9V56H392.6M362.8,60.9V65.8H392.6M303.1,64.7V80.4H332.9M332.9,80.4V75.5H362.8M332.9,80.4V85.3H362.8M273.3,86V107.4H303.1M303.1,107.4V100H332.9M332.9,100V95.1H362.8M332.9,100V104.9H362.8M303.1,107.4V114.7H332.9M243.5,107.7V129.4H273.3M273.3,129.4V124.5H303.1M273.3,129.4V134.3H303.1M213.7,174.9V242.1H243.5M243.5,242.1V221.3H273.3M273.3,221.3V210.5H303.1M303.1,210.5V198.5H332.9M332.9,198.5V184.5H362.8M362.8,184.5V171H392.6M392.6,171V158.8H422.4M422.4,158.8V149H452.2M452.2,149V144.1H482M452.2,149V153.9H482M422.4,158.8V168.6H452.2M452.2,168.6V163.7H482M452.2,168.6V173.5H482M392.6,171V183.2H422.4M362.8,184.5V197.9H392.6M392.6,197.9V193H422.4M392.6,197.9V202.8H422.4M332.9,198.5V212.6H362.8M303.1,210.5V222.4H332.9M273.3,221.3V232.2H303.1M243.5,242.1V262.8H273.3M273.3,262.8V254.2H303.1M303.1,254.2V246.9H332.9M332.9,246.9V242H362.8M332.9,246.9V251.8H362.8M303.1,254.2V261.6H332.9M273.3,262.8V271.4H303.1M183.9,230.5V286.1H213.7M213.7,286.1V281.2H243.5M213.7,286.1V291H243.5M154.1,265.6V300.8H183.9M124.2,288.1V310.5H154.1M94.4,352.3V416.5H124.2M124.2,416.5V388.5H154.1M154.1,388.5V378.3H183.9M183.9,378.3V367.8H213.7M213.7,367.8V356.4H243.5M243.5,356.4V343.6H273.3M273.3,343.6V332.6H303.1M303.1,332.6V325.2H332.9M332.9,325.2V320.3H362.8M332.9,325.2V330.1H362.8M303.1,332.6V339.9H332.9M273.3,343.6V354.6H303.1M303.1,354.6V349.7H332.9M303.1,354.6V359.5H332.9M243.5,356.4V369.3H273.3M213.7,367.8V379.1H243.5M183.9,378.3V388.9H213.7M154.1,388.5V398.7H183.9M124.2,416.5V444.6H154.1M154.1,444.6V431.7H183.9M183.9,431.7V420.7H213.7M213.7,420.7V413.4H243.5M243.5,413.4V408.5H273.3M243.5,413.4V418.2H273.3M213.7,420.7V428H243.5M183.9,431.7V442.7H213.7M213.7,442.7V437.8H243.5M213.7,442.7V447.6H243.5M154.1,444.6V457.4H183.9M64.6,493.3V634.2H94.4M94.4,634.2V605.5H124.2M124.2,605.5V570.5H154.1M154.1,570.5V551.4H183.9M183.9,551.4V527.9H213.7M213.7,527.9V506.7H243.5M213.7,527.9V549.2H243.5M243.5,549.2V538.2H273.3M273.3,538.2V530.9H303.1M303.1,530.9V526H332.9M303.1,530.9V535.8H332.9M273.3,538.2V545.5H303.1M243.5,549.2V560.2H273.3M273.3,560.2V555.3H303.1M273.3,560.2V565.1H303.1M183.9,551.4V574.9H213.7M154.1,570.5V589.6H183.9M183.9,589.6V584.7H213.7M183.9,589.6V594.5H213.7M124.2,605.5V640.4H154.1M154.1,640.4V627.5H183.9M183.9,627.5V616.5H213.7M213.7,616.5V609.2H243.5M243.5,609.2V604.3H273.3M243.5,609.2V614.1H273.3M213.7,616.5V623.9H243.5M183.9,627.5V638.6H213.7M213.7,638.6V633.7H243.5M213.7,638.6V643.5H243.5M154.1,640.4V653.2H183.9M94.4,634.2V663H124.2M34.8,593.5V693.6H64.6M64.6,693.6V685.1H94.4M94.4,685.1V677.7H124.2M124.2,677.7V672.8H154.1M124.2,677.7V682.6H154.1M94.4,685.1V692.4H124.2M64.6,693.6V702.2H94.4M5,652.7V712H34.8" stroke="#fc8d59"></path><path d="M243.5,506.7V497.2H273.3M273.3,497.2V488H303.1M303.1,488V496.6H332.9M273.3,497.2V506.4H303.1M243.5,506.7V516.2H273.3" stroke="darkgrey"></path><path d="M303.1,488V479.4H332.9M332.9,479.4V472.1H362.8M362.8,472.1V467.2H392.6M362.8,472.1V477H392.6M332.9,479.4V486.8H362.8" stroke="#91bfdb"></path><text x="36.8" y="596.5" class="node" fill="#E5CDD1">0.43</text><text x="66.6" y="496.3" class="node" fill="#E28699">0.2</text><text x="96.4" y="355.3" class="node" fill="#E28699">0.2</text><text x="126.2" y="291.1" class="node" fill="#4A6FE3">1</text><text x="156.1" y="268.6" class="node" fill="#A8B1E2">0.71</text><text x="185.9" y="233.5" class="node" fill="#E4D9DB">0.47</text><text x="215.7" y="177.9" class="node" fill="#E4D9DB">0.47</text><text x="245.5" y="110.7" class="node" fill="#E4D9DB">0.47</text><text x="275.3" y="89" class="node" fill="#DB617F">0.09</text><text x="305.1" y="67.7" class="node" fill="#ABB4E2">0.7</text><text x="334.9" y="51.9" class="node" fill="#4F72E2">0.99</text><text x="364.8" y="40" class="node" fill="#4F72E2">0.99</text><text x="394.6" y="30.8" class="node" fill="#4A6FE3">1</text><text x="424.4" y="22.2" class="node" fill="#4A6FE3">1</text><text x="454.2" y="14.9" class="node" fill="#BCC2E3">0.64</text><text x="364.8" y="63.9" class="node" fill="#4A6FE3">1</text><text x="334.9" y="83.4" class="node" fill="#ABB4E2">0.7</text><text x="305.1" y="110.4" class="node" fill="#A8B1E2">0.71</text><text x="334.9" y="103" class="node" fill="#ABB4E2">0.7</text><text x="275.3" y="132.4" class="node" fill="#9AA6E2">0.76</text><text x="245.5" y="245.1" class="node" fill="#9AA6E2">0.76</text><text x="275.3" y="224.3" class="node" fill="#9AA6E2">0.76</text><text x="305.1" y="213.5" class="node" fill="#9AA6E2">0.76</text><text x="334.9" y="201.5" class="node" fill="#9AA6E2">0.76</text><text x="364.8" y="187.5" class="node" fill="#9AA6E2">0.76</text><text x="394.6" y="174" class="node" fill="#4A6FE3">1</text><text x="424.4" y="161.8" class="node" fill="#E6ABB6">0.32</text><text x="454.2" y="152" class="node" fill="#4A6FE3">1</text><text x="454.2" y="171.6" class="node" fill="#9AA6E2">0.76</text><text x="394.6" y="200.9" class="node" fill="#9AA6E2">0.76</text><text x="275.3" y="265.8" class="node" fill="#4A6FE3">1</text><text x="305.1" y="257.2" class="node" fill="#4A6FE3">1</text><text x="334.9" y="249.9" class="node" fill="#9AA6E2">0.76</text><text x="215.7" y="289.1" class="node" fill="#E28699">0.2</text><text x="126.2" y="419.5" class="node" fill="#E28699">0.2</text><text x="156.1" y="391.5" class="node" fill="#E28699">0.2</text><text x="185.9" y="381.3" class="node" fill="#DD6F88">0.13</text><text x="215.7" y="370.8" class="node" fill="#DB617F">0.09</text><text x="245.5" y="359.4" class="node" fill="#E28699">0.2</text><text x="275.3" y="346.6" class="node" fill="#E28699">0.2</text><text x="305.1" y="335.6" class="node" fill="#4A6FE3">1</text><text x="334.9" y="328.2" class="node" fill="#DD6C86">0.12</text><text x="305.1" y="357.6" class="node" fill="#E28699">0.2</text><text x="156.1" y="447.6" class="node" fill="#4A6FE3">1</text><text x="185.9" y="434.7" class="node" fill="#E28699">0.2</text><text x="215.7" y="423.7" class="node" fill="#E3DFE0">0.49</text><text x="245.5" y="416.4" class="node" fill="#4A6FE3">1</text><text x="215.7" y="445.7" class="node" fill="#4A6FE3">1</text><text x="96.4" y="637.2" class="node" fill="#DB617F">0.09</text><text x="126.2" y="608.5" class="node" fill="#E5CDD1">0.43</text><text x="156.1" y="573.5" class="node" fill="#9AA6E2">0.76</text><text x="185.9" y="554.4" class="node" fill="#E498A7">0.26</text><text x="215.7" y="530.9" class="node" fill="#9AA6E2">0.76</text><text x="245.5" y="509.7" class="node" fill="#E28699">0.2</text><text x="275.3" y="500.2" class="node" fill="#E28699">0.2</text><text x="305.1" y="491" class="node" fill="#E28699">0.2</text><text x="334.9" y="482.4" class="node" fill="#4A6FE3">1</text><text x="364.8" y="475.1" class="node" fill="#B4BBE3">0.67</text><text x="245.5" y="552.2" class="node" fill="#E28699">0.2</text><text x="275.3" y="541.2" class="node" fill="#E28699">0.2</text><text x="305.1" y="533.9" class="node" fill="#E3DFE0">0.49</text><text x="275.3" y="563.2" class="node" fill="#4A6FE3">1</text><text x="185.9" y="592.6" class="node" fill="#4A6FE3">1</text><text x="156.1" y="643.4" class="node" fill="#E5CDD1">0.43</text><text x="185.9" y="630.5" class="node" fill="#E4D6D8">0.46</text><text x="215.7" y="619.5" class="node" fill="#E3DFE0">0.49</text><text x="245.5" y="612.2" class="node" fill="#7D8FE1">0.86</text><text x="215.7" y="641.6" class="node" fill="#4A6FE3">1</text><text x="66.6" y="696.6" class="node" fill="#A8B1E2">0.71</text><text x="96.4" y="688.1" class="node" fill="#CACDE3">0.59</text><text x="126.2" y="680.7" class="node" fill="#E5CDD1">0.43</text></svg>
