<svg xmlns="http://www.w3.org/2000/svg" version="1.1" viewBox="0 0 682 720" preserveAspectRatio="xMidYMid meet" class="tree" data-char="302"><text x="678" y="17.7" text-anchor="end" class="stepsLabel">Character adds <tspan class="score">1</tspan> to tree score</text><text x="678" y="32.4" text-anchor="end" class="stepsLabel"><tspan class="score">0</tspan> additional regions</text><text x="678" y="47.1" text-anchor="end" class="stepsLabel"></text><text x="678" y="76.5" text-anchor="end" class="stepsLabel"><tspan dy="16" fill="#34caaf">An optimal tree under:</tspan><tspan x="680" style="font-style:italic" class="notThisAn" dy="1.2em">Implied weights, k = 3</tspan><tspan x="680" style="font-style:italic" class="notThisAn" dy="1.2em">IW, k = 4.5</tspan><tspan x="680" style="font-style:italic" class="notThisAn" dy="1.2em">IW, k = 7</tspan><tspan x="680" style="font-style:italic" class="notThisAn" dy="1.2em">IW, k = 10.5</tspan><tspan x="680" style="font-style:italic" class="notThisAn" dy="1.2em">IW, k = 16</tspan><tspan x="680" style="font-style:italic" class="thisAn" dy="1.2em">IW, k = 24</tspan><tspan x="680" style="font-style:italic" class="notThisAn" dy="1.2em">Equal weights</tspan></text><text x="180.7" y="640" fill="grey" class="flag">[?]</text><text x="202.7" y="640" fill="#999" class="taxonLabel">Orthrozanclus</text><text x="180.7" y="655" fill="grey" class="flag">[?]</text><text x="202.7" y="655" fill="#999" class="taxonLabel">Halkieria evangelista</text><text x="205.8" y="610" fill="grey" class="flag">[?]</text><text x="227.8" y="610" fill="#999" class="taxonLabel">Pedunculotheca diania</text><text x="205.8" y="625" fill="grey" class="flag">[?]</text><text x="227.8" y="625" fill="#999" class="taxonLabel">Haplophrentis carinatus</text><text x="281.2" y="550" fill="grey" class="flag">[?]</text><text x="303.2" y="550" fill="#999" class="taxonLabel">Mickwitzia muralensis</text><text x="281.2" y="565" fill="grey" class="flag">[?]</text><text x="303.2" y="565" fill="#999" class="taxonLabel">Heliomedusa orienta</text><text x="306.3" y="520" fill="grey" class="flag">[?]</text><text x="328.3" y="520" fill="#999" class="taxonLabel">Micromitra</text><text x="306.3" y="535" fill="grey" class="flag">[?]</text><text x="328.3" y="535" fill="#999" class="taxonLabel">Gasconsia</text><text x="331.4" y="490" fill="#fc8d59" class="flag">[0]</text><text x="353.4" y="490" fill="#000" class="taxonLabel">Terebratulina</text><text x="331.4" y="505" fill="grey" class="flag">[?]</text><text x="353.4" y="505" fill="#999" class="taxonLabel">Orthis</text><text x="356.5" y="445" fill="#fc8d59" class="flag">[0]</text><text x="378.5" y="445" fill="#000" class="taxonLabel">Pelagodiscus atlanticus</text><text x="356.5" y="460" fill="#fc8d59" class="flag">[0]</text><text x="378.5" y="460" fill="#000" class="taxonLabel">Lingula</text><text x="331.4" y="475" fill="#fc8d59" class="flag">[0]</text><text x="353.4" y="475" fill="#000" class="taxonLabel">Novocrania</text><text x="230.9" y="580" fill="grey" class="flag">[?]</text><text x="252.9" y="580" fill="#999" class="taxonLabel">Micrina</text><text x="205.8" y="595" fill="grey" class="flag">[?]</text><text x="227.8" y="595" fill="#999" class="taxonLabel">Paterimitra</text><text x="130.5" y="670" fill="grey" class="flag">[?]</text><text x="152.5" y="670" fill="#999" class="taxonLabel">Cotyledion tylodes</text><text x="105.4" y="685" fill="grey" class="flag">[?]</text><text x="127.4" y="685" fill="#999" class="taxonLabel">Eccentrotheca</text><text x="130.5" y="415" fill="#fc8d59" class="flag">[0]</text><text x="152.5" y="415" fill="#000" class="taxonLabel">Phoronis</text><text x="130.5" y="430" fill="grey" class="flag">[?]</text><text x="152.5" y="430" fill="#999" class="taxonLabel">Namacalathus</text><text x="256.1" y="325" fill="#91bfdb" class="flag">[1]</text><text x="278.1" y="325" fill="#000" class="taxonLabel">Serpula</text><text x="256.1" y="340" fill="#91bfdb" class="flag">[1]</text><text x="278.1" y="340" fill="#000" class="taxonLabel">Capitella</text><text x="230.9" y="355" fill="grey" class="flag">[?]</text><text x="252.9" y="355" fill="#999" class="taxonLabel">Canadia spinosa</text><text x="205.8" y="370" fill="#91bfdb" class="flag">[1]</text><text x="227.8" y="370" fill="#000" class="taxonLabel">Sipunculus</text><text x="331.4" y="235" fill="grey" class="flag">[?]</text><text x="353.4" y="235" fill="#999" class="taxonLabel">Siphogonuchites multa</text><text x="331.4" y="250" fill="grey" class="flag">[?]</text><text x="353.4" y="250" fill="#999" class="taxonLabel">Acaenoplax hayae</text><text x="456.9" y="145" fill="#fc8d59" class="flag">[0]</text><text x="478.9" y="145" fill="#000" class="taxonLabel">Tonicella</text><text x="456.9" y="160" fill="#fc8d59" class="flag">[0]</text><text x="478.9" y="160" fill="#000" class="taxonLabel">Mopalia</text><text x="431.8" y="175" fill="grey" class="flag">[?]</text><text x="453.8" y="175" fill="#999" class="taxonLabel">Polysacos vickersianum</text><text x="406.7" y="190" fill="#fc8d59" class="flag">[0]</text><text x="428.7" y="190" fill="#000" class="taxonLabel">Leptochiton</text><text x="381.6" y="205" fill="grey" class="flag">[?]</text><text x="403.6" y="205" fill="#999" class="taxonLabel">Glaphurochiton carbonarius</text><text x="356.5" y="220" fill="grey" class="flag">[?]</text><text x="378.5" y="220" fill="#999" class="taxonLabel">Calvapilosa kroegeri</text><text x="381.6" y="115" fill="grey" class="flag">[?]</text><text x="403.6" y="115" fill="#999" class="taxonLabel">Wiwaxia corrugata</text><text x="381.6" y="130" fill="grey" class="flag">[?]</text><text x="403.6" y="130" fill="#999" class="taxonLabel">Odontogriphus omalus</text><text x="431.8" y="70" fill="#fc8d59" class="flag">[0]</text><text x="453.8" y="70" fill="#000" class="taxonLabel">Neopilina</text><text x="431.8" y="85" fill="grey" class="flag">[?]</text><text x="453.8" y="85" fill="#999" class="taxonLabel">Conocardium elongatum</text><text x="482" y="10" fill="grey" class="flag">[?]</text><text x="504" y="10" fill="#999" class="taxonLabel">Pojetaia runnegari</text><text x="482" y="25" fill="#fc8d59" class="flag">[0]</text><text x="504" y="25" fill="#000" class="taxonLabel">Mytilus</text><text x="456.9" y="40" fill="#fc8d59" class="flag">[0]</text><text x="478.9" y="40" fill="#000" class="taxonLabel">Dentalium</text><text x="431.8" y="55" fill="#fc8d59" class="flag">[0]</text><text x="453.8" y="55" fill="#000" class="taxonLabel">Haliotis</text><text x="381.6" y="100" fill="grey" class="flag">[?]</text><text x="403.6" y="100" fill="#999" class="taxonLabel">Pelagiella</text><text x="281.2" y="265" fill="grey" class="flag">[?]</text><text x="303.2" y="265" fill="#999" class="taxonLabel">Phthipodochiton thraivensis</text><text x="256.1" y="280" fill="grey" class="flag">[?]</text><text x="278.1" y="280" fill="#999" class="taxonLabel">Kulindroplax perissokomos</text><text x="230.9" y="295" fill="#fc8d59" class="flag">[0]</text><text x="252.9" y="295" fill="#000" class="taxonLabel">Chaetoderma</text><text x="205.8" y="310" fill="#fc8d59" class="flag">[0]</text><text x="227.8" y="310" fill="#000" class="taxonLabel">Wirenia</text><text x="155.6" y="385" fill="#fc8d59" class="flag">[0]</text><text x="177.6" y="385" fill="#000" class="taxonLabel">Loxosomella</text><text x="130.5" y="400" fill="#fc8d59" class="flag">[0]</text><text x="152.5" y="400" fill="#000" class="taxonLabel">Flustra</text><text x="55.2" y="700" fill="grey" class="flag">[?]</text><text x="77.2" y="700" fill="#999" class="taxonLabel">Dailyatia</text><text x="30.1" y="715" fill="grey" class="flag">[?]</text><text x="52.1" y="715" fill="#999" class="taxonLabel">Yilingia spiciformis</text><path d="M5,662.7V613.4H30.1M30.1,613.4V529.7H55.2M55.2,529.7V397H80.3M80.3,397V374.4H105.4M105.4,374.4V351.9H130.5M130.5,351.9V321.8H155.6M155.6,321.8V289.7H180.7M180.7,289.7V272.4H205.8M205.8,272.4V252.7H230.9M230.9,252.7V228.5H256.1M256.1,228.5V194.9H281.2M281.2,194.9V150.3H306.3M306.3,150.3V98.2H331.4M331.4,98.2V76.8H356.5M356.5,76.8V56.7H381.6M381.6,56.7V38.9H406.7M406.7,38.9V25.8H431.8M431.8,25.8V14.5H456.9M456.9,14.5V7H482M456.9,14.5V22H482M431.8,25.8V37H456.9M406.7,38.9V52H431.8M381.6,56.7V74.5H406.7M406.7,74.5V67H431.8M406.7,74.5V82H431.8M356.5,76.8V97H381.6M331.4,98.2V119.5H356.5M356.5,119.5V112H381.6M356.5,119.5V127H381.6M306.3,150.3V202.5H331.4M331.4,202.5V187.9H356.5M356.5,187.9V173.9H381.6M381.6,173.9V160.8H406.7M406.7,160.8V149.5H431.8M431.8,149.5V142H456.9M431.8,149.5V157H456.9M406.7,160.8V172H431.8M381.6,173.9V187H406.7M356.5,187.9V202H381.6M331.4,202.5V217H356.5M281.2,194.9V239.5H306.3M306.3,239.5V232H331.4M306.3,239.5V247H331.4M256.1,228.5V262H281.2M230.9,252.7V277H256.1M205.8,272.4V292H230.9M180.7,289.7V307H205.8M130.5,351.9V382H155.6M105.4,374.4V397H130.5M80.3,397V419.5H105.4M105.4,419.5V412H130.5M105.4,419.5V427H130.5M55.2,529.7V662.5H80.3M80.3,662.5V643H105.4M105.4,643V618.9H130.5M130.5,618.9V593.3H155.6M155.6,593.3V572.2H180.7M180.7,572.2V552.4H205.8M205.8,552.4V527.8H230.9M230.9,527.8V501.1H256.1M256.1,501.1V477.6H281.2M281.2,477.6V460.8H306.3M306.3,460.8V449.5H331.4M331.4,449.5V442H356.5M331.4,449.5V457H356.5M306.3,460.8V472H331.4M281.2,477.6V494.5H306.3M306.3,494.5V487H331.4M306.3,494.5V502H331.4M256.1,501.1V524.5H281.2M281.2,524.5V517H306.3M281.2,524.5V532H306.3M230.9,527.8V554.5H256.1M256.1,554.5V547H281.2M256.1,554.5V562H281.2M205.8,552.4V577H230.9M180.7,572.2V592H205.8M155.6,593.3V614.5H180.7M180.7,614.5V607H205.8M180.7,614.5V622H205.8M130.5,618.9V644.5H155.6M155.6,644.5V637H180.7M155.6,644.5V652H180.7M105.4,643V667H130.5M80.3,662.5V682H105.4M30.1,613.4V697H55.2M5,662.7V712H30.1" stroke="#fc8d59"></path><path d="M155.6,321.8V353.9H180.7M180.7,353.9V340.8H205.8M205.8,340.8V329.5H230.9M230.9,329.5V322H256.1M230.9,329.5V337H256.1M205.8,340.8V352H230.9M180.7,353.9V367H205.8" stroke="#91bfdb"></path><text x="32.1" y="616.4" class="node" fill="#E38FA0">0.23</text><text x="57.2" y="532.7" class="node" fill="#E38FA0">0.23</text><text x="82.3" y="400" class="node" fill="#E38FA0">0.23</text><text x="107.4" y="377.4" class="node" fill="#E38FA0">0.23</text><text x="132.5" y="354.9" class="node" fill="#E38FA0">0.23</text><text x="157.6" y="324.8" class="node" fill="#4A6FE3">1</text><text x="182.7" y="292.7" class="node" fill="#E38FA0">0.23</text><text x="207.8" y="275.4" class="node" fill="#E38FA0">0.23</text><text x="232.9" y="255.7" class="node" fill="#E38FA0">0.23</text><text x="258.1" y="231.5" class="node" fill="#E38FA0">0.23</text><text x="283.2" y="197.9" class="node" fill="#DD6F88">0.13</text><text x="308.3" y="153.3" class="node" fill="#4A6FE3">1</text><text x="333.4" y="101.2" class="node" fill="#4A6FE3">1</text><text x="358.5" y="79.8" class="node" fill="#7388E1">0.89</text><text x="383.6" y="59.7" class="node" fill="#4A6FE3">1</text><text x="408.7" y="41.9" class="node" fill="#4A6FE3">1</text><text x="433.8" y="28.8" class="node" fill="#4A6FE3">1</text><text x="458.9" y="17.5" class="node" fill="#4A6FE3">1</text><text x="408.7" y="77.5" class="node" fill="#4A6FE3">1</text><text x="358.5" y="122.5" class="node" fill="#4A6FE3">1</text><text x="333.4" y="205.5" class="node" fill="#4A6FE3">1</text><text x="358.5" y="190.9" class="node" fill="#4A6FE3">1</text><text x="383.6" y="176.9" class="node" fill="#4A6FE3">1</text><text x="408.7" y="163.8" class="node" fill="#4A6FE3">1</text><text x="433.8" y="152.5" class="node" fill="#E5A5B1">0.3</text><text x="308.3" y="242.5" class="node" fill="#4A6FE3">1</text><text x="182.7" y="356.9" class="node" fill="#4A6FE3">1</text><text x="207.8" y="343.8" class="node" fill="#4A6FE3">1</text><text x="232.9" y="332.5" class="node" fill="#E5CDD1">0.43</text><text x="107.4" y="422.5" class="node" fill="#E07C92">0.17</text><text x="82.3" y="665.5" class="node" fill="#D64F73">0.04</text><text x="107.4" y="646" class="node" fill="#E38FA0">0.23</text><text x="132.5" y="621.9" class="node" fill="#E38FA0">0.23</text><text x="157.6" y="596.3" class="node" fill="#4A6FE3">1</text><text x="182.7" y="575.2" class="node" fill="#4A6FE3">1</text><text x="207.8" y="555.4" class="node" fill="#4A6FE3">1</text><text x="232.9" y="530.8" class="node" fill="#4A6FE3">1</text><text x="258.1" y="504.1" class="node" fill="#4A6FE3">1</text><text x="283.2" y="480.6" class="node" fill="#4A6FE3">1</text><text x="308.3" y="463.8" class="node" fill="#4A6FE3">1</text><text x="333.4" y="452.5" class="node" fill="#4A6FE3">1</text><text x="308.3" y="497.5" class="node" fill="#4A6FE3">1</text><text x="283.2" y="527.5" class="node" fill="#4A6FE3">1</text><text x="258.1" y="557.5" class="node" fill="#4A6FE3">1</text><text x="182.7" y="617.5" class="node" fill="#E38FA0">0.23</text><text x="157.6" y="647.5" class="node" fill="#E38FA0">0.23</text></svg>
