<svg xmlns="http://www.w3.org/2000/svg" version="1.1" viewBox="0 0 682 720" preserveAspectRatio="xMidYMid meet" class="tree" data-char="17"><text x="678" y="17.7" text-anchor="end" class="stepsLabel">Character adds <tspan class="score">5</tspan> to tree score (<tspan class="score fitch">4</tspan> with Fitch)</text><text x="678" y="32.4" text-anchor="end" class="stepsLabel"><tspan class="score">1</tspan> additional region (not counted by Fitch)</text><text x="678" y="47.1" text-anchor="end" class="stepsLabel"></text><text x="678" y="76.5" text-anchor="end" class="stepsLabel"><tspan dy="16" fill="#34caaf">An optimal tree under:</tspan><tspan x="680" style="font-style:italic" class="notThisAn" dy="1.2em">Implied weights, k = 3</tspan><tspan x="680" style="font-style:italic" class="notThisAn" dy="1.2em">IW, k = 4.5</tspan><tspan x="680" style="font-style:italic" class="notThisAn" dy="1.2em">IW, k = 7</tspan><tspan x="680" style="font-style:italic" class="notThisAn" dy="1.2em">IW, k = 10.5</tspan><tspan x="680" style="font-style:italic" class="notThisAn" dy="1.2em">IW, k = 16</tspan><tspan x="680" style="font-style:italic" class="thisAn" dy="1.2em">IW, k = 24</tspan><tspan x="680" style="font-style:italic" class="notThisAn" dy="1.2em">Equal weights</tspan></text><text x="164" y="640" fill="lightgrey" class="flag">[-]</text><text x="186" y="640" fill="#ccc" class="taxonLabel">Orthrozanclus</text><text x="164" y="655" fill="grey" class="flag">[?]</text><text x="186" y="655" fill="#999" class="taxonLabel">Halkieria evangelista</text><text x="186.7" y="610" fill="grey" class="flag">[?]</text><text x="208.7" y="610" fill="#999" class="taxonLabel">Pedunculotheca diania</text><text x="186.7" y="625" fill="lightgrey" class="flag">[-]</text><text x="208.7" y="625" fill="#ccc" class="taxonLabel">Haplophrentis carinatus</text><text x="254.9" y="550" fill="#fdae61" class="flag">[1]</text><text x="276.9" y="550" fill="#000" class="taxonLabel">Mickwitzia muralensis</text><text x="254.9" y="565" fill="#fdae61" class="flag">[1]</text><text x="276.9" y="565" fill="#000" class="taxonLabel">Heliomedusa orienta</text><text x="277.6" y="520" fill="#abd9e9" class="flag">[2]</text><text x="299.6" y="520" fill="#000" class="taxonLabel">Micromitra</text><text x="277.6" y="535" fill="grey" class="flag">[?]</text><text x="299.6" y="535" fill="#999" class="taxonLabel">Gasconsia</text><text x="300.3" y="490" fill="#abd9e9" class="flag">[2]</text><text x="322.3" y="490" fill="#000" class="taxonLabel">Terebratulina</text><text x="300.3" y="505" fill="grey" class="flag">[?]</text><text x="322.3" y="505" fill="#999" class="taxonLabel">Orthis</text><text x="323" y="445" fill="#abd9e9" class="flag">[2]</text><text x="345" y="445" fill="#000" class="taxonLabel">Pelagodiscus atlanticus</text><text x="323" y="460" fill="#abd9e9" class="flag">[2]</text><text x="345" y="460" fill="#000" class="taxonLabel">Lingula</text><text x="300.3" y="475" fill="lightgrey" class="flag">[-]</text><text x="322.3" y="475" fill="#ccc" class="taxonLabel">Novocrania</text><text x="209.4" y="580" fill="#fdae61" class="flag">[1]</text><text x="231.4" y="580" fill="#000" class="taxonLabel">Micrina</text><text x="186.7" y="595" fill="lightgrey" class="flag">[-]</text><text x="208.7" y="595" fill="#ccc" class="taxonLabel">Paterimitra</text><text x="118.6" y="670" fill="lightgrey" class="flag">[-]</text><text x="140.6" y="670" fill="#ccc" class="taxonLabel">Cotyledion tylodes</text><text x="95.9" y="685" fill="grey" class="flag">[?]</text><text x="117.9" y="685" fill="#999" class="taxonLabel">Eccentrotheca</text><text x="254.9" y="325" fill="#2c7bb6" class="flag">[3]</text><text x="276.9" y="325" fill="#000" class="taxonLabel">Serpula</text><text x="254.9" y="340" fill="#2c7bb6" class="flag">[3]</text><text x="276.9" y="340" fill="#000" class="taxonLabel">Capitella</text><text x="232.1" y="355" fill="#2c7bb6" class="flag">[3]</text><text x="254.1" y="355" fill="#000" class="taxonLabel">Canadia spinosa</text><text x="209.4" y="370" fill="lightgrey" class="flag">[-]</text><text x="231.4" y="370" fill="#ccc" class="taxonLabel">Sipunculus</text><text x="459.3" y="145" fill="#fdae61" class="flag">[1]</text><text x="481.3" y="145" fill="#000" class="taxonLabel">Tonicella</text><text x="459.3" y="160" fill="#fdae61" class="flag">[1]</text><text x="481.3" y="160" fill="#000" class="taxonLabel">Mopalia</text><text x="436.6" y="175" fill="grey" class="flag">[?]</text><text x="458.6" y="175" fill="#999" class="taxonLabel">Polysacos vickersianum</text><text x="413.9" y="190" fill="#fdae61" class="flag">[1]</text><text x="435.9" y="190" fill="#000" class="taxonLabel">Leptochiton</text><text x="391.1" y="205" fill="#fdae61" class="flag">[1]</text><text x="413.1" y="205" fill="#000" class="taxonLabel">Glaphurochiton carbonarius</text><text x="368.4" y="220" fill="#fdae61" class="flag">[1]</text><text x="390.4" y="220" fill="#000" class="taxonLabel">Calvapilosa kroegeri</text><text x="391.1" y="115" fill="#2c7bb6" class="flag">[3]</text><text x="413.1" y="115" fill="#000" class="taxonLabel">Wiwaxia corrugata</text><text x="391.1" y="130" fill="grey" class="flag">[?]</text><text x="413.1" y="130" fill="#999" class="taxonLabel">Odontogriphus omalus</text><text x="413.9" y="85" fill="lightgrey" class="flag">[-]</text><text x="435.9" y="85" fill="#ccc" class="taxonLabel">Neopilina</text><text x="413.9" y="100" fill="grey" class="flag">[?]</text><text x="435.9" y="100" fill="#999" class="taxonLabel">Conocardium elongatum</text><text x="482" y="10" fill="lightgrey" class="flag">[-]</text><text x="504" y="10" fill="#ccc" class="taxonLabel">Pojetaia runnegari</text><text x="482" y="25" fill="lightgrey" class="flag">[-]</text><text x="504" y="25" fill="#ccc" class="taxonLabel">Mytilus</text><text x="459.3" y="40" fill="lightgrey" class="flag">[-]</text><text x="481.3" y="40" fill="#ccc" class="taxonLabel">Dentalium</text><text x="436.6" y="55" fill="lightgrey" class="flag">[-]</text><text x="458.6" y="55" fill="#ccc" class="taxonLabel">Haliotis</text><text x="413.9" y="70" fill="#2c7bb6" class="flag">[3]</text><text x="435.9" y="70" fill="#000" class="taxonLabel">Pelagiella</text><text x="323" y="235" fill="#fdae61" class="flag">[1]</text><text x="345" y="235" fill="#000" class="taxonLabel">Siphogonuchites multa</text><text x="300.3" y="250" fill="#2c7bb6" class="flag">[3]</text><text x="322.3" y="250" fill="#000" class="taxonLabel">Acaenoplax hayae</text><text x="277.6" y="265" fill="#fdae61" class="flag">[1]</text><text x="299.6" y="265" fill="#000" class="taxonLabel">Phthipodochiton thraivensis</text><text x="254.9" y="280" fill="#fdae61" class="flag">[1]</text><text x="276.9" y="280" fill="#000" class="taxonLabel">Kulindroplax perissokomos</text><text x="232.1" y="295" fill="#fdae61" class="flag">[1]</text><text x="254.1" y="295" fill="#000" class="taxonLabel">Chaetoderma</text><text x="209.4" y="310" fill="#fdae61" class="flag">[1]</text><text x="231.4" y="310" fill="#000" class="taxonLabel">Wirenia</text><text x="164" y="385" fill="lightgrey" class="flag">[-]</text><text x="186" y="385" fill="#ccc" class="taxonLabel">Loxosomella</text><text x="141.3" y="400" fill="lightgrey" class="flag">[-]</text><text x="163.3" y="400" fill="#ccc" class="taxonLabel">Flustra</text><text x="118.6" y="415" fill="lightgrey" class="flag">[-]</text><text x="140.6" y="415" fill="#ccc" class="taxonLabel">Namacalathus</text><text x="95.9" y="430" fill="lightgrey" class="flag">[-]</text><text x="117.9" y="430" fill="#ccc" class="taxonLabel">Phoronis</text><text x="50.4" y="700" fill="grey" class="flag">[?]</text><text x="72.4" y="700" fill="#999" class="taxonLabel">Dailyatia</text><text x="27.7" y="715" fill="grey" class="flag">[?]</text><text x="49.7" y="715" fill="#999" class="taxonLabel">Yilingia spiciformis</text><path d="M5,664.3V616.7H27.7M27.7,616.7V536.3H50.4M50.4,536.3V410.2H73.1M73.1,410.2V393.3H95.9M95.9,393.3V374.6H118.6M118.6,374.6V352.3H141.3M391.1,52.9V38.9H413.9M413.9,38.9V25.8H436.6M436.6,25.8V14.5H459.3M459.3,14.5V7H482M459.3,14.5V22H482M436.6,25.8V37H459.3M413.9,38.9V52H436.6M368.4,71.2V89.5H391.1M391.1,89.5V82H413.9M391.1,89.5V97H413.9M186.7,353.9V367H209.4M141.3,352.3V382H164M118.6,374.6V397H141.3M95.9,393.3V412H118.6M73.1,410.2V427H95.9M50.4,536.3V662.5H73.1M73.1,662.5V643H95.9M95.9,643V618.9H118.6M118.6,618.9V593.3H141.3M141.3,593.3V572.2H164M277.6,460.8V472H300.3M164,572.2V592H186.7M141.3,593.3V614.5H164M164,614.5V607H186.7M164,614.5V622H186.7M118.6,618.9V644.5H141.3M141.3,644.5V637H164M141.3,644.5V652H164M95.9,643V667H118.6M73.1,662.5V682H95.9M27.7,616.7V697H50.4M5,664.3V712H27.7" stroke="lightgrey" class="inapplicable"></path><path d="M141.3,352.3V322.5H164M164,322.5V353.9H186.7" stroke="darkgrey"></path><path d="M164,322.5V291.2H186.7M186.7,291.2V275.3H209.4M209.4,275.3V258.7H232.1M232.1,258.7V240.4H254.9M254.9,240.4V218.7H277.6M277.6,218.7V190.5H300.3M300.3,190.5V148.9H323M323,148.9V202.5H345.7M345.7,202.5V187.9H368.4M368.4,187.9V173.9H391.1M391.1,173.9V160.8H413.9M413.9,160.8V149.5H436.6M436.6,149.5V142H459.3M436.6,149.5V157H459.3M413.9,160.8V172H436.6M391.1,173.9V187H413.9M368.4,187.9V202H391.1M345.7,202.5V217H368.4M300.3,190.5V232H323M254.9,240.4V262H277.6M232.1,258.7V277H254.9M209.4,275.3V292H232.1M186.7,291.2V307H209.4M164,572.2V552.4H186.7M186.7,552.4V527.8H209.4M209.4,527.8V554.5H232.1M232.1,554.5V547H254.9M232.1,554.5V562H254.9M186.7,552.4V577H209.4" stroke="#fdae61"></path><path d="M323,148.9V95.4H345.7M345.7,95.4V71.2H368.4M368.4,71.2V52.9H391.1M391.1,52.9V67H413.9M345.7,95.4V119.5H368.4M368.4,119.5V112H391.1M368.4,119.5V127H391.1M277.6,218.7V247H300.3M186.7,353.9V340.8H209.4M209.4,340.8V329.5H232.1M232.1,329.5V322H254.9M232.1,329.5V337H254.9M209.4,340.8V352H232.1" stroke="#2c7bb6"></path><path d="M209.4,527.8V501.1H232.1M232.1,501.1V477.6H254.9M254.9,477.6V460.8H277.6M277.6,460.8V449.5H300.3M300.3,449.5V442H323M300.3,449.5V457H323M254.9,477.6V494.5H277.6M277.6,494.5V487H300.3M277.6,494.5V502H300.3M232.1,501.1V524.5H254.9M254.9,524.5V517H277.6M254.9,524.5V532H277.6" stroke="#abd9e9"></path><text x="29.7" y="619.7" class="node" fill="#E38FA0">0.23</text><text x="52.4" y="539.3" class="node" fill="#E38FA0">0.23</text><text x="75.1" y="413.2" class="node" fill="#D85778">0.06</text><text x="97.9" y="396.3" class="node" fill="#E38FA0">0.23</text><text x="120.6" y="377.6" class="node" fill="#E38FA0">0.23</text><text x="143.3" y="355.3" class="node" fill="#E38FA0">0.23</text><text x="166" y="325.5" class="node" fill="#4A6FE3">1</text><text x="188.7" y="294.2" class="node" fill="#E38FA0">0.23</text><text x="211.4" y="278.3" class="node" fill="#E38FA0">0.23</text><text x="234.1" y="261.7" class="node" fill="#E38FA0">0.23</text><text x="256.9" y="243.4" class="node" fill="#E38FA0">0.23</text><text x="279.6" y="221.7" class="node" fill="#E18297">0.19</text><text x="302.3" y="193.5" class="node" fill="#DD6F88">0.13</text><text x="325" y="151.9" class="node" fill="#4A6FE3">1</text><text x="347.7" y="98.4" class="node" fill="#4A6FE3">1</text><text x="370.4" y="74.2" class="node" fill="#DC6884">0.11</text><text x="393.1" y="55.9" class="node" fill="#4A6FE3">1</text><text x="415.9" y="41.9" class="node" fill="#4A6FE3">1</text><text x="438.6" y="28.8" class="node" fill="#4A6FE3">1</text><text x="461.3" y="17.5" class="node" fill="#4A6FE3">1</text><text x="393.1" y="92.5" class="node" fill="#4A6FE3">1</text><text x="370.4" y="122.5" class="node" fill="#4A6FE3">1</text><text x="347.7" y="205.5" class="node" fill="#4A6FE3">1</text><text x="370.4" y="190.9" class="node" fill="#4A6FE3">1</text><text x="393.1" y="176.9" class="node" fill="#4A6FE3">1</text><text x="415.9" y="163.8" class="node" fill="#4A6FE3">1</text><text x="438.6" y="152.5" class="node" fill="#4A6FE3">1</text><text x="188.7" y="356.9" class="node" fill="#4A6FE3">1</text><text x="211.4" y="343.8" class="node" fill="#4A6FE3">1</text><text x="234.1" y="332.5" class="node" fill="#E07C92">0.17</text><text x="75.1" y="665.5" class="node" fill="#D64F73">0.04</text><text x="97.9" y="646" class="node" fill="#E38FA0">0.23</text><text x="120.6" y="621.9" class="node" fill="#E38FA0">0.23</text><text x="143.3" y="596.3" class="node" fill="#4A6FE3">1</text><text x="166" y="575.2" class="node" fill="#4A6FE3">1</text><text x="188.7" y="555.4" class="node" fill="#4A6FE3">1</text><text x="211.4" y="530.8" class="node" fill="#4A6FE3">1</text><text x="234.1" y="504.1" class="node" fill="#4A6FE3">1</text><text x="256.9" y="480.6" class="node" fill="#4A6FE3">1</text><text x="279.6" y="463.8" class="node" fill="#4A6FE3">1</text><text x="302.3" y="452.5" class="node" fill="#4A6FE3">1</text><text x="279.6" y="497.5" class="node" fill="#4A6FE3">1</text><text x="256.9" y="527.5" class="node" fill="#4A6FE3">1</text><text x="234.1" y="557.5" class="node" fill="#4A6FE3">1</text><text x="166" y="617.5" class="node" fill="#E38FA0">0.23</text><text x="143.3" y="647.5" class="node" fill="#E38FA0">0.23</text></svg>
