<svg xmlns="http://www.w3.org/2000/svg" version="1.1" viewBox="0 0 682 720" preserveAspectRatio="xMidYMid meet" class="tree" data-char="263"><text x="678" y="17.7" text-anchor="end" class="stepsLabel">Character adds <tspan class="score">2</tspan> to tree score</text><text x="678" y="32.4" text-anchor="end" class="stepsLabel"><tspan class="score">0</tspan> additional regions</text><text x="678" y="47.1" text-anchor="end" class="stepsLabel"></text><text x="678" y="76.5" text-anchor="end" class="stepsLabel"><tspan dy="16" fill="#34caaf">An optimal tree under:</tspan><tspan x="680" style="font-style:italic" class="notThisAn" dy="1.2em">Implied weights, k = 3</tspan><tspan x="680" style="font-style:italic" class="notThisAn" dy="1.2em">IW, k = 4.5</tspan><tspan x="680" style="font-style:italic" class="notThisAn" dy="1.2em">IW, k = 7</tspan><tspan x="680" style="font-style:italic" class="notThisAn" dy="1.2em">IW, k = 10.5</tspan><tspan x="680" style="font-style:italic" class="notThisAn" dy="1.2em">IW, k = 16</tspan><tspan x="680" style="font-style:italic" class="thisAn" dy="1.2em">IW, k = 24</tspan><tspan x="680" style="font-style:italic" class="notThisAn" dy="1.2em">Equal weights</tspan></text><text x="135.1" y="655" fill="grey" class="flag">[?]</text><text x="157.1" y="655" fill="#999" class="taxonLabel">Orthrozanclus</text><text x="135.1" y="670" fill="grey" class="flag">[?]</text><text x="157.1" y="670" fill="#999" class="taxonLabel">Halkieria evangelista</text><text x="156.8" y="625" fill="grey" class="flag">[?]</text><text x="178.8" y="625" fill="#999" class="taxonLabel">Pedunculotheca diania</text><text x="156.8" y="640" fill="grey" class="flag">[?]</text><text x="178.8" y="640" fill="#999" class="taxonLabel">Haplophrentis carinatus</text><text x="221.8" y="565" fill="grey" class="flag">[?]</text><text x="243.8" y="565" fill="#999" class="taxonLabel">Mickwitzia muralensis</text><text x="221.8" y="580" fill="grey" class="flag">[?]</text><text x="243.8" y="580" fill="#999" class="taxonLabel">Heliomedusa orienta</text><text x="243.5" y="535" fill="grey" class="flag">[?]</text><text x="265.5" y="535" fill="#999" class="taxonLabel">Micromitra</text><text x="243.5" y="550" fill="grey" class="flag">[?]</text><text x="265.5" y="550" fill="#999" class="taxonLabel">Gasconsia</text><text x="265.2" y="505" fill="#91bfdb" class="flag">[1]</text><text x="287.2" y="505" fill="#000" class="taxonLabel">Terebratulina</text><text x="265.2" y="520" fill="grey" class="flag">[?]</text><text x="287.2" y="520" fill="#999" class="taxonLabel">Orthis</text><text x="286.9" y="460" fill="grey" class="flag">[?]</text><text x="308.9" y="460" fill="#999" class="taxonLabel">Pelagodiscus atlanticus</text><text x="286.9" y="475" fill="#91bfdb" class="flag">[1]</text><text x="308.9" y="475" fill="#000" class="taxonLabel">Lingula</text><text x="265.2" y="490" fill="#91bfdb" class="flag">[1]</text><text x="287.2" y="490" fill="#000" class="taxonLabel">Novocrania</text><text x="178.5" y="595" fill="grey" class="flag">[?]</text><text x="200.5" y="595" fill="#999" class="taxonLabel">Micrina</text><text x="156.8" y="610" fill="grey" class="flag">[?]</text><text x="178.8" y="610" fill="#999" class="taxonLabel">Paterimitra</text><text x="91.7" y="685" fill="grey" class="flag">[?]</text><text x="113.7" y="685" fill="#999" class="taxonLabel">Eccentrotheca</text><text x="265.2" y="325" fill="#91bfdb" class="flag">[1]</text><text x="287.2" y="325" fill="#000" class="taxonLabel">Serpula</text><text x="265.2" y="340" fill="grey" class="flag">[?]</text><text x="287.2" y="340" fill="#999" class="taxonLabel">Capitella</text><text x="243.5" y="355" fill="grey" class="flag">[?]</text><text x="265.5" y="355" fill="#999" class="taxonLabel">Canadia spinosa</text><text x="221.8" y="370" fill="#fc8d59" class="flag">[0]</text><text x="243.8" y="370" fill="#000" class="taxonLabel">Sipunculus</text><text x="438.6" y="160" fill="#fc8d59" class="flag">[0]</text><text x="460.6" y="160" fill="#000" class="taxonLabel">Tonicella</text><text x="438.6" y="175" fill="#fc8d59" class="flag">[0]</text><text x="460.6" y="175" fill="#000" class="taxonLabel">Mopalia</text><text x="417" y="190" fill="grey" class="flag">[?]</text><text x="439" y="190" fill="#999" class="taxonLabel">Polysacos vickersianum</text><text x="395.3" y="205" fill="#fc8d59" class="flag">[0]</text><text x="417.3" y="205" fill="#000" class="taxonLabel">Leptochiton</text><text x="373.6" y="220" fill="grey" class="flag">[?]</text><text x="395.6" y="220" fill="#999" class="taxonLabel">Glaphurochiton carbonarius</text><text x="351.9" y="235" fill="grey" class="flag">[?]</text><text x="373.9" y="235" fill="#999" class="taxonLabel">Calvapilosa kroegeri</text><text x="395.3" y="115" fill="grey" class="flag">[?]</text><text x="417.3" y="115" fill="#999" class="taxonLabel">Wiwaxia corrugata</text><text x="395.3" y="130" fill="grey" class="flag">[?]</text><text x="417.3" y="130" fill="#999" class="taxonLabel">Odontogriphus omalus</text><text x="438.6" y="70" fill="grey" class="flag">[?]</text><text x="460.6" y="70" fill="#999" class="taxonLabel">Neopilina</text><text x="438.6" y="85" fill="grey" class="flag">[?]</text><text x="460.6" y="85" fill="#999" class="taxonLabel">Conocardium elongatum</text><text x="482" y="10" fill="grey" class="flag">[?]</text><text x="504" y="10" fill="#999" class="taxonLabel">Pojetaia runnegari</text><text x="482" y="25" fill="#fc8d59" class="flag">[0]</text><text x="504" y="25" fill="#000" class="taxonLabel">Mytilus</text><text x="460.3" y="40" fill="#fc8d59" class="flag">[0]</text><text x="482.3" y="40" fill="#000" class="taxonLabel">Dentalium</text><text x="438.6" y="55" fill="#fc8d59" class="flag">[0]</text><text x="460.6" y="55" fill="#000" class="taxonLabel">Haliotis</text><text x="395.3" y="100" fill="grey" class="flag">[?]</text><text x="417.3" y="100" fill="#999" class="taxonLabel">Pelagiella</text><text x="351.9" y="145" fill="grey" class="flag">[?]</text><text x="373.9" y="145" fill="#999" class="taxonLabel">Siphogonuchites multa</text><text x="308.5" y="250" fill="grey" class="flag">[?]</text><text x="330.5" y="250" fill="#999" class="taxonLabel">Acaenoplax hayae</text><text x="286.9" y="265" fill="grey" class="flag">[?]</text><text x="308.9" y="265" fill="#999" class="taxonLabel">Phthipodochiton thraivensis</text><text x="265.2" y="280" fill="grey" class="flag">[?]</text><text x="287.2" y="280" fill="#999" class="taxonLabel">Kulindroplax perissokomos</text><text x="243.5" y="295" fill="#fc8d59" class="flag">[0]</text><text x="265.5" y="295" fill="#000" class="taxonLabel">Chaetoderma</text><text x="221.8" y="310" fill="#fc8d59" class="flag">[0]</text><text x="243.8" y="310" fill="#000" class="taxonLabel">Wirenia</text><text x="178.5" y="385" fill="#fc8d59" class="flag">[0]</text><text x="200.5" y="385" fill="#000" class="taxonLabel">Loxosomella</text><text x="156.8" y="400" fill="#fc8d59" class="flag">[0]</text><text x="178.8" y="400" fill="#000" class="taxonLabel">Flustra</text><text x="135.1" y="415" fill="grey" class="flag">[?]</text><text x="157.1" y="415" fill="#999" class="taxonLabel">Namacalathus</text><text x="113.4" y="430" fill="#91bfdb" class="flag">[1]</text><text x="135.4" y="430" fill="#000" class="taxonLabel">Phoronis</text><text x="91.7" y="445" fill="grey" class="flag">[?]</text><text x="113.7" y="445" fill="#999" class="taxonLabel">Cotyledion tylodes</text><text x="48.4" y="700" fill="grey" class="flag">[?]</text><text x="70.4" y="700" fill="#999" class="taxonLabel">Dailyatia</text><text x="26.7" y="715" fill="grey" class="flag">[?]</text><text x="48.7" y="715" fill="#999" class="taxonLabel">Yilingia spiciformis</text><path d="M5,665.8V619.5H26.7M26.7,619.5V542H48.4M48.4,542V426.1H70M70,426.1V410.1H91.7M91.7,410.1V393.3H113.4M243.5,329.5V322H265.2M91.7,410.1V427H113.4M70,426.1V442H91.7M48.4,542V658H70M70,658V633.9H91.7M91.7,633.9V608.3H113.4M113.4,608.3V587.2H135.1M135.1,587.2V567.4H156.8M156.8,567.4V542.8H178.5M178.5,542.8V516.1H200.1M200.1,516.1V492.6H221.8M221.8,492.6V475.8H243.5M243.5,475.8V464.5H265.2M265.2,464.5V457H286.9M265.2,464.5V472H286.9M243.5,475.8V487H265.2M221.8,492.6V509.5H243.5M243.5,509.5V502H265.2M243.5,509.5V517H265.2M200.1,516.1V539.5H221.8M221.8,539.5V532H243.5M221.8,539.5V547H243.5M178.5,542.8V569.5H200.1M200.1,569.5V562H221.8M200.1,569.5V577H221.8M156.8,567.4V592H178.5M135.1,587.2V607H156.8M113.4,608.3V629.5H135.1M135.1,629.5V622H156.8M135.1,629.5V637H156.8M91.7,633.9V659.5H113.4M113.4,659.5V652H135.1M113.4,659.5V667H135.1M70,658V682H91.7M26.7,619.5V697H48.4M5,665.8V712H26.7" stroke="#91bfdb"></path><path d="M113.4,393.3V374.5H135.1M135.1,374.5V352.1H156.8M156.8,352.1V322.2H178.5M178.5,322.2V290.5H200.1M200.1,290.5V274H221.8M221.8,274V256H243.5M243.5,256V234.9H265.2M265.2,234.9V207.9H286.9M286.9,207.9V168.8H308.5M308.5,168.8V120.1H330.2M330.2,120.1V98.2H351.9M351.9,98.2V76.8H373.6M373.6,76.8V56.7H395.3M395.3,56.7V38.9H417M417,38.9V25.8H438.6M438.6,25.8V14.5H460.3M460.3,14.5V7H482M460.3,14.5V22H482M438.6,25.8V37H460.3M417,38.9V52H438.6M395.3,56.7V74.5H417M417,74.5V67H438.6M417,74.5V82H438.6M373.6,76.8V97H395.3M351.9,98.2V119.5H373.6M373.6,119.5V112H395.3M373.6,119.5V127H395.3M330.2,120.1V142H351.9M308.5,168.8V217.5H330.2M330.2,217.5V202.9H351.9M351.9,202.9V188.9H373.6M373.6,188.9V175.8H395.3M395.3,175.8V164.5H417M417,164.5V157H438.6M417,164.5V172H438.6M395.3,175.8V187H417M373.6,188.9V202H395.3M351.9,202.9V217H373.6M330.2,217.5V232H351.9M286.9,207.9V247H308.5M265.2,234.9V262H286.9M243.5,256V277H265.2M221.8,274V292H243.5M200.1,290.5V307H221.8M178.5,322.2V353.9H200.1M200.1,353.9V340.8H221.8M200.1,353.9V367H221.8M156.8,352.1V382H178.5M135.1,374.5V397H156.8" stroke="#fc8d59"></path><path d="M221.8,340.8V329.5H243.5M243.5,329.5V337H265.2M221.8,340.8V352H243.5M113.4,393.3V412H135.1" stroke="darkgrey"></path><text x="28.7" y="622.5" class="node" fill="#E38FA0">0.23</text><text x="50.4" y="545" class="node" fill="#D64F73">0.04</text><text x="72" y="429.1" class="node" fill="#E38FA0">0.23</text><text x="93.7" y="413.1" class="node" fill="#D85778">0.06</text><text x="115.4" y="396.3" class="node" fill="#E38FA0">0.23</text><text x="137.1" y="377.5" class="node" fill="#E38FA0">0.23</text><text x="158.8" y="355.1" class="node" fill="#E38FA0">0.23</text><text x="180.5" y="325.2" class="node" fill="#4A6FE3">1</text><text x="202.1" y="293.5" class="node" fill="#E38FA0">0.23</text><text x="223.8" y="277" class="node" fill="#E38FA0">0.23</text><text x="245.5" y="259" class="node" fill="#E38FA0">0.23</text><text x="267.2" y="237.9" class="node" fill="#E38FA0">0.23</text><text x="288.9" y="210.9" class="node" fill="#E18297">0.19</text><text x="310.5" y="171.8" class="node" fill="#D85778">0.06</text><text x="332.2" y="123.1" class="node" fill="#4A6FE3">1</text><text x="353.9" y="101.2" class="node" fill="#4A6FE3">1</text><text x="375.6" y="79.8" class="node" fill="#7388E1">0.89</text><text x="397.3" y="59.7" class="node" fill="#4A6FE3">1</text><text x="419" y="41.9" class="node" fill="#4A6FE3">1</text><text x="440.6" y="28.8" class="node" fill="#4A6FE3">1</text><text x="462.3" y="17.5" class="node" fill="#4A6FE3">1</text><text x="419" y="77.5" class="node" fill="#4A6FE3">1</text><text x="375.6" y="122.5" class="node" fill="#4A6FE3">1</text><text x="332.2" y="220.5" class="node" fill="#4A6FE3">1</text><text x="353.9" y="205.9" class="node" fill="#4A6FE3">1</text><text x="375.6" y="191.9" class="node" fill="#4A6FE3">1</text><text x="397.3" y="178.8" class="node" fill="#4A6FE3">1</text><text x="419" y="167.5" class="node" fill="#4A6FE3">1</text><text x="202.1" y="356.9" class="node" fill="#4A6FE3">1</text><text x="223.8" y="343.8" class="node" fill="#4A6FE3">1</text><text x="245.5" y="332.5" class="node" fill="#E18297">0.19</text><text x="72" y="661" class="node" fill="#E38FA0">0.23</text><text x="93.7" y="636.9" class="node" fill="#E38FA0">0.23</text><text x="115.4" y="611.3" class="node" fill="#4A6FE3">1</text><text x="137.1" y="590.2" class="node" fill="#4A6FE3">1</text><text x="158.8" y="570.4" class="node" fill="#4A6FE3">1</text><text x="180.5" y="545.8" class="node" fill="#4A6FE3">1</text><text x="202.1" y="519.1" class="node" fill="#4A6FE3">1</text><text x="223.8" y="495.6" class="node" fill="#4A6FE3">1</text><text x="245.5" y="478.8" class="node" fill="#4A6FE3">1</text><text x="267.2" y="467.5" class="node" fill="#4A6FE3">1</text><text x="245.5" y="512.5" class="node" fill="#4A6FE3">1</text><text x="223.8" y="542.5" class="node" fill="#4A6FE3">1</text><text x="202.1" y="572.5" class="node" fill="#4A6FE3">1</text><text x="137.1" y="632.5" class="node" fill="#E38FA0">0.23</text><text x="115.4" y="662.5" class="node" fill="#E38FA0">0.23</text></svg>
