<svg xmlns="http://www.w3.org/2000/svg" version="1.1" viewBox="0 0 682 720" preserveAspectRatio="xMidYMid meet" class="tree" data-char="187"><text x="678" y="12.7" text-anchor="end" class="stepsLabel">Character adds <tspan class="score">1</tspan> to tree score</text><text x="678" y="22.4" text-anchor="end" class="stepsLabel"><tspan class="score">0</tspan> additional regions</text><text x="678" y="32.1" text-anchor="end" class="stepsLabel"></text><text x="678" y="51.5" text-anchor="end" class="stepsLabel"><tspan dy="16" fill="#34caaf">An optimal tree under:</tspan><tspan x="680" style="font-style:italic" class="notThisAn" dy="1.2em">Implied weights, k = 4.5</tspan><tspan x="680" style="font-style:italic" class="notThisAn" dy="1.2em">IW, k = 10.5</tspan><tspan x="680" style="font-style:italic" class="notThisAn" dy="1.2em">IW, k = 24</tspan><tspan x="680" style="font-style:italic" class="thisAn" dy="1.2em">Equal weights</tspan></text><text x="286.9" y="617.1" fill="lightgrey" class="flag">[-]</text><text x="308.9" y="617.1" fill="#ccc" class="taxonLabel">Capitella</text><text x="286.9" y="626.9" fill="lightgrey" class="flag">[-]</text><text x="308.9" y="626.9" fill="#ccc" class="taxonLabel">Canadia spinosa</text><text x="265.2" y="636.7" fill="lightgrey" class="flag">[-]</text><text x="287.2" y="636.7" fill="#ccc" class="taxonLabel">Serpula</text><text x="243.5" y="646.5" fill="lightgrey" class="flag">[-]</text><text x="265.5" y="646.5" fill="#ccc" class="taxonLabel">Sipunculus</text><text x="330.2" y="577.9" fill="lightgrey" class="flag">[-]</text><text x="352.2" y="577.9" fill="#ccc" class="taxonLabel">Pojetaia runnegari</text><text x="330.2" y="587.7" fill="lightgrey" class="flag">[-]</text><text x="352.2" y="587.7" fill="#ccc" class="taxonLabel">Mytilus</text><text x="351.9" y="548.5" fill="lightgrey" class="flag">[-]</text><text x="373.9" y="548.5" fill="#ccc" class="taxonLabel">Neopilina</text><text x="351.9" y="558.3" fill="lightgrey" class="flag">[-]</text><text x="373.9" y="558.3" fill="#ccc" class="taxonLabel">Haliotis</text><text x="330.2" y="568.1" fill="lightgrey" class="flag">[-]</text><text x="352.2" y="568.1" fill="#ccc" class="taxonLabel">Conocardium elongatum</text><text x="286.9" y="597.5" fill="lightgrey" class="flag">[-]</text><text x="308.9" y="597.5" fill="#ccc" class="taxonLabel">Dentalium</text><text x="265.2" y="607.3" fill="lightgrey" class="flag">[-]</text><text x="287.2" y="607.3" fill="#ccc" class="taxonLabel">Pelagiella</text><text x="286.9" y="529" fill="lightgrey" class="flag">[-]</text><text x="308.9" y="529" fill="#ccc" class="taxonLabel">Wiwaxia corrugata</text><text x="286.9" y="538.8" fill="lightgrey" class="flag">[-]</text><text x="308.9" y="538.8" fill="#ccc" class="taxonLabel">Odontogriphus omalus</text><text x="351.9" y="499.6" fill="lightgrey" class="flag">[-]</text><text x="373.9" y="499.6" fill="#ccc" class="taxonLabel">Wirenia</text><text x="351.9" y="509.4" fill="lightgrey" class="flag">[-]</text><text x="373.9" y="509.4" fill="#ccc" class="taxonLabel">Chaetoderma</text><text x="373.6" y="470.2" fill="lightgrey" class="flag">[-]</text><text x="395.6" y="470.2" fill="#ccc" class="taxonLabel">Phthipodochiton thraivensis</text><text x="373.6" y="480" fill="lightgrey" class="flag">[-]</text><text x="395.6" y="480" fill="#ccc" class="taxonLabel">Kulindroplax perissokomos</text><text x="351.9" y="489.8" fill="lightgrey" class="flag">[-]</text><text x="373.9" y="489.8" fill="#ccc" class="taxonLabel">Acaenoplax hayae</text><text x="417" y="411.5" fill="#e2e2a2" class="flag">[1]</text><text x="439" y="411.5" fill="#000" class="taxonLabel">Tonicella</text><text x="417" y="421.2" fill="#e2e2a2" class="flag">[1]</text><text x="439" y="421.2" fill="#000" class="taxonLabel">Mopalia</text><text x="395.3" y="431" fill="#91bfdb" class="flag">[2]</text><text x="417.3" y="431" fill="#000" class="taxonLabel">Leptochiton</text><text x="373.6" y="440.8" fill="grey" class="flag">[?]</text><text x="395.6" y="440.8" fill="#999" class="taxonLabel">Glaphurochiton carbonarius</text><text x="351.9" y="450.6" fill="grey" class="flag">[?]</text><text x="373.9" y="450.6" fill="#999" class="taxonLabel">Calvapilosa kroegeri</text><text x="330.2" y="460.4" fill="#91bfdb" class="flag">[2]</text><text x="352.2" y="460.4" fill="#000" class="taxonLabel">Polysacos vickersianum</text><text x="286.9" y="519.2" fill="grey" class="flag">[-1]</text><text x="308.9" y="519.2" fill="#999" class="taxonLabel">Siphogonuchites multa</text><text x="200.1" y="656.2" fill="grey" class="flag">[?]</text><text x="222.1" y="656.2" fill="#999" class="taxonLabel">Bactrotheca</text><text x="178.5" y="666" fill="grey" class="flag">[?]</text><text x="200.5" y="666" fill="#999" class="taxonLabel">Cupitheca holocyclata</text><text x="265.2" y="362.5" fill="grey" class="flag">[?]</text><text x="287.2" y="362.5" fill="#999" class="taxonLabel">Mickwitzia muralensis</text><text x="265.2" y="372.3" fill="grey" class="flag">[?]</text><text x="287.2" y="372.3" fill="#999" class="taxonLabel">Heliomedusa orienta</text><text x="351.9" y="323.3" fill="lightgrey" class="flag">[-]</text><text x="373.9" y="323.3" fill="#ccc" class="taxonLabel">Novocrania</text><text x="351.9" y="333.1" fill="grey" class="flag">[?]</text><text x="373.9" y="333.1" fill="#999" class="taxonLabel">Craniops</text><text x="330.2" y="342.9" fill="grey" class="flag">[?]</text><text x="352.2" y="342.9" fill="#999" class="taxonLabel">Ussunia</text><text x="308.5" y="352.7" fill="grey" class="flag">[?]</text><text x="330.5" y="352.7" fill="#999" class="taxonLabel">Gasconsia</text><text x="395.3" y="274.4" fill="lightgrey" class="flag">[-]</text><text x="417.3" y="274.4" fill="#ccc" class="taxonLabel">Pelagodiscus atlanticus</text><text x="395.3" y="284.2" fill="grey" class="flag">[?]</text><text x="417.3" y="284.2" fill="#999" class="taxonLabel">Mummpikia nuda</text><text x="438.6" y="245" fill="grey" class="flag">[?]</text><text x="460.6" y="245" fill="#999" class="taxonLabel">Siphonobolus priscus</text><text x="438.6" y="254.8" fill="grey" class="flag">[?]</text><text x="460.6" y="254.8" fill="#999" class="taxonLabel">Acanthotretella spinosa</text><text x="438.6" y="225.4" fill="grey" class="flag">[?]</text><text x="460.6" y="225.4" fill="#999" class="taxonLabel">Lingulosacculus</text><text x="438.6" y="235.2" fill="grey" class="flag">[?]</text><text x="460.6" y="235.2" fill="#999" class="taxonLabel">Clupeafumosus socialis</text><text x="395.3" y="264.6" fill="grey" class="flag">[?]</text><text x="417.3" y="264.6" fill="#999" class="taxonLabel">Lingulellotreta malongensis</text><text x="351.9" y="294" fill="grey" class="flag">[?]</text><text x="373.9" y="294" fill="#999" class="taxonLabel">Botsfordia</text><text x="330.2" y="303.8" fill="grey" class="flag">[?]</text><text x="352.2" y="303.8" fill="#999" class="taxonLabel">Eoobolus</text><text x="308.5" y="313.5" fill="lightgrey" class="flag">[-]</text><text x="330.5" y="313.5" fill="#ccc" class="taxonLabel">Lingula</text><text x="308.5" y="205.8" fill="grey" class="flag">[?]</text><text x="330.5" y="205.8" fill="#999" class="taxonLabel">Micromitra</text><text x="308.5" y="215.6" fill="grey" class="flag">[?]</text><text x="330.5" y="215.6" fill="#999" class="taxonLabel">Askepasma toddense</text><text x="351.9" y="176.5" fill="grey" class="flag">[?]</text><text x="373.9" y="176.5" fill="#999" class="taxonLabel">Yuganotheca elegans</text><text x="351.9" y="186.2" fill="grey" class="flag">[?]</text><text x="373.9" y="186.2" fill="#999" class="taxonLabel">Tomteluva perturbata</text><text x="395.3" y="147.1" fill="grey" class="flag">[?]</text><text x="417.3" y="147.1" fill="#999" class="taxonLabel">Coolinia pecten</text><text x="395.3" y="156.9" fill="grey" class="flag">[?]</text><text x="417.3" y="156.9" fill="#999" class="taxonLabel">Antigonambonites planus</text><text x="482" y="88.3" fill="lightgrey" class="flag">[-]</text><text x="504" y="88.3" fill="#ccc" class="taxonLabel">Terebratulina</text><text x="482" y="98.1" fill="grey" class="flag">[?]</text><text x="504" y="98.1" fill="#999" class="taxonLabel">Orthis</text><text x="460.3" y="107.9" fill="grey" class="flag">[?]</text><text x="482.3" y="107.9" fill="#999" class="taxonLabel">Alisina</text><text x="438.6" y="117.7" fill="grey" class="flag">[?]</text><text x="460.6" y="117.7" fill="#999" class="taxonLabel">Glyptoria</text><text x="417" y="127.5" fill="grey" class="flag">[?]</text><text x="439" y="127.5" fill="#999" class="taxonLabel">Nisusia sulcata</text><text x="395.3" y="137.3" fill="grey" class="flag">[?]</text><text x="417.3" y="137.3" fill="#999" class="taxonLabel">Kutorgina chengjiangensis</text><text x="351.9" y="166.7" fill="grey" class="flag">[?]</text><text x="373.9" y="166.7" fill="#999" class="taxonLabel">Longtancunella chengjiangensis</text><text x="308.5" y="196" fill="grey" class="flag">[?]</text><text x="330.5" y="196" fill="#999" class="taxonLabel">Salanygolina</text><text x="221.8" y="382.1" fill="grey" class="flag">[?]</text><text x="243.8" y="382.1" fill="#999" class="taxonLabel">Micrina</text><text x="200.1" y="391.9" fill="lightgrey" class="flag">[-]</text><text x="222.1" y="391.9" fill="#ccc" class="taxonLabel">Paterimitra</text><text x="178.5" y="401.7" fill="grey" class="flag">[?]</text><text x="200.5" y="401.7" fill="#999" class="taxonLabel">Pedunculotheca diania</text><text x="135.1" y="675.8" fill="grey" class="flag">[?]</text><text x="157.1" y="675.8" fill="#999" class="taxonLabel">Paramicrocornus</text><text x="113.4" y="685.6" fill="grey" class="flag">[?]</text><text x="135.4" y="685.6" fill="#999" class="taxonLabel">Haplophrentis carinatus</text><text x="91.7" y="695.4" fill="lightgrey" class="flag">[-]</text><text x="113.7" y="695.4" fill="#ccc" class="taxonLabel">Halkieria evangelista</text><text x="70" y="705.2" fill="lightgrey" class="flag">[-]</text><text x="92" y="705.2" fill="#ccc" class="taxonLabel">Orthrozanclus</text><text x="200.1" y="10" fill="lightgrey" class="flag">[-]</text><text x="222.1" y="10" fill="#ccc" class="taxonLabel">Flustra</text><text x="200.1" y="19.8" fill="lightgrey" class="flag">[-]</text><text x="222.1" y="19.8" fill="#ccc" class="taxonLabel">Amathia</text><text x="178.5" y="29.6" fill="lightgrey" class="flag">[-]</text><text x="200.5" y="29.6" fill="#ccc" class="taxonLabel">Loxosomella</text><text x="156.8" y="39.4" fill="lightgrey" class="flag">[-]</text><text x="178.8" y="39.4" fill="#ccc" class="taxonLabel">Namacalathus</text><text x="135.1" y="49.2" fill="lightgrey" class="flag">[-]</text><text x="157.1" y="49.2" fill="#ccc" class="taxonLabel">Phoronis</text><text x="113.4" y="59" fill="grey" class="flag">[?]</text><text x="135.4" y="59" fill="#999" class="taxonLabel">Cotyledion tylodes</text><text x="91.7" y="68.8" fill="grey" class="flag">[?]</text><text x="113.7" y="68.8" fill="#999" class="taxonLabel">Eccentrotheca</text><text x="70" y="78.5" fill="lightgrey" class="flag">[-]</text><text x="92" y="78.5" fill="#ccc" class="taxonLabel">Dailyatia</text><text x="26.7" y="715" fill="grey" class="flag">[?]</text><text x="48.7" y="715" fill="#999" class="taxonLabel">Yilingia spiciformis</text><path d="M5,543.4V374.7H26.7M26.7,374.7V65.8H48.4M48.4,65.8V56.1H70M70,56.1V46.5H91.7M91.7,46.5V37H113.4M113.4,37V27.8H135.1M135.1,27.8V19.2H156.8M156.8,19.2V11.9H178.5M178.5,11.9V7H200.1M178.5,11.9V16.8H200.1M156.8,19.2V26.6H178.5M135.1,27.8V36.4H156.8M113.4,37V46.2H135.1M91.7,46.5V56H113.4M70,56.1V65.8H91.7M48.4,65.8V75.5H70M26.7,374.7V683.7H48.4M48.4,683.7V665.1H70M70,665.1V637.8H91.7M91.7,637.8V592.9H113.4M113.4,592.9V513H135.1M135.1,513V382.8H156.8M156.8,382.8V366.9H178.5M178.5,366.9V344.8H200.1M200.1,344.8V310.6H221.8M221.8,310.6V256.8H243.5M243.5,256.8V193.2H265.2M265.2,193.2V178.7H286.9M286.9,178.7V164.3H308.5M308.5,164.3V150.3H330.2M330.2,150.3V136.9H351.9M351.9,136.9V124.8H373.6M373.6,124.8V115.3H395.3M395.3,115.3V106.1H417M417,106.1V97.6H438.6M438.6,97.6V90.2H460.3M460.3,90.2V85.3H482M460.3,90.2V95.1H482M438.6,97.6V104.9H460.3M417,106.1V114.7H438.6M395.3,115.3V124.5H417M373.6,124.8V134.3H395.3M351.9,136.9V149H373.6M373.6,149V144.1H395.3M373.6,149V153.9H395.3M330.2,150.3V163.7H351.9M308.5,164.3V178.4H330.2M330.2,178.4V173.5H351.9M330.2,178.4V183.2H351.9M286.9,178.7V193H308.5M265.2,193.2V207.7H286.9M286.9,207.7V202.8H308.5M286.9,207.7V212.6H308.5M243.5,256.8V320.4H265.2M265.2,320.4V299.7H286.9M286.9,299.7V288.8H308.5M308.5,288.8V276.9H330.2M330.2,276.9V262.8H351.9M351.9,262.8V249.3H373.6M373.6,249.3V237.1H395.3M395.3,237.1V227.3H417M417,227.3V222.4H438.6M417,227.3V232.2H438.6M395.3,237.1V246.9H417M417,246.9V242H438.6M417,246.9V251.8H438.6M373.6,249.3V261.6H395.3M351.9,262.8V276.3H373.6M373.6,276.3V271.4H395.3M373.6,276.3V281.2H395.3M330.2,276.9V291H351.9M308.5,288.8V300.8H330.2M286.9,299.7V310.5H308.5M265.2,320.4V341.1H286.9M286.9,341.1V332.6H308.5M308.5,332.6V325.2H330.2M330.2,325.2V320.3H351.9M330.2,325.2V330.1H351.9M308.5,332.6V339.9H330.2M286.9,341.1V349.7H308.5M221.8,310.6V364.4H243.5M243.5,364.4V359.5H265.2M243.5,364.4V369.3H265.2M200.1,344.8V379.1H221.8M178.5,366.9V388.9H200.1M156.8,382.8V398.7H178.5M135.1,513V643.2H156.8M156.8,643.2V623.4H178.5M178.5,623.4V593.6H200.1M200.1,593.6V552.4H221.8M221.8,552.4V511.8H243.5M243.5,511.8V492.7H265.2M265.2,492.7V469.2H286.9M286.9,469.2V490.5H308.5M308.5,490.5V479.4H330.2M330.2,479.4V472.1H351.9M351.9,472.1V467.2H373.6M351.9,472.1V477H373.6M330.2,479.4V486.8H351.9M308.5,490.5V501.5H330.2M330.2,501.5V496.6H351.9M330.2,501.5V506.4H351.9M265.2,492.7V516.2H286.9M243.5,511.8V530.9H265.2M265.2,530.9V526H286.9M265.2,530.9V535.8H286.9M221.8,552.4V593H243.5M243.5,593V581.6H265.2M265.2,581.6V568.8H286.9M286.9,568.8V557.8H308.5M308.5,557.8V550.4H330.2M330.2,550.4V545.5H351.9M330.2,550.4V555.3H351.9M308.5,557.8V565.1H330.2M286.9,568.8V579.8H308.5M308.5,579.8V574.9H330.2M308.5,579.8V584.7H330.2M265.2,581.6V594.5H286.9M243.5,593V604.3H265.2M200.1,593.6V634.9H221.8M221.8,634.9V626.3H243.5M243.5,626.3V619H265.2M265.2,619V614.1H286.9M265.2,619V623.9H286.9M243.5,626.3V633.7H265.2M221.8,634.9V643.5H243.5M178.5,623.4V653.2H200.1M156.8,643.2V663H178.5M113.4,592.9V672.8H135.1M91.7,637.8V682.6H113.4M70,665.1V692.4H91.7M48.4,683.7V702.2H70M5,543.4V712H26.7" stroke="lightgrey" class="inapplicable"></path><path d="M286.9,469.2V447.9H308.5M308.5,447.9V438.4H330.2M330.2,438.4V429.3H351.9M351.9,429.3V420.7H373.6M373.6,420.7V428H395.3M351.9,429.3V437.8H373.6M330.2,438.4V447.6H351.9M308.5,447.9V457.4H330.2" stroke="#91bfdb"></path><path d="M373.6,420.7V413.4H395.3M395.3,413.4V408.5H417M395.3,413.4V418.2H417" stroke="#e2e2a2"></path><text x="28.7" y="377.7" class="node" fill="#E6B4BD">0.35</text><text x="50.4" y="68.8" class="node" fill="#C7CBE3">0.6</text><text x="72" y="59.1" class="node" fill="#DF798F">0.16</text><text x="93.7" y="49.5" class="node" fill="#C7CBE3">0.6</text><text x="115.4" y="40" class="node" fill="#DC6884">0.11</text><text x="137.1" y="30.8" class="node" fill="#C7CBE3">0.6</text><text x="158.8" y="22.2" class="node" fill="#4A6FE3">1</text><text x="180.5" y="14.9" class="node" fill="#C7CBE3">0.6</text><text x="50.4" y="686.7" class="node" fill="#C7CBE3">0.6</text><text x="72" y="668.1" class="node" fill="#C7CBE3">0.6</text><text x="93.7" y="640.8" class="node" fill="#E6ABB6">0.32</text><text x="115.4" y="595.9" class="node" fill="#C7CBE3">0.6</text><text x="137.1" y="516" class="node" fill="#C7CBE3">0.6</text><text x="158.8" y="385.8" class="node" fill="#C7CBE3">0.6</text><text x="180.5" y="369.9" class="node" fill="#4A6FE3">1</text><text x="202.1" y="347.8" class="node" fill="#C7CBE3">0.6</text><text x="223.8" y="313.6" class="node" fill="#C7CBE3">0.6</text><text x="245.5" y="259.8" class="node" fill="#C7CBE3">0.6</text><text x="267.2" y="196.2" class="node" fill="#C7CBE3">0.6</text><text x="288.9" y="181.7" class="node" fill="#E6ABB6">0.32</text><text x="310.5" y="167.3" class="node" fill="#E495A5">0.25</text><text x="332.2" y="153.3" class="node" fill="#DADBE3">0.53</text><text x="353.9" y="139.9" class="node" fill="#E4D6D8">0.46</text><text x="375.6" y="127.8" class="node" fill="#E495A5">0.25</text><text x="397.3" y="118.3" class="node" fill="#DADBE3">0.53</text><text x="419" y="109.1" class="node" fill="#5B78E2">0.96</text><text x="440.6" y="100.6" class="node" fill="#5B78E2">0.96</text><text x="462.3" y="93.2" class="node" fill="#4A6FE3">1</text><text x="375.6" y="152" class="node" fill="#D7D9E3">0.54</text><text x="332.2" y="181.4" class="node" fill="#4A6FE3">1</text><text x="288.9" y="210.7" class="node" fill="#4A6FE3">1</text><text x="267.2" y="323.4" class="node" fill="#4A6FE3">1</text><text x="288.9" y="302.7" class="node" fill="#4A6FE3">1</text><text x="310.5" y="291.8" class="node" fill="#4A6FE3">1</text><text x="332.2" y="279.9" class="node" fill="#4A6FE3">1</text><text x="353.9" y="265.8" class="node" fill="#4A6FE3">1</text><text x="375.6" y="252.3" class="node" fill="#4A6FE3">1</text><text x="397.3" y="240.1" class="node" fill="#E6C1C7">0.39</text><text x="419" y="230.3" class="node" fill="#4A6FE3">1</text><text x="419" y="249.9" class="node" fill="#4A6FE3">1</text><text x="375.6" y="279.3" class="node" fill="#4A6FE3">1</text><text x="288.9" y="344.1" class="node" fill="#4A6FE3">1</text><text x="310.5" y="335.6" class="node" fill="#4A6FE3">1</text><text x="332.2" y="328.2" class="node" fill="#4A6FE3">1</text><text x="245.5" y="367.4" class="node" fill="#C7CBE3">0.6</text><text x="158.8" y="646.2" class="node" fill="#C7CBE3">0.6</text><text x="180.5" y="626.4" class="node" fill="#4A6FE3">1</text><text x="202.1" y="596.6" class="node" fill="#768BE1">0.88</text><text x="223.8" y="555.4" class="node" fill="#C4C9E3">0.61</text><text x="245.5" y="514.8" class="node" fill="#4A6FE3">1</text><text x="267.2" y="495.7" class="node" fill="#D2D4E3">0.56</text><text x="288.9" y="472.2" class="node" fill="#5B78E2">0.96</text><text x="310.5" y="450.9" class="node" fill="#C7CBE3">0.6</text><text x="332.2" y="441.4" class="node" fill="#E6AEB8">0.33</text><text x="353.9" y="432.3" class="node" fill="#E498A7">0.26</text><text x="375.6" y="423.7" class="node" fill="#4A6FE3">1</text><text x="397.3" y="416.4" class="node" fill="#5374E2">0.98</text><text x="310.5" y="493.5" class="node" fill="#C7CBE3">0.6</text><text x="332.2" y="482.4" class="node" fill="#C7CBE3">0.6</text><text x="353.9" y="475.1" class="node" fill="#5374E2">0.98</text><text x="332.2" y="504.5" class="node" fill="#4A6FE3">1</text><text x="267.2" y="533.9" class="node" fill="#B4BBE3">0.67</text><text x="245.5" y="596" class="node" fill="#4A6FE3">1</text><text x="267.2" y="584.6" class="node" fill="#C4C9E3">0.61</text><text x="288.9" y="571.8" class="node" fill="#7D8FE1">0.86</text><text x="310.5" y="560.8" class="node" fill="#DC6884">0.11</text><text x="332.2" y="553.4" class="node" fill="#C7CBE3">0.6</text><text x="310.5" y="582.8" class="node" fill="#4A6FE3">1</text><text x="223.8" y="637.9" class="node" fill="#C4C9E3">0.61</text><text x="245.5" y="629.3" class="node" fill="#E6B4BD">0.35</text><text x="267.2" y="622" class="node" fill="#E6B4BD">0.35</text></svg>
