<svg xmlns="http://www.w3.org/2000/svg" version="1.1" viewBox="0 0 682 720" preserveAspectRatio="xMidYMid meet" class="tree" data-char="245"><text x="678" y="16.8" text-anchor="end" class="stepsLabel">Character adds <tspan class="score">2</tspan> to tree score</text><text x="678" y="30.6" text-anchor="end" class="stepsLabel"><tspan class="score">0</tspan> additional regions</text><text x="678" y="44.4" text-anchor="end" class="stepsLabel"></text><text x="678" y="72" text-anchor="end" class="stepsLabel"><tspan dy="16" fill="#34caaf">An optimal tree under:</tspan><tspan x="680" style="font-style:italic" class="notThisAn" dy="1.2em">Implied weights, k = 3</tspan><tspan x="680" style="font-style:italic" class="thisAn" dy="1.2em">IW, k = 4.5</tspan><tspan x="680" style="font-style:italic" class="notThisAn" dy="1.2em">IW, k = 7</tspan><tspan x="680" style="font-style:italic" class="notThisAn" dy="1.2em">IW, k = 10.5</tspan><tspan x="680" style="font-style:italic" class="notThisAn" dy="1.2em">IW, k = 16</tspan><tspan x="680" style="font-style:italic" class="notThisAn" dy="1.2em">IW, k = 24</tspan><tspan x="680" style="font-style:italic" class="notThisAn" dy="1.2em">Equal weights</tspan></text><text x="154.1" y="658.6" fill="NA" class="flag">[2]</text><text x="176.1" y="658.6" fill="NA" class="taxonLabel">Serpula</text><text x="154.1" y="672.7" fill="NA" class="flag">[?]</text><text x="176.1" y="672.7" fill="NA" class="taxonLabel">Capitella</text><text x="124.2" y="686.8" fill="NA" class="flag">[?]</text><text x="146.2" y="686.8" fill="NA" class="taxonLabel">Canadia spinosa</text><text x="94.4" y="700.9" fill="NA" class="flag">[2]</text><text x="116.4" y="700.9" fill="NA" class="taxonLabel">Sipunculus</text><text x="154.1" y="630.4" fill="NA" class="flag">[?]</text><text x="176.1" y="630.4" fill="NA" class="taxonLabel">Orthrozanclus</text><text x="154.1" y="644.5" fill="NA" class="flag">[?]</text><text x="176.1" y="644.5" fill="NA" class="taxonLabel">Halkieria evangelista</text><text x="243.5" y="574" fill="NA" class="flag">[2]</text><text x="265.5" y="574" fill="NA" class="taxonLabel">Wirenia</text><text x="243.5" y="588.1" fill="NA" class="flag">[?]</text><text x="265.5" y="588.1" fill="NA" class="taxonLabel">Phthipodochiton thraivensis</text><text x="362.8" y="517.6" fill="NA" class="flag">[?]</text><text x="384.8" y="517.6" fill="NA" class="taxonLabel">Siphogonuchites multa</text><text x="362.8" y="531.7" fill="NA" class="flag">[?]</text><text x="384.8" y="531.7" fill="NA" class="taxonLabel">Calvapilosa kroegeri</text><text x="332.9" y="545.8" fill="NA" class="flag">[?]</text><text x="354.9" y="545.8" fill="NA" class="taxonLabel">Glaphurochiton carbonarius</text><text x="392.6" y="461.2" fill="NA" class="flag">[2]</text><text x="414.6" y="461.2" fill="NA" class="taxonLabel">Tonicella</text><text x="392.6" y="475.3" fill="NA" class="flag">[2]</text><text x="414.6" y="475.3" fill="NA" class="taxonLabel">Mopalia</text><text x="362.8" y="489.4" fill="NA" class="flag">[?]</text><text x="384.8" y="489.4" fill="NA" class="taxonLabel">Polysacos vickersianum</text><text x="332.9" y="503.5" fill="NA" class="flag">[2]</text><text x="354.9" y="503.5" fill="NA" class="taxonLabel">Leptochiton</text><text x="332.9" y="433" fill="NA" class="flag">[?]</text><text x="354.9" y="433" fill="NA" class="taxonLabel">Wiwaxia corrugata</text><text x="332.9" y="447.1" fill="NA" class="flag">[?]</text><text x="354.9" y="447.1" fill="NA" class="taxonLabel">Odontogriphus omalus</text><text x="392.6" y="390.7" fill="NA" class="flag">[2]</text><text x="414.6" y="390.7" fill="NA" class="taxonLabel">Haliotis</text><text x="392.6" y="404.8" fill="NA" class="flag">[2]</text><text x="414.6" y="404.8" fill="NA" class="taxonLabel">Dentalium</text><text x="452.2" y="334.3" fill="NA" class="flag">[?]</text><text x="474.2" y="334.3" fill="NA" class="taxonLabel">Pojetaia runnegari</text><text x="452.2" y="348.4" fill="NA" class="flag">[2]</text><text x="474.2" y="348.4" fill="NA" class="taxonLabel">Mytilus</text><text x="422.4" y="362.5" fill="NA" class="flag">[?]</text><text x="444.4" y="362.5" fill="NA" class="taxonLabel">Conocardium elongatum</text><text x="392.6" y="376.6" fill="NA" class="flag">[?]</text><text x="414.6" y="376.6" fill="NA" class="taxonLabel">Neopilina</text><text x="332.9" y="418.9" fill="NA" class="flag">[?]</text><text x="354.9" y="418.9" fill="NA" class="taxonLabel">Pelagiella</text><text x="243.5" y="559.9" fill="NA" class="flag">[1]</text><text x="265.5" y="559.9" fill="NA" class="taxonLabel">Chaetoderma</text><text x="183.9" y="602.2" fill="NA" class="flag">[?]</text><text x="205.9" y="602.2" fill="NA" class="taxonLabel">Acaenoplax hayae</text><text x="154.1" y="616.3" fill="NA" class="flag">[?]</text><text x="176.1" y="616.3" fill="NA" class="taxonLabel">Kulindroplax perissokomos</text><text x="213.7" y="277.9" fill="NA" class="flag">[?]</text><text x="235.7" y="277.9" fill="NA" class="taxonLabel">Namacalathus</text><text x="213.7" y="292" fill="NA" class="flag">[1]</text><text x="235.7" y="292" fill="NA" class="taxonLabel">Loxosomella</text><text x="183.9" y="306.1" fill="NA" class="flag">[?]</text><text x="205.9" y="306.1" fill="NA" class="taxonLabel">Dailyatia</text><text x="154.1" y="320.2" fill="NA" class="flag">[?]</text><text x="176.1" y="320.2" fill="NA" class="taxonLabel">Cotyledion tylodes</text><text x="183.9" y="249.7" fill="NA" class="flag">[1]</text><text x="205.9" y="249.7" fill="NA" class="taxonLabel">Flustra</text><text x="183.9" y="263.8" fill="NA" class="flag">[1]</text><text x="205.9" y="263.8" fill="NA" class="taxonLabel">Amathia</text><text x="332.9" y="165.1" fill="NA" class="flag">[1]</text><text x="354.9" y="165.1" fill="NA" class="taxonLabel">Terebratulina</text><text x="332.9" y="179.2" fill="NA" class="flag">[?]</text><text x="354.9" y="179.2" fill="NA" class="taxonLabel">Orthis</text><text x="392.6" y="136.9" fill="NA" class="flag">[?]</text><text x="414.6" y="136.9" fill="NA" class="taxonLabel">Micromitra</text><text x="392.6" y="151" fill="NA" class="flag">[?]</text><text x="414.6" y="151" fill="NA" class="taxonLabel">Gasconsia</text><text x="392.6" y="108.7" fill="NA" class="flag">[1]</text><text x="414.6" y="108.7" fill="NA" class="taxonLabel">Novocrania</text><text x="392.6" y="122.8" fill="NA" class="flag">[?]</text><text x="414.6" y="122.8" fill="NA" class="taxonLabel">Heliomedusa orienta</text><text x="452.2" y="52.3" fill="NA" class="flag">[?]</text><text x="474.2" y="52.3" fill="NA" class="taxonLabel">Pedunculotheca diania</text><text x="452.2" y="66.4" fill="NA" class="flag">[?]</text><text x="474.2" y="66.4" fill="NA" class="taxonLabel">Haplophrentis carinatus</text><text x="482" y="10" fill="NA" class="flag">[?]</text><text x="504" y="10" fill="NA" class="taxonLabel">Yuganotheca elegans</text><text x="482" y="24.1" fill="NA" class="flag">[1]</text><text x="504" y="24.1" fill="NA" class="taxonLabel">Lingula</text><text x="452.2" y="38.2" fill="NA" class="flag">[?]</text><text x="474.2" y="38.2" fill="NA" class="taxonLabel">Lingulellotreta malongensis</text><text x="392.6" y="80.5" fill="NA" class="flag">[?]</text><text x="414.6" y="80.5" fill="NA" class="taxonLabel">Pelagodiscus atlanticus</text><text x="362.8" y="94.6" fill="NA" class="flag">[?]</text><text x="384.8" y="94.6" fill="NA" class="taxonLabel">Mickwitzia muralensis</text><text x="273.3" y="193.3" fill="NA" class="flag">[?]</text><text x="295.3" y="193.3" fill="NA" class="taxonLabel">Micrina</text><text x="243.5" y="207.4" fill="NA" class="flag">[?]</text><text x="265.5" y="207.4" fill="NA" class="taxonLabel">Paterimitra</text><text x="213.7" y="221.5" fill="NA" class="flag">[1]</text><text x="235.7" y="221.5" fill="NA" class="taxonLabel">Phoronis</text><text x="183.9" y="235.6" fill="NA" class="flag">[?]</text><text x="205.9" y="235.6" fill="NA" class="taxonLabel">Eccentrotheca</text><text x="34.8" y="715" fill="NA" class="flag">[?]</text><text x="56.8" y="715" fill="NA" class="taxonLabel">Yilingia spiciformis</text><path d="MNA,NAVNAHNAMNA,NAVNAHNAMNA,NAVNAHNAMNA,NAVNAHNAMNA,NAVNAHNAMNA,NAVNAHNAMNA,NAVNAHNAMNA,NAVNAHNAMNA,NAVNAHNAMNA,NAVNAHNAMNA,NAVNAHNAMNA,NAVNAHNAMNA,NAVNAHNAMNA,NAVNAHNAMNA,NAVNAHNAMNA,NAVNAHNAMNA,NAVNAHNAMNA,NAVNAHNAMNA,NAVNAHNAMNA,NAVNAHNAMNA,NAVNAHNAMNA,NAVNAHNAMNA,NAVNAHNAMNA,NAVNAHNAMNA,NAVNAHNAMNA,NAVNAHNAMNA,NAVNAHNAMNA,NAVNAHNAMNA,NAVNAHNAMNA,NAVNAHNAMNA,NAVNAHNAMNA,NAVNAHNAMNA,NAVNAHNAMNA,NAVNAHNAMNA,NAVNAHNAMNA,NAVNAHNAMNA,NAVNAHNAMNA,NAVNAHNAMNA,NAVNAHNAMNA,NAVNAHNAMNA,NAVNAHNAMNA,NAVNAHNAMNA,NAVNAHNAMNA,NAVNAHNAMNA,NAVNAHNAMNA,NAVNAHNAMNA,NAVNAHNAMNA,NAVNAHNAMNA,NAVNAHNAMNA,NAVNAHNAMNA,NAVNAHNAMNA,NAVNAHNAMNA,NAVNAHNAMNA,NAVNAHNAMNA,NAVNAHNAMNA,NAVNAHNAMNA,NAVNAHNAMNA,NAVNAHNAMNA,NAVNAHNAMNA,NAVNAHNAMNA,NAVNAHNAMNA,NAVNAHNAMNA,NAVNAHNAMNA,NAVNAHNAMNA,NAVNAHNAMNA,NAVNAHNAMNA,NAVNAHNAMNA,NAVNAHNAMNA,NAVNAHNAMNA,NAVNAHNAMNA,NAVNAHNAMNA,NAVNAHNAMNA,NAVNAHNAMNA,NAVNAHNAMNA,NAVNAHNAMNA,NAVNAHNAMNA,NAVNAHNAMNA,NAVNAHNAMNA,NAVNAHNAMNA,NAVNAHNAMNA,NAVNAHNAMNA,NAVNAHNAMNA,NAVNAHNAMNA,NAVNAHNAMNA,NAVNAHNAMNA,NAVNAHNAMNA,NAVNAHNAMNA,NAVNAHNAMNA,NAVNAHNAMNA,NAVNAHNAMNA,NAVNAHNAMNA,NAVNAHNAMNA,NAVNAHNAMNA,NAVNAHNAMNA,NAVNAHNAMNA,NAVNAHNAMNA,NAVNAHNAMNA,NAVNAHNAMNA,NAVNAHNAMNA,NAVNAHNA" stroke="NANA"></path><text x="36.8" y="566.7" class="node" fill="#D64F73">0.04</text><text x="66.6" y="444.8" class="node" fill="#D4486F">0.02</text><text x="96.4" y="273.1" class="node" fill="#D4486F">0.02</text><text x="126.2" y="238.3" class="node" fill="#D4486F">0.02</text><text x="156.1" y="219.8" class="node" fill="#D4486F">0.02</text><text x="185.9" y="204" class="node" fill="#E4D6D8">0.46</text><text x="215.7" y="186.6" class="node" fill="#D64F73">0.04</text><text x="245.5" y="165.7" class="node" fill="#D4486F">0.02</text><text x="275.3" y="138.1" class="node" fill="#D4486F">0.02</text><text x="305.1" y="104.1" class="node" fill="#D4486F">0.02</text><text x="334.9" y="78.3" class="node" fill="#D4486F">0.02</text><text x="364.8" y="62" class="node" fill="#D4486F">0.02</text><text x="394.6" y="43.5" class="node" fill="#4A6FE3">1</text><text x="424.4" y="27.6" class="node" fill="#E2E2E2">0.5</text><text x="454.2" y="17.1" class="node" fill="#4A6FE3">1</text><text x="424.4" y="59.3" class="node" fill="#D4486F">0.02</text><text x="334.9" y="129.8" class="node" fill="#D4486F">0.02</text><text x="364.8" y="115.8" class="node" fill="#4A6FE3">1</text><text x="364.8" y="143.9" class="node" fill="#4A6FE3">1</text><text x="305.1" y="172.1" class="node" fill="#4A6FE3">1</text><text x="156.1" y="256.7" class="node" fill="#D4486F">0.02</text><text x="126.2" y="307.9" class="node" fill="#D4486F">0.02</text><text x="156.1" y="295.5" class="node" fill="#D4486F">0.02</text><text x="185.9" y="284.9" class="node" fill="#D4486F">0.02</text><text x="96.4" y="616.5" class="node" fill="#4A6FE3">1</text><text x="126.2" y="595.5" class="node" fill="#D2D4E3">0.57</text><text x="156.1" y="574.7" class="node" fill="#D2D4E3">0.57</text><text x="185.9" y="547.1" class="node" fill="#D4486F">0.02</text><text x="215.7" y="513.2" class="node" fill="#D4486F">0.02</text><text x="245.5" y="466.6" class="node" fill="#D2D4E3">0.57</text><text x="275.3" y="420" class="node" fill="#5374E2">0.98</text><text x="305.1" y="400" class="node" fill="#95A1E2">0.78</text><text x="334.9" y="381" class="node" fill="#D4486F">0.02</text><text x="364.8" y="364.3" class="node" fill="#D4486F">0.02</text><text x="394.6" y="351.9" class="node" fill="#4A6FE3">1</text><text x="424.4" y="341.4" class="node" fill="#D4486F">0.02</text><text x="364.8" y="397.8" class="node" fill="#4A6FE3">1</text><text x="305.1" y="440" class="node" fill="#DB617F">0.09</text><text x="275.3" y="513.2" class="node" fill="#4A6FE3">1</text><text x="305.1" y="491.2" class="node" fill="#4A6FE3">1</text><text x="334.9" y="478.8" class="node" fill="#4A6FE3">1</text><text x="364.8" y="468.2" class="node" fill="#D4486F">0.02</text><text x="305.1" y="535.2" class="node" fill="#D4486F">0.02</text><text x="334.9" y="524.6" class="node" fill="#D4486F">0.02</text><text x="215.7" y="581" class="node" fill="#B9BFE3">0.65</text><text x="126.2" y="637.5" class="node" fill="#4A6FE3">1</text><text x="66.6" y="688.6" class="node" fill="#4A6FE3">1</text><text x="96.4" y="676.2" class="node" fill="#4A6FE3">1</text><text x="126.2" y="665.6" class="node" fill="#D64F73">0.04</text></svg>
