<svg xmlns="http://www.w3.org/2000/svg" version="1.1" viewBox="0 0 682 720" preserveAspectRatio="xMidYMid meet" class="tree" data-char="250"><text x="678" y="16.8" text-anchor="end" class="stepsLabel">Character adds <tspan class="score">2</tspan> to tree score</text><text x="678" y="30.6" text-anchor="end" class="stepsLabel"><tspan class="score">0</tspan> additional regions</text><text x="678" y="44.4" text-anchor="end" class="stepsLabel"></text><text x="678" y="72" text-anchor="end" class="stepsLabel"><tspan dy="16" fill="#34caaf">An optimal tree under:</tspan><tspan x="680" style="font-style:italic" class="notThisAn" dy="1.2em">Implied weights, k = 3</tspan><tspan x="680" style="font-style:italic" class="notThisAn" dy="1.2em">IW, k = 4.5</tspan><tspan x="680" style="font-style:italic" class="notThisAn" dy="1.2em">IW, k = 7</tspan><tspan x="680" style="font-style:italic" class="notThisAn" dy="1.2em">IW, k = 10.5</tspan><tspan x="680" style="font-style:italic" class="notThisAn" dy="1.2em">IW, k = 16</tspan><tspan x="680" style="font-style:italic" class="notThisAn" dy="1.2em">IW, k = 24</tspan><tspan x="680" style="font-style:italic" class="thisAn" dy="1.2em">Equal weights</tspan></text><text x="180.7" y="630.4" fill="#fc8d59" class="flag">[0]</text><text x="202.7" y="630.4" fill="#000" class="taxonLabel">Flustra</text><text x="180.7" y="644.5" fill="#fc8d59" class="flag">[0]</text><text x="202.7" y="644.5" fill="#000" class="taxonLabel">Amathia</text><text x="155.6" y="658.6" fill="#91bfdb" class="flag">[1]</text><text x="177.6" y="658.6" fill="#000" class="taxonLabel">Loxosomella</text><text x="130.5" y="672.7" fill="#fc8d59" class="flag">[0]</text><text x="152.5" y="672.7" fill="#000" class="taxonLabel">Phoronis</text><text x="105.4" y="686.8" fill="grey" class="flag">[?]</text><text x="127.4" y="686.8" fill="#999" class="taxonLabel">Namacalathus</text><text x="180.7" y="574" fill="grey" class="flag">[?]</text><text x="202.7" y="574" fill="#999" class="taxonLabel">Orthrozanclus</text><text x="180.7" y="588.1" fill="grey" class="flag">[?]</text><text x="202.7" y="588.1" fill="#999" class="taxonLabel">Halkieria evangelista</text><text x="205.8" y="545.8" fill="grey" class="flag">[?]</text><text x="227.8" y="545.8" fill="#999" class="taxonLabel">Pedunculotheca diania</text><text x="205.8" y="559.9" fill="grey" class="flag">[?]</text><text x="227.8" y="559.9" fill="#999" class="taxonLabel">Haplophrentis carinatus</text><text x="306.3" y="489.4" fill="grey" class="flag">[?]</text><text x="328.3" y="489.4" fill="#999" class="taxonLabel">Mickwitzia muralensis</text><text x="306.3" y="503.5" fill="grey" class="flag">[?]</text><text x="328.3" y="503.5" fill="#999" class="taxonLabel">Heliomedusa orienta</text><text x="331.4" y="461.2" fill="grey" class="flag">[?]</text><text x="353.4" y="461.2" fill="#999" class="taxonLabel">Micromitra</text><text x="331.4" y="475.3" fill="grey" class="flag">[?]</text><text x="353.4" y="475.3" fill="#999" class="taxonLabel">Gasconsia</text><text x="356.5" y="433" fill="#91bfdb" class="flag">[1]</text><text x="378.5" y="433" fill="#000" class="taxonLabel">Terebratulina</text><text x="356.5" y="447.1" fill="grey" class="flag">[?]</text><text x="378.5" y="447.1" fill="#999" class="taxonLabel">Orthis</text><text x="431.8" y="362.5" fill="grey" class="flag">[?]</text><text x="453.8" y="362.5" fill="#999" class="taxonLabel">Yuganotheca elegans</text><text x="431.8" y="376.6" fill="#91bfdb" class="flag">[1]</text><text x="453.8" y="376.6" fill="#000" class="taxonLabel">Lingula</text><text x="406.7" y="390.7" fill="grey" class="flag">[?]</text><text x="428.7" y="390.7" fill="#999" class="taxonLabel">Lingulellotreta malongensis</text><text x="381.6" y="404.8" fill="grey" class="flag">[?]</text><text x="403.6" y="404.8" fill="#999" class="taxonLabel">Pelagodiscus atlanticus</text><text x="356.5" y="418.9" fill="#91bfdb" class="flag">[1]</text><text x="378.5" y="418.9" fill="#000" class="taxonLabel">Novocrania</text><text x="256.1" y="517.6" fill="grey" class="flag">[?]</text><text x="278.1" y="517.6" fill="#999" class="taxonLabel">Micrina</text><text x="230.9" y="531.7" fill="grey" class="flag">[?]</text><text x="252.9" y="531.7" fill="#999" class="taxonLabel">Paterimitra</text><text x="306.3" y="306.1" fill="#91bfdb" class="flag">[1]</text><text x="328.3" y="306.1" fill="#000" class="taxonLabel">Serpula</text><text x="306.3" y="320.2" fill="#91bfdb" class="flag">[1]</text><text x="328.3" y="320.2" fill="#000" class="taxonLabel">Capitella</text><text x="281.2" y="334.3" fill="grey" class="flag">[?]</text><text x="303.2" y="334.3" fill="#999" class="taxonLabel">Canadia spinosa</text><text x="256.1" y="348.4" fill="#91bfdb" class="flag">[1]</text><text x="278.1" y="348.4" fill="#000" class="taxonLabel">Sipunculus</text><text x="356.5" y="249.7" fill="#91bfdb" class="flag">[1]</text><text x="378.5" y="249.7" fill="#000" class="taxonLabel">Wirenia</text><text x="356.5" y="263.8" fill="#91bfdb" class="flag">[1]</text><text x="378.5" y="263.8" fill="#000" class="taxonLabel">Chaetoderma</text><text x="482" y="151" fill="#91bfdb" class="flag">[1]</text><text x="504" y="151" fill="#000" class="taxonLabel">Tonicella</text><text x="482" y="165.1" fill="#91bfdb" class="flag">[1]</text><text x="504" y="165.1" fill="#000" class="taxonLabel">Mopalia</text><text x="456.9" y="179.2" fill="grey" class="flag">[?]</text><text x="478.9" y="179.2" fill="#999" class="taxonLabel">Polysacos vickersianum</text><text x="431.8" y="193.3" fill="#91bfdb" class="flag">[1]</text><text x="453.8" y="193.3" fill="#000" class="taxonLabel">Leptochiton</text><text x="406.7" y="207.4" fill="grey" class="flag">[?]</text><text x="428.7" y="207.4" fill="#999" class="taxonLabel">Glaphurochiton carbonarius</text><text x="381.6" y="221.5" fill="grey" class="flag">[?]</text><text x="403.6" y="221.5" fill="#999" class="taxonLabel">Calvapilosa kroegeri</text><text x="356.5" y="235.6" fill="grey" class="flag">[?]</text><text x="378.5" y="235.6" fill="#999" class="taxonLabel">Phthipodochiton thraivensis</text><text x="381.6" y="108.7" fill="grey" class="flag">[?]</text><text x="403.6" y="108.7" fill="#999" class="taxonLabel">Wiwaxia corrugata</text><text x="381.6" y="122.8" fill="grey" class="flag">[?]</text><text x="403.6" y="122.8" fill="#999" class="taxonLabel">Odontogriphus omalus</text><text x="456.9" y="52.3" fill="grey" class="flag">[?]</text><text x="478.9" y="52.3" fill="#999" class="taxonLabel">Neopilina</text><text x="456.9" y="66.4" fill="grey" class="flag">[?]</text><text x="478.9" y="66.4" fill="#999" class="taxonLabel">Conocardium elongatum</text><text x="431.8" y="80.5" fill="#91bfdb" class="flag">[1]</text><text x="453.8" y="80.5" fill="#000" class="taxonLabel">Haliotis</text><text x="456.9" y="10" fill="grey" class="flag">[?]</text><text x="478.9" y="10" fill="#999" class="taxonLabel">Pojetaia runnegari</text><text x="456.9" y="24.1" fill="#91bfdb" class="flag">[1]</text><text x="478.9" y="24.1" fill="#000" class="taxonLabel">Mytilus</text><text x="431.8" y="38.2" fill="#91bfdb" class="flag">[1]</text><text x="453.8" y="38.2" fill="#000" class="taxonLabel">Dentalium</text><text x="381.6" y="94.6" fill="grey" class="flag">[?]</text><text x="403.6" y="94.6" fill="#999" class="taxonLabel">Pelagiella</text><text x="331.4" y="136.9" fill="grey" class="flag">[?]</text><text x="353.4" y="136.9" fill="#999" class="taxonLabel">Siphogonuchites multa</text><text x="281.2" y="277.9" fill="grey" class="flag">[?]</text><text x="303.2" y="277.9" fill="#999" class="taxonLabel">Acaenoplax hayae</text><text x="256.1" y="292" fill="grey" class="flag">[?]</text><text x="278.1" y="292" fill="#999" class="taxonLabel">Kulindroplax perissokomos</text><text x="130.5" y="602.2" fill="grey" class="flag">[?]</text><text x="152.5" y="602.2" fill="#999" class="taxonLabel">Eccentrotheca</text><text x="105.4" y="616.3" fill="grey" class="flag">[?]</text><text x="127.4" y="616.3" fill="#999" class="taxonLabel">Cotyledion tylodes</text><text x="55.2" y="700.9" fill="grey" class="flag">[?]</text><text x="77.2" y="700.9" fill="#999" class="taxonLabel">Dailyatia</text><text x="30.1" y="715" fill="grey" class="flag">[?]</text><text x="52.1" y="715" fill="#999" class="taxonLabel">Yilingia spiciformis</text><path d="M5,687.8V663.7H30.1M30.1,663.7V629.4H55.2M55.2,629.4V588.2H80.3M80.3,588.2V563.2H105.4M105.4,563.2V527.1H130.5M130.5,527.1V476.2H155.6M155.6,476.2V549.8H180.7M180.7,549.8V542.8H205.8M180.7,549.8V556.9H205.8M130.5,527.1V578H155.6M155.6,578V571H180.7M155.6,578V585.1H180.7M105.4,563.2V599.2H130.5M80.3,588.2V613.3H105.4M55.2,629.4V670.6H80.3M80.3,670.6V657.4H105.4M105.4,657.4V645H130.5M80.3,670.6V683.8H105.4M30.1,663.7V697.9H55.2M5,687.8V712H30.1" stroke="darkgrey"></path><path d="M155.6,476.2V402.5H180.7M180.7,402.5V294.9H205.8M205.8,294.9V256.8H230.9M230.9,256.8V224.6H256.1M256.1,224.6V174.3H281.2M281.2,174.3V112.3H306.3M306.3,112.3V90.7H331.4M331.4,90.7V68.7H356.5M356.5,68.7V45.8H381.6M381.6,45.8V24.6H406.7M406.7,24.6V14.1H431.8M431.8,14.1V7H456.9M431.8,14.1V21.1H456.9M406.7,24.6V35.2H431.8M381.6,45.8V66.9H406.7M406.7,66.9V56.3H431.8M431.8,56.3V49.3H456.9M431.8,56.3V63.4H456.9M406.7,66.9V77.5H431.8M356.5,68.7V91.6H381.6M331.4,90.7V112.8H356.5M356.5,112.8V105.7H381.6M356.5,112.8V119.8H381.6M306.3,112.3V133.9H331.4M281.2,174.3V236.2H306.3M306.3,236.2V218.7H331.4M331.4,218.7V204.8H356.5M356.5,204.8V191.2H381.6M381.6,191.2V178H406.7M406.7,178V165.6H431.8M431.8,165.6V155.1H456.9M456.9,155.1V148H482M456.9,155.1V162.1H482M431.8,165.6V176.2H456.9M406.7,178V190.3H431.8M381.6,191.2V204.4H406.7M356.5,204.8V218.5H381.6M331.4,218.7V232.6H356.5M306.3,236.2V253.7H331.4M331.4,253.7V246.7H356.5M331.4,253.7V260.8H356.5M256.1,224.6V274.9H281.2M230.9,256.8V289H256.1M205.8,294.9V333.1H230.9M230.9,333.1V320.7H256.1M256.1,320.7V310.1H281.2M281.2,310.1V303.1H306.3M281.2,310.1V317.2H306.3M256.1,320.7V331.3H281.2M230.9,333.1V345.4H256.1M180.7,402.5V510H205.8M205.8,510V491.3H230.9M230.9,491.3V468H256.1M256.1,468V442.6H281.2M281.2,442.6V419.9H306.3M306.3,419.9V402.7H331.4M331.4,402.7V389.5H356.5M356.5,389.5V377.1H381.6M381.6,377.1V366.5H406.7M406.7,366.5V359.5H431.8M406.7,366.5V373.6H431.8M381.6,377.1V387.7H406.7M356.5,389.5V401.8H381.6M331.4,402.7V415.9H356.5M306.3,419.9V437H331.4M331.4,437V430H356.5M331.4,437V444.1H356.5M281.2,442.6V465.2H306.3M306.3,465.2V458.2H331.4M306.3,465.2V472.3H331.4M256.1,468V493.4H281.2M281.2,493.4V486.4H306.3M281.2,493.4V500.5H306.3M230.9,491.3V514.6H256.1M205.8,510V528.7H230.9M130.5,645V655.6H155.6" stroke="#91bfdb"></path><path d="M130.5,645V634.5H155.6M155.6,634.5V627.4H180.7M155.6,634.5V641.5H180.7M105.4,657.4V669.7H130.5" stroke="#fc8d59"></path><text x="32.1" y="666.7" class="node" fill="#8696E1">0.83</text><text x="57.2" y="632.4" class="node" fill="#DF758D">0.15</text><text x="82.3" y="591.2" class="node" fill="#E28699">0.2</text><text x="107.4" y="566.2" class="node" fill="#D7D9E3">0.54</text><text x="132.5" y="530.1" class="node" fill="#E4D6D8">0.46</text><text x="157.6" y="479.2" class="node" fill="#E4D6D8">0.46</text><text x="182.7" y="405.5" class="node" fill="#5B78E2">0.96</text><text x="207.8" y="297.9" class="node" fill="#4A6FE3">1</text><text x="232.9" y="259.8" class="node" fill="#D2D4E3">0.57</text><text x="258.1" y="227.6" class="node" fill="#D2D4E3">0.57</text><text x="283.2" y="177.3" class="node" fill="#E4D6D8">0.46</text><text x="308.3" y="115.3" class="node" fill="#D2D4E3">0.57</text><text x="333.4" y="93.7" class="node" fill="#5374E2">0.98</text><text x="358.5" y="71.7" class="node" fill="#95A1E2">0.78</text><text x="383.6" y="48.8" class="node" fill="#5374E2">0.98</text><text x="408.7" y="27.6" class="node" fill="#4A6FE3">1</text><text x="433.8" y="17.1" class="node" fill="#5374E2">0.98</text><text x="408.7" y="69.9" class="node" fill="#5374E2">0.98</text><text x="433.8" y="59.3" class="node" fill="#4A6FE3">1</text><text x="358.5" y="115.8" class="node" fill="#E3DCDD">0.48</text><text x="308.3" y="239.2" class="node" fill="#D7D9E3">0.54</text><text x="333.4" y="221.7" class="node" fill="#5374E2">0.98</text><text x="358.5" y="207.8" class="node" fill="#5374E2">0.98</text><text x="383.6" y="194.2" class="node" fill="#4A6FE3">1</text><text x="408.7" y="181" class="node" fill="#4A6FE3">1</text><text x="433.8" y="168.6" class="node" fill="#4A6FE3">1</text><text x="458.9" y="158.1" class="node" fill="#5374E2">0.98</text><text x="333.4" y="256.7" class="node" fill="#4A6FE3">1</text><text x="232.9" y="336.1" class="node" fill="#4A6FE3">1</text><text x="258.1" y="323.7" class="node" fill="#4A6FE3">1</text><text x="283.2" y="313.1" class="node" fill="#5B78E2">0.96</text><text x="207.8" y="513" class="node" fill="#5B78E2">0.96</text><text x="232.9" y="494.3" class="node" fill="#5B78E2">0.96</text><text x="258.1" y="471" class="node" fill="#5374E2">0.98</text><text x="283.2" y="445.6" class="node" fill="#5374E2">0.98</text><text x="308.3" y="422.9" class="node" fill="#5374E2">0.98</text><text x="333.4" y="405.7" class="node" fill="#5374E2">0.98</text><text x="358.5" y="392.5" class="node" fill="#4A6FE3">1</text><text x="383.6" y="380.1" class="node" fill="#E2E2E2">0.5</text><text x="408.7" y="369.5" class="node" fill="#4A6FE3">1</text><text x="333.4" y="440" class="node" fill="#4A6FE3">1</text><text x="308.3" y="468.2" class="node" fill="#5B78E2">0.96</text><text x="283.2" y="496.4" class="node" fill="#4A6FE3">1</text><text x="182.7" y="552.8" class="node" fill="#B9BFE3">0.65</text><text x="157.6" y="581" class="node" fill="#D7D9E3">0.54</text><text x="82.3" y="673.6" class="node" fill="#E2E2E2">0.5</text><text x="107.4" y="660.4" class="node" fill="#D7D9E3">0.54</text><text x="132.5" y="648" class="node" fill="#4A6FE3">1</text><text x="157.6" y="637.5" class="node" fill="#8696E1">0.83</text></svg>
