<svg xmlns="http://www.w3.org/2000/svg" version="1.1" viewBox="0 0 682 720" preserveAspectRatio="xMidYMid meet" class="tree" data-char="200"><text x="678" y="16.8" text-anchor="end" class="stepsLabel">Character adds <tspan class="score">2</tspan> to tree score</text><text x="678" y="30.6" text-anchor="end" class="stepsLabel"><tspan class="score">0</tspan> additional regions</text><text x="678" y="44.4" text-anchor="end" class="stepsLabel"></text><text x="678" y="72" text-anchor="end" class="stepsLabel"><tspan dy="16" fill="#34caaf">An optimal tree under:</tspan><tspan x="680" style="font-style:italic" class="notThisAn" dy="1.2em">Implied weights, k = 3</tspan><tspan x="680" style="font-style:italic" class="notThisAn" dy="1.2em">IW, k = 4.5</tspan><tspan x="680" style="font-style:italic" class="notThisAn" dy="1.2em">IW, k = 7</tspan><tspan x="680" style="font-style:italic" class="notThisAn" dy="1.2em">IW, k = 10.5</tspan><tspan x="680" style="font-style:italic" class="notThisAn" dy="1.2em">IW, k = 16</tspan><tspan x="680" style="font-style:italic" class="thisAn" dy="1.2em">IW, k = 24</tspan><tspan x="680" style="font-style:italic" class="notThisAn" dy="1.2em">Equal weights</tspan></text><text x="141.3" y="658.6" fill="grey" class="flag">[?]</text><text x="163.3" y="658.6" fill="#999" class="taxonLabel">Orthrozanclus</text><text x="141.3" y="672.7" fill="grey" class="flag">[?]</text><text x="163.3" y="672.7" fill="#999" class="taxonLabel">Halkieria evangelista</text><text x="164" y="630.4" fill="grey" class="flag">[?]</text><text x="186" y="630.4" fill="#999" class="taxonLabel">Pedunculotheca diania</text><text x="164" y="644.5" fill="grey" class="flag">[?]</text><text x="186" y="644.5" fill="#999" class="taxonLabel">Haplophrentis carinatus</text><text x="232.1" y="574" fill="grey" class="flag">[?]</text><text x="254.1" y="574" fill="#999" class="taxonLabel">Mickwitzia muralensis</text><text x="232.1" y="588.1" fill="grey" class="flag">[?]</text><text x="254.1" y="588.1" fill="#999" class="taxonLabel">Heliomedusa orienta</text><text x="254.9" y="545.8" fill="grey" class="flag">[?]</text><text x="276.9" y="545.8" fill="#999" class="taxonLabel">Micromitra</text><text x="254.9" y="559.9" fill="grey" class="flag">[?]</text><text x="276.9" y="559.9" fill="#999" class="taxonLabel">Gasconsia</text><text x="277.6" y="517.6" fill="grey" class="flag">[?]</text><text x="299.6" y="517.6" fill="#999" class="taxonLabel">Terebratulina</text><text x="277.6" y="531.7" fill="grey" class="flag">[?]</text><text x="299.6" y="531.7" fill="#999" class="taxonLabel">Orthis</text><text x="345.7" y="447.1" fill="grey" class="flag">[?]</text><text x="367.7" y="447.1" fill="#999" class="taxonLabel">Yuganotheca elegans</text><text x="345.7" y="461.2" fill="grey" class="flag">[?]</text><text x="367.7" y="461.2" fill="#999" class="taxonLabel">Lingulellotreta malongensis</text><text x="323" y="475.3" fill="#fc8d59" class="flag">[0]</text><text x="345" y="475.3" fill="#000" class="taxonLabel">Lingula</text><text x="300.3" y="489.4" fill="grey" class="flag">[?]</text><text x="322.3" y="489.4" fill="#999" class="taxonLabel">Pelagodiscus atlanticus</text><text x="277.6" y="503.5" fill="#fc8d59" class="flag">[0]</text><text x="299.6" y="503.5" fill="#000" class="taxonLabel">Novocrania</text><text x="186.7" y="602.2" fill="grey" class="flag">[?]</text><text x="208.7" y="602.2" fill="#999" class="taxonLabel">Micrina</text><text x="164" y="616.3" fill="grey" class="flag">[?]</text><text x="186" y="616.3" fill="#999" class="taxonLabel">Paterimitra</text><text x="95.9" y="686.8" fill="grey" class="flag">[?]</text><text x="117.9" y="686.8" fill="#999" class="taxonLabel">Eccentrotheca</text><text x="186.7" y="376.6" fill="#fc8d59" class="flag">[0]</text><text x="208.7" y="376.6" fill="#000" class="taxonLabel">Flustra</text><text x="186.7" y="390.7" fill="#fc8d59" class="flag">[0]</text><text x="208.7" y="390.7" fill="#000" class="taxonLabel">Amathia</text><text x="277.6" y="306.1" fill="#91bfdb" class="flag">[1]</text><text x="299.6" y="306.1" fill="#000" class="taxonLabel">Serpula</text><text x="277.6" y="320.2" fill="#91bfdb" class="flag">[1]</text><text x="299.6" y="320.2" fill="#000" class="taxonLabel">Capitella</text><text x="254.9" y="334.3" fill="grey" class="flag">[?]</text><text x="276.9" y="334.3" fill="#999" class="taxonLabel">Canadia spinosa</text><text x="232.1" y="348.4" fill="#91bfdb" class="flag">[1]</text><text x="254.1" y="348.4" fill="#000" class="taxonLabel">Sipunculus</text><text x="482" y="136.9" fill="#91bfdb" class="flag">[1]</text><text x="504" y="136.9" fill="#000" class="taxonLabel">Tonicella</text><text x="482" y="151" fill="#91bfdb" class="flag">[1]</text><text x="504" y="151" fill="#000" class="taxonLabel">Mopalia</text><text x="459.3" y="165.1" fill="grey" class="flag">[?]</text><text x="481.3" y="165.1" fill="#999" class="taxonLabel">Polysacos vickersianum</text><text x="436.6" y="179.2" fill="#91bfdb" class="flag">[1]</text><text x="458.6" y="179.2" fill="#000" class="taxonLabel">Leptochiton</text><text x="413.9" y="193.3" fill="grey" class="flag">[?]</text><text x="435.9" y="193.3" fill="#999" class="taxonLabel">Glaphurochiton carbonarius</text><text x="391.1" y="207.4" fill="grey" class="flag">[?]</text><text x="413.1" y="207.4" fill="#999" class="taxonLabel">Calvapilosa kroegeri</text><text x="413.9" y="108.7" fill="grey" class="flag">[?]</text><text x="435.9" y="108.7" fill="#999" class="taxonLabel">Wiwaxia corrugata</text><text x="413.9" y="122.8" fill="grey" class="flag">[?]</text><text x="435.9" y="122.8" fill="#999" class="taxonLabel">Odontogriphus omalus</text><text x="459.3" y="66.4" fill="grey" class="flag">[?]</text><text x="481.3" y="66.4" fill="#999" class="taxonLabel">Pojetaia runnegari</text><text x="459.3" y="80.5" fill="#fc8d59" class="flag">[0]</text><text x="481.3" y="80.5" fill="#000" class="taxonLabel">Mytilus</text><text x="436.6" y="94.6" fill="#fc8d59" class="flag">[0]</text><text x="458.6" y="94.6" fill="#000" class="taxonLabel">Dentalium</text><text x="482" y="10" fill="#fc8d59" class="flag">[0]</text><text x="504" y="10" fill="#000" class="taxonLabel">Neopilina</text><text x="482" y="24.1" fill="grey" class="flag">[?]</text><text x="504" y="24.1" fill="#999" class="taxonLabel">Conocardium elongatum</text><text x="459.3" y="38.2" fill="grey" class="flag">[?]</text><text x="481.3" y="38.2" fill="#999" class="taxonLabel">Haliotis</text><text x="436.6" y="52.3" fill="grey" class="flag">[?]</text><text x="458.6" y="52.3" fill="#999" class="taxonLabel">Pelagiella</text><text x="345.7" y="221.5" fill="grey" class="flag">[?]</text><text x="367.7" y="221.5" fill="#999" class="taxonLabel">Siphogonuchites multa</text><text x="323" y="235.6" fill="grey" class="flag">[?]</text><text x="345" y="235.6" fill="#999" class="taxonLabel">Acaenoplax hayae</text><text x="300.3" y="249.7" fill="grey" class="flag">[?]</text><text x="322.3" y="249.7" fill="#999" class="taxonLabel">Phthipodochiton thraivensis</text><text x="277.6" y="263.8" fill="grey" class="flag">[?]</text><text x="299.6" y="263.8" fill="#999" class="taxonLabel">Kulindroplax perissokomos</text><text x="254.9" y="277.9" fill="#91bfdb" class="flag">[1]</text><text x="276.9" y="277.9" fill="#000" class="taxonLabel">Chaetoderma</text><text x="232.1" y="292" fill="#91bfdb" class="flag">[1]</text><text x="254.1" y="292" fill="#000" class="taxonLabel">Wirenia</text><text x="186.7" y="362.5" fill="#fc8d59" class="flag">[0]</text><text x="208.7" y="362.5" fill="#000" class="taxonLabel">Loxosomella</text><text x="141.3" y="404.8" fill="#fc8d59" class="flag">[0]</text><text x="163.3" y="404.8" fill="#000" class="taxonLabel">Phoronis</text><text x="118.6" y="418.9" fill="grey" class="flag">[?]</text><text x="140.6" y="418.9" fill="#999" class="taxonLabel">Namacalathus</text><text x="95.9" y="433" fill="grey" class="flag">[?]</text><text x="117.9" y="433" fill="#999" class="taxonLabel">Cotyledion tylodes</text><text x="50.4" y="700.9" fill="grey" class="flag">[?]</text><text x="72.4" y="700.9" fill="#999" class="taxonLabel">Dailyatia</text><text x="27.7" y="715" fill="grey" class="flag">[?]</text><text x="49.7" y="715" fill="#999" class="taxonLabel">Yilingia spiciformis</text><path d="M5,664.8V617.7H27.7M27.7,617.7V537.5H50.4M50.4,537.5V413.7H73.1M73.1,413.7V397.4H95.9M95.9,397.4V378.9H118.6M118.6,378.9V356.1H141.3M141.3,356.1V331.5H164M368.4,85.9V59H391.1M391.1,59V37H413.9M413.9,37V24.6H436.6M436.6,24.6V14.1H459.3M459.3,14.1V7H482M459.3,14.1V21.1H482M436.6,24.6V35.2H459.3M413.9,37V49.3H436.6M391.1,59V81H413.9M413.9,81V70.5H436.6M436.6,70.5V63.4H459.3M436.6,70.5V77.5H459.3M413.9,81V91.6H436.6M164,331.5V359.5H186.7M141.3,356.1V380.6H164M164,380.6V373.6H186.7M164,380.6V387.7H186.7M118.6,378.9V401.8H141.3M95.9,397.4V415.9H118.6M73.1,413.7V430H95.9M50.4,537.5V661.2H73.1M73.1,661.2V638.6H95.9M95.9,638.6V614.5H118.6M118.6,614.5V594.6H141.3M141.3,594.6V575.9H164M164,575.9V552.6H186.7M186.7,552.6V527.2H209.4M209.4,527.2V504.5H232.1M232.1,504.5V487.3H254.9M254.9,487.3V474.1H277.6M277.6,474.1V461.7H300.3M300.3,461.7V451.1H323M323,451.1V444.1H345.7M323,451.1V458.2H345.7M300.3,461.7V472.3H323M277.6,474.1V486.4H300.3M254.9,487.3V500.5H277.6M232.1,504.5V521.6H254.9M254.9,521.6V514.6H277.6M254.9,521.6V528.7H277.6M209.4,527.2V549.8H232.1M232.1,549.8V542.8H254.9M232.1,549.8V556.9H254.9M186.7,552.6V578H209.4M209.4,578V571H232.1M209.4,578V585.1H232.1M164,575.9V599.2H186.7M141.3,594.6V613.3H164M118.6,614.5V634.5H141.3M141.3,634.5V627.4H164M141.3,634.5V641.5H164M95.9,638.6V662.6H118.6M118.6,662.6V655.6H141.3M118.6,662.6V669.7H141.3M73.1,661.2V683.8H95.9M27.7,617.7V697.9H50.4M5,664.8V712H27.7" stroke="#fc8d59"></path><path d="M164,331.5V303.6H186.7M186.7,303.6V274.1H209.4M209.4,274.1V259.2H232.1M232.1,259.2V243.5H254.9M254.9,243.5V226.1H277.6M277.6,226.1V205.5H300.3M300.3,205.5V178.4H323M323,178.4V138.3H345.7M345.7,138.3V85.9H368.4M345.7,138.3V190.7H368.4M368.4,190.7V177.1H391.1M391.1,177.1V163.9H413.9M413.9,163.9V151.5H436.6M436.6,151.5V140.9H459.3M459.3,140.9V133.9H482M459.3,140.9V148H482M436.6,151.5V162.1H459.3M413.9,163.9V176.2H436.6M391.1,177.1V190.3H413.9M368.4,190.7V204.4H391.1M323,178.4V218.5H345.7M300.3,205.5V232.6H323M277.6,226.1V246.7H300.3M254.9,243.5V260.8H277.6M232.1,259.2V274.9H254.9M209.4,274.1V289H232.1M186.7,303.6V333.1H209.4M209.4,333.1V320.7H232.1M232.1,320.7V310.1H254.9M254.9,310.1V303.1H277.6M254.9,310.1V317.2H277.6M232.1,320.7V331.3H254.9M209.4,333.1V345.4H232.1" stroke="#91bfdb"></path><path d="M368.4,85.9V112.8H391.1M391.1,112.8V105.7H413.9M391.1,112.8V119.8H413.9" stroke="darkgrey"></path><text x="29.7" y="620.7" class="node" fill="#DADBE3">0.53</text><text x="52.4" y="540.5" class="node" fill="#D85778">0.06</text><text x="75.1" y="416.7" class="node" fill="#E498A7">0.26</text><text x="97.9" y="400.4" class="node" fill="#DC6884">0.11</text><text x="120.6" y="381.9" class="node" fill="#E498A7">0.26</text><text x="143.3" y="359.1" class="node" fill="#E498A7">0.26</text><text x="166" y="334.5" class="node" fill="#C4C9E3">0.61</text><text x="188.7" y="306.6" class="node" fill="#4A6FE3">1</text><text x="211.4" y="277.1" class="node" fill="#E498A7">0.26</text><text x="234.1" y="262.2" class="node" fill="#E498A7">0.26</text><text x="256.9" y="246.5" class="node" fill="#E498A7">0.26</text><text x="279.6" y="229.1" class="node" fill="#E498A7">0.26</text><text x="302.3" y="208.5" class="node" fill="#E4D9DB">0.47</text><text x="325" y="181.4" class="node" fill="#DD6F88">0.13</text><text x="347.7" y="141.3" class="node" fill="#7388E1">0.89</text><text x="370.4" y="88.9" class="node" fill="#7388E1">0.89</text><text x="393.1" y="62" class="node" fill="#DB6581">0.1</text><text x="415.9" y="40" class="node" fill="#4A6FE3">1</text><text x="438.6" y="27.6" class="node" fill="#4A6FE3">1</text><text x="461.3" y="17.1" class="node" fill="#4A6FE3">1</text><text x="415.9" y="84" class="node" fill="#4A6FE3">1</text><text x="438.6" y="73.5" class="node" fill="#4A6FE3">1</text><text x="393.1" y="115.8" class="node" fill="#A3ADE2">0.73</text><text x="370.4" y="193.7" class="node" fill="#A3ADE2">0.73</text><text x="393.1" y="180.1" class="node" fill="#4A6FE3">1</text><text x="415.9" y="166.9" class="node" fill="#4A6FE3">1</text><text x="438.6" y="154.5" class="node" fill="#4A6FE3">1</text><text x="461.3" y="143.9" class="node" fill="#4A6FE3">1</text><text x="211.4" y="336.1" class="node" fill="#4A6FE3">1</text><text x="234.1" y="323.7" class="node" fill="#4A6FE3">1</text><text x="256.9" y="313.1" class="node" fill="#4A6FE3">1</text><text x="166" y="383.6" class="node" fill="#E18297">0.19</text><text x="75.1" y="664.2" class="node" fill="#E6BAC2">0.37</text><text x="97.9" y="641.6" class="node" fill="#BCC2E3">0.64</text><text x="120.6" y="617.5" class="node" fill="#A3ADE2">0.73</text><text x="143.3" y="597.6" class="node" fill="#A3ADE2">0.73</text><text x="166" y="578.9" class="node" fill="#A3ADE2">0.73</text><text x="188.7" y="555.6" class="node" fill="#A3ADE2">0.73</text><text x="211.4" y="530.2" class="node" fill="#A3ADE2">0.73</text><text x="234.1" y="507.5" class="node" fill="#A3ADE2">0.73</text><text x="256.9" y="490.3" class="node" fill="#A3ADE2">0.73</text><text x="279.6" y="477.1" class="node" fill="#4A6FE3">1</text><text x="302.3" y="464.7" class="node" fill="#E6C1C7">0.39</text><text x="325" y="454.1" class="node" fill="#4A6FE3">1</text><text x="256.9" y="524.6" class="node" fill="#4A6FE3">1</text><text x="234.1" y="552.8" class="node" fill="#A3ADE2">0.73</text><text x="211.4" y="581" class="node" fill="#4A6FE3">1</text><text x="143.3" y="637.5" class="node" fill="#97A4E2">0.77</text><text x="120.6" y="665.6" class="node" fill="#DADBE3">0.53</text></svg>
