<svg xmlns="http://www.w3.org/2000/svg" version="1.1" viewBox="0 0 682 720" preserveAspectRatio="xMidYMid meet" class="tree" data-char="218"><text x="678" y="12.7" text-anchor="end" class="stepsLabel">Character adds <tspan class="score">4</tspan> to tree score</text><text x="678" y="22.4" text-anchor="end" class="stepsLabel"><tspan class="score">0</tspan> additional regions</text><text x="678" y="32.1" text-anchor="end" class="stepsLabel"></text><text x="678" y="51.5" text-anchor="end" class="stepsLabel"><tspan dy="16" fill="#34caaf">An optimal tree under:</tspan><tspan x="680" style="font-style:italic" class="notThisAn" dy="1.2em">Implied weights, k = 4.5</tspan><tspan x="680" style="font-style:italic" class="notThisAn" dy="1.2em">IW, k = 10.5</tspan><tspan x="680" style="font-style:italic" class="notThisAn" dy="1.2em">IW, k = 24</tspan><tspan x="680" style="font-style:italic" class="thisAn" dy="1.2em">Equal weights</tspan></text><text x="148.1" y="675.8" fill="grey" class="flag">[?]</text><text x="170.1" y="675.8" fill="#999" class="taxonLabel">Paramicrocornus</text><text x="148.1" y="685.6" fill="grey" class="flag">[?]</text><text x="170.1" y="685.6" fill="#999" class="taxonLabel">Haplophrentis carinatus</text><text x="291.2" y="617.1" fill="#91bfdb" class="flag">[2]</text><text x="313.2" y="617.1" fill="#000" class="taxonLabel">Serpula</text><text x="291.2" y="626.9" fill="#91bfdb" class="flag">[2]</text><text x="313.2" y="626.9" fill="#000" class="taxonLabel">Capitella</text><text x="267.4" y="636.7" fill="grey" class="flag">[?]</text><text x="289.4" y="636.7" fill="#999" class="taxonLabel">Canadia spinosa</text><text x="243.5" y="646.5" fill="#91bfdb" class="flag">[2]</text><text x="265.5" y="646.5" fill="#000" class="taxonLabel">Sipunculus</text><text x="386.6" y="548.5" fill="#91bfdb" class="flag">[2]</text><text x="408.6" y="548.5" fill="#000" class="taxonLabel">Haliotis</text><text x="386.6" y="558.3" fill="grey" class="flag">[?]</text><text x="408.6" y="558.3" fill="#999" class="taxonLabel">Conocardium elongatum</text><text x="362.8" y="568.1" fill="grey" class="flag">[?]</text><text x="384.8" y="568.1" fill="#999" class="taxonLabel">Neopilina</text><text x="338.9" y="577.9" fill="grey" class="flag">[?]</text><text x="360.9" y="577.9" fill="#999" class="taxonLabel">Pojetaia runnegari</text><text x="315.1" y="587.7" fill="#e2e2a2" class="flag">[1]</text><text x="337.1" y="587.7" fill="#000" class="taxonLabel">Mytilus</text><text x="291.2" y="597.5" fill="#e2e2a2" class="flag">[1]</text><text x="313.2" y="597.5" fill="#000" class="taxonLabel">Dentalium</text><text x="267.4" y="607.3" fill="grey" class="flag">[?]</text><text x="289.4" y="607.3" fill="#999" class="taxonLabel">Pelagiella</text><text x="291.2" y="529" fill="grey" class="flag">[?]</text><text x="313.2" y="529" fill="#999" class="taxonLabel">Wiwaxia corrugata</text><text x="291.2" y="538.8" fill="grey" class="flag">[?]</text><text x="313.2" y="538.8" fill="#999" class="taxonLabel">Odontogriphus omalus</text><text x="362.8" y="499.6" fill="#e2e2a2" class="flag">[1]</text><text x="384.8" y="499.6" fill="#000" class="taxonLabel">Wirenia</text><text x="362.8" y="509.4" fill="grey" class="flag">[?]</text><text x="384.8" y="509.4" fill="#999" class="taxonLabel">Chaetoderma</text><text x="386.6" y="470.2" fill="grey" class="flag">[?]</text><text x="408.6" y="470.2" fill="#999" class="taxonLabel">Phthipodochiton thraivensis</text><text x="386.6" y="480" fill="grey" class="flag">[?]</text><text x="408.6" y="480" fill="#999" class="taxonLabel">Kulindroplax perissokomos</text><text x="362.8" y="489.8" fill="grey" class="flag">[?]</text><text x="384.8" y="489.8" fill="#999" class="taxonLabel">Acaenoplax hayae</text><text x="386.6" y="440.8" fill="grey" class="flag">[?]</text><text x="408.6" y="440.8" fill="#999" class="taxonLabel">Glaphurochiton carbonarius</text><text x="386.6" y="450.6" fill="grey" class="flag">[?]</text><text x="408.6" y="450.6" fill="#999" class="taxonLabel">Calvapilosa kroegeri</text><text x="410.5" y="411.5" fill="#91bfdb" class="flag">[2]</text><text x="432.5" y="411.5" fill="#000" class="taxonLabel">Tonicella</text><text x="410.5" y="421.2" fill="grey" class="flag">[?]</text><text x="432.5" y="421.2" fill="#999" class="taxonLabel">Mopalia</text><text x="386.6" y="431" fill="grey" class="flag">[?]</text><text x="408.6" y="431" fill="#999" class="taxonLabel">Leptochiton</text><text x="338.9" y="460.4" fill="grey" class="flag">[?]</text><text x="360.9" y="460.4" fill="#999" class="taxonLabel">Polysacos vickersianum</text><text x="291.2" y="519.2" fill="grey" class="flag">[?]</text><text x="313.2" y="519.2" fill="#999" class="taxonLabel">Siphogonuchites multa</text><text x="195.8" y="656.2" fill="grey" class="flag">[?]</text><text x="217.8" y="656.2" fill="#999" class="taxonLabel">Bactrotheca</text><text x="172" y="666" fill="grey" class="flag">[?]</text><text x="194" y="666" fill="#999" class="taxonLabel">Cupitheca holocyclata</text><text x="267.4" y="362.5" fill="grey" class="flag">[?]</text><text x="289.4" y="362.5" fill="#999" class="taxonLabel">Mickwitzia muralensis</text><text x="267.4" y="372.3" fill="grey" class="flag">[?]</text><text x="289.4" y="372.3" fill="#999" class="taxonLabel">Heliomedusa orienta</text><text x="362.8" y="323.3" fill="#91bfdb" class="flag">[2]</text><text x="384.8" y="323.3" fill="#000" class="taxonLabel">Novocrania</text><text x="362.8" y="333.1" fill="grey" class="flag">[?]</text><text x="384.8" y="333.1" fill="#999" class="taxonLabel">Craniops</text><text x="338.9" y="342.9" fill="grey" class="flag">[?]</text><text x="360.9" y="342.9" fill="#999" class="taxonLabel">Ussunia</text><text x="315.1" y="352.7" fill="grey" class="flag">[?]</text><text x="337.1" y="352.7" fill="#999" class="taxonLabel">Gasconsia</text><text x="410.5" y="274.4" fill="#91bfdb" class="flag">[2]</text><text x="432.5" y="274.4" fill="#000" class="taxonLabel">Pelagodiscus atlanticus</text><text x="410.5" y="284.2" fill="grey" class="flag">[?]</text><text x="432.5" y="284.2" fill="#999" class="taxonLabel">Mummpikia nuda</text><text x="482" y="225.4" fill="grey" class="flag">[?]</text><text x="504" y="225.4" fill="#999" class="taxonLabel">Siphonobolus priscus</text><text x="482" y="235.2" fill="grey" class="flag">[?]</text><text x="504" y="235.2" fill="#999" class="taxonLabel">Acanthotretella spinosa</text><text x="458.2" y="245" fill="grey" class="flag">[?]</text><text x="480.2" y="245" fill="#999" class="taxonLabel">Lingulosacculus</text><text x="434.3" y="254.8" fill="grey" class="flag">[?]</text><text x="456.3" y="254.8" fill="#999" class="taxonLabel">Clupeafumosus socialis</text><text x="410.5" y="264.6" fill="grey" class="flag">[?]</text><text x="432.5" y="264.6" fill="#999" class="taxonLabel">Lingulellotreta malongensis</text><text x="362.8" y="294" fill="grey" class="flag">[?]</text><text x="384.8" y="294" fill="#999" class="taxonLabel">Botsfordia</text><text x="338.9" y="303.8" fill="grey" class="flag">[?]</text><text x="360.9" y="303.8" fill="#999" class="taxonLabel">Eoobolus</text><text x="315.1" y="313.5" fill="#91bfdb" class="flag">[2]</text><text x="337.1" y="313.5" fill="#000" class="taxonLabel">Lingula</text><text x="315.1" y="205.8" fill="grey" class="flag">[?]</text><text x="337.1" y="205.8" fill="#999" class="taxonLabel">Micromitra</text><text x="315.1" y="215.6" fill="grey" class="flag">[?]</text><text x="337.1" y="215.6" fill="#999" class="taxonLabel">Askepasma toddense</text><text x="386.6" y="166.7" fill="grey" class="flag">[?]</text><text x="408.6" y="166.7" fill="#999" class="taxonLabel">Yuganotheca elegans</text><text x="386.6" y="176.5" fill="grey" class="flag">[?]</text><text x="408.6" y="176.5" fill="#999" class="taxonLabel">Tomteluva perturbata</text><text x="362.8" y="186.2" fill="grey" class="flag">[?]</text><text x="384.8" y="186.2" fill="#999" class="taxonLabel">Longtancunella chengjiangensis</text><text x="386.6" y="147.1" fill="grey" class="flag">[?]</text><text x="408.6" y="147.1" fill="#999" class="taxonLabel">Coolinia pecten</text><text x="386.6" y="156.9" fill="grey" class="flag">[?]</text><text x="408.6" y="156.9" fill="#999" class="taxonLabel">Antigonambonites planus</text><text x="482" y="88.3" fill="#91bfdb" class="flag">[2]</text><text x="504" y="88.3" fill="#000" class="taxonLabel">Terebratulina</text><text x="482" y="98.1" fill="grey" class="flag">[?]</text><text x="504" y="98.1" fill="#999" class="taxonLabel">Orthis</text><text x="458.2" y="107.9" fill="grey" class="flag">[?]</text><text x="480.2" y="107.9" fill="#999" class="taxonLabel">Alisina</text><text x="434.3" y="117.7" fill="grey" class="flag">[?]</text><text x="456.3" y="117.7" fill="#999" class="taxonLabel">Glyptoria</text><text x="410.5" y="127.5" fill="grey" class="flag">[?]</text><text x="432.5" y="127.5" fill="#999" class="taxonLabel">Nisusia sulcata</text><text x="386.6" y="137.3" fill="grey" class="flag">[?]</text><text x="408.6" y="137.3" fill="#999" class="taxonLabel">Kutorgina chengjiangensis</text><text x="315.1" y="196" fill="grey" class="flag">[?]</text><text x="337.1" y="196" fill="#999" class="taxonLabel">Salanygolina</text><text x="219.7" y="382.1" fill="grey" class="flag">[?]</text><text x="241.7" y="382.1" fill="#999" class="taxonLabel">Micrina</text><text x="195.8" y="391.9" fill="grey" class="flag">[?]</text><text x="217.8" y="391.9" fill="#999" class="taxonLabel">Paterimitra</text><text x="172" y="401.7" fill="grey" class="flag">[?]</text><text x="194" y="401.7" fill="#999" class="taxonLabel">Pedunculotheca diania</text><text x="100.4" y="695.4" fill="grey" class="flag">[?]</text><text x="122.4" y="695.4" fill="#999" class="taxonLabel">Halkieria evangelista</text><text x="76.6" y="705.2" fill="grey" class="flag">[?]</text><text x="98.6" y="705.2" fill="#999" class="taxonLabel">Orthrozanclus</text><text x="124.2" y="59" fill="grey" class="flag">[?]</text><text x="146.2" y="59" fill="#999" class="taxonLabel">Eccentrotheca</text><text x="124.2" y="68.8" fill="grey" class="flag">[?]</text><text x="146.2" y="68.8" fill="#999" class="taxonLabel">Cotyledion tylodes</text><text x="195.8" y="10" fill="#e2e2a2" class="flag">[1]</text><text x="217.8" y="10" fill="#000" class="taxonLabel">Flustra</text><text x="195.8" y="19.8" fill="grey" class="flag">[?]</text><text x="217.8" y="19.8" fill="#999" class="taxonLabel">Amathia</text><text x="172" y="29.6" fill="#91bfdb" class="flag">[2]</text><text x="194" y="29.6" fill="#000" class="taxonLabel">Loxosomella</text><text x="148.1" y="39.4" fill="grey" class="flag">[?]</text><text x="170.1" y="39.4" fill="#999" class="taxonLabel">Namacalathus</text><text x="124.2" y="49.2" fill="#91bfdb" class="flag">[2]</text><text x="146.2" y="49.2" fill="#000" class="taxonLabel">Phoronis</text><text x="76.6" y="78.5" fill="grey" class="flag">[?]</text><text x="98.6" y="78.5" fill="#999" class="taxonLabel">Dailyatia</text><text x="28.9" y="715" fill="grey" class="flag">[?]</text><text x="50.9" y="715" fill="#999" class="taxonLabel">Yilingia spiciformis</text><path d="M5,539.8V367.6H28.9M28.9,367.6V62.2H52.7M52.7,62.2V48.9H76.6M76.6,48.9V37H100.4M100.4,37V27.8H124.2M124.2,27.8V19.2H148.1M148.1,19.2V11.9H172M148.1,19.2V26.6H172M124.2,27.8V36.4H148.1M100.4,37V46.2H124.2M76.6,48.9V60.9H100.4M100.4,60.9V56H124.2M100.4,60.9V65.8H124.2M52.7,62.2V75.5H76.6M28.9,367.6V673.1H52.7M52.7,673.1V643.9H76.6M76.6,643.9V595.4H100.4M100.4,595.4V513H124.2M124.2,513V382.7H148.1M148.1,382.7V366.7H172M172,366.7V344.6H195.8M195.8,344.6V310.1H219.7M219.7,310.1V255.9H243.5M243.5,255.9V191.2H267.4M267.4,191.2V174.7H291.2M291.2,174.7V156.4H315.1M315.1,156.4V136.9H338.9M338.9,136.9V124.8H362.8M362.8,124.8V115.3H386.6M386.6,115.3V106.1H410.5M410.5,106.1V97.6H434.3M434.3,97.6V90.2H458.2M458.2,90.2V85.3H482M458.2,90.2V95.1H482M434.3,97.6V104.9H458.2M410.5,106.1V114.7H434.3M386.6,115.3V124.5H410.5M362.8,124.8V134.3H386.6M338.9,136.9V149H362.8M362.8,149V144.1H386.6M362.8,149V153.9H386.6M315.1,156.4V175.9H338.9M338.9,175.9V168.6H362.8M362.8,168.6V163.7H386.6M362.8,168.6V173.5H386.6M338.9,175.9V183.2H362.8M291.2,174.7V193H315.1M267.4,191.2V207.7H291.2M291.2,207.7V202.8H315.1M291.2,207.7V212.6H315.1M243.5,255.9V320.5H267.4M267.4,320.5V299.9H291.2M291.2,299.9V289.2H315.1M315.1,289.2V277.6H338.9M338.9,277.6V264.3H362.8M362.8,264.3V252.4H386.6M386.6,252.4V243.2H410.5M410.5,243.2V234.7H434.3M434.3,234.7V227.3H458.2M458.2,227.3V222.4H482M458.2,227.3V232.2H482M434.3,234.7V242H458.2M410.5,243.2V251.8H434.3M386.6,252.4V261.6H410.5M362.8,264.3V276.3H386.6M386.6,276.3V271.4H410.5M386.6,276.3V281.2H410.5M338.9,277.6V291H362.8M315.1,289.2V300.8H338.9M291.2,299.9V310.5H315.1M267.4,320.5V341.1H291.2M291.2,341.1V332.6H315.1M315.1,332.6V325.2H338.9M338.9,325.2V320.3H362.8M338.9,325.2V330.1H362.8M315.1,332.6V339.9H338.9M291.2,341.1V349.7H315.1M219.7,310.1V364.4H243.5M243.5,364.4V359.5H267.4M243.5,364.4V369.3H267.4M195.8,344.6V379.1H219.7M172,366.7V388.9H195.8M148.1,382.7V398.7H172M124.2,513V643.3H148.1M148.1,643.3V623.6H172M172,623.6V593.9H195.8M195.8,593.9V553H219.7M386.6,413.4V408.5H410.5M362.8,550.4V545.5H386.6M195.8,593.9V634.9H219.7M219.7,634.9V626.3H243.5M243.5,626.3V619H267.4M267.4,619V614.1H291.2M267.4,619V623.9H291.2M243.5,626.3V633.7H267.4M219.7,634.9V643.5H243.5M172,623.6V653.2H195.8M148.1,643.3V663H172M100.4,595.4V677.7H124.2M124.2,677.7V672.8H148.1M124.2,677.7V682.6H148.1M76.6,643.9V692.4H100.4M52.7,673.1V702.2H76.6M5,539.8V712H28.9" stroke="#91bfdb"></path><path d="M172,11.9V7H195.8M338.9,501.5V496.6H362.8M291.2,575.5V584.7H315.1M267.4,585V594.5H291.2" stroke="#e2e2a2"></path><path d="M172,11.9V16.8H195.8M219.7,553V511.3H243.5M243.5,511.3V491.8H267.4M267.4,491.8V467.5H291.2M291.2,467.5V444.6H315.1M315.1,444.6V431.7H338.9M338.9,431.7V420.7H362.8M362.8,420.7V413.4H386.6M386.6,413.4V418.2H410.5M362.8,420.7V428H386.6M338.9,431.7V442.7H362.8M362.8,442.7V437.8H386.6M362.8,442.7V447.6H386.6M315.1,444.6V457.4H338.9M291.2,467.5V490.5H315.1M315.1,490.5V479.4H338.9M338.9,479.4V472.1H362.8M362.8,472.1V467.2H386.6M362.8,472.1V477H386.6M338.9,479.4V486.8H362.8M315.1,490.5V501.5H338.9M338.9,501.5V506.4H362.8M267.4,491.8V516.2H291.2M243.5,511.3V530.9H267.4M267.4,530.9V526H291.2M267.4,530.9V535.8H291.2M219.7,553V594.7H243.5M243.5,594.7V585H267.4M267.4,585V575.5H291.2M291.2,575.5V566.3H315.1M315.1,566.3V557.8H338.9M338.9,557.8V550.4H362.8M362.8,550.4V555.3H386.6M338.9,557.8V565.1H362.8M315.1,566.3V574.9H338.9M243.5,594.7V604.3H267.4" stroke="darkgrey"></path><text x="30.9" y="370.6" class="node" fill="#E6B4BD">0.35</text><text x="54.7" y="65.2" class="node" fill="#C7CBE3">0.6</text><text x="78.6" y="51.9" class="node" fill="#C7CBE3">0.6</text><text x="102.4" y="40" class="node" fill="#DC6884">0.11</text><text x="126.2" y="30.8" class="node" fill="#C7CBE3">0.6</text><text x="150.1" y="22.2" class="node" fill="#4A6FE3">1</text><text x="174" y="14.9" class="node" fill="#E5A5B1">0.3</text><text x="102.4" y="63.9" class="node" fill="#C7CBE3">0.6</text><text x="54.7" y="676.1" class="node" fill="#C7CBE3">0.6</text><text x="78.6" y="646.9" class="node" fill="#C7CBE3">0.6</text><text x="102.4" y="598.4" class="node" fill="#C7CBE3">0.6</text><text x="126.2" y="516" class="node" fill="#C7CBE3">0.6</text><text x="150.1" y="385.7" class="node" fill="#C7CBE3">0.6</text><text x="174" y="369.7" class="node" fill="#4A6FE3">1</text><text x="197.8" y="347.6" class="node" fill="#C7CBE3">0.6</text><text x="221.7" y="313.1" class="node" fill="#C7CBE3">0.6</text><text x="245.5" y="258.9" class="node" fill="#C7CBE3">0.6</text><text x="269.4" y="194.2" class="node" fill="#C7CBE3">0.6</text><text x="293.2" y="177.7" class="node" fill="#E6ABB6">0.32</text><text x="317.1" y="159.4" class="node" fill="#DADBE3">0.53</text><text x="340.9" y="139.9" class="node" fill="#E4D6D8">0.46</text><text x="364.8" y="127.8" class="node" fill="#E495A5">0.25</text><text x="388.6" y="118.3" class="node" fill="#DADBE3">0.53</text><text x="412.5" y="109.1" class="node" fill="#5B78E2">0.96</text><text x="436.3" y="100.6" class="node" fill="#5B78E2">0.96</text><text x="460.2" y="93.2" class="node" fill="#4A6FE3">1</text><text x="364.8" y="152" class="node" fill="#E6AEB8">0.33</text><text x="340.9" y="178.9" class="node" fill="#D7D9E3">0.54</text><text x="364.8" y="171.6" class="node" fill="#4A6FE3">1</text><text x="293.2" y="210.7" class="node" fill="#4A6FE3">1</text><text x="269.4" y="323.5" class="node" fill="#4A6FE3">1</text><text x="293.2" y="302.9" class="node" fill="#4A6FE3">1</text><text x="317.1" y="292.2" class="node" fill="#4A6FE3">1</text><text x="340.9" y="280.6" class="node" fill="#4A6FE3">1</text><text x="364.8" y="267.3" class="node" fill="#4A6FE3">1</text><text x="388.6" y="255.4" class="node" fill="#4A6FE3">1</text><text x="412.5" y="246.2" class="node" fill="#E6AEB8">0.33</text><text x="436.3" y="237.7" class="node" fill="#4A6FE3">1</text><text x="460.2" y="230.3" class="node" fill="#4A6FE3">1</text><text x="388.6" y="279.3" class="node" fill="#4A6FE3">1</text><text x="293.2" y="344.1" class="node" fill="#4A6FE3">1</text><text x="317.1" y="335.6" class="node" fill="#4A6FE3">1</text><text x="340.9" y="328.2" class="node" fill="#4A6FE3">1</text><text x="245.5" y="367.4" class="node" fill="#C7CBE3">0.6</text><text x="150.1" y="646.3" class="node" fill="#C7CBE3">0.6</text><text x="174" y="626.6" class="node" fill="#4A6FE3">1</text><text x="197.8" y="596.9" class="node" fill="#768BE1">0.88</text><text x="221.7" y="556" class="node" fill="#C4C9E3">0.61</text><text x="245.5" y="514.3" class="node" fill="#4A6FE3">1</text><text x="269.4" y="494.8" class="node" fill="#D2D4E3">0.56</text><text x="293.2" y="470.5" class="node" fill="#5B78E2">0.96</text><text x="317.1" y="447.6" class="node" fill="#C7CBE3">0.6</text><text x="340.9" y="434.7" class="node" fill="#E498A7">0.26</text><text x="364.8" y="423.7" class="node" fill="#4A6FE3">1</text><text x="388.6" y="416.4" class="node" fill="#E498A7">0.26</text><text x="364.8" y="445.7" class="node" fill="#5374E2">0.98</text><text x="317.1" y="493.5" class="node" fill="#C7CBE3">0.6</text><text x="340.9" y="482.4" class="node" fill="#C7CBE3">0.6</text><text x="364.8" y="475.1" class="node" fill="#5374E2">0.98</text><text x="340.9" y="504.5" class="node" fill="#4A6FE3">1</text><text x="269.4" y="533.9" class="node" fill="#B4BBE3">0.67</text><text x="245.5" y="597.7" class="node" fill="#4A6FE3">1</text><text x="269.4" y="588" class="node" fill="#C4C9E3">0.61</text><text x="293.2" y="578.5" class="node" fill="#E2899B">0.21</text><text x="317.1" y="569.3" class="node" fill="#7D8FE1">0.86</text><text x="340.9" y="560.8" class="node" fill="#DE728B">0.14</text><text x="364.8" y="553.4" class="node" fill="#4A6FE3">1</text><text x="221.7" y="637.9" class="node" fill="#C4C9E3">0.61</text><text x="245.5" y="629.3" class="node" fill="#E498A7">0.26</text><text x="269.4" y="622" class="node" fill="#B1B8E2">0.68</text><text x="126.2" y="680.7" class="node" fill="#E6B4BD">0.35</text></svg>
