<svg xmlns="http://www.w3.org/2000/svg" version="1.1" viewBox="0 0 682 720" preserveAspectRatio="xMidYMid meet" class="tree" data-char="252"><text x="678" y="16.8" text-anchor="end" class="stepsLabel">Character adds <tspan class="score">2</tspan> to tree score</text><text x="678" y="30.6" text-anchor="end" class="stepsLabel"><tspan class="score">0</tspan> additional regions</text><text x="678" y="44.4" text-anchor="end" class="stepsLabel"></text><text x="678" y="72" text-anchor="end" class="stepsLabel"><tspan dy="16" fill="#34caaf">An optimal tree under:</tspan><tspan x="680" style="font-style:italic" class="notThisAn" dy="1.2em">Implied weights, k = 3</tspan><tspan x="680" style="font-style:italic" class="notThisAn" dy="1.2em">IW, k = 4.5</tspan><tspan x="680" style="font-style:italic" class="notThisAn" dy="1.2em">IW, k = 7</tspan><tspan x="680" style="font-style:italic" class="thisAn" dy="1.2em">IW, k = 10.5</tspan><tspan x="680" style="font-style:italic" class="notThisAn" dy="1.2em">IW, k = 16</tspan><tspan x="680" style="font-style:italic" class="notThisAn" dy="1.2em">IW, k = 24</tspan><tspan x="680" style="font-style:italic" class="notThisAn" dy="1.2em">Equal weights</tspan></text><text x="124.2" y="658.6" fill="#91bfdb" class="flag">[1]</text><text x="146.2" y="658.6" fill="#000" class="taxonLabel">Serpula</text><text x="124.2" y="672.7" fill="grey" class="flag">[?]</text><text x="146.2" y="672.7" fill="#999" class="taxonLabel">Capitella</text><text x="100.4" y="686.8" fill="grey" class="flag">[?]</text><text x="122.4" y="686.8" fill="#999" class="taxonLabel">Canadia spinosa</text><text x="76.6" y="700.9" fill="#91bfdb" class="flag">[1]</text><text x="98.6" y="700.9" fill="#000" class="taxonLabel">Sipunculus</text><text x="195.8" y="602.2" fill="grey" class="flag">[?]</text><text x="217.8" y="602.2" fill="#999" class="taxonLabel">Neopilina</text><text x="195.8" y="616.3" fill="grey" class="flag">[?]</text><text x="217.8" y="616.3" fill="#999" class="taxonLabel">Conocardium elongatum</text><text x="172" y="630.4" fill="#91bfdb" class="flag">[1]</text><text x="194" y="630.4" fill="#000" class="taxonLabel">Haliotis</text><text x="195.8" y="559.9" fill="grey" class="flag">[?]</text><text x="217.8" y="559.9" fill="#999" class="taxonLabel">Pojetaia runnegari</text><text x="195.8" y="574" fill="#91bfdb" class="flag">[1]</text><text x="217.8" y="574" fill="#000" class="taxonLabel">Mytilus</text><text x="172" y="588.1" fill="#91bfdb" class="flag">[1]</text><text x="194" y="588.1" fill="#000" class="taxonLabel">Dentalium</text><text x="172" y="531.7" fill="grey" class="flag">[?]</text><text x="194" y="531.7" fill="#999" class="taxonLabel">Wiwaxia corrugata</text><text x="172" y="545.8" fill="grey" class="flag">[?]</text><text x="194" y="545.8" fill="#999" class="taxonLabel">Odontogriphus omalus</text><text x="267.4" y="475.3" fill="grey" class="flag">[?]</text><text x="289.4" y="475.3" fill="#999" class="taxonLabel">Kulindroplax perissokomos</text><text x="267.4" y="489.4" fill="#91bfdb" class="flag">[1]</text><text x="289.4" y="489.4" fill="#000" class="taxonLabel">Chaetoderma</text><text x="267.4" y="447.1" fill="#91bfdb" class="flag">[1]</text><text x="289.4" y="447.1" fill="#000" class="taxonLabel">Wirenia</text><text x="267.4" y="461.2" fill="grey" class="flag">[?]</text><text x="289.4" y="461.2" fill="#999" class="taxonLabel">Phthipodochiton thraivensis</text><text x="219.7" y="503.5" fill="grey" class="flag">[?]</text><text x="241.7" y="503.5" fill="#999" class="taxonLabel">Acaenoplax hayae</text><text x="195.8" y="517.6" fill="grey" class="flag">[?]</text><text x="217.8" y="517.6" fill="#999" class="taxonLabel">Siphogonuchites multa</text><text x="291.2" y="362.5" fill="#91bfdb" class="flag">[1]</text><text x="313.2" y="362.5" fill="#000" class="taxonLabel">Tonicella</text><text x="291.2" y="376.6" fill="#91bfdb" class="flag">[1]</text><text x="313.2" y="376.6" fill="#000" class="taxonLabel">Mopalia</text><text x="267.4" y="390.7" fill="grey" class="flag">[?]</text><text x="289.4" y="390.7" fill="#999" class="taxonLabel">Polysacos vickersianum</text><text x="243.5" y="404.8" fill="#91bfdb" class="flag">[1]</text><text x="265.5" y="404.8" fill="#000" class="taxonLabel">Leptochiton</text><text x="219.7" y="418.9" fill="grey" class="flag">[?]</text><text x="241.7" y="418.9" fill="#999" class="taxonLabel">Glaphurochiton carbonarius</text><text x="195.8" y="433" fill="grey" class="flag">[?]</text><text x="217.8" y="433" fill="#999" class="taxonLabel">Calvapilosa kroegeri</text><text x="100.4" y="644.5" fill="grey" class="flag">[?]</text><text x="122.4" y="644.5" fill="#999" class="taxonLabel">Pelagiella</text><text x="195.8" y="292" fill="#fc8d59" class="flag">[0]</text><text x="217.8" y="292" fill="#000" class="taxonLabel">Flustra</text><text x="195.8" y="306.1" fill="#fc8d59" class="flag">[0]</text><text x="217.8" y="306.1" fill="#000" class="taxonLabel">Amathia</text><text x="219.7" y="263.8" fill="#fc8d59" class="flag">[0]</text><text x="241.7" y="263.8" fill="#000" class="taxonLabel">Phoronis</text><text x="219.7" y="277.9" fill="grey" class="flag">[?]</text><text x="241.7" y="277.9" fill="#999" class="taxonLabel">Namacalathus</text><text x="267.4" y="221.5" fill="grey" class="flag">[?]</text><text x="289.4" y="221.5" fill="#999" class="taxonLabel">Orthrozanclus</text><text x="267.4" y="235.6" fill="grey" class="flag">[?]</text><text x="289.4" y="235.6" fill="#999" class="taxonLabel">Halkieria evangelista</text><text x="291.2" y="193.3" fill="grey" class="flag">[?]</text><text x="313.2" y="193.3" fill="#999" class="taxonLabel">Pedunculotheca diania</text><text x="291.2" y="207.4" fill="grey" class="flag">[?]</text><text x="313.2" y="207.4" fill="#999" class="taxonLabel">Haplophrentis carinatus</text><text x="362.8" y="136.9" fill="grey" class="flag">[?]</text><text x="384.8" y="136.9" fill="#999" class="taxonLabel">Mickwitzia muralensis</text><text x="362.8" y="151" fill="grey" class="flag">[?]</text><text x="384.8" y="151" fill="#999" class="taxonLabel">Heliomedusa orienta</text><text x="386.6" y="108.7" fill="grey" class="flag">[?]</text><text x="408.6" y="108.7" fill="#999" class="taxonLabel">Micromitra</text><text x="386.6" y="122.8" fill="grey" class="flag">[?]</text><text x="408.6" y="122.8" fill="#999" class="taxonLabel">Gasconsia</text><text x="410.5" y="80.5" fill="#91bfdb" class="flag">[1]</text><text x="432.5" y="80.5" fill="#000" class="taxonLabel">Terebratulina</text><text x="410.5" y="94.6" fill="grey" class="flag">[?]</text><text x="432.5" y="94.6" fill="#999" class="taxonLabel">Orthis</text><text x="482" y="10" fill="grey" class="flag">[?]</text><text x="504" y="10" fill="#999" class="taxonLabel">Yuganotheca elegans</text><text x="482" y="24.1" fill="grey" class="flag">[?]</text><text x="504" y="24.1" fill="#999" class="taxonLabel">Lingulellotreta malongensis</text><text x="458.2" y="38.2" fill="#91bfdb" class="flag">[1]</text><text x="480.2" y="38.2" fill="#000" class="taxonLabel">Lingula</text><text x="434.3" y="52.3" fill="grey" class="flag">[?]</text><text x="456.3" y="52.3" fill="#999" class="taxonLabel">Pelagodiscus atlanticus</text><text x="410.5" y="66.4" fill="#91bfdb" class="flag">[1]</text><text x="432.5" y="66.4" fill="#000" class="taxonLabel">Novocrania</text><text x="315.1" y="165.1" fill="grey" class="flag">[?]</text><text x="337.1" y="165.1" fill="#999" class="taxonLabel">Micrina</text><text x="291.2" y="179.2" fill="grey" class="flag">[?]</text><text x="313.2" y="179.2" fill="#999" class="taxonLabel">Paterimitra</text><text x="219.7" y="249.7" fill="grey" class="flag">[?]</text><text x="241.7" y="249.7" fill="#999" class="taxonLabel">Eccentrotheca</text><text x="148.1" y="320.2" fill="grey" class="flag">[?]</text><text x="170.1" y="320.2" fill="#999" class="taxonLabel">Dailyatia</text><text x="124.2" y="334.3" fill="grey" class="flag">[?]</text><text x="146.2" y="334.3" fill="#999" class="taxonLabel">Cotyledion tylodes</text><text x="100.4" y="348.4" fill="#91bfdb" class="flag">[1]</text><text x="122.4" y="348.4" fill="#000" class="taxonLabel">Loxosomella</text><text x="28.9" y="715" fill="grey" class="flag">[?]</text><text x="50.9" y="715" fill="#999" class="taxonLabel">Yilingia spiciformis</text><path d="M5,642.8V573.5H28.9M28.9,573.5V461.4H52.7M52.7,461.4V329.1H76.6M76.6,329.1V312.7H100.4M338.9,90.1V67.4H362.8M362.8,67.4V50.2H386.6M386.6,50.2V37H410.5M410.5,37V24.6H434.3M434.3,24.6V14.1H458.2M458.2,14.1V7H482M458.2,14.1V21.1H482M434.3,24.6V35.2H458.2M410.5,37V49.3H434.3M386.6,50.2V63.4H410.5M362.8,67.4V84.5H386.6M386.6,84.5V77.5H410.5M386.6,84.5V91.6H410.5M76.6,329.1V345.4H100.4M52.7,461.4V593.8H76.6M76.6,593.8V546.2H100.4M100.4,546.2V496.6H124.2M124.2,496.6V457.5H148.1M148.1,457.5V416.3H172M172,416.3V402.7H195.8M195.8,402.7V389.5H219.7M219.7,389.5V377.1H243.5M243.5,377.1V366.5H267.4M267.4,366.5V359.5H291.2M267.4,366.5V373.6H291.2M243.5,377.1V387.7H267.4M219.7,389.5V401.8H243.5M195.8,402.7V415.9H219.7M172,416.3V430H195.8M148.1,457.5V498.7H172M172,498.7V482.9H195.8M195.8,482.9V465.2H219.7M219.7,465.2V451.1H243.5M243.5,451.1V444.1H267.4M243.5,451.1V458.2H267.4M219.7,465.2V479.4H243.5M243.5,479.4V472.3H267.4M243.5,479.4V486.4H267.4M195.8,482.9V500.5H219.7M172,498.7V514.6H195.8M124.2,496.6V535.8H148.1M148.1,535.8V528.7H172M148.1,535.8V542.8H172M100.4,546.2V595.7H124.2M124.2,595.7V574.5H148.1M148.1,574.5V564H172M172,564V556.9H195.8M172,564V571H195.8M148.1,574.5V585.1H172M124.2,595.7V616.8H148.1M148.1,616.8V606.2H172M172,606.2V599.2H195.8M172,606.2V613.3H195.8M148.1,616.8V627.4H172M76.6,593.8V641.5H100.4M28.9,573.5V685.6H52.7M52.7,685.6V673.2H76.6M76.6,673.2V662.6H100.4M100.4,662.6V655.6H124.2M100.4,662.6V669.7H124.2M76.6,673.2V683.8H100.4M52.7,685.6V697.9H76.6M5,642.8V712H28.9" stroke="#91bfdb"></path><path d="M100.4,312.7V294.1H124.2M124.2,294.1V271H148.1M148.1,271V246H172M172,246V224.1H195.8M195.8,224.1V201.5H219.7M219.7,201.5V177.4H243.5M243.5,177.4V157.5H267.4M267.4,157.5V138.8H291.2M291.2,138.8V115.5H315.1M315.1,115.5V90.1H338.9M338.9,90.1V112.8H362.8M362.8,112.8V105.7H386.6M362.8,112.8V119.8H386.6M315.1,115.5V140.9H338.9M338.9,140.9V133.9H362.8M338.9,140.9V148H362.8M291.2,138.8V162.1H315.1M267.4,157.5V176.2H291.2M243.5,177.4V197.3H267.4M267.4,197.3V190.3H291.2M267.4,197.3V204.4H291.2M219.7,201.5V225.6H243.5M243.5,225.6V218.5H267.4M243.5,225.6V232.6H267.4M195.8,224.1V246.7H219.7M172,246V267.8H195.8M195.8,267.8V274.9H219.7M124.2,294.1V317.2H148.1M100.4,312.7V331.3H124.2" stroke="darkgrey"></path><path d="M195.8,267.8V260.8H219.7M148.1,271V296H172M172,296V289H195.8M172,296V303.1H195.8" stroke="#fc8d59"></path><text x="30.9" y="576.5" class="node" fill="#E6C1C7">0.39</text><text x="54.7" y="464.4" class="node" fill="#DC6884">0.11</text><text x="78.6" y="332.1" class="node" fill="#DC6884">0.11</text><text x="102.4" y="315.7" class="node" fill="#D85778">0.06</text><text x="126.2" y="297.1" class="node" fill="#D95A7A">0.07</text><text x="150.1" y="274" class="node" fill="#D3446C">0.01</text><text x="174" y="249" class="node" fill="#E18297">0.19</text><text x="197.8" y="227.1" class="node" fill="#E6BAC2">0.37</text><text x="221.7" y="204.5" class="node" fill="#BCC2E3">0.64</text><text x="245.5" y="180.4" class="node" fill="#A3ADE2">0.73</text><text x="269.4" y="160.5" class="node" fill="#A3ADE2">0.73</text><text x="293.2" y="141.8" class="node" fill="#A3ADE2">0.73</text><text x="317.1" y="118.5" class="node" fill="#A3ADE2">0.73</text><text x="340.9" y="93.1" class="node" fill="#A3ADE2">0.73</text><text x="364.8" y="70.4" class="node" fill="#A3ADE2">0.73</text><text x="388.6" y="53.2" class="node" fill="#A3ADE2">0.73</text><text x="412.5" y="40" class="node" fill="#4A6FE3">1</text><text x="436.3" y="27.6" class="node" fill="#E6C1C7">0.39</text><text x="460.2" y="17.1" class="node" fill="#4A6FE3">1</text><text x="388.6" y="87.5" class="node" fill="#4A6FE3">1</text><text x="364.8" y="115.8" class="node" fill="#A3ADE2">0.73</text><text x="340.9" y="143.9" class="node" fill="#4A6FE3">1</text><text x="269.4" y="200.3" class="node" fill="#97A4E2">0.77</text><text x="245.5" y="228.6" class="node" fill="#DC6884">0.11</text><text x="197.8" y="270.8" class="node" fill="#4A6FE3">1</text><text x="174" y="299" class="node" fill="#4A6FE3">1</text><text x="78.6" y="596.8" class="node" fill="#DC6884">0.11</text><text x="102.4" y="549.2" class="node" fill="#DC6884">0.11</text><text x="126.2" y="499.6" class="node" fill="#DC6884">0.11</text><text x="150.1" y="460.5" class="node" fill="#A3ADE2">0.73</text><text x="174" y="419.3" class="node" fill="#A3ADE2">0.73</text><text x="197.8" y="405.7" class="node" fill="#4A6FE3">1</text><text x="221.7" y="392.5" class="node" fill="#4A6FE3">1</text><text x="245.5" y="380.1" class="node" fill="#4A6FE3">1</text><text x="269.4" y="369.5" class="node" fill="#DB6581">0.1</text><text x="174" y="501.7" class="node" fill="#D95A7A">0.07</text><text x="197.8" y="485.9" class="node" fill="#DC6884">0.11</text><text x="221.7" y="468.2" class="node" fill="#E6C1C7">0.39</text><text x="245.5" y="454.1" class="node" fill="#DC6884">0.11</text><text x="245.5" y="482.4" class="node" fill="#4A6FE3">1</text><text x="150.1" y="538.8" class="node" fill="#7086E1">0.9</text><text x="126.2" y="598.7" class="node" fill="#4A6FE3">1</text><text x="150.1" y="577.5" class="node" fill="#4A6FE3">1</text><text x="174" y="567" class="node" fill="#4A6FE3">1</text><text x="150.1" y="619.8" class="node" fill="#4A6FE3">1</text><text x="174" y="609.2" class="node" fill="#4A6FE3">1</text><text x="54.7" y="688.6" class="node" fill="#4A6FE3">1</text><text x="78.6" y="676.2" class="node" fill="#4A6FE3">1</text><text x="102.4" y="665.6" class="node" fill="#E6C1C7">0.39</text></svg>
