<svg xmlns="http://www.w3.org/2000/svg" version="1.1" viewBox="0 0 682 720" preserveAspectRatio="xMidYMid meet" class="tree" data-char="130"><text x="678" y="12.7" text-anchor="end" class="stepsLabel">Character adds <tspan class="score">1</tspan> to tree score</text><text x="678" y="22.4" text-anchor="end" class="stepsLabel"><tspan class="score">0</tspan> additional regions</text><text x="678" y="32.1" text-anchor="end" class="stepsLabel"></text><text x="678" y="51.5" text-anchor="end" class="stepsLabel"><tspan dy="16" fill="#34caaf">An optimal tree under:</tspan><tspan x="680" style="font-style:italic" class="thisAn" dy="1.2em">Implied weights, k = 4.5</tspan><tspan x="680" style="font-style:italic" class="notThisAn" dy="1.2em">IW, k = 10.5</tspan><tspan x="680" style="font-style:italic" class="notThisAn" dy="1.2em">IW, k = 24</tspan><tspan x="680" style="font-style:italic" class="notThisAn" dy="1.2em">Equal weights</tspan></text><text x="130.5" y="675.8" fill="lightgrey" class="flag">[-]</text><text x="152.5" y="675.8" fill="#ccc" class="taxonLabel">Serpula</text><text x="130.5" y="685.6" fill="lightgrey" class="flag">[-]</text><text x="152.5" y="685.6" fill="#ccc" class="taxonLabel">Capitella</text><text x="105.4" y="695.4" fill="lightgrey" class="flag">[-]</text><text x="127.4" y="695.4" fill="#ccc" class="taxonLabel">Canadia spinosa</text><text x="80.3" y="705.2" fill="lightgrey" class="flag">[-]</text><text x="102.3" y="705.2" fill="#ccc" class="taxonLabel">Sipunculus</text><text x="130.5" y="656.2" fill="lightgrey" class="flag">[-]</text><text x="152.5" y="656.2" fill="#ccc" class="taxonLabel">Orthrozanclus</text><text x="130.5" y="666" fill="grey" class="flag">[?]</text><text x="152.5" y="666" fill="#999" class="taxonLabel">Halkieria evangelista</text><text x="205.8" y="617.1" fill="lightgrey" class="flag">[-]</text><text x="227.8" y="617.1" fill="#ccc" class="taxonLabel">Wirenia</text><text x="205.8" y="626.9" fill="lightgrey" class="flag">[-]</text><text x="227.8" y="626.9" fill="#ccc" class="taxonLabel">Phthipodochiton thraivensis</text><text x="331.4" y="558.3" fill="lightgrey" class="flag">[-]</text><text x="353.4" y="558.3" fill="#ccc" class="taxonLabel">Tonicella</text><text x="331.4" y="568.1" fill="lightgrey" class="flag">[-]</text><text x="353.4" y="568.1" fill="#ccc" class="taxonLabel">Mopalia</text><text x="306.3" y="577.9" fill="lightgrey" class="flag">[-]</text><text x="328.3" y="577.9" fill="#ccc" class="taxonLabel">Polysacos vickersianum</text><text x="281.2" y="587.7" fill="lightgrey" class="flag">[-]</text><text x="303.2" y="587.7" fill="#ccc" class="taxonLabel">Leptochiton</text><text x="256.1" y="597.5" fill="lightgrey" class="flag">[-]</text><text x="278.1" y="597.5" fill="#ccc" class="taxonLabel">Glaphurochiton carbonarius</text><text x="331.4" y="519.2" fill="lightgrey" class="flag">[-]</text><text x="353.4" y="519.2" fill="#ccc" class="taxonLabel">Wiwaxia corrugata</text><text x="331.4" y="529" fill="lightgrey" class="flag">[-]</text><text x="353.4" y="529" fill="#ccc" class="taxonLabel">Odontogriphus omalus</text><text x="381.6" y="489.8" fill="lightgrey" class="flag">[-]</text><text x="403.6" y="489.8" fill="#ccc" class="taxonLabel">Neopilina</text><text x="381.6" y="499.6" fill="lightgrey" class="flag">[-]</text><text x="403.6" y="499.6" fill="#ccc" class="taxonLabel">Haliotis</text><text x="431.8" y="450.6" fill="lightgrey" class="flag">[-]</text><text x="453.8" y="450.6" fill="#ccc" class="taxonLabel">Pojetaia runnegari</text><text x="431.8" y="460.4" fill="lightgrey" class="flag">[-]</text><text x="453.8" y="460.4" fill="#ccc" class="taxonLabel">Conocardium elongatum</text><text x="406.7" y="470.2" fill="lightgrey" class="flag">[-]</text><text x="428.7" y="470.2" fill="#ccc" class="taxonLabel">Mytilus</text><text x="381.6" y="480" fill="lightgrey" class="flag">[-]</text><text x="403.6" y="480" fill="#ccc" class="taxonLabel">Dentalium</text><text x="331.4" y="509.4" fill="lightgrey" class="flag">[-]</text><text x="353.4" y="509.4" fill="#ccc" class="taxonLabel">Pelagiella</text><text x="281.2" y="538.8" fill="grey" class="flag">[?]</text><text x="303.2" y="538.8" fill="#999" class="taxonLabel">Siphogonuchites multa</text><text x="256.1" y="548.5" fill="lightgrey" class="flag">[-]</text><text x="278.1" y="548.5" fill="#ccc" class="taxonLabel">Calvapilosa kroegeri</text><text x="205.8" y="607.3" fill="lightgrey" class="flag">[-]</text><text x="227.8" y="607.3" fill="#ccc" class="taxonLabel">Chaetoderma</text><text x="155.6" y="636.7" fill="lightgrey" class="flag">[-]</text><text x="177.6" y="636.7" fill="#ccc" class="taxonLabel">Acaenoplax hayae</text><text x="130.5" y="646.5" fill="lightgrey" class="flag">[-]</text><text x="152.5" y="646.5" fill="#ccc" class="taxonLabel">Kulindroplax perissokomos</text><text x="155.6" y="421.2" fill="lightgrey" class="flag">[-]</text><text x="177.6" y="421.2" fill="#ccc" class="taxonLabel">Namacalathus</text><text x="155.6" y="431" fill="lightgrey" class="flag">[-]</text><text x="177.6" y="431" fill="#ccc" class="taxonLabel">Loxosomella</text><text x="130.5" y="440.8" fill="lightgrey" class="flag">[-]</text><text x="152.5" y="440.8" fill="#ccc" class="taxonLabel">Cotyledion tylodes</text><text x="180.7" y="391.9" fill="lightgrey" class="flag">[-]</text><text x="202.7" y="391.9" fill="#ccc" class="taxonLabel">Flustra</text><text x="180.7" y="401.7" fill="lightgrey" class="flag">[-]</text><text x="202.7" y="401.7" fill="#ccc" class="taxonLabel">Amathia</text><text x="155.6" y="411.5" fill="lightgrey" class="flag">[-]</text><text x="177.6" y="411.5" fill="#ccc" class="taxonLabel">Dailyatia</text><text x="180.7" y="372.3" fill="lightgrey" class="flag">[-]</text><text x="202.7" y="372.3" fill="#ccc" class="taxonLabel">Phoronis</text><text x="180.7" y="382.1" fill="lightgrey" class="flag">[-]</text><text x="202.7" y="382.1" fill="#ccc" class="taxonLabel">Eccentrotheca</text><text x="306.3" y="313.5" fill="grey" class="flag">[?]</text><text x="328.3" y="313.5" fill="#999" class="taxonLabel">Paramicrocornus</text><text x="306.3" y="323.3" fill="grey" class="flag">[?]</text><text x="328.3" y="323.3" fill="#999" class="taxonLabel">Haplophrentis carinatus</text><text x="281.2" y="333.1" fill="grey" class="flag">[?]</text><text x="303.2" y="333.1" fill="#999" class="taxonLabel">Bactrotheca</text><text x="256.1" y="342.9" fill="grey" class="flag">[?]</text><text x="278.1" y="342.9" fill="#999" class="taxonLabel">Cupitheca holocyclata</text><text x="230.9" y="352.7" fill="grey" class="flag">[?]</text><text x="252.9" y="352.7" fill="#999" class="taxonLabel">Pedunculotheca diania</text><text x="306.3" y="284.2" fill="grey" class="flag">[?]</text><text x="328.3" y="284.2" fill="#999" class="taxonLabel">Coolinia pecten</text><text x="306.3" y="294" fill="grey" class="flag">[?]</text><text x="328.3" y="294" fill="#999" class="taxonLabel">Antigonambonites planus</text><text x="331.4" y="254.8" fill="grey" class="flag">[?]</text><text x="353.4" y="254.8" fill="#999" class="taxonLabel">Yuganotheca elegans</text><text x="331.4" y="264.6" fill="grey" class="flag">[?]</text><text x="353.4" y="264.6" fill="#999" class="taxonLabel">Tomteluva perturbata</text><text x="306.3" y="274.4" fill="#e2e2a2" class="flag">[1]</text><text x="328.3" y="274.4" fill="#000" class="taxonLabel">Salanygolina</text><text x="331.4" y="235.2" fill="#e2e2a2" class="flag">[1]</text><text x="353.4" y="235.2" fill="#000" class="taxonLabel">Nisusia sulcata</text><text x="331.4" y="245" fill="#e2e2a2" class="flag">[1]</text><text x="353.4" y="245" fill="#000" class="taxonLabel">Kutorgina chengjiangensis</text><text x="406.7" y="186.2" fill="#91bfdb" class="flag">[2]</text><text x="428.7" y="186.2" fill="#000" class="taxonLabel">Terebratulina</text><text x="406.7" y="196" fill="grey" class="flag">[?]</text><text x="428.7" y="196" fill="#999" class="taxonLabel">Orthis</text><text x="381.6" y="205.8" fill="#91bfdb" class="flag">[2]</text><text x="403.6" y="205.8" fill="#000" class="taxonLabel">Alisina</text><text x="356.5" y="215.6" fill="grey" class="flag">[?]</text><text x="378.5" y="215.6" fill="#999" class="taxonLabel">Longtancunella chengjiangensis</text><text x="331.4" y="225.4" fill="#e2e2a2" class="flag">[1]</text><text x="353.4" y="225.4" fill="#000" class="taxonLabel">Glyptoria</text><text x="456.9" y="117.7" fill="#e2e2a2" class="flag">[1]</text><text x="478.9" y="117.7" fill="#000" class="taxonLabel">Novocrania</text><text x="456.9" y="127.5" fill="#e2e2a2" class="flag">[1]</text><text x="478.9" y="127.5" fill="#000" class="taxonLabel">Craniops</text><text x="431.8" y="137.3" fill="grey" class="flag">[?]</text><text x="453.8" y="137.3" fill="#999" class="taxonLabel">Ussunia</text><text x="406.7" y="147.1" fill="grey" class="flag">[?]</text><text x="428.7" y="147.1" fill="#999" class="taxonLabel">Heliomedusa orienta</text><text x="381.6" y="156.9" fill="#e2e2a2" class="flag">[1]</text><text x="403.6" y="156.9" fill="#000" class="taxonLabel">Gasconsia</text><text x="356.5" y="166.7" fill="grey" class="flag">[?]</text><text x="378.5" y="166.7" fill="#999" class="taxonLabel">Micromitra</text><text x="381.6" y="98.1" fill="#e2e2a2" class="flag">[1]</text><text x="403.6" y="98.1" fill="#000" class="taxonLabel">Pelagodiscus atlanticus</text><text x="381.6" y="107.9" fill="lightgrey" class="flag">[-]</text><text x="403.6" y="107.9" fill="#ccc" class="taxonLabel">Mickwitzia muralensis</text><text x="431.8" y="68.8" fill="grey" class="flag">[?]</text><text x="453.8" y="68.8" fill="#999" class="taxonLabel">Mummpikia nuda</text><text x="431.8" y="78.5" fill="#e2e2a2" class="flag">[1]</text><text x="453.8" y="78.5" fill="#000" class="taxonLabel">Botsfordia</text><text x="406.7" y="88.3" fill="#e2e2a2" class="flag">[1]</text><text x="428.7" y="88.3" fill="#000" class="taxonLabel">Eoobolus</text><text x="431.8" y="49.2" fill="grey" class="flag">[?]</text><text x="453.8" y="49.2" fill="#999" class="taxonLabel">Lingulellotreta malongensis</text><text x="431.8" y="59" fill="#e2e2a2" class="flag">[1]</text><text x="453.8" y="59" fill="#000" class="taxonLabel">Lingula</text><text x="482" y="10" fill="grey" class="flag">[?]</text><text x="504" y="10" fill="#999" class="taxonLabel">Siphonobolus priscus</text><text x="482" y="19.8" fill="grey" class="flag">[?]</text><text x="504" y="19.8" fill="#999" class="taxonLabel">Acanthotretella spinosa</text><text x="456.9" y="29.6" fill="grey" class="flag">[?]</text><text x="478.9" y="29.6" fill="#999" class="taxonLabel">Lingulosacculus</text><text x="431.8" y="39.4" fill="#e2e2a2" class="flag">[1]</text><text x="453.8" y="39.4" fill="#000" class="taxonLabel">Clupeafumosus socialis</text><text x="306.3" y="176.5" fill="#e2e2a2" class="flag">[1]</text><text x="328.3" y="176.5" fill="#000" class="taxonLabel">Askepasma toddense</text><text x="230.9" y="303.8" fill="grey" class="flag">[?]</text><text x="252.9" y="303.8" fill="#999" class="taxonLabel">Micrina</text><text x="180.7" y="362.5" fill="grey" class="flag">[?]</text><text x="202.7" y="362.5" fill="#999" class="taxonLabel">Paterimitra</text><text x="30.1" y="715" fill="lightgrey" class="flag">[-]</text><text x="52.1" y="715" fill="#ccc" class="taxonLabel">Yilingia spiciformis</text><path d="M5,660.4V608.8H30.1M30.1,608.8V523.9H55.2M55.2,523.9V403.7H80.3M80.3,403.7V376.9H105.4M105.4,376.9V352.7H130.5M356.5,100V104.9H381.6M130.5,352.7V374.2H155.6M155.6,374.2V369.3H180.7M155.6,374.2V379.1H180.7M105.4,376.9V401.1H130.5M130.5,401.1V393.8H155.6M155.6,393.8V388.9H180.7M155.6,393.8V398.7H180.7M130.5,401.1V408.5H155.6M80.3,403.7V430.5H105.4M105.4,430.5V423.1H130.5M130.5,423.1V418.2H155.6M130.5,423.1V428H155.6M105.4,430.5V437.8H130.5M55.2,523.9V644.2H80.3M80.3,644.2V630.2H105.4M105.4,630.2V617H130.5M130.5,617V600.4H155.6M155.6,600.4V581.8H180.7M180.7,581.8V559.4H205.8M205.8,559.4V533.5H230.9M230.9,533.5V521.4H256.1M256.1,521.4V507.1H281.2M281.2,507.1V493.2H306.3M306.3,493.2V480.1H331.4M331.4,480.1V468.4H356.5M356.5,468.4V459.9H381.6M381.6,459.9V452.5H406.7M406.7,452.5V447.6H431.8M406.7,452.5V457.4H431.8M381.6,459.9V467.2H406.7M356.5,468.4V477H381.6M331.4,480.1V491.7H356.5M356.5,491.7V486.8H381.6M356.5,491.7V496.6H381.6M306.3,493.2V506.4H331.4M281.2,507.1V521.1H306.3M306.3,521.1V516.2H331.4M306.3,521.1V526H331.4M256.1,521.4V535.8H281.2M230.9,533.5V545.5H256.1M205.8,559.4V585.3H230.9M230.9,585.3V576.1H256.1M256.1,576.1V567.6H281.2M281.2,567.6V560.2H306.3M306.3,560.2V555.3H331.4M306.3,560.2V565.1H331.4M281.2,567.6V574.9H306.3M256.1,576.1V584.7H281.2M230.9,585.3V594.5H256.1M180.7,581.8V604.3H205.8M155.6,600.4V619H180.7M180.7,619V614.1H205.8M180.7,619V623.9H205.8M130.5,617V633.7H155.6M105.4,630.2V643.5H130.5M80.3,644.2V658.1H105.4M105.4,658.1V653.2H130.5M105.4,658.1V663H130.5M30.1,608.8V693.6H55.2M55.2,693.6V685.1H80.3M80.3,685.1V677.7H105.4M105.4,677.7V672.8H130.5M105.4,677.7V682.6H130.5M80.3,685.1V692.4H105.4M55.2,693.6V702.2H80.3M5,660.4V712H30.1" stroke="lightgrey" class="inapplicable"></path><path d="M130.5,352.7V331.2H155.6M155.6,331.2V303H180.7M180.7,303V265.4H205.8M205.8,265.4V230.1H230.9M230.9,230.1V185.1H256.1M256.1,185.1V145.1H281.2M281.2,145.1V116.8H306.3M306.3,116.8V79.4H331.4M331.4,79.4V58.7H356.5M356.5,58.7V39.4H381.6M381.6,39.4V27.8H406.7M406.7,27.8V19.2H431.8M431.8,19.2V11.9H456.9M456.9,11.9V7H482M456.9,11.9V16.8H482M431.8,19.2V26.6H456.9M406.7,27.8V36.4H431.8M381.6,39.4V51.1H406.7M406.7,51.1V46.2H431.8M406.7,51.1V56H431.8M356.5,58.7V78H381.6M381.6,78V70.6H406.7M406.7,70.6V65.8H431.8M406.7,70.6V75.5H431.8M381.6,78V85.3H406.7M331.4,79.4V100H356.5M356.5,100V95.1H381.6M306.3,116.8V154.2H331.4M331.4,154.2V144.7H356.5M356.5,144.7V135.5H381.6M381.6,135.5V126.9H406.7M406.7,126.9V119.6H431.8M431.8,119.6V114.7H456.9M431.8,119.6V124.5H456.9M406.7,126.9V134.3H431.8M381.6,135.5V144.1H406.7M356.5,144.7V153.9H381.6M331.4,154.2V163.7H356.5M281.2,145.1V173.5H306.3M256.1,185.1V225.2H281.2M281.2,225.2V213.2H306.3M306.3,213.2V204.1H331.4M306.3,213.2V222.4H331.4M281.2,225.2V237.1H306.3M306.3,237.1V232.2H331.4M306.3,237.1V242H331.4M230.9,230.1V275H256.1M256.1,275V264H281.2M281.2,264V256.7H306.3M306.3,256.7V251.8H331.4M306.3,256.7V261.6H331.4M281.2,264V271.4H306.3M256.1,275V286.1H281.2M281.2,286.1V281.2H306.3M281.2,286.1V291H306.3M205.8,265.4V300.8H230.9M180.7,303V340.5H205.8M205.8,340.5V331.3H230.9M230.9,331.3V322.8H256.1M256.1,322.8V315.4H281.2M281.2,315.4V310.5H306.3M281.2,315.4V320.3H306.3M256.1,322.8V330.1H281.2M230.9,331.3V339.9H256.1M205.8,340.5V349.7H230.9M155.6,331.2V359.5H180.7" stroke="#e2e2a2"></path><path d="M331.4,204.1V195.5H356.5M356.5,195.5V188.1H381.6M381.6,188.1V183.2H406.7M381.6,188.1V193H406.7M356.5,195.5V202.8H381.6" stroke="#91bfdb"></path><path d="M331.4,204.1V212.6H356.5" stroke="darkgrey"></path><text x="32.1" y="611.8" class="node" fill="#E5CDD1">0.43</text><text x="57.2" y="526.9" class="node" fill="#E392A2">0.24</text><text x="82.3" y="406.7" class="node" fill="#DD6C86">0.12</text><text x="107.4" y="379.9" class="node" fill="#DB617F">0.09</text><text x="132.5" y="355.7" class="node" fill="#8F9DE1">0.8</text><text x="157.6" y="334.2" class="node" fill="#8F9DE1">0.8</text><text x="182.7" y="306" class="node" fill="#4A6FE3">1</text><text x="207.8" y="268.4" class="node" fill="#A8B1E2">0.71</text><text x="232.9" y="233.1" class="node" fill="#E392A2">0.24</text><text x="258.1" y="188.1" class="node" fill="#E392A2">0.24</text><text x="283.2" y="148.1" class="node" fill="#E392A2">0.24</text><text x="308.3" y="119.8" class="node" fill="#E392A2">0.24</text><text x="333.4" y="82.4" class="node" fill="#E392A2">0.24</text><text x="358.5" y="61.7" class="node" fill="#E392A2">0.24</text><text x="383.6" y="42.4" class="node" fill="#4A6FE3">1</text><text x="408.7" y="30.8" class="node" fill="#E6ABB6">0.32</text><text x="433.8" y="22.2" class="node" fill="#4A6FE3">1</text><text x="458.9" y="14.9" class="node" fill="#E392A2">0.24</text><text x="408.7" y="54.1" class="node" fill="#E392A2">0.24</text><text x="383.6" y="81" class="node" fill="#E392A2">0.24</text><text x="408.7" y="73.6" class="node" fill="#E392A2">0.24</text><text x="358.5" y="103" class="node" fill="#E392A2">0.24</text><text x="333.4" y="157.2" class="node" fill="#E392A2">0.24</text><text x="358.5" y="147.7" class="node" fill="#E392A2">0.24</text><text x="383.6" y="138.5" class="node" fill="#4A6FE3">1</text><text x="408.7" y="129.9" class="node" fill="#4A6FE3">1</text><text x="433.8" y="122.6" class="node" fill="#ABB4E2">0.7</text><text x="283.2" y="228.2" class="node" fill="#4F72E2">0.99</text><text x="308.3" y="216.2" class="node" fill="#4F72E2">0.99</text><text x="333.4" y="207.1" class="node" fill="#4A6FE3">1</text><text x="358.5" y="198.5" class="node" fill="#4A6FE3">1</text><text x="383.6" y="191.1" class="node" fill="#BCC2E3">0.64</text><text x="308.3" y="240.1" class="node" fill="#C4C9E3">0.61</text><text x="258.1" y="278" class="node" fill="#ABB4E2">0.7</text><text x="283.2" y="267" class="node" fill="#A8B1E2">0.71</text><text x="308.3" y="259.7" class="node" fill="#4A6FE3">1</text><text x="283.2" y="289.1" class="node" fill="#4A6FE3">1</text><text x="207.8" y="343.5" class="node" fill="#DADBE3">0.53</text><text x="232.9" y="334.3" class="node" fill="#E392A2">0.24</text><text x="258.1" y="325.8" class="node" fill="#4A6FE3">1</text><text x="283.2" y="318.4" class="node" fill="#D75376">0.05</text><text x="157.6" y="377.2" class="node" fill="#D75376">0.05</text><text x="132.5" y="404.1" class="node" fill="#4A6FE3">1</text><text x="157.6" y="396.8" class="node" fill="#DD6C86">0.12</text><text x="107.4" y="433.5" class="node" fill="#E392A2">0.24</text><text x="132.5" y="426.1" class="node" fill="#E392A2">0.24</text><text x="82.3" y="647.2" class="node" fill="#4A6FE3">1</text><text x="107.4" y="633.2" class="node" fill="#E392A2">0.24</text><text x="132.5" y="620" class="node" fill="#E392A2">0.24</text><text x="157.6" y="603.4" class="node" fill="#E392A2">0.24</text><text x="182.7" y="584.8" class="node" fill="#E392A2">0.24</text><text x="207.8" y="562.4" class="node" fill="#E392A2">0.24</text><text x="232.9" y="536.5" class="node" fill="#E392A2">0.24</text><text x="258.1" y="524.4" class="node" fill="#E59FAC">0.28</text><text x="283.2" y="510.1" class="node" fill="#6D84E1">0.91</text><text x="308.3" y="496.2" class="node" fill="#4A6FE3">1</text><text x="333.4" y="483.1" class="node" fill="#E392A2">0.24</text><text x="358.5" y="471.4" class="node" fill="#E0E0E2">0.51</text><text x="383.6" y="462.9" class="node" fill="#DD6F88">0.13</text><text x="408.7" y="455.5" class="node" fill="#E392A2">0.24</text><text x="358.5" y="494.7" class="node" fill="#4A6FE3">1</text><text x="308.3" y="524.1" class="node" fill="#8F9DE1">0.8</text><text x="232.9" y="588.3" class="node" fill="#8F9DE1">0.8</text><text x="258.1" y="579.1" class="node" fill="#8F9DE1">0.8</text><text x="283.2" y="570.6" class="node" fill="#4A6FE3">1</text><text x="308.3" y="563.2" class="node" fill="#E0E0E2">0.51</text><text x="182.7" y="622" class="node" fill="#E392A2">0.24</text><text x="107.4" y="661.1" class="node" fill="#4A6FE3">1</text><text x="57.2" y="696.6" class="node" fill="#A8B1E2">0.71</text><text x="82.3" y="688.1" class="node" fill="#CACDE3">0.59</text><text x="107.4" y="680.7" class="node" fill="#E5CDD1">0.43</text></svg>
