<svg xmlns="http://www.w3.org/2000/svg" version="1.1" viewBox="0 0 682 720" preserveAspectRatio="xMidYMid meet" class="tree" data-char="69"><text x="678" y="16.8" text-anchor="end" class="stepsLabel">Character adds <tspan class="score">2</tspan> to tree score</text><text x="678" y="30.6" text-anchor="end" class="stepsLabel"><tspan class="score">0</tspan> additional regions</text><text x="678" y="44.4" text-anchor="end" class="stepsLabel"></text><text x="678" y="72" text-anchor="end" class="stepsLabel"><tspan dy="16" fill="#34caaf">An optimal tree under:</tspan><tspan x="680" style="font-style:italic" class="notThisAn" dy="1.2em">Implied weights, k = 3</tspan><tspan x="680" style="font-style:italic" class="notThisAn" dy="1.2em">IW, k = 4.5</tspan><tspan x="680" style="font-style:italic" class="notThisAn" dy="1.2em">IW, k = 7</tspan><tspan x="680" style="font-style:italic" class="thisAn" dy="1.2em">IW, k = 10.5</tspan><tspan x="680" style="font-style:italic" class="notThisAn" dy="1.2em">IW, k = 16</tspan><tspan x="680" style="font-style:italic" class="notThisAn" dy="1.2em">IW, k = 24</tspan><tspan x="680" style="font-style:italic" class="notThisAn" dy="1.2em">Equal weights</tspan></text><text x="124.2" y="658.6" fill="#91bfdb" class="flag">[2]</text><text x="146.2" y="658.6" fill="#000" class="taxonLabel">Serpula</text><text x="124.2" y="672.7" fill="lightgrey" class="flag">[-]</text><text x="146.2" y="672.7" fill="#ccc" class="taxonLabel">Capitella</text><text x="100.4" y="686.8" fill="grey" class="flag">[?]</text><text x="122.4" y="686.8" fill="#999" class="taxonLabel">Canadia spinosa</text><text x="76.6" y="700.9" fill="#e2e2a2" class="flag">[1]</text><text x="98.6" y="700.9" fill="#000" class="taxonLabel">Sipunculus</text><text x="195.8" y="602.2" fill="lightgrey" class="flag">[-]</text><text x="217.8" y="602.2" fill="#ccc" class="taxonLabel">Neopilina</text><text x="195.8" y="616.3" fill="grey" class="flag">[?]</text><text x="217.8" y="616.3" fill="#999" class="taxonLabel">Conocardium elongatum</text><text x="172" y="630.4" fill="lightgrey" class="flag">[-]</text><text x="194" y="630.4" fill="#ccc" class="taxonLabel">Haliotis</text><text x="195.8" y="559.9" fill="grey" class="flag">[?]</text><text x="217.8" y="559.9" fill="#999" class="taxonLabel">Pojetaia runnegari</text><text x="195.8" y="574" fill="lightgrey" class="flag">[-]</text><text x="217.8" y="574" fill="#ccc" class="taxonLabel">Mytilus</text><text x="172" y="588.1" fill="lightgrey" class="flag">[-]</text><text x="194" y="588.1" fill="#ccc" class="taxonLabel">Dentalium</text><text x="172" y="531.7" fill="grey" class="flag">[?]</text><text x="194" y="531.7" fill="#999" class="taxonLabel">Wiwaxia corrugata</text><text x="172" y="545.8" fill="grey" class="flag">[?]</text><text x="194" y="545.8" fill="#999" class="taxonLabel">Odontogriphus omalus</text><text x="243.5" y="489.4" fill="grey" class="flag">[?]</text><text x="265.5" y="489.4" fill="#999" class="taxonLabel">Kulindroplax perissokomos</text><text x="243.5" y="503.5" fill="lightgrey" class="flag">[-]</text><text x="265.5" y="503.5" fill="#ccc" class="taxonLabel">Chaetoderma</text><text x="243.5" y="461.2" fill="lightgrey" class="flag">[-]</text><text x="265.5" y="461.2" fill="#ccc" class="taxonLabel">Wirenia</text><text x="243.5" y="475.3" fill="grey" class="flag">[?]</text><text x="265.5" y="475.3" fill="#999" class="taxonLabel">Phthipodochiton thraivensis</text><text x="195.8" y="517.6" fill="grey" class="flag">[?]</text><text x="217.8" y="517.6" fill="#999" class="taxonLabel">Acaenoplax hayae</text><text x="315.1" y="362.5" fill="lightgrey" class="flag">[-]</text><text x="337.1" y="362.5" fill="#ccc" class="taxonLabel">Tonicella</text><text x="315.1" y="376.6" fill="lightgrey" class="flag">[-]</text><text x="337.1" y="376.6" fill="#ccc" class="taxonLabel">Mopalia</text><text x="291.2" y="390.7" fill="grey" class="flag">[?]</text><text x="313.2" y="390.7" fill="#999" class="taxonLabel">Polysacos vickersianum</text><text x="267.4" y="404.8" fill="lightgrey" class="flag">[-]</text><text x="289.4" y="404.8" fill="#ccc" class="taxonLabel">Leptochiton</text><text x="243.5" y="418.9" fill="grey" class="flag">[?]</text><text x="265.5" y="418.9" fill="#999" class="taxonLabel">Glaphurochiton carbonarius</text><text x="219.7" y="433" fill="grey" class="flag">[?]</text><text x="241.7" y="433" fill="#999" class="taxonLabel">Calvapilosa kroegeri</text><text x="195.8" y="447.1" fill="grey" class="flag">[?]</text><text x="217.8" y="447.1" fill="#999" class="taxonLabel">Siphogonuchites multa</text><text x="100.4" y="644.5" fill="grey" class="flag">[?]</text><text x="122.4" y="644.5" fill="#999" class="taxonLabel">Pelagiella</text><text x="219.7" y="277.9" fill="#e2e2a2" class="flag">[1]</text><text x="241.7" y="277.9" fill="#000" class="taxonLabel">Flustra</text><text x="219.7" y="292" fill="#e2e2a2" class="flag">[1]</text><text x="241.7" y="292" fill="#000" class="taxonLabel">Amathia</text><text x="195.8" y="306.1" fill="grey" class="flag">[?]</text><text x="217.8" y="306.1" fill="#999" class="taxonLabel">Namacalathus</text><text x="267.4" y="221.5" fill="grey" class="flag">[?]</text><text x="289.4" y="221.5" fill="#999" class="taxonLabel">Orthrozanclus</text><text x="267.4" y="235.6" fill="grey" class="flag">[?]</text><text x="289.4" y="235.6" fill="#999" class="taxonLabel">Halkieria evangelista</text><text x="291.2" y="193.3" fill="grey" class="flag">[?]</text><text x="313.2" y="193.3" fill="#999" class="taxonLabel">Pedunculotheca diania</text><text x="291.2" y="207.4" fill="grey" class="flag">[?]</text><text x="313.2" y="207.4" fill="#999" class="taxonLabel">Haplophrentis carinatus</text><text x="362.8" y="136.9" fill="grey" class="flag">[?]</text><text x="384.8" y="136.9" fill="#999" class="taxonLabel">Mickwitzia muralensis</text><text x="362.8" y="151" fill="grey" class="flag">[?]</text><text x="384.8" y="151" fill="#999" class="taxonLabel">Heliomedusa orienta</text><text x="386.6" y="108.7" fill="grey" class="flag">[?]</text><text x="408.6" y="108.7" fill="#999" class="taxonLabel">Micromitra</text><text x="386.6" y="122.8" fill="grey" class="flag">[?]</text><text x="408.6" y="122.8" fill="#999" class="taxonLabel">Gasconsia</text><text x="410.5" y="80.5" fill="#91bfdb" class="flag">[2]</text><text x="432.5" y="80.5" fill="#000" class="taxonLabel">Terebratulina</text><text x="410.5" y="94.6" fill="grey" class="flag">[?]</text><text x="432.5" y="94.6" fill="#999" class="taxonLabel">Orthis</text><text x="482" y="10" fill="grey" class="flag">[?]</text><text x="504" y="10" fill="#999" class="taxonLabel">Yuganotheca elegans</text><text x="482" y="24.1" fill="grey" class="flag">[?]</text><text x="504" y="24.1" fill="#999" class="taxonLabel">Lingula</text><text x="458.2" y="38.2" fill="grey" class="flag">[?]</text><text x="480.2" y="38.2" fill="#999" class="taxonLabel">Lingulellotreta malongensis</text><text x="434.3" y="52.3" fill="grey" class="flag">[?]</text><text x="456.3" y="52.3" fill="#999" class="taxonLabel">Pelagodiscus atlanticus</text><text x="410.5" y="66.4" fill="grey" class="flag">[?]</text><text x="432.5" y="66.4" fill="#999" class="taxonLabel">Novocrania</text><text x="315.1" y="165.1" fill="grey" class="flag">[?]</text><text x="337.1" y="165.1" fill="#999" class="taxonLabel">Micrina</text><text x="291.2" y="179.2" fill="grey" class="flag">[?]</text><text x="313.2" y="179.2" fill="#999" class="taxonLabel">Paterimitra</text><text x="219.7" y="249.7" fill="grey" class="flag">[?]</text><text x="241.7" y="249.7" fill="#999" class="taxonLabel">Eccentrotheca</text><text x="195.8" y="263.8" fill="#91bfdb" class="flag">[2]</text><text x="217.8" y="263.8" fill="#000" class="taxonLabel">Phoronis</text><text x="148.1" y="320.2" fill="grey" class="flag">[?]</text><text x="170.1" y="320.2" fill="#999" class="taxonLabel">Dailyatia</text><text x="124.2" y="334.3" fill="grey" class="flag">[?]</text><text x="146.2" y="334.3" fill="#999" class="taxonLabel">Cotyledion tylodes</text><text x="100.4" y="348.4" fill="#e2e2a2" class="flag">[1]</text><text x="122.4" y="348.4" fill="#000" class="taxonLabel">Loxosomella</text><text x="28.9" y="715" fill="grey" class="flag">[?]</text><text x="50.9" y="715" fill="#999" class="taxonLabel">Yilingia spiciformis</text><path d="M5,642.8V573.6H28.9M28.9,573.6V461.6H52.7M52.7,461.6V328.6H76.6M76.6,328.6V311.8H100.4M100.4,311.8V292.3H124.2M124.2,292.3V267.5H148.1M148.1,267.5V292.5H172M172,292.5V281.9H195.8M195.8,281.9V274.9H219.7M195.8,281.9V289H219.7M172,292.5V303.1H195.8M124.2,292.3V317.2H148.1M100.4,311.8V331.3H124.2M76.6,328.6V345.4H100.4M28.9,573.6V685.6H52.7M52.7,685.6V673.2H76.6M52.7,685.6V697.9H76.6M5,642.8V712H28.9" stroke="#e2e2a2"></path><path d="M148.1,267.5V242.4H172M172,242.4V224.1H195.8M195.8,224.1V201.5H219.7M219.7,201.5V177.4H243.5M243.5,177.4V157.5H267.4M267.4,157.5V138.8H291.2M291.2,138.8V115.5H315.1M315.1,115.5V90.1H338.9M338.9,90.1V67.4H362.8M362.8,67.4V50.2H386.6M386.6,50.2V37H410.5M410.5,37V24.6H434.3M434.3,24.6V14.1H458.2M458.2,14.1V7H482M458.2,14.1V21.1H482M434.3,24.6V35.2H458.2M410.5,37V49.3H434.3M386.6,50.2V63.4H410.5M362.8,67.4V84.5H386.6M386.6,84.5V77.5H410.5M386.6,84.5V91.6H410.5M338.9,90.1V112.8H362.8M362.8,112.8V105.7H386.6M362.8,112.8V119.8H386.6M315.1,115.5V140.9H338.9M338.9,140.9V133.9H362.8M338.9,140.9V148H362.8M291.2,138.8V162.1H315.1M267.4,157.5V176.2H291.2M243.5,177.4V197.3H267.4M267.4,197.3V190.3H291.2M267.4,197.3V204.4H291.2M219.7,201.5V225.6H243.5M243.5,225.6V218.5H267.4M243.5,225.6V232.6H267.4M195.8,224.1V246.7H219.7M172,242.4V260.8H195.8M100.4,662.6V655.6H124.2" stroke="#91bfdb"></path><path d="M52.7,461.6V594.6H76.6M76.6,594.6V547.7H100.4M100.4,547.7V499.7H124.2M124.2,499.7V463.6H148.1M148.1,463.6V430.2H172M172,430.2V416.3H195.8M195.8,416.3V402.7H219.7M219.7,402.7V389.5H243.5M243.5,389.5V377.1H267.4M267.4,377.1V366.5H291.2M291.2,366.5V359.5H315.1M291.2,366.5V373.6H315.1M267.4,377.1V387.7H291.2M243.5,389.5V401.8H267.4M219.7,402.7V415.9H243.5M195.8,416.3V430H219.7M172,430.2V444.1H195.8M148.1,463.6V497H172M172,497V479.4H195.8M195.8,479.4V465.2H219.7M219.7,465.2V458.2H243.5M219.7,465.2V472.3H243.5M195.8,479.4V493.4H219.7M219.7,493.4V486.4H243.5M219.7,493.4V500.5H243.5M172,497V514.6H195.8M124.2,499.7V535.8H148.1M148.1,535.8V528.7H172M148.1,535.8V542.8H172M100.4,547.7V595.7H124.2M124.2,595.7V574.5H148.1M148.1,574.5V564H172M172,564V556.9H195.8M172,564V571H195.8M148.1,574.5V585.1H172M124.2,595.7V616.8H148.1M148.1,616.8V606.2H172M172,606.2V599.2H195.8M172,606.2V613.3H195.8M148.1,616.8V627.4H172M76.6,594.6V641.5H100.4M100.4,662.6V669.7H124.2" stroke="lightgrey" class="inapplicable"></path><path d="M76.6,673.2V662.6H100.4M76.6,673.2V683.8H100.4" stroke="darkgrey"></path><text x="30.9" y="576.6" class="node" fill="#E38FA0">0.23</text><text x="54.7" y="464.6" class="node" fill="#E2899B">0.21</text><text x="78.6" y="331.6" class="node" fill="#E2899B">0.21</text><text x="102.4" y="314.8" class="node" fill="#DB6581">0.1</text><text x="126.2" y="295.3" class="node" fill="#DD6F88">0.13</text><text x="150.1" y="270.5" class="node" fill="#DF758D">0.15</text><text x="174" y="245.4" class="node" fill="#DD6F88">0.13</text><text x="197.8" y="227.1" class="node" fill="#E6AEB8">0.33</text><text x="221.7" y="204.5" class="node" fill="#E6B7C0">0.36</text><text x="245.5" y="180.4" class="node" fill="#5776E2">0.97</text><text x="269.4" y="160.5" class="node" fill="#5776E2">0.97</text><text x="293.2" y="141.8" class="node" fill="#5776E2">0.97</text><text x="317.1" y="118.5" class="node" fill="#5776E2">0.97</text><text x="340.9" y="93.1" class="node" fill="#5776E2">0.97</text><text x="364.8" y="70.4" class="node" fill="#5776E2">0.97</text><text x="388.6" y="53.2" class="node" fill="#5776E2">0.97</text><text x="412.5" y="40" class="node" fill="#4A6FE3">1</text><text x="436.3" y="27.6" class="node" fill="#E3DFE0">0.49</text><text x="460.2" y="17.1" class="node" fill="#4A6FE3">1</text><text x="388.6" y="87.5" class="node" fill="#4A6FE3">1</text><text x="364.8" y="115.8" class="node" fill="#5776E2">0.97</text><text x="340.9" y="143.9" class="node" fill="#4A6FE3">1</text><text x="269.4" y="200.3" class="node" fill="#D2D4E3">0.56</text><text x="245.5" y="228.6" class="node" fill="#E17F94">0.18</text><text x="174" y="295.5" class="node" fill="#4A6FE3">1</text><text x="197.8" y="284.9" class="node" fill="#4A6FE3">1</text><text x="78.6" y="597.6" class="node" fill="#E2899B">0.21</text><text x="102.4" y="550.7" class="node" fill="#E2899B">0.21</text><text x="126.2" y="502.7" class="node" fill="#E2899B">0.21</text><text x="150.1" y="466.6" class="node" fill="#DA5E7D">0.08</text><text x="174" y="433.2" class="node" fill="#5776E2">0.97</text><text x="197.8" y="419.3" class="node" fill="#4A6FE3">1</text><text x="221.7" y="405.7" class="node" fill="#4A6FE3">1</text><text x="245.5" y="392.5" class="node" fill="#4A6FE3">1</text><text x="269.4" y="380.1" class="node" fill="#4A6FE3">1</text><text x="293.2" y="369.5" class="node" fill="#DD6F88">0.13</text><text x="174" y="500" class="node" fill="#E2899B">0.21</text><text x="197.8" y="482.4" class="node" fill="#E38FA0">0.23</text><text x="221.7" y="468.2" class="node" fill="#E2899B">0.21</text><text x="221.7" y="496.4" class="node" fill="#4A6FE3">1</text><text x="150.1" y="538.8" class="node" fill="#7A8DE1">0.87</text><text x="126.2" y="598.7" class="node" fill="#4A6FE3">1</text><text x="150.1" y="577.5" class="node" fill="#5776E2">0.97</text><text x="174" y="567" class="node" fill="#8091E1">0.85</text><text x="150.1" y="619.8" class="node" fill="#5776E2">0.97</text><text x="174" y="609.2" class="node" fill="#4A6FE3">1</text><text x="54.7" y="688.6" class="node" fill="#4A6FE3">1</text><text x="78.6" y="676.2" class="node" fill="#4A6FE3">1</text><text x="102.4" y="665.6" class="node" fill="#E38FA0">0.23</text></svg>
