<svg xmlns="http://www.w3.org/2000/svg" version="1.1" viewBox="0 0 682 720" preserveAspectRatio="xMidYMid meet" class="tree" data-char="205"><text x="678" y="12.7" text-anchor="end" class="stepsLabel">Character adds <tspan class="score">1</tspan> to tree score</text><text x="678" y="22.4" text-anchor="end" class="stepsLabel"><tspan class="score">0</tspan> additional regions</text><text x="678" y="32.1" text-anchor="end" class="stepsLabel"></text><text x="678" y="51.5" text-anchor="end" class="stepsLabel"><tspan dy="16" fill="#34caaf">An optimal tree under:</tspan><tspan x="680" style="font-style:italic" class="notThisAn" dy="1.2em">Implied weights, k = 4.5</tspan><tspan x="680" style="font-style:italic" class="notThisAn" dy="1.2em">IW, k = 10.5</tspan><tspan x="680" style="font-style:italic" class="thisAn" dy="1.2em">IW, k = 24</tspan><tspan x="680" style="font-style:italic" class="notThisAn" dy="1.2em">Equal weights</tspan></text><text x="230.9" y="646.5" fill="#91bfdb" class="flag">[1]</text><text x="252.9" y="646.5" fill="#000" class="taxonLabel">Flustra</text><text x="230.9" y="656.2" fill="grey" class="flag">[?]</text><text x="252.9" y="656.2" fill="#999" class="taxonLabel">Amathia</text><text x="331.4" y="597.5" fill="#91bfdb" class="flag">[1]</text><text x="353.4" y="597.5" fill="#000" class="taxonLabel">Sipunculus</text><text x="331.4" y="607.3" fill="#91bfdb" class="flag">[1]</text><text x="353.4" y="607.3" fill="#000" class="taxonLabel">Capitella</text><text x="306.3" y="617.1" fill="#91bfdb" class="flag">[1]</text><text x="328.3" y="617.1" fill="#000" class="taxonLabel">Serpula</text><text x="281.2" y="626.9" fill="grey" class="flag">[?]</text><text x="303.2" y="626.9" fill="#999" class="taxonLabel">Canadia spinosa</text><text x="306.3" y="577.9" fill="grey" class="flag">[?]</text><text x="328.3" y="577.9" fill="#999" class="taxonLabel">Wiwaxia corrugata</text><text x="306.3" y="587.7" fill="grey" class="flag">[?]</text><text x="328.3" y="587.7" fill="#999" class="taxonLabel">Odontogriphus omalus</text><text x="406.7" y="538.8" fill="#91bfdb" class="flag">[1]</text><text x="428.7" y="538.8" fill="#000" class="taxonLabel">Neopilina</text><text x="406.7" y="548.5" fill="grey" class="flag">[?]</text><text x="428.7" y="548.5" fill="#999" class="taxonLabel">Conocardium elongatum</text><text x="381.6" y="558.3" fill="#91bfdb" class="flag">[1]</text><text x="403.6" y="558.3" fill="#000" class="taxonLabel">Haliotis</text><text x="406.7" y="509.4" fill="grey" class="flag">[?]</text><text x="428.7" y="509.4" fill="#999" class="taxonLabel">Pojetaia runnegari</text><text x="406.7" y="519.2" fill="#91bfdb" class="flag">[1]</text><text x="428.7" y="519.2" fill="#000" class="taxonLabel">Mytilus</text><text x="381.6" y="529" fill="#91bfdb" class="flag">[1]</text><text x="403.6" y="529" fill="#000" class="taxonLabel">Dentalium</text><text x="331.4" y="568.1" fill="grey" class="flag">[?]</text><text x="353.4" y="568.1" fill="#999" class="taxonLabel">Pelagiella</text><text x="431.8" y="470.2" fill="grey" class="flag">[?]</text><text x="453.8" y="470.2" fill="#999" class="taxonLabel">Kulindroplax perissokomos</text><text x="431.8" y="480" fill="grey" class="flag">[?]</text><text x="453.8" y="480" fill="#999" class="taxonLabel">Acaenoplax hayae</text><text x="431.8" y="450.6" fill="#91bfdb" class="flag">[1]</text><text x="453.8" y="450.6" fill="#000" class="taxonLabel">Wirenia</text><text x="431.8" y="460.4" fill="#91bfdb" class="flag">[1]</text><text x="453.8" y="460.4" fill="#000" class="taxonLabel">Chaetoderma</text><text x="381.6" y="489.8" fill="grey" class="flag">[?]</text><text x="403.6" y="489.8" fill="#999" class="taxonLabel">Phthipodochiton thraivensis</text><text x="356.5" y="499.6" fill="grey" class="flag">[?]</text><text x="378.5" y="499.6" fill="#999" class="taxonLabel">Siphogonuchites multa</text><text x="456.9" y="391.9" fill="#91bfdb" class="flag">[1]</text><text x="478.9" y="391.9" fill="#000" class="taxonLabel">Tonicella</text><text x="456.9" y="401.7" fill="#91bfdb" class="flag">[1]</text><text x="478.9" y="401.7" fill="#000" class="taxonLabel">Mopalia</text><text x="431.8" y="411.5" fill="grey" class="flag">[?]</text><text x="453.8" y="411.5" fill="#999" class="taxonLabel">Polysacos vickersianum</text><text x="406.7" y="421.2" fill="#91bfdb" class="flag">[1]</text><text x="428.7" y="421.2" fill="#000" class="taxonLabel">Leptochiton</text><text x="381.6" y="431" fill="grey" class="flag">[?]</text><text x="403.6" y="431" fill="#999" class="taxonLabel">Glaphurochiton carbonarius</text><text x="356.5" y="440.8" fill="grey" class="flag">[?]</text><text x="378.5" y="440.8" fill="#999" class="taxonLabel">Calvapilosa kroegeri</text><text x="230.9" y="636.7" fill="#fc8d59" class="flag">[0]</text><text x="252.9" y="636.7" fill="#000" class="taxonLabel">Loxosomella</text><text x="180.7" y="666" fill="#91bfdb" class="flag">[1]</text><text x="202.7" y="666" fill="#000" class="taxonLabel">Phoronis</text><text x="155.6" y="675.8" fill="grey" class="flag">[?]</text><text x="177.6" y="675.8" fill="#999" class="taxonLabel">Namacalathus</text><text x="130.5" y="685.6" fill="grey" class="flag">[?]</text><text x="152.5" y="685.6" fill="#999" class="taxonLabel">Cotyledion tylodes</text><text x="105.4" y="695.4" fill="grey" class="flag">[?]</text><text x="127.4" y="695.4" fill="#999" class="taxonLabel">Eccentrotheca</text><text x="256.1" y="333.1" fill="grey" class="flag">[?]</text><text x="278.1" y="333.1" fill="#999" class="taxonLabel">Cupitheca holocyclata</text><text x="256.1" y="342.9" fill="grey" class="flag">[?]</text><text x="278.1" y="342.9" fill="#999" class="taxonLabel">Bactrotheca</text><text x="256.1" y="313.5" fill="grey" class="flag">[?]</text><text x="278.1" y="313.5" fill="#999" class="taxonLabel">Paramicrocornus</text><text x="256.1" y="323.3" fill="grey" class="flag">[?]</text><text x="278.1" y="323.3" fill="#999" class="taxonLabel">Haplophrentis carinatus</text><text x="205.8" y="352.7" fill="grey" class="flag">[?]</text><text x="227.8" y="352.7" fill="#999" class="taxonLabel">Pedunculotheca diania</text><text x="281.2" y="274.4" fill="grey" class="flag">[?]</text><text x="303.2" y="274.4" fill="#999" class="taxonLabel">Mickwitzia muralensis</text><text x="281.2" y="284.2" fill="grey" class="flag">[?]</text><text x="303.2" y="284.2" fill="#999" class="taxonLabel">Heliomedusa orienta</text><text x="256.1" y="294" fill="grey" class="flag">[?]</text><text x="278.1" y="294" fill="#999" class="taxonLabel">Micrina</text><text x="306.3" y="254.8" fill="grey" class="flag">[?]</text><text x="328.3" y="254.8" fill="#999" class="taxonLabel">Micromitra</text><text x="306.3" y="264.6" fill="grey" class="flag">[?]</text><text x="328.3" y="264.6" fill="#999" class="taxonLabel">Askepasma toddense</text><text x="356.5" y="225.4" fill="grey" class="flag">[?]</text><text x="378.5" y="225.4" fill="#999" class="taxonLabel">Coolinia pecten</text><text x="356.5" y="235.2" fill="grey" class="flag">[?]</text><text x="378.5" y="235.2" fill="#999" class="taxonLabel">Antigonambonites planus</text><text x="381.6" y="205.8" fill="grey" class="flag">[?]</text><text x="403.6" y="205.8" fill="#999" class="taxonLabel">Nisusia sulcata</text><text x="381.6" y="215.6" fill="grey" class="flag">[?]</text><text x="403.6" y="215.6" fill="#999" class="taxonLabel">Kutorgina chengjiangensis</text><text x="482" y="147.1" fill="#91bfdb" class="flag">[1]</text><text x="504" y="147.1" fill="#000" class="taxonLabel">Terebratulina</text><text x="482" y="156.9" fill="grey" class="flag">[?]</text><text x="504" y="156.9" fill="#999" class="taxonLabel">Orthis</text><text x="456.9" y="166.7" fill="grey" class="flag">[?]</text><text x="478.9" y="166.7" fill="#999" class="taxonLabel">Alisina</text><text x="431.8" y="176.5" fill="grey" class="flag">[?]</text><text x="453.8" y="176.5" fill="#999" class="taxonLabel">Longtancunella chengjiangensis</text><text x="406.7" y="186.2" fill="grey" class="flag">[?]</text><text x="428.7" y="186.2" fill="#999" class="taxonLabel">Glyptoria</text><text x="381.6" y="196" fill="grey" class="flag">[?]</text><text x="403.6" y="196" fill="#999" class="taxonLabel">Tomteluva perturbata</text><text x="306.3" y="245" fill="grey" class="flag">[?]</text><text x="328.3" y="245" fill="#999" class="taxonLabel">Salanygolina</text><text x="356.5" y="107.9" fill="#91bfdb" class="flag">[1]</text><text x="378.5" y="107.9" fill="#000" class="taxonLabel">Novocrania</text><text x="356.5" y="117.7" fill="grey" class="flag">[?]</text><text x="378.5" y="117.7" fill="#999" class="taxonLabel">Craniops</text><text x="331.4" y="127.5" fill="grey" class="flag">[?]</text><text x="353.4" y="127.5" fill="#999" class="taxonLabel">Ussunia</text><text x="306.3" y="137.3" fill="grey" class="flag">[?]</text><text x="328.3" y="137.3" fill="#999" class="taxonLabel">Gasconsia</text><text x="406.7" y="59" fill="#91bfdb" class="flag">[1]</text><text x="428.7" y="59" fill="#000" class="taxonLabel">Pelagodiscus atlanticus</text><text x="406.7" y="68.8" fill="grey" class="flag">[?]</text><text x="428.7" y="68.8" fill="#999" class="taxonLabel">Mummpikia nuda</text><text x="482" y="10" fill="grey" class="flag">[?]</text><text x="504" y="10" fill="#999" class="taxonLabel">Siphonobolus priscus</text><text x="482" y="19.8" fill="grey" class="flag">[?]</text><text x="504" y="19.8" fill="#999" class="taxonLabel">Acanthotretella spinosa</text><text x="456.9" y="29.6" fill="grey" class="flag">[?]</text><text x="478.9" y="29.6" fill="#999" class="taxonLabel">Lingulosacculus</text><text x="431.8" y="39.4" fill="grey" class="flag">[?]</text><text x="453.8" y="39.4" fill="#999" class="taxonLabel">Clupeafumosus socialis</text><text x="406.7" y="49.2" fill="grey" class="flag">[?]</text><text x="428.7" y="49.2" fill="#999" class="taxonLabel">Lingulellotreta malongensis</text><text x="356.5" y="78.5" fill="grey" class="flag">[?]</text><text x="378.5" y="78.5" fill="#999" class="taxonLabel">Botsfordia</text><text x="331.4" y="88.3" fill="grey" class="flag">[?]</text><text x="353.4" y="88.3" fill="#999" class="taxonLabel">Eoobolus</text><text x="306.3" y="98.1" fill="#91bfdb" class="flag">[1]</text><text x="328.3" y="98.1" fill="#000" class="taxonLabel">Lingula</text><text x="205.8" y="303.8" fill="grey" class="flag">[?]</text><text x="227.8" y="303.8" fill="#999" class="taxonLabel">Yuganotheca elegans</text><text x="155.6" y="362.5" fill="grey" class="flag">[?]</text><text x="177.6" y="362.5" fill="#999" class="taxonLabel">Paterimitra</text><text x="130.5" y="372.3" fill="grey" class="flag">[?]</text><text x="152.5" y="372.3" fill="#999" class="taxonLabel">Halkieria evangelista</text><text x="105.4" y="382.1" fill="grey" class="flag">[?]</text><text x="127.4" y="382.1" fill="#999" class="taxonLabel">Orthrozanclus</text><text x="55.2" y="705.2" fill="grey" class="flag">[?]</text><text x="77.2" y="705.2" fill="#999" class="taxonLabel">Dailyatia</text><text x="30.1" y="715" fill="grey" class="flag">[?]</text><text x="52.1" y="715" fill="#999" class="taxonLabel">Yilingia spiciformis</text><path d="M5,662.3V612.6H30.1M30.1,612.6V523H55.2M55.2,523V364.4H80.3M80.3,364.4V349.8H105.4M105.4,349.8V330.3H130.5M130.5,330.3V301H155.6M155.6,301V264.6H180.7M180.7,264.6V228.5H205.8M205.8,228.5V173.4H230.9M230.9,173.4V105.1H256.1M256.1,105.1V84.5H281.2M281.2,84.5V73.8H306.3M306.3,73.8V62.2H331.4M331.4,62.2V48.9H356.5M356.5,48.9V37H381.6M381.6,37V27.8H406.7M406.7,27.8V19.2H431.8M431.8,19.2V11.9H456.9M456.9,11.9V7H482M456.9,11.9V16.8H482M431.8,19.2V26.6H456.9M406.7,27.8V36.4H431.8M381.6,37V46.2H406.7M356.5,48.9V60.9H381.6M381.6,60.9V56H406.7M381.6,60.9V65.8H406.7M331.4,62.2V75.5H356.5M306.3,73.8V85.3H331.4M281.2,84.5V95.1H306.3M256.1,105.1V125.7H281.2M281.2,125.7V117.2H306.3M306.3,117.2V109.8H331.4M331.4,109.8V104.9H356.5M331.4,109.8V114.7H356.5M306.3,117.2V124.5H331.4M281.2,125.7V134.3H306.3M230.9,173.4V241.7H256.1M256.1,241.7V226.7H281.2M281.2,226.7V211.5H306.3M306.3,211.5V195.6H331.4M331.4,195.6V183.6H356.5M356.5,183.6V174.1H381.6M381.6,174.1V164.9H406.7M406.7,164.9V156.3H431.8M431.8,156.3V149H456.9M456.9,149V144.1H482M456.9,149V153.9H482M431.8,156.3V163.7H456.9M406.7,164.9V173.5H431.8M381.6,174.1V183.2H406.7M356.5,183.6V193H381.6M331.4,195.6V207.7H356.5M356.5,207.7V202.8H381.6M356.5,207.7V212.6H381.6M306.3,211.5V227.3H331.4M331.4,227.3V222.4H356.5M331.4,227.3V232.2H356.5M281.2,226.7V242H306.3M256.1,241.7V256.7H281.2M281.2,256.7V251.8H306.3M281.2,256.7V261.6H306.3M205.8,228.5V283.6H230.9M230.9,283.6V276.3H256.1M256.1,276.3V271.4H281.2M256.1,276.3V281.2H281.2M230.9,283.6V291H256.1M180.7,264.6V300.8H205.8M155.6,301V337.5H180.7M180.7,337.5V325.2H205.8M205.8,325.2V315.4H230.9M230.9,315.4V310.5H256.1M230.9,315.4V320.3H256.1M205.8,325.2V335H230.9M230.9,335V330.1H256.1M230.9,335V339.9H256.1M180.7,337.5V349.7H205.8M130.5,330.3V359.5H155.6M105.4,349.8V369.3H130.5M80.3,364.4V379.1H105.4M55.2,523V681.6H80.3M80.3,681.6V670.8H105.4M105.4,670.8V659H130.5M130.5,659V645.1H155.6M155.6,645.1V627.2H180.7M180.7,627.2V606H205.8M205.8,606V578.4H230.9M230.9,578.4V541.4H256.1M256.1,541.4V503.1H281.2M281.2,503.1V457H306.3M306.3,457V428.3H331.4M331.4,428.3V418.9H356.5M356.5,418.9V409.7H381.6M381.6,409.7V401.1H406.7M406.7,401.1V393.8H431.8M431.8,393.8V388.9H456.9M431.8,393.8V398.7H456.9M406.7,401.1V408.5H431.8M381.6,409.7V418.2H406.7M356.5,418.9V428H381.6M331.4,428.3V437.8H356.5M306.3,457V485.6H331.4M331.4,485.6V474.6H356.5M356.5,474.6V462.3H381.6M381.6,462.3V452.5H406.7M406.7,452.5V447.6H431.8M406.7,452.5V457.4H431.8M381.6,462.3V472.1H406.7M406.7,472.1V467.2H431.8M406.7,472.1V477H431.8M356.5,474.6V486.8H381.6M331.4,485.6V496.6H356.5M281.2,503.1V549.2H306.3M306.3,549.2V533.3H331.4M331.4,533.3V518.6H356.5M356.5,518.6V511.3H381.6M381.6,511.3V506.4H406.7M381.6,511.3V516.2H406.7M356.5,518.6V526H381.6M331.4,533.3V548H356.5M356.5,548V540.6H381.6M381.6,540.6V535.8H406.7M381.6,540.6V545.5H406.7M356.5,548V555.3H381.6M306.3,549.2V565.1H331.4M256.1,541.4V579.8H281.2M281.2,579.8V574.9H306.3M281.2,579.8V584.7H306.3M230.9,578.4V615.3H256.1M256.1,615.3V606.7H281.2M281.2,606.7V599.4H306.3M306.3,599.4V594.5H331.4M306.3,599.4V604.3H331.4M281.2,606.7V614.1H306.3M256.1,615.3V623.9H281.2M180.7,627.2V648.4H205.8M205.8,648.4V643.5H230.9M205.8,648.4V653.2H230.9M155.6,645.1V663H180.7M130.5,659V672.8H155.6M105.4,670.8V682.6H130.5M80.3,681.6V692.4H105.4M30.1,612.6V702.2H55.2M5,662.3V712H30.1" stroke="#91bfdb"></path><path d="M205.8,606V633.7H230.9" stroke="#fc8d59"></path><text x="32.1" y="615.6" class="node" fill="#E59FAC">0.28</text><text x="57.2" y="526" class="node" fill="#D2D4E3">0.57</text><text x="82.3" y="367.4" class="node" fill="#D2D4E3">0.57</text><text x="107.4" y="352.8" class="node" fill="#8F9DE1">0.8</text><text x="132.5" y="333.3" class="node" fill="#8F9DE1">0.8</text><text x="157.6" y="304" class="node" fill="#4A6FE3">1</text><text x="182.7" y="267.6" class="node" fill="#E59FAC">0.29</text><text x="207.8" y="231.5" class="node" fill="#E59FAC">0.29</text><text x="232.9" y="176.4" class="node" fill="#9AA6E2">0.76</text><text x="258.1" y="108.1" class="node" fill="#9AA6E2">0.76</text><text x="283.2" y="87.5" class="node" fill="#9AA6E2">0.76</text><text x="308.3" y="76.8" class="node" fill="#9AA6E2">0.76</text><text x="333.4" y="65.2" class="node" fill="#9AA6E2">0.76</text><text x="358.5" y="51.9" class="node" fill="#9AA6E2">0.76</text><text x="383.6" y="40" class="node" fill="#4A6FE3">1</text><text x="408.7" y="30.8" class="node" fill="#E6ABB6">0.32</text><text x="433.8" y="22.2" class="node" fill="#4A6FE3">1</text><text x="458.9" y="14.9" class="node" fill="#9AA6E2">0.76</text><text x="383.6" y="63.9" class="node" fill="#9AA6E2">0.76</text><text x="283.2" y="128.7" class="node" fill="#4A6FE3">1</text><text x="308.3" y="120.2" class="node" fill="#4A6FE3">1</text><text x="333.4" y="112.8" class="node" fill="#E59FAC">0.29</text><text x="258.1" y="244.7" class="node" fill="#E59FAC">0.29</text><text x="283.2" y="229.7" class="node" fill="#E59FAC">0.29</text><text x="308.3" y="214.5" class="node" fill="#E59FAC">0.29</text><text x="333.4" y="198.6" class="node" fill="#E59FAC">0.29</text><text x="358.5" y="186.6" class="node" fill="#4F72E2">0.99</text><text x="383.6" y="177.1" class="node" fill="#4F72E2">0.99</text><text x="408.7" y="167.9" class="node" fill="#4A6FE3">1</text><text x="433.8" y="159.3" class="node" fill="#4A6FE3">1</text><text x="458.9" y="152" class="node" fill="#BCC2E3">0.64</text><text x="358.5" y="210.7" class="node" fill="#4A6FE3">1</text><text x="333.4" y="230.3" class="node" fill="#ABB4E2">0.7</text><text x="283.2" y="259.7" class="node" fill="#E59FAC">0.29</text><text x="232.9" y="286.6" class="node" fill="#9AA6E2">0.76</text><text x="258.1" y="279.3" class="node" fill="#4A6FE3">1</text><text x="182.7" y="340.5" class="node" fill="#DADBE3">0.53</text><text x="207.8" y="328.2" class="node" fill="#4A6FE3">1</text><text x="232.9" y="318.4" class="node" fill="#E3DFE0">0.49</text><text x="232.9" y="338" class="node" fill="#D2D4E3">0.57</text><text x="82.3" y="684.6" class="node" fill="#E17F94">0.18</text><text x="107.4" y="673.8" class="node" fill="#D2D4E3">0.57</text><text x="132.5" y="662" class="node" fill="#E6BAC2">0.37</text><text x="157.6" y="648.1" class="node" fill="#D2D4E3">0.57</text><text x="182.7" y="630.2" class="node" fill="#D2D4E3">0.57</text><text x="207.8" y="609" class="node" fill="#D2D4E3">0.57</text><text x="232.9" y="581.4" class="node" fill="#4A6FE3">1</text><text x="258.1" y="544.4" class="node" fill="#E59FAC">0.29</text><text x="283.2" y="506.1" class="node" fill="#9AA6E2">0.76</text><text x="308.3" y="460" class="node" fill="#9AA6E2">0.76</text><text x="333.4" y="431.3" class="node" fill="#8F9DE1">0.8</text><text x="358.5" y="421.9" class="node" fill="#8F9DE1">0.8</text><text x="383.6" y="412.7" class="node" fill="#8F9DE1">0.8</text><text x="408.7" y="404.1" class="node" fill="#4A6FE3">1</text><text x="433.8" y="396.8" class="node" fill="#E6ABB6">0.32</text><text x="333.4" y="488.6" class="node" fill="#B4BBE3">0.67</text><text x="358.5" y="477.6" class="node" fill="#DF798F">0.16</text><text x="383.6" y="465.3" class="node" fill="#E3DFE0">0.49</text><text x="408.7" y="455.5" class="node" fill="#E59FAC">0.29</text><text x="408.7" y="475.1" class="node" fill="#6D84E1">0.91</text><text x="308.3" y="552.2" class="node" fill="#4A6FE3">1</text><text x="333.4" y="536.3" class="node" fill="#E6ABB6">0.32</text><text x="358.5" y="521.6" class="node" fill="#7D8FE1">0.86</text><text x="383.6" y="514.3" class="node" fill="#E4D6D8">0.46</text><text x="358.5" y="551" class="node" fill="#E3DFE0">0.49</text><text x="383.6" y="543.6" class="node" fill="#4A6FE3">1</text><text x="283.2" y="582.8" class="node" fill="#4A6FE3">1</text><text x="258.1" y="618.3" class="node" fill="#E59FAC">0.29</text><text x="283.2" y="609.7" class="node" fill="#E59FAC">0.29</text><text x="308.3" y="602.4" class="node" fill="#4A6FE3">1</text><text x="207.8" y="651.4" class="node" fill="#E59FAC">0.28</text></svg>
