<svg xmlns="http://www.w3.org/2000/svg" version="1.1" viewBox="0 0 682 720" preserveAspectRatio="xMidYMid meet" class="tree" data-char="183"><text x="678" y="16.8" text-anchor="end" class="stepsLabel">Character adds <tspan class="score">5</tspan> to tree score</text><text x="678" y="30.6" text-anchor="end" class="stepsLabel"><tspan class="score">0</tspan> additional regions</text><text x="678" y="44.4" text-anchor="end" class="stepsLabel"></text><text x="678" y="72" text-anchor="end" class="stepsLabel"><tspan dy="16" fill="#34caaf">An optimal tree under:</tspan><tspan x="680" style="font-style:italic" class="notThisAn" dy="1.2em">Implied weights, k = 3</tspan><tspan x="680" style="font-style:italic" class="thisAn" dy="1.2em">IW, k = 4.5</tspan><tspan x="680" style="font-style:italic" class="notThisAn" dy="1.2em">IW, k = 7</tspan><tspan x="680" style="font-style:italic" class="notThisAn" dy="1.2em">IW, k = 10.5</tspan><tspan x="680" style="font-style:italic" class="notThisAn" dy="1.2em">IW, k = 16</tspan><tspan x="680" style="font-style:italic" class="notThisAn" dy="1.2em">IW, k = 24</tspan><tspan x="680" style="font-style:italic" class="notThisAn" dy="1.2em">Equal weights</tspan></text><text x="164" y="658.6" fill="#fc8d59" class="flag">[0]</text><text x="186" y="658.6" fill="#000" class="taxonLabel">Serpula</text><text x="164" y="672.7" fill="#fc8d59" class="flag">[0]</text><text x="186" y="672.7" fill="#000" class="taxonLabel">Capitella</text><text x="132.2" y="686.8" fill="#fc8d59" class="flag">[0]</text><text x="154.2" y="686.8" fill="#000" class="taxonLabel">Canadia spinosa</text><text x="100.4" y="700.9" fill="#fc8d59" class="flag">[0]</text><text x="122.4" y="700.9" fill="#000" class="taxonLabel">Sipunculus</text><text x="164" y="630.4" fill="grey" class="flag">[?]</text><text x="186" y="630.4" fill="#999" class="taxonLabel">Orthrozanclus</text><text x="164" y="644.5" fill="#fc8d59" class="flag">[0]</text><text x="186" y="644.5" fill="#000" class="taxonLabel">Halkieria evangelista</text><text x="259.4" y="574" fill="#fc8d59" class="flag">[0]</text><text x="281.4" y="574" fill="#000" class="taxonLabel">Wirenia</text><text x="259.4" y="588.1" fill="grey" class="flag">[?]</text><text x="281.4" y="588.1" fill="#999" class="taxonLabel">Phthipodochiton thraivensis</text><text x="386.6" y="517.6" fill="#fc8d59" class="flag">[0]</text><text x="408.6" y="517.6" fill="#000" class="taxonLabel">Siphogonuchites multa</text><text x="386.6" y="531.7" fill="grey" class="flag">[?]</text><text x="408.6" y="531.7" fill="#999" class="taxonLabel">Calvapilosa kroegeri</text><text x="450.2" y="461.2" fill="#fc8d59" class="flag">[0]</text><text x="472.2" y="461.2" fill="#000" class="taxonLabel">Tonicella</text><text x="450.2" y="475.3" fill="#fc8d59" class="flag">[0]</text><text x="472.2" y="475.3" fill="#000" class="taxonLabel">Mopalia</text><text x="418.4" y="489.4" fill="grey" class="flag">[?]</text><text x="440.4" y="489.4" fill="#999" class="taxonLabel">Polysacos vickersianum</text><text x="386.6" y="503.5" fill="#fc8d59" class="flag">[0]</text><text x="408.6" y="503.5" fill="#000" class="taxonLabel">Leptochiton</text><text x="323" y="545.8" fill="grey" class="flag">[?]</text><text x="345" y="545.8" fill="#999" class="taxonLabel">Glaphurochiton carbonarius</text><text x="354.8" y="433" fill="#fc8d59" class="flag">[0]</text><text x="376.8" y="433" fill="#000" class="taxonLabel">Wiwaxia corrugata</text><text x="354.8" y="447.1" fill="#fc8d59" class="flag">[0]</text><text x="376.8" y="447.1" fill="#000" class="taxonLabel">Odontogriphus omalus</text><text x="450.2" y="376.6" fill="#fc8d59" class="flag">[0]</text><text x="472.2" y="376.6" fill="#000" class="taxonLabel">Neopilina</text><text x="450.2" y="390.7" fill="#fc8d59" class="flag">[0]</text><text x="472.2" y="390.7" fill="#000" class="taxonLabel">Conocardium elongatum</text><text x="418.4" y="404.8" fill="#fc8d59" class="flag">[0]</text><text x="440.4" y="404.8" fill="#000" class="taxonLabel">Haliotis</text><text x="450.2" y="334.3" fill="#fc8d59" class="flag">[0]</text><text x="472.2" y="334.3" fill="#000" class="taxonLabel">Pojetaia runnegari</text><text x="450.2" y="348.4" fill="#fc8d59" class="flag">[0]</text><text x="472.2" y="348.4" fill="#000" class="taxonLabel">Mytilus</text><text x="418.4" y="362.5" fill="#fc8d59" class="flag">[0]</text><text x="440.4" y="362.5" fill="#000" class="taxonLabel">Dentalium</text><text x="354.8" y="418.9" fill="#fc8d59" class="flag">[0]</text><text x="376.8" y="418.9" fill="#000" class="taxonLabel">Pelagiella</text><text x="259.4" y="559.9" fill="#fc8d59" class="flag">[0]</text><text x="281.4" y="559.9" fill="#000" class="taxonLabel">Chaetoderma</text><text x="195.8" y="602.2" fill="grey" class="flag">[?]</text><text x="217.8" y="602.2" fill="#999" class="taxonLabel">Acaenoplax hayae</text><text x="164" y="616.3" fill="grey" class="flag">[?]</text><text x="186" y="616.3" fill="#999" class="taxonLabel">Kulindroplax perissokomos</text><text x="227.6" y="277.9" fill="#fc8d59" class="flag">[0]</text><text x="249.6" y="277.9" fill="#000" class="taxonLabel">Namacalathus</text><text x="227.6" y="292" fill="#fc8d59" class="flag">[0]</text><text x="249.6" y="292" fill="#000" class="taxonLabel">Loxosomella</text><text x="195.8" y="306.1" fill="#fc8d59" class="flag">[0]</text><text x="217.8" y="306.1" fill="#000" class="taxonLabel">Dailyatia</text><text x="164" y="320.2" fill="grey" class="flag">[?]</text><text x="186" y="320.2" fill="#999" class="taxonLabel">Cotyledion tylodes</text><text x="195.8" y="249.7" fill="#fc8d59" class="flag">[0]</text><text x="217.8" y="249.7" fill="#000" class="taxonLabel">Flustra</text><text x="195.8" y="263.8" fill="#fc8d59" class="flag">[0]</text><text x="217.8" y="263.8" fill="#000" class="taxonLabel">Amathia</text><text x="227.6" y="221.5" fill="#fc8d59" class="flag">[0]</text><text x="249.6" y="221.5" fill="#000" class="taxonLabel">Phoronis</text><text x="227.6" y="235.6" fill="#fc8d59" class="flag">[0]</text><text x="249.6" y="235.6" fill="#000" class="taxonLabel">Eccentrotheca</text><text x="323" y="165.1" fill="#91bfdb" class="flag">[1]</text><text x="345" y="165.1" fill="#000" class="taxonLabel">Terebratulina</text><text x="323" y="179.2" fill="#fc8d59" class="flag">[0]</text><text x="345" y="179.2" fill="#000" class="taxonLabel">Orthis</text><text x="386.6" y="136.9" fill="#fc8d59" class="flag">[0]</text><text x="408.6" y="136.9" fill="#000" class="taxonLabel">Micromitra</text><text x="386.6" y="151" fill="#fc8d59" class="flag">[0]</text><text x="408.6" y="151" fill="#000" class="taxonLabel">Gasconsia</text><text x="386.6" y="108.7" fill="#91bfdb" class="flag">[1]</text><text x="408.6" y="108.7" fill="#000" class="taxonLabel">Novocrania</text><text x="386.6" y="122.8" fill="#91bfdb" class="flag">[1]</text><text x="408.6" y="122.8" fill="#000" class="taxonLabel">Heliomedusa orienta</text><text x="450.2" y="52.3" fill="grey" class="flag">[?]</text><text x="472.2" y="52.3" fill="#999" class="taxonLabel">Pedunculotheca diania</text><text x="450.2" y="66.4" fill="grey" class="flag">[?]</text><text x="472.2" y="66.4" fill="#999" class="taxonLabel">Haplophrentis carinatus</text><text x="482" y="10" fill="grey" class="flag">[?]</text><text x="504" y="10" fill="#999" class="taxonLabel">Yuganotheca elegans</text><text x="482" y="24.1" fill="#91bfdb" class="flag">[1]</text><text x="504" y="24.1" fill="#000" class="taxonLabel">Lingula</text><text x="450.2" y="38.2" fill="#fc8d59" class="flag">[0]</text><text x="472.2" y="38.2" fill="#000" class="taxonLabel">Lingulellotreta malongensis</text><text x="386.6" y="80.5" fill="#fc8d59" class="flag">[0]</text><text x="408.6" y="80.5" fill="#000" class="taxonLabel">Pelagodiscus atlanticus</text><text x="354.8" y="94.6" fill="#91bfdb" class="flag">[1]</text><text x="376.8" y="94.6" fill="#000" class="taxonLabel">Mickwitzia muralensis</text><text x="259.4" y="193.3" fill="#91bfdb" class="flag">[1]</text><text x="281.4" y="193.3" fill="#000" class="taxonLabel">Micrina</text><text x="227.6" y="207.4" fill="#fc8d59" class="flag">[0]</text><text x="249.6" y="207.4" fill="#000" class="taxonLabel">Paterimitra</text><text x="36.8" y="715" fill="grey" class="flag">[?]</text><text x="58.8" y="715" fill="#999" class="taxonLabel">Yilingia spiciformis</text><path d="M5,637.5V562.9H36.8M36.8,562.9V440.3H68.6M68.6,440.3V267H100.4M100.4,267V229.2H132.2M132.2,229.2V204.6H164M164,204.6V183.6H195.8M195.8,183.6V162.7H227.6M418.4,24.6V35.2H450.2M354.8,59V77.5H386.6M323,126.8V140.9H354.8M354.8,140.9V133.9H386.6M354.8,140.9V148H386.6M291.2,169.1V176.2H323M195.8,183.6V204.4H227.6M164,204.6V225.6H195.8M195.8,225.6V218.5H227.6M195.8,225.6V232.6H227.6M132.2,229.2V253.7H164M164,253.7V246.7H195.8M164,253.7V260.8H195.8M100.4,267V304.9H132.2M132.2,304.9V292.5H164M164,292.5V281.9H195.8M195.8,281.9V274.9H227.6M195.8,281.9V289H227.6M164,292.5V303.1H195.8M132.2,304.9V317.2H164M68.6,440.3V613.7H100.4M100.4,613.7V592.9H132.2M132.2,592.9V572.4H164M164,572.4V545.6H195.8M195.8,545.6V513.2H227.6M227.6,513.2V469.4H259.4M259.4,469.4V415H291.2M291.2,415V393H323M323,393V370.1H354.8M354.8,370.1V348.9H386.6M386.6,348.9V338.4H418.4M418.4,338.4V331.3H450.2M418.4,338.4V345.4H450.2M386.6,348.9V359.5H418.4M354.8,370.1V391.2H386.6M386.6,391.2V380.6H418.4M418.4,380.6V373.6H450.2M418.4,380.6V387.7H450.2M386.6,391.2V401.8H418.4M323,393V415.9H354.8M291.2,415V437H323M323,437V430H354.8M323,437V444.1H354.8M259.4,469.4V523.9H291.2M291.2,523.9V504.9H323M323,504.9V488.2H354.8M354.8,488.2V475.8H386.6M386.6,475.8V465.2H418.4M418.4,465.2V458.2H450.2M418.4,465.2V472.3H450.2M386.6,475.8V486.4H418.4M354.8,488.2V500.5H386.6M323,504.9V521.6H354.8M354.8,521.6V514.6H386.6M354.8,521.6V528.7H386.6M291.2,523.9V542.8H323M227.6,513.2V556.9H259.4M195.8,545.6V578H227.6M227.6,578V571H259.4M227.6,578V585.1H259.4M164,572.4V599.2H195.8M132.2,592.9V613.3H164M100.4,613.7V634.5H132.2M132.2,634.5V627.4H164M132.2,634.5V641.5H164M36.8,562.9V685.6H68.6M68.6,685.6V673.2H100.4M100.4,673.2V662.6H132.2M132.2,662.6V655.6H164M132.2,662.6V669.7H164M100.4,673.2V683.8H132.2M68.6,685.6V697.9H100.4M5,637.5V712H36.8" stroke="#fc8d59"></path><path d="M227.6,162.7V135.1H259.4M259.4,135.1V101.1H291.2M291.2,101.1V75.3H323M323,75.3V59H354.8M354.8,59V40.5H386.6M386.6,40.5V24.6H418.4M418.4,24.6V14.1H450.2M450.2,14.1V7H482M386.6,40.5V56.3H418.4M418.4,56.3V49.3H450.2M418.4,56.3V63.4H450.2M291.2,101.1V126.8H323M259.4,135.1V169.1H291.2" stroke="darkgrey"></path><path d="M450.2,14.1V21.1H482M323,75.3V91.6H354.8M323,126.8V112.8H354.8M354.8,112.8V105.7H386.6M354.8,112.8V119.8H386.6M291.2,169.1V162.1H323M227.6,162.7V190.3H259.4" stroke="#91bfdb"></path><text x="38.8" y="565.9" class="node" fill="#E6C1C7">0.39</text><text x="70.6" y="443.3" class="node" fill="#E49CAA">0.27</text><text x="102.4" y="270" class="node" fill="#E18297">0.19</text><text x="134.2" y="232.2" class="node" fill="#E07C92">0.17</text><text x="166" y="207.6" class="node" fill="#BCC2E3">0.64</text><text x="197.8" y="186.6" class="node" fill="#E49CAA">0.27</text><text x="229.6" y="165.7" class="node" fill="#E49CAA">0.27</text><text x="261.4" y="138.1" class="node" fill="#E49CAA">0.27</text><text x="293.2" y="104.1" class="node" fill="#E49CAA">0.27</text><text x="325" y="78.3" class="node" fill="#E49CAA">0.27</text><text x="356.8" y="62" class="node" fill="#E49CAA">0.27</text><text x="388.6" y="43.5" class="node" fill="#4A6FE3">1</text><text x="420.4" y="27.6" class="node" fill="#C4C9E3">0.61</text><text x="452.2" y="17.1" class="node" fill="#4A6FE3">1</text><text x="420.4" y="59.3" class="node" fill="#E49CAA">0.27</text><text x="325" y="129.8" class="node" fill="#E49CAA">0.27</text><text x="356.8" y="115.8" class="node" fill="#4A6FE3">1</text><text x="356.8" y="143.9" class="node" fill="#4A6FE3">1</text><text x="293.2" y="172.1" class="node" fill="#DD6F88">0.13</text><text x="197.8" y="228.6" class="node" fill="#4A6FE3">1</text><text x="166" y="256.7" class="node" fill="#DF798F">0.16</text><text x="134.2" y="307.9" class="node" fill="#DB617F">0.09</text><text x="166" y="295.5" class="node" fill="#E49CAA">0.27</text><text x="197.8" y="284.9" class="node" fill="#E49CAA">0.27</text><text x="102.4" y="616.7" class="node" fill="#4A6FE3">1</text><text x="134.2" y="595.9" class="node" fill="#BFC4E3">0.63</text><text x="166" y="575.4" class="node" fill="#BFC4E3">0.63</text><text x="197.8" y="548.6" class="node" fill="#E49CAA">0.27</text><text x="229.6" y="516.2" class="node" fill="#E4D9DB">0.47</text><text x="261.4" y="472.4" class="node" fill="#7388E1">0.89</text><text x="293.2" y="418" class="node" fill="#7388E1">0.89</text><text x="325" y="396" class="node" fill="#7086E1">0.9</text><text x="356.8" y="373.1" class="node" fill="#4A6FE3">1</text><text x="388.6" y="351.9" class="node" fill="#4A6FE3">1</text><text x="420.4" y="341.4" class="node" fill="#4A6FE3">1</text><text x="388.6" y="394.2" class="node" fill="#4A6FE3">1</text><text x="420.4" y="383.6" class="node" fill="#4A6FE3">1</text><text x="325" y="440" class="node" fill="#E6B1BB">0.34</text><text x="293.2" y="526.9" class="node" fill="#DF798F">0.16</text><text x="325" y="507.9" class="node" fill="#4A6FE3">1</text><text x="356.8" y="491.2" class="node" fill="#4A6FE3">1</text><text x="388.6" y="478.8" class="node" fill="#4A6FE3">1</text><text x="420.4" y="468.2" class="node" fill="#E49CAA">0.27</text><text x="356.8" y="524.6" class="node" fill="#E6C1C7">0.39</text><text x="229.6" y="581" class="node" fill="#97A4E2">0.77</text><text x="134.2" y="637.5" class="node" fill="#4A6FE3">1</text><text x="70.6" y="688.6" class="node" fill="#4A6FE3">1</text><text x="102.4" y="676.2" class="node" fill="#4A6FE3">1</text><text x="134.2" y="665.6" class="node" fill="#E6C1C7">0.39</text></svg>
