<svg xmlns="http://www.w3.org/2000/svg" version="1.1" viewBox="0 0 682 720" preserveAspectRatio="xMidYMid meet" class="tree" data-char="97"><text x="678" y="16.8" text-anchor="end" class="stepsLabel">Character adds <tspan class="score">3</tspan> to tree score</text><text x="678" y="30.6" text-anchor="end" class="stepsLabel"><tspan class="score">0</tspan> additional regions</text><text x="678" y="44.4" text-anchor="end" class="stepsLabel"></text><text x="678" y="72" text-anchor="end" class="stepsLabel"><tspan dy="16" fill="#34caaf">An optimal tree under:</tspan><tspan x="680" style="font-style:italic" class="notThisAn" dy="1.2em">Implied weights, k = 3</tspan><tspan x="680" style="font-style:italic" class="notThisAn" dy="1.2em">IW, k = 4.5</tspan><tspan x="680" style="font-style:italic" class="notThisAn" dy="1.2em">IW, k = 7</tspan><tspan x="680" style="font-style:italic" class="notThisAn" dy="1.2em">IW, k = 10.5</tspan><tspan x="680" style="font-style:italic" class="notThisAn" dy="1.2em">IW, k = 16</tspan><tspan x="680" style="font-style:italic" class="thisAn" dy="1.2em">IW, k = 24</tspan><tspan x="680" style="font-style:italic" class="notThisAn" dy="1.2em">Equal weights</tspan></text><text x="164" y="658.6" fill="NA" class="flag">[1]</text><text x="186" y="658.6" fill="NA" class="taxonLabel">Orthrozanclus</text><text x="164" y="672.7" fill="NA" class="flag">[1]</text><text x="186" y="672.7" fill="NA" class="taxonLabel">Halkieria evangelista</text><text x="190.5" y="630.4" fill="NA" class="flag">[1]</text><text x="212.5" y="630.4" fill="NA" class="taxonLabel">Pedunculotheca diania</text><text x="190.5" y="644.5" fill="NA" class="flag">[1]</text><text x="212.5" y="644.5" fill="NA" class="taxonLabel">Haplophrentis carinatus</text><text x="270" y="574" fill="NA" class="flag">[1]</text><text x="292" y="574" fill="NA" class="taxonLabel">Mickwitzia muralensis</text><text x="270" y="588.1" fill="NA" class="flag">[1]</text><text x="292" y="588.1" fill="NA" class="taxonLabel">Heliomedusa orienta</text><text x="296.5" y="545.8" fill="NA" class="flag">[1]</text><text x="318.5" y="545.8" fill="NA" class="taxonLabel">Micromitra</text><text x="296.5" y="559.9" fill="NA" class="flag">[1]</text><text x="318.5" y="559.9" fill="NA" class="taxonLabel">Gasconsia</text><text x="323" y="517.6" fill="NA" class="flag">[1]</text><text x="345" y="517.6" fill="NA" class="taxonLabel">Terebratulina</text><text x="323" y="531.7" fill="NA" class="flag">[1]</text><text x="345" y="531.7" fill="NA" class="taxonLabel">Orthis</text><text x="402.5" y="447.1" fill="NA" class="flag">[1]</text><text x="424.5" y="447.1" fill="NA" class="taxonLabel">Yuganotheca elegans</text><text x="402.5" y="461.2" fill="NA" class="flag">[1]</text><text x="424.5" y="461.2" fill="NA" class="taxonLabel">Lingulellotreta malongensis</text><text x="376" y="475.3" fill="NA" class="flag">[1]</text><text x="398" y="475.3" fill="NA" class="taxonLabel">Lingula</text><text x="349.5" y="489.4" fill="NA" class="flag">[1]</text><text x="371.5" y="489.4" fill="NA" class="taxonLabel">Pelagodiscus atlanticus</text><text x="323" y="503.5" fill="NA" class="flag">[1]</text><text x="345" y="503.5" fill="NA" class="taxonLabel">Novocrania</text><text x="217" y="602.2" fill="NA" class="flag">[1]</text><text x="239" y="602.2" fill="NA" class="taxonLabel">Micrina</text><text x="190.5" y="616.3" fill="NA" class="flag">[1]</text><text x="212.5" y="616.3" fill="NA" class="taxonLabel">Paterimitra</text><text x="111" y="686.8" fill="NA" class="flag">[0]</text><text x="133" y="686.8" fill="NA" class="taxonLabel">Eccentrotheca</text><text x="217" y="376.6" fill="NA" class="flag">[0]</text><text x="239" y="376.6" fill="NA" class="taxonLabel">Flustra</text><text x="217" y="390.7" fill="NA" class="flag">[0]</text><text x="239" y="390.7" fill="NA" class="taxonLabel">Amathia</text><text x="323" y="306.1" fill="NA" class="flag">[0]</text><text x="345" y="306.1" fill="NA" class="taxonLabel">Serpula</text><text x="323" y="320.2" fill="NA" class="flag">[0]</text><text x="345" y="320.2" fill="NA" class="taxonLabel">Capitella</text><text x="296.5" y="334.3" fill="NA" class="flag">[0]</text><text x="318.5" y="334.3" fill="NA" class="taxonLabel">Canadia spinosa</text><text x="270" y="348.4" fill="NA" class="flag">[0]</text><text x="292" y="348.4" fill="NA" class="taxonLabel">Sipunculus</text><text x="296.5" y="277.9" fill="NA" class="flag">[0]</text><text x="318.5" y="277.9" fill="NA" class="taxonLabel">Wiwaxia corrugata</text><text x="296.5" y="292" fill="NA" class="flag">[0]</text><text x="318.5" y="292" fill="NA" class="taxonLabel">Odontogriphus omalus</text><text x="402.5" y="221.5" fill="NA" class="flag">[1]</text><text x="424.5" y="221.5" fill="NA" class="taxonLabel">Neopilina</text><text x="402.5" y="235.6" fill="NA" class="flag">[1]</text><text x="424.5" y="235.6" fill="NA" class="taxonLabel">Conocardium elongatum</text><text x="376" y="249.7" fill="NA" class="flag">[1]</text><text x="398" y="249.7" fill="NA" class="taxonLabel">Haliotis</text><text x="402.5" y="179.2" fill="NA" class="flag">[1]</text><text x="424.5" y="179.2" fill="NA" class="taxonLabel">Pojetaia runnegari</text><text x="402.5" y="193.3" fill="NA" class="flag">[1]</text><text x="424.5" y="193.3" fill="NA" class="taxonLabel">Mytilus</text><text x="376" y="207.4" fill="NA" class="flag">[1]</text><text x="398" y="207.4" fill="NA" class="taxonLabel">Dentalium</text><text x="323" y="263.8" fill="NA" class="flag">[1]</text><text x="345" y="263.8" fill="NA" class="taxonLabel">Pelagiella</text><text x="376" y="151" fill="NA" class="flag">[1]</text><text x="398" y="151" fill="NA" class="taxonLabel">Kulindroplax perissokomos</text><text x="376" y="165.1" fill="NA" class="flag">[1]</text><text x="398" y="165.1" fill="NA" class="taxonLabel">Acaenoplax hayae</text><text x="402.5" y="108.7" fill="NA" class="flag">[0]</text><text x="424.5" y="108.7" fill="NA" class="taxonLabel">Wirenia</text><text x="402.5" y="122.8" fill="NA" class="flag">[0]</text><text x="424.5" y="122.8" fill="NA" class="taxonLabel">Chaetoderma</text><text x="376" y="136.9" fill="NA" class="flag">[1]</text><text x="398" y="136.9" fill="NA" class="taxonLabel">Phthipodochiton thraivensis</text><text x="482" y="10" fill="NA" class="flag">[1]</text><text x="504" y="10" fill="NA" class="taxonLabel">Tonicella</text><text x="482" y="24.1" fill="NA" class="flag">[1]</text><text x="504" y="24.1" fill="NA" class="taxonLabel">Mopalia</text><text x="455.5" y="38.2" fill="NA" class="flag">[1]</text><text x="477.5" y="38.2" fill="NA" class="taxonLabel">Polysacos vickersianum</text><text x="429" y="52.3" fill="NA" class="flag">[1]</text><text x="451" y="52.3" fill="NA" class="taxonLabel">Leptochiton</text><text x="402.5" y="66.4" fill="NA" class="flag">[1]</text><text x="424.5" y="66.4" fill="NA" class="taxonLabel">Glaphurochiton carbonarius</text><text x="376" y="80.5" fill="NA" class="flag">[1]</text><text x="398" y="80.5" fill="NA" class="taxonLabel">Calvapilosa kroegeri</text><text x="349.5" y="94.6" fill="NA" class="flag">[1]</text><text x="371.5" y="94.6" fill="NA" class="taxonLabel">Siphogonuchites multa</text><text x="217" y="362.5" fill="NA" class="flag">[0]</text><text x="239" y="362.5" fill="NA" class="taxonLabel">Loxosomella</text><text x="164" y="404.8" fill="NA" class="flag">[0]</text><text x="186" y="404.8" fill="NA" class="taxonLabel">Namacalathus</text><text x="137.5" y="418.9" fill="NA" class="flag">[0]</text><text x="159.5" y="418.9" fill="NA" class="taxonLabel">Phoronis</text><text x="111" y="433" fill="NA" class="flag">[0]</text><text x="133" y="433" fill="NA" class="taxonLabel">Cotyledion tylodes</text><text x="58" y="700.9" fill="NA" class="flag">[0]</text><text x="80" y="700.9" fill="NA" class="taxonLabel">Dailyatia</text><text x="31.5" y="715" fill="NA" class="flag">[0]</text><text x="53.5" y="715" fill="NA" class="taxonLabel">Yilingia spiciformis</text><path d="MNA,NAVNAHNAMNA,NAVNAHNAMNA,NAVNAHNAMNA,NAVNAHNAMNA,NAVNAHNAMNA,NAVNAHNAMNA,NAVNAHNAMNA,NAVNAHNAMNA,NAVNAHNAMNA,NAVNAHNAMNA,NAVNAHNAMNA,NAVNAHNAMNA,NAVNAHNAMNA,NAVNAHNAMNA,NAVNAHNAMNA,NAVNAHNAMNA,NAVNAHNAMNA,NAVNAHNAMNA,NAVNAHNAMNA,NAVNAHNAMNA,NAVNAHNAMNA,NAVNAHNAMNA,NAVNAHNAMNA,NAVNAHNAMNA,NAVNAHNAMNA,NAVNAHNAMNA,NAVNAHNAMNA,NAVNAHNAMNA,NAVNAHNAMNA,NAVNAHNAMNA,NAVNAHNAMNA,NAVNAHNAMNA,NAVNAHNAMNA,NAVNAHNAMNA,NAVNAHNAMNA,NAVNAHNAMNA,NAVNAHNAMNA,NAVNAHNAMNA,NAVNAHNAMNA,NAVNAHNAMNA,NAVNAHNAMNA,NAVNAHNAMNA,NAVNAHNAMNA,NAVNAHNAMNA,NAVNAHNAMNA,NAVNAHNAMNA,NAVNAHNAMNA,NAVNAHNAMNA,NAVNAHNAMNA,NAVNAHNAMNA,NAVNAHNAMNA,NAVNAHNAMNA,NAVNAHNAMNA,NAVNAHNAMNA,NAVNAHNAMNA,NAVNAHNAMNA,NAVNAHNAMNA,NAVNAHNAMNA,NAVNAHNAMNA,NAVNAHNAMNA,NAVNAHNAMNA,NAVNAHNAMNA,NAVNAHNAMNA,NAVNAHNAMNA,NAVNAHNAMNA,NAVNAHNAMNA,NAVNAHNAMNA,NAVNAHNAMNA,NAVNAHNAMNA,NAVNAHNAMNA,NAVNAHNAMNA,NAVNAHNAMNA,NAVNAHNAMNA,NAVNAHNAMNA,NAVNAHNAMNA,NAVNAHNAMNA,NAVNAHNAMNA,NAVNAHNAMNA,NAVNAHNAMNA,NAVNAHNAMNA,NAVNAHNAMNA,NAVNAHNAMNA,NAVNAHNAMNA,NAVNAHNAMNA,NAVNAHNAMNA,NAVNAHNAMNA,NAVNAHNAMNA,NAVNAHNAMNA,NAVNAHNAMNA,NAVNAHNAMNA,NAVNAHNAMNA,NAVNAHNAMNA,NAVNAHNAMNA,NAVNAHNAMNA,NAVNAHNAMNA,NAVNAHNAMNA,NAVNAHNAMNA,NAVNAHNAMNA,NAVNAHNAMNA,NAVNAHNA" stroke="NANA"></path><text x="33.5" y="620.5" class="node" fill="#8696E1">0.83</text><text x="60" y="540.1" class="node" fill="#D64F73">0.04</text><text x="86.5" y="416" class="node" fill="#E5C7CC">0.41</text><text x="113" y="399" class="node" fill="#DD6F88">0.13</text><text x="139.5" y="379" class="node" fill="#E5C7CC">0.41</text><text x="166" y="353.3" class="node" fill="#E5C7CC">0.41</text><text x="192.5" y="322.9" class="node" fill="#5B78E2">0.96</text><text x="219" y="283.3" class="node" fill="#4A6FE3">1</text><text x="245.5" y="230.6" class="node" fill="#E5C7CC">0.41</text><text x="272" y="176.2" class="node" fill="#E5CDD1">0.43</text><text x="298.5" y="111.5" class="node" fill="#DB617F">0.09</text><text x="325" y="80.7" class="node" fill="#5374E2">0.98</text><text x="351.5" y="66.8" class="node" fill="#5374E2">0.98</text><text x="378" y="53.2" class="node" fill="#4A6FE3">1</text><text x="404.5" y="40" class="node" fill="#4A6FE3">1</text><text x="431" y="27.6" class="node" fill="#4A6FE3">1</text><text x="457.5" y="17.1" class="node" fill="#E5CDD1">0.43</text><text x="325" y="142.2" class="node" fill="#E38C9E">0.22</text><text x="351.5" y="126.3" class="node" fill="#5374E2">0.98</text><text x="378" y="115.8" class="node" fill="#E5CDD1">0.43</text><text x="351.5" y="158.1" class="node" fill="#5374E2">0.98</text><text x="298.5" y="240.9" class="node" fill="#95A1E2">0.78</text><text x="325" y="218" class="node" fill="#5374E2">0.98</text><text x="351.5" y="196.8" class="node" fill="#4A6FE3">1</text><text x="378" y="186.2" class="node" fill="#5374E2">0.98</text><text x="351.5" y="239.1" class="node" fill="#5374E2">0.98</text><text x="378" y="228.6" class="node" fill="#4A6FE3">1</text><text x="272" y="284.9" class="node" fill="#4A6FE3">1</text><text x="245.5" y="336.1" class="node" fill="#4A6FE3">1</text><text x="272" y="323.7" class="node" fill="#4A6FE3">1</text><text x="298.5" y="313.1" class="node" fill="#4A6FE3">1</text><text x="192.5" y="383.6" class="node" fill="#E28699">0.2</text><text x="86.5" y="664.2" class="node" fill="#E5CDD1">0.43</text><text x="113" y="641.6" class="node" fill="#E4D6D8">0.46</text><text x="139.5" y="617.5" class="node" fill="#5B78E2">0.96</text><text x="166" y="597.6" class="node" fill="#5B78E2">0.96</text><text x="192.5" y="578.9" class="node" fill="#5B78E2">0.96</text><text x="219" y="555.6" class="node" fill="#5374E2">0.98</text><text x="245.5" y="530.2" class="node" fill="#5374E2">0.98</text><text x="272" y="507.5" class="node" fill="#5374E2">0.98</text><text x="298.5" y="490.3" class="node" fill="#5374E2">0.98</text><text x="325" y="477.1" class="node" fill="#4A6FE3">1</text><text x="351.5" y="464.7" class="node" fill="#E2E2E2">0.5</text><text x="378" y="454.1" class="node" fill="#4A6FE3">1</text><text x="298.5" y="524.6" class="node" fill="#4A6FE3">1</text><text x="272" y="552.8" class="node" fill="#5B78E2">0.96</text><text x="245.5" y="581" class="node" fill="#4A6FE3">1</text><text x="166" y="637.5" class="node" fill="#B9BFE3">0.65</text><text x="139.5" y="665.6" class="node" fill="#8696E1">0.83</text></svg>
