<svg xmlns="http://www.w3.org/2000/svg" version="1.1" viewBox="0 0 682 720" preserveAspectRatio="xMidYMid meet" class="tree" data-char="200"><text x="678" y="16.8" text-anchor="end" class="stepsLabel">Character adds <tspan class="score">2</tspan> to tree score</text><text x="678" y="30.6" text-anchor="end" class="stepsLabel"><tspan class="score">0</tspan> additional regions</text><text x="678" y="44.4" text-anchor="end" class="stepsLabel"></text><text x="678" y="72" text-anchor="end" class="stepsLabel"><tspan dy="16" fill="#34caaf">An optimal tree under:</tspan><tspan x="680" style="font-style:italic" class="notThisAn" dy="1.2em">Implied weights, k = 3</tspan><tspan x="680" style="font-style:italic" class="notThisAn" dy="1.2em">IW, k = 4.5</tspan><tspan x="680" style="font-style:italic" class="notThisAn" dy="1.2em">IW, k = 7</tspan><tspan x="680" style="font-style:italic" class="notThisAn" dy="1.2em">IW, k = 10.5</tspan><tspan x="680" style="font-style:italic" class="notThisAn" dy="1.2em">IW, k = 16</tspan><tspan x="680" style="font-style:italic" class="thisAn" dy="1.2em">IW, k = 24</tspan><tspan x="680" style="font-style:italic" class="notThisAn" dy="1.2em">Equal weights</tspan></text><text x="172" y="644.5" fill="grey" class="flag">[?]</text><text x="194" y="644.5" fill="#999" class="taxonLabel">Orthrozanclus</text><text x="172" y="658.6" fill="grey" class="flag">[?]</text><text x="194" y="658.6" fill="#999" class="taxonLabel">Halkieria evangelista</text><text x="195.8" y="616.3" fill="grey" class="flag">[?]</text><text x="217.8" y="616.3" fill="#999" class="taxonLabel">Pedunculotheca diania</text><text x="195.8" y="630.4" fill="grey" class="flag">[?]</text><text x="217.8" y="630.4" fill="#999" class="taxonLabel">Haplophrentis carinatus</text><text x="267.4" y="559.9" fill="grey" class="flag">[?]</text><text x="289.4" y="559.9" fill="#999" class="taxonLabel">Mickwitzia muralensis</text><text x="267.4" y="574" fill="grey" class="flag">[?]</text><text x="289.4" y="574" fill="#999" class="taxonLabel">Heliomedusa orienta</text><text x="291.2" y="531.7" fill="grey" class="flag">[?]</text><text x="313.2" y="531.7" fill="#999" class="taxonLabel">Micromitra</text><text x="291.2" y="545.8" fill="grey" class="flag">[?]</text><text x="313.2" y="545.8" fill="#999" class="taxonLabel">Gasconsia</text><text x="315.1" y="503.5" fill="grey" class="flag">[?]</text><text x="337.1" y="503.5" fill="#999" class="taxonLabel">Terebratulina</text><text x="315.1" y="517.6" fill="grey" class="flag">[?]</text><text x="337.1" y="517.6" fill="#999" class="taxonLabel">Orthis</text><text x="386.6" y="433" fill="grey" class="flag">[?]</text><text x="408.6" y="433" fill="#999" class="taxonLabel">Yuganotheca elegans</text><text x="386.6" y="447.1" fill="#fc8d59" class="flag">[0]</text><text x="408.6" y="447.1" fill="#000" class="taxonLabel">Lingula</text><text x="362.8" y="461.2" fill="grey" class="flag">[?]</text><text x="384.8" y="461.2" fill="#999" class="taxonLabel">Lingulellotreta malongensis</text><text x="338.9" y="475.3" fill="grey" class="flag">[?]</text><text x="360.9" y="475.3" fill="#999" class="taxonLabel">Pelagodiscus atlanticus</text><text x="315.1" y="489.4" fill="#fc8d59" class="flag">[0]</text><text x="337.1" y="489.4" fill="#000" class="taxonLabel">Novocrania</text><text x="219.7" y="588.1" fill="grey" class="flag">[?]</text><text x="241.7" y="588.1" fill="#999" class="taxonLabel">Micrina</text><text x="195.8" y="602.2" fill="grey" class="flag">[?]</text><text x="217.8" y="602.2" fill="#999" class="taxonLabel">Paterimitra</text><text x="124.2" y="672.7" fill="grey" class="flag">[?]</text><text x="146.2" y="672.7" fill="#999" class="taxonLabel">Eccentrotheca</text><text x="100.4" y="686.8" fill="grey" class="flag">[?]</text><text x="122.4" y="686.8" fill="#999" class="taxonLabel">Cotyledion tylodes</text><text x="172" y="376.6" fill="#fc8d59" class="flag">[0]</text><text x="194" y="376.6" fill="#000" class="taxonLabel">Flustra</text><text x="172" y="390.7" fill="#fc8d59" class="flag">[0]</text><text x="194" y="390.7" fill="#000" class="taxonLabel">Amathia</text><text x="267.4" y="306.1" fill="#91bfdb" class="flag">[1]</text><text x="289.4" y="306.1" fill="#000" class="taxonLabel">Serpula</text><text x="267.4" y="320.2" fill="#91bfdb" class="flag">[1]</text><text x="289.4" y="320.2" fill="#000" class="taxonLabel">Capitella</text><text x="243.5" y="334.3" fill="grey" class="flag">[?]</text><text x="265.5" y="334.3" fill="#999" class="taxonLabel">Canadia spinosa</text><text x="219.7" y="348.4" fill="#91bfdb" class="flag">[1]</text><text x="241.7" y="348.4" fill="#000" class="taxonLabel">Sipunculus</text><text x="338.9" y="221.5" fill="grey" class="flag">[?]</text><text x="360.9" y="221.5" fill="#999" class="taxonLabel">Siphogonuchites multa</text><text x="338.9" y="235.6" fill="grey" class="flag">[?]</text><text x="360.9" y="235.6" fill="#999" class="taxonLabel">Acaenoplax hayae</text><text x="458.2" y="136.9" fill="#91bfdb" class="flag">[1]</text><text x="480.2" y="136.9" fill="#000" class="taxonLabel">Tonicella</text><text x="458.2" y="151" fill="#91bfdb" class="flag">[1]</text><text x="480.2" y="151" fill="#000" class="taxonLabel">Mopalia</text><text x="434.3" y="165.1" fill="grey" class="flag">[?]</text><text x="456.3" y="165.1" fill="#999" class="taxonLabel">Polysacos vickersianum</text><text x="410.5" y="179.2" fill="#91bfdb" class="flag">[1]</text><text x="432.5" y="179.2" fill="#000" class="taxonLabel">Leptochiton</text><text x="386.6" y="193.3" fill="grey" class="flag">[?]</text><text x="408.6" y="193.3" fill="#999" class="taxonLabel">Glaphurochiton carbonarius</text><text x="362.8" y="207.4" fill="grey" class="flag">[?]</text><text x="384.8" y="207.4" fill="#999" class="taxonLabel">Calvapilosa kroegeri</text><text x="386.6" y="108.7" fill="grey" class="flag">[?]</text><text x="408.6" y="108.7" fill="#999" class="taxonLabel">Wiwaxia corrugata</text><text x="386.6" y="122.8" fill="grey" class="flag">[?]</text><text x="408.6" y="122.8" fill="#999" class="taxonLabel">Odontogriphus omalus</text><text x="410.5" y="80.5" fill="#fc8d59" class="flag">[0]</text><text x="432.5" y="80.5" fill="#000" class="taxonLabel">Neopilina</text><text x="410.5" y="94.6" fill="grey" class="flag">[?]</text><text x="432.5" y="94.6" fill="#999" class="taxonLabel">Conocardium elongatum</text><text x="482" y="10" fill="grey" class="flag">[?]</text><text x="504" y="10" fill="#999" class="taxonLabel">Pojetaia runnegari</text><text x="482" y="24.1" fill="#fc8d59" class="flag">[0]</text><text x="504" y="24.1" fill="#000" class="taxonLabel">Mytilus</text><text x="458.2" y="38.2" fill="#fc8d59" class="flag">[0]</text><text x="480.2" y="38.2" fill="#000" class="taxonLabel">Dentalium</text><text x="434.3" y="52.3" fill="grey" class="flag">[?]</text><text x="456.3" y="52.3" fill="#999" class="taxonLabel">Haliotis</text><text x="410.5" y="66.4" fill="grey" class="flag">[?]</text><text x="432.5" y="66.4" fill="#999" class="taxonLabel">Pelagiella</text><text x="291.2" y="249.7" fill="grey" class="flag">[?]</text><text x="313.2" y="249.7" fill="#999" class="taxonLabel">Phthipodochiton thraivensis</text><text x="267.4" y="263.8" fill="grey" class="flag">[?]</text><text x="289.4" y="263.8" fill="#999" class="taxonLabel">Kulindroplax perissokomos</text><text x="243.5" y="277.9" fill="#91bfdb" class="flag">[1]</text><text x="265.5" y="277.9" fill="#000" class="taxonLabel">Chaetoderma</text><text x="219.7" y="292" fill="#91bfdb" class="flag">[1]</text><text x="241.7" y="292" fill="#000" class="taxonLabel">Wirenia</text><text x="172" y="362.5" fill="#fc8d59" class="flag">[0]</text><text x="194" y="362.5" fill="#000" class="taxonLabel">Loxosomella</text><text x="124.2" y="404.8" fill="#fc8d59" class="flag">[0]</text><text x="146.2" y="404.8" fill="#000" class="taxonLabel">Phoronis</text><text x="100.4" y="418.9" fill="grey" class="flag">[?]</text><text x="122.4" y="418.9" fill="#999" class="taxonLabel">Namacalathus</text><text x="52.7" y="700.9" fill="grey" class="flag">[?]</text><text x="74.7" y="700.9" fill="#999" class="taxonLabel">Dailyatia</text><text x="28.9" y="715" fill="grey" class="flag">[?]</text><text x="50.9" y="715" fill="#999" class="taxonLabel">Yilingia spiciformis</text><path d="M5,663.3V614.7H28.9M28.9,614.7V531.4H52.7M52.7,531.4V397.4H76.6M76.6,397.4V378.9H100.4M100.4,378.9V355.9H124.2M124.2,355.9V331.2H148.1M338.9,90.1V67.4H362.8M362.8,67.4V50.2H386.6M386.6,50.2V37H410.5M410.5,37V24.6H434.3M434.3,24.6V14.1H458.2M458.2,14.1V7H482M458.2,14.1V21.1H482M434.3,24.6V35.2H458.2M410.5,37V49.3H434.3M386.6,50.2V63.4H410.5M362.8,67.4V84.5H386.6M386.6,84.5V77.5H410.5M386.6,84.5V91.6H410.5M148.1,331.2V359.5H172M124.2,355.9V380.6H148.1M148.1,380.6V373.6H172M148.1,380.6V387.7H172M100.4,378.9V401.8H124.2M76.6,397.4V415.9H100.4M52.7,531.4V665.4H76.6M76.6,665.4V647.1H100.4M100.4,647.1V624.5H124.2M124.2,624.5V600.4H148.1M148.1,600.4V580.5H172M172,580.5V561.8H195.8M195.8,561.8V538.5H219.7M219.7,538.5V513.1H243.5M243.5,513.1V490.4H267.4M267.4,490.4V473.2H291.2M291.2,473.2V460H315.1M315.1,460V447.6H338.9M338.9,447.6V437H362.8M362.8,437V430H386.6M362.8,437V444.1H386.6M338.9,447.6V458.2H362.8M315.1,460V472.3H338.9M291.2,473.2V486.4H315.1M267.4,490.4V507.5H291.2M291.2,507.5V500.5H315.1M291.2,507.5V514.6H315.1M243.5,513.1V535.8H267.4M267.4,535.8V528.7H291.2M267.4,535.8V542.8H291.2M219.7,538.5V564H243.5M243.5,564V556.9H267.4M243.5,564V571H267.4M195.8,561.8V585.1H219.7M172,580.5V599.2H195.8M148.1,600.4V620.3H172M172,620.3V613.3H195.8M172,620.3V627.4H195.8M124.2,624.5V648.5H148.1M148.1,648.5V641.5H172M148.1,648.5V655.6H172M100.4,647.1V669.7H124.2M76.6,665.4V683.8H100.4M28.9,614.7V697.9H52.7M5,663.3V712H28.9" stroke="#fc8d59"></path><path d="M148.1,331.2V302.9H172M172,302.9V272.7H195.8M195.8,272.7V256.4H219.7M219.7,256.4V237.8H243.5M243.5,237.8V214.8H267.4M267.4,214.8V183H291.2M291.2,183V140.4H315.1M315.1,140.4V90.1H338.9M315.1,140.4V190.7H338.9M338.9,190.7V177.1H362.8M362.8,177.1V163.9H386.6M386.6,163.9V151.5H410.5M410.5,151.5V140.9H434.3M434.3,140.9V133.9H458.2M434.3,140.9V148H458.2M410.5,151.5V162.1H434.3M386.6,163.9V176.2H410.5M362.8,177.1V190.3H386.6M338.9,190.7V204.4H362.8M291.2,183V225.6H315.1M315.1,225.6V218.5H338.9M315.1,225.6V232.6H338.9M267.4,214.8V246.7H291.2M243.5,237.8V260.8H267.4M219.7,256.4V274.9H243.5M195.8,272.7V289H219.7M172,302.9V333.1H195.8M195.8,333.1V320.7H219.7M219.7,320.7V310.1H243.5M243.5,310.1V303.1H267.4M243.5,310.1V317.2H267.4M219.7,320.7V331.3H243.5M195.8,333.1V345.4H219.7" stroke="#91bfdb"></path><path d="M338.9,90.1V112.8H362.8M362.8,112.8V105.7H386.6M362.8,112.8V119.8H386.6" stroke="darkgrey"></path><text x="30.9" y="617.7" class="node" fill="#C1C6E3">0.62</text><text x="54.7" y="534.4" class="node" fill="#DD6F88">0.13</text><text x="78.6" y="400.4" class="node" fill="#D75376">0.05</text><text x="102.4" y="381.9" class="node" fill="#DD6F88">0.13</text><text x="126.2" y="358.9" class="node" fill="#DD6F88">0.13</text><text x="150.1" y="334.2" class="node" fill="#97A4E2">0.77</text><text x="174" y="305.9" class="node" fill="#4A6FE3">1</text><text x="197.8" y="275.7" class="node" fill="#DD6F88">0.13</text><text x="221.7" y="259.4" class="node" fill="#DD6F88">0.13</text><text x="245.5" y="240.8" class="node" fill="#DD6F88">0.13</text><text x="269.4" y="217.8" class="node" fill="#DD6F88">0.13</text><text x="293.2" y="186" class="node" fill="#DA5E7D">0.08</text><text x="317.1" y="143.4" class="node" fill="#97A4E2">0.77</text><text x="340.9" y="93.1" class="node" fill="#929FE1">0.79</text><text x="364.8" y="70.4" class="node" fill="#DD6F88">0.13</text><text x="388.6" y="53.2" class="node" fill="#DD6F88">0.13</text><text x="412.5" y="40" class="node" fill="#4A6FE3">1</text><text x="436.3" y="27.6" class="node" fill="#5776E2">0.97</text><text x="460.2" y="17.1" class="node" fill="#5776E2">0.97</text><text x="388.6" y="87.5" class="node" fill="#4A6FE3">1</text><text x="364.8" y="115.8" class="node" fill="#5776E2">0.97</text><text x="340.9" y="193.7" class="node" fill="#4A6FE3">1</text><text x="364.8" y="180.1" class="node" fill="#4A6FE3">1</text><text x="388.6" y="166.9" class="node" fill="#4A6FE3">1</text><text x="412.5" y="154.5" class="node" fill="#4A6FE3">1</text><text x="436.3" y="143.9" class="node" fill="#DA5E7D">0.08</text><text x="317.1" y="228.6" class="node" fill="#4A6FE3">1</text><text x="197.8" y="336.1" class="node" fill="#4A6FE3">1</text><text x="221.7" y="323.7" class="node" fill="#4A6FE3">1</text><text x="245.5" y="313.1" class="node" fill="#4A6FE3">1</text><text x="150.1" y="383.6" class="node" fill="#DD6F88">0.13</text><text x="78.6" y="668.4" class="node" fill="#DD6F88">0.13</text><text x="102.4" y="650.1" class="node" fill="#E6AEB8">0.33</text><text x="126.2" y="627.5" class="node" fill="#E6B7C0">0.36</text><text x="150.1" y="603.4" class="node" fill="#5776E2">0.97</text><text x="174" y="583.5" class="node" fill="#5776E2">0.97</text><text x="197.8" y="564.8" class="node" fill="#5776E2">0.97</text><text x="221.7" y="541.5" class="node" fill="#5776E2">0.97</text><text x="245.5" y="516.1" class="node" fill="#5776E2">0.97</text><text x="269.4" y="493.4" class="node" fill="#5776E2">0.97</text><text x="293.2" y="476.2" class="node" fill="#5776E2">0.97</text><text x="317.1" y="463" class="node" fill="#4A6FE3">1</text><text x="340.9" y="450.6" class="node" fill="#E3DFE0">0.49</text><text x="364.8" y="440" class="node" fill="#4A6FE3">1</text><text x="293.2" y="510.5" class="node" fill="#4A6FE3">1</text><text x="269.4" y="538.8" class="node" fill="#5776E2">0.97</text><text x="245.5" y="567" class="node" fill="#4A6FE3">1</text><text x="174" y="623.3" class="node" fill="#D2D4E3">0.56</text><text x="150.1" y="651.5" class="node" fill="#C1C6E3">0.62</text></svg>
