<svg xmlns="http://www.w3.org/2000/svg" version="1.1" viewBox="0 0 682 720" preserveAspectRatio="xMidYMid meet" class="tree" data-char="85"><text x="678" y="12.7" text-anchor="end" class="stepsLabel">Character adds <tspan class="score">3</tspan> to tree score</text><text x="678" y="22.4" text-anchor="end" class="stepsLabel"><tspan class="score">0</tspan> additional regions</text><text x="678" y="32.1" text-anchor="end" class="stepsLabel"></text><text x="678" y="51.5" text-anchor="end" class="stepsLabel"><tspan dy="16" fill="#34caaf">An optimal tree under:</tspan><tspan x="680" style="font-style:italic" class="notThisAn" dy="1.2em">Implied weights, k = 4.5</tspan><tspan x="680" style="font-style:italic" class="thisAn" dy="1.2em">IW, k = 10.5</tspan><tspan x="680" style="font-style:italic" class="notThisAn" dy="1.2em">IW, k = 24</tspan><tspan x="680" style="font-style:italic" class="notThisAn" dy="1.2em">Equal weights</tspan></text><text x="243.5" y="646.5" fill="#fc8d59" class="flag">[0]</text><text x="265.5" y="646.5" fill="#000" class="taxonLabel">Flustra</text><text x="243.5" y="656.2" fill="#fc8d59" class="flag">[0]</text><text x="265.5" y="656.2" fill="#000" class="taxonLabel">Amathia</text><text x="349.5" y="597.5" fill="#fc8d59" class="flag">[0]</text><text x="371.5" y="597.5" fill="#000" class="taxonLabel">Serpula</text><text x="349.5" y="607.3" fill="#fc8d59" class="flag">[0]</text><text x="371.5" y="607.3" fill="#000" class="taxonLabel">Capitella</text><text x="323" y="617.1" fill="grey" class="flag">[?]</text><text x="345" y="617.1" fill="#999" class="taxonLabel">Canadia spinosa</text><text x="296.5" y="626.9" fill="#fc8d59" class="flag">[0]</text><text x="318.5" y="626.9" fill="#000" class="taxonLabel">Sipunculus</text><text x="455.5" y="529" fill="grey" class="flag">[?]</text><text x="477.5" y="529" fill="#999" class="taxonLabel">Pojetaia runnegari</text><text x="455.5" y="538.8" fill="#91bfdb" class="flag">[1]</text><text x="477.5" y="538.8" fill="#000" class="taxonLabel">Mytilus</text><text x="429" y="548.5" fill="grey" class="flag">[?]</text><text x="451" y="548.5" fill="#999" class="taxonLabel">Conocardium elongatum</text><text x="402.5" y="558.3" fill="#fc8d59" class="flag">[0]</text><text x="424.5" y="558.3" fill="#000" class="taxonLabel">Neopilina</text><text x="376" y="568.1" fill="#91bfdb" class="flag">[1]</text><text x="398" y="568.1" fill="#000" class="taxonLabel">Haliotis</text><text x="349.5" y="577.9" fill="#91bfdb" class="flag">[1]</text><text x="371.5" y="577.9" fill="#000" class="taxonLabel">Dentalium</text><text x="323" y="587.7" fill="grey" class="flag">[?]</text><text x="345" y="587.7" fill="#999" class="taxonLabel">Pelagiella</text><text x="349.5" y="509.4" fill="grey" class="flag">[?]</text><text x="371.5" y="509.4" fill="#999" class="taxonLabel">Wiwaxia corrugata</text><text x="349.5" y="519.2" fill="grey" class="flag">[?]</text><text x="371.5" y="519.2" fill="#999" class="taxonLabel">Odontogriphus omalus</text><text x="455.5" y="470.2" fill="grey" class="flag">[?]</text><text x="477.5" y="470.2" fill="#999" class="taxonLabel">Kulindroplax perissokomos</text><text x="455.5" y="480" fill="#91bfdb" class="flag">[1]</text><text x="477.5" y="480" fill="#000" class="taxonLabel">Chaetoderma</text><text x="455.5" y="450.6" fill="#91bfdb" class="flag">[1]</text><text x="477.5" y="450.6" fill="#000" class="taxonLabel">Wirenia</text><text x="455.5" y="460.4" fill="grey" class="flag">[?]</text><text x="477.5" y="460.4" fill="#999" class="taxonLabel">Phthipodochiton thraivensis</text><text x="402.5" y="489.8" fill="grey" class="flag">[?]</text><text x="424.5" y="489.8" fill="#999" class="taxonLabel">Acaenoplax hayae</text><text x="376" y="499.6" fill="grey" class="flag">[?]</text><text x="398" y="499.6" fill="#999" class="taxonLabel">Siphogonuchites multa</text><text x="482" y="391.9" fill="#91bfdb" class="flag">[1]</text><text x="504" y="391.9" fill="#000" class="taxonLabel">Tonicella</text><text x="482" y="401.7" fill="#91bfdb" class="flag">[1]</text><text x="504" y="401.7" fill="#000" class="taxonLabel">Mopalia</text><text x="455.5" y="411.5" fill="grey" class="flag">[?]</text><text x="477.5" y="411.5" fill="#999" class="taxonLabel">Polysacos vickersianum</text><text x="429" y="421.2" fill="#91bfdb" class="flag">[1]</text><text x="451" y="421.2" fill="#000" class="taxonLabel">Leptochiton</text><text x="402.5" y="431" fill="grey" class="flag">[?]</text><text x="424.5" y="431" fill="#999" class="taxonLabel">Glaphurochiton carbonarius</text><text x="376" y="440.8" fill="grey" class="flag">[?]</text><text x="398" y="440.8" fill="#999" class="taxonLabel">Calvapilosa kroegeri</text><text x="243.5" y="636.7" fill="#fc8d59" class="flag">[0]</text><text x="265.5" y="636.7" fill="#000" class="taxonLabel">Loxosomella</text><text x="190.5" y="666" fill="#91bfdb" class="flag">[1]</text><text x="212.5" y="666" fill="#000" class="taxonLabel">Phoronis</text><text x="164" y="675.8" fill="grey" class="flag">[?]</text><text x="186" y="675.8" fill="#999" class="taxonLabel">Namacalathus</text><text x="137.5" y="685.6" fill="grey" class="flag">[?]</text><text x="159.5" y="685.6" fill="#999" class="taxonLabel">Cotyledion tylodes</text><text x="111" y="695.4" fill="grey" class="flag">[?]</text><text x="133" y="695.4" fill="#999" class="taxonLabel">Eccentrotheca</text><text x="84.5" y="705.2" fill="grey" class="flag">[?]</text><text x="106.5" y="705.2" fill="#999" class="taxonLabel">Dailyatia</text><text x="243.5" y="333.1" fill="grey" class="flag">[?]</text><text x="265.5" y="333.1" fill="#999" class="taxonLabel">Pedunculotheca diania</text><text x="243.5" y="342.9" fill="grey" class="flag">[?]</text><text x="265.5" y="342.9" fill="#999" class="taxonLabel">Cupitheca holocyclata</text><text x="243.5" y="313.5" fill="grey" class="flag">[?]</text><text x="265.5" y="313.5" fill="#999" class="taxonLabel">Paramicrocornus</text><text x="243.5" y="323.3" fill="grey" class="flag">[?]</text><text x="265.5" y="323.3" fill="#999" class="taxonLabel">Haplophrentis carinatus</text><text x="190.5" y="352.7" fill="grey" class="flag">[?]</text><text x="212.5" y="352.7" fill="#999" class="taxonLabel">Bactrotheca</text><text x="243.5" y="284.2" fill="grey" class="flag">[?]</text><text x="265.5" y="284.2" fill="#999" class="taxonLabel">Mickwitzia muralensis</text><text x="243.5" y="294" fill="grey" class="flag">[?]</text><text x="265.5" y="294" fill="#999" class="taxonLabel">Heliomedusa orienta</text><text x="349.5" y="245" fill="#91bfdb" class="flag">[1]</text><text x="371.5" y="245" fill="#000" class="taxonLabel">Novocrania</text><text x="349.5" y="254.8" fill="grey" class="flag">[?]</text><text x="371.5" y="254.8" fill="#999" class="taxonLabel">Craniops</text><text x="323" y="264.6" fill="grey" class="flag">[?]</text><text x="345" y="264.6" fill="#999" class="taxonLabel">Ussunia</text><text x="296.5" y="274.4" fill="grey" class="flag">[?]</text><text x="318.5" y="274.4" fill="#999" class="taxonLabel">Gasconsia</text><text x="402.5" y="196" fill="grey" class="flag">[?]</text><text x="424.5" y="196" fill="#999" class="taxonLabel">Pelagodiscus atlanticus</text><text x="402.5" y="205.8" fill="grey" class="flag">[?]</text><text x="424.5" y="205.8" fill="#999" class="taxonLabel">Mummpikia nuda</text><text x="455.5" y="166.7" fill="grey" class="flag">[?]</text><text x="477.5" y="166.7" fill="#999" class="taxonLabel">Siphonobolus priscus</text><text x="455.5" y="176.5" fill="grey" class="flag">[?]</text><text x="477.5" y="176.5" fill="#999" class="taxonLabel">Acanthotretella spinosa</text><text x="455.5" y="147.1" fill="grey" class="flag">[?]</text><text x="477.5" y="147.1" fill="#999" class="taxonLabel">Lingulosacculus</text><text x="455.5" y="156.9" fill="grey" class="flag">[?]</text><text x="477.5" y="156.9" fill="#999" class="taxonLabel">Clupeafumosus socialis</text><text x="402.5" y="186.2" fill="grey" class="flag">[?]</text><text x="424.5" y="186.2" fill="#999" class="taxonLabel">Lingulellotreta malongensis</text><text x="349.5" y="215.6" fill="grey" class="flag">[?]</text><text x="371.5" y="215.6" fill="#999" class="taxonLabel">Botsfordia</text><text x="323" y="225.4" fill="grey" class="flag">[?]</text><text x="345" y="225.4" fill="#999" class="taxonLabel">Eoobolus</text><text x="296.5" y="235.2" fill="#91bfdb" class="flag">[1]</text><text x="318.5" y="235.2" fill="#000" class="taxonLabel">Lingula</text><text x="296.5" y="127.5" fill="grey" class="flag">[?]</text><text x="318.5" y="127.5" fill="#999" class="taxonLabel">Micromitra</text><text x="296.5" y="137.3" fill="grey" class="flag">[?]</text><text x="318.5" y="137.3" fill="#999" class="taxonLabel">Askepasma toddense</text><text x="349.5" y="107.9" fill="grey" class="flag">[?]</text><text x="371.5" y="107.9" fill="#999" class="taxonLabel">Coolinia pecten</text><text x="349.5" y="117.7" fill="grey" class="flag">[?]</text><text x="371.5" y="117.7" fill="#999" class="taxonLabel">Antigonambonites planus</text><text x="376" y="78.5" fill="grey" class="flag">[?]</text><text x="398" y="78.5" fill="#999" class="taxonLabel">Yuganotheca elegans</text><text x="376" y="88.3" fill="grey" class="flag">[?]</text><text x="398" y="88.3" fill="#999" class="taxonLabel">Tomteluva perturbata</text><text x="349.5" y="98.1" fill="grey" class="flag">[?]</text><text x="371.5" y="98.1" fill="#999" class="taxonLabel">Salanygolina</text><text x="455.5" y="10" fill="grey" class="flag">[?]</text><text x="477.5" y="10" fill="#999" class="taxonLabel">Terebratulina</text><text x="455.5" y="19.8" fill="grey" class="flag">[?]</text><text x="477.5" y="19.8" fill="#999" class="taxonLabel">Orthis</text><text x="429" y="29.6" fill="grey" class="flag">[?]</text><text x="451" y="29.6" fill="#999" class="taxonLabel">Alisina</text><text x="402.5" y="39.4" fill="grey" class="flag">[?]</text><text x="424.5" y="39.4" fill="#999" class="taxonLabel">Longtancunella chengjiangensis</text><text x="376" y="49.2" fill="grey" class="flag">[?]</text><text x="398" y="49.2" fill="#999" class="taxonLabel">Glyptoria</text><text x="349.5" y="59" fill="grey" class="flag">[?]</text><text x="371.5" y="59" fill="#999" class="taxonLabel">Nisusia sulcata</text><text x="323" y="68.8" fill="grey" class="flag">[?]</text><text x="345" y="68.8" fill="#999" class="taxonLabel">Kutorgina chengjiangensis</text><text x="190.5" y="303.8" fill="grey" class="flag">[?]</text><text x="212.5" y="303.8" fill="#999" class="taxonLabel">Micrina</text><text x="137.5" y="362.5" fill="grey" class="flag">[?]</text><text x="159.5" y="362.5" fill="#999" class="taxonLabel">Paterimitra</text><text x="111" y="372.3" fill="grey" class="flag">[?]</text><text x="133" y="372.3" fill="#999" class="taxonLabel">Halkieria evangelista</text><text x="84.5" y="382.1" fill="grey" class="flag">[?]</text><text x="106.5" y="382.1" fill="#999" class="taxonLabel">Orthrozanclus</text><text x="31.5" y="715" fill="grey" class="flag">[?]</text><text x="53.5" y="715" fill="#999" class="taxonLabel">Yilingia spiciformis</text><path d="M5,620.1V528.2H31.5M31.5,528.2V364.5H58M58,364.5V349.8H84.5M84.5,349.8V330.4H111M111,330.4V301.3H137.5M137.5,301.3V265.1H164M164,265.1V229.4H190.5M190.5,229.4V172.8H217M217,172.8V103.4H243.5M243.5,103.4V77.5H270M270,77.5V56.1H296.5M296.5,56.1V46.5H323M323,46.5V37H349.5M349.5,37V27.8H376M376,27.8V19.2H402.5M402.5,19.2V11.9H429M429,11.9V7H455.5M429,11.9V16.8H455.5M402.5,19.2V26.6H429M376,27.8V36.4H402.5M349.5,37V46.2H376M323,46.5V56H349.5M296.5,56.1V65.8H323M270,77.5V98.8H296.5M296.5,98.8V87.8H323M323,87.8V80.4H349.5M349.5,80.4V75.5H376M349.5,80.4V85.3H376M323,87.8V95.1H349.5M296.5,98.8V109.8H323M323,109.8V104.9H349.5M323,109.8V114.7H349.5M243.5,103.4V129.4H270M270,129.4V124.5H296.5M270,129.4V134.3H296.5M217,172.8V242.1H243.5M243.5,242.1V221.3H270M270,221.3V210.5H296.5M296.5,210.5V198.5H323M323,198.5V184.5H349.5M349.5,184.5V171H376M376,171V158.8H402.5M402.5,158.8V149H429M429,149V144.1H455.5M429,149V153.9H455.5M402.5,158.8V168.6H429M429,168.6V163.7H455.5M429,168.6V173.5H455.5M376,171V183.2H402.5M349.5,184.5V197.9H376M376,197.9V193H402.5M376,197.9V202.8H402.5M323,198.5V212.6H349.5M296.5,210.5V222.4H323M270,221.3V232.2H296.5M243.5,242.1V262.8H270M270,262.8V254.2H296.5M296.5,254.2V246.9H323M323,246.9V242H349.5M323,246.9V251.8H349.5M296.5,254.2V261.6H323M270,262.8V271.4H296.5M190.5,229.4V286.1H217M217,286.1V281.2H243.5M217,286.1V291H243.5M164,265.1V300.8H190.5M137.5,301.3V337.5H164M164,337.5V325.2H190.5M190.5,325.2V315.4H217M217,315.4V310.5H243.5M217,315.4V320.3H243.5M190.5,325.2V335H217M217,335V330.1H243.5M217,335V339.9H243.5M164,337.5V349.7H190.5M111,330.4V359.5H137.5M84.5,349.8V369.3H111M58,364.5V379.1H84.5M31.5,528.2V691.9H58M58,691.9V681.5H84.5M84.5,681.5V670.6H111M111,670.6V658.6H137.5M137.5,658.6V644.4H164M243.5,572.4V529.6H270M270,529.6V484.1H296.5M296.5,484.1V457H323M323,457V428.3H349.5M349.5,428.3V418.9H376M376,418.9V409.7H402.5M402.5,409.7V401.1H429M429,401.1V393.8H455.5M455.5,393.8V388.9H482M455.5,393.8V398.7H482M429,401.1V408.5H455.5M402.5,409.7V418.2H429M376,418.9V428H402.5M349.5,428.3V437.8H376M323,457V485.6H349.5M349.5,485.6V474.6H376M376,474.6V462.3H402.5M402.5,462.3V452.5H429M429,452.5V447.6H455.5M429,452.5V457.4H455.5M402.5,462.3V472.1H429M429,472.1V467.2H455.5M429,472.1V477H455.5M376,474.6V486.8H402.5M349.5,485.6V496.6H376M296.5,484.1V511.3H323M323,511.3V506.4H349.5M323,511.3V516.2H349.5M270,529.6V575.1H296.5M296.5,575.1V565.4H323M323,565.4V555.9H349.5M349.5,555.9V546.8H376M376,546.8V538.2H402.5M402.5,538.2V530.9H429M429,530.9V526H455.5M429,530.9V535.8H455.5M402.5,538.2V545.5H429M349.5,555.9V565.1H376M323,565.4V574.9H349.5M296.5,575.1V584.7H323M164,644.4V663H190.5M137.5,658.6V672.8H164M111,670.6V682.6H137.5M84.5,681.5V692.4H111M58,691.9V702.2H84.5M5,620.1V712H31.5" stroke="#91bfdb"></path><path d="M164,644.4V625.7H190.5M190.5,625.7V603.1H217M217,603.1V572.4H243.5M376,546.8V555.3H402.5M243.5,572.4V615.3H270M270,615.3V606.7H296.5M296.5,606.7V599.4H323M323,599.4V594.5H349.5M323,599.4V604.3H349.5M296.5,606.7V614.1H323M270,615.3V623.9H296.5M217,603.1V633.7H243.5M190.5,625.7V648.4H217M217,648.4V643.5H243.5M217,648.4V653.2H243.5" stroke="#fc8d59"></path><text x="33.5" y="531.2" class="node" fill="#D2D4E3">0.57</text><text x="60" y="367.5" class="node" fill="#D2D4E3">0.57</text><text x="86.5" y="352.8" class="node" fill="#8F9DE1">0.8</text><text x="113" y="333.4" class="node" fill="#8F9DE1">0.8</text><text x="139.5" y="304.3" class="node" fill="#4A6FE3">1</text><text x="166" y="268.1" class="node" fill="#A8B1E2">0.71</text><text x="192.5" y="232.4" class="node" fill="#E4D9DB">0.47</text><text x="219" y="175.8" class="node" fill="#E4D9DB">0.47</text><text x="245.5" y="106.4" class="node" fill="#E4D9DB">0.47</text><text x="272" y="80.5" class="node" fill="#ABB4E2">0.7</text><text x="298.5" y="59.1" class="node" fill="#E6B7C0">0.36</text><text x="325" y="49.5" class="node" fill="#4F72E2">0.99</text><text x="351.5" y="40" class="node" fill="#4F72E2">0.99</text><text x="378" y="30.8" class="node" fill="#4A6FE3">1</text><text x="404.5" y="22.2" class="node" fill="#4A6FE3">1</text><text x="431" y="14.9" class="node" fill="#C4C9E3">0.61</text><text x="298.5" y="101.8" class="node" fill="#ABB4E2">0.7</text><text x="325" y="90.8" class="node" fill="#A8B1E2">0.71</text><text x="351.5" y="83.4" class="node" fill="#4A6FE3">1</text><text x="325" y="112.8" class="node" fill="#ABB4E2">0.7</text><text x="272" y="132.4" class="node" fill="#9AA6E2">0.76</text><text x="245.5" y="245.1" class="node" fill="#9AA6E2">0.76</text><text x="272" y="224.3" class="node" fill="#9AA6E2">0.76</text><text x="298.5" y="213.5" class="node" fill="#9AA6E2">0.76</text><text x="325" y="201.5" class="node" fill="#9AA6E2">0.76</text><text x="351.5" y="187.5" class="node" fill="#9AA6E2">0.76</text><text x="378" y="174" class="node" fill="#4A6FE3">1</text><text x="404.5" y="161.8" class="node" fill="#E6ABB6">0.32</text><text x="431" y="152" class="node" fill="#4A6FE3">1</text><text x="431" y="171.6" class="node" fill="#9AA6E2">0.76</text><text x="378" y="200.9" class="node" fill="#9AA6E2">0.76</text><text x="272" y="265.8" class="node" fill="#4A6FE3">1</text><text x="298.5" y="257.2" class="node" fill="#4A6FE3">1</text><text x="325" y="249.9" class="node" fill="#9AA6E2">0.76</text><text x="219" y="289.1" class="node" fill="#4A6FE3">1</text><text x="166" y="340.5" class="node" fill="#E59FAC">0.28</text><text x="192.5" y="328.2" class="node" fill="#4A6FE3">1</text><text x="219" y="318.4" class="node" fill="#E59FAC">0.28</text><text x="219" y="338" class="node" fill="#D95A7A">0.07</text><text x="60" y="694.9" class="node" fill="#D2D4E3">0.57</text><text x="86.5" y="684.5" class="node" fill="#E17F94">0.18</text><text x="113" y="673.6" class="node" fill="#D2D4E3">0.57</text><text x="139.5" y="661.6" class="node" fill="#E6BAC2">0.37</text><text x="166" y="647.4" class="node" fill="#D2D4E3">0.57</text><text x="192.5" y="628.7" class="node" fill="#D2D4E3">0.57</text><text x="219" y="606.1" class="node" fill="#D2D4E3">0.57</text><text x="245.5" y="575.4" class="node" fill="#4A6FE3">1</text><text x="272" y="532.6" class="node" fill="#E5CDD1">0.43</text><text x="298.5" y="487.1" class="node" fill="#9AA6E2">0.76</text><text x="325" y="460" class="node" fill="#9AA6E2">0.76</text><text x="351.5" y="431.3" class="node" fill="#8F9DE1">0.8</text><text x="378" y="421.9" class="node" fill="#8F9DE1">0.8</text><text x="404.5" y="412.7" class="node" fill="#8F9DE1">0.8</text><text x="431" y="404.1" class="node" fill="#4A6FE3">1</text><text x="457.5" y="396.8" class="node" fill="#E6ABB6">0.32</text><text x="351.5" y="488.6" class="node" fill="#B4BBE3">0.67</text><text x="378" y="477.6" class="node" fill="#E59FAC">0.28</text><text x="404.5" y="465.3" class="node" fill="#E0E0E2">0.51</text><text x="431" y="455.5" class="node" fill="#E59FAC">0.28</text><text x="431" y="475.1" class="node" fill="#4A6FE3">1</text><text x="325" y="514.3" class="node" fill="#6D84E1">0.91</text><text x="298.5" y="578.1" class="node" fill="#4A6FE3">1</text><text x="325" y="568.4" class="node" fill="#E5CDD1">0.43</text><text x="351.5" y="558.9" class="node" fill="#E59FAC">0.28</text><text x="378" y="549.8" class="node" fill="#E0E0E2">0.51</text><text x="404.5" y="541.2" class="node" fill="#7D8FE1">0.86</text><text x="431" y="533.9" class="node" fill="#4A6FE3">1</text><text x="272" y="618.3" class="node" fill="#A8B1E2">0.71</text><text x="298.5" y="609.7" class="node" fill="#CACDE3">0.59</text><text x="325" y="602.4" class="node" fill="#4A6FE3">1</text><text x="219" y="651.4" class="node" fill="#D2D4E3">0.57</text></svg>
