<svg xmlns="http://www.w3.org/2000/svg" version="1.1" viewBox="0 0 682 720" preserveAspectRatio="xMidYMid meet" class="tree" data-char="170"><text x="678" y="17.7" text-anchor="end" class="stepsLabel">Character adds <tspan class="score">3</tspan> to tree score</text><text x="678" y="32.4" text-anchor="end" class="stepsLabel"><tspan class="score">1</tspan> additional region</text><text x="678" y="47.1" text-anchor="end" class="stepsLabel"></text><text x="678" y="76.5" text-anchor="end" class="stepsLabel"><tspan dy="16" fill="#34caaf">An optimal tree under:</tspan><tspan x="680" style="font-style:italic" class="notThisAn" dy="1.2em">Implied weights, k = 3</tspan><tspan x="680" style="font-style:italic" class="notThisAn" dy="1.2em">IW, k = 4.5</tspan><tspan x="680" style="font-style:italic" class="notThisAn" dy="1.2em">IW, k = 7</tspan><tspan x="680" style="font-style:italic" class="notThisAn" dy="1.2em">IW, k = 10.5</tspan><tspan x="680" style="font-style:italic" class="notThisAn" dy="1.2em">IW, k = 16</tspan><tspan x="680" style="font-style:italic" class="notThisAn" dy="1.2em">IW, k = 24</tspan><tspan x="680" style="font-style:italic" class="thisAn" dy="1.2em">Equal weights</tspan></text><text x="175.4" y="655" fill="lightgrey" class="flag">[-]</text><text x="197.4" y="655" fill="#ccc" class="taxonLabel">Serpula</text><text x="175.4" y="670" fill="lightgrey" class="flag">[-]</text><text x="197.4" y="670" fill="#ccc" class="taxonLabel">Capitella</text><text x="141.3" y="685" fill="lightgrey" class="flag">[-]</text><text x="163.3" y="685" fill="#ccc" class="taxonLabel">Canadia spinosa</text><text x="107.2" y="700" fill="lightgrey" class="flag">[-]</text><text x="129.2" y="700" fill="#ccc" class="taxonLabel">Sipunculus</text><text x="311.6" y="580" fill="lightgrey" class="flag">[-]</text><text x="333.6" y="580" fill="#ccc" class="taxonLabel">Wirenia</text><text x="311.6" y="595" fill="lightgrey" class="flag">[-]</text><text x="333.6" y="595" fill="#ccc" class="taxonLabel">Chaetoderma</text><text x="482" y="475" fill="#91bfdb" class="flag">[2]</text><text x="504" y="475" fill="#000" class="taxonLabel">Tonicella</text><text x="482" y="490" fill="#91bfdb" class="flag">[2]</text><text x="504" y="490" fill="#000" class="taxonLabel">Mopalia</text><text x="447.9" y="505" fill="lightgrey" class="flag">[-]</text><text x="469.9" y="505" fill="#ccc" class="taxonLabel">Polysacos vickersianum</text><text x="413.9" y="520" fill="lightgrey" class="flag">[-]</text><text x="435.9" y="520" fill="#ccc" class="taxonLabel">Leptochiton</text><text x="379.8" y="535" fill="lightgrey" class="flag">[-]</text><text x="401.8" y="535" fill="#ccc" class="taxonLabel">Glaphurochiton carbonarius</text><text x="345.7" y="550" fill="lightgrey" class="flag">[-]</text><text x="367.7" y="550" fill="#ccc" class="taxonLabel">Calvapilosa kroegeri</text><text x="311.6" y="565" fill="lightgrey" class="flag">[-]</text><text x="333.6" y="565" fill="#ccc" class="taxonLabel">Phthipodochiton thraivensis</text><text x="311.6" y="445" fill="lightgrey" class="flag">[-]</text><text x="333.6" y="445" fill="#ccc" class="taxonLabel">Wiwaxia corrugata</text><text x="311.6" y="460" fill="lightgrey" class="flag">[-]</text><text x="333.6" y="460" fill="#ccc" class="taxonLabel">Odontogriphus omalus</text><text x="379.8" y="400" fill="lightgrey" class="flag">[-]</text><text x="401.8" y="400" fill="#ccc" class="taxonLabel">Neopilina</text><text x="379.8" y="415" fill="lightgrey" class="flag">[-]</text><text x="401.8" y="415" fill="#ccc" class="taxonLabel">Conocardium elongatum</text><text x="447.9" y="340" fill="lightgrey" class="flag">[-]</text><text x="469.9" y="340" fill="#ccc" class="taxonLabel">Pojetaia runnegari</text><text x="447.9" y="355" fill="lightgrey" class="flag">[-]</text><text x="469.9" y="355" fill="#ccc" class="taxonLabel">Mytilus</text><text x="413.9" y="370" fill="lightgrey" class="flag">[-]</text><text x="435.9" y="370" fill="#ccc" class="taxonLabel">Dentalium</text><text x="379.8" y="385" fill="lightgrey" class="flag">[-]</text><text x="401.8" y="385" fill="#ccc" class="taxonLabel">Haliotis</text><text x="311.6" y="430" fill="lightgrey" class="flag">[-]</text><text x="333.6" y="430" fill="#ccc" class="taxonLabel">Pelagiella</text><text x="209.4" y="610" fill="lightgrey" class="flag">[-]</text><text x="231.4" y="610" fill="#ccc" class="taxonLabel">Kulindroplax perissokomos</text><text x="175.4" y="625" fill="lightgrey" class="flag">[-]</text><text x="197.4" y="625" fill="#ccc" class="taxonLabel">Acaenoplax hayae</text><text x="141.3" y="640" fill="grey" class="flag">[?]</text><text x="163.3" y="640" fill="#999" class="taxonLabel">Siphogonuchites multa</text><text x="243.5" y="295" fill="lightgrey" class="flag">[-]</text><text x="265.5" y="295" fill="#ccc" class="taxonLabel">Pedunculotheca diania</text><text x="243.5" y="310" fill="lightgrey" class="flag">[-]</text><text x="265.5" y="310" fill="#ccc" class="taxonLabel">Haplophrentis carinatus</text><text x="413.9" y="205" fill="lightgrey" class="flag">[-]</text><text x="435.9" y="205" fill="#ccc" class="taxonLabel">Loxosomella</text><text x="413.9" y="220" fill="lightgrey" class="flag">[-]</text><text x="435.9" y="220" fill="#ccc" class="taxonLabel">Flustra</text><text x="413.9" y="175" fill="lightgrey" class="flag">[-]</text><text x="435.9" y="175" fill="#ccc" class="taxonLabel">Phoronis</text><text x="413.9" y="190" fill="lightgrey" class="flag">[-]</text><text x="435.9" y="190" fill="#ccc" class="taxonLabel">Namacalathus</text><text x="345.7" y="235" fill="lightgrey" class="flag">[-]</text><text x="367.7" y="235" fill="#ccc" class="taxonLabel">Dailyatia</text><text x="311.6" y="250" fill="lightgrey" class="flag">[-]</text><text x="333.6" y="250" fill="#ccc" class="taxonLabel">Cotyledion tylodes</text><text x="277.6" y="265" fill="lightgrey" class="flag">[-]</text><text x="299.6" y="265" fill="#ccc" class="taxonLabel">Eccentrotheca</text><text x="243.5" y="280" fill="lightgrey" class="flag">[-]</text><text x="265.5" y="280" fill="#ccc" class="taxonLabel">Orthrozanclus</text><text x="311.6" y="115" fill="#91bfdb" class="flag">[2]</text><text x="333.6" y="115" fill="#000" class="taxonLabel">Mickwitzia muralensis</text><text x="311.6" y="130" fill="lightgrey" class="flag">[-]</text><text x="333.6" y="130" fill="#ccc" class="taxonLabel">Heliomedusa orienta</text><text x="345.7" y="85" fill="#91bfdb" class="flag">[2]</text><text x="367.7" y="85" fill="#000" class="taxonLabel">Micromitra</text><text x="345.7" y="100" fill="#91bfdb" class="flag">[2]</text><text x="367.7" y="100" fill="#000" class="taxonLabel">Gasconsia</text><text x="379.8" y="55" fill="#e2e2a2" class="flag">[1]</text><text x="401.8" y="55" fill="#000" class="taxonLabel">Terebratulina</text><text x="379.8" y="70" fill="lightgrey" class="flag">[-]</text><text x="401.8" y="70" fill="#ccc" class="taxonLabel">Orthis</text><text x="413.9" y="10" fill="lightgrey" class="flag">[-]</text><text x="435.9" y="10" fill="#ccc" class="taxonLabel">Pelagodiscus atlanticus</text><text x="413.9" y="25" fill="lightgrey" class="flag">[-]</text><text x="435.9" y="25" fill="#ccc" class="taxonLabel">Lingula</text><text x="379.8" y="40" fill="lightgrey" class="flag">[-]</text><text x="401.8" y="40" fill="#ccc" class="taxonLabel">Novocrania</text><text x="243.5" y="145" fill="#e2e2a2" class="flag">[1]</text><text x="265.5" y="145" fill="#000" class="taxonLabel">Micrina</text><text x="209.4" y="160" fill="#e2e2a2" class="flag">[1]</text><text x="231.4" y="160" fill="#000" class="taxonLabel">Paterimitra</text><text x="141.3" y="325" fill="lightgrey" class="flag">[-]</text><text x="163.3" y="325" fill="#ccc" class="taxonLabel">Halkieria evangelista</text><text x="39.1" y="715" fill="lightgrey" class="flag">[-]</text><text x="61.1" y="715" fill="#ccc" class="taxonLabel">Yilingia spiciformis</text><path d="M5,636.6V561.3H39.1M39.1,561.3V438.7H73.1M73.1,438.7V265.4H107.2M107.2,265.4V208.9H141.3M311.6,42.6V25.8H345.7M345.7,25.8V14.5H379.8M379.8,14.5V7H413.9M379.8,14.5V22H413.9M345.7,25.8V37H379.8M345.7,59.5V67H379.8M277.6,119.5V127H311.6M141.3,208.9V280.5H175.4M175.4,280.5V261.5H209.4M209.4,261.5V246.1H243.5M243.5,246.1V230.1H277.6M277.6,230.1V213.2H311.6M311.6,213.2V194.5H345.7M345.7,194.5V179.5H379.8M379.8,179.5V172H413.9M379.8,179.5V187H413.9M345.7,194.5V209.5H379.8M379.8,209.5V202H413.9M379.8,209.5V217H413.9M311.6,213.2V232H345.7M277.6,230.1V247H311.6M243.5,246.1V262H277.6M209.4,261.5V277H243.5M175.4,280.5V299.5H209.4M209.4,299.5V292H243.5M209.4,299.5V307H243.5M107.2,265.4V322H141.3M73.1,438.7V612H107.2M107.2,612V587H141.3M141.3,587V552H175.4M175.4,552V497H209.4M209.4,497V428.2H243.5M243.5,428.2V406.8H277.6M277.6,406.8V386.7H311.6M311.6,386.7V368.9H345.7M345.7,368.9V355.8H379.8M379.8,355.8V344.5H413.9M413.9,344.5V337H447.9M413.9,344.5V352H447.9M379.8,355.8V367H413.9M345.7,368.9V382H379.8M311.6,386.7V404.5H345.7M345.7,404.5V397H379.8M345.7,404.5V412H379.8M277.6,406.8V427H311.6M243.5,428.2V449.5H277.6M277.6,449.5V442H311.6M277.6,449.5V457H311.6M209.4,497V565.9H243.5M243.5,565.9V547.2H277.6M277.6,547.2V532.5H311.6M311.6,532.5V517.9H345.7M345.7,517.9V503.9H379.8M379.8,503.9V490.8H413.9M413.9,490.8V502H447.9M379.8,503.9V517H413.9M345.7,517.9V532H379.8M311.6,532.5V547H345.7M277.6,547.2V562H311.6M243.5,565.9V584.5H277.6M277.6,584.5V577H311.6M277.6,584.5V592H311.6M175.4,552V607H209.4M141.3,587V622H175.4M107.2,612V637H141.3M39.1,561.3V683.9H73.1M73.1,683.9V670.8H107.2M107.2,670.8V659.5H141.3M141.3,659.5V652H175.4M141.3,659.5V667H175.4M107.2,670.8V682H141.3M73.1,683.9V697H107.2M5,636.6V712H39.1" stroke="lightgrey" class="inapplicable"></path><path d="M141.3,208.9V137.2H175.4M175.4,137.2V117.4H209.4M209.4,117.4V92.8H243.5M345.7,59.5V52H379.8M209.4,117.4V142H243.5M175.4,137.2V157H209.4" stroke="#e2e2a2"></path><path d="M243.5,92.8V66.1H277.6M277.6,66.1V42.6H311.6M311.6,42.6V59.5H345.7M243.5,92.8V119.5H277.6" stroke="darkgrey"></path><path d="M277.6,66.1V89.5H311.6M311.6,89.5V82H345.7M311.6,89.5V97H345.7M277.6,119.5V112H311.6M413.9,490.8V479.5H447.9M447.9,479.5V472H482M447.9,479.5V487H482" stroke="#91bfdb"></path><text x="41.1" y="564.3" class="node" fill="#97A4E2">0.77</text><text x="75.1" y="441.7" class="node" fill="#97A4E2">0.77</text><text x="109.2" y="268.4" class="node" fill="#97A4E2">0.77</text><text x="143.3" y="211.9" class="node" fill="#4A6FE3">1</text><text x="177.4" y="140.2" class="node" fill="#4A6FE3">1</text><text x="211.4" y="120.4" class="node" fill="#4A6FE3">1</text><text x="245.5" y="95.8" class="node" fill="#4A6FE3">1</text><text x="279.6" y="69.1" class="node" fill="#4A6FE3">1</text><text x="313.6" y="45.6" class="node" fill="#4A6FE3">1</text><text x="347.7" y="28.8" class="node" fill="#4A6FE3">1</text><text x="381.8" y="17.5" class="node" fill="#4A6FE3">1</text><text x="347.7" y="62.5" class="node" fill="#4A6FE3">1</text><text x="313.6" y="92.5" class="node" fill="#4A6FE3">1</text><text x="279.6" y="122.5" class="node" fill="#97A4E2">0.77</text><text x="177.4" y="283.5" class="node" fill="#97A4E2">0.77</text><text x="211.4" y="264.5" class="node" fill="#97A4E2">0.77</text><text x="245.5" y="249.1" class="node" fill="#E3DFE0">0.49</text><text x="279.6" y="233.1" class="node" fill="#E4D9DB">0.47</text><text x="313.6" y="216.2" class="node" fill="#97A4E2">0.77</text><text x="347.7" y="197.5" class="node" fill="#E5CDD1">0.43</text><text x="381.8" y="182.5" class="node" fill="#97A4E2">0.77</text><text x="381.8" y="212.5" class="node" fill="#4A6FE3">1</text><text x="211.4" y="302.5" class="node" fill="#4A6FE3">1</text><text x="109.2" y="615" class="node" fill="#E38FA0">0.23</text><text x="143.3" y="590" class="node" fill="#97A4E2">0.77</text><text x="177.4" y="555" class="node" fill="#97A4E2">0.77</text><text x="211.4" y="500" class="node" fill="#4A6FE3">1</text><text x="245.5" y="431.2" class="node" fill="#4A6FE3">1</text><text x="279.6" y="409.8" class="node" fill="#7388E1">0.89</text><text x="313.6" y="389.7" class="node" fill="#4A6FE3">1</text><text x="347.7" y="371.9" class="node" fill="#4A6FE3">1</text><text x="381.8" y="358.8" class="node" fill="#4A6FE3">1</text><text x="415.9" y="347.5" class="node" fill="#4A6FE3">1</text><text x="347.7" y="407.5" class="node" fill="#4A6FE3">1</text><text x="279.6" y="452.5" class="node" fill="#97A4E2">0.77</text><text x="245.5" y="568.9" class="node" fill="#97A4E2">0.77</text><text x="279.6" y="550.2" class="node" fill="#4A6FE3">1</text><text x="313.6" y="535.5" class="node" fill="#4A6FE3">1</text><text x="347.7" y="520.9" class="node" fill="#4A6FE3">1</text><text x="381.8" y="506.9" class="node" fill="#4A6FE3">1</text><text x="415.9" y="493.8" class="node" fill="#4A6FE3">1</text><text x="449.9" y="482.5" class="node" fill="#97A4E2">0.77</text><text x="279.6" y="587.5" class="node" fill="#4A6FE3">1</text><text x="75.1" y="686.9" class="node" fill="#4A6FE3">1</text><text x="109.2" y="673.8" class="node" fill="#4A6FE3">1</text><text x="143.3" y="662.5" class="node" fill="#97A4E2">0.77</text></svg>
