<svg xmlns="http://www.w3.org/2000/svg" version="1.1" viewBox="0 0 682 720" preserveAspectRatio="xMidYMid meet" class="tree" data-char="208"><text x="678" y="16.8" text-anchor="end" class="stepsLabel">Character adds <tspan class="score">2</tspan> to tree score</text><text x="678" y="30.6" text-anchor="end" class="stepsLabel"><tspan class="score">0</tspan> additional regions</text><text x="678" y="44.4" text-anchor="end" class="stepsLabel"></text><text x="678" y="72" text-anchor="end" class="stepsLabel"><tspan dy="16" fill="#34caaf">An optimal tree under:</tspan><tspan x="680" style="font-style:italic" class="notThisAn" dy="1.2em">Implied weights, k = 3</tspan><tspan x="680" style="font-style:italic" class="notThisAn" dy="1.2em">IW, k = 4.5</tspan><tspan x="680" style="font-style:italic" class="notThisAn" dy="1.2em">IW, k = 7</tspan><tspan x="680" style="font-style:italic" class="notThisAn" dy="1.2em">IW, k = 10.5</tspan><tspan x="680" style="font-style:italic" class="notThisAn" dy="1.2em">IW, k = 16</tspan><tspan x="680" style="font-style:italic" class="notThisAn" dy="1.2em">IW, k = 24</tspan><tspan x="680" style="font-style:italic" class="thisAn" dy="1.2em">Equal weights</tspan></text><text x="148.1" y="658.6" fill="NA" class="flag">[?]</text><text x="170.1" y="658.6" fill="NA" class="taxonLabel">Phoronis</text><text x="148.1" y="672.7" fill="NA" class="flag">[?]</text><text x="170.1" y="672.7" fill="NA" class="taxonLabel">Namacalathus</text><text x="172" y="616.3" fill="NA" class="flag">[?]</text><text x="194" y="616.3" fill="NA" class="taxonLabel">Flustra</text><text x="172" y="630.4" fill="NA" class="flag">[?]</text><text x="194" y="630.4" fill="NA" class="taxonLabel">Amathia</text><text x="148.1" y="644.5" fill="NA" class="flag">[?]</text><text x="170.1" y="644.5" fill="NA" class="taxonLabel">Loxosomella</text><text x="195.8" y="559.9" fill="NA" class="flag">[?]</text><text x="217.8" y="559.9" fill="NA" class="taxonLabel">Pedunculotheca diania</text><text x="195.8" y="574" fill="NA" class="flag">[?]</text><text x="217.8" y="574" fill="NA" class="taxonLabel">Haplophrentis carinatus</text><text x="291.2" y="503.5" fill="NA" class="flag">[?]</text><text x="313.2" y="503.5" fill="NA" class="taxonLabel">Mickwitzia muralensis</text><text x="291.2" y="517.6" fill="NA" class="flag">[?]</text><text x="313.2" y="517.6" fill="NA" class="taxonLabel">Heliomedusa orienta</text><text x="315.1" y="475.3" fill="NA" class="flag">[?]</text><text x="337.1" y="475.3" fill="NA" class="taxonLabel">Micromitra</text><text x="315.1" y="489.4" fill="NA" class="flag">[?]</text><text x="337.1" y="489.4" fill="NA" class="taxonLabel">Gasconsia</text><text x="338.9" y="447.1" fill="NA" class="flag">[?]</text><text x="360.9" y="447.1" fill="NA" class="taxonLabel">Terebratulina</text><text x="338.9" y="461.2" fill="NA" class="flag">[?]</text><text x="360.9" y="461.2" fill="NA" class="taxonLabel">Orthis</text><text x="410.5" y="376.6" fill="NA" class="flag">[?]</text><text x="432.5" y="376.6" fill="NA" class="taxonLabel">Yuganotheca elegans</text><text x="410.5" y="390.7" fill="NA" class="flag">[?]</text><text x="432.5" y="390.7" fill="NA" class="taxonLabel">Lingulellotreta malongensis</text><text x="386.6" y="404.8" fill="NA" class="flag">[?]</text><text x="408.6" y="404.8" fill="NA" class="taxonLabel">Lingula</text><text x="362.8" y="418.9" fill="NA" class="flag">[?]</text><text x="384.8" y="418.9" fill="NA" class="taxonLabel">Pelagodiscus atlanticus</text><text x="338.9" y="433" fill="NA" class="flag">[?]</text><text x="360.9" y="433" fill="NA" class="taxonLabel">Novocrania</text><text x="243.5" y="531.7" fill="NA" class="flag">[?]</text><text x="265.5" y="531.7" fill="NA" class="taxonLabel">Micrina</text><text x="219.7" y="545.8" fill="NA" class="flag">[?]</text><text x="241.7" y="545.8" fill="NA" class="taxonLabel">Paterimitra</text><text x="315.1" y="306.1" fill="NA" class="flag">[?]</text><text x="337.1" y="306.1" fill="NA" class="taxonLabel">Serpula</text><text x="315.1" y="320.2" fill="NA" class="flag">[0]</text><text x="337.1" y="320.2" fill="NA" class="taxonLabel">Capitella</text><text x="291.2" y="334.3" fill="NA" class="flag">[?]</text><text x="313.2" y="334.3" fill="NA" class="taxonLabel">Canadia spinosa</text><text x="267.4" y="348.4" fill="NA" class="flag">[?]</text><text x="289.4" y="348.4" fill="NA" class="taxonLabel">Sipunculus</text><text x="362.8" y="249.7" fill="NA" class="flag">[?]</text><text x="384.8" y="249.7" fill="NA" class="taxonLabel">Wiwaxia corrugata</text><text x="362.8" y="263.8" fill="NA" class="flag">[?]</text><text x="384.8" y="263.8" fill="NA" class="taxonLabel">Odontogriphus omalus</text><text x="434.3" y="193.3" fill="NA" class="flag">[0]</text><text x="456.3" y="193.3" fill="NA" class="taxonLabel">Neopilina</text><text x="434.3" y="207.4" fill="NA" class="flag">[?]</text><text x="456.3" y="207.4" fill="NA" class="taxonLabel">Conocardium elongatum</text><text x="410.5" y="221.5" fill="NA" class="flag">[0]</text><text x="432.5" y="221.5" fill="NA" class="taxonLabel">Haliotis</text><text x="434.3" y="151" fill="NA" class="flag">[?]</text><text x="456.3" y="151" fill="NA" class="taxonLabel">Pojetaia runnegari</text><text x="434.3" y="165.1" fill="NA" class="flag">[0]</text><text x="456.3" y="165.1" fill="NA" class="taxonLabel">Mytilus</text><text x="410.5" y="179.2" fill="NA" class="flag">[?]</text><text x="432.5" y="179.2" fill="NA" class="taxonLabel">Dentalium</text><text x="362.8" y="235.6" fill="NA" class="flag">[?]</text><text x="384.8" y="235.6" fill="NA" class="taxonLabel">Pelagiella</text><text x="386.6" y="108.7" fill="NA" class="flag">[1]</text><text x="408.6" y="108.7" fill="NA" class="taxonLabel">Wirenia</text><text x="386.6" y="122.8" fill="NA" class="flag">[0]</text><text x="408.6" y="122.8" fill="NA" class="taxonLabel">Chaetoderma</text><text x="362.8" y="136.9" fill="NA" class="flag">[?]</text><text x="384.8" y="136.9" fill="NA" class="taxonLabel">Siphogonuchites multa</text><text x="482" y="10" fill="NA" class="flag">[0]</text><text x="504" y="10" fill="NA" class="taxonLabel">Tonicella</text><text x="482" y="24.1" fill="NA" class="flag">[0]</text><text x="504" y="24.1" fill="NA" class="taxonLabel">Mopalia</text><text x="458.2" y="38.2" fill="NA" class="flag">[?]</text><text x="480.2" y="38.2" fill="NA" class="taxonLabel">Polysacos vickersianum</text><text x="434.3" y="52.3" fill="NA" class="flag">[1]</text><text x="456.3" y="52.3" fill="NA" class="taxonLabel">Leptochiton</text><text x="410.5" y="66.4" fill="NA" class="flag">[?]</text><text x="432.5" y="66.4" fill="NA" class="taxonLabel">Glaphurochiton carbonarius</text><text x="386.6" y="80.5" fill="NA" class="flag">[?]</text><text x="408.6" y="80.5" fill="NA" class="taxonLabel">Calvapilosa kroegeri</text><text x="362.8" y="94.6" fill="NA" class="flag">[?]</text><text x="384.8" y="94.6" fill="NA" class="taxonLabel">Phthipodochiton thraivensis</text><text x="291.2" y="277.9" fill="NA" class="flag">[?]</text><text x="313.2" y="277.9" fill="NA" class="taxonLabel">Acaenoplax hayae</text><text x="267.4" y="292" fill="NA" class="flag">[?]</text><text x="289.4" y="292" fill="NA" class="taxonLabel">Kulindroplax perissokomos</text><text x="219.7" y="362.5" fill="NA" class="flag">[?]</text><text x="241.7" y="362.5" fill="NA" class="taxonLabel">Halkieria evangelista</text><text x="148.1" y="588.1" fill="NA" class="flag">[?]</text><text x="170.1" y="588.1" fill="NA" class="taxonLabel">Orthrozanclus</text><text x="124.2" y="602.2" fill="NA" class="flag">[?]</text><text x="146.2" y="602.2" fill="NA" class="taxonLabel">Eccentrotheca</text><text x="76.6" y="686.8" fill="NA" class="flag">[?]</text><text x="98.6" y="686.8" fill="NA" class="taxonLabel">Cotyledion tylodes</text><text x="52.7" y="700.9" fill="NA" class="flag">[?]</text><text x="74.7" y="700.9" fill="NA" class="taxonLabel">Dailyatia</text><text x="28.9" y="715" fill="NA" class="flag">[?]</text><text x="50.9" y="715" fill="NA" class="taxonLabel">Yilingia spiciformis</text><path d="MNA,NAVNAHNAMNA,NAVNAHNAMNA,NAVNAHNAMNA,NAVNAHNAMNA,NAVNAHNAMNA,NAVNAHNAMNA,NAVNAHNAMNA,NAVNAHNAMNA,NAVNAHNAMNA,NAVNAHNAMNA,NAVNAHNAMNA,NAVNAHNAMNA,NAVNAHNAMNA,NAVNAHNAMNA,NAVNAHNAMNA,NAVNAHNAMNA,NAVNAHNAMNA,NAVNAHNAMNA,NAVNAHNAMNA,NAVNAHNAMNA,NAVNAHNAMNA,NAVNAHNAMNA,NAVNAHNAMNA,NAVNAHNAMNA,NAVNAHNAMNA,NAVNAHNAMNA,NAVNAHNAMNA,NAVNAHNAMNA,NAVNAHNAMNA,NAVNAHNAMNA,NAVNAHNAMNA,NAVNAHNAMNA,NAVNAHNAMNA,NAVNAHNAMNA,NAVNAHNAMNA,NAVNAHNAMNA,NAVNAHNAMNA,NAVNAHNAMNA,NAVNAHNAMNA,NAVNAHNAMNA,NAVNAHNAMNA,NAVNAHNAMNA,NAVNAHNAMNA,NAVNAHNAMNA,NAVNAHNAMNA,NAVNAHNAMNA,NAVNAHNAMNA,NAVNAHNAMNA,NAVNAHNAMNA,NAVNAHNAMNA,NAVNAHNAMNA,NAVNAHNAMNA,NAVNAHNAMNA,NAVNAHNAMNA,NAVNAHNAMNA,NAVNAHNAMNA,NAVNAHNAMNA,NAVNAHNAMNA,NAVNAHNAMNA,NAVNAHNAMNA,NAVNAHNAMNA,NAVNAHNAMNA,NAVNAHNAMNA,NAVNAHNAMNA,NAVNAHNAMNA,NAVNAHNAMNA,NAVNAHNAMNA,NAVNAHNAMNA,NAVNAHNAMNA,NAVNAHNAMNA,NAVNAHNAMNA,NAVNAHNAMNA,NAVNAHNAMNA,NAVNAHNAMNA,NAVNAHNAMNA,NAVNAHNAMNA,NAVNAHNAMNA,NAVNAHNAMNA,NAVNAHNAMNA,NAVNAHNAMNA,NAVNAHNAMNA,NAVNAHNAMNA,NAVNAHNAMNA,NAVNAHNAMNA,NAVNAHNAMNA,NAVNAHNAMNA,NAVNAHNAMNA,NAVNAHNAMNA,NAVNAHNAMNA,NAVNAHNAMNA,NAVNAHNAMNA,NAVNAHNAMNA,NAVNAHNAMNA,NAVNAHNAMNA,NAVNAHNAMNA,NAVNAHNAMNA,NAVNAHNAMNA,NAVNAHNAMNA,NAVNAHNAMNA,NAVNAHNA" stroke="NANA"></path><text x="30.9" y="674.9" class="node" fill="#8696E1">0.83</text><text x="54.7" y="649" class="node" fill="#DD6F88">0.13</text><text x="78.6" y="611.2" class="node" fill="#E28699">0.2</text><text x="102.4" y="572.5" class="node" fill="#D7D9E3">0.54</text><text x="126.2" y="542.9" class="node" fill="#E6B4BD">0.35</text><text x="150.1" y="497.7" class="node" fill="#DB617F">0.09</text><text x="174" y="428.4" class="node" fill="#DB617F">0.09</text><text x="197.8" y="329.7" class="node" fill="#5B78E2">0.96</text><text x="221.7" y="296.9" class="node" fill="#4A6FE3">1</text><text x="245.5" y="257.8" class="node" fill="#D2D4E3">0.57</text><text x="269.4" y="223.5" class="node" fill="#D2D4E3">0.57</text><text x="293.2" y="169.1" class="node" fill="#DB617F">0.09</text><text x="317.1" y="103.5" class="node" fill="#D7D9E3">0.54</text><text x="340.9" y="80.7" class="node" fill="#5374E2">0.98</text><text x="364.8" y="66.8" class="node" fill="#5374E2">0.98</text><text x="388.6" y="53.2" class="node" fill="#4A6FE3">1</text><text x="412.5" y="40" class="node" fill="#4A6FE3">1</text><text x="436.3" y="27.6" class="node" fill="#4A6FE3">1</text><text x="460.2" y="17.1" class="node" fill="#D64F73">0.04</text><text x="340.9" y="126.3" class="node" fill="#5374E2">0.98</text><text x="364.8" y="115.8" class="node" fill="#D2D4E3">0.57</text><text x="317.1" y="234.7" class="node" fill="#5374E2">0.98</text><text x="340.9" y="212.7" class="node" fill="#95A1E2">0.78</text><text x="364.8" y="189.8" class="node" fill="#5374E2">0.98</text><text x="388.6" y="168.6" class="node" fill="#4A6FE3">1</text><text x="412.5" y="158.1" class="node" fill="#5374E2">0.98</text><text x="388.6" y="210.9" class="node" fill="#5374E2">0.98</text><text x="412.5" y="200.3" class="node" fill="#4A6FE3">1</text><text x="340.9" y="256.7" class="node" fill="#4A6FE3">1</text><text x="245.5" y="336.1" class="node" fill="#4A6FE3">1</text><text x="269.4" y="323.7" class="node" fill="#4A6FE3">1</text><text x="293.2" y="313.1" class="node" fill="#5B78E2">0.96</text><text x="197.8" y="527.1" class="node" fill="#5B78E2">0.96</text><text x="221.7" y="508.4" class="node" fill="#5B78E2">0.96</text><text x="245.5" y="485.1" class="node" fill="#5374E2">0.98</text><text x="269.4" y="459.7" class="node" fill="#5374E2">0.98</text><text x="293.2" y="437" class="node" fill="#5374E2">0.98</text><text x="317.1" y="419.8" class="node" fill="#5374E2">0.98</text><text x="340.9" y="406.6" class="node" fill="#4A6FE3">1</text><text x="364.8" y="394.2" class="node" fill="#E2E2E2">0.5</text><text x="388.6" y="383.6" class="node" fill="#4A6FE3">1</text><text x="317.1" y="454.1" class="node" fill="#4A6FE3">1</text><text x="293.2" y="482.4" class="node" fill="#5B78E2">0.96</text><text x="269.4" y="510.5" class="node" fill="#4A6FE3">1</text><text x="174" y="567" class="node" fill="#D7D9E3">0.54</text><text x="102.4" y="649.8" class="node" fill="#D7D9E3">0.54</text><text x="126.2" y="633.9" class="node" fill="#4A6FE3">1</text><text x="150.1" y="623.3" class="node" fill="#E59FAC">0.28</text><text x="126.2" y="665.6" class="node" fill="#8696E1">0.83</text></svg>
