<svg xmlns="http://www.w3.org/2000/svg" version="1.1" viewBox="0 0 682 720" preserveAspectRatio="xMidYMid meet" class="tree" data-char="116"><text x="678" y="17.7" text-anchor="end" class="stepsLabel">Character adds <tspan class="score">3</tspan> to tree score</text><text x="678" y="32.4" text-anchor="end" class="stepsLabel"><tspan class="score">0</tspan> additional regions</text><text x="678" y="47.1" text-anchor="end" class="stepsLabel"></text><text x="678" y="76.5" text-anchor="end" class="stepsLabel"><tspan dy="16" fill="#34caaf">An optimal tree under:</tspan><tspan x="680" style="font-style:italic" class="notThisAn" dy="1.2em">Implied weights, k = 3</tspan><tspan x="680" style="font-style:italic" class="notThisAn" dy="1.2em">IW, k = 4.5</tspan><tspan x="680" style="font-style:italic" class="notThisAn" dy="1.2em">IW, k = 7</tspan><tspan x="680" style="font-style:italic" class="notThisAn" dy="1.2em">IW, k = 10.5</tspan><tspan x="680" style="font-style:italic" class="notThisAn" dy="1.2em">IW, k = 16</tspan><tspan x="680" style="font-style:italic" class="thisAn" dy="1.2em">IW, k = 24</tspan><tspan x="680" style="font-style:italic" class="notThisAn" dy="1.2em">Equal weights</tspan></text><text x="156.8" y="640" fill="lightgrey" class="flag">[-]</text><text x="178.8" y="640" fill="#ccc" class="taxonLabel">Orthrozanclus</text><text x="156.8" y="655" fill="lightgrey" class="flag">[-]</text><text x="178.8" y="655" fill="#ccc" class="taxonLabel">Halkieria evangelista</text><text x="178.5" y="610" fill="lightgrey" class="flag">[-]</text><text x="200.5" y="610" fill="#ccc" class="taxonLabel">Pedunculotheca diania</text><text x="178.5" y="625" fill="lightgrey" class="flag">[-]</text><text x="200.5" y="625" fill="#ccc" class="taxonLabel">Haplophrentis carinatus</text><text x="243.5" y="550" fill="grey" class="flag">[?]</text><text x="265.5" y="550" fill="#999" class="taxonLabel">Mickwitzia muralensis</text><text x="243.5" y="565" fill="grey" class="flag">[?]</text><text x="265.5" y="565" fill="#999" class="taxonLabel">Heliomedusa orienta</text><text x="265.2" y="520" fill="grey" class="flag">[?]</text><text x="287.2" y="520" fill="#999" class="taxonLabel">Micromitra</text><text x="265.2" y="535" fill="grey" class="flag">[?]</text><text x="287.2" y="535" fill="#999" class="taxonLabel">Gasconsia</text><text x="286.9" y="490" fill="lightgrey" class="flag">[-]</text><text x="308.9" y="490" fill="#ccc" class="taxonLabel">Terebratulina</text><text x="286.9" y="505" fill="grey" class="flag">[?]</text><text x="308.9" y="505" fill="#999" class="taxonLabel">Orthis</text><text x="308.5" y="445" fill="lightgrey" class="flag">[-]</text><text x="330.5" y="445" fill="#ccc" class="taxonLabel">Pelagodiscus atlanticus</text><text x="308.5" y="460" fill="lightgrey" class="flag">[-]</text><text x="330.5" y="460" fill="#ccc" class="taxonLabel">Lingula</text><text x="286.9" y="475" fill="lightgrey" class="flag">[-]</text><text x="308.9" y="475" fill="#ccc" class="taxonLabel">Novocrania</text><text x="200.1" y="580" fill="grey" class="flag">[?]</text><text x="222.1" y="580" fill="#999" class="taxonLabel">Micrina</text><text x="178.5" y="595" fill="lightgrey" class="flag">[-]</text><text x="200.5" y="595" fill="#ccc" class="taxonLabel">Paterimitra</text><text x="113.4" y="670" fill="grey" class="flag">[?]</text><text x="135.4" y="670" fill="#999" class="taxonLabel">Eccentrotheca</text><text x="265.2" y="325" fill="lightgrey" class="flag">[-]</text><text x="287.2" y="325" fill="#ccc" class="taxonLabel">Serpula</text><text x="265.2" y="340" fill="lightgrey" class="flag">[-]</text><text x="287.2" y="340" fill="#ccc" class="taxonLabel">Capitella</text><text x="243.5" y="355" fill="lightgrey" class="flag">[-]</text><text x="265.5" y="355" fill="#ccc" class="taxonLabel">Canadia spinosa</text><text x="221.8" y="370" fill="lightgrey" class="flag">[-]</text><text x="243.8" y="370" fill="#ccc" class="taxonLabel">Sipunculus</text><text x="460.3" y="145" fill="#91bfdb" class="flag">[2]</text><text x="482.3" y="145" fill="#000" class="taxonLabel">Tonicella</text><text x="460.3" y="160" fill="#e2e2a2" class="flag">[1]</text><text x="482.3" y="160" fill="#000" class="taxonLabel">Mopalia</text><text x="438.6" y="175" fill="#91bfdb" class="flag">[2]</text><text x="460.6" y="175" fill="#000" class="taxonLabel">Polysacos vickersianum</text><text x="417" y="190" fill="#e2e2a2" class="flag">[1]</text><text x="439" y="190" fill="#000" class="taxonLabel">Leptochiton</text><text x="395.3" y="205" fill="#91bfdb" class="flag">[2]</text><text x="417.3" y="205" fill="#000" class="taxonLabel">Glaphurochiton carbonarius</text><text x="373.6" y="220" fill="lightgrey" class="flag">[-]</text><text x="395.6" y="220" fill="#ccc" class="taxonLabel">Calvapilosa kroegeri</text><text x="395.3" y="115" fill="lightgrey" class="flag">[-]</text><text x="417.3" y="115" fill="#ccc" class="taxonLabel">Wiwaxia corrugata</text><text x="395.3" y="130" fill="lightgrey" class="flag">[-]</text><text x="417.3" y="130" fill="#ccc" class="taxonLabel">Odontogriphus omalus</text><text x="417" y="85" fill="lightgrey" class="flag">[-]</text><text x="439" y="85" fill="#ccc" class="taxonLabel">Neopilina</text><text x="417" y="100" fill="lightgrey" class="flag">[-]</text><text x="439" y="100" fill="#ccc" class="taxonLabel">Conocardium elongatum</text><text x="482" y="10" fill="lightgrey" class="flag">[-]</text><text x="504" y="10" fill="#ccc" class="taxonLabel">Pojetaia runnegari</text><text x="482" y="25" fill="lightgrey" class="flag">[-]</text><text x="504" y="25" fill="#ccc" class="taxonLabel">Mytilus</text><text x="460.3" y="40" fill="lightgrey" class="flag">[-]</text><text x="482.3" y="40" fill="#ccc" class="taxonLabel">Dentalium</text><text x="438.6" y="55" fill="lightgrey" class="flag">[-]</text><text x="460.6" y="55" fill="#ccc" class="taxonLabel">Haliotis</text><text x="417" y="70" fill="lightgrey" class="flag">[-]</text><text x="439" y="70" fill="#ccc" class="taxonLabel">Pelagiella</text><text x="330.2" y="235" fill="grey" class="flag">[?]</text><text x="352.2" y="235" fill="#999" class="taxonLabel">Siphogonuchites multa</text><text x="308.5" y="250" fill="#91bfdb" class="flag">[2]</text><text x="330.5" y="250" fill="#000" class="taxonLabel">Acaenoplax hayae</text><text x="286.9" y="265" fill="#e2e2a2" class="flag">[1]</text><text x="308.9" y="265" fill="#000" class="taxonLabel">Phthipodochiton thraivensis</text><text x="265.2" y="280" fill="#e2e2a2" class="flag">[1]</text><text x="287.2" y="280" fill="#000" class="taxonLabel">Kulindroplax perissokomos</text><text x="243.5" y="295" fill="lightgrey" class="flag">[-]</text><text x="265.5" y="295" fill="#ccc" class="taxonLabel">Chaetoderma</text><text x="221.8" y="310" fill="lightgrey" class="flag">[-]</text><text x="243.8" y="310" fill="#ccc" class="taxonLabel">Wirenia</text><text x="178.5" y="385" fill="lightgrey" class="flag">[-]</text><text x="200.5" y="385" fill="#ccc" class="taxonLabel">Loxosomella</text><text x="156.8" y="400" fill="lightgrey" class="flag">[-]</text><text x="178.8" y="400" fill="#ccc" class="taxonLabel">Flustra</text><text x="135.1" y="415" fill="lightgrey" class="flag">[-]</text><text x="157.1" y="415" fill="#ccc" class="taxonLabel">Phoronis</text><text x="113.4" y="430" fill="lightgrey" class="flag">[-]</text><text x="135.4" y="430" fill="#ccc" class="taxonLabel">Namacalathus</text><text x="70" y="685" fill="grey" class="flag">[?]</text><text x="92" y="685" fill="#999" class="taxonLabel">Cotyledion tylodes</text><text x="48.4" y="700" fill="lightgrey" class="flag">[-]</text><text x="70.4" y="700" fill="#ccc" class="taxonLabel">Dailyatia</text><text x="26.7" y="715" fill="lightgrey" class="flag">[-]</text><text x="48.7" y="715" fill="#ccc" class="taxonLabel">Yilingia spiciformis</text><path d="M5,681.3V650.6H26.7M26.7,650.6V604.3H48.4M48.4,604.3V526.6H70M70,526.6V410.2H91.7M91.7,410.2V393.3H113.4M113.4,393.3V374.6H135.1M135.1,374.6V352.3H156.8M156.8,352.3V322.5H178.5M178.5,322.5V291.2H200.1M200.1,291.2V275.3H221.8M330.2,148.9V95.4H351.9M351.9,95.4V71.2H373.6M373.6,71.2V52.9H395.3M395.3,52.9V38.9H417M417,38.9V25.8H438.6M438.6,25.8V14.5H460.3M460.3,14.5V7H482M460.3,14.5V22H482M438.6,25.8V37H460.3M417,38.9V52H438.6M395.3,52.9V67H417M373.6,71.2V89.5H395.3M395.3,89.5V82H417M395.3,89.5V97H417M351.9,95.4V119.5H373.6M373.6,119.5V112H395.3M373.6,119.5V127H395.3M351.9,202.5V217H373.6M221.8,275.3V292H243.5M200.1,291.2V307H221.8M178.5,322.5V353.9H200.1M200.1,353.9V340.8H221.8M221.8,340.8V329.5H243.5M243.5,329.5V322H265.2M243.5,329.5V337H265.2M221.8,340.8V352H243.5M200.1,353.9V367H221.8M156.8,352.3V382H178.5M135.1,374.6V397H156.8M113.4,393.3V412H135.1M91.7,410.2V427H113.4M70,526.6V643H91.7M91.7,643V618.9H113.4M113.4,618.9V593.3H135.1M135.1,593.3V572.2H156.8M156.8,572.2V552.4H178.5M178.5,552.4V527.8H200.1M200.1,527.8V501.1H221.8M221.8,501.1V477.6H243.5M243.5,477.6V460.8H265.2M265.2,460.8V449.5H286.9M286.9,449.5V442H308.5M286.9,449.5V457H308.5M265.2,460.8V472H286.9M243.5,477.6V494.5H265.2M265.2,494.5V487H286.9M265.2,494.5V502H286.9M221.8,501.1V524.5H243.5M243.5,524.5V517H265.2M243.5,524.5V532H265.2M200.1,527.8V554.5H221.8M221.8,554.5V547H243.5M221.8,554.5V562H243.5M178.5,552.4V577H200.1M156.8,572.2V592H178.5M135.1,593.3V614.5H156.8M156.8,614.5V607H178.5M156.8,614.5V622H178.5M113.4,618.9V644.5H135.1M135.1,644.5V637H156.8M135.1,644.5V652H156.8M91.7,643V667H113.4M48.4,604.3V682H70M26.7,650.6V697H48.4M5,681.3V712H26.7" stroke="lightgrey" class="inapplicable"></path><path d="M221.8,275.3V258.7H243.5M243.5,258.7V240.4H265.2M438.6,149.5V157H460.3M395.3,173.9V187H417M265.2,240.4V262H286.9M243.5,258.7V277H265.2" stroke="#e2e2a2"></path><path d="M265.2,240.4V218.7H286.9M286.9,218.7V190.5H308.5M308.5,190.5V148.9H330.2M330.2,148.9V202.5H351.9M351.9,202.5V187.9H373.6M373.6,187.9V173.9H395.3M395.3,173.9V160.8H417M417,160.8V149.5H438.6M438.6,149.5V142H460.3M417,160.8V172H438.6M373.6,187.9V202H395.3M308.5,190.5V232H330.2M286.9,218.7V247H308.5" stroke="#91bfdb"></path><text x="28.7" y="653.6" class="node" fill="#E38FA0">0.23</text><text x="50.4" y="607.3" class="node" fill="#D4486F">0.02</text><text x="72" y="529.6" class="node" fill="#E38FA0">0.23</text><text x="93.7" y="413.2" class="node" fill="#D4486F">0.02</text><text x="115.4" y="396.3" class="node" fill="#E38FA0">0.23</text><text x="137.1" y="377.6" class="node" fill="#E38FA0">0.23</text><text x="158.8" y="355.3" class="node" fill="#E38FA0">0.23</text><text x="180.5" y="325.5" class="node" fill="#4A6FE3">1</text><text x="202.1" y="294.2" class="node" fill="#E38FA0">0.23</text><text x="223.8" y="278.3" class="node" fill="#E38FA0">0.23</text><text x="245.5" y="261.7" class="node" fill="#E38FA0">0.23</text><text x="267.2" y="243.4" class="node" fill="#E38FA0">0.23</text><text x="288.9" y="221.7" class="node" fill="#E18297">0.19</text><text x="310.5" y="193.5" class="node" fill="#DD6F88">0.13</text><text x="332.2" y="151.9" class="node" fill="#4A6FE3">1</text><text x="353.9" y="98.4" class="node" fill="#4A6FE3">1</text><text x="375.6" y="74.2" class="node" fill="#DC6884">0.11</text><text x="397.3" y="55.9" class="node" fill="#4A6FE3">1</text><text x="419" y="41.9" class="node" fill="#4A6FE3">1</text><text x="440.6" y="28.8" class="node" fill="#4A6FE3">1</text><text x="462.3" y="17.5" class="node" fill="#4A6FE3">1</text><text x="397.3" y="92.5" class="node" fill="#4A6FE3">1</text><text x="375.6" y="122.5" class="node" fill="#4A6FE3">1</text><text x="353.9" y="205.5" class="node" fill="#4A6FE3">1</text><text x="375.6" y="190.9" class="node" fill="#4A6FE3">1</text><text x="397.3" y="176.9" class="node" fill="#4A6FE3">1</text><text x="419" y="163.8" class="node" fill="#4A6FE3">1</text><text x="440.6" y="152.5" class="node" fill="#4A6FE3">1</text><text x="202.1" y="356.9" class="node" fill="#4A6FE3">1</text><text x="223.8" y="343.8" class="node" fill="#4A6FE3">1</text><text x="245.5" y="332.5" class="node" fill="#E18297">0.19</text><text x="93.7" y="646" class="node" fill="#E38FA0">0.23</text><text x="115.4" y="621.9" class="node" fill="#E38FA0">0.23</text><text x="137.1" y="596.3" class="node" fill="#4A6FE3">1</text><text x="158.8" y="575.2" class="node" fill="#4A6FE3">1</text><text x="180.5" y="555.4" class="node" fill="#4A6FE3">1</text><text x="202.1" y="530.8" class="node" fill="#4A6FE3">1</text><text x="223.8" y="504.1" class="node" fill="#4A6FE3">1</text><text x="245.5" y="480.6" class="node" fill="#4A6FE3">1</text><text x="267.2" y="463.8" class="node" fill="#4A6FE3">1</text><text x="288.9" y="452.5" class="node" fill="#4A6FE3">1</text><text x="267.2" y="497.5" class="node" fill="#4A6FE3">1</text><text x="245.5" y="527.5" class="node" fill="#4A6FE3">1</text><text x="223.8" y="557.5" class="node" fill="#4A6FE3">1</text><text x="158.8" y="617.5" class="node" fill="#E38FA0">0.23</text><text x="137.1" y="647.5" class="node" fill="#E38FA0">0.23</text></svg>
