<svg xmlns="http://www.w3.org/2000/svg" version="1.1" viewBox="0 0 682 720" preserveAspectRatio="xMidYMid meet" class="tree" data-char="124"><text x="678" y="16.8" text-anchor="end" class="stepsLabel">Character adds <tspan class="score">1</tspan> to tree score</text><text x="678" y="30.6" text-anchor="end" class="stepsLabel"><tspan class="score">0</tspan> additional regions</text><text x="678" y="44.4" text-anchor="end" class="stepsLabel"></text><text x="678" y="72" text-anchor="end" class="stepsLabel"><tspan dy="16" fill="#34caaf">An optimal tree under:</tspan><tspan x="680" style="font-style:italic" class="notThisAn" dy="1.2em">Implied weights, k = 3</tspan><tspan x="680" style="font-style:italic" class="notThisAn" dy="1.2em">IW, k = 4.5</tspan><tspan x="680" style="font-style:italic" class="notThisAn" dy="1.2em">IW, k = 7</tspan><tspan x="680" style="font-style:italic" class="notThisAn" dy="1.2em">IW, k = 10.5</tspan><tspan x="680" style="font-style:italic" class="notThisAn" dy="1.2em">IW, k = 16</tspan><tspan x="680" style="font-style:italic" class="thisAn" dy="1.2em">IW, k = 24</tspan><tspan x="680" style="font-style:italic" class="notThisAn" dy="1.2em">Equal weights</tspan></text><text x="201.4" y="644.5" fill="#fc8d59" class="flag">[0]</text><text x="223.4" y="644.5" fill="#000" class="taxonLabel">Orthrozanclus</text><text x="201.4" y="658.6" fill="#fc8d59" class="flag">[0]</text><text x="223.4" y="658.6" fill="#000" class="taxonLabel">Halkieria evangelista</text><text x="229.5" y="616.3" fill="#fc8d59" class="flag">[0]</text><text x="251.5" y="616.3" fill="#000" class="taxonLabel">Pedunculotheca diania</text><text x="229.5" y="630.4" fill="#fc8d59" class="flag">[0]</text><text x="251.5" y="630.4" fill="#000" class="taxonLabel">Haplophrentis carinatus</text><text x="313.6" y="559.9" fill="#fc8d59" class="flag">[0]</text><text x="335.6" y="559.9" fill="#000" class="taxonLabel">Mickwitzia muralensis</text><text x="313.6" y="574" fill="#fc8d59" class="flag">[0]</text><text x="335.6" y="574" fill="#000" class="taxonLabel">Heliomedusa orienta</text><text x="341.7" y="531.7" fill="#fc8d59" class="flag">[0]</text><text x="363.7" y="531.7" fill="#000" class="taxonLabel">Micromitra</text><text x="341.7" y="545.8" fill="#fc8d59" class="flag">[0]</text><text x="363.7" y="545.8" fill="#000" class="taxonLabel">Gasconsia</text><text x="369.8" y="503.5" fill="#91bfdb" class="flag">[1]</text><text x="391.8" y="503.5" fill="#000" class="taxonLabel">Terebratulina</text><text x="369.8" y="517.6" fill="#91bfdb" class="flag">[1]</text><text x="391.8" y="517.6" fill="#000" class="taxonLabel">Orthis</text><text x="453.9" y="433" fill="grey" class="flag">[?]</text><text x="475.9" y="433" fill="#999" class="taxonLabel">Yuganotheca elegans</text><text x="453.9" y="447.1" fill="#fc8d59" class="flag">[0]</text><text x="475.9" y="447.1" fill="#000" class="taxonLabel">Lingulellotreta malongensis</text><text x="425.9" y="461.2" fill="#fc8d59" class="flag">[0]</text><text x="447.9" y="461.2" fill="#000" class="taxonLabel">Lingula</text><text x="397.8" y="475.3" fill="#fc8d59" class="flag">[0]</text><text x="419.8" y="475.3" fill="#000" class="taxonLabel">Pelagodiscus atlanticus</text><text x="369.8" y="489.4" fill="#fc8d59" class="flag">[0]</text><text x="391.8" y="489.4" fill="#000" class="taxonLabel">Novocrania</text><text x="257.5" y="588.1" fill="#fc8d59" class="flag">[0]</text><text x="279.5" y="588.1" fill="#000" class="taxonLabel">Micrina</text><text x="229.5" y="602.2" fill="#fc8d59" class="flag">[0]</text><text x="251.5" y="602.2" fill="#000" class="taxonLabel">Paterimitra</text><text x="145.3" y="672.7" fill="#fc8d59" class="flag">[0]</text><text x="167.3" y="672.7" fill="#000" class="taxonLabel">Eccentrotheca</text><text x="117.2" y="686.8" fill="#fc8d59" class="flag">[0]</text><text x="139.2" y="686.8" fill="#000" class="taxonLabel">Cotyledion tylodes</text><text x="201.4" y="376.6" fill="#fc8d59" class="flag">[0]</text><text x="223.4" y="376.6" fill="#000" class="taxonLabel">Flustra</text><text x="201.4" y="390.7" fill="#fc8d59" class="flag">[0]</text><text x="223.4" y="390.7" fill="#000" class="taxonLabel">Amathia</text><text x="313.6" y="306.1" fill="#fc8d59" class="flag">[0]</text><text x="335.6" y="306.1" fill="#000" class="taxonLabel">Serpula</text><text x="313.6" y="320.2" fill="#fc8d59" class="flag">[0]</text><text x="335.6" y="320.2" fill="#000" class="taxonLabel">Capitella</text><text x="285.6" y="334.3" fill="#fc8d59" class="flag">[0]</text><text x="307.6" y="334.3" fill="#000" class="taxonLabel">Canadia spinosa</text><text x="257.5" y="348.4" fill="#fc8d59" class="flag">[0]</text><text x="279.5" y="348.4" fill="#000" class="taxonLabel">Sipunculus</text><text x="285.6" y="277.9" fill="#fc8d59" class="flag">[0]</text><text x="307.6" y="277.9" fill="#000" class="taxonLabel">Wiwaxia corrugata</text><text x="285.6" y="292" fill="#fc8d59" class="flag">[0]</text><text x="307.6" y="292" fill="#000" class="taxonLabel">Odontogriphus omalus</text><text x="397.8" y="221.5" fill="#fc8d59" class="flag">[0]</text><text x="419.8" y="221.5" fill="#000" class="taxonLabel">Neopilina</text><text x="397.8" y="235.6" fill="#fc8d59" class="flag">[0]</text><text x="419.8" y="235.6" fill="#000" class="taxonLabel">Conocardium elongatum</text><text x="369.8" y="249.7" fill="#fc8d59" class="flag">[0]</text><text x="391.8" y="249.7" fill="#000" class="taxonLabel">Haliotis</text><text x="397.8" y="179.2" fill="#fc8d59" class="flag">[0]</text><text x="419.8" y="179.2" fill="#000" class="taxonLabel">Pojetaia runnegari</text><text x="397.8" y="193.3" fill="#fc8d59" class="flag">[0]</text><text x="419.8" y="193.3" fill="#000" class="taxonLabel">Mytilus</text><text x="369.8" y="207.4" fill="#fc8d59" class="flag">[0]</text><text x="391.8" y="207.4" fill="#000" class="taxonLabel">Dentalium</text><text x="313.6" y="263.8" fill="#fc8d59" class="flag">[0]</text><text x="335.6" y="263.8" fill="#000" class="taxonLabel">Pelagiella</text><text x="397.8" y="136.9" fill="#fc8d59" class="flag">[0]</text><text x="419.8" y="136.9" fill="#000" class="taxonLabel">Kulindroplax perissokomos</text><text x="397.8" y="151" fill="#fc8d59" class="flag">[0]</text><text x="419.8" y="151" fill="#000" class="taxonLabel">Acaenoplax hayae</text><text x="425.9" y="94.6" fill="#fc8d59" class="flag">[0]</text><text x="447.9" y="94.6" fill="#000" class="taxonLabel">Wirenia</text><text x="425.9" y="108.7" fill="#fc8d59" class="flag">[0]</text><text x="447.9" y="108.7" fill="#000" class="taxonLabel">Chaetoderma</text><text x="397.8" y="122.8" fill="#fc8d59" class="flag">[0]</text><text x="419.8" y="122.8" fill="#000" class="taxonLabel">Phthipodochiton thraivensis</text><text x="482" y="10" fill="#fc8d59" class="flag">[0]</text><text x="504" y="10" fill="#000" class="taxonLabel">Tonicella</text><text x="482" y="24.1" fill="#fc8d59" class="flag">[0]</text><text x="504" y="24.1" fill="#000" class="taxonLabel">Mopalia</text><text x="453.9" y="38.2" fill="#fc8d59" class="flag">[0]</text><text x="475.9" y="38.2" fill="#000" class="taxonLabel">Polysacos vickersianum</text><text x="425.9" y="52.3" fill="#fc8d59" class="flag">[0]</text><text x="447.9" y="52.3" fill="#000" class="taxonLabel">Leptochiton</text><text x="397.8" y="66.4" fill="#fc8d59" class="flag">[0]</text><text x="419.8" y="66.4" fill="#000" class="taxonLabel">Glaphurochiton carbonarius</text><text x="369.8" y="80.5" fill="#fc8d59" class="flag">[0]</text><text x="391.8" y="80.5" fill="#000" class="taxonLabel">Calvapilosa kroegeri</text><text x="313.6" y="165.1" fill="grey" class="flag">[?]</text><text x="335.6" y="165.1" fill="#999" class="taxonLabel">Siphogonuchites multa</text><text x="201.4" y="362.5" fill="#fc8d59" class="flag">[0]</text><text x="223.4" y="362.5" fill="#000" class="taxonLabel">Loxosomella</text><text x="145.3" y="404.8" fill="#fc8d59" class="flag">[0]</text><text x="167.3" y="404.8" fill="#000" class="taxonLabel">Namacalathus</text><text x="117.2" y="418.9" fill="#fc8d59" class="flag">[0]</text><text x="139.2" y="418.9" fill="#000" class="taxonLabel">Phoronis</text><text x="61.1" y="700.9" fill="#fc8d59" class="flag">[0]</text><text x="83.1" y="700.9" fill="#000" class="taxonLabel">Dailyatia</text><text x="33.1" y="715" fill="#fc8d59" class="flag">[0]</text><text x="55.1" y="715" fill="#000" class="taxonLabel">Yilingia spiciformis</text><path d="M5,663.2V614.3H33.1M33.1,614.3V530.8H61.1M61.1,530.8V396.1H89.2M89.2,396.1V376.3H117.2M117.2,376.3V350.9H145.3M145.3,350.9V321.1H173.4M173.4,321.1V282.8H201.4M201.4,282.8V232.5H229.5M229.5,232.5V183.1H257.5M257.5,183.1V128.3H285.6M285.6,128.3V94.5H313.6M313.6,94.5V63.8H341.7M341.7,63.8V50.2H369.8M369.8,50.2V37H397.8M397.8,37V24.6H425.9M425.9,24.6V14.1H453.9M453.9,14.1V7H482M453.9,14.1V21.1H482M425.9,24.6V35.2H453.9M397.8,37V49.3H425.9M369.8,50.2V63.4H397.8M341.7,63.8V77.5H369.8M313.6,94.5V125.1H341.7M341.7,125.1V109.2H369.8M369.8,109.2V98.7H397.8M397.8,98.7V91.6H425.9M397.8,98.7V105.7H425.9M369.8,109.2V119.8H397.8M341.7,125.1V140.9H369.8M369.8,140.9V133.9H397.8M369.8,140.9V148H397.8M285.6,128.3V162.1H313.6M257.5,183.1V237.9H285.6M285.6,237.9V215H313.6M313.6,215V193.8H341.7M341.7,193.8V183.2H369.8M369.8,183.2V176.2H397.8M369.8,183.2V190.3H397.8M341.7,193.8V204.4H369.8M313.6,215V236.1H341.7M341.7,236.1V225.6H369.8M369.8,225.6V218.5H397.8M369.8,225.6V232.6H397.8M341.7,236.1V246.7H369.8M285.6,237.9V260.8H313.6M229.5,232.5V281.9H257.5M257.5,281.9V274.9H285.6M257.5,281.9V289H285.6M201.4,282.8V333.1H229.5M229.5,333.1V320.7H257.5M257.5,320.7V310.1H285.6M285.6,310.1V303.1H313.6M285.6,310.1V317.2H313.6M257.5,320.7V331.3H285.6M229.5,333.1V345.4H257.5M173.4,321.1V359.5H201.4M145.3,350.9V380.6H173.4M173.4,380.6V373.6H201.4M173.4,380.6V387.7H201.4M117.2,376.3V401.8H145.3M89.2,396.1V415.9H117.2M61.1,530.8V665.4H89.2M89.2,665.4V647.1H117.2M117.2,647.1V624.5H145.3M145.3,624.5V600.4H173.4M173.4,600.4V580.5H201.4M201.4,580.5V561.8H229.5M229.5,561.8V538.5H257.5M257.5,538.5V513.1H285.6M285.6,513.1V490.4H313.6M313.6,490.4V473.2H341.7M341.7,473.2V460H369.8M369.8,460V447.6H397.8M397.8,447.6V437H425.9M425.9,437V430H453.9M425.9,437V444.1H453.9M397.8,447.6V458.2H425.9M369.8,460V472.3H397.8M341.7,473.2V486.4H369.8M285.6,513.1V535.8H313.6M313.6,535.8V528.7H341.7M313.6,535.8V542.8H341.7M257.5,538.5V564H285.6M285.6,564V556.9H313.6M285.6,564V571H313.6M229.5,561.8V585.1H257.5M201.4,580.5V599.2H229.5M173.4,600.4V620.3H201.4M201.4,620.3V613.3H229.5M201.4,620.3V627.4H229.5M145.3,624.5V648.5H173.4M173.4,648.5V641.5H201.4M173.4,648.5V655.6H201.4M117.2,647.1V669.7H145.3M89.2,665.4V683.8H117.2M33.1,614.3V697.9H61.1M5,663.2V712H33.1" stroke="#fc8d59"></path><path d="M313.6,490.4V507.5H341.7M341.7,507.5V500.5H369.8M341.7,507.5V514.6H369.8" stroke="#91bfdb"></path><text x="35.1" y="617.3" class="node" fill="#8696E1">0.83</text><text x="63.1" y="533.8" class="node" fill="#E5C7CC">0.41</text><text x="91.2" y="399.1" class="node" fill="#DD6F88">0.13</text><text x="119.2" y="379.3" class="node" fill="#E5C7CC">0.41</text><text x="147.3" y="353.9" class="node" fill="#E5C7CC">0.41</text><text x="175.4" y="324.1" class="node" fill="#5B78E2">0.96</text><text x="203.4" y="285.8" class="node" fill="#4A6FE3">1</text><text x="231.5" y="235.5" class="node" fill="#E5C7CC">0.41</text><text x="259.5" y="186.1" class="node" fill="#E5CDD1">0.43</text><text x="287.6" y="131.3" class="node" fill="#E07C92">0.17</text><text x="315.6" y="97.5" class="node" fill="#5374E2">0.98</text><text x="343.7" y="66.8" class="node" fill="#5374E2">0.98</text><text x="371.8" y="53.2" class="node" fill="#4A6FE3">1</text><text x="399.8" y="40" class="node" fill="#4A6FE3">1</text><text x="427.9" y="27.6" class="node" fill="#4A6FE3">1</text><text x="455.9" y="17.1" class="node" fill="#E5CDD1">0.43</text><text x="343.7" y="128.1" class="node" fill="#E38C9E">0.22</text><text x="371.8" y="112.2" class="node" fill="#5374E2">0.98</text><text x="399.8" y="101.7" class="node" fill="#E5CDD1">0.43</text><text x="371.8" y="143.9" class="node" fill="#5374E2">0.98</text><text x="287.6" y="240.9" class="node" fill="#95A1E2">0.78</text><text x="315.6" y="218" class="node" fill="#5374E2">0.98</text><text x="343.7" y="196.8" class="node" fill="#4A6FE3">1</text><text x="371.8" y="186.2" class="node" fill="#5374E2">0.98</text><text x="343.7" y="239.1" class="node" fill="#5374E2">0.98</text><text x="371.8" y="228.6" class="node" fill="#4A6FE3">1</text><text x="259.5" y="284.9" class="node" fill="#4A6FE3">1</text><text x="231.5" y="336.1" class="node" fill="#4A6FE3">1</text><text x="259.5" y="323.7" class="node" fill="#4A6FE3">1</text><text x="287.6" y="313.1" class="node" fill="#4A6FE3">1</text><text x="175.4" y="383.6" class="node" fill="#E6AEB8">0.33</text><text x="91.2" y="668.4" class="node" fill="#E28699">0.2</text><text x="119.2" y="650.1" class="node" fill="#E5CDD1">0.43</text><text x="147.3" y="627.5" class="node" fill="#E4D6D8">0.46</text><text x="175.4" y="603.4" class="node" fill="#5B78E2">0.96</text><text x="203.4" y="583.5" class="node" fill="#5B78E2">0.96</text><text x="231.5" y="564.8" class="node" fill="#5B78E2">0.96</text><text x="259.5" y="541.5" class="node" fill="#5374E2">0.98</text><text x="287.6" y="516.1" class="node" fill="#5374E2">0.98</text><text x="315.6" y="493.4" class="node" fill="#5374E2">0.98</text><text x="343.7" y="476.2" class="node" fill="#5374E2">0.98</text><text x="371.8" y="463" class="node" fill="#4A6FE3">1</text><text x="399.8" y="450.6" class="node" fill="#E2E2E2">0.5</text><text x="427.9" y="440" class="node" fill="#4A6FE3">1</text><text x="343.7" y="510.5" class="node" fill="#4A6FE3">1</text><text x="315.6" y="538.8" class="node" fill="#5B78E2">0.96</text><text x="287.6" y="567" class="node" fill="#4A6FE3">1</text><text x="203.4" y="623.3" class="node" fill="#B9BFE3">0.65</text><text x="175.4" y="651.5" class="node" fill="#8696E1">0.83</text></svg>
