<svg xmlns="http://www.w3.org/2000/svg" version="1.1" viewBox="0 0 682 720" preserveAspectRatio="xMidYMid meet" class="tree" data-char="233"><text x="678" y="12.7" text-anchor="end" class="stepsLabel">Character adds <tspan class="score">1</tspan> to tree score</text><text x="678" y="22.4" text-anchor="end" class="stepsLabel"><tspan class="score">0</tspan> additional regions</text><text x="678" y="32.1" text-anchor="end" class="stepsLabel"></text><text x="678" y="51.5" text-anchor="end" class="stepsLabel"><tspan dy="16" fill="#34caaf">An optimal tree under:</tspan><tspan x="680" style="font-style:italic" class="notThisAn" dy="1.2em">Implied weights, k = 4.5</tspan><tspan x="680" style="font-style:italic" class="notThisAn" dy="1.2em">IW, k = 10.5</tspan><tspan x="680" style="font-style:italic" class="notThisAn" dy="1.2em">IW, k = 24</tspan><tspan x="680" style="font-style:italic" class="thisAn" dy="1.2em">Equal weights</tspan></text><text x="323" y="607.3" fill="#fc8d59" class="flag">[0]</text><text x="345" y="607.3" fill="#000" class="taxonLabel">Serpula</text><text x="323" y="617.1" fill="grey" class="flag">[?]</text><text x="345" y="617.1" fill="#999" class="taxonLabel">Capitella</text><text x="300.3" y="626.9" fill="grey" class="flag">[?]</text><text x="322.3" y="626.9" fill="#999" class="taxonLabel">Canadia spinosa</text><text x="277.6" y="636.7" fill="#fc8d59" class="flag">[0]</text><text x="299.6" y="636.7" fill="#000" class="taxonLabel">Sipunculus</text><text x="413.9" y="538.8" fill="#91bfdb" class="flag">[1]</text><text x="435.9" y="538.8" fill="#000" class="taxonLabel">Haliotis</text><text x="413.9" y="548.5" fill="grey" class="flag">[?]</text><text x="435.9" y="548.5" fill="#999" class="taxonLabel">Conocardium elongatum</text><text x="391.1" y="558.3" fill="#91bfdb" class="flag">[1]</text><text x="413.1" y="558.3" fill="#000" class="taxonLabel">Neopilina</text><text x="368.4" y="568.1" fill="#91bfdb" class="flag">[1]</text><text x="390.4" y="568.1" fill="#000" class="taxonLabel">Mytilus</text><text x="345.7" y="577.9" fill="grey" class="flag">[?]</text><text x="367.7" y="577.9" fill="#999" class="taxonLabel">Pojetaia runnegari</text><text x="323" y="587.7" fill="#91bfdb" class="flag">[1]</text><text x="345" y="587.7" fill="#000" class="taxonLabel">Dentalium</text><text x="300.3" y="597.5" fill="grey" class="flag">[?]</text><text x="322.3" y="597.5" fill="#999" class="taxonLabel">Pelagiella</text><text x="323" y="519.2" fill="grey" class="flag">[?]</text><text x="345" y="519.2" fill="#999" class="taxonLabel">Wiwaxia corrugata</text><text x="323" y="529" fill="grey" class="flag">[?]</text><text x="345" y="529" fill="#999" class="taxonLabel">Odontogriphus omalus</text><text x="391.1" y="489.8" fill="grey" class="flag">[?]</text><text x="413.1" y="489.8" fill="#999" class="taxonLabel">Wirenia</text><text x="391.1" y="499.6" fill="grey" class="flag">[?]</text><text x="413.1" y="499.6" fill="#999" class="taxonLabel">Chaetoderma</text><text x="413.9" y="460.4" fill="grey" class="flag">[?]</text><text x="435.9" y="460.4" fill="#999" class="taxonLabel">Phthipodochiton thraivensis</text><text x="413.9" y="470.2" fill="grey" class="flag">[?]</text><text x="435.9" y="470.2" fill="#999" class="taxonLabel">Kulindroplax perissokomos</text><text x="391.1" y="480" fill="grey" class="flag">[?]</text><text x="413.1" y="480" fill="#999" class="taxonLabel">Acaenoplax hayae</text><text x="436.6" y="421.2" fill="#91bfdb" class="flag">[1]</text><text x="458.6" y="421.2" fill="#000" class="taxonLabel">Leptochiton</text><text x="436.6" y="431" fill="grey" class="flag">[?]</text><text x="458.6" y="431" fill="#999" class="taxonLabel">Glaphurochiton carbonarius</text><text x="436.6" y="401.7" fill="#91bfdb" class="flag">[1]</text><text x="458.6" y="401.7" fill="#000" class="taxonLabel">Tonicella</text><text x="436.6" y="411.5" fill="grey" class="flag">[?]</text><text x="458.6" y="411.5" fill="#999" class="taxonLabel">Mopalia</text><text x="391.1" y="440.8" fill="grey" class="flag">[?]</text><text x="413.1" y="440.8" fill="#999" class="taxonLabel">Calvapilosa kroegeri</text><text x="368.4" y="450.6" fill="grey" class="flag">[?]</text><text x="390.4" y="450.6" fill="#999" class="taxonLabel">Polysacos vickersianum</text><text x="323" y="509.4" fill="grey" class="flag">[?]</text><text x="345" y="509.4" fill="#999" class="taxonLabel">Siphogonuchites multa</text><text x="232.1" y="646.5" fill="grey" class="flag">[?]</text><text x="254.1" y="646.5" fill="#999" class="taxonLabel">Bactrotheca</text><text x="209.4" y="656.2" fill="grey" class="flag">[?]</text><text x="231.4" y="656.2" fill="#999" class="taxonLabel">Cupitheca holocyclata</text><text x="300.3" y="352.7" fill="grey" class="flag">[?]</text><text x="322.3" y="352.7" fill="#999" class="taxonLabel">Mickwitzia muralensis</text><text x="300.3" y="362.5" fill="grey" class="flag">[?]</text><text x="322.3" y="362.5" fill="#999" class="taxonLabel">Heliomedusa orienta</text><text x="391.1" y="313.5" fill="#fc8d59" class="flag">[0]</text><text x="413.1" y="313.5" fill="#000" class="taxonLabel">Novocrania</text><text x="391.1" y="323.3" fill="grey" class="flag">[?]</text><text x="413.1" y="323.3" fill="#999" class="taxonLabel">Craniops</text><text x="368.4" y="333.1" fill="grey" class="flag">[?]</text><text x="390.4" y="333.1" fill="#999" class="taxonLabel">Ussunia</text><text x="345.7" y="342.9" fill="grey" class="flag">[?]</text><text x="367.7" y="342.9" fill="#999" class="taxonLabel">Gasconsia</text><text x="436.6" y="264.6" fill="#fc8d59" class="flag">[0]</text><text x="458.6" y="264.6" fill="#000" class="taxonLabel">Pelagodiscus atlanticus</text><text x="436.6" y="274.4" fill="grey" class="flag">[?]</text><text x="458.6" y="274.4" fill="#999" class="taxonLabel">Mummpikia nuda</text><text x="482" y="235.2" fill="grey" class="flag">[?]</text><text x="504" y="235.2" fill="#999" class="taxonLabel">Siphonobolus priscus</text><text x="482" y="245" fill="grey" class="flag">[?]</text><text x="504" y="245" fill="#999" class="taxonLabel">Acanthotretella spinosa</text><text x="482" y="215.6" fill="grey" class="flag">[?]</text><text x="504" y="215.6" fill="#999" class="taxonLabel">Lingulosacculus</text><text x="482" y="225.4" fill="grey" class="flag">[?]</text><text x="504" y="225.4" fill="#999" class="taxonLabel">Clupeafumosus socialis</text><text x="436.6" y="254.8" fill="grey" class="flag">[?]</text><text x="458.6" y="254.8" fill="#999" class="taxonLabel">Lingulellotreta malongensis</text><text x="391.1" y="284.2" fill="grey" class="flag">[?]</text><text x="413.1" y="284.2" fill="#999" class="taxonLabel">Botsfordia</text><text x="368.4" y="294" fill="grey" class="flag">[?]</text><text x="390.4" y="294" fill="#999" class="taxonLabel">Eoobolus</text><text x="345.7" y="303.8" fill="#fc8d59" class="flag">[0]</text><text x="367.7" y="303.8" fill="#000" class="taxonLabel">Lingula</text><text x="345.7" y="196" fill="grey" class="flag">[?]</text><text x="367.7" y="196" fill="#999" class="taxonLabel">Micromitra</text><text x="345.7" y="205.8" fill="grey" class="flag">[?]</text><text x="367.7" y="205.8" fill="#999" class="taxonLabel">Askepasma toddense</text><text x="413.9" y="156.9" fill="grey" class="flag">[?]</text><text x="435.9" y="156.9" fill="#999" class="taxonLabel">Yuganotheca elegans</text><text x="413.9" y="166.7" fill="grey" class="flag">[?]</text><text x="435.9" y="166.7" fill="#999" class="taxonLabel">Tomteluva perturbata</text><text x="391.1" y="176.5" fill="grey" class="flag">[?]</text><text x="413.1" y="176.5" fill="#999" class="taxonLabel">Longtancunella chengjiangensis</text><text x="368.4" y="186.2" fill="grey" class="flag">[?]</text><text x="390.4" y="186.2" fill="#999" class="taxonLabel">Salanygolina</text><text x="391.1" y="137.3" fill="grey" class="flag">[?]</text><text x="413.1" y="137.3" fill="#999" class="taxonLabel">Coolinia pecten</text><text x="391.1" y="147.1" fill="grey" class="flag">[?]</text><text x="413.1" y="147.1" fill="#999" class="taxonLabel">Antigonambonites planus</text><text x="482" y="78.5" fill="#fc8d59" class="flag">[0]</text><text x="504" y="78.5" fill="#000" class="taxonLabel">Terebratulina</text><text x="482" y="88.3" fill="grey" class="flag">[?]</text><text x="504" y="88.3" fill="#999" class="taxonLabel">Orthis</text><text x="459.3" y="98.1" fill="grey" class="flag">[?]</text><text x="481.3" y="98.1" fill="#999" class="taxonLabel">Alisina</text><text x="436.6" y="107.9" fill="grey" class="flag">[?]</text><text x="458.6" y="107.9" fill="#999" class="taxonLabel">Glyptoria</text><text x="413.9" y="117.7" fill="grey" class="flag">[?]</text><text x="435.9" y="117.7" fill="#999" class="taxonLabel">Nisusia sulcata</text><text x="391.1" y="127.5" fill="grey" class="flag">[?]</text><text x="413.1" y="127.5" fill="#999" class="taxonLabel">Kutorgina chengjiangensis</text><text x="254.9" y="372.3" fill="grey" class="flag">[?]</text><text x="276.9" y="372.3" fill="#999" class="taxonLabel">Micrina</text><text x="232.1" y="382.1" fill="grey" class="flag">[?]</text><text x="254.1" y="382.1" fill="#999" class="taxonLabel">Paterimitra</text><text x="209.4" y="391.9" fill="grey" class="flag">[?]</text><text x="231.4" y="391.9" fill="#999" class="taxonLabel">Pedunculotheca diania</text><text x="164" y="666" fill="grey" class="flag">[?]</text><text x="186" y="666" fill="#999" class="taxonLabel">Paramicrocornus</text><text x="141.3" y="675.8" fill="grey" class="flag">[?]</text><text x="163.3" y="675.8" fill="#999" class="taxonLabel">Haplophrentis carinatus</text><text x="118.6" y="685.6" fill="grey" class="flag">[?]</text><text x="140.6" y="685.6" fill="#999" class="taxonLabel">Halkieria evangelista</text><text x="95.9" y="695.4" fill="grey" class="flag">[?]</text><text x="117.9" y="695.4" fill="#999" class="taxonLabel">Orthrozanclus</text><text x="73.1" y="705.2" fill="grey" class="flag">[?]</text><text x="95.1" y="705.2" fill="#999" class="taxonLabel">Dailyatia</text><text x="186.7" y="10" fill="#fc8d59" class="flag">[0]</text><text x="208.7" y="10" fill="#000" class="taxonLabel">Flustra</text><text x="186.7" y="19.8" fill="#fc8d59" class="flag">[0]</text><text x="208.7" y="19.8" fill="#000" class="taxonLabel">Amathia</text><text x="164" y="29.6" fill="#fc8d59" class="flag">[0]</text><text x="186" y="29.6" fill="#000" class="taxonLabel">Loxosomella</text><text x="141.3" y="39.4" fill="#fc8d59" class="flag">[0]</text><text x="163.3" y="39.4" fill="#000" class="taxonLabel">Phoronis</text><text x="118.6" y="49.2" fill="grey" class="flag">[?]</text><text x="140.6" y="49.2" fill="#999" class="taxonLabel">Namacalathus</text><text x="95.9" y="59" fill="grey" class="flag">[?]</text><text x="117.9" y="59" fill="#999" class="taxonLabel">Eccentrotheca</text><text x="73.1" y="68.8" fill="grey" class="flag">[?]</text><text x="95.1" y="68.8" fill="#999" class="taxonLabel">Cotyledion tylodes</text><text x="27.7" y="715" fill="grey" class="flag">[?]</text><text x="49.7" y="715" fill="#999" class="taxonLabel">Yilingia spiciformis</text><path d="M5,542V372.1H27.7M27.7,372.1V56.1H50.4M50.4,56.1V46.5H73.1M73.1,46.5V37H95.9M95.9,37V27.8H118.6M118.6,27.8V19.2H141.3M141.3,19.2V11.9H164M164,11.9V7H186.7M164,11.9V16.8H186.7M141.3,19.2V26.6H164M118.6,27.8V36.4H141.3M95.9,37V46.2H118.6M73.1,46.5V56H95.9M50.4,56.1V65.8H73.1M27.7,372.1V688H50.4M50.4,688V673.9H73.1M73.1,673.9V655.3H95.9M95.9,655.3V628H118.6M118.6,628V583.1H141.3M141.3,583.1V503.1H164M164,503.1V372.7H186.7M186.7,372.7V356.5H209.4M209.4,356.5V333.9H232.1M232.1,333.9V298.6H254.9M254.9,298.6V242.5H277.6M277.6,242.5V174.4H300.3M300.3,174.4V150.9H323M323,150.9V127.1H345.7M345.7,127.1V115H368.4M368.4,115V105.5H391.1M391.1,105.5V96.3H413.9M413.9,96.3V87.8H436.6M436.6,87.8V80.4H459.3M459.3,80.4V75.5H482M459.3,80.4V85.3H482M436.6,87.8V95.1H459.3M413.9,96.3V104.9H436.6M391.1,105.5V114.7H413.9M368.4,115V124.5H391.1M345.7,127.1V139.2H368.4M368.4,139.2V134.3H391.1M368.4,139.2V144.1H391.1M323,150.9V174.7H345.7M345.7,174.7V166.1H368.4M368.4,166.1V158.8H391.1M391.1,158.8V153.9H413.9M391.1,158.8V163.7H413.9M368.4,166.1V173.5H391.1M345.7,174.7V183.2H368.4M300.3,174.4V197.9H323M323,197.9V193H345.7M323,197.9V202.8H345.7M277.6,242.5V310.6H300.3M300.3,310.6V289.9H323M323,289.9V279H345.7M345.7,279V267.1H368.4M368.4,267.1V253H391.1M391.1,253V239.6H413.9M413.9,239.6V227.3H436.6M436.6,227.3V217.5H459.3M459.3,217.5V212.6H482M459.3,217.5V222.4H482M436.6,227.3V237.1H459.3M459.3,237.1V232.2H482M459.3,237.1V242H482M413.9,239.6V251.8H436.6M391.1,253V266.5H413.9M413.9,266.5V261.6H436.6M413.9,266.5V271.4H436.6M368.4,267.1V281.2H391.1M345.7,279V291H368.4M323,289.9V300.8H345.7M300.3,310.6V331.3H323M323,331.3V322.8H345.7M345.7,322.8V315.4H368.4M368.4,315.4V310.5H391.1M368.4,315.4V320.3H391.1M345.7,322.8V330.1H368.4M323,331.3V339.9H345.7M254.9,298.6V354.6H277.6M277.6,354.6V349.7H300.3M277.6,354.6V359.5H300.3M232.1,333.9V369.3H254.9M209.4,356.5V379.1H232.1M186.7,372.7V388.9H209.4M164,503.1V633.5H186.7M186.7,633.5V613.8H209.4M209.4,613.8V584.2H232.1M232.1,584.2V625.1H254.9M254.9,625.1V616.5H277.6M277.6,616.5V609.2H300.3M300.3,609.2V604.3H323M300.3,609.2V614.1H323M277.6,616.5V623.9H300.3M254.9,625.1V633.7H277.6M209.4,613.8V643.5H232.1M186.7,633.5V653.2H209.4M141.3,583.1V663H164M118.6,628V672.8H141.3M95.9,655.3V682.6H118.6M73.1,673.9V692.4H95.9M50.4,688V702.2H73.1M5,542V712H27.7" stroke="#fc8d59"></path><path d="M232.1,584.2V543.3H254.9M254.9,543.3V501.8H277.6M277.6,501.8V482.5H300.3M300.3,482.5V458.6H323M323,458.6V436.6H345.7M345.7,436.6V425.6H368.4M368.4,425.6V413.4H391.1M391.1,413.4V403.6H413.9M413.9,403.6V398.7H436.6M413.9,403.6V408.5H436.6M391.1,413.4V423.1H413.9M413.9,423.1V418.2H436.6M413.9,423.1V428H436.6M368.4,425.6V437.8H391.1M345.7,436.6V447.6H368.4M323,458.6V480.7H345.7M345.7,480.7V469.7H368.4M368.4,469.7V462.3H391.1M391.1,462.3V457.4H413.9M391.1,462.3V467.2H413.9M368.4,469.7V477H391.1M345.7,480.7V491.7H368.4M368.4,491.7V486.8H391.1M368.4,491.7V496.6H391.1M300.3,482.5V506.4H323M277.6,501.8V521.1H300.3M300.3,521.1V516.2H323M300.3,521.1V526H323M254.9,543.3V584.9H277.6M277.6,584.9V575.2H300.3M300.3,575.2V565.7H323M323,565.7V556.6H345.7M345.7,556.6V548H368.4M368.4,548V540.6H391.1M391.1,540.6V535.8H413.9M391.1,540.6V545.5H413.9M368.4,548V555.3H391.1M345.7,556.6V565.1H368.4M323,565.7V574.9H345.7M300.3,575.2V584.7H323M277.6,584.9V594.5H300.3" stroke="#91bfdb"></path><text x="29.7" y="375.1" class="node" fill="#C7CBE3">0.6</text><text x="52.4" y="59.1" class="node" fill="#E498A7">0.26</text><text x="75.1" y="49.5" class="node" fill="#C7CBE3">0.6</text><text x="97.9" y="40" class="node" fill="#E6BAC2">0.37</text><text x="120.6" y="30.8" class="node" fill="#C7CBE3">0.6</text><text x="143.3" y="22.2" class="node" fill="#4A6FE3">1</text><text x="166" y="14.9" class="node" fill="#DE728B">0.14</text><text x="52.4" y="691" class="node" fill="#C7CBE3">0.6</text><text x="75.1" y="676.9" class="node" fill="#C7CBE3">0.6</text><text x="97.9" y="658.3" class="node" fill="#C7CBE3">0.6</text><text x="120.6" y="631" class="node" fill="#E6ABB6">0.32</text><text x="143.3" y="586.1" class="node" fill="#C7CBE3">0.6</text><text x="166" y="506.1" class="node" fill="#C7CBE3">0.6</text><text x="188.7" y="375.7" class="node" fill="#C7CBE3">0.6</text><text x="211.4" y="359.5" class="node" fill="#4A6FE3">1</text><text x="234.1" y="336.9" class="node" fill="#C7CBE3">0.6</text><text x="256.9" y="301.6" class="node" fill="#C7CBE3">0.6</text><text x="279.6" y="245.5" class="node" fill="#C7CBE3">0.6</text><text x="302.3" y="177.4" class="node" fill="#C7CBE3">0.6</text><text x="325" y="153.9" class="node" fill="#DADBE3">0.53</text><text x="347.7" y="130.1" class="node" fill="#E4D6D8">0.46</text><text x="370.4" y="118" class="node" fill="#E495A5">0.25</text><text x="393.1" y="108.5" class="node" fill="#DADBE3">0.53</text><text x="415.9" y="99.3" class="node" fill="#5B78E2">0.96</text><text x="438.6" y="90.8" class="node" fill="#5B78E2">0.96</text><text x="461.3" y="83.4" class="node" fill="#4A6FE3">1</text><text x="370.4" y="142.2" class="node" fill="#E38FA0">0.23</text><text x="347.7" y="177.7" class="node" fill="#E6AEB8">0.33</text><text x="370.4" y="169.1" class="node" fill="#D7D9E3">0.54</text><text x="393.1" y="161.8" class="node" fill="#4A6FE3">1</text><text x="325" y="200.9" class="node" fill="#4A6FE3">1</text><text x="302.3" y="313.6" class="node" fill="#4A6FE3">1</text><text x="325" y="292.9" class="node" fill="#4A6FE3">1</text><text x="347.7" y="282" class="node" fill="#4A6FE3">1</text><text x="370.4" y="270.1" class="node" fill="#4A6FE3">1</text><text x="393.1" y="256" class="node" fill="#4A6FE3">1</text><text x="415.9" y="242.6" class="node" fill="#4A6FE3">1</text><text x="438.6" y="230.3" class="node" fill="#E6C1C7">0.39</text><text x="461.3" y="220.5" class="node" fill="#4A6FE3">1</text><text x="461.3" y="240.1" class="node" fill="#4A6FE3">1</text><text x="415.9" y="269.5" class="node" fill="#4A6FE3">1</text><text x="325" y="334.3" class="node" fill="#4A6FE3">1</text><text x="347.7" y="325.8" class="node" fill="#4A6FE3">1</text><text x="370.4" y="318.4" class="node" fill="#4A6FE3">1</text><text x="279.6" y="357.6" class="node" fill="#C7CBE3">0.6</text><text x="188.7" y="636.5" class="node" fill="#C7CBE3">0.6</text><text x="211.4" y="616.8" class="node" fill="#4A6FE3">1</text><text x="234.1" y="587.2" class="node" fill="#768BE1">0.88</text><text x="256.9" y="546.3" class="node" fill="#C4C9E3">0.61</text><text x="279.6" y="504.8" class="node" fill="#4A6FE3">1</text><text x="302.3" y="485.5" class="node" fill="#D2D4E3">0.56</text><text x="325" y="461.6" class="node" fill="#5B78E2">0.96</text><text x="347.7" y="439.6" class="node" fill="#C7CBE3">0.6</text><text x="370.4" y="428.6" class="node" fill="#E6AEB8">0.33</text><text x="393.1" y="416.4" class="node" fill="#4A6FE3">1</text><text x="415.9" y="406.6" class="node" fill="#D95A7A">0.07</text><text x="415.9" y="426.1" class="node" fill="#5374E2">0.98</text><text x="347.7" y="483.7" class="node" fill="#C7CBE3">0.6</text><text x="370.4" y="472.7" class="node" fill="#C7CBE3">0.6</text><text x="393.1" y="465.3" class="node" fill="#5374E2">0.98</text><text x="370.4" y="494.7" class="node" fill="#4A6FE3">1</text><text x="302.3" y="524.1" class="node" fill="#B4BBE3">0.67</text><text x="279.6" y="587.9" class="node" fill="#4A6FE3">1</text><text x="302.3" y="578.2" class="node" fill="#C4C9E3">0.61</text><text x="325" y="568.7" class="node" fill="#E18297">0.19</text><text x="347.7" y="559.6" class="node" fill="#7D8FE1">0.86</text><text x="370.4" y="551" class="node" fill="#DE728B">0.14</text><text x="393.1" y="543.6" class="node" fill="#4A6FE3">1</text><text x="256.9" y="628.1" class="node" fill="#C4C9E3">0.61</text><text x="279.6" y="619.5" class="node" fill="#E498A7">0.26</text><text x="302.3" y="612.2" class="node" fill="#C7CBE3">0.6</text></svg>
