<svg xmlns="http://www.w3.org/2000/svg" version="1.1" viewBox="0 0 682 720" preserveAspectRatio="xMidYMid meet" class="tree" data-char="248"><text x="678" y="16.8" text-anchor="end" class="stepsLabel">Character adds <tspan class="score">2</tspan> to tree score</text><text x="678" y="30.6" text-anchor="end" class="stepsLabel"><tspan class="score">0</tspan> additional regions</text><text x="678" y="44.4" text-anchor="end" class="stepsLabel"></text><text x="678" y="72" text-anchor="end" class="stepsLabel"><tspan dy="16" fill="#34caaf">An optimal tree under:</tspan><tspan x="680" style="font-style:italic" class="notThisAn" dy="1.2em">Implied weights, k = 3</tspan><tspan x="680" style="font-style:italic" class="notThisAn" dy="1.2em">IW, k = 4.5</tspan><tspan x="680" style="font-style:italic" class="notThisAn" dy="1.2em">IW, k = 7</tspan><tspan x="680" style="font-style:italic" class="notThisAn" dy="1.2em">IW, k = 10.5</tspan><tspan x="680" style="font-style:italic" class="notThisAn" dy="1.2em">IW, k = 16</tspan><tspan x="680" style="font-style:italic" class="thisAn" dy="1.2em">IW, k = 24</tspan><tspan x="680" style="font-style:italic" class="notThisAn" dy="1.2em">Equal weights</tspan></text><text x="201.4" y="644.5" fill="NA" class="flag">[?]</text><text x="223.4" y="644.5" fill="NA" class="taxonLabel">Orthrozanclus</text><text x="201.4" y="658.6" fill="NA" class="flag">[?]</text><text x="223.4" y="658.6" fill="NA" class="taxonLabel">Halkieria evangelista</text><text x="229.5" y="616.3" fill="NA" class="flag">[?]</text><text x="251.5" y="616.3" fill="NA" class="taxonLabel">Pedunculotheca diania</text><text x="229.5" y="630.4" fill="NA" class="flag">[?]</text><text x="251.5" y="630.4" fill="NA" class="taxonLabel">Haplophrentis carinatus</text><text x="313.6" y="559.9" fill="NA" class="flag">[?]</text><text x="335.6" y="559.9" fill="NA" class="taxonLabel">Mickwitzia muralensis</text><text x="313.6" y="574" fill="NA" class="flag">[?]</text><text x="335.6" y="574" fill="NA" class="taxonLabel">Heliomedusa orienta</text><text x="341.7" y="531.7" fill="NA" class="flag">[?]</text><text x="363.7" y="531.7" fill="NA" class="taxonLabel">Micromitra</text><text x="341.7" y="545.8" fill="NA" class="flag">[?]</text><text x="363.7" y="545.8" fill="NA" class="taxonLabel">Gasconsia</text><text x="369.8" y="503.5" fill="NA" class="flag">[0]</text><text x="391.8" y="503.5" fill="NA" class="taxonLabel">Terebratulina</text><text x="369.8" y="517.6" fill="NA" class="flag">[?]</text><text x="391.8" y="517.6" fill="NA" class="taxonLabel">Orthis</text><text x="453.9" y="433" fill="NA" class="flag">[?]</text><text x="475.9" y="433" fill="NA" class="taxonLabel">Yuganotheca elegans</text><text x="453.9" y="447.1" fill="NA" class="flag">[?]</text><text x="475.9" y="447.1" fill="NA" class="taxonLabel">Lingulellotreta malongensis</text><text x="425.9" y="461.2" fill="NA" class="flag">[0]</text><text x="447.9" y="461.2" fill="NA" class="taxonLabel">Lingula</text><text x="397.8" y="475.3" fill="NA" class="flag">[?]</text><text x="419.8" y="475.3" fill="NA" class="taxonLabel">Pelagodiscus atlanticus</text><text x="369.8" y="489.4" fill="NA" class="flag">[0]</text><text x="391.8" y="489.4" fill="NA" class="taxonLabel">Novocrania</text><text x="257.5" y="588.1" fill="NA" class="flag">[?]</text><text x="279.5" y="588.1" fill="NA" class="taxonLabel">Micrina</text><text x="229.5" y="602.2" fill="NA" class="flag">[?]</text><text x="251.5" y="602.2" fill="NA" class="taxonLabel">Paterimitra</text><text x="145.3" y="672.7" fill="NA" class="flag">[?]</text><text x="167.3" y="672.7" fill="NA" class="taxonLabel">Eccentrotheca</text><text x="173.4" y="404.8" fill="NA" class="flag">[0]</text><text x="195.4" y="404.8" fill="NA" class="taxonLabel">Phoronis</text><text x="173.4" y="418.9" fill="NA" class="flag">[?]</text><text x="195.4" y="418.9" fill="NA" class="taxonLabel">Namacalathus</text><text x="201.4" y="376.6" fill="NA" class="flag">[0]</text><text x="223.4" y="376.6" fill="NA" class="taxonLabel">Flustra</text><text x="201.4" y="390.7" fill="NA" class="flag">[0]</text><text x="223.4" y="390.7" fill="NA" class="taxonLabel">Amathia</text><text x="313.6" y="306.1" fill="NA" class="flag">[0]</text><text x="335.6" y="306.1" fill="NA" class="taxonLabel">Serpula</text><text x="313.6" y="320.2" fill="NA" class="flag">[?]</text><text x="335.6" y="320.2" fill="NA" class="taxonLabel">Capitella</text><text x="285.6" y="334.3" fill="NA" class="flag">[?]</text><text x="307.6" y="334.3" fill="NA" class="taxonLabel">Canadia spinosa</text><text x="257.5" y="348.4" fill="NA" class="flag">[1]</text><text x="279.5" y="348.4" fill="NA" class="taxonLabel">Sipunculus</text><text x="285.6" y="277.9" fill="NA" class="flag">[?]</text><text x="307.6" y="277.9" fill="NA" class="taxonLabel">Wiwaxia corrugata</text><text x="285.6" y="292" fill="NA" class="flag">[?]</text><text x="307.6" y="292" fill="NA" class="taxonLabel">Odontogriphus omalus</text><text x="369.8" y="235.6" fill="NA" class="flag">[?]</text><text x="391.8" y="235.6" fill="NA" class="taxonLabel">Pojetaia runnegari</text><text x="369.8" y="249.7" fill="NA" class="flag">[1]</text><text x="391.8" y="249.7" fill="NA" class="taxonLabel">Mytilus</text><text x="341.7" y="263.8" fill="NA" class="flag">[1]</text><text x="363.7" y="263.8" fill="NA" class="taxonLabel">Dentalium</text><text x="397.8" y="179.2" fill="NA" class="flag">[?]</text><text x="419.8" y="179.2" fill="NA" class="taxonLabel">Neopilina</text><text x="397.8" y="193.3" fill="NA" class="flag">[?]</text><text x="419.8" y="193.3" fill="NA" class="taxonLabel">Conocardium elongatum</text><text x="369.8" y="207.4" fill="NA" class="flag">[1]</text><text x="391.8" y="207.4" fill="NA" class="taxonLabel">Haliotis</text><text x="341.7" y="221.5" fill="NA" class="flag">[?]</text><text x="363.7" y="221.5" fill="NA" class="taxonLabel">Pelagiella</text><text x="425.9" y="122.8" fill="NA" class="flag">[?]</text><text x="447.9" y="122.8" fill="NA" class="taxonLabel">Kulindroplax perissokomos</text><text x="425.9" y="136.9" fill="NA" class="flag">[?]</text><text x="447.9" y="136.9" fill="NA" class="taxonLabel">Acaenoplax hayae</text><text x="425.9" y="94.6" fill="NA" class="flag">[1]</text><text x="447.9" y="94.6" fill="NA" class="taxonLabel">Wirenia</text><text x="425.9" y="108.7" fill="NA" class="flag">[1]</text><text x="447.9" y="108.7" fill="NA" class="taxonLabel">Chaetoderma</text><text x="369.8" y="151" fill="NA" class="flag">[?]</text><text x="391.8" y="151" fill="NA" class="taxonLabel">Phthipodochiton thraivensis</text><text x="482" y="10" fill="NA" class="flag">[1]</text><text x="504" y="10" fill="NA" class="taxonLabel">Tonicella</text><text x="482" y="24.1" fill="NA" class="flag">[1]</text><text x="504" y="24.1" fill="NA" class="taxonLabel">Mopalia</text><text x="453.9" y="38.2" fill="NA" class="flag">[?]</text><text x="475.9" y="38.2" fill="NA" class="taxonLabel">Polysacos vickersianum</text><text x="425.9" y="52.3" fill="NA" class="flag">[1]</text><text x="447.9" y="52.3" fill="NA" class="taxonLabel">Leptochiton</text><text x="397.8" y="66.4" fill="NA" class="flag">[?]</text><text x="419.8" y="66.4" fill="NA" class="taxonLabel">Glaphurochiton carbonarius</text><text x="369.8" y="80.5" fill="NA" class="flag">[?]</text><text x="391.8" y="80.5" fill="NA" class="taxonLabel">Calvapilosa kroegeri</text><text x="313.6" y="165.1" fill="NA" class="flag">[?]</text><text x="335.6" y="165.1" fill="NA" class="taxonLabel">Siphogonuchites multa</text><text x="201.4" y="362.5" fill="NA" class="flag">[0]</text><text x="223.4" y="362.5" fill="NA" class="taxonLabel">Loxosomella</text><text x="89.2" y="686.8" fill="NA" class="flag">[?]</text><text x="111.2" y="686.8" fill="NA" class="taxonLabel">Cotyledion tylodes</text><text x="61.1" y="700.9" fill="NA" class="flag">[?]</text><text x="83.1" y="700.9" fill="NA" class="taxonLabel">Dailyatia</text><text x="33.1" y="715" fill="NA" class="flag">[?]</text><text x="55.1" y="715" fill="NA" class="taxonLabel">Yilingia spiciformis</text><path d="MNA,NAVNAHNAMNA,NAVNAHNAMNA,NAVNAHNAMNA,NAVNAHNAMNA,NAVNAHNAMNA,NAVNAHNAMNA,NAVNAHNAMNA,NAVNAHNAMNA,NAVNAHNAMNA,NAVNAHNAMNA,NAVNAHNAMNA,NAVNAHNAMNA,NAVNAHNAMNA,NAVNAHNAMNA,NAVNAHNAMNA,NAVNAHNAMNA,NAVNAHNAMNA,NAVNAHNAMNA,NAVNAHNAMNA,NAVNAHNAMNA,NAVNAHNAMNA,NAVNAHNAMNA,NAVNAHNAMNA,NAVNAHNAMNA,NAVNAHNAMNA,NAVNAHNAMNA,NAVNAHNAMNA,NAVNAHNAMNA,NAVNAHNAMNA,NAVNAHNAMNA,NAVNAHNAMNA,NAVNAHNAMNA,NAVNAHNAMNA,NAVNAHNAMNA,NAVNAHNAMNA,NAVNAHNAMNA,NAVNAHNAMNA,NAVNAHNAMNA,NAVNAHNAMNA,NAVNAHNAMNA,NAVNAHNAMNA,NAVNAHNAMNA,NAVNAHNAMNA,NAVNAHNAMNA,NAVNAHNAMNA,NAVNAHNAMNA,NAVNAHNAMNA,NAVNAHNAMNA,NAVNAHNAMNA,NAVNAHNAMNA,NAVNAHNAMNA,NAVNAHNAMNA,NAVNAHNAMNA,NAVNAHNAMNA,NAVNAHNAMNA,NAVNAHNAMNA,NAVNAHNAMNA,NAVNAHNAMNA,NAVNAHNAMNA,NAVNAHNAMNA,NAVNAHNAMNA,NAVNAHNAMNA,NAVNAHNAMNA,NAVNAHNAMNA,NAVNAHNAMNA,NAVNAHNAMNA,NAVNAHNAMNA,NAVNAHNAMNA,NAVNAHNAMNA,NAVNAHNAMNA,NAVNAHNAMNA,NAVNAHNAMNA,NAVNAHNAMNA,NAVNAHNAMNA,NAVNAHNAMNA,NAVNAHNAMNA,NAVNAHNAMNA,NAVNAHNAMNA,NAVNAHNAMNA,NAVNAHNAMNA,NAVNAHNAMNA,NAVNAHNAMNA,NAVNAHNAMNA,NAVNAHNAMNA,NAVNAHNAMNA,NAVNAHNAMNA,NAVNAHNAMNA,NAVNAHNAMNA,NAVNAHNAMNA,NAVNAHNAMNA,NAVNAHNAMNA,NAVNAHNAMNA,NAVNAHNAMNA,NAVNAHNAMNA,NAVNAHNAMNA,NAVNAHNAMNA,NAVNAHNAMNA,NAVNAHNAMNA,NAVNAHNAMNA,NAVNAHNA" stroke="NANA"></path><text x="35.1" y="651.3" class="node" fill="#8696E1">0.83</text><text x="63.1" y="601.6" class="node" fill="#DD6F88">0.13</text><text x="91.2" y="516.4" class="node" fill="#E5C7CC">0.41</text><text x="119.2" y="382.7" class="node" fill="#E5C7CC">0.41</text><text x="147.3" y="353.6" class="node" fill="#E5C7CC">0.41</text><text x="175.4" y="323.6" class="node" fill="#5B78E2">0.96</text><text x="203.4" y="284.7" class="node" fill="#4A6FE3">1</text><text x="231.5" y="233.4" class="node" fill="#E5C7CC">0.41</text><text x="259.5" y="181.9" class="node" fill="#E5CDD1">0.43</text><text x="287.6" y="132.6" class="node" fill="#E07C92">0.17</text><text x="315.6" y="100.1" class="node" fill="#5374E2">0.98</text><text x="343.7" y="66.8" class="node" fill="#5374E2">0.98</text><text x="371.8" y="53.2" class="node" fill="#4A6FE3">1</text><text x="399.8" y="40" class="node" fill="#4A6FE3">1</text><text x="427.9" y="27.6" class="node" fill="#4A6FE3">1</text><text x="455.9" y="17.1" class="node" fill="#E5CDD1">0.43</text><text x="343.7" y="133.4" class="node" fill="#E38C9E">0.22</text><text x="371.8" y="115.8" class="node" fill="#5374E2">0.98</text><text x="399.8" y="101.7" class="node" fill="#E5CDD1">0.43</text><text x="399.8" y="129.8" class="node" fill="#5374E2">0.98</text><text x="287.6" y="231.2" class="node" fill="#E38C9E">0.22</text><text x="315.6" y="209.2" class="node" fill="#5374E2">0.98</text><text x="343.7" y="196.8" class="node" fill="#5374E2">0.98</text><text x="371.8" y="186.2" class="node" fill="#5374E2">0.98</text><text x="315.6" y="253.2" class="node" fill="#4A6FE3">1</text><text x="343.7" y="242.6" class="node" fill="#4A6FE3">1</text><text x="259.5" y="284.9" class="node" fill="#4A6FE3">1</text><text x="231.5" y="336.1" class="node" fill="#4A6FE3">1</text><text x="259.5" y="323.7" class="node" fill="#4A6FE3">1</text><text x="287.6" y="313.1" class="node" fill="#4A6FE3">1</text><text x="175.4" y="383.6" class="node" fill="#E59FAC">0.28</text><text x="147.3" y="411.9" class="node" fill="#E28699">0.2</text><text x="119.2" y="650.1" class="node" fill="#E5CDD1">0.43</text><text x="147.3" y="627.5" class="node" fill="#E4D6D8">0.46</text><text x="175.4" y="603.4" class="node" fill="#5B78E2">0.96</text><text x="203.4" y="583.5" class="node" fill="#5B78E2">0.96</text><text x="231.5" y="564.8" class="node" fill="#5B78E2">0.96</text><text x="259.5" y="541.5" class="node" fill="#5374E2">0.98</text><text x="287.6" y="516.1" class="node" fill="#5374E2">0.98</text><text x="315.6" y="493.4" class="node" fill="#5374E2">0.98</text><text x="343.7" y="476.2" class="node" fill="#5374E2">0.98</text><text x="371.8" y="463" class="node" fill="#4A6FE3">1</text><text x="399.8" y="450.6" class="node" fill="#E2E2E2">0.5</text><text x="427.9" y="440" class="node" fill="#4A6FE3">1</text><text x="343.7" y="510.5" class="node" fill="#4A6FE3">1</text><text x="315.6" y="538.8" class="node" fill="#5B78E2">0.96</text><text x="287.6" y="567" class="node" fill="#4A6FE3">1</text><text x="203.4" y="623.3" class="node" fill="#B9BFE3">0.65</text><text x="175.4" y="651.5" class="node" fill="#8696E1">0.83</text></svg>
