<svg xmlns="http://www.w3.org/2000/svg" version="1.1" viewBox="0 0 682 720" preserveAspectRatio="xMidYMid meet" class="tree" data-char="135"><text x="678" y="12.7" text-anchor="end" class="stepsLabel">Character adds <tspan class="score">16</tspan> to tree score</text><text x="678" y="22.4" text-anchor="end" class="stepsLabel"><tspan class="score">1</tspan> additional region</text><text x="678" y="32.1" text-anchor="end" class="stepsLabel"></text><text x="678" y="51.5" text-anchor="end" class="stepsLabel"><tspan dy="16" fill="#34caaf">An optimal tree under:</tspan><tspan x="680" style="font-style:italic" class="thisAn" dy="1.2em">Implied weights, k = 4.5</tspan><tspan x="680" style="font-style:italic" class="notThisAn" dy="1.2em">IW, k = 10.5</tspan><tspan x="680" style="font-style:italic" class="notThisAn" dy="1.2em">IW, k = 24</tspan><tspan x="680" style="font-style:italic" class="notThisAn" dy="1.2em">Equal weights</tspan></text><text x="130.5" y="675.8" fill="lightgrey" class="flag">[-]</text><text x="152.5" y="675.8" fill="#ccc" class="taxonLabel">Serpula</text><text x="130.5" y="685.6" fill="lightgrey" class="flag">[-]</text><text x="152.5" y="685.6" fill="#ccc" class="taxonLabel">Capitella</text><text x="105.4" y="695.4" fill="lightgrey" class="flag">[-]</text><text x="127.4" y="695.4" fill="#ccc" class="taxonLabel">Canadia spinosa</text><text x="80.3" y="705.2" fill="lightgrey" class="flag">[-]</text><text x="102.3" y="705.2" fill="#ccc" class="taxonLabel">Sipunculus</text><text x="130.5" y="656.2" fill="#fdae61" class="flag">[1]</text><text x="152.5" y="656.2" fill="#000" class="taxonLabel">Orthrozanclus</text><text x="130.5" y="666" fill="#abd9e9" class="flag">[2]</text><text x="152.5" y="666" fill="#000" class="taxonLabel">Halkieria evangelista</text><text x="205.8" y="617.1" fill="lightgrey" class="flag">[-]</text><text x="227.8" y="617.1" fill="#ccc" class="taxonLabel">Wirenia</text><text x="205.8" y="626.9" fill="#abd9e9" class="flag">[2]</text><text x="227.8" y="626.9" fill="#000" class="taxonLabel">Phthipodochiton thraivensis</text><text x="331.4" y="558.3" fill="#2c7bb6" class="flag">[3]</text><text x="353.4" y="558.3" fill="#000" class="taxonLabel">Tonicella</text><text x="331.4" y="568.1" fill="#abd9e9" class="flag">[2]</text><text x="353.4" y="568.1" fill="#000" class="taxonLabel">Mopalia</text><text x="306.3" y="577.9" fill="#fdae61" class="flag">[1]</text><text x="328.3" y="577.9" fill="#000" class="taxonLabel">Polysacos vickersianum</text><text x="281.2" y="587.7" fill="#abd9e9" class="flag">[2]</text><text x="303.2" y="587.7" fill="#000" class="taxonLabel">Leptochiton</text><text x="256.1" y="597.5" fill="#abd9e9" class="flag">[2]</text><text x="278.1" y="597.5" fill="#000" class="taxonLabel">Glaphurochiton carbonarius</text><text x="331.4" y="519.2" fill="lightgrey" class="flag">[-]</text><text x="353.4" y="519.2" fill="#ccc" class="taxonLabel">Wiwaxia corrugata</text><text x="331.4" y="529" fill="lightgrey" class="flag">[-]</text><text x="353.4" y="529" fill="#ccc" class="taxonLabel">Odontogriphus omalus</text><text x="381.6" y="489.8" fill="#abd9e9" class="flag">[2]</text><text x="403.6" y="489.8" fill="#000" class="taxonLabel">Neopilina</text><text x="381.6" y="499.6" fill="#fdae61" class="flag">[1]</text><text x="403.6" y="499.6" fill="#000" class="taxonLabel">Haliotis</text><text x="431.8" y="450.6" fill="#fdae61" class="flag">[1]</text><text x="453.8" y="450.6" fill="#000" class="taxonLabel">Pojetaia runnegari</text><text x="431.8" y="460.4" fill="#fdae61" class="flag">[1]</text><text x="453.8" y="460.4" fill="#000" class="taxonLabel">Conocardium elongatum</text><text x="406.7" y="470.2" fill="#abd9e9" class="flag">[2]</text><text x="428.7" y="470.2" fill="#000" class="taxonLabel">Mytilus</text><text x="381.6" y="480" fill="lightgrey" class="flag">[-]</text><text x="403.6" y="480" fill="#ccc" class="taxonLabel">Dentalium</text><text x="331.4" y="509.4" fill="#abd9e9" class="flag">[2]</text><text x="353.4" y="509.4" fill="#000" class="taxonLabel">Pelagiella</text><text x="281.2" y="538.8" fill="#fdae61" class="flag">[1]</text><text x="303.2" y="538.8" fill="#000" class="taxonLabel">Siphogonuchites multa</text><text x="256.1" y="548.5" fill="#fdae61" class="flag">[1]</text><text x="278.1" y="548.5" fill="#000" class="taxonLabel">Calvapilosa kroegeri</text><text x="205.8" y="607.3" fill="lightgrey" class="flag">[-]</text><text x="227.8" y="607.3" fill="#ccc" class="taxonLabel">Chaetoderma</text><text x="155.6" y="636.7" fill="#fdae61" class="flag">[1]</text><text x="177.6" y="636.7" fill="#000" class="taxonLabel">Acaenoplax hayae</text><text x="130.5" y="646.5" fill="#abd9e9" class="flag">[2]</text><text x="152.5" y="646.5" fill="#000" class="taxonLabel">Kulindroplax perissokomos</text><text x="180.7" y="411.5" fill="lightgrey" class="flag">[-]</text><text x="202.7" y="411.5" fill="#ccc" class="taxonLabel">Namacalathus</text><text x="180.7" y="421.2" fill="lightgrey" class="flag">[-]</text><text x="202.7" y="421.2" fill="#ccc" class="taxonLabel">Loxosomella</text><text x="155.6" y="431" fill="lightgrey" class="flag">[-]</text><text x="177.6" y="431" fill="#ccc" class="taxonLabel">Dailyatia</text><text x="205.8" y="382.1" fill="lightgrey" class="flag">[-]</text><text x="227.8" y="382.1" fill="#ccc" class="taxonLabel">Flustra</text><text x="205.8" y="391.9" fill="lightgrey" class="flag">[-]</text><text x="227.8" y="391.9" fill="#ccc" class="taxonLabel">Amathia</text><text x="180.7" y="401.7" fill="lightgrey" class="flag">[-]</text><text x="202.7" y="401.7" fill="#ccc" class="taxonLabel">Eccentrotheca</text><text x="331.4" y="313.5" fill="#fdae61" class="flag">[1]</text><text x="353.4" y="313.5" fill="#000" class="taxonLabel">Paramicrocornus</text><text x="331.4" y="323.3" fill="#fdae61" class="flag">[1]</text><text x="353.4" y="323.3" fill="#000" class="taxonLabel">Haplophrentis carinatus</text><text x="306.3" y="333.1" fill="#fdae61" class="flag">[1]</text><text x="328.3" y="333.1" fill="#000" class="taxonLabel">Bactrotheca</text><text x="281.2" y="342.9" fill="#fdae61" class="flag">[1]</text><text x="303.2" y="342.9" fill="#000" class="taxonLabel">Cupitheca holocyclata</text><text x="256.1" y="352.7" fill="#fdae61" class="flag">[1]</text><text x="278.1" y="352.7" fill="#000" class="taxonLabel">Pedunculotheca diania</text><text x="331.4" y="284.2" fill="#2c7bb6" class="flag">[3]</text><text x="353.4" y="284.2" fill="#000" class="taxonLabel">Coolinia pecten</text><text x="331.4" y="294" fill="#abd9e9" class="flag">[2]</text><text x="353.4" y="294" fill="#000" class="taxonLabel">Antigonambonites planus</text><text x="356.5" y="254.8" fill="grey" class="flag">[?]</text><text x="378.5" y="254.8" fill="#999" class="taxonLabel">Yuganotheca elegans</text><text x="356.5" y="264.6" fill="#abd9e9" class="flag">[2]</text><text x="378.5" y="264.6" fill="#000" class="taxonLabel">Tomteluva perturbata</text><text x="331.4" y="274.4" fill="#abd9e9" class="flag">[2]</text><text x="353.4" y="274.4" fill="#000" class="taxonLabel">Salanygolina</text><text x="356.5" y="235.2" fill="#abd9e9" class="flag">[2]</text><text x="378.5" y="235.2" fill="#000" class="taxonLabel">Nisusia sulcata</text><text x="356.5" y="245" fill="#abd9e9" class="flag">[2]</text><text x="378.5" y="245" fill="#000" class="taxonLabel">Kutorgina chengjiangensis</text><text x="431.8" y="186.2" fill="#abd9e9" class="flag">[2]</text><text x="453.8" y="186.2" fill="#000" class="taxonLabel">Terebratulina</text><text x="431.8" y="196" fill="#abd9e9" class="flag">[2]</text><text x="453.8" y="196" fill="#000" class="taxonLabel">Orthis</text><text x="406.7" y="205.8" fill="#abd9e9" class="flag">[2]</text><text x="428.7" y="205.8" fill="#000" class="taxonLabel">Alisina</text><text x="381.6" y="215.6" fill="#abd9e9" class="flag">[2]</text><text x="403.6" y="215.6" fill="#000" class="taxonLabel">Longtancunella chengjiangensis</text><text x="356.5" y="225.4" fill="#abd9e9" class="flag">[2]</text><text x="378.5" y="225.4" fill="#000" class="taxonLabel">Glyptoria</text><text x="482" y="117.7" fill="#fdae61" class="flag">[1]</text><text x="504" y="117.7" fill="#000" class="taxonLabel">Novocrania</text><text x="482" y="127.5" fill="#fdae61" class="flag">[1]</text><text x="504" y="127.5" fill="#000" class="taxonLabel">Craniops</text><text x="456.9" y="137.3" fill="#abd9e9" class="flag">[2]</text><text x="478.9" y="137.3" fill="#000" class="taxonLabel">Ussunia</text><text x="431.8" y="147.1" fill="#fdae61" class="flag">[1]</text><text x="453.8" y="147.1" fill="#000" class="taxonLabel">Heliomedusa orienta</text><text x="406.7" y="156.9" fill="#abd9e9" class="flag">[2]</text><text x="428.7" y="156.9" fill="#000" class="taxonLabel">Gasconsia</text><text x="381.6" y="166.7" fill="#abd9e9" class="flag">[2]</text><text x="403.6" y="166.7" fill="#000" class="taxonLabel">Micromitra</text><text x="406.7" y="98.1" fill="#fdae61" class="flag">[1]</text><text x="428.7" y="98.1" fill="#000" class="taxonLabel">Pelagodiscus atlanticus</text><text x="406.7" y="107.9" fill="#fdae61" class="flag">[1]</text><text x="428.7" y="107.9" fill="#000" class="taxonLabel">Mickwitzia muralensis</text><text x="456.9" y="68.8" fill="#abd9e9" class="flag">[2]</text><text x="478.9" y="68.8" fill="#000" class="taxonLabel">Mummpikia nuda</text><text x="456.9" y="78.5" fill="#abd9e9" class="flag">[2]</text><text x="478.9" y="78.5" fill="#000" class="taxonLabel">Botsfordia</text><text x="431.8" y="88.3" fill="#abd9e9" class="flag">[2]</text><text x="453.8" y="88.3" fill="#000" class="taxonLabel">Eoobolus</text><text x="456.9" y="49.2" fill="#abd9e9" class="flag">[2]</text><text x="478.9" y="49.2" fill="#000" class="taxonLabel">Lingulellotreta malongensis</text><text x="456.9" y="59" fill="#2c7bb6" class="flag">[3]</text><text x="478.9" y="59" fill="#000" class="taxonLabel">Lingula</text><text x="482" y="29.6" fill="#abd9e9" class="flag">[2]</text><text x="504" y="29.6" fill="#000" class="taxonLabel">Siphonobolus priscus</text><text x="482" y="39.4" fill="#abd9e9" class="flag">[2]</text><text x="504" y="39.4" fill="#000" class="taxonLabel">Acanthotretella spinosa</text><text x="482" y="10" fill="#abd9e9" class="flag">[2]</text><text x="504" y="10" fill="#000" class="taxonLabel">Lingulosacculus</text><text x="482" y="19.8" fill="grey" class="flag">[13]</text><text x="504" y="19.8" fill="#999" class="taxonLabel">Clupeafumosus socialis</text><text x="331.4" y="176.5" fill="#abd9e9" class="flag">[2]</text><text x="353.4" y="176.5" fill="#000" class="taxonLabel">Askepasma toddense</text><text x="256.1" y="303.8" fill="#abd9e9" class="flag">[2]</text><text x="278.1" y="303.8" fill="#000" class="taxonLabel">Micrina</text><text x="205.8" y="362.5" fill="#fdae61" class="flag">[1]</text><text x="227.8" y="362.5" fill="#000" class="taxonLabel">Paterimitra</text><text x="180.7" y="372.3" fill="lightgrey" class="flag">[-]</text><text x="202.7" y="372.3" fill="#ccc" class="taxonLabel">Phoronis</text><text x="105.4" y="440.8" fill="lightgrey" class="flag">[-]</text><text x="127.4" y="440.8" fill="#ccc" class="taxonLabel">Cotyledion tylodes</text><text x="30.1" y="715" fill="lightgrey" class="flag">[-]</text><text x="52.1" y="715" fill="#ccc" class="taxonLabel">Yilingia spiciformis</text><path d="M5,662V612.1H30.1M30.1,612.1V530.5H55.2M55.2,530.5V416.8H80.3M80.3,416.8V395.7H105.4M105.4,395.7V370.8H130.5M130.5,370.8V350.3H155.6M155.6,350.3V369.3H180.7M130.5,370.8V391.3H155.6M155.6,391.3V384H180.7M180.7,384V379.1H205.8M180.7,384V388.9H205.8M155.6,391.3V398.7H180.7M105.4,395.7V420.7H130.5M130.5,420.7V413.4H155.6M155.6,413.4V408.5H180.7M155.6,413.4V418.2H180.7M130.5,420.7V428H155.6M80.3,416.8V437.8H105.4M356.5,468.4V477H381.6M281.2,507.1V521.1H306.3M306.3,521.1V516.2H331.4M306.3,521.1V526H331.4M180.7,581.8V604.3H205.8M180.7,619V614.1H205.8M30.1,612.1V693.6H55.2M55.2,693.6V685.1H80.3M80.3,685.1V677.7H105.4M105.4,677.7V672.8H130.5M105.4,677.7V682.6H130.5M80.3,685.1V692.4H105.4M55.2,693.6V702.2H80.3M5,662V712H30.1" stroke="lightgrey" class="inapplicable"></path><path d="M155.6,350.3V331.2H180.7M180.7,331.2V303H205.8M356.5,78.6V100H381.6M381.6,100V95.1H406.7M381.6,100V104.9H406.7M431.8,126.9V119.6H456.9M456.9,119.6V114.7H482M456.9,119.6V124.5H482M406.7,135.5V144.1H431.8M205.8,303V340.5H230.9M230.9,340.5V331.3H256.1M256.1,331.3V322.8H281.2M281.2,322.8V315.4H306.3M306.3,315.4V310.5H331.4M306.3,315.4V320.3H331.4M281.2,322.8V330.1H306.3M256.1,331.3V339.9H281.2M230.9,340.5V349.7H256.1M180.7,331.2V359.5H205.8M381.6,459.9V452.5H406.7M406.7,452.5V447.6H431.8M406.7,452.5V457.4H431.8M356.5,491.7V496.6H381.6M256.1,521.4V535.8H281.2M230.9,533.5V545.5H256.1M281.2,567.6V574.9H306.3M130.5,617V633.7H155.6M105.4,658.1V653.2H130.5" stroke="#fdae61"></path><path d="M205.8,303V265.4H230.9M230.9,265.4V230H256.1M256.1,230V185H281.2M281.2,185V144.9H306.3M306.3,144.9V116.4H331.4M331.4,116.4V78.6H356.5M356.5,78.6V57.2H381.6M381.6,57.2V36.4H406.7M406.7,36.4V21.7H431.8M431.8,21.7V11.9H456.9M456.9,11.9V7H482M456.9,11.9V16.8H482M431.8,21.7V31.5H456.9M456.9,31.5V26.6H482M456.9,31.5V36.4H482M406.7,36.4V51.1H431.8M431.8,51.1V46.2H456.9M381.6,57.2V78H406.7M406.7,78V70.6H431.8M431.8,70.6V65.8H456.9M431.8,70.6V75.5H456.9M406.7,78V85.3H431.8M331.4,116.4V154.2H356.5M356.5,154.2V144.7H381.6M381.6,144.7V135.5H406.7M431.8,126.9V134.3H456.9M381.6,144.7V153.9H406.7M356.5,154.2V163.7H381.6M306.3,144.9V173.5H331.4M281.2,185V225.2H306.3M306.3,225.2V213.2H331.4M331.4,213.2V204.1H356.5M356.5,204.1V195.5H381.6M381.6,195.5V188.1H406.7M406.7,188.1V183.2H431.8M406.7,188.1V193H431.8M381.6,195.5V202.8H406.7M356.5,204.1V212.6H381.6M331.4,213.2V222.4H356.5M306.3,225.2V237.1H331.4M331.4,237.1V232.2H356.5M331.4,237.1V242H356.5M256.1,230V275H281.2M281.2,275V264H306.3M306.3,264V256.7H331.4M331.4,256.7V251.8H356.5M331.4,256.7V261.6H356.5M306.3,264V271.4H331.4M281.2,275V286.1H306.3M306.3,286.1V291H331.4M230.9,265.4V300.8H256.1M55.2,530.5V644.2H80.3M80.3,644.2V630.2H105.4M105.4,630.2V617H130.5M130.5,617V600.4H155.6M155.6,600.4V581.8H180.7M180.7,581.8V559.4H205.8M205.8,559.4V533.5H230.9M381.6,459.9V467.2H406.7M356.5,491.7V486.8H381.6M306.3,493.2V506.4H331.4M205.8,559.4V585.3H230.9M230.9,585.3V576.1H256.1M256.1,576.1V567.6H281.2M281.2,567.6V560.2H306.3M306.3,560.2V565.1H331.4M256.1,576.1V584.7H281.2M230.9,585.3V594.5H256.1M155.6,600.4V619H180.7M180.7,619V623.9H205.8M105.4,630.2V643.5H130.5M80.3,644.2V658.1H105.4M105.4,658.1V663H130.5" stroke="#abd9e9"></path><path d="M431.8,51.1V56H456.9M306.3,286.1V281.2H331.4M306.3,560.2V555.3H331.4" stroke="#2c7bb6"></path><path d="M406.7,135.5V126.9H431.8M230.9,533.5V521.4H256.1M256.1,521.4V507.1H281.2M281.2,507.1V493.2H306.3M306.3,493.2V480.1H331.4M331.4,480.1V468.4H356.5M356.5,468.4V459.9H381.6M331.4,480.1V491.7H356.5" stroke="darkgrey"></path><text x="32.1" y="615.1" class="node" fill="#E5CDD1">0.43</text><text x="57.2" y="533.5" class="node" fill="#E392A2">0.24</text><text x="82.3" y="419.8" class="node" fill="#D95A7A">0.07</text><text x="107.4" y="398.7" class="node" fill="#DF798F">0.16</text><text x="132.5" y="373.8" class="node" fill="#E17F94">0.18</text><text x="157.6" y="353.3" class="node" fill="#8F9DE1">0.8</text><text x="182.7" y="334.2" class="node" fill="#8F9DE1">0.8</text><text x="207.8" y="306" class="node" fill="#4A6FE3">1</text><text x="232.9" y="268.4" class="node" fill="#A8B1E2">0.71</text><text x="258.1" y="233" class="node" fill="#E392A2">0.24</text><text x="283.2" y="188" class="node" fill="#E392A2">0.24</text><text x="308.3" y="147.9" class="node" fill="#E392A2">0.24</text><text x="333.4" y="119.4" class="node" fill="#E392A2">0.24</text><text x="358.5" y="81.6" class="node" fill="#E392A2">0.24</text><text x="383.6" y="60.2" class="node" fill="#E392A2">0.24</text><text x="408.7" y="39.4" class="node" fill="#4A6FE3">1</text><text x="433.8" y="24.7" class="node" fill="#E6ABB6">0.32</text><text x="458.9" y="14.9" class="node" fill="#4A6FE3">1</text><text x="458.9" y="34.5" class="node" fill="#E392A2">0.24</text><text x="433.8" y="54.1" class="node" fill="#E392A2">0.24</text><text x="408.7" y="81" class="node" fill="#E392A2">0.24</text><text x="433.8" y="73.6" class="node" fill="#E392A2">0.24</text><text x="383.6" y="103" class="node" fill="#E392A2">0.24</text><text x="358.5" y="157.2" class="node" fill="#E392A2">0.24</text><text x="383.6" y="147.7" class="node" fill="#E392A2">0.24</text><text x="408.7" y="138.5" class="node" fill="#4A6FE3">1</text><text x="433.8" y="129.9" class="node" fill="#4A6FE3">1</text><text x="458.9" y="122.6" class="node" fill="#ABB4E2">0.7</text><text x="308.3" y="228.2" class="node" fill="#4F72E2">0.99</text><text x="333.4" y="216.2" class="node" fill="#4F72E2">0.99</text><text x="358.5" y="207.1" class="node" fill="#4A6FE3">1</text><text x="383.6" y="198.5" class="node" fill="#4A6FE3">1</text><text x="408.7" y="191.1" class="node" fill="#BCC2E3">0.64</text><text x="333.4" y="240.1" class="node" fill="#C4C9E3">0.61</text><text x="283.2" y="278" class="node" fill="#ABB4E2">0.7</text><text x="308.3" y="267" class="node" fill="#A8B1E2">0.71</text><text x="333.4" y="259.7" class="node" fill="#4A6FE3">1</text><text x="308.3" y="289.1" class="node" fill="#4A6FE3">1</text><text x="232.9" y="343.5" class="node" fill="#DADBE3">0.53</text><text x="258.1" y="334.3" class="node" fill="#E392A2">0.24</text><text x="283.2" y="325.8" class="node" fill="#4A6FE3">1</text><text x="308.3" y="318.4" class="node" fill="#D95A7A">0.07</text><text x="157.6" y="394.3" class="node" fill="#4A6FE3">1</text><text x="182.7" y="387" class="node" fill="#DB617F">0.09</text><text x="132.5" y="423.7" class="node" fill="#E392A2">0.24</text><text x="157.6" y="416.4" class="node" fill="#E392A2">0.24</text><text x="82.3" y="647.2" class="node" fill="#4A6FE3">1</text><text x="107.4" y="633.2" class="node" fill="#E392A2">0.24</text><text x="132.5" y="620" class="node" fill="#E392A2">0.24</text><text x="157.6" y="603.4" class="node" fill="#E392A2">0.24</text><text x="182.7" y="584.8" class="node" fill="#E392A2">0.24</text><text x="207.8" y="562.4" class="node" fill="#E392A2">0.24</text><text x="232.9" y="536.5" class="node" fill="#E392A2">0.24</text><text x="258.1" y="524.4" class="node" fill="#E59FAC">0.28</text><text x="283.2" y="510.1" class="node" fill="#6D84E1">0.91</text><text x="308.3" y="496.2" class="node" fill="#4A6FE3">1</text><text x="333.4" y="483.1" class="node" fill="#E392A2">0.24</text><text x="358.5" y="471.4" class="node" fill="#E0E0E2">0.51</text><text x="383.6" y="462.9" class="node" fill="#DD6F88">0.13</text><text x="408.7" y="455.5" class="node" fill="#E392A2">0.24</text><text x="358.5" y="494.7" class="node" fill="#4A6FE3">1</text><text x="308.3" y="524.1" class="node" fill="#8F9DE1">0.8</text><text x="232.9" y="588.3" class="node" fill="#8F9DE1">0.8</text><text x="258.1" y="579.1" class="node" fill="#8F9DE1">0.8</text><text x="283.2" y="570.6" class="node" fill="#4A6FE3">1</text><text x="308.3" y="563.2" class="node" fill="#E0E0E2">0.51</text><text x="182.7" y="622" class="node" fill="#E392A2">0.24</text><text x="107.4" y="661.1" class="node" fill="#4A6FE3">1</text><text x="57.2" y="696.6" class="node" fill="#A8B1E2">0.71</text><text x="82.3" y="688.1" class="node" fill="#CACDE3">0.59</text><text x="107.4" y="680.7" class="node" fill="#E5CDD1">0.43</text></svg>
