<svg xmlns="http://www.w3.org/2000/svg" version="1.1" viewBox="0 0 682 720" preserveAspectRatio="xMidYMid meet" class="tree" data-char="331"><text x="678" y="16.8" text-anchor="end" class="stepsLabel">Character adds <tspan class="score">1</tspan> to tree score</text><text x="678" y="30.6" text-anchor="end" class="stepsLabel"><tspan class="score">0</tspan> additional regions</text><text x="678" y="44.4" text-anchor="end" class="stepsLabel"></text><text x="678" y="72" text-anchor="end" class="stepsLabel"><tspan dy="16" fill="#34caaf">An optimal tree under:</tspan><tspan x="680" style="font-style:italic" class="notThisAn" dy="1.2em">Implied weights, k = 3</tspan><tspan x="680" style="font-style:italic" class="notThisAn" dy="1.2em">IW, k = 4.5</tspan><tspan x="680" style="font-style:italic" class="notThisAn" dy="1.2em">IW, k = 7</tspan><tspan x="680" style="font-style:italic" class="notThisAn" dy="1.2em">IW, k = 10.5</tspan><tspan x="680" style="font-style:italic" class="notThisAn" dy="1.2em">IW, k = 16</tspan><tspan x="680" style="font-style:italic" class="notThisAn" dy="1.2em">IW, k = 24</tspan><tspan x="680" style="font-style:italic" class="thisAn" dy="1.2em">Equal weights</tspan></text><text x="172" y="630.4" fill="grey" class="flag">[?]</text><text x="194" y="630.4" fill="#999" class="taxonLabel">Flustra</text><text x="172" y="644.5" fill="grey" class="flag">[?]</text><text x="194" y="644.5" fill="#999" class="taxonLabel">Amathia</text><text x="148.1" y="658.6" fill="grey" class="flag">[?]</text><text x="170.1" y="658.6" fill="#999" class="taxonLabel">Loxosomella</text><text x="124.2" y="672.7" fill="grey" class="flag">[?]</text><text x="146.2" y="672.7" fill="#999" class="taxonLabel">Namacalathus</text><text x="100.4" y="686.8" fill="#fc8d59" class="flag">[0]</text><text x="122.4" y="686.8" fill="#000" class="taxonLabel">Phoronis</text><text x="195.8" y="559.9" fill="grey" class="flag">[?]</text><text x="217.8" y="559.9" fill="#999" class="taxonLabel">Pedunculotheca diania</text><text x="195.8" y="574" fill="grey" class="flag">[?]</text><text x="217.8" y="574" fill="#999" class="taxonLabel">Haplophrentis carinatus</text><text x="291.2" y="503.5" fill="grey" class="flag">[?]</text><text x="313.2" y="503.5" fill="#999" class="taxonLabel">Mickwitzia muralensis</text><text x="291.2" y="517.6" fill="grey" class="flag">[?]</text><text x="313.2" y="517.6" fill="#999" class="taxonLabel">Heliomedusa orienta</text><text x="315.1" y="475.3" fill="grey" class="flag">[?]</text><text x="337.1" y="475.3" fill="#999" class="taxonLabel">Micromitra</text><text x="315.1" y="489.4" fill="grey" class="flag">[?]</text><text x="337.1" y="489.4" fill="#999" class="taxonLabel">Gasconsia</text><text x="338.9" y="447.1" fill="grey" class="flag">[?]</text><text x="360.9" y="447.1" fill="#999" class="taxonLabel">Terebratulina</text><text x="338.9" y="461.2" fill="grey" class="flag">[?]</text><text x="360.9" y="461.2" fill="#999" class="taxonLabel">Orthis</text><text x="410.5" y="376.6" fill="grey" class="flag">[?]</text><text x="432.5" y="376.6" fill="#999" class="taxonLabel">Yuganotheca elegans</text><text x="410.5" y="390.7" fill="grey" class="flag">[?]</text><text x="432.5" y="390.7" fill="#999" class="taxonLabel">Lingulellotreta malongensis</text><text x="386.6" y="404.8" fill="grey" class="flag">[?]</text><text x="408.6" y="404.8" fill="#999" class="taxonLabel">Lingula</text><text x="362.8" y="418.9" fill="grey" class="flag">[?]</text><text x="384.8" y="418.9" fill="#999" class="taxonLabel">Pelagodiscus atlanticus</text><text x="338.9" y="433" fill="grey" class="flag">[?]</text><text x="360.9" y="433" fill="#999" class="taxonLabel">Novocrania</text><text x="243.5" y="531.7" fill="grey" class="flag">[?]</text><text x="265.5" y="531.7" fill="#999" class="taxonLabel">Micrina</text><text x="219.7" y="545.8" fill="grey" class="flag">[?]</text><text x="241.7" y="545.8" fill="#999" class="taxonLabel">Paterimitra</text><text x="315.1" y="306.1" fill="grey" class="flag">[?]</text><text x="337.1" y="306.1" fill="#999" class="taxonLabel">Serpula</text><text x="315.1" y="320.2" fill="#fc8d59" class="flag">[0]</text><text x="337.1" y="320.2" fill="#000" class="taxonLabel">Capitella</text><text x="291.2" y="334.3" fill="grey" class="flag">[?]</text><text x="313.2" y="334.3" fill="#999" class="taxonLabel">Canadia spinosa</text><text x="267.4" y="348.4" fill="#fc8d59" class="flag">[0]</text><text x="289.4" y="348.4" fill="#000" class="taxonLabel">Sipunculus</text><text x="362.8" y="249.7" fill="grey" class="flag">[?]</text><text x="384.8" y="249.7" fill="#999" class="taxonLabel">Wiwaxia corrugata</text><text x="362.8" y="263.8" fill="grey" class="flag">[?]</text><text x="384.8" y="263.8" fill="#999" class="taxonLabel">Odontogriphus omalus</text><text x="434.3" y="193.3" fill="grey" class="flag">[?]</text><text x="456.3" y="193.3" fill="#999" class="taxonLabel">Neopilina</text><text x="434.3" y="207.4" fill="grey" class="flag">[?]</text><text x="456.3" y="207.4" fill="#999" class="taxonLabel">Conocardium elongatum</text><text x="410.5" y="221.5" fill="#91bfdb" class="flag">[1]</text><text x="432.5" y="221.5" fill="#000" class="taxonLabel">Haliotis</text><text x="434.3" y="151" fill="grey" class="flag">[?]</text><text x="456.3" y="151" fill="#999" class="taxonLabel">Pojetaia runnegari</text><text x="434.3" y="165.1" fill="grey" class="flag">[?]</text><text x="456.3" y="165.1" fill="#999" class="taxonLabel">Mytilus</text><text x="410.5" y="179.2" fill="grey" class="flag">[?]</text><text x="432.5" y="179.2" fill="#999" class="taxonLabel">Dentalium</text><text x="362.8" y="235.6" fill="grey" class="flag">[?]</text><text x="384.8" y="235.6" fill="#999" class="taxonLabel">Pelagiella</text><text x="386.6" y="108.7" fill="grey" class="flag">[?]</text><text x="408.6" y="108.7" fill="#999" class="taxonLabel">Wirenia</text><text x="386.6" y="122.8" fill="#91bfdb" class="flag">[1]</text><text x="408.6" y="122.8" fill="#000" class="taxonLabel">Chaetoderma</text><text x="362.8" y="136.9" fill="grey" class="flag">[?]</text><text x="384.8" y="136.9" fill="#999" class="taxonLabel">Siphogonuchites multa</text><text x="482" y="10" fill="grey" class="flag">[?]</text><text x="504" y="10" fill="#999" class="taxonLabel">Tonicella</text><text x="482" y="24.1" fill="grey" class="flag">[?]</text><text x="504" y="24.1" fill="#999" class="taxonLabel">Mopalia</text><text x="458.2" y="38.2" fill="grey" class="flag">[?]</text><text x="480.2" y="38.2" fill="#999" class="taxonLabel">Polysacos vickersianum</text><text x="434.3" y="52.3" fill="grey" class="flag">[?]</text><text x="456.3" y="52.3" fill="#999" class="taxonLabel">Leptochiton</text><text x="410.5" y="66.4" fill="grey" class="flag">[?]</text><text x="432.5" y="66.4" fill="#999" class="taxonLabel">Glaphurochiton carbonarius</text><text x="386.6" y="80.5" fill="grey" class="flag">[?]</text><text x="408.6" y="80.5" fill="#999" class="taxonLabel">Calvapilosa kroegeri</text><text x="362.8" y="94.6" fill="grey" class="flag">[?]</text><text x="384.8" y="94.6" fill="#999" class="taxonLabel">Phthipodochiton thraivensis</text><text x="291.2" y="277.9" fill="grey" class="flag">[?]</text><text x="313.2" y="277.9" fill="#999" class="taxonLabel">Acaenoplax hayae</text><text x="267.4" y="292" fill="grey" class="flag">[?]</text><text x="289.4" y="292" fill="#999" class="taxonLabel">Kulindroplax perissokomos</text><text x="219.7" y="362.5" fill="grey" class="flag">[?]</text><text x="241.7" y="362.5" fill="#999" class="taxonLabel">Halkieria evangelista</text><text x="148.1" y="588.1" fill="grey" class="flag">[?]</text><text x="170.1" y="588.1" fill="#999" class="taxonLabel">Orthrozanclus</text><text x="124.2" y="602.2" fill="grey" class="flag">[?]</text><text x="146.2" y="602.2" fill="#999" class="taxonLabel">Eccentrotheca</text><text x="100.4" y="616.3" fill="grey" class="flag">[?]</text><text x="122.4" y="616.3" fill="#999" class="taxonLabel">Cotyledion tylodes</text><text x="52.7" y="700.9" fill="grey" class="flag">[?]</text><text x="74.7" y="700.9" fill="#999" class="taxonLabel">Dailyatia</text><text x="28.9" y="715" fill="grey" class="flag">[?]</text><text x="50.9" y="715" fill="#999" class="taxonLabel">Yilingia spiciformis</text><path d="M5,688.2V664.5H28.9M28.9,664.5V631H52.7M52.7,631V591.4H76.6M76.6,591.4V569.5H100.4M100.4,569.5V539.9H124.2M124.2,539.9V494.7H148.1M148.1,494.7V425.4H172M172,425.4V326.7H195.8M195.8,326.7V293.9H219.7M219.7,293.9V254.8H243.5M219.7,293.9V333.1H243.5M243.5,333.1V320.7H267.4M267.4,320.7V310.1H291.2M291.2,310.1V303.1H315.1M291.2,310.1V317.2H315.1M267.4,320.7V331.3H291.2M243.5,333.1V345.4H267.4M195.8,326.7V359.5H219.7M172,425.4V524.1H195.8M195.8,524.1V505.4H219.7M219.7,505.4V482.1H243.5M243.5,482.1V456.7H267.4M267.4,456.7V434H291.2M291.2,434V416.8H315.1M315.1,416.8V403.6H338.9M338.9,403.6V391.2H362.8M362.8,391.2V380.6H386.6M386.6,380.6V373.6H410.5M386.6,380.6V387.7H410.5M362.8,391.2V401.8H386.6M338.9,403.6V415.9H362.8M315.1,416.8V430H338.9M291.2,434V451.1H315.1M315.1,451.1V444.1H338.9M315.1,451.1V458.2H338.9M267.4,456.7V479.4H291.2M291.2,479.4V472.3H315.1M291.2,479.4V486.4H315.1M243.5,482.1V507.5H267.4M267.4,507.5V500.5H291.2M267.4,507.5V514.6H291.2M219.7,505.4V528.7H243.5M195.8,524.1V542.8H219.7M148.1,494.7V564H172M172,564V556.9H195.8M172,564V571H195.8M124.2,539.9V585.1H148.1M100.4,569.5V599.2H124.2M76.6,591.4V613.3H100.4M52.7,631V670.6H76.6M76.6,670.6V657.4H100.4M100.4,657.4V645H124.2M124.2,645V634.5H148.1M148.1,634.5V627.4H172M148.1,634.5V641.5H172M124.2,645V655.6H148.1M100.4,657.4V669.7H124.2M76.6,670.6V683.8H100.4M28.9,664.5V697.9H52.7M5,688.2V712H28.9" stroke="#fc8d59"></path><path d="M243.5,254.8V220.5H267.4M267.4,220.5V274.9H291.2M243.5,254.8V289H267.4" stroke="darkgrey"></path><path d="M267.4,220.5V166.1H291.2M291.2,166.1V100.5H315.1M315.1,100.5V77.7H338.9M338.9,77.7V63.8H362.8M362.8,63.8V50.2H386.6M386.6,50.2V37H410.5M410.5,37V24.6H434.3M434.3,24.6V14.1H458.2M458.2,14.1V7H482M458.2,14.1V21.1H482M434.3,24.6V35.2H458.2M410.5,37V49.3H434.3M386.6,50.2V63.4H410.5M362.8,63.8V77.5H386.6M338.9,77.7V91.6H362.8M315.1,100.5V123.3H338.9M338.9,123.3V112.8H362.8M362.8,112.8V105.7H386.6M362.8,112.8V119.8H386.6M338.9,123.3V133.9H362.8M291.2,166.1V231.7H315.1M315.1,231.7V209.7H338.9M338.9,209.7V186.8H362.8M362.8,186.8V165.6H386.6M386.6,165.6V155.1H410.5M410.5,155.1V148H434.3M410.5,155.1V162.1H434.3M386.6,165.6V176.2H410.5M362.8,186.8V207.9H386.6M386.6,207.9V197.3H410.5M410.5,197.3V190.3H434.3M410.5,197.3V204.4H434.3M386.6,207.9V218.5H410.5M338.9,209.7V232.6H362.8M315.1,231.7V253.7H338.9M338.9,253.7V246.7H362.8M338.9,253.7V260.8H362.8" stroke="#91bfdb"></path><text x="30.9" y="667.5" class="node" fill="#C1C6E3">0.62</text><text x="54.7" y="634" class="node" fill="#E17F94">0.18</text><text x="78.6" y="594.4" class="node" fill="#E38FA0">0.23</text><text x="102.4" y="572.5" class="node" fill="#BCC2E3">0.64</text><text x="126.2" y="542.9" class="node" fill="#E5C7CC">0.41</text><text x="150.1" y="497.7" class="node" fill="#DB6581">0.1</text><text x="174" y="428.4" class="node" fill="#DB6581">0.1</text><text x="197.8" y="329.7" class="node" fill="#97A4E2">0.77</text><text x="221.7" y="296.9" class="node" fill="#4A6FE3">1</text><text x="245.5" y="257.8" class="node" fill="#B4BBE3">0.67</text><text x="269.4" y="223.5" class="node" fill="#B4BBE3">0.67</text><text x="293.2" y="169.1" class="node" fill="#DB6581">0.1</text><text x="317.1" y="103.5" class="node" fill="#BCC2E3">0.64</text><text x="340.9" y="80.7" class="node" fill="#5776E2">0.97</text><text x="364.8" y="66.8" class="node" fill="#4A6FE3">1</text><text x="388.6" y="53.2" class="node" fill="#4A6FE3">1</text><text x="412.5" y="40" class="node" fill="#4A6FE3">1</text><text x="436.3" y="27.6" class="node" fill="#4A6FE3">1</text><text x="460.2" y="17.1" class="node" fill="#D75376">0.05</text><text x="340.9" y="126.3" class="node" fill="#BCC2E3">0.64</text><text x="364.8" y="115.8" class="node" fill="#97A4E2">0.77</text><text x="317.1" y="234.7" class="node" fill="#929FE1">0.79</text><text x="340.9" y="212.7" class="node" fill="#7A8DE1">0.87</text><text x="364.8" y="189.8" class="node" fill="#4A6FE3">1</text><text x="388.6" y="168.6" class="node" fill="#5776E2">0.97</text><text x="412.5" y="158.1" class="node" fill="#8091E1">0.85</text><text x="388.6" y="210.9" class="node" fill="#5776E2">0.97</text><text x="412.5" y="200.3" class="node" fill="#4A6FE3">1</text><text x="340.9" y="256.7" class="node" fill="#4A6FE3">1</text><text x="245.5" y="336.1" class="node" fill="#4A6FE3">1</text><text x="269.4" y="323.7" class="node" fill="#4A6FE3">1</text><text x="293.2" y="313.1" class="node" fill="#5776E2">0.97</text><text x="197.8" y="527.1" class="node" fill="#5776E2">0.97</text><text x="221.7" y="508.4" class="node" fill="#5776E2">0.97</text><text x="245.5" y="485.1" class="node" fill="#5776E2">0.97</text><text x="269.4" y="459.7" class="node" fill="#5776E2">0.97</text><text x="293.2" y="437" class="node" fill="#5776E2">0.97</text><text x="317.1" y="419.8" class="node" fill="#5776E2">0.97</text><text x="340.9" y="406.6" class="node" fill="#4A6FE3">1</text><text x="364.8" y="394.2" class="node" fill="#E0E0E2">0.51</text><text x="388.6" y="383.6" class="node" fill="#4A6FE3">1</text><text x="317.1" y="454.1" class="node" fill="#4A6FE3">1</text><text x="293.2" y="482.4" class="node" fill="#5776E2">0.97</text><text x="269.4" y="510.5" class="node" fill="#4A6FE3">1</text><text x="174" y="567" class="node" fill="#BCC2E3">0.64</text><text x="78.6" y="673.6" class="node" fill="#D54C71">0.03</text><text x="102.4" y="660.4" class="node" fill="#BCC2E3">0.64</text><text x="126.2" y="648" class="node" fill="#4A6FE3">1</text><text x="150.1" y="637.5" class="node" fill="#C1C6E3">0.62</text></svg>
