<svg xmlns="http://www.w3.org/2000/svg" version="1.1" viewBox="0 0 682 720" preserveAspectRatio="xMidYMid meet" class="tree" data-char="3"><text x="678" y="16.8" text-anchor="end" class="stepsLabel">Character adds <tspan class="score">2</tspan> to tree score (<tspan class="score fitch">1</tspan> with Fitch)</text><text x="678" y="30.6" text-anchor="end" class="stepsLabel"><tspan class="score">1</tspan> additional region (not counted by Fitch)</text><text x="678" y="44.4" text-anchor="end" class="stepsLabel"></text><text x="678" y="72" text-anchor="end" class="stepsLabel"><tspan dy="16" fill="#34caaf">An optimal tree under:</tspan><tspan x="680" style="font-style:italic" class="notThisAn" dy="1.2em">Implied weights, k = 3</tspan><tspan x="680" style="font-style:italic" class="notThisAn" dy="1.2em">IW, k = 4.5</tspan><tspan x="680" style="font-style:italic" class="notThisAn" dy="1.2em">IW, k = 7</tspan><tspan x="680" style="font-style:italic" class="notThisAn" dy="1.2em">IW, k = 10.5</tspan><tspan x="680" style="font-style:italic" class="notThisAn" dy="1.2em">IW, k = 16</tspan><tspan x="680" style="font-style:italic" class="thisAn" dy="1.2em">IW, k = 24</tspan><tspan x="680" style="font-style:italic" class="notThisAn" dy="1.2em">Equal weights</tspan></text><text x="164" y="644.5" fill="grey" class="flag">[?]</text><text x="186" y="644.5" fill="#999" class="taxonLabel">Orthrozanclus</text><text x="164" y="658.6" fill="grey" class="flag">[?]</text><text x="186" y="658.6" fill="#999" class="taxonLabel">Halkieria evangelista</text><text x="186.7" y="616.3" fill="grey" class="flag">[12]</text><text x="208.7" y="616.3" fill="#999" class="taxonLabel">Pedunculotheca diania</text><text x="186.7" y="630.4" fill="#91bfdb" class="flag">[2]</text><text x="208.7" y="630.4" fill="#000" class="taxonLabel">Haplophrentis carinatus</text><text x="254.9" y="559.9" fill="#91bfdb" class="flag">[2]</text><text x="276.9" y="559.9" fill="#000" class="taxonLabel">Mickwitzia muralensis</text><text x="254.9" y="574" fill="grey" class="flag">[?]</text><text x="276.9" y="574" fill="#999" class="taxonLabel">Heliomedusa orienta</text><text x="277.6" y="531.7" fill="#91bfdb" class="flag">[2]</text><text x="299.6" y="531.7" fill="#000" class="taxonLabel">Micromitra</text><text x="277.6" y="545.8" fill="grey" class="flag">[?]</text><text x="299.6" y="545.8" fill="#999" class="taxonLabel">Gasconsia</text><text x="300.3" y="503.5" fill="lightgrey" class="flag">[-]</text><text x="322.3" y="503.5" fill="#ccc" class="taxonLabel">Terebratulina</text><text x="300.3" y="517.6" fill="lightgrey" class="flag">[-]</text><text x="322.3" y="517.6" fill="#ccc" class="taxonLabel">Orthis</text><text x="368.4" y="433" fill="grey" class="flag">[?]</text><text x="390.4" y="433" fill="#999" class="taxonLabel">Yuganotheca elegans</text><text x="368.4" y="447.1" fill="#e2e2a2" class="flag">[1]</text><text x="390.4" y="447.1" fill="#000" class="taxonLabel">Lingula</text><text x="345.7" y="461.2" fill="#e2e2a2" class="flag">[1]</text><text x="367.7" y="461.2" fill="#000" class="taxonLabel">Lingulellotreta malongensis</text><text x="323" y="475.3" fill="#91bfdb" class="flag">[2]</text><text x="345" y="475.3" fill="#000" class="taxonLabel">Pelagodiscus atlanticus</text><text x="300.3" y="489.4" fill="lightgrey" class="flag">[-]</text><text x="322.3" y="489.4" fill="#ccc" class="taxonLabel">Novocrania</text><text x="209.4" y="588.1" fill="#91bfdb" class="flag">[2]</text><text x="231.4" y="588.1" fill="#000" class="taxonLabel">Micrina</text><text x="186.7" y="602.2" fill="#91bfdb" class="flag">[2]</text><text x="208.7" y="602.2" fill="#000" class="taxonLabel">Paterimitra</text><text x="118.6" y="672.7" fill="grey" class="flag">[?]</text><text x="140.6" y="672.7" fill="#999" class="taxonLabel">Eccentrotheca</text><text x="95.9" y="686.8" fill="grey" class="flag">[?]</text><text x="117.9" y="686.8" fill="#999" class="taxonLabel">Cotyledion tylodes</text><text x="164" y="376.6" fill="lightgrey" class="flag">[-]</text><text x="186" y="376.6" fill="#ccc" class="taxonLabel">Flustra</text><text x="164" y="390.7" fill="lightgrey" class="flag">[-]</text><text x="186" y="390.7" fill="#ccc" class="taxonLabel">Amathia</text><text x="254.9" y="306.1" fill="lightgrey" class="flag">[-]</text><text x="276.9" y="306.1" fill="#ccc" class="taxonLabel">Serpula</text><text x="254.9" y="320.2" fill="lightgrey" class="flag">[-]</text><text x="276.9" y="320.2" fill="#ccc" class="taxonLabel">Capitella</text><text x="232.1" y="334.3" fill="lightgrey" class="flag">[-]</text><text x="254.1" y="334.3" fill="#ccc" class="taxonLabel">Canadia spinosa</text><text x="209.4" y="348.4" fill="lightgrey" class="flag">[-]</text><text x="231.4" y="348.4" fill="#ccc" class="taxonLabel">Sipunculus</text><text x="436.6" y="151" fill="lightgrey" class="flag">[-]</text><text x="458.6" y="151" fill="#ccc" class="taxonLabel">Tonicella</text><text x="436.6" y="165.1" fill="lightgrey" class="flag">[-]</text><text x="458.6" y="165.1" fill="#ccc" class="taxonLabel">Mopalia</text><text x="413.9" y="179.2" fill="grey" class="flag">[?]</text><text x="435.9" y="179.2" fill="#999" class="taxonLabel">Polysacos vickersianum</text><text x="391.1" y="193.3" fill="lightgrey" class="flag">[-]</text><text x="413.1" y="193.3" fill="#ccc" class="taxonLabel">Leptochiton</text><text x="368.4" y="207.4" fill="grey" class="flag">[?]</text><text x="390.4" y="207.4" fill="#999" class="taxonLabel">Glaphurochiton carbonarius</text><text x="345.7" y="221.5" fill="grey" class="flag">[?]</text><text x="367.7" y="221.5" fill="#999" class="taxonLabel">Calvapilosa kroegeri</text><text x="391.1" y="108.7" fill="grey" class="flag">[?]</text><text x="413.1" y="108.7" fill="#999" class="taxonLabel">Wiwaxia corrugata</text><text x="391.1" y="122.8" fill="grey" class="flag">[?]</text><text x="413.1" y="122.8" fill="#999" class="taxonLabel">Odontogriphus omalus</text><text x="413.9" y="80.5" fill="#91bfdb" class="flag">[2]</text><text x="435.9" y="80.5" fill="#000" class="taxonLabel">Neopilina</text><text x="413.9" y="94.6" fill="#91bfdb" class="flag">[2]</text><text x="435.9" y="94.6" fill="#000" class="taxonLabel">Conocardium elongatum</text><text x="482" y="10" fill="#91bfdb" class="flag">[2]</text><text x="504" y="10" fill="#000" class="taxonLabel">Pojetaia runnegari</text><text x="482" y="24.1" fill="#91bfdb" class="flag">[2]</text><text x="504" y="24.1" fill="#000" class="taxonLabel">Mytilus</text><text x="459.3" y="38.2" fill="lightgrey" class="flag">[-]</text><text x="481.3" y="38.2" fill="#ccc" class="taxonLabel">Dentalium</text><text x="436.6" y="52.3" fill="#91bfdb" class="flag">[2]</text><text x="458.6" y="52.3" fill="#000" class="taxonLabel">Haliotis</text><text x="413.9" y="66.4" fill="#91bfdb" class="flag">[2]</text><text x="435.9" y="66.4" fill="#000" class="taxonLabel">Pelagiella</text><text x="345.7" y="136.9" fill="grey" class="flag">[?]</text><text x="367.7" y="136.9" fill="#999" class="taxonLabel">Siphogonuchites multa</text><text x="300.3" y="235.6" fill="grey" class="flag">[?]</text><text x="322.3" y="235.6" fill="#999" class="taxonLabel">Acaenoplax hayae</text><text x="277.6" y="249.7" fill="grey" class="flag">[?]</text><text x="299.6" y="249.7" fill="#999" class="taxonLabel">Phthipodochiton thraivensis</text><text x="254.9" y="263.8" fill="grey" class="flag">[?]</text><text x="276.9" y="263.8" fill="#999" class="taxonLabel">Kulindroplax perissokomos</text><text x="232.1" y="277.9" fill="lightgrey" class="flag">[-]</text><text x="254.1" y="277.9" fill="#ccc" class="taxonLabel">Chaetoderma</text><text x="209.4" y="292" fill="lightgrey" class="flag">[-]</text><text x="231.4" y="292" fill="#ccc" class="taxonLabel">Wirenia</text><text x="164" y="362.5" fill="lightgrey" class="flag">[-]</text><text x="186" y="362.5" fill="#ccc" class="taxonLabel">Loxosomella</text><text x="118.6" y="404.8" fill="lightgrey" class="flag">[-]</text><text x="140.6" y="404.8" fill="#ccc" class="taxonLabel">Phoronis</text><text x="95.9" y="418.9" fill="grey" class="flag">[?]</text><text x="117.9" y="418.9" fill="#999" class="taxonLabel">Namacalathus</text><text x="50.4" y="700.9" fill="lightgrey" class="flag">[-]</text><text x="72.4" y="700.9" fill="#ccc" class="taxonLabel">Dailyatia</text><text x="27.7" y="715" fill="grey" class="flag">[?]</text><text x="49.7" y="715" fill="#999" class="taxonLabel">Yilingia spiciformis</text><path d="M5,663.3V614.7H27.7M27.7,614.7V531.4H50.4M50.4,531.4V397.4H73.1M73.1,397.4V378.9H95.9M95.9,378.9V356H118.6M118.6,356V331.4H141.3M141.3,331.4V303.3H164M164,303.3V273.5H186.7M186.7,273.5V257.9H209.4M209.4,257.9V241H232.1M232.1,241V221.1H254.9M254.9,221.1V195.5H277.6M277.6,195.5V158.4H300.3M436.6,24.6V35.2H459.3M300.3,158.4V204.8H323M323,204.8V191.2H345.7M345.7,191.2V178H368.4M368.4,178V165.6H391.1M391.1,165.6V155.1H413.9M413.9,155.1V148H436.6M413.9,155.1V162.1H436.6M391.1,165.6V176.2H413.9M368.4,178V190.3H391.1M345.7,191.2V204.4H368.4M323,204.8V218.5H345.7M277.6,195.5V232.6H300.3M254.9,221.1V246.7H277.6M232.1,241V260.8H254.9M209.4,257.9V274.9H232.1M186.7,273.5V289H209.4M164,303.3V333.1H186.7M186.7,333.1V320.7H209.4M209.4,320.7V310.1H232.1M232.1,310.1V303.1H254.9M232.1,310.1V317.2H254.9M209.4,320.7V331.3H232.1M186.7,333.1V345.4H209.4M141.3,331.4V359.5H164M118.6,356V380.6H141.3M141.3,380.6V373.6H164M141.3,380.6V387.7H164M95.9,378.9V401.8H118.6M73.1,397.4V415.9H95.9M277.6,473.2V486.4H300.3M254.9,490.4V507.5H277.6M277.6,507.5V500.5H300.3M277.6,507.5V514.6H300.3M27.7,614.7V697.9H50.4M5,663.3V712H27.7" stroke="lightgrey" class="inapplicable"></path><path d="M300.3,158.4V112H323M323,112V90.1H345.7M345.7,90.1V67.4H368.4M368.4,67.4V50.2H391.1M391.1,50.2V37H413.9M413.9,37V24.6H436.6M436.6,24.6V14.1H459.3M459.3,14.1V7H482M459.3,14.1V21.1H482M413.9,37V49.3H436.6M391.1,50.2V63.4H413.9M368.4,67.4V84.5H391.1M391.1,84.5V77.5H413.9M391.1,84.5V91.6H413.9M345.7,90.1V112.8H368.4M368.4,112.8V105.7H391.1M368.4,112.8V119.8H391.1M323,112V133.9H345.7M50.4,531.4V665.4H73.1M73.1,665.4V647.1H95.9M95.9,647.1V624.5H118.6M118.6,624.5V600.4H141.3M141.3,600.4V580.5H164M164,580.5V561.8H186.7M186.7,561.8V538.5H209.4M209.4,538.5V513.1H232.1M232.1,513.1V490.4H254.9M254.9,490.4V473.2H277.6M277.6,473.2V460H300.3M300.3,460V472.3H323M232.1,513.1V535.8H254.9M254.9,535.8V528.7H277.6M254.9,535.8V542.8H277.6M209.4,538.5V564H232.1M232.1,564V556.9H254.9M232.1,564V571H254.9M186.7,561.8V585.1H209.4M164,580.5V599.2H186.7M141.3,600.4V620.3H164M164,620.3V613.3H186.7M164,620.3V627.4H186.7M118.6,624.5V648.5H141.3M141.3,648.5V641.5H164M141.3,648.5V655.6H164M95.9,647.1V669.7H118.6M73.1,665.4V683.8H95.9" stroke="#91bfdb"></path><path d="M300.3,460V447.6H323M323,447.6V437H345.7M345.7,437V430H368.4M345.7,437V444.1H368.4M323,447.6V458.2H345.7" stroke="#e2e2a2"></path><text x="29.7" y="617.7" class="node" fill="#C1C6E3">0.62</text><text x="52.4" y="534.4" class="node" fill="#DD6F88">0.13</text><text x="75.1" y="400.4" class="node" fill="#D75376">0.05</text><text x="97.9" y="381.9" class="node" fill="#DD6F88">0.13</text><text x="120.6" y="359" class="node" fill="#DD6F88">0.13</text><text x="143.3" y="334.4" class="node" fill="#97A4E2">0.77</text><text x="166" y="306.3" class="node" fill="#4A6FE3">1</text><text x="188.7" y="276.5" class="node" fill="#DD6F88">0.13</text><text x="211.4" y="260.9" class="node" fill="#DD6F88">0.13</text><text x="234.1" y="244" class="node" fill="#DD6F88">0.13</text><text x="256.9" y="224.1" class="node" fill="#DD6F88">0.13</text><text x="279.6" y="198.5" class="node" fill="#D75376">0.05</text><text x="302.3" y="161.4" class="node" fill="#D2D4E3">0.56</text><text x="325" y="115" class="node" fill="#97A4E2">0.77</text><text x="347.7" y="93.1" class="node" fill="#929FE1">0.79</text><text x="370.4" y="70.4" class="node" fill="#DD6F88">0.13</text><text x="393.1" y="53.2" class="node" fill="#DD6F88">0.13</text><text x="415.9" y="40" class="node" fill="#4A6FE3">1</text><text x="438.6" y="27.6" class="node" fill="#5776E2">0.97</text><text x="461.3" y="17.1" class="node" fill="#5776E2">0.97</text><text x="393.1" y="87.5" class="node" fill="#4A6FE3">1</text><text x="370.4" y="115.8" class="node" fill="#5776E2">0.97</text><text x="325" y="207.8" class="node" fill="#4A6FE3">1</text><text x="347.7" y="194.2" class="node" fill="#4A6FE3">1</text><text x="370.4" y="181" class="node" fill="#4A6FE3">1</text><text x="393.1" y="168.6" class="node" fill="#4A6FE3">1</text><text x="415.9" y="158.1" class="node" fill="#4A6FE3">1</text><text x="188.7" y="336.1" class="node" fill="#4A6FE3">1</text><text x="211.4" y="323.7" class="node" fill="#4A6FE3">1</text><text x="234.1" y="313.1" class="node" fill="#4A6FE3">1</text><text x="143.3" y="383.6" class="node" fill="#DD6F88">0.13</text><text x="75.1" y="668.4" class="node" fill="#DD6F88">0.13</text><text x="97.9" y="650.1" class="node" fill="#E6AEB8">0.33</text><text x="120.6" y="627.5" class="node" fill="#E6B7C0">0.36</text><text x="143.3" y="603.4" class="node" fill="#5776E2">0.97</text><text x="166" y="583.5" class="node" fill="#5776E2">0.97</text><text x="188.7" y="564.8" class="node" fill="#5776E2">0.97</text><text x="211.4" y="541.5" class="node" fill="#5776E2">0.97</text><text x="234.1" y="516.1" class="node" fill="#5776E2">0.97</text><text x="256.9" y="493.4" class="node" fill="#5776E2">0.97</text><text x="279.6" y="476.2" class="node" fill="#5776E2">0.97</text><text x="302.3" y="463" class="node" fill="#4A6FE3">1</text><text x="325" y="450.6" class="node" fill="#E3DFE0">0.49</text><text x="347.7" y="440" class="node" fill="#4A6FE3">1</text><text x="279.6" y="510.5" class="node" fill="#4A6FE3">1</text><text x="256.9" y="538.8" class="node" fill="#5776E2">0.97</text><text x="234.1" y="567" class="node" fill="#4A6FE3">1</text><text x="166" y="623.3" class="node" fill="#D2D4E3">0.56</text><text x="143.3" y="651.5" class="node" fill="#C1C6E3">0.62</text></svg>
