<svg xmlns="http://www.w3.org/2000/svg" version="1.1" viewBox="0 0 682 720" preserveAspectRatio="xMidYMid meet" class="tree" data-char="311"><text x="678" y="12.7" text-anchor="end" class="stepsLabel">Character adds <tspan class="score">2</tspan> to tree score</text><text x="678" y="22.4" text-anchor="end" class="stepsLabel"><tspan class="score">0</tspan> additional regions</text><text x="678" y="32.1" text-anchor="end" class="stepsLabel"></text><text x="678" y="51.5" text-anchor="end" class="stepsLabel"><tspan dy="16" fill="#34caaf">An optimal tree under:</tspan><tspan x="680" style="font-style:italic" class="notThisAn" dy="1.2em">Implied weights, k = 4.5</tspan><tspan x="680" style="font-style:italic" class="notThisAn" dy="1.2em">IW, k = 10.5</tspan><tspan x="680" style="font-style:italic" class="notThisAn" dy="1.2em">IW, k = 24</tspan><tspan x="680" style="font-style:italic" class="thisAn" dy="1.2em">Equal weights</tspan></text><text x="58" y="695.4" fill="grey" class="flag">[?]</text><text x="80" y="695.4" fill="#999" class="taxonLabel">Flustra</text><text x="58" y="705.2" fill="grey" class="flag">[?]</text><text x="80" y="705.2" fill="#999" class="taxonLabel">Amathia</text><text x="340.7" y="538.8" fill="#91bfdb" class="flag">[1]</text><text x="362.7" y="538.8" fill="#000" class="taxonLabel">Capitella</text><text x="340.7" y="548.5" fill="grey" class="flag">[?]</text><text x="362.7" y="548.5" fill="#999" class="taxonLabel">Canadia spinosa</text><text x="323" y="558.3" fill="grey" class="flag">[?]</text><text x="345" y="558.3" fill="#999" class="taxonLabel">Serpula</text><text x="305.3" y="568.1" fill="#fc8d59" class="flag">[0]</text><text x="327.3" y="568.1" fill="#000" class="taxonLabel">Sipunculus</text><text x="376" y="499.6" fill="grey" class="flag">[?]</text><text x="398" y="499.6" fill="#999" class="taxonLabel">Pojetaia runnegari</text><text x="376" y="509.4" fill="grey" class="flag">[?]</text><text x="398" y="509.4" fill="#999" class="taxonLabel">Mytilus</text><text x="393.7" y="470.2" fill="grey" class="flag">[?]</text><text x="415.7" y="470.2" fill="#999" class="taxonLabel">Neopilina</text><text x="393.7" y="480" fill="#91bfdb" class="flag">[1]</text><text x="415.7" y="480" fill="#000" class="taxonLabel">Haliotis</text><text x="376" y="489.8" fill="grey" class="flag">[?]</text><text x="398" y="489.8" fill="#999" class="taxonLabel">Conocardium elongatum</text><text x="340.7" y="519.2" fill="grey" class="flag">[?]</text><text x="362.7" y="519.2" fill="#999" class="taxonLabel">Dentalium</text><text x="358.3" y="450.6" fill="grey" class="flag">[?]</text><text x="380.3" y="450.6" fill="#999" class="taxonLabel">Wiwaxia corrugata</text><text x="358.3" y="460.4" fill="grey" class="flag">[?]</text><text x="380.3" y="460.4" fill="#999" class="taxonLabel">Odontogriphus omalus</text><text x="393.7" y="431" fill="grey" class="flag">[?]</text><text x="415.7" y="431" fill="#999" class="taxonLabel">Wirenia</text><text x="393.7" y="440.8" fill="#91bfdb" class="flag">[1]</text><text x="415.7" y="440.8" fill="#000" class="taxonLabel">Chaetoderma</text><text x="411.3" y="401.7" fill="grey" class="flag">[?]</text><text x="433.3" y="401.7" fill="#999" class="taxonLabel">Phthipodochiton thraivensis</text><text x="411.3" y="411.5" fill="grey" class="flag">[?]</text><text x="433.3" y="411.5" fill="#999" class="taxonLabel">Kulindroplax perissokomos</text><text x="393.7" y="421.2" fill="grey" class="flag">[?]</text><text x="415.7" y="421.2" fill="#999" class="taxonLabel">Acaenoplax hayae</text><text x="464.3" y="333.1" fill="grey" class="flag">[?]</text><text x="486.3" y="333.1" fill="#999" class="taxonLabel">Tonicella</text><text x="464.3" y="342.9" fill="grey" class="flag">[?]</text><text x="486.3" y="342.9" fill="#999" class="taxonLabel">Mopalia</text><text x="446.7" y="352.7" fill="grey" class="flag">[?]</text><text x="468.7" y="352.7" fill="#999" class="taxonLabel">Leptochiton</text><text x="429" y="362.5" fill="grey" class="flag">[?]</text><text x="451" y="362.5" fill="#999" class="taxonLabel">Glaphurochiton carbonarius</text><text x="411.3" y="372.3" fill="grey" class="flag">[?]</text><text x="433.3" y="372.3" fill="#999" class="taxonLabel">Calvapilosa kroegeri</text><text x="393.7" y="382.1" fill="grey" class="flag">[?]</text><text x="415.7" y="382.1" fill="#999" class="taxonLabel">Siphogonuchites multa</text><text x="376" y="391.9" fill="grey" class="flag">[?]</text><text x="398" y="391.9" fill="#999" class="taxonLabel">Polysacos vickersianum</text><text x="305.3" y="529" fill="grey" class="flag">[?]</text><text x="327.3" y="529" fill="#999" class="taxonLabel">Pelagiella</text><text x="270" y="577.9" fill="grey" class="flag">[?]</text><text x="292" y="577.9" fill="#999" class="taxonLabel">Bactrotheca</text><text x="252.3" y="587.7" fill="grey" class="flag">[?]</text><text x="274.3" y="587.7" fill="#999" class="taxonLabel">Cupitheca holocyclata</text><text x="323" y="284.2" fill="grey" class="flag">[?]</text><text x="345" y="284.2" fill="#999" class="taxonLabel">Mickwitzia muralensis</text><text x="323" y="294" fill="grey" class="flag">[?]</text><text x="345" y="294" fill="#999" class="taxonLabel">Heliomedusa orienta</text><text x="393.7" y="245" fill="grey" class="flag">[?]</text><text x="415.7" y="245" fill="#999" class="taxonLabel">Novocrania</text><text x="393.7" y="254.8" fill="grey" class="flag">[?]</text><text x="415.7" y="254.8" fill="#999" class="taxonLabel">Craniops</text><text x="376" y="264.6" fill="grey" class="flag">[?]</text><text x="398" y="264.6" fill="#999" class="taxonLabel">Ussunia</text><text x="358.3" y="274.4" fill="grey" class="flag">[?]</text><text x="380.3" y="274.4" fill="#999" class="taxonLabel">Gasconsia</text><text x="429" y="196" fill="grey" class="flag">[?]</text><text x="451" y="196" fill="#999" class="taxonLabel">Pelagodiscus atlanticus</text><text x="429" y="205.8" fill="grey" class="flag">[?]</text><text x="451" y="205.8" fill="#999" class="taxonLabel">Mummpikia nuda</text><text x="482" y="147.1" fill="grey" class="flag">[?]</text><text x="504" y="147.1" fill="#999" class="taxonLabel">Siphonobolus priscus</text><text x="482" y="156.9" fill="grey" class="flag">[?]</text><text x="504" y="156.9" fill="#999" class="taxonLabel">Acanthotretella spinosa</text><text x="464.3" y="166.7" fill="grey" class="flag">[?]</text><text x="486.3" y="166.7" fill="#999" class="taxonLabel">Clupeafumosus socialis</text><text x="446.7" y="176.5" fill="grey" class="flag">[?]</text><text x="468.7" y="176.5" fill="#999" class="taxonLabel">Lingulosacculus</text><text x="429" y="186.2" fill="grey" class="flag">[?]</text><text x="451" y="186.2" fill="#999" class="taxonLabel">Lingulellotreta malongensis</text><text x="393.7" y="215.6" fill="grey" class="flag">[?]</text><text x="415.7" y="215.6" fill="#999" class="taxonLabel">Botsfordia</text><text x="376" y="225.4" fill="grey" class="flag">[?]</text><text x="398" y="225.4" fill="#999" class="taxonLabel">Eoobolus</text><text x="358.3" y="235.2" fill="grey" class="flag">[?]</text><text x="380.3" y="235.2" fill="#999" class="taxonLabel">Lingula</text><text x="358.3" y="127.5" fill="grey" class="flag">[?]</text><text x="380.3" y="127.5" fill="#999" class="taxonLabel">Micromitra</text><text x="358.3" y="137.3" fill="grey" class="flag">[?]</text><text x="380.3" y="137.3" fill="#999" class="taxonLabel">Askepasma toddense</text><text x="411.3" y="88.3" fill="grey" class="flag">[?]</text><text x="433.3" y="88.3" fill="#999" class="taxonLabel">Yuganotheca elegans</text><text x="411.3" y="98.1" fill="grey" class="flag">[?]</text><text x="433.3" y="98.1" fill="#999" class="taxonLabel">Tomteluva perturbata</text><text x="393.7" y="107.9" fill="grey" class="flag">[?]</text><text x="415.7" y="107.9" fill="#999" class="taxonLabel">Longtancunella chengjiangensis</text><text x="411.3" y="68.8" fill="grey" class="flag">[?]</text><text x="433.3" y="68.8" fill="#999" class="taxonLabel">Coolinia pecten</text><text x="411.3" y="78.5" fill="grey" class="flag">[?]</text><text x="433.3" y="78.5" fill="#999" class="taxonLabel">Antigonambonites planus</text><text x="482" y="10" fill="grey" class="flag">[?]</text><text x="504" y="10" fill="#999" class="taxonLabel">Terebratulina</text><text x="482" y="19.8" fill="grey" class="flag">[?]</text><text x="504" y="19.8" fill="#999" class="taxonLabel">Orthis</text><text x="464.3" y="29.6" fill="grey" class="flag">[?]</text><text x="486.3" y="29.6" fill="#999" class="taxonLabel">Alisina</text><text x="446.7" y="39.4" fill="grey" class="flag">[?]</text><text x="468.7" y="39.4" fill="#999" class="taxonLabel">Glyptoria</text><text x="429" y="49.2" fill="grey" class="flag">[?]</text><text x="451" y="49.2" fill="#999" class="taxonLabel">Nisusia sulcata</text><text x="411.3" y="59" fill="grey" class="flag">[?]</text><text x="433.3" y="59" fill="#999" class="taxonLabel">Kutorgina chengjiangensis</text><text x="358.3" y="117.7" fill="grey" class="flag">[?]</text><text x="380.3" y="117.7" fill="#999" class="taxonLabel">Salanygolina</text><text x="287.7" y="303.8" fill="grey" class="flag">[?]</text><text x="309.7" y="303.8" fill="#999" class="taxonLabel">Micrina</text><text x="270" y="313.5" fill="grey" class="flag">[?]</text><text x="292" y="313.5" fill="#999" class="taxonLabel">Paterimitra</text><text x="252.3" y="323.3" fill="grey" class="flag">[?]</text><text x="274.3" y="323.3" fill="#999" class="taxonLabel">Pedunculotheca diania</text><text x="217" y="597.5" fill="grey" class="flag">[?]</text><text x="239" y="597.5" fill="#999" class="taxonLabel">Paramicrocornus</text><text x="199.3" y="607.3" fill="grey" class="flag">[?]</text><text x="221.3" y="607.3" fill="#999" class="taxonLabel">Haplophrentis carinatus</text><text x="181.7" y="617.1" fill="grey" class="flag">[?]</text><text x="203.7" y="617.1" fill="#999" class="taxonLabel">Halkieria evangelista</text><text x="164" y="626.9" fill="grey" class="flag">[?]</text><text x="186" y="626.9" fill="#999" class="taxonLabel">Orthrozanclus</text><text x="146.3" y="636.7" fill="grey" class="flag">[?]</text><text x="168.3" y="636.7" fill="#999" class="taxonLabel">Yilingia spiciformis</text><text x="128.7" y="646.5" fill="grey" class="flag">[?]</text><text x="150.7" y="646.5" fill="#999" class="taxonLabel">Dailyatia</text><text x="111" y="656.2" fill="grey" class="flag">[?]</text><text x="133" y="656.2" fill="#999" class="taxonLabel">Eccentrotheca</text><text x="93.3" y="666" fill="grey" class="flag">[?]</text><text x="115.3" y="666" fill="#999" class="taxonLabel">Cotyledion tylodes</text><text x="75.7" y="675.8" fill="grey" class="flag">[?]</text><text x="97.7" y="675.8" fill="#999" class="taxonLabel">Namacalathus</text><text x="58" y="685.6" fill="#fc8d59" class="flag">[0]</text><text x="80" y="685.6" fill="#000" class="taxonLabel">Phoronis</text><text x="22.7" y="715" fill="grey" class="flag">[?]</text><text x="44.7" y="715" fill="#999" class="taxonLabel">Loxosomella</text><path d="M5,698.5V685H22.7M22.7,685V672.7H40.3M40.3,672.7V662.8H58M58,662.8V652.7H75.7M75.7,652.7V642.4H93.3M93.3,642.4V631.5H111M111,631.5V619.5H128.7M128.7,619.5V605.4H146.3M146.3,605.4V586.9H164M164,586.9V559.8H181.7M181.7,559.8V515.2H199.3M199.3,515.2V436H217M217,436V304.4H234.7M234.7,304.4V288.4H252.3M252.3,288.4V266.3H270M270,266.3V231.8H287.7M287.7,231.8V177.5H305.3M305.3,177.5V112.9H323M323,112.9V96.4H340.7M340.7,96.4V78.1H358.3M358.3,78.1V58.6H376M376,58.6V46.5H393.7M393.7,46.5V37H411.3M411.3,37V27.8H429M429,27.8V19.2H446.7M446.7,19.2V11.9H464.3M464.3,11.9V7H482M464.3,11.9V16.8H482M446.7,19.2V26.6H464.3M429,27.8V36.4H446.7M411.3,37V46.2H429M393.7,46.5V56H411.3M376,58.6V70.6H393.7M393.7,70.6V65.8H411.3M393.7,70.6V75.5H411.3M358.3,78.1V97.6H376M376,97.6V90.2H393.7M393.7,90.2V85.3H411.3M393.7,90.2V95.1H411.3M376,97.6V104.9H393.7M340.7,96.4V114.7H358.3M323,112.9V129.4H340.7M340.7,129.4V124.5H358.3M340.7,129.4V134.3H358.3M305.3,177.5V242.2H323M323,242.2V221.5H340.7M340.7,221.5V210.9H358.3M358.3,210.9V199.3H376M376,199.3V186H393.7M393.7,186V174.1H411.3M411.3,174.1V164.9H429M429,164.9V156.3H446.7M446.7,156.3V149H464.3M464.3,149V144.1H482M464.3,149V153.9H482M446.7,156.3V163.7H464.3M429,164.9V173.5H446.7M411.3,174.1V183.2H429M393.7,186V197.9H411.3M411.3,197.9V193H429M411.3,197.9V202.8H429M376,199.3V212.6H393.7M358.3,210.9V222.4H376M340.7,221.5V232.2H358.3M323,242.2V262.8H340.7M340.7,262.8V254.2H358.3M358.3,254.2V246.9H376M376,246.9V242H393.7M376,246.9V251.8H393.7M358.3,254.2V261.6H376M340.7,262.8V271.4H358.3M287.7,231.8V286.1H305.3M305.3,286.1V281.2H323M305.3,286.1V291H323M270,266.3V300.8H287.7M252.3,288.4V310.5H270M234.7,304.4V320.3H252.3M217,436V567.6H234.7M234.7,567.6V550.5H252.3M252.3,550.5V526H270M270,526V495.4H287.7M287.7,495.4V526H305.3M270,526V556.6H287.7M287.7,556.6V548H305.3M305.3,548V540.6H323M323,540.6V545.5H340.7M305.3,548V555.3H323M252.3,550.5V574.9H270M234.7,567.6V584.7H252.3M199.3,515.2V594.5H217M181.7,559.8V604.3H199.3M164,586.9V614.1H181.7M146.3,605.4V623.9H164M128.7,619.5V633.7H146.3M111,631.5V643.5H128.7M93.3,642.4V653.2H111M75.7,652.7V663H93.3M58,662.8V672.8H75.7M22.7,685V697.3H40.3M40.3,697.3V692.4H58M40.3,697.3V702.2H58M5,698.5V712H22.7" stroke="darkgrey"></path><path d="M287.7,495.4V464.9H305.3M305.3,464.9V426.5H323M323,426.5V400.6H340.7M340.7,400.6V379.2H358.3M358.3,379.2V369.6H376M376,369.6V360.1H393.7M393.7,360.1V350.9H411.3M411.3,350.9V342.4H429M429,342.4V335H446.7M446.7,335V330.1H464.3M446.7,335V339.9H464.3M429,342.4V349.7H446.7M411.3,350.9V359.5H429M393.7,360.1V369.3H411.3M376,369.6V379.1H393.7M358.3,379.2V388.9H376M340.7,400.6V421.9H358.3M358.3,421.9V410.9H376M376,410.9V403.6H393.7M393.7,403.6V398.7H411.3M393.7,403.6V408.5H411.3M376,410.9V418.2H393.7M358.3,421.9V432.9H376M376,432.9V428H393.7M376,432.9V437.8H393.7M323,426.5V452.5H340.7M340.7,452.5V447.6H358.3M340.7,452.5V457.4H358.3M305.3,464.9V503.3H323M323,503.3V490.5H340.7M340.7,490.5V479.4H358.3M358.3,479.4V472.1H376M376,472.1V467.2H393.7M376,472.1V477H393.7M358.3,479.4V486.8H376M340.7,490.5V501.5H358.3M358.3,501.5V496.6H376M358.3,501.5V506.4H376M323,503.3V516.2H340.7M323,540.6V535.8H340.7" stroke="#91bfdb"></path><path d="M287.7,556.6V565.1H305.3M40.3,672.7V682.6H58" stroke="#fc8d59"></path><text x="24.7" y="688" class="node" fill="#4A6FE3">1</text><text x="42.3" y="675.7" class="node" fill="#C1C6E3">0.62</text><text x="60" y="665.8" class="node" fill="#4A6FE3">1</text><text x="77.7" y="655.7" class="node" fill="#E498A7">0.26</text><text x="95.3" y="645.4" class="node" fill="#4A6FE3">1</text><text x="113" y="634.5" class="node" fill="#CACDE3">0.59</text><text x="130.7" y="622.5" class="node" fill="#4A6FE3">1</text><text x="148.3" y="608.4" class="node" fill="#4A6FE3">1</text><text x="166" y="589.9" class="node" fill="#4A6FE3">1</text><text x="183.7" y="562.8" class="node" fill="#DADBE3">0.53</text><text x="201.3" y="518.2" class="node" fill="#4A6FE3">1</text><text x="219" y="439" class="node" fill="#4A6FE3">1</text><text x="236.7" y="307.4" class="node" fill="#4A6FE3">1</text><text x="254.3" y="291.4" class="node" fill="#4A6FE3">1</text><text x="272" y="269.3" class="node" fill="#4A6FE3">1</text><text x="289.7" y="234.8" class="node" fill="#4A6FE3">1</text><text x="307.3" y="180.5" class="node" fill="#4A6FE3">1</text><text x="325" y="115.9" class="node" fill="#4A6FE3">1</text><text x="342.7" y="99.4" class="node" fill="#DADBE3">0.53</text><text x="360.3" y="81.1" class="node" fill="#768BE1">0.88</text><text x="378" y="61.6" class="node" fill="#9AA6E2">0.76</text><text x="395.7" y="49.5" class="node" fill="#E5C7CC">0.41</text><text x="413.3" y="40" class="node" fill="#768BE1">0.88</text><text x="431" y="30.8" class="node" fill="#627DE1">0.94</text><text x="448.7" y="22.2" class="node" fill="#627DE1">0.94</text><text x="466.3" y="14.9" class="node" fill="#4A6FE3">1</text><text x="395.7" y="73.6" class="node" fill="#D2D4E3">0.56</text><text x="378" y="100.6" class="node" fill="#6D84E1">0.91</text><text x="395.7" y="93.2" class="node" fill="#4A6FE3">1</text><text x="342.7" y="132.4" class="node" fill="#4A6FE3">1</text><text x="325" y="245.2" class="node" fill="#4A6FE3">1</text><text x="342.7" y="224.5" class="node" fill="#4A6FE3">1</text><text x="360.3" y="213.9" class="node" fill="#4A6FE3">1</text><text x="378" y="202.3" class="node" fill="#4A6FE3">1</text><text x="395.7" y="189" class="node" fill="#4A6FE3">1</text><text x="413.3" y="177.1" class="node" fill="#4A6FE3">1</text><text x="431" y="167.9" class="node" fill="#E17F94">0.18</text><text x="448.7" y="159.3" class="node" fill="#4A6FE3">1</text><text x="466.3" y="152" class="node" fill="#4A6FE3">1</text><text x="413.3" y="200.9" class="node" fill="#4A6FE3">1</text><text x="342.7" y="265.8" class="node" fill="#4A6FE3">1</text><text x="360.3" y="257.2" class="node" fill="#4A6FE3">1</text><text x="378" y="249.9" class="node" fill="#4A6FE3">1</text><text x="307.3" y="289.1" class="node" fill="#4A6FE3">1</text><text x="236.7" y="570.6" class="node" fill="#4A6FE3">1</text><text x="254.3" y="553.5" class="node" fill="#4A6FE3">1</text><text x="272" y="529" class="node" fill="#929FE1">0.79</text><text x="289.7" y="498.4" class="node" fill="#D2D4E3">0.56</text><text x="307.3" y="467.9" class="node" fill="#4A6FE3">1</text><text x="325" y="429.5" class="node" fill="#4A6FE3">1</text><text x="342.7" y="403.6" class="node" fill="#D85778">0.06</text><text x="360.3" y="382.2" class="node" fill="#D54C71">0.03</text><text x="378" y="372.6" class="node" fill="#4A6FE3">1</text><text x="395.7" y="363.1" class="node" fill="#D2D4E3">0.56</text><text x="413.3" y="353.9" class="node" fill="#E5D0D3">0.44</text><text x="431" y="345.4" class="node" fill="#4A6FE3">1</text><text x="448.7" y="338" class="node" fill="#4A6FE3">1</text><text x="360.3" y="424.9" class="node" fill="#4A6FE3">1</text><text x="378" y="413.9" class="node" fill="#4A6FE3">1</text><text x="395.7" y="406.6" class="node" fill="#4A6FE3">1</text><text x="378" y="435.9" class="node" fill="#4A6FE3">1</text><text x="342.7" y="455.5" class="node" fill="#4A6FE3">1</text><text x="325" y="506.3" class="node" fill="#4A6FE3">1</text><text x="342.7" y="493.5" class="node" fill="#929FE1">0.79</text><text x="360.3" y="482.4" class="node" fill="#E17F94">0.18</text><text x="378" y="475.1" class="node" fill="#E6ABB6">0.32</text><text x="360.3" y="504.5" class="node" fill="#4A6FE3">1</text><text x="289.7" y="559.6" class="node" fill="#4A6FE3">1</text><text x="307.3" y="551" class="node" fill="#CACDE3">0.59</text><text x="325" y="543.6" class="node" fill="#4A6FE3">1</text><text x="42.3" y="700.3" class="node" fill="#4A6FE3">1</text></svg>
