<svg xmlns="http://www.w3.org/2000/svg" version="1.1" viewBox="0 0 682 720" preserveAspectRatio="xMidYMid meet" class="tree" data-char="258"><text x="678" y="12.7" text-anchor="end" class="stepsLabel">Character adds <tspan class="score">1</tspan> to tree score</text><text x="678" y="22.4" text-anchor="end" class="stepsLabel"><tspan class="score">0</tspan> additional regions</text><text x="678" y="32.1" text-anchor="end" class="stepsLabel"></text><text x="678" y="51.5" text-anchor="end" class="stepsLabel"><tspan dy="16" fill="#34caaf">An optimal tree under:</tspan><tspan x="680" style="font-style:italic" class="notThisAn" dy="1.2em">Implied weights, k = 4.5</tspan><tspan x="680" style="font-style:italic" class="notThisAn" dy="1.2em">IW, k = 10.5</tspan><tspan x="680" style="font-style:italic" class="notThisAn" dy="1.2em">IW, k = 24</tspan><tspan x="680" style="font-style:italic" class="thisAn" dy="1.2em">Equal weights</tspan></text><text x="58" y="695.4" fill="#e2e2a2" class="flag">[1]</text><text x="80" y="695.4" fill="#000" class="taxonLabel">Flustra</text><text x="58" y="705.2" fill="#e2e2a2" class="flag">[1]</text><text x="80" y="705.2" fill="#000" class="taxonLabel">Amathia</text><text x="111" y="656.2" fill="grey" class="flag">[?]</text><text x="133" y="656.2" fill="#999" class="taxonLabel">Eccentrotheca</text><text x="111" y="666" fill="grey" class="flag">[?]</text><text x="133" y="666" fill="#999" class="taxonLabel">Cotyledion tylodes</text><text x="199.3" y="597.5" fill="grey" class="flag">[?]</text><text x="221.3" y="597.5" fill="#999" class="taxonLabel">Paramicrocornus</text><text x="199.3" y="607.3" fill="grey" class="flag">[?]</text><text x="221.3" y="607.3" fill="#999" class="taxonLabel">Haplophrentis carinatus</text><text x="305.3" y="538.8" fill="#e2e2a2" class="flag">[1]</text><text x="327.3" y="538.8" fill="#000" class="taxonLabel">Serpula</text><text x="305.3" y="548.5" fill="grey" class="flag">[?]</text><text x="327.3" y="548.5" fill="#999" class="taxonLabel">Capitella</text><text x="287.7" y="558.3" fill="grey" class="flag">[?]</text><text x="309.7" y="558.3" fill="#999" class="taxonLabel">Canadia spinosa</text><text x="270" y="568.1" fill="#e2e2a2" class="flag">[1]</text><text x="292" y="568.1" fill="#000" class="taxonLabel">Sipunculus</text><text x="340.7" y="499.6" fill="grey" class="flag">[?]</text><text x="362.7" y="499.6" fill="#999" class="taxonLabel">Pojetaia runnegari</text><text x="340.7" y="509.4" fill="lightgrey" class="flag">[-]</text><text x="362.7" y="509.4" fill="#ccc" class="taxonLabel">Mytilus</text><text x="358.3" y="470.2" fill="lightgrey" class="flag">[-]</text><text x="380.3" y="470.2" fill="#ccc" class="taxonLabel">Neopilina</text><text x="358.3" y="480" fill="lightgrey" class="flag">[-]</text><text x="380.3" y="480" fill="#ccc" class="taxonLabel">Haliotis</text><text x="340.7" y="489.8" fill="grey" class="flag">[?]</text><text x="362.7" y="489.8" fill="#999" class="taxonLabel">Conocardium elongatum</text><text x="305.3" y="519.2" fill="#e2e2a2" class="flag">[1]</text><text x="327.3" y="519.2" fill="#000" class="taxonLabel">Dentalium</text><text x="287.7" y="529" fill="grey" class="flag">[?]</text><text x="309.7" y="529" fill="#999" class="taxonLabel">Pelagiella</text><text x="305.3" y="450.6" fill="grey" class="flag">[?]</text><text x="327.3" y="450.6" fill="#999" class="taxonLabel">Wiwaxia corrugata</text><text x="305.3" y="460.4" fill="grey" class="flag">[?]</text><text x="327.3" y="460.4" fill="#999" class="taxonLabel">Odontogriphus omalus</text><text x="358.3" y="421.2" fill="grey" class="flag">[?]</text><text x="380.3" y="421.2" fill="#999" class="taxonLabel">Wirenia</text><text x="358.3" y="431" fill="grey" class="flag">[?]</text><text x="380.3" y="431" fill="#999" class="taxonLabel">Chaetoderma</text><text x="376" y="391.9" fill="grey" class="flag">[?]</text><text x="398" y="391.9" fill="#999" class="taxonLabel">Phthipodochiton thraivensis</text><text x="376" y="401.7" fill="grey" class="flag">[?]</text><text x="398" y="401.7" fill="#999" class="taxonLabel">Kulindroplax perissokomos</text><text x="358.3" y="411.5" fill="grey" class="flag">[?]</text><text x="380.3" y="411.5" fill="#999" class="taxonLabel">Acaenoplax hayae</text><text x="411.3" y="333.1" fill="#91bfdb" class="flag">[2]</text><text x="433.3" y="333.1" fill="#000" class="taxonLabel">Tonicella</text><text x="411.3" y="342.9" fill="lightgrey" class="flag">[-]</text><text x="433.3" y="342.9" fill="#ccc" class="taxonLabel">Mopalia</text><text x="393.7" y="352.7" fill="grey" class="flag">[?]</text><text x="415.7" y="352.7" fill="#999" class="taxonLabel">Glaphurochiton carbonarius</text><text x="376" y="362.5" fill="grey" class="flag">[?]</text><text x="398" y="362.5" fill="#999" class="taxonLabel">Leptochiton</text><text x="358.3" y="372.3" fill="grey" class="flag">[?]</text><text x="380.3" y="372.3" fill="#999" class="taxonLabel">Calvapilosa kroegeri</text><text x="340.7" y="382.1" fill="grey" class="flag">[?]</text><text x="362.7" y="382.1" fill="#999" class="taxonLabel">Polysacos vickersianum</text><text x="305.3" y="440.8" fill="grey" class="flag">[?]</text><text x="327.3" y="440.8" fill="#999" class="taxonLabel">Siphogonuchites multa</text><text x="234.7" y="577.9" fill="grey" class="flag">[?]</text><text x="256.7" y="577.9" fill="#999" class="taxonLabel">Bactrotheca</text><text x="217" y="587.7" fill="grey" class="flag">[?]</text><text x="239" y="587.7" fill="#999" class="taxonLabel">Cupitheca holocyclata</text><text x="287.7" y="284.2" fill="grey" class="flag">[?]</text><text x="309.7" y="284.2" fill="#999" class="taxonLabel">Mickwitzia muralensis</text><text x="287.7" y="294" fill="grey" class="flag">[?]</text><text x="309.7" y="294" fill="#999" class="taxonLabel">Heliomedusa orienta</text><text x="358.3" y="245" fill="#e2e2a2" class="flag">[1]</text><text x="380.3" y="245" fill="#000" class="taxonLabel">Novocrania</text><text x="358.3" y="254.8" fill="grey" class="flag">[?]</text><text x="380.3" y="254.8" fill="#999" class="taxonLabel">Craniops</text><text x="340.7" y="264.6" fill="grey" class="flag">[?]</text><text x="362.7" y="264.6" fill="#999" class="taxonLabel">Ussunia</text><text x="323" y="274.4" fill="grey" class="flag">[?]</text><text x="345" y="274.4" fill="#999" class="taxonLabel">Gasconsia</text><text x="393.7" y="196" fill="grey" class="flag">[?]</text><text x="415.7" y="196" fill="#999" class="taxonLabel">Pelagodiscus atlanticus</text><text x="393.7" y="205.8" fill="grey" class="flag">[?]</text><text x="415.7" y="205.8" fill="#999" class="taxonLabel">Mummpikia nuda</text><text x="446.7" y="147.1" fill="grey" class="flag">[?]</text><text x="468.7" y="147.1" fill="#999" class="taxonLabel">Siphonobolus priscus</text><text x="446.7" y="156.9" fill="grey" class="flag">[?]</text><text x="468.7" y="156.9" fill="#999" class="taxonLabel">Acanthotretella spinosa</text><text x="429" y="166.7" fill="grey" class="flag">[?]</text><text x="451" y="166.7" fill="#999" class="taxonLabel">Clupeafumosus socialis</text><text x="411.3" y="176.5" fill="grey" class="flag">[?]</text><text x="433.3" y="176.5" fill="#999" class="taxonLabel">Lingulosacculus</text><text x="393.7" y="186.2" fill="grey" class="flag">[?]</text><text x="415.7" y="186.2" fill="#999" class="taxonLabel">Lingulellotreta malongensis</text><text x="358.3" y="215.6" fill="grey" class="flag">[?]</text><text x="380.3" y="215.6" fill="#999" class="taxonLabel">Botsfordia</text><text x="340.7" y="225.4" fill="grey" class="flag">[?]</text><text x="362.7" y="225.4" fill="#999" class="taxonLabel">Eoobolus</text><text x="323" y="235.2" fill="#e2e2a2" class="flag">[1]</text><text x="345" y="235.2" fill="#000" class="taxonLabel">Lingula</text><text x="323" y="127.5" fill="grey" class="flag">[?]</text><text x="345" y="127.5" fill="#999" class="taxonLabel">Micromitra</text><text x="323" y="137.3" fill="grey" class="flag">[?]</text><text x="345" y="137.3" fill="#999" class="taxonLabel">Askepasma toddense</text><text x="393.7" y="78.5" fill="grey" class="flag">[?]</text><text x="415.7" y="78.5" fill="#999" class="taxonLabel">Coolinia pecten</text><text x="393.7" y="88.3" fill="grey" class="flag">[?]</text><text x="415.7" y="88.3" fill="#999" class="taxonLabel">Antigonambonites planus</text><text x="482" y="10" fill="grey" class="flag">[?]</text><text x="504" y="10" fill="#999" class="taxonLabel">Terebratulina</text><text x="482" y="19.8" fill="grey" class="flag">[?]</text><text x="504" y="19.8" fill="#999" class="taxonLabel">Orthis</text><text x="464.3" y="29.6" fill="grey" class="flag">[?]</text><text x="486.3" y="29.6" fill="#999" class="taxonLabel">Alisina</text><text x="446.7" y="39.4" fill="grey" class="flag">[?]</text><text x="468.7" y="39.4" fill="#999" class="taxonLabel">Longtancunella chengjiangensis</text><text x="429" y="49.2" fill="grey" class="flag">[?]</text><text x="451" y="49.2" fill="#999" class="taxonLabel">Glyptoria</text><text x="411.3" y="59" fill="grey" class="flag">[?]</text><text x="433.3" y="59" fill="#999" class="taxonLabel">Nisusia sulcata</text><text x="393.7" y="68.8" fill="grey" class="flag">[?]</text><text x="415.7" y="68.8" fill="#999" class="taxonLabel">Kutorgina chengjiangensis</text><text x="358.3" y="98.1" fill="grey" class="flag">[?]</text><text x="380.3" y="98.1" fill="#999" class="taxonLabel">Tomteluva perturbata</text><text x="340.7" y="107.9" fill="grey" class="flag">[?]</text><text x="362.7" y="107.9" fill="#999" class="taxonLabel">Yuganotheca elegans</text><text x="323" y="117.7" fill="grey" class="flag">[?]</text><text x="345" y="117.7" fill="#999" class="taxonLabel">Salanygolina</text><text x="252.3" y="303.8" fill="grey" class="flag">[?]</text><text x="274.3" y="303.8" fill="#999" class="taxonLabel">Micrina</text><text x="234.7" y="313.5" fill="grey" class="flag">[?]</text><text x="256.7" y="313.5" fill="#999" class="taxonLabel">Paterimitra</text><text x="217" y="323.3" fill="grey" class="flag">[?]</text><text x="239" y="323.3" fill="#999" class="taxonLabel">Pedunculotheca diania</text><text x="164" y="617.1" fill="grey" class="flag">[?]</text><text x="186" y="617.1" fill="#999" class="taxonLabel">Halkieria evangelista</text><text x="146.3" y="626.9" fill="grey" class="flag">[?]</text><text x="168.3" y="626.9" fill="#999" class="taxonLabel">Orthrozanclus</text><text x="128.7" y="636.7" fill="grey" class="flag">[?]</text><text x="150.7" y="636.7" fill="#999" class="taxonLabel">Yilingia spiciformis</text><text x="111" y="646.5" fill="grey" class="flag">[?]</text><text x="133" y="646.5" fill="#999" class="taxonLabel">Dailyatia</text><text x="75.7" y="675.8" fill="grey" class="flag">[?]</text><text x="97.7" y="675.8" fill="#999" class="taxonLabel">Namacalathus</text><text x="58" y="685.6" fill="#e2e2a2" class="flag">[1]</text><text x="80" y="685.6" fill="#000" class="taxonLabel">Phoronis</text><text x="22.7" y="715" fill="lightgrey" class="flag">[-]</text><text x="44.7" y="715" fill="#ccc" class="taxonLabel">Loxosomella</text><path d="M5,697.9V683.9H22.7M22.7,683.9V670.4H40.3M40.3,670.4V658.2H58M58,658.2V643.5H75.7M75.7,643.5V628.8H93.3M93.3,628.8V614.2H111M111,614.2V594.7H128.7M128.7,594.7V565.6H146.3M146.3,565.6V517H164M164,517V434.7H181.7M181.7,434.7V304.5H199.3M199.3,304.5V288.6H217M217,288.6V266.7H234.7M234.7,266.7V232.7H252.3M252.3,232.7V179.4H270M270,179.4V116.7H287.7M287.7,116.7V104H305.3M305.3,104V93.3H323M323,93.3V81.7H340.7M340.7,81.7V68.3H358.3M358.3,68.3V56.1H376M376,56.1V46.5H393.7M393.7,46.5V37H411.3M411.3,37V27.8H429M429,27.8V19.2H446.7M446.7,19.2V11.9H464.3M464.3,11.9V7H482M464.3,11.9V16.8H482M446.7,19.2V26.6H464.3M429,27.8V36.4H446.7M411.3,37V46.2H429M393.7,46.5V56H411.3M376,56.1V65.8H393.7M358.3,68.3V80.4H376M376,80.4V75.5H393.7M376,80.4V85.3H393.7M340.7,81.7V95.1H358.3M323,93.3V104.9H340.7M305.3,104V114.7H323M287.7,116.7V129.4H305.3M305.3,129.4V124.5H323M305.3,129.4V134.3H323M270,179.4V242.2H287.7M287.7,242.2V221.5H305.3M305.3,221.5V210.9H323M323,210.9V199.3H340.7M340.7,199.3V186H358.3M358.3,186V174.1H376M376,174.1V164.9H393.7M393.7,164.9V156.3H411.3M411.3,156.3V149H429M429,149V144.1H446.7M429,149V153.9H446.7M411.3,156.3V163.7H429M393.7,164.9V173.5H411.3M376,174.1V183.2H393.7M358.3,186V197.9H376M376,197.9V193H393.7M376,197.9V202.8H393.7M340.7,199.3V212.6H358.3M323,210.9V222.4H340.7M305.3,221.5V232.2H323M287.7,242.2V262.8H305.3M305.3,262.8V254.2H323M323,254.2V246.9H340.7M340.7,246.9V242H358.3M340.7,246.9V251.8H358.3M323,254.2V261.6H340.7M305.3,262.8V271.4H323M252.3,232.7V286.1H270M270,286.1V281.2H287.7M270,286.1V291H287.7M234.7,266.7V300.8H252.3M217,288.6V310.5H234.7M199.3,304.5V320.3H217M181.7,434.7V564.9H199.3M199.3,564.9V545.1H217M217,545.1V515.3H234.7M234.7,515.3V474H252.3M252.3,474V433.4H270M252.3,474V514.6H270M270,514.6V503.3H287.7M287.7,503.3V516.2H305.3M270,514.6V526H287.7M234.7,515.3V556.6H252.3M252.3,556.6V548H270M270,548V540.6H287.7M287.7,540.6V535.8H305.3M287.7,540.6V545.5H305.3M270,548V555.3H287.7M252.3,556.6V565.1H270M217,545.1V574.9H234.7M199.3,564.9V584.7H217M164,517V599.4H181.7M181.7,599.4V594.5H199.3M181.7,599.4V604.3H199.3M146.3,565.6V614.1H164M128.7,594.7V623.9H146.3M111,614.2V633.7H128.7M93.3,628.8V643.5H111M75.7,643.5V658.1H93.3M93.3,658.1V653.2H111M93.3,658.1V663H111M58,658.2V672.8H75.7M40.3,670.4V682.6H58M22.7,683.9V697.3H40.3M40.3,697.3V692.4H58M40.3,697.3V702.2H58" stroke="#e2e2a2"></path><path d="M270,433.4V414.3H287.7M287.7,414.3V390.9H305.3M305.3,390.9V369.6H323M323,369.6V360.1H340.7M340.7,360.1V350.9H358.3M358.3,350.9V342.4H376M376,342.4V335H393.7M376,342.4V349.7H393.7M358.3,350.9V359.5H376M340.7,360.1V369.3H358.3M323,369.6V379.1H340.7M305.3,390.9V412.1H323M323,412.1V401.1H340.7M340.7,401.1V393.8H358.3M358.3,393.8V388.9H376M358.3,393.8V398.7H376M340.7,401.1V408.5H358.3M323,412.1V423.1H340.7M340.7,423.1V418.2H358.3M340.7,423.1V428H358.3M287.7,414.3V437.8H305.3M270,433.4V452.5H287.7M287.7,452.5V447.6H305.3M287.7,452.5V457.4H305.3" stroke="darkgrey"></path><path d="M393.7,335V330.1H411.3" stroke="#91bfdb"></path><path d="M393.7,335V339.9H411.3M287.7,503.3V490.5H305.3M305.3,490.5V479.4H323M323,479.4V472.1H340.7M340.7,472.1V467.2H358.3M340.7,472.1V477H358.3M323,479.4V486.8H340.7M305.3,490.5V501.5H323M323,501.5V496.6H340.7M323,501.5V506.4H340.7M5,697.9V712H22.7" stroke="lightgrey" class="inapplicable"></path><text x="24.7" y="686.9" class="node" fill="#4A6FE3">1</text><text x="42.3" y="673.4" class="node" fill="#C1C6E3">0.62</text><text x="60" y="661.2" class="node" fill="#4A6FE3">1</text><text x="77.7" y="646.5" class="node" fill="#4A6FE3">1</text><text x="95.3" y="631.8" class="node" fill="#CACDE3">0.59</text><text x="113" y="617.2" class="node" fill="#4A6FE3">1</text><text x="130.7" y="597.7" class="node" fill="#4A6FE3">1</text><text x="148.3" y="568.6" class="node" fill="#4A6FE3">1</text><text x="166" y="520" class="node" fill="#4A6FE3">1</text><text x="183.7" y="437.7" class="node" fill="#4A6FE3">1</text><text x="201.3" y="307.5" class="node" fill="#4A6FE3">1</text><text x="219" y="291.6" class="node" fill="#4A6FE3">1</text><text x="236.7" y="269.7" class="node" fill="#4A6FE3">1</text><text x="254.3" y="235.7" class="node" fill="#4A6FE3">1</text><text x="272" y="182.4" class="node" fill="#4A6FE3">1</text><text x="289.7" y="119.7" class="node" fill="#4A6FE3">1</text><text x="307.3" y="107" class="node" fill="#DADBE3">0.53</text><text x="325" y="96.3" class="node" fill="#D85778">0.06</text><text x="342.7" y="84.7" class="node" fill="#E5C7CC">0.41</text><text x="360.3" y="71.3" class="node" fill="#DD6C86">0.12</text><text x="378" y="59.1" class="node" fill="#D85778">0.06</text><text x="395.7" y="49.5" class="node" fill="#DD6C86">0.12</text><text x="413.3" y="40" class="node" fill="#DD6C86">0.12</text><text x="431" y="30.8" class="node" fill="#627DE1">0.94</text><text x="448.7" y="22.2" class="node" fill="#627DE1">0.94</text><text x="466.3" y="14.9" class="node" fill="#4A6FE3">1</text><text x="378" y="83.4" class="node" fill="#4A6FE3">1</text><text x="307.3" y="132.4" class="node" fill="#4A6FE3">1</text><text x="289.7" y="245.2" class="node" fill="#4A6FE3">1</text><text x="307.3" y="224.5" class="node" fill="#4A6FE3">1</text><text x="325" y="213.9" class="node" fill="#4A6FE3">1</text><text x="342.7" y="202.3" class="node" fill="#4A6FE3">1</text><text x="360.3" y="189" class="node" fill="#4A6FE3">1</text><text x="378" y="177.1" class="node" fill="#4A6FE3">1</text><text x="395.7" y="167.9" class="node" fill="#E17F94">0.18</text><text x="413.3" y="159.3" class="node" fill="#4A6FE3">1</text><text x="431" y="152" class="node" fill="#4A6FE3">1</text><text x="378" y="200.9" class="node" fill="#4A6FE3">1</text><text x="307.3" y="265.8" class="node" fill="#4A6FE3">1</text><text x="325" y="257.2" class="node" fill="#4A6FE3">1</text><text x="342.7" y="249.9" class="node" fill="#4A6FE3">1</text><text x="272" y="289.1" class="node" fill="#4A6FE3">1</text><text x="201.3" y="567.9" class="node" fill="#4A6FE3">1</text><text x="219" y="548.1" class="node" fill="#4A6FE3">1</text><text x="236.7" y="518.3" class="node" fill="#929FE1">0.79</text><text x="254.3" y="477" class="node" fill="#4A6FE3">1</text><text x="272" y="436.4" class="node" fill="#4A6FE3">1</text><text x="289.7" y="417.3" class="node" fill="#627DE1">0.94</text><text x="307.3" y="393.9" class="node" fill="#627DE1">0.94</text><text x="325" y="372.6" class="node" fill="#4A6FE3">1</text><text x="342.7" y="363.1" class="node" fill="#D2D4E3">0.56</text><text x="360.3" y="353.9" class="node" fill="#E392A2">0.24</text><text x="378" y="345.4" class="node" fill="#4A6FE3">1</text><text x="395.7" y="338" class="node" fill="#4A6FE3">1</text><text x="325" y="415.1" class="node" fill="#4A6FE3">1</text><text x="342.7" y="404.1" class="node" fill="#4A6FE3">1</text><text x="360.3" y="396.8" class="node" fill="#4A6FE3">1</text><text x="342.7" y="426.1" class="node" fill="#4A6FE3">1</text><text x="289.7" y="455.5" class="node" fill="#E5D0D3">0.44</text><text x="272" y="517.6" class="node" fill="#4A6FE3">1</text><text x="289.7" y="506.3" class="node" fill="#4A6FE3">1</text><text x="307.3" y="493.5" class="node" fill="#929FE1">0.79</text><text x="325" y="482.4" class="node" fill="#E17F94">0.18</text><text x="342.7" y="475.1" class="node" fill="#E6ABB6">0.32</text><text x="325" y="504.5" class="node" fill="#4A6FE3">1</text><text x="254.3" y="559.6" class="node" fill="#4A6FE3">1</text><text x="272" y="551" class="node" fill="#E5C7CC">0.41</text><text x="289.7" y="543.6" class="node" fill="#E4D9DB">0.47</text><text x="183.7" y="602.4" class="node" fill="#E59FAC">0.29</text><text x="95.3" y="661.1" class="node" fill="#4A6FE3">1</text><text x="42.3" y="700.3" class="node" fill="#4A6FE3">1</text></svg>
