<svg xmlns="http://www.w3.org/2000/svg" version="1.1" viewBox="0 0 682 720" preserveAspectRatio="xMidYMid meet" class="tree" data-char="249"><text x="678" y="12.7" text-anchor="end" class="stepsLabel">Character adds <tspan class="score">1</tspan> to tree score</text><text x="678" y="22.4" text-anchor="end" class="stepsLabel"><tspan class="score">0</tspan> additional regions</text><text x="678" y="32.1" text-anchor="end" class="stepsLabel"></text><text x="678" y="51.5" text-anchor="end" class="stepsLabel"><tspan dy="16" fill="#34caaf">An optimal tree under:</tspan><tspan x="680" style="font-style:italic" class="notThisAn" dy="1.2em">Implied weights, k = 4.5</tspan><tspan x="680" style="font-style:italic" class="notThisAn" dy="1.2em">IW, k = 10.5</tspan><tspan x="680" style="font-style:italic" class="notThisAn" dy="1.2em">IW, k = 24</tspan><tspan x="680" style="font-style:italic" class="thisAn" dy="1.2em">Equal weights</tspan></text><text x="60" y="695.4" fill="grey" class="flag">[?]</text><text x="82" y="695.4" fill="#999" class="taxonLabel">Flustra</text><text x="60" y="705.2" fill="grey" class="flag">[?]</text><text x="82" y="705.2" fill="#999" class="taxonLabel">Amathia</text><text x="353.6" y="538.8" fill="#fc8d59" class="flag">[0]</text><text x="375.6" y="538.8" fill="#000" class="taxonLabel">Serpula</text><text x="353.6" y="548.5" fill="#fc8d59" class="flag">[0]</text><text x="375.6" y="548.5" fill="#000" class="taxonLabel">Capitella</text><text x="335.2" y="558.3" fill="grey" class="flag">[?]</text><text x="357.2" y="558.3" fill="#999" class="taxonLabel">Canadia spinosa</text><text x="316.9" y="568.1" fill="#fc8d59" class="flag">[0]</text><text x="338.9" y="568.1" fill="#000" class="taxonLabel">Sipunculus</text><text x="427" y="470.2" fill="#fc8d59" class="flag">[0]</text><text x="449" y="470.2" fill="#000" class="taxonLabel">Haliotis</text><text x="427" y="480" fill="grey" class="flag">[?]</text><text x="449" y="480" fill="#999" class="taxonLabel">Conocardium elongatum</text><text x="408.6" y="489.8" fill="grey" class="flag">[?]</text><text x="430.6" y="489.8" fill="#999" class="taxonLabel">Neopilina</text><text x="390.3" y="499.6" fill="grey" class="flag">[?]</text><text x="412.3" y="499.6" fill="#999" class="taxonLabel">Pojetaia runnegari</text><text x="371.9" y="509.4" fill="grey" class="flag">[?]</text><text x="393.9" y="509.4" fill="#999" class="taxonLabel">Mytilus</text><text x="353.6" y="519.2" fill="grey" class="flag">[?]</text><text x="375.6" y="519.2" fill="#999" class="taxonLabel">Dentalium</text><text x="371.9" y="450.6" fill="grey" class="flag">[?]</text><text x="393.9" y="450.6" fill="#999" class="taxonLabel">Wiwaxia corrugata</text><text x="371.9" y="460.4" fill="grey" class="flag">[?]</text><text x="393.9" y="460.4" fill="#999" class="taxonLabel">Odontogriphus omalus</text><text x="427" y="421.2" fill="grey" class="flag">[?]</text><text x="449" y="421.2" fill="#999" class="taxonLabel">Wirenia</text><text x="427" y="431" fill="grey" class="flag">[?]</text><text x="449" y="431" fill="#999" class="taxonLabel">Chaetoderma</text><text x="445.3" y="391.9" fill="grey" class="flag">[?]</text><text x="467.3" y="391.9" fill="#999" class="taxonLabel">Phthipodochiton thraivensis</text><text x="445.3" y="401.7" fill="grey" class="flag">[?]</text><text x="467.3" y="401.7" fill="#999" class="taxonLabel">Kulindroplax perissokomos</text><text x="427" y="411.5" fill="grey" class="flag">[?]</text><text x="449" y="411.5" fill="#999" class="taxonLabel">Acaenoplax hayae</text><text x="445.3" y="362.5" fill="grey" class="flag">[?]</text><text x="467.3" y="362.5" fill="#999" class="taxonLabel">Glaphurochiton carbonarius</text><text x="445.3" y="372.3" fill="grey" class="flag">[?]</text><text x="467.3" y="372.3" fill="#999" class="taxonLabel">Calvapilosa kroegeri</text><text x="463.7" y="333.1" fill="#fc8d59" class="flag">[0]</text><text x="485.7" y="333.1" fill="#000" class="taxonLabel">Tonicella</text><text x="463.7" y="342.9" fill="#fc8d59" class="flag">[0]</text><text x="485.7" y="342.9" fill="#000" class="taxonLabel">Mopalia</text><text x="445.3" y="352.7" fill="#fc8d59" class="flag">[0]</text><text x="467.3" y="352.7" fill="#000" class="taxonLabel">Leptochiton</text><text x="408.6" y="382.1" fill="grey" class="flag">[?]</text><text x="430.6" y="382.1" fill="#999" class="taxonLabel">Polysacos vickersianum</text><text x="371.9" y="440.8" fill="grey" class="flag">[?]</text><text x="393.9" y="440.8" fill="#999" class="taxonLabel">Siphogonuchites multa</text><text x="316.9" y="529" fill="grey" class="flag">[?]</text><text x="338.9" y="529" fill="#999" class="taxonLabel">Pelagiella</text><text x="280.2" y="577.9" fill="grey" class="flag">[?]</text><text x="302.2" y="577.9" fill="#999" class="taxonLabel">Bactrotheca</text><text x="261.8" y="587.7" fill="grey" class="flag">[?]</text><text x="283.8" y="587.7" fill="#999" class="taxonLabel">Cupitheca holocyclata</text><text x="335.2" y="284.2" fill="grey" class="flag">[?]</text><text x="357.2" y="284.2" fill="#999" class="taxonLabel">Mickwitzia muralensis</text><text x="335.2" y="294" fill="grey" class="flag">[?]</text><text x="357.2" y="294" fill="#999" class="taxonLabel">Heliomedusa orienta</text><text x="408.6" y="245" fill="#91bfdb" class="flag">[1]</text><text x="430.6" y="245" fill="#000" class="taxonLabel">Novocrania</text><text x="408.6" y="254.8" fill="grey" class="flag">[?]</text><text x="430.6" y="254.8" fill="#999" class="taxonLabel">Craniops</text><text x="390.3" y="264.6" fill="grey" class="flag">[?]</text><text x="412.3" y="264.6" fill="#999" class="taxonLabel">Ussunia</text><text x="371.9" y="274.4" fill="grey" class="flag">[?]</text><text x="393.9" y="274.4" fill="#999" class="taxonLabel">Gasconsia</text><text x="445.3" y="196" fill="grey" class="flag">[?]</text><text x="467.3" y="196" fill="#999" class="taxonLabel">Pelagodiscus atlanticus</text><text x="445.3" y="205.8" fill="grey" class="flag">[?]</text><text x="467.3" y="205.8" fill="#999" class="taxonLabel">Mummpikia nuda</text><text x="482" y="166.7" fill="grey" class="flag">[?]</text><text x="504" y="166.7" fill="#999" class="taxonLabel">Siphonobolus priscus</text><text x="482" y="176.5" fill="grey" class="flag">[?]</text><text x="504" y="176.5" fill="#999" class="taxonLabel">Acanthotretella spinosa</text><text x="482" y="147.1" fill="grey" class="flag">[?]</text><text x="504" y="147.1" fill="#999" class="taxonLabel">Lingulosacculus</text><text x="482" y="156.9" fill="grey" class="flag">[?]</text><text x="504" y="156.9" fill="#999" class="taxonLabel">Clupeafumosus socialis</text><text x="445.3" y="186.2" fill="grey" class="flag">[?]</text><text x="467.3" y="186.2" fill="#999" class="taxonLabel">Lingulellotreta malongensis</text><text x="408.6" y="215.6" fill="grey" class="flag">[?]</text><text x="430.6" y="215.6" fill="#999" class="taxonLabel">Botsfordia</text><text x="390.3" y="225.4" fill="grey" class="flag">[?]</text><text x="412.3" y="225.4" fill="#999" class="taxonLabel">Eoobolus</text><text x="371.9" y="235.2" fill="#91bfdb" class="flag">[1]</text><text x="393.9" y="235.2" fill="#000" class="taxonLabel">Lingula</text><text x="371.9" y="127.5" fill="grey" class="flag">[?]</text><text x="393.9" y="127.5" fill="#999" class="taxonLabel">Micromitra</text><text x="371.9" y="137.3" fill="grey" class="flag">[?]</text><text x="393.9" y="137.3" fill="#999" class="taxonLabel">Askepasma toddense</text><text x="427" y="88.3" fill="grey" class="flag">[?]</text><text x="449" y="88.3" fill="#999" class="taxonLabel">Yuganotheca elegans</text><text x="427" y="98.1" fill="grey" class="flag">[?]</text><text x="449" y="98.1" fill="#999" class="taxonLabel">Tomteluva perturbata</text><text x="408.6" y="107.9" fill="grey" class="flag">[?]</text><text x="430.6" y="107.9" fill="#999" class="taxonLabel">Longtancunella chengjiangensis</text><text x="427" y="68.8" fill="grey" class="flag">[?]</text><text x="449" y="68.8" fill="#999" class="taxonLabel">Coolinia pecten</text><text x="427" y="78.5" fill="grey" class="flag">[?]</text><text x="449" y="78.5" fill="#999" class="taxonLabel">Antigonambonites planus</text><text x="445.3" y="49.2" fill="grey" class="flag">[?]</text><text x="467.3" y="49.2" fill="#999" class="taxonLabel">Nisusia sulcata</text><text x="445.3" y="59" fill="grey" class="flag">[?]</text><text x="467.3" y="59" fill="#999" class="taxonLabel">Kutorgina chengjiangensis</text><text x="482" y="10" fill="grey" class="flag">[?]</text><text x="504" y="10" fill="#999" class="taxonLabel">Terebratulina</text><text x="482" y="19.8" fill="grey" class="flag">[?]</text><text x="504" y="19.8" fill="#999" class="taxonLabel">Orthis</text><text x="463.7" y="29.6" fill="grey" class="flag">[?]</text><text x="485.7" y="29.6" fill="#999" class="taxonLabel">Alisina</text><text x="445.3" y="39.4" fill="grey" class="flag">[?]</text><text x="467.3" y="39.4" fill="#999" class="taxonLabel">Glyptoria</text><text x="371.9" y="117.7" fill="grey" class="flag">[?]</text><text x="393.9" y="117.7" fill="#999" class="taxonLabel">Salanygolina</text><text x="298.5" y="303.8" fill="grey" class="flag">[?]</text><text x="320.5" y="303.8" fill="#999" class="taxonLabel">Micrina</text><text x="280.2" y="313.5" fill="grey" class="flag">[?]</text><text x="302.2" y="313.5" fill="#999" class="taxonLabel">Paterimitra</text><text x="261.8" y="323.3" fill="grey" class="flag">[?]</text><text x="283.8" y="323.3" fill="#999" class="taxonLabel">Pedunculotheca diania</text><text x="225.2" y="597.5" fill="grey" class="flag">[?]</text><text x="247.2" y="597.5" fill="#999" class="taxonLabel">Paramicrocornus</text><text x="206.8" y="607.3" fill="grey" class="flag">[?]</text><text x="228.8" y="607.3" fill="#999" class="taxonLabel">Haplophrentis carinatus</text><text x="188.5" y="617.1" fill="grey" class="flag">[?]</text><text x="210.5" y="617.1" fill="#999" class="taxonLabel">Halkieria evangelista</text><text x="170.1" y="626.9" fill="grey" class="flag">[?]</text><text x="192.1" y="626.9" fill="#999" class="taxonLabel">Orthrozanclus</text><text x="151.8" y="636.7" fill="grey" class="flag">[?]</text><text x="173.8" y="636.7" fill="#999" class="taxonLabel">Dailyatia</text><text x="133.4" y="646.5" fill="grey" class="flag">[?]</text><text x="155.4" y="646.5" fill="#999" class="taxonLabel">Yilingia spiciformis</text><text x="115.1" y="656.2" fill="grey" class="flag">[?]</text><text x="137.1" y="656.2" fill="#999" class="taxonLabel">Eccentrotheca</text><text x="96.7" y="666" fill="grey" class="flag">[?]</text><text x="118.7" y="666" fill="#999" class="taxonLabel">Cotyledion tylodes</text><text x="78.4" y="675.8" fill="grey" class="flag">[?]</text><text x="100.4" y="675.8" fill="#999" class="taxonLabel">Namacalathus</text><text x="60" y="685.6" fill="grey" class="flag">[?]</text><text x="82" y="685.6" fill="#999" class="taxonLabel">Phoronis</text><text x="23.3" y="715" fill="grey" class="flag">[?]</text><text x="45.3" y="715" fill="#999" class="taxonLabel">Loxosomella</text><path d="M5,698.5V685H23.3M23.3,685V672.7H41.7M41.7,672.7V662.8H60M60,662.8V652.7H78.4M78.4,652.7V642.4H96.7M96.7,642.4V631.5H115.1M115.1,631.5V619.5H133.4M133.4,619.5V605.4H151.8M151.8,605.4V586.9H170.1M170.1,586.9V559.8H188.5M188.5,559.8V515.3H206.8M206.8,515.3V436.1H225.2M225.2,436.1V304.4H243.5M243.5,304.4V288.4H261.8M261.8,288.4V266.2H280.2M280.2,266.2V231.7H298.5M298.5,231.7V177.3H316.9M316.9,177.3V112.5H335.2M335.2,112.5V95.5H353.6M353.6,95.5V76.3H371.9M371.9,76.3V55H390.3M390.3,55V39.4H408.6M408.6,39.4V27.8H427M427,27.8V19.2H445.3M445.3,19.2V11.9H463.7M463.7,11.9V7H482M463.7,11.9V16.8H482M445.3,19.2V26.6H463.7M427,27.8V36.4H445.3M408.6,39.4V51.1H427M427,51.1V46.2H445.3M427,51.1V56H445.3M390.3,55V70.6H408.6M408.6,70.6V65.8H427M408.6,70.6V75.5H427M371.9,76.3V97.6H390.3M390.3,97.6V90.2H408.6M408.6,90.2V85.3H427M408.6,90.2V95.1H427M390.3,97.6V104.9H408.6M353.6,95.5V114.7H371.9M335.2,112.5V129.4H353.6M353.6,129.4V124.5H371.9M353.6,129.4V134.3H371.9M298.5,231.7V286.1H316.9M316.9,286.1V281.2H335.2M316.9,286.1V291H335.2M280.2,266.2V300.8H298.5M261.8,288.4V310.5H280.2M243.5,304.4V320.3H261.8M225.2,436.1V567.9H243.5M243.5,567.9V551.1H261.8M261.8,551.1V574.9H280.2M243.5,567.9V584.7H261.8M206.8,515.3V594.5H225.2M188.5,559.8V604.3H206.8M170.1,586.9V614.1H188.5M151.8,605.4V623.9H170.1M133.4,619.5V633.7H151.8M115.1,631.5V643.5H133.4M96.7,642.4V653.2H115.1M78.4,652.7V663H96.7M60,662.8V672.8H78.4M41.7,672.7V682.6H60M23.3,685V697.3H41.7M41.7,697.3V692.4H60M41.7,697.3V702.2H60M5,698.5V712H23.3" stroke="darkgrey"></path><path d="M316.9,177.3V242.1H335.2M335.2,242.1V221.3H353.6M353.6,221.3V210.5H371.9M371.9,210.5V198.5H390.3M390.3,198.5V184.5H408.6M408.6,184.5V171H427M427,171V158.8H445.3M445.3,158.8V149H463.7M463.7,149V144.1H482M463.7,149V153.9H482M445.3,158.8V168.6H463.7M463.7,168.6V163.7H482M463.7,168.6V173.5H482M427,171V183.2H445.3M408.6,184.5V197.9H427M427,197.9V193H445.3M427,197.9V202.8H445.3M390.3,198.5V212.6H408.6M371.9,210.5V222.4H390.3M353.6,221.3V232.2H371.9M335.2,242.1V262.8H353.6M353.6,262.8V254.2H371.9M371.9,254.2V246.9H390.3M390.3,246.9V242H408.6M390.3,246.9V251.8H408.6M371.9,254.2V261.6H390.3M353.6,262.8V271.4H371.9" stroke="#91bfdb"></path><path d="M261.8,551.1V527.2H280.2M280.2,527.2V497.9H298.5M298.5,497.9V469.8H316.9M316.9,469.8V433H335.2M335.2,433V413.5H353.6M353.6,413.5V389.2H371.9M371.9,389.2V366.2H390.3M390.3,366.2V353.4H408.6M408.6,353.4V342.4H427M427,342.4V335H445.3M445.3,335V330.1H463.7M445.3,335V339.9H463.7M427,342.4V349.7H445.3M408.6,353.4V364.4H427M427,364.4V359.5H445.3M427,364.4V369.3H445.3M390.3,366.2V379.1H408.6M371.9,389.2V412.1H390.3M390.3,412.1V401.1H408.6M408.6,401.1V393.8H427M427,393.8V388.9H445.3M427,393.8V398.7H445.3M408.6,401.1V408.5H427M390.3,412.1V423.1H408.6M408.6,423.1V418.2H427M408.6,423.1V428H427M353.6,413.5V437.8H371.9M335.2,433V452.5H353.6M353.6,452.5V447.6H371.9M353.6,452.5V457.4H371.9M316.9,469.8V506.7H335.2M335.2,506.7V497.2H353.6M353.6,497.2V488H371.9M371.9,488V479.4H390.3M390.3,479.4V472.1H408.6M408.6,472.1V467.2H427M408.6,472.1V477H427M390.3,479.4V486.8H408.6M371.9,488V496.6H390.3M353.6,497.2V506.4H371.9M335.2,506.7V516.2H353.6M298.5,497.9V526H316.9M280.2,527.2V556.6H298.5M298.5,556.6V548H316.9M316.9,548V540.6H335.2M335.2,540.6V535.8H353.6M335.2,540.6V545.5H353.6M316.9,548V555.3H335.2M298.5,556.6V565.1H316.9" stroke="#fc8d59"></path><text x="25.3" y="688" class="node" fill="#4A6FE3">1</text><text x="43.7" y="675.7" class="node" fill="#C1C6E3">0.62</text><text x="62" y="665.8" class="node" fill="#4A6FE3">1</text><text x="80.4" y="655.7" class="node" fill="#E498A7">0.26</text><text x="98.7" y="645.4" class="node" fill="#4A6FE3">1</text><text x="117.1" y="634.5" class="node" fill="#E392A2">0.24</text><text x="135.4" y="622.5" class="node" fill="#4A6FE3">1</text><text x="153.8" y="608.4" class="node" fill="#4A6FE3">1</text><text x="172.1" y="589.9" class="node" fill="#4A6FE3">1</text><text x="190.5" y="562.8" class="node" fill="#DADBE3">0.53</text><text x="208.8" y="518.3" class="node" fill="#4A6FE3">1</text><text x="227.2" y="439.1" class="node" fill="#4A6FE3">1</text><text x="245.5" y="307.4" class="node" fill="#4A6FE3">1</text><text x="263.8" y="291.4" class="node" fill="#4A6FE3">1</text><text x="282.2" y="269.2" class="node" fill="#4A6FE3">1</text><text x="300.5" y="234.7" class="node" fill="#4A6FE3">1</text><text x="318.9" y="180.3" class="node" fill="#4A6FE3">1</text><text x="337.2" y="115.5" class="node" fill="#4A6FE3">1</text><text x="355.6" y="98.5" class="node" fill="#DADBE3">0.53</text><text x="373.9" y="79.3" class="node" fill="#768BE1">0.88</text><text x="392.3" y="58" class="node" fill="#9AA6E2">0.76</text><text x="410.6" y="42.4" class="node" fill="#768BE1">0.88</text><text x="429" y="30.8" class="node" fill="#627DE1">0.94</text><text x="447.3" y="22.2" class="node" fill="#627DE1">0.94</text><text x="465.7" y="14.9" class="node" fill="#DADBE3">0.53</text><text x="429" y="54.1" class="node" fill="#4A6FE3">1</text><text x="410.6" y="73.6" class="node" fill="#D2D4E3">0.56</text><text x="392.3" y="100.6" class="node" fill="#6D84E1">0.91</text><text x="410.6" y="93.2" class="node" fill="#4A6FE3">1</text><text x="355.6" y="132.4" class="node" fill="#4A6FE3">1</text><text x="337.2" y="245.1" class="node" fill="#4A6FE3">1</text><text x="355.6" y="224.3" class="node" fill="#4A6FE3">1</text><text x="373.9" y="213.5" class="node" fill="#4A6FE3">1</text><text x="392.3" y="201.5" class="node" fill="#4A6FE3">1</text><text x="410.6" y="187.5" class="node" fill="#4A6FE3">1</text><text x="429" y="174" class="node" fill="#4A6FE3">1</text><text x="447.3" y="161.8" class="node" fill="#E2E2E2">0.5</text><text x="465.7" y="152" class="node" fill="#4A6FE3">1</text><text x="465.7" y="171.6" class="node" fill="#4A6FE3">1</text><text x="429" y="200.9" class="node" fill="#4A6FE3">1</text><text x="355.6" y="265.8" class="node" fill="#4A6FE3">1</text><text x="373.9" y="257.2" class="node" fill="#4A6FE3">1</text><text x="392.3" y="249.9" class="node" fill="#4A6FE3">1</text><text x="318.9" y="289.1" class="node" fill="#4A6FE3">1</text><text x="245.5" y="570.9" class="node" fill="#4A6FE3">1</text><text x="263.8" y="554.1" class="node" fill="#4A6FE3">1</text><text x="282.2" y="530.2" class="node" fill="#929FE1">0.79</text><text x="300.5" y="500.9" class="node" fill="#D2D4E3">0.56</text><text x="318.9" y="472.8" class="node" fill="#4A6FE3">1</text><text x="337.2" y="436" class="node" fill="#4A6FE3">1</text><text x="355.6" y="416.5" class="node" fill="#627DE1">0.94</text><text x="373.9" y="392.2" class="node" fill="#627DE1">0.94</text><text x="392.3" y="369.2" class="node" fill="#4A6FE3">1</text><text x="410.6" y="356.4" class="node" fill="#E5D0D3">0.44</text><text x="429" y="345.4" class="node" fill="#4A6FE3">1</text><text x="447.3" y="338" class="node" fill="#E5D0D3">0.44</text><text x="429" y="367.4" class="node" fill="#4A6FE3">1</text><text x="392.3" y="415.1" class="node" fill="#4A6FE3">1</text><text x="410.6" y="404.1" class="node" fill="#4A6FE3">1</text><text x="429" y="396.8" class="node" fill="#4A6FE3">1</text><text x="410.6" y="426.1" class="node" fill="#4A6FE3">1</text><text x="355.6" y="455.5" class="node" fill="#4A6FE3">1</text><text x="337.2" y="509.7" class="node" fill="#4A6FE3">1</text><text x="355.6" y="500.2" class="node" fill="#E6B4BD">0.35</text><text x="373.9" y="491" class="node" fill="#929FE1">0.79</text><text x="392.3" y="482.4" class="node" fill="#E392A2">0.24</text><text x="410.6" y="475.1" class="node" fill="#4A6FE3">1</text><text x="300.5" y="559.6" class="node" fill="#4A6FE3">1</text><text x="318.9" y="551" class="node" fill="#E5C7CC">0.41</text><text x="337.2" y="543.6" class="node" fill="#4A6FE3">1</text><text x="43.7" y="700.3" class="node" fill="#4A6FE3">1</text></svg>
