<svg xmlns="http://www.w3.org/2000/svg" version="1.1" viewBox="0 0 682 720" preserveAspectRatio="xMidYMid meet" class="tree" data-char="156"><text x="678" y="12.7" text-anchor="end" class="stepsLabel">Character adds <tspan class="score">5</tspan> to tree score</text><text x="678" y="22.4" text-anchor="end" class="stepsLabel"><tspan class="score">0</tspan> additional regions</text><text x="678" y="32.1" text-anchor="end" class="stepsLabel"></text><text x="678" y="51.5" text-anchor="end" class="stepsLabel"><tspan dy="16" fill="#34caaf">An optimal tree under:</tspan><tspan x="680" style="font-style:italic" class="notThisAn" dy="1.2em">Implied weights, k = 4.5</tspan><tspan x="680" style="font-style:italic" class="notThisAn" dy="1.2em">IW, k = 10.5</tspan><tspan x="680" style="font-style:italic" class="notThisAn" dy="1.2em">IW, k = 24</tspan><tspan x="680" style="font-style:italic" class="thisAn" dy="1.2em">Equal weights</tspan></text><text x="62.2" y="695.4" fill="#fc8d59" class="flag">[0]</text><text x="84.2" y="695.4" fill="#000" class="taxonLabel">Flustra</text><text x="62.2" y="705.2" fill="#fc8d59" class="flag">[0]</text><text x="84.2" y="705.2" fill="#000" class="taxonLabel">Amathia</text><text x="81.3" y="675.8" fill="#fc8d59" class="flag">[0]</text><text x="103.3" y="675.8" fill="#000" class="taxonLabel">Phoronis</text><text x="81.3" y="685.6" fill="#fc8d59" class="flag">[0]</text><text x="103.3" y="685.6" fill="#000" class="taxonLabel">Namacalathus</text><text x="100.4" y="656.2" fill="#fc8d59" class="flag">[0]</text><text x="122.4" y="656.2" fill="#000" class="taxonLabel">Eccentrotheca</text><text x="100.4" y="666" fill="#fc8d59" class="flag">[0]</text><text x="122.4" y="666" fill="#000" class="taxonLabel">Cotyledion tylodes</text><text x="195.8" y="597.5" fill="#fc8d59" class="flag">[0]</text><text x="217.8" y="597.5" fill="#000" class="taxonLabel">Paramicrocornus</text><text x="195.8" y="607.3" fill="#fc8d59" class="flag">[0]</text><text x="217.8" y="607.3" fill="#000" class="taxonLabel">Haplophrentis carinatus</text><text x="310.3" y="538.8" fill="#fc8d59" class="flag">[0]</text><text x="332.3" y="538.8" fill="#000" class="taxonLabel">Serpula</text><text x="310.3" y="548.5" fill="#fc8d59" class="flag">[0]</text><text x="332.3" y="548.5" fill="#000" class="taxonLabel">Capitella</text><text x="291.2" y="558.3" fill="#fc8d59" class="flag">[0]</text><text x="313.2" y="558.3" fill="#000" class="taxonLabel">Canadia spinosa</text><text x="272.1" y="568.1" fill="#fc8d59" class="flag">[0]</text><text x="294.1" y="568.1" fill="#000" class="taxonLabel">Sipunculus</text><text x="386.6" y="470.2" fill="#fc8d59" class="flag">[0]</text><text x="408.6" y="470.2" fill="#000" class="taxonLabel">Neopilina</text><text x="386.6" y="480" fill="#fc8d59" class="flag">[0]</text><text x="408.6" y="480" fill="#000" class="taxonLabel">Haliotis</text><text x="367.5" y="489.8" fill="#fc8d59" class="flag">[0]</text><text x="389.5" y="489.8" fill="#000" class="taxonLabel">Conocardium elongatum</text><text x="348.4" y="499.6" fill="#fc8d59" class="flag">[0]</text><text x="370.4" y="499.6" fill="#000" class="taxonLabel">Mytilus</text><text x="329.4" y="509.4" fill="#fc8d59" class="flag">[0]</text><text x="351.4" y="509.4" fill="#000" class="taxonLabel">Pojetaia runnegari</text><text x="310.3" y="519.2" fill="#fc8d59" class="flag">[0]</text><text x="332.3" y="519.2" fill="#000" class="taxonLabel">Dentalium</text><text x="329.4" y="450.6" fill="#fc8d59" class="flag">[0]</text><text x="351.4" y="450.6" fill="#000" class="taxonLabel">Wiwaxia corrugata</text><text x="329.4" y="460.4" fill="#fc8d59" class="flag">[0]</text><text x="351.4" y="460.4" fill="#000" class="taxonLabel">Odontogriphus omalus</text><text x="386.6" y="421.2" fill="#fc8d59" class="flag">[0]</text><text x="408.6" y="421.2" fill="#000" class="taxonLabel">Wirenia</text><text x="386.6" y="431" fill="#fc8d59" class="flag">[0]</text><text x="408.6" y="431" fill="#000" class="taxonLabel">Chaetoderma</text><text x="405.7" y="391.9" fill="#fc8d59" class="flag">[0]</text><text x="427.7" y="391.9" fill="#000" class="taxonLabel">Phthipodochiton thraivensis</text><text x="405.7" y="401.7" fill="#fc8d59" class="flag">[0]</text><text x="427.7" y="401.7" fill="#000" class="taxonLabel">Kulindroplax perissokomos</text><text x="386.6" y="411.5" fill="#fc8d59" class="flag">[0]</text><text x="408.6" y="411.5" fill="#000" class="taxonLabel">Acaenoplax hayae</text><text x="443.8" y="333.1" fill="#91bfdb" class="flag">[1]</text><text x="465.8" y="333.1" fill="#000" class="taxonLabel">Tonicella</text><text x="443.8" y="342.9" fill="#91bfdb" class="flag">[1]</text><text x="465.8" y="342.9" fill="#000" class="taxonLabel">Mopalia</text><text x="424.8" y="352.7" fill="#fc8d59" class="flag">[0]</text><text x="446.8" y="352.7" fill="#000" class="taxonLabel">Leptochiton</text><text x="405.7" y="362.5" fill="#fc8d59" class="flag">[0]</text><text x="427.7" y="362.5" fill="#000" class="taxonLabel">Glaphurochiton carbonarius</text><text x="386.6" y="372.3" fill="#fc8d59" class="flag">[0]</text><text x="408.6" y="372.3" fill="#000" class="taxonLabel">Calvapilosa kroegeri</text><text x="367.5" y="382.1" fill="#fc8d59" class="flag">[0]</text><text x="389.5" y="382.1" fill="#000" class="taxonLabel">Polysacos vickersianum</text><text x="329.4" y="440.8" fill="#fc8d59" class="flag">[0]</text><text x="351.4" y="440.8" fill="#000" class="taxonLabel">Siphogonuchites multa</text><text x="272.1" y="529" fill="#fc8d59" class="flag">[0]</text><text x="294.1" y="529" fill="#000" class="taxonLabel">Pelagiella</text><text x="234" y="577.9" fill="#fc8d59" class="flag">[0]</text><text x="256" y="577.9" fill="#000" class="taxonLabel">Bactrotheca</text><text x="214.9" y="587.7" fill="#fc8d59" class="flag">[0]</text><text x="236.9" y="587.7" fill="#000" class="taxonLabel">Cupitheca holocyclata</text><text x="291.2" y="284.2" fill="#91bfdb" class="flag">[1]</text><text x="313.2" y="284.2" fill="#000" class="taxonLabel">Mickwitzia muralensis</text><text x="291.2" y="294" fill="#fc8d59" class="flag">[0]</text><text x="313.2" y="294" fill="#000" class="taxonLabel">Heliomedusa orienta</text><text x="367.5" y="245" fill="#fc8d59" class="flag">[0]</text><text x="389.5" y="245" fill="#000" class="taxonLabel">Novocrania</text><text x="367.5" y="254.8" fill="#fc8d59" class="flag">[0]</text><text x="389.5" y="254.8" fill="#000" class="taxonLabel">Craniops</text><text x="348.4" y="264.6" fill="#fc8d59" class="flag">[0]</text><text x="370.4" y="264.6" fill="#000" class="taxonLabel">Ussunia</text><text x="329.4" y="274.4" fill="#91bfdb" class="flag">[1]</text><text x="351.4" y="274.4" fill="#000" class="taxonLabel">Gasconsia</text><text x="405.7" y="196" fill="#91bfdb" class="flag">[1]</text><text x="427.7" y="196" fill="#000" class="taxonLabel">Pelagodiscus atlanticus</text><text x="405.7" y="205.8" fill="#91bfdb" class="flag">[1]</text><text x="427.7" y="205.8" fill="#000" class="taxonLabel">Mummpikia nuda</text><text x="462.9" y="147.1" fill="#91bfdb" class="flag">[1]</text><text x="484.9" y="147.1" fill="#000" class="taxonLabel">Siphonobolus priscus</text><text x="462.9" y="156.9" fill="#91bfdb" class="flag">[1]</text><text x="484.9" y="156.9" fill="#000" class="taxonLabel">Acanthotretella spinosa</text><text x="443.8" y="166.7" fill="#91bfdb" class="flag">[1]</text><text x="465.8" y="166.7" fill="#000" class="taxonLabel">Clupeafumosus socialis</text><text x="424.8" y="176.5" fill="#91bfdb" class="flag">[1]</text><text x="446.8" y="176.5" fill="#000" class="taxonLabel">Lingulosacculus</text><text x="405.7" y="186.2" fill="#91bfdb" class="flag">[1]</text><text x="427.7" y="186.2" fill="#000" class="taxonLabel">Lingulellotreta malongensis</text><text x="367.5" y="215.6" fill="#91bfdb" class="flag">[1]</text><text x="389.5" y="215.6" fill="#000" class="taxonLabel">Botsfordia</text><text x="348.4" y="225.4" fill="#91bfdb" class="flag">[1]</text><text x="370.4" y="225.4" fill="#000" class="taxonLabel">Eoobolus</text><text x="329.4" y="235.2" fill="#fc8d59" class="flag">[0]</text><text x="351.4" y="235.2" fill="#000" class="taxonLabel">Lingula</text><text x="329.4" y="127.5" fill="#91bfdb" class="flag">[1]</text><text x="351.4" y="127.5" fill="#000" class="taxonLabel">Micromitra</text><text x="329.4" y="137.3" fill="#91bfdb" class="flag">[1]</text><text x="351.4" y="137.3" fill="#000" class="taxonLabel">Askepasma toddense</text><text x="367.5" y="98.1" fill="grey" class="flag">[?]</text><text x="389.5" y="98.1" fill="#999" class="taxonLabel">Yuganotheca elegans</text><text x="367.5" y="107.9" fill="#91bfdb" class="flag">[1]</text><text x="389.5" y="107.9" fill="#000" class="taxonLabel">Tomteluva perturbata</text><text x="386.6" y="78.5" fill="#91bfdb" class="flag">[1]</text><text x="408.6" y="78.5" fill="#000" class="taxonLabel">Coolinia pecten</text><text x="386.6" y="88.3" fill="#91bfdb" class="flag">[1]</text><text x="408.6" y="88.3" fill="#000" class="taxonLabel">Antigonambonites planus</text><text x="482" y="10" fill="#91bfdb" class="flag">[1]</text><text x="504" y="10" fill="#000" class="taxonLabel">Terebratulina</text><text x="482" y="19.8" fill="#91bfdb" class="flag">[1]</text><text x="504" y="19.8" fill="#000" class="taxonLabel">Orthis</text><text x="462.9" y="29.6" fill="#91bfdb" class="flag">[1]</text><text x="484.9" y="29.6" fill="#000" class="taxonLabel">Alisina</text><text x="443.8" y="39.4" fill="grey" class="flag">[?]</text><text x="465.8" y="39.4" fill="#999" class="taxonLabel">Longtancunella chengjiangensis</text><text x="424.8" y="49.2" fill="#91bfdb" class="flag">[1]</text><text x="446.8" y="49.2" fill="#000" class="taxonLabel">Glyptoria</text><text x="405.7" y="59" fill="#91bfdb" class="flag">[1]</text><text x="427.7" y="59" fill="#000" class="taxonLabel">Nisusia sulcata</text><text x="386.6" y="68.8" fill="#91bfdb" class="flag">[1]</text><text x="408.6" y="68.8" fill="#000" class="taxonLabel">Kutorgina chengjiangensis</text><text x="329.4" y="117.7" fill="#91bfdb" class="flag">[1]</text><text x="351.4" y="117.7" fill="#000" class="taxonLabel">Salanygolina</text><text x="253" y="303.8" fill="#91bfdb" class="flag">[1]</text><text x="275" y="303.8" fill="#000" class="taxonLabel">Micrina</text><text x="234" y="313.5" fill="#91bfdb" class="flag">[1]</text><text x="256" y="313.5" fill="#000" class="taxonLabel">Paterimitra</text><text x="214.9" y="323.3" fill="#fc8d59" class="flag">[0]</text><text x="236.9" y="323.3" fill="#000" class="taxonLabel">Pedunculotheca diania</text><text x="157.6" y="617.1" fill="#fc8d59" class="flag">[0]</text><text x="179.6" y="617.1" fill="#000" class="taxonLabel">Halkieria evangelista</text><text x="138.6" y="626.9" fill="#fc8d59" class="flag">[0]</text><text x="160.6" y="626.9" fill="#000" class="taxonLabel">Orthrozanclus</text><text x="119.5" y="636.7" fill="#fc8d59" class="flag">[0]</text><text x="141.5" y="636.7" fill="#000" class="taxonLabel">Yilingia spiciformis</text><text x="100.4" y="646.5" fill="#fc8d59" class="flag">[0]</text><text x="122.4" y="646.5" fill="#000" class="taxonLabel">Dailyatia</text><text x="24.1" y="715" fill="#fc8d59" class="flag">[0]</text><text x="46.1" y="715" fill="#000" class="taxonLabel">Loxosomella</text><path d="M5,695.5V679H24.1M24.1,679V660.6H43.2M43.2,660.6V643.5H62.2M62.2,643.5V628.9H81.3M81.3,628.9V614.3H100.4M100.4,614.3V594.9H119.5M119.5,594.9V565.9H138.6M138.6,565.9V517.8H157.6M157.6,517.8V436.2H176.7M176.7,436.2V304.4H195.8M310.3,221.5V232.2H329.4M310.3,262.8V254.2H329.4M329.4,254.2V246.9H348.4M348.4,246.9V242H367.5M348.4,246.9V251.8H367.5M329.4,254.2V261.6H348.4M272.1,286.1V291H291.2M195.8,304.4V320.3H214.9M176.7,436.2V567.9H195.8M195.8,567.9V551.1H214.9M214.9,551.1V527.3H234M234,527.3V498H253M253,498V470.1H272.1M272.1,470.1V433.4H291.2M291.2,433.4V414.3H310.3M310.3,414.3V390.9H329.4M329.4,390.9V369.6H348.4M348.4,369.6V360.1H367.5M367.5,360.1V350.9H386.6M386.6,350.9V342.4H405.7M405.7,342.4V349.7H424.8M386.6,350.9V359.5H405.7M367.5,360.1V369.3H386.6M348.4,369.6V379.1H367.5M329.4,390.9V412.1H348.4M348.4,412.1V401.1H367.5M367.5,401.1V393.8H386.6M386.6,393.8V388.9H405.7M386.6,393.8V398.7H405.7M367.5,401.1V408.5H386.6M348.4,412.1V423.1H367.5M367.5,423.1V418.2H386.6M367.5,423.1V428H386.6M310.3,414.3V437.8H329.4M291.2,433.4V452.5H310.3M310.3,452.5V447.6H329.4M310.3,452.5V457.4H329.4M272.1,470.1V506.7H291.2M291.2,506.7V497.2H310.3M310.3,497.2V488H329.4M329.4,488V479.4H348.4M348.4,479.4V472.1H367.5M367.5,472.1V467.2H386.6M367.5,472.1V477H386.6M348.4,479.4V486.8H367.5M329.4,488V496.6H348.4M310.3,497.2V506.4H329.4M291.2,506.7V516.2H310.3M253,498V526H272.1M234,527.3V556.6H253M253,556.6V548H272.1M272.1,548V540.6H291.2M291.2,540.6V535.8H310.3M291.2,540.6V545.5H310.3M272.1,548V555.3H291.2M253,556.6V565.1H272.1M214.9,551.1V574.9H234M195.8,567.9V584.7H214.9M157.6,517.8V599.4H176.7M176.7,599.4V594.5H195.8M176.7,599.4V604.3H195.8M138.6,565.9V614.1H157.6M119.5,594.9V623.9H138.6M100.4,614.3V633.7H119.5M81.3,628.9V643.5H100.4M62.2,643.5V658.1H81.3M81.3,658.1V653.2H100.4M81.3,658.1V663H100.4M43.2,660.6V677.7H62.2M62.2,677.7V672.8H81.3M62.2,677.7V682.6H81.3M24.1,679V697.3H43.2M43.2,697.3V692.4H62.2M43.2,697.3V702.2H62.2M5,695.5V712H24.1" stroke="#fc8d59"></path><path d="M195.8,304.4V288.5H214.9M214.9,288.5V266.5H234M234,266.5V232.2H253M253,232.2V178.3H272.1M272.1,178.3V114.4H291.2M291.2,114.4V99.4H310.3M310.3,99.4V84.1H329.4M329.4,84.1V68.3H348.4M348.4,68.3V56.1H367.5M367.5,56.1V46.5H386.6M386.6,46.5V37H405.7M405.7,37V27.8H424.8M424.8,27.8V19.2H443.8M443.8,19.2V11.9H462.9M462.9,11.9V7H482M462.9,11.9V16.8H482M443.8,19.2V26.6H462.9M424.8,27.8V36.4H443.8M405.7,37V46.2H424.8M386.6,46.5V56H405.7M367.5,56.1V65.8H386.6M348.4,68.3V80.4H367.5M367.5,80.4V75.5H386.6M367.5,80.4V85.3H386.6M329.4,84.1V100H348.4M348.4,100V95.1H367.5M348.4,100V104.9H367.5M310.3,99.4V114.7H329.4M291.2,114.4V129.4H310.3M310.3,129.4V124.5H329.4M310.3,129.4V134.3H329.4M272.1,178.3V242.2H291.2M291.2,242.2V221.5H310.3M310.3,221.5V210.9H329.4M329.4,210.9V199.3H348.4M348.4,199.3V186H367.5M367.5,186V174.1H386.6M386.6,174.1V164.9H405.7M405.7,164.9V156.3H424.8M424.8,156.3V149H443.8M443.8,149V144.1H462.9M443.8,149V153.9H462.9M424.8,156.3V163.7H443.8M405.7,164.9V173.5H424.8M386.6,174.1V183.2H405.7M367.5,186V197.9H386.6M386.6,197.9V193H405.7M386.6,197.9V202.8H405.7M348.4,199.3V212.6H367.5M329.4,210.9V222.4H348.4M291.2,242.2V262.8H310.3M310.3,262.8V271.4H329.4M253,232.2V286.1H272.1M272.1,286.1V281.2H291.2M234,266.5V300.8H253M214.9,288.5V310.5H234M405.7,342.4V335H424.8M424.8,335V330.1H443.8M424.8,335V339.9H443.8" stroke="#91bfdb"></path><text x="26.1" y="682" class="node" fill="#4A6FE3">1</text><text x="45.2" y="663.6" class="node" fill="#4A6FE3">1</text><text x="64.2" y="646.5" class="node" fill="#4A6FE3">1</text><text x="83.3" y="631.9" class="node" fill="#CACDE3">0.59</text><text x="102.4" y="617.3" class="node" fill="#4A6FE3">1</text><text x="121.5" y="597.9" class="node" fill="#4A6FE3">1</text><text x="140.6" y="568.9" class="node" fill="#4A6FE3">1</text><text x="159.6" y="520.8" class="node" fill="#4A6FE3">1</text><text x="178.7" y="439.2" class="node" fill="#4A6FE3">1</text><text x="197.8" y="307.4" class="node" fill="#4A6FE3">1</text><text x="216.9" y="291.5" class="node" fill="#4A6FE3">1</text><text x="236" y="269.5" class="node" fill="#4A6FE3">1</text><text x="255" y="235.2" class="node" fill="#4A6FE3">1</text><text x="274.1" y="181.3" class="node" fill="#4A6FE3">1</text><text x="293.2" y="117.4" class="node" fill="#4A6FE3">1</text><text x="312.3" y="102.4" class="node" fill="#DADBE3">0.53</text><text x="331.4" y="87.1" class="node" fill="#E5C7CC">0.41</text><text x="350.4" y="71.3" class="node" fill="#DD6C86">0.12</text><text x="369.5" y="59.1" class="node" fill="#D85778">0.06</text><text x="388.6" y="49.5" class="node" fill="#DD6C86">0.12</text><text x="407.7" y="40" class="node" fill="#DD6C86">0.12</text><text x="426.8" y="30.8" class="node" fill="#627DE1">0.94</text><text x="445.8" y="22.2" class="node" fill="#627DE1">0.94</text><text x="464.9" y="14.9" class="node" fill="#4A6FE3">1</text><text x="369.5" y="83.4" class="node" fill="#6D84E1">0.91</text><text x="350.4" y="103" class="node" fill="#4A6FE3">1</text><text x="312.3" y="132.4" class="node" fill="#4A6FE3">1</text><text x="293.2" y="245.2" class="node" fill="#4A6FE3">1</text><text x="312.3" y="224.5" class="node" fill="#4A6FE3">1</text><text x="331.4" y="213.9" class="node" fill="#4A6FE3">1</text><text x="350.4" y="202.3" class="node" fill="#4A6FE3">1</text><text x="369.5" y="189" class="node" fill="#4A6FE3">1</text><text x="388.6" y="177.1" class="node" fill="#4A6FE3">1</text><text x="407.7" y="167.9" class="node" fill="#E17F94">0.18</text><text x="426.8" y="159.3" class="node" fill="#4A6FE3">1</text><text x="445.8" y="152" class="node" fill="#4A6FE3">1</text><text x="388.6" y="200.9" class="node" fill="#4A6FE3">1</text><text x="312.3" y="265.8" class="node" fill="#4A6FE3">1</text><text x="331.4" y="257.2" class="node" fill="#4A6FE3">1</text><text x="350.4" y="249.9" class="node" fill="#4A6FE3">1</text><text x="274.1" y="289.1" class="node" fill="#4A6FE3">1</text><text x="197.8" y="570.9" class="node" fill="#4A6FE3">1</text><text x="216.9" y="554.1" class="node" fill="#4A6FE3">1</text><text x="236" y="530.3" class="node" fill="#929FE1">0.79</text><text x="255" y="501" class="node" fill="#D2D4E3">0.56</text><text x="274.1" y="473.1" class="node" fill="#4A6FE3">1</text><text x="293.2" y="436.4" class="node" fill="#4A6FE3">1</text><text x="312.3" y="417.3" class="node" fill="#627DE1">0.94</text><text x="331.4" y="393.9" class="node" fill="#627DE1">0.94</text><text x="350.4" y="372.6" class="node" fill="#4A6FE3">1</text><text x="369.5" y="363.1" class="node" fill="#D2D4E3">0.56</text><text x="388.6" y="353.9" class="node" fill="#E5D0D3">0.44</text><text x="407.7" y="345.4" class="node" fill="#4A6FE3">1</text><text x="426.8" y="338" class="node" fill="#4A6FE3">1</text><text x="350.4" y="415.1" class="node" fill="#4A6FE3">1</text><text x="369.5" y="404.1" class="node" fill="#4A6FE3">1</text><text x="388.6" y="396.8" class="node" fill="#4A6FE3">1</text><text x="369.5" y="426.1" class="node" fill="#4A6FE3">1</text><text x="312.3" y="455.5" class="node" fill="#4A6FE3">1</text><text x="293.2" y="509.7" class="node" fill="#4A6FE3">1</text><text x="312.3" y="500.2" class="node" fill="#E6ABB6">0.32</text><text x="331.4" y="491" class="node" fill="#929FE1">0.79</text><text x="350.4" y="482.4" class="node" fill="#E17F94">0.18</text><text x="369.5" y="475.1" class="node" fill="#4A6FE3">1</text><text x="255" y="559.6" class="node" fill="#4A6FE3">1</text><text x="274.1" y="551" class="node" fill="#E5C7CC">0.41</text><text x="293.2" y="543.6" class="node" fill="#E4D9DB">0.47</text><text x="178.7" y="602.4" class="node" fill="#E59FAC">0.29</text><text x="83.3" y="661.1" class="node" fill="#E2899B">0.21</text><text x="64.2" y="680.7" class="node" fill="#4A6FE3">1</text><text x="45.2" y="700.3" class="node" fill="#4A6FE3">1</text></svg>
