<svg xmlns="http://www.w3.org/2000/svg" version="1.1" viewBox="0 0 682 720" preserveAspectRatio="xMidYMid meet" class="tree" data-char="229"><text x="678" y="12.7" text-anchor="end" class="stepsLabel">Character adds <tspan class="score">2</tspan> to tree score</text><text x="678" y="22.4" text-anchor="end" class="stepsLabel"><tspan class="score">0</tspan> additional regions</text><text x="678" y="32.1" text-anchor="end" class="stepsLabel"></text><text x="678" y="51.5" text-anchor="end" class="stepsLabel"><tspan dy="16" fill="#34caaf">An optimal tree under:</tspan><tspan x="680" style="font-style:italic" class="notThisAn" dy="1.2em">Implied weights, k = 4.5</tspan><tspan x="680" style="font-style:italic" class="notThisAn" dy="1.2em">IW, k = 10.5</tspan><tspan x="680" style="font-style:italic" class="notThisAn" dy="1.2em">IW, k = 24</tspan><tspan x="680" style="font-style:italic" class="thisAn" dy="1.2em">Equal weights</tspan></text><text x="62.2" y="695.4" fill="#fc8d59" class="flag">[0]</text><text x="84.2" y="695.4" fill="#000" class="taxonLabel">Flustra</text><text x="62.2" y="705.2" fill="#fc8d59" class="flag">[0]</text><text x="84.2" y="705.2" fill="#000" class="taxonLabel">Amathia</text><text x="119.5" y="656.2" fill="grey" class="flag">[?]</text><text x="141.5" y="656.2" fill="#999" class="taxonLabel">Eccentrotheca</text><text x="119.5" y="666" fill="grey" class="flag">[?]</text><text x="141.5" y="666" fill="#999" class="taxonLabel">Cotyledion tylodes</text><text x="348.4" y="538.8" fill="#91bfdb" class="flag">[1]</text><text x="370.4" y="538.8" fill="#000" class="taxonLabel">Capitella</text><text x="348.4" y="548.5" fill="grey" class="flag">[?]</text><text x="370.4" y="548.5" fill="#999" class="taxonLabel">Canadia spinosa</text><text x="329.4" y="558.3" fill="#91bfdb" class="flag">[1]</text><text x="351.4" y="558.3" fill="#000" class="taxonLabel">Serpula</text><text x="310.3" y="568.1" fill="#91bfdb" class="flag">[1]</text><text x="332.3" y="568.1" fill="#000" class="taxonLabel">Sipunculus</text><text x="386.6" y="499.6" fill="grey" class="flag">[?]</text><text x="408.6" y="499.6" fill="#999" class="taxonLabel">Pojetaia runnegari</text><text x="386.6" y="509.4" fill="#91bfdb" class="flag">[1]</text><text x="408.6" y="509.4" fill="#000" class="taxonLabel">Mytilus</text><text x="405.7" y="470.2" fill="grey" class="flag">[?]</text><text x="427.7" y="470.2" fill="#999" class="taxonLabel">Neopilina</text><text x="405.7" y="480" fill="grey" class="flag">[?]</text><text x="427.7" y="480" fill="#999" class="taxonLabel">Conocardium elongatum</text><text x="386.6" y="489.8" fill="#91bfdb" class="flag">[1]</text><text x="408.6" y="489.8" fill="#000" class="taxonLabel">Haliotis</text><text x="348.4" y="519.2" fill="#91bfdb" class="flag">[1]</text><text x="370.4" y="519.2" fill="#000" class="taxonLabel">Dentalium</text><text x="329.4" y="529" fill="grey" class="flag">[?]</text><text x="351.4" y="529" fill="#999" class="taxonLabel">Pelagiella</text><text x="348.4" y="450.6" fill="grey" class="flag">[?]</text><text x="370.4" y="450.6" fill="#999" class="taxonLabel">Wiwaxia corrugata</text><text x="348.4" y="460.4" fill="grey" class="flag">[?]</text><text x="370.4" y="460.4" fill="#999" class="taxonLabel">Odontogriphus omalus</text><text x="405.7" y="421.2" fill="#91bfdb" class="flag">[1]</text><text x="427.7" y="421.2" fill="#000" class="taxonLabel">Wirenia</text><text x="405.7" y="431" fill="grey" class="flag">[?]</text><text x="427.7" y="431" fill="#999" class="taxonLabel">Chaetoderma</text><text x="424.8" y="391.9" fill="grey" class="flag">[?]</text><text x="446.8" y="391.9" fill="#999" class="taxonLabel">Phthipodochiton thraivensis</text><text x="424.8" y="401.7" fill="grey" class="flag">[?]</text><text x="446.8" y="401.7" fill="#999" class="taxonLabel">Kulindroplax perissokomos</text><text x="405.7" y="411.5" fill="grey" class="flag">[?]</text><text x="427.7" y="411.5" fill="#999" class="taxonLabel">Acaenoplax hayae</text><text x="462.9" y="333.1" fill="#91bfdb" class="flag">[1]</text><text x="484.9" y="333.1" fill="#000" class="taxonLabel">Tonicella</text><text x="462.9" y="342.9" fill="#91bfdb" class="flag">[1]</text><text x="484.9" y="342.9" fill="#000" class="taxonLabel">Mopalia</text><text x="443.8" y="352.7" fill="#91bfdb" class="flag">[1]</text><text x="465.8" y="352.7" fill="#000" class="taxonLabel">Leptochiton</text><text x="424.8" y="362.5" fill="grey" class="flag">[?]</text><text x="446.8" y="362.5" fill="#999" class="taxonLabel">Glaphurochiton carbonarius</text><text x="405.7" y="372.3" fill="grey" class="flag">[?]</text><text x="427.7" y="372.3" fill="#999" class="taxonLabel">Calvapilosa kroegeri</text><text x="386.6" y="382.1" fill="grey" class="flag">[?]</text><text x="408.6" y="382.1" fill="#999" class="taxonLabel">Polysacos vickersianum</text><text x="348.4" y="440.8" fill="grey" class="flag">[?]</text><text x="370.4" y="440.8" fill="#999" class="taxonLabel">Siphogonuchites multa</text><text x="272.1" y="577.9" fill="grey" class="flag">[?]</text><text x="294.1" y="577.9" fill="#999" class="taxonLabel">Bactrotheca</text><text x="253" y="587.7" fill="grey" class="flag">[?]</text><text x="275" y="587.7" fill="#999" class="taxonLabel">Cupitheca holocyclata</text><text x="329.4" y="284.2" fill="grey" class="flag">[?]</text><text x="351.4" y="284.2" fill="#999" class="taxonLabel">Mickwitzia muralensis</text><text x="329.4" y="294" fill="grey" class="flag">[?]</text><text x="351.4" y="294" fill="#999" class="taxonLabel">Heliomedusa orienta</text><text x="405.7" y="245" fill="#fc8d59" class="flag">[0]</text><text x="427.7" y="245" fill="#000" class="taxonLabel">Novocrania</text><text x="405.7" y="254.8" fill="grey" class="flag">[?]</text><text x="427.7" y="254.8" fill="#999" class="taxonLabel">Craniops</text><text x="386.6" y="264.6" fill="grey" class="flag">[?]</text><text x="408.6" y="264.6" fill="#999" class="taxonLabel">Ussunia</text><text x="367.5" y="274.4" fill="grey" class="flag">[?]</text><text x="389.5" y="274.4" fill="#999" class="taxonLabel">Gasconsia</text><text x="443.8" y="196" fill="#fc8d59" class="flag">[0]</text><text x="465.8" y="196" fill="#000" class="taxonLabel">Pelagodiscus atlanticus</text><text x="443.8" y="205.8" fill="grey" class="flag">[?]</text><text x="465.8" y="205.8" fill="#999" class="taxonLabel">Mummpikia nuda</text><text x="482" y="166.7" fill="grey" class="flag">[?]</text><text x="504" y="166.7" fill="#999" class="taxonLabel">Siphonobolus priscus</text><text x="482" y="176.5" fill="grey" class="flag">[?]</text><text x="504" y="176.5" fill="#999" class="taxonLabel">Acanthotretella spinosa</text><text x="482" y="147.1" fill="grey" class="flag">[?]</text><text x="504" y="147.1" fill="#999" class="taxonLabel">Lingulosacculus</text><text x="482" y="156.9" fill="grey" class="flag">[?]</text><text x="504" y="156.9" fill="#999" class="taxonLabel">Clupeafumosus socialis</text><text x="443.8" y="186.2" fill="grey" class="flag">[?]</text><text x="465.8" y="186.2" fill="#999" class="taxonLabel">Lingulellotreta malongensis</text><text x="405.7" y="215.6" fill="grey" class="flag">[?]</text><text x="427.7" y="215.6" fill="#999" class="taxonLabel">Botsfordia</text><text x="386.6" y="225.4" fill="grey" class="flag">[?]</text><text x="408.6" y="225.4" fill="#999" class="taxonLabel">Eoobolus</text><text x="367.5" y="235.2" fill="#fc8d59" class="flag">[0]</text><text x="389.5" y="235.2" fill="#000" class="taxonLabel">Lingula</text><text x="367.5" y="127.5" fill="grey" class="flag">[?]</text><text x="389.5" y="127.5" fill="#999" class="taxonLabel">Micromitra</text><text x="367.5" y="137.3" fill="grey" class="flag">[?]</text><text x="389.5" y="137.3" fill="#999" class="taxonLabel">Askepasma toddense</text><text x="424.8" y="88.3" fill="grey" class="flag">[?]</text><text x="446.8" y="88.3" fill="#999" class="taxonLabel">Yuganotheca elegans</text><text x="424.8" y="98.1" fill="grey" class="flag">[?]</text><text x="446.8" y="98.1" fill="#999" class="taxonLabel">Tomteluva perturbata</text><text x="405.7" y="107.9" fill="grey" class="flag">[?]</text><text x="427.7" y="107.9" fill="#999" class="taxonLabel">Longtancunella chengjiangensis</text><text x="386.6" y="117.7" fill="grey" class="flag">[?]</text><text x="408.6" y="117.7" fill="#999" class="taxonLabel">Salanygolina</text><text x="405.7" y="68.8" fill="grey" class="flag">[?]</text><text x="427.7" y="68.8" fill="#999" class="taxonLabel">Nisusia sulcata</text><text x="405.7" y="78.5" fill="grey" class="flag">[?]</text><text x="427.7" y="78.5" fill="#999" class="taxonLabel">Kutorgina chengjiangensis</text><text x="424.8" y="49.2" fill="grey" class="flag">[?]</text><text x="446.8" y="49.2" fill="#999" class="taxonLabel">Coolinia pecten</text><text x="424.8" y="59" fill="grey" class="flag">[?]</text><text x="446.8" y="59" fill="#999" class="taxonLabel">Antigonambonites planus</text><text x="462.9" y="10" fill="#fc8d59" class="flag">[0]</text><text x="484.9" y="10" fill="#000" class="taxonLabel">Terebratulina</text><text x="462.9" y="19.8" fill="grey" class="flag">[?]</text><text x="484.9" y="19.8" fill="#999" class="taxonLabel">Orthis</text><text x="443.8" y="29.6" fill="grey" class="flag">[?]</text><text x="465.8" y="29.6" fill="#999" class="taxonLabel">Alisina</text><text x="424.8" y="39.4" fill="grey" class="flag">[?]</text><text x="446.8" y="39.4" fill="#999" class="taxonLabel">Glyptoria</text><text x="291.2" y="303.8" fill="grey" class="flag">[?]</text><text x="313.2" y="303.8" fill="#999" class="taxonLabel">Micrina</text><text x="272.1" y="313.5" fill="grey" class="flag">[?]</text><text x="294.1" y="313.5" fill="#999" class="taxonLabel">Paterimitra</text><text x="253" y="323.3" fill="grey" class="flag">[?]</text><text x="275" y="323.3" fill="#999" class="taxonLabel">Pedunculotheca diania</text><text x="214.9" y="597.5" fill="grey" class="flag">[?]</text><text x="236.9" y="597.5" fill="#999" class="taxonLabel">Paramicrocornus</text><text x="195.8" y="607.3" fill="grey" class="flag">[?]</text><text x="217.8" y="607.3" fill="#999" class="taxonLabel">Haplophrentis carinatus</text><text x="176.7" y="617.1" fill="grey" class="flag">[?]</text><text x="198.7" y="617.1" fill="#999" class="taxonLabel">Halkieria evangelista</text><text x="157.6" y="626.9" fill="grey" class="flag">[?]</text><text x="179.6" y="626.9" fill="#999" class="taxonLabel">Orthrozanclus</text><text x="138.6" y="636.7" fill="grey" class="flag">[?]</text><text x="160.6" y="636.7" fill="#999" class="taxonLabel">Yilingia spiciformis</text><text x="119.5" y="646.5" fill="grey" class="flag">[?]</text><text x="141.5" y="646.5" fill="#999" class="taxonLabel">Dailyatia</text><text x="81.3" y="675.8" fill="#fc8d59" class="flag">[0]</text><text x="103.3" y="675.8" fill="#000" class="taxonLabel">Phoronis</text><text x="62.2" y="685.6" fill="grey" class="flag">[?]</text><text x="84.2" y="685.6" fill="#999" class="taxonLabel">Namacalathus</text><text x="24.1" y="715" fill="#91bfdb" class="flag">[1]</text><text x="46.1" y="715" fill="#000" class="taxonLabel">Loxosomella</text><path d="M5,698V684H24.1M24.1,684V670.7H43.2M43.2,670.7V658.8H62.2M62.2,658.8V644.8H81.3M81.3,644.8V631.5H100.4M100.4,631.5V619.5H119.5M119.5,619.5V605.3H138.6M138.6,605.3V586.7H157.6M157.6,586.7V559.4H176.7M176.7,559.4V514.5H195.8M195.8,514.5V434.5H214.9M214.9,434.5V304.1H234M234,304.1V287.9H253M253,287.9V265.3H272.1M272.1,265.3V229.8H291.2M291.2,229.8V173.5H310.3M310.3,173.5V105H329.4M329.4,105V80.6H348.4M348.4,80.6V55H367.5M367.5,55V39.4H386.6M386.6,39.4V27.8H405.7M405.7,27.8V19.2H424.8M424.8,19.2V11.9H443.8M443.8,11.9V7H462.9M443.8,11.9V16.8H462.9M424.8,19.2V26.6H443.8M405.7,27.8V36.4H424.8M386.6,39.4V51.1H405.7M405.7,51.1V46.2H424.8M405.7,51.1V56H424.8M367.5,55V70.6H386.6M386.6,70.6V65.8H405.7M386.6,70.6V75.5H405.7M348.4,80.6V106.1H367.5M367.5,106.1V97.6H386.6M386.6,97.6V90.2H405.7M405.7,90.2V85.3H424.8M405.7,90.2V95.1H424.8M386.6,97.6V104.9H405.7M367.5,106.1V114.7H386.6M329.4,105V129.4H348.4M348.4,129.4V124.5H367.5M348.4,129.4V134.3H367.5M310.3,173.5V242.1H329.4M329.4,242.1V221.3H348.4M348.4,221.3V210.5H367.5M367.5,210.5V198.5H386.6M386.6,198.5V184.5H405.7M405.7,184.5V171H424.8M424.8,171V158.8H443.8M443.8,158.8V149H462.9M462.9,149V144.1H482M462.9,149V153.9H482M443.8,158.8V168.6H462.9M462.9,168.6V163.7H482M462.9,168.6V173.5H482M424.8,171V183.2H443.8M405.7,184.5V197.9H424.8M424.8,197.9V193H443.8M424.8,197.9V202.8H443.8M386.6,198.5V212.6H405.7M367.5,210.5V222.4H386.6M348.4,221.3V232.2H367.5M329.4,242.1V262.8H348.4M348.4,262.8V254.2H367.5M367.5,254.2V246.9H386.6M386.6,246.9V242H405.7M386.6,246.9V251.8H405.7M367.5,254.2V261.6H386.6M348.4,262.8V271.4H367.5M291.2,229.8V286.1H310.3M310.3,286.1V281.2H329.4M310.3,286.1V291H329.4M272.1,265.3V300.8H291.2M253,287.9V310.5H272.1M234,304.1V320.3H253M214.9,434.5V564.9H234M195.8,514.5V594.5H214.9M176.7,559.4V604.3H195.8M157.6,586.7V614.1H176.7M138.6,605.3V623.9H157.6M119.5,619.5V633.7H138.6M100.4,631.5V643.5H119.5M81.3,644.8V658.1H100.4M100.4,658.1V653.2H119.5M100.4,658.1V663H119.5M62.2,658.8V672.8H81.3M43.2,670.7V682.6H62.2M24.1,684V697.3H43.2M43.2,697.3V692.4H62.2M43.2,697.3V702.2H62.2" stroke="#fc8d59"></path><path d="M234,564.9V545.1H253M253,545.1V574.9H272.1M234,564.9V584.7H253" stroke="darkgrey"></path><path d="M253,545.1V515.3H272.1M272.1,515.3V474H291.2M291.2,474V433.4H310.3M310.3,433.4V414.3H329.4M329.4,414.3V390.9H348.4M348.4,390.9V369.6H367.5M367.5,369.6V360.1H386.6M386.6,360.1V350.9H405.7M405.7,350.9V342.4H424.8M424.8,342.4V335H443.8M443.8,335V330.1H462.9M443.8,335V339.9H462.9M424.8,342.4V349.7H443.8M405.7,350.9V359.5H424.8M386.6,360.1V369.3H405.7M367.5,369.6V379.1H386.6M348.4,390.9V412.1H367.5M367.5,412.1V401.1H386.6M386.6,401.1V393.8H405.7M405.7,393.8V388.9H424.8M405.7,393.8V398.7H424.8M386.6,401.1V408.5H405.7M367.5,412.1V423.1H386.6M386.6,423.1V418.2H405.7M386.6,423.1V428H405.7M329.4,414.3V437.8H348.4M310.3,433.4V452.5H329.4M329.4,452.5V447.6H348.4M329.4,452.5V457.4H348.4M291.2,474V514.6H310.3M310.3,514.6V503.3H329.4M329.4,503.3V490.5H348.4M348.4,490.5V479.4H367.5M367.5,479.4V472.1H386.6M386.6,472.1V467.2H405.7M386.6,472.1V477H405.7M367.5,479.4V486.8H386.6M348.4,490.5V501.5H367.5M367.5,501.5V496.6H386.6M367.5,501.5V506.4H386.6M329.4,503.3V516.2H348.4M310.3,514.6V526H329.4M272.1,515.3V556.6H291.2M291.2,556.6V548H310.3M310.3,548V540.6H329.4M329.4,540.6V535.8H348.4M329.4,540.6V545.5H348.4M310.3,548V555.3H329.4M291.2,556.6V565.1H310.3M5,698V712H24.1" stroke="#91bfdb"></path><text x="26.1" y="687" class="node" fill="#4A6FE3">1</text><text x="45.2" y="673.7" class="node" fill="#E17F94">0.18</text><text x="64.2" y="661.8" class="node" fill="#4A6FE3">1</text><text x="83.3" y="647.8" class="node" fill="#4A6FE3">1</text><text x="102.4" y="634.5" class="node" fill="#CACDE3">0.59</text><text x="121.5" y="622.5" class="node" fill="#4A6FE3">1</text><text x="140.6" y="608.3" class="node" fill="#4A6FE3">1</text><text x="159.6" y="589.7" class="node" fill="#4A6FE3">1</text><text x="178.7" y="562.4" class="node" fill="#DADBE3">0.53</text><text x="197.8" y="517.5" class="node" fill="#4A6FE3">1</text><text x="216.9" y="437.5" class="node" fill="#4A6FE3">1</text><text x="236" y="307.1" class="node" fill="#4A6FE3">1</text><text x="255" y="290.9" class="node" fill="#4A6FE3">1</text><text x="274.1" y="268.3" class="node" fill="#4A6FE3">1</text><text x="293.2" y="232.8" class="node" fill="#4A6FE3">1</text><text x="312.3" y="176.5" class="node" fill="#4A6FE3">1</text><text x="331.4" y="108" class="node" fill="#4A6FE3">1</text><text x="350.4" y="83.6" class="node" fill="#768BE1">0.88</text><text x="369.5" y="58" class="node" fill="#DD6C86">0.12</text><text x="388.6" y="42.4" class="node" fill="#768BE1">0.88</text><text x="407.7" y="30.8" class="node" fill="#627DE1">0.94</text><text x="426.8" y="22.2" class="node" fill="#627DE1">0.94</text><text x="445.8" y="14.9" class="node" fill="#4A6FE3">1</text><text x="407.7" y="54.1" class="node" fill="#DADBE3">0.53</text><text x="388.6" y="73.6" class="node" fill="#E6BDC5">0.38</text><text x="369.5" y="109.1" class="node" fill="#D2D4E3">0.56</text><text x="388.6" y="100.6" class="node" fill="#6D84E1">0.91</text><text x="407.7" y="93.2" class="node" fill="#4A6FE3">1</text><text x="350.4" y="132.4" class="node" fill="#4A6FE3">1</text><text x="331.4" y="245.1" class="node" fill="#4A6FE3">1</text><text x="350.4" y="224.3" class="node" fill="#4A6FE3">1</text><text x="369.5" y="213.5" class="node" fill="#4A6FE3">1</text><text x="388.6" y="201.5" class="node" fill="#4A6FE3">1</text><text x="407.7" y="187.5" class="node" fill="#4A6FE3">1</text><text x="426.8" y="174" class="node" fill="#4A6FE3">1</text><text x="445.8" y="161.8" class="node" fill="#E2E2E2">0.5</text><text x="464.9" y="152" class="node" fill="#4A6FE3">1</text><text x="464.9" y="171.6" class="node" fill="#4A6FE3">1</text><text x="426.8" y="200.9" class="node" fill="#4A6FE3">1</text><text x="350.4" y="265.8" class="node" fill="#4A6FE3">1</text><text x="369.5" y="257.2" class="node" fill="#4A6FE3">1</text><text x="388.6" y="249.9" class="node" fill="#4A6FE3">1</text><text x="312.3" y="289.1" class="node" fill="#4A6FE3">1</text><text x="236" y="567.9" class="node" fill="#4A6FE3">1</text><text x="255" y="548.1" class="node" fill="#4A6FE3">1</text><text x="274.1" y="518.3" class="node" fill="#929FE1">0.79</text><text x="293.2" y="477" class="node" fill="#4A6FE3">1</text><text x="312.3" y="436.4" class="node" fill="#4A6FE3">1</text><text x="331.4" y="417.3" class="node" fill="#627DE1">0.94</text><text x="350.4" y="393.9" class="node" fill="#627DE1">0.94</text><text x="369.5" y="372.6" class="node" fill="#4A6FE3">1</text><text x="388.6" y="363.1" class="node" fill="#D2D4E3">0.56</text><text x="407.7" y="353.9" class="node" fill="#E5D0D3">0.44</text><text x="426.8" y="345.4" class="node" fill="#4A6FE3">1</text><text x="445.8" y="338" class="node" fill="#4A6FE3">1</text><text x="369.5" y="415.1" class="node" fill="#4A6FE3">1</text><text x="388.6" y="404.1" class="node" fill="#4A6FE3">1</text><text x="407.7" y="396.8" class="node" fill="#4A6FE3">1</text><text x="388.6" y="426.1" class="node" fill="#4A6FE3">1</text><text x="331.4" y="455.5" class="node" fill="#E5D0D3">0.44</text><text x="312.3" y="517.6" class="node" fill="#4A6FE3">1</text><text x="331.4" y="506.3" class="node" fill="#4A6FE3">1</text><text x="350.4" y="493.5" class="node" fill="#929FE1">0.79</text><text x="369.5" y="482.4" class="node" fill="#CACDE3">0.59</text><text x="388.6" y="475.1" class="node" fill="#E6ABB6">0.32</text><text x="369.5" y="504.5" class="node" fill="#4A6FE3">1</text><text x="293.2" y="559.6" class="node" fill="#4A6FE3">1</text><text x="312.3" y="551" class="node" fill="#CACDE3">0.59</text><text x="331.4" y="543.6" class="node" fill="#E59FAC">0.29</text><text x="102.4" y="661.1" class="node" fill="#4A6FE3">1</text><text x="45.2" y="700.3" class="node" fill="#4A6FE3">1</text></svg>
