<svg xmlns="http://www.w3.org/2000/svg" version="1.1" viewBox="0 0 682 720" preserveAspectRatio="xMidYMid meet" class="tree" data-char="281"><text x="678" y="12.7" text-anchor="end" class="stepsLabel">Character adds <tspan class="score">3</tspan> to tree score</text><text x="678" y="22.4" text-anchor="end" class="stepsLabel"><tspan class="score">0</tspan> additional regions</text><text x="678" y="32.1" text-anchor="end" class="stepsLabel"></text><text x="678" y="51.5" text-anchor="end" class="stepsLabel"><tspan dy="16" fill="#34caaf">An optimal tree under:</tspan><tspan x="680" style="font-style:italic" class="notThisAn" dy="1.2em">Implied weights, k = 4.5</tspan><tspan x="680" style="font-style:italic" class="notThisAn" dy="1.2em">IW, k = 10.5</tspan><tspan x="680" style="font-style:italic" class="notThisAn" dy="1.2em">IW, k = 24</tspan><tspan x="680" style="font-style:italic" class="thisAn" dy="1.2em">Equal weights</tspan></text><text x="62.2" y="695.4" fill="#fc8d59" class="flag">[0]</text><text x="84.2" y="695.4" fill="#000" class="taxonLabel">Flustra</text><text x="62.2" y="705.2" fill="#fc8d59" class="flag">[0]</text><text x="84.2" y="705.2" fill="#000" class="taxonLabel">Amathia</text><text x="81.3" y="675.8" fill="#fc8d59" class="flag">[0]</text><text x="103.3" y="675.8" fill="#000" class="taxonLabel">Phoronis</text><text x="81.3" y="685.6" fill="grey" class="flag">[?]</text><text x="103.3" y="685.6" fill="#999" class="taxonLabel">Namacalathus</text><text x="214.9" y="597.5" fill="grey" class="flag">[?]</text><text x="236.9" y="597.5" fill="#999" class="taxonLabel">Paramicrocornus</text><text x="214.9" y="607.3" fill="grey" class="flag">[?]</text><text x="236.9" y="607.3" fill="#999" class="taxonLabel">Haplophrentis carinatus</text><text x="329.4" y="538.8" fill="grey" class="flag">[?]</text><text x="351.4" y="538.8" fill="#999" class="taxonLabel">Serpula</text><text x="329.4" y="548.5" fill="grey" class="flag">[?]</text><text x="351.4" y="548.5" fill="#999" class="taxonLabel">Capitella</text><text x="310.3" y="558.3" fill="#91bfdb" class="flag">[1]</text><text x="332.3" y="558.3" fill="#000" class="taxonLabel">Canadia spinosa</text><text x="291.2" y="568.1" fill="grey" class="flag">[?]</text><text x="313.2" y="568.1" fill="#999" class="taxonLabel">Sipunculus</text><text x="405.7" y="470.2" fill="#91bfdb" class="flag">[1]</text><text x="427.7" y="470.2" fill="#000" class="taxonLabel">Haliotis</text><text x="405.7" y="480" fill="grey" class="flag">[?]</text><text x="427.7" y="480" fill="#999" class="taxonLabel">Conocardium elongatum</text><text x="386.6" y="489.8" fill="#91bfdb" class="flag">[1]</text><text x="408.6" y="489.8" fill="#000" class="taxonLabel">Neopilina</text><text x="367.5" y="499.6" fill="grey" class="flag">[?]</text><text x="389.5" y="499.6" fill="#999" class="taxonLabel">Pojetaia runnegari</text><text x="348.4" y="509.4" fill="grey" class="flag">[?]</text><text x="370.4" y="509.4" fill="#999" class="taxonLabel">Mytilus</text><text x="329.4" y="519.2" fill="#91bfdb" class="flag">[1]</text><text x="351.4" y="519.2" fill="#000" class="taxonLabel">Dentalium</text><text x="348.4" y="450.6" fill="grey" class="flag">[?]</text><text x="370.4" y="450.6" fill="#999" class="taxonLabel">Wiwaxia corrugata</text><text x="348.4" y="460.4" fill="grey" class="flag">[?]</text><text x="370.4" y="460.4" fill="#999" class="taxonLabel">Odontogriphus omalus</text><text x="405.7" y="421.2" fill="#91bfdb" class="flag">[1]</text><text x="427.7" y="421.2" fill="#000" class="taxonLabel">Wirenia</text><text x="405.7" y="431" fill="#fc8d59" class="flag">[0]</text><text x="427.7" y="431" fill="#000" class="taxonLabel">Chaetoderma</text><text x="424.8" y="391.9" fill="grey" class="flag">[?]</text><text x="446.8" y="391.9" fill="#999" class="taxonLabel">Phthipodochiton thraivensis</text><text x="424.8" y="401.7" fill="grey" class="flag">[?]</text><text x="446.8" y="401.7" fill="#999" class="taxonLabel">Kulindroplax perissokomos</text><text x="405.7" y="411.5" fill="grey" class="flag">[?]</text><text x="427.7" y="411.5" fill="#999" class="taxonLabel">Acaenoplax hayae</text><text x="462.9" y="333.1" fill="#91bfdb" class="flag">[1]</text><text x="484.9" y="333.1" fill="#000" class="taxonLabel">Tonicella</text><text x="462.9" y="342.9" fill="#91bfdb" class="flag">[1]</text><text x="484.9" y="342.9" fill="#000" class="taxonLabel">Mopalia</text><text x="443.8" y="352.7" fill="grey" class="flag">[?]</text><text x="465.8" y="352.7" fill="#999" class="taxonLabel">Glaphurochiton carbonarius</text><text x="424.8" y="362.5" fill="#91bfdb" class="flag">[1]</text><text x="446.8" y="362.5" fill="#000" class="taxonLabel">Leptochiton</text><text x="405.7" y="372.3" fill="grey" class="flag">[?]</text><text x="427.7" y="372.3" fill="#999" class="taxonLabel">Calvapilosa kroegeri</text><text x="386.6" y="382.1" fill="grey" class="flag">[?]</text><text x="408.6" y="382.1" fill="#999" class="taxonLabel">Polysacos vickersianum</text><text x="348.4" y="440.8" fill="grey" class="flag">[?]</text><text x="370.4" y="440.8" fill="#999" class="taxonLabel">Siphogonuchites multa</text><text x="291.2" y="529" fill="grey" class="flag">[?]</text><text x="313.2" y="529" fill="#999" class="taxonLabel">Pelagiella</text><text x="253" y="577.9" fill="grey" class="flag">[?]</text><text x="275" y="577.9" fill="#999" class="taxonLabel">Bactrotheca</text><text x="234" y="587.7" fill="grey" class="flag">[?]</text><text x="256" y="587.7" fill="#999" class="taxonLabel">Cupitheca holocyclata</text><text x="310.3" y="284.2" fill="grey" class="flag">[?]</text><text x="332.3" y="284.2" fill="#999" class="taxonLabel">Mickwitzia muralensis</text><text x="310.3" y="294" fill="grey" class="flag">[?]</text><text x="332.3" y="294" fill="#999" class="taxonLabel">Heliomedusa orienta</text><text x="386.6" y="245" fill="#fc8d59" class="flag">[0]</text><text x="408.6" y="245" fill="#000" class="taxonLabel">Novocrania</text><text x="386.6" y="254.8" fill="grey" class="flag">[?]</text><text x="408.6" y="254.8" fill="#999" class="taxonLabel">Craniops</text><text x="367.5" y="264.6" fill="grey" class="flag">[?]</text><text x="389.5" y="264.6" fill="#999" class="taxonLabel">Ussunia</text><text x="348.4" y="274.4" fill="grey" class="flag">[?]</text><text x="370.4" y="274.4" fill="#999" class="taxonLabel">Gasconsia</text><text x="424.8" y="196" fill="#fc8d59" class="flag">[0]</text><text x="446.8" y="196" fill="#000" class="taxonLabel">Pelagodiscus atlanticus</text><text x="424.8" y="205.8" fill="grey" class="flag">[?]</text><text x="446.8" y="205.8" fill="#999" class="taxonLabel">Mummpikia nuda</text><text x="482" y="147.1" fill="grey" class="flag">[?]</text><text x="504" y="147.1" fill="#999" class="taxonLabel">Siphonobolus priscus</text><text x="482" y="156.9" fill="grey" class="flag">[?]</text><text x="504" y="156.9" fill="#999" class="taxonLabel">Acanthotretella spinosa</text><text x="462.9" y="166.7" fill="grey" class="flag">[?]</text><text x="484.9" y="166.7" fill="#999" class="taxonLabel">Lingulosacculus</text><text x="443.8" y="176.5" fill="grey" class="flag">[?]</text><text x="465.8" y="176.5" fill="#999" class="taxonLabel">Clupeafumosus socialis</text><text x="424.8" y="186.2" fill="grey" class="flag">[?]</text><text x="446.8" y="186.2" fill="#999" class="taxonLabel">Lingulellotreta malongensis</text><text x="386.6" y="215.6" fill="grey" class="flag">[?]</text><text x="408.6" y="215.6" fill="#999" class="taxonLabel">Botsfordia</text><text x="367.5" y="225.4" fill="grey" class="flag">[?]</text><text x="389.5" y="225.4" fill="#999" class="taxonLabel">Eoobolus</text><text x="348.4" y="235.2" fill="#fc8d59" class="flag">[0]</text><text x="370.4" y="235.2" fill="#000" class="taxonLabel">Lingula</text><text x="348.4" y="127.5" fill="grey" class="flag">[?]</text><text x="370.4" y="127.5" fill="#999" class="taxonLabel">Micromitra</text><text x="348.4" y="137.3" fill="grey" class="flag">[?]</text><text x="370.4" y="137.3" fill="#999" class="taxonLabel">Askepasma toddense</text><text x="386.6" y="98.1" fill="grey" class="flag">[?]</text><text x="408.6" y="98.1" fill="#999" class="taxonLabel">Yuganotheca elegans</text><text x="386.6" y="107.9" fill="grey" class="flag">[?]</text><text x="408.6" y="107.9" fill="#999" class="taxonLabel">Tomteluva perturbata</text><text x="424.8" y="68.8" fill="grey" class="flag">[?]</text><text x="446.8" y="68.8" fill="#999" class="taxonLabel">Coolinia pecten</text><text x="424.8" y="78.5" fill="grey" class="flag">[?]</text><text x="446.8" y="78.5" fill="#999" class="taxonLabel">Antigonambonites planus</text><text x="443.8" y="49.2" fill="grey" class="flag">[?]</text><text x="465.8" y="49.2" fill="#999" class="taxonLabel">Nisusia sulcata</text><text x="443.8" y="59" fill="grey" class="flag">[?]</text><text x="465.8" y="59" fill="#999" class="taxonLabel">Kutorgina chengjiangensis</text><text x="482" y="10" fill="#fc8d59" class="flag">[0]</text><text x="504" y="10" fill="#000" class="taxonLabel">Terebratulina</text><text x="482" y="19.8" fill="grey" class="flag">[?]</text><text x="504" y="19.8" fill="#999" class="taxonLabel">Orthis</text><text x="462.9" y="29.6" fill="grey" class="flag">[?]</text><text x="484.9" y="29.6" fill="#999" class="taxonLabel">Alisina</text><text x="443.8" y="39.4" fill="grey" class="flag">[?]</text><text x="465.8" y="39.4" fill="#999" class="taxonLabel">Glyptoria</text><text x="386.6" y="88.3" fill="grey" class="flag">[?]</text><text x="408.6" y="88.3" fill="#999" class="taxonLabel">Longtancunella chengjiangensis</text><text x="348.4" y="117.7" fill="grey" class="flag">[?]</text><text x="370.4" y="117.7" fill="#999" class="taxonLabel">Salanygolina</text><text x="272.1" y="303.8" fill="grey" class="flag">[?]</text><text x="294.1" y="303.8" fill="#999" class="taxonLabel">Micrina</text><text x="253" y="313.5" fill="grey" class="flag">[?]</text><text x="275" y="313.5" fill="#999" class="taxonLabel">Paterimitra</text><text x="234" y="323.3" fill="grey" class="flag">[?]</text><text x="256" y="323.3" fill="#999" class="taxonLabel">Pedunculotheca diania</text><text x="176.7" y="617.1" fill="grey" class="flag">[?]</text><text x="198.7" y="617.1" fill="#999" class="taxonLabel">Halkieria evangelista</text><text x="157.6" y="626.9" fill="grey" class="flag">[?]</text><text x="179.6" y="626.9" fill="#999" class="taxonLabel">Orthrozanclus</text><text x="138.6" y="636.7" fill="grey" class="flag">[?]</text><text x="160.6" y="636.7" fill="#999" class="taxonLabel">Yilingia spiciformis</text><text x="119.5" y="646.5" fill="grey" class="flag">[?]</text><text x="141.5" y="646.5" fill="#999" class="taxonLabel">Dailyatia</text><text x="100.4" y="656.2" fill="grey" class="flag">[?]</text><text x="122.4" y="656.2" fill="#999" class="taxonLabel">Cotyledion tylodes</text><text x="81.3" y="666" fill="grey" class="flag">[?]</text><text x="103.3" y="666" fill="#999" class="taxonLabel">Eccentrotheca</text><text x="24.1" y="715" fill="#91bfdb" class="flag">[1]</text><text x="46.1" y="715" fill="#000" class="taxonLabel">Loxosomella</text><path d="M5,696.6V681.1H24.1M24.1,681.1V664.9H43.2M43.2,664.9V652.1H62.2M62.2,652.1V641.1H81.3M81.3,641.1V628.9H100.4M100.4,628.9V614.3H119.5M119.5,614.3V594.9H138.6M138.6,594.9V565.9H157.6M157.6,565.9V517.8H176.7M176.7,517.8V436.2H195.8M195.8,436.2V304.4H214.9M214.9,304.4V288.5H234M234,288.5V266.5H253M253,266.5V232.2H272.1M272.1,232.2V178.4H291.2M291.2,178.4V114.7H310.3M310.3,114.7V99.9H329.4M329.4,99.9V85.1H348.4M348.4,85.1V70.2H367.5M367.5,70.2V55H386.6M386.6,55V39.4H405.7M405.7,39.4V27.8H424.8M424.8,27.8V19.2H443.8M443.8,19.2V11.9H462.9M462.9,11.9V7H482M462.9,11.9V16.8H482M443.8,19.2V26.6H462.9M424.8,27.8V36.4H443.8M405.7,39.4V51.1H424.8M424.8,51.1V46.2H443.8M424.8,51.1V56H443.8M386.6,55V70.6H405.7M405.7,70.6V65.8H424.8M405.7,70.6V75.5H424.8M367.5,70.2V85.3H386.6M348.4,85.1V100H367.5M367.5,100V95.1H386.6M367.5,100V104.9H386.6M329.4,99.9V114.7H348.4M310.3,114.7V129.4H329.4M329.4,129.4V124.5H348.4M329.4,129.4V134.3H348.4M291.2,178.4V242.2H310.3M310.3,242.2V221.5H329.4M329.4,221.5V210.9H348.4M348.4,210.9V199.3H367.5M367.5,199.3V186H386.6M386.6,186V174.1H405.7M405.7,174.1V164.9H424.8M424.8,164.9V156.3H443.8M443.8,156.3V149H462.9M462.9,149V144.1H482M462.9,149V153.9H482M443.8,156.3V163.7H462.9M424.8,164.9V173.5H443.8M405.7,174.1V183.2H424.8M386.6,186V197.9H405.7M405.7,197.9V193H424.8M405.7,197.9V202.8H424.8M367.5,199.3V212.6H386.6M348.4,210.9V222.4H367.5M329.4,221.5V232.2H348.4M310.3,242.2V262.8H329.4M329.4,262.8V254.2H348.4M348.4,254.2V246.9H367.5M367.5,246.9V242H386.6M367.5,246.9V251.8H386.6M348.4,254.2V261.6H367.5M329.4,262.8V271.4H348.4M272.1,232.2V286.1H291.2M291.2,286.1V281.2H310.3M291.2,286.1V291H310.3M253,266.5V300.8H272.1M234,288.5V310.5H253M214.9,304.4V320.3H234M195.8,436.2V567.9H214.9M386.6,423.1V428H405.7M176.7,517.8V599.4H195.8M195.8,599.4V594.5H214.9M195.8,599.4V604.3H214.9M157.6,565.9V614.1H176.7M138.6,594.9V623.9H157.6M119.5,614.3V633.7H138.6M100.4,628.9V643.5H119.5M81.3,641.1V653.2H100.4M62.2,652.1V663H81.3M43.2,664.9V677.7H62.2M62.2,677.7V672.8H81.3M62.2,677.7V682.6H81.3M24.1,681.1V697.3H43.2M43.2,697.3V692.4H62.2M43.2,697.3V702.2H62.2" stroke="#fc8d59"></path><path d="M214.9,567.9V551.1H234M234,551.1V574.9H253M214.9,567.9V584.7H234" stroke="darkgrey"></path><path d="M234,551.1V527.3H253M253,527.3V498H272.1M272.1,498V470.1H291.2M291.2,470.1V433.4H310.3M310.3,433.4V414.3H329.4M329.4,414.3V390.9H348.4M348.4,390.9V369.6H367.5M367.5,369.6V360.1H386.6M386.6,360.1V350.9H405.7M405.7,350.9V342.4H424.8M424.8,342.4V335H443.8M443.8,335V330.1H462.9M443.8,335V339.9H462.9M424.8,342.4V349.7H443.8M405.7,350.9V359.5H424.8M386.6,360.1V369.3H405.7M367.5,369.6V379.1H386.6M348.4,390.9V412.1H367.5M367.5,412.1V401.1H386.6M386.6,401.1V393.8H405.7M405.7,393.8V388.9H424.8M405.7,393.8V398.7H424.8M386.6,401.1V408.5H405.7M367.5,412.1V423.1H386.6M386.6,423.1V418.2H405.7M329.4,414.3V437.8H348.4M310.3,433.4V452.5H329.4M329.4,452.5V447.6H348.4M329.4,452.5V457.4H348.4M291.2,470.1V506.7H310.3M310.3,506.7V497.2H329.4M329.4,497.2V488H348.4M348.4,488V479.4H367.5M367.5,479.4V472.1H386.6M386.6,472.1V467.2H405.7M386.6,472.1V477H405.7M367.5,479.4V486.8H386.6M348.4,488V496.6H367.5M329.4,497.2V506.4H348.4M310.3,506.7V516.2H329.4M272.1,498V526H291.2M253,527.3V556.6H272.1M272.1,556.6V548H291.2M291.2,548V540.6H310.3M310.3,540.6V535.8H329.4M310.3,540.6V545.5H329.4M291.2,548V555.3H310.3M272.1,556.6V565.1H291.2M5,696.6V712H24.1" stroke="#91bfdb"></path><text x="26.1" y="684.1" class="node" fill="#4A6FE3">1</text><text x="45.2" y="667.9" class="node" fill="#4A6FE3">1</text><text x="64.2" y="655.1" class="node" fill="#E5D0D3">0.44</text><text x="83.3" y="644.1" class="node" fill="#4A6FE3">1</text><text x="102.4" y="631.9" class="node" fill="#CACDE3">0.59</text><text x="121.5" y="617.3" class="node" fill="#4A6FE3">1</text><text x="140.6" y="597.9" class="node" fill="#4A6FE3">1</text><text x="159.6" y="568.9" class="node" fill="#4A6FE3">1</text><text x="178.7" y="520.8" class="node" fill="#4A6FE3">1</text><text x="197.8" y="439.2" class="node" fill="#4A6FE3">1</text><text x="216.9" y="307.4" class="node" fill="#4A6FE3">1</text><text x="236" y="291.5" class="node" fill="#4A6FE3">1</text><text x="255" y="269.5" class="node" fill="#4A6FE3">1</text><text x="274.1" y="235.2" class="node" fill="#4A6FE3">1</text><text x="293.2" y="181.4" class="node" fill="#4A6FE3">1</text><text x="312.3" y="117.7" class="node" fill="#4A6FE3">1</text><text x="331.4" y="102.9" class="node" fill="#DADBE3">0.53</text><text x="350.4" y="88.1" class="node" fill="#E5C7CC">0.41</text><text x="369.5" y="73.2" class="node" fill="#768BE1">0.88</text><text x="388.6" y="58" class="node" fill="#9AA6E2">0.76</text><text x="407.7" y="42.4" class="node" fill="#768BE1">0.88</text><text x="426.8" y="30.8" class="node" fill="#627DE1">0.94</text><text x="445.8" y="22.2" class="node" fill="#627DE1">0.94</text><text x="464.9" y="14.9" class="node" fill="#DADBE3">0.53</text><text x="426.8" y="54.1" class="node" fill="#4A6FE3">1</text><text x="407.7" y="73.6" class="node" fill="#6D84E1">0.91</text><text x="369.5" y="103" class="node" fill="#4A6FE3">1</text><text x="331.4" y="132.4" class="node" fill="#4A6FE3">1</text><text x="312.3" y="245.2" class="node" fill="#4A6FE3">1</text><text x="331.4" y="224.5" class="node" fill="#4A6FE3">1</text><text x="350.4" y="213.9" class="node" fill="#4A6FE3">1</text><text x="369.5" y="202.3" class="node" fill="#4A6FE3">1</text><text x="388.6" y="189" class="node" fill="#4A6FE3">1</text><text x="407.7" y="177.1" class="node" fill="#4A6FE3">1</text><text x="426.8" y="167.9" class="node" fill="#E6ABB6">0.32</text><text x="445.8" y="159.3" class="node" fill="#4A6FE3">1</text><text x="464.9" y="152" class="node" fill="#4A6FE3">1</text><text x="407.7" y="200.9" class="node" fill="#4A6FE3">1</text><text x="331.4" y="265.8" class="node" fill="#4A6FE3">1</text><text x="350.4" y="257.2" class="node" fill="#4A6FE3">1</text><text x="369.5" y="249.9" class="node" fill="#4A6FE3">1</text><text x="293.2" y="289.1" class="node" fill="#4A6FE3">1</text><text x="216.9" y="570.9" class="node" fill="#4A6FE3">1</text><text x="236" y="554.1" class="node" fill="#4A6FE3">1</text><text x="255" y="530.3" class="node" fill="#929FE1">0.79</text><text x="274.1" y="501" class="node" fill="#D2D4E3">0.56</text><text x="293.2" y="473.1" class="node" fill="#4A6FE3">1</text><text x="312.3" y="436.4" class="node" fill="#4A6FE3">1</text><text x="331.4" y="417.3" class="node" fill="#627DE1">0.94</text><text x="350.4" y="393.9" class="node" fill="#627DE1">0.94</text><text x="369.5" y="372.6" class="node" fill="#4A6FE3">1</text><text x="388.6" y="363.1" class="node" fill="#D2D4E3">0.56</text><text x="407.7" y="353.9" class="node" fill="#E392A2">0.24</text><text x="426.8" y="345.4" class="node" fill="#4A6FE3">1</text><text x="445.8" y="338" class="node" fill="#4A6FE3">1</text><text x="369.5" y="415.1" class="node" fill="#4A6FE3">1</text><text x="388.6" y="404.1" class="node" fill="#4A6FE3">1</text><text x="407.7" y="396.8" class="node" fill="#4A6FE3">1</text><text x="388.6" y="426.1" class="node" fill="#4A6FE3">1</text><text x="331.4" y="455.5" class="node" fill="#4A6FE3">1</text><text x="312.3" y="509.7" class="node" fill="#4A6FE3">1</text><text x="331.4" y="500.2" class="node" fill="#E6B4BD">0.35</text><text x="350.4" y="491" class="node" fill="#929FE1">0.79</text><text x="369.5" y="482.4" class="node" fill="#E392A2">0.24</text><text x="388.6" y="475.1" class="node" fill="#4A6FE3">1</text><text x="274.1" y="559.6" class="node" fill="#4A6FE3">1</text><text x="293.2" y="551" class="node" fill="#E5C7CC">0.41</text><text x="312.3" y="543.6" class="node" fill="#E4D9DB">0.47</text><text x="197.8" y="602.4" class="node" fill="#E2899B">0.21</text><text x="64.2" y="680.7" class="node" fill="#4A6FE3">1</text><text x="45.2" y="700.3" class="node" fill="#4A6FE3">1</text></svg>
